<svg width="301" height="206" viewBox="0 0 301 206" fill="none" xmlns="http://www.w3.org/2000/svg">
<path fill-rule="evenodd" clip-rule="evenodd" d="M121.535 10C117.998 10 114.615 11.4406 112.164 13.9896V13.9896C106.94 19.4229 100.745 30 93.2075 30H11C10.4477 30 10 30.4477 10 31V195C10 195.552 10.4477 196 11 196H290C290.552 196 291 195.552 291 195V31C291 30.4477 290.552 30 290 30H208.498C200.903 30 194.64 19.3194 189.322 13.8973V13.8973C186.878 11.4045 183.533 10 180.041 10H121.535Z" fill="#BCBCBC"/>
<path d="M114.687 16.4155C116.478 14.5527 118.951 13.5 121.535 13.5V6.5C117.046 6.5 112.752 8.32841 109.641 11.5637L114.687 16.4155ZM11 33.5H93.2075V26.5H11V33.5ZM13.5 31C13.5 32.3807 12.3807 33.5 11 33.5V26.5C8.5147 26.5 6.5 28.5147 6.5 31H13.5ZM13.5 195V31H6.5V195H13.5ZM11 192.5C12.3807 192.5 13.5 193.619 13.5 195H6.5C6.5 197.485 8.5147 199.5 11 199.5V192.5ZM290 192.5H11V199.5H290V192.5ZM287.5 195C287.5 193.619 288.619 192.5 290 192.5V199.5C292.485 199.5 294.5 197.485 294.5 195H287.5ZM287.5 31V195H294.5V31H287.5ZM290 33.5C288.619 33.5 287.5 32.3807 287.5 31H294.5C294.5 28.5147 292.485 26.5 290 26.5V33.5ZM208.498 33.5H290V26.5H208.498V33.5ZM180.041 13.5C182.593 13.5 185.037 14.5264 186.824 16.348L191.821 11.4466C188.718 8.28266 184.473 6.5 180.041 6.5V13.5ZM121.535 13.5H180.041V6.5H121.535V13.5ZM208.498 26.5C206.296 26.5 203.741 24.8845 200.594 21.5716C199.104 20.0024 197.663 18.2563 196.195 16.4748C194.768 14.7433 193.278 12.9318 191.821 11.4466L186.824 16.348C188.026 17.5739 189.313 19.1307 190.793 20.9268C192.232 22.6729 193.829 24.6136 195.519 26.3923C198.732 29.7752 203.106 33.5 208.498 33.5V26.5ZM109.641 11.5637C108.215 13.0464 106.751 14.8501 105.347 16.5701C103.902 18.3397 102.481 20.0729 101.011 21.6271C97.9054 24.9096 95.3809 26.5 93.2075 26.5V33.5C98.5716 33.5 102.913 29.8019 106.096 26.4375C107.769 24.6683 109.347 22.7384 110.769 20.9967C112.231 19.2054 113.5 17.6494 114.687 16.4155L109.641 11.5637Z" fill="black"/>
<mask id="path-3-inside-1_809_2" fill="white">
<path d="M12.5 73H288.5V193.5H12.5V73Z"/>
</mask>
<path d="M12.5 73H288.5V193.5H12.5V73Z" fill="#848484"/>
<path d="M12.5 80H288.5V66H12.5V80Z" fill="black" mask="url(#path-3-inside-1_809_2)"/>
<path d="M207.5 112.5C207.5 142.184 182.346 166.5 151 166.5C119.654 166.5 94.5 142.184 94.5 112.5C94.5 82.8155 119.654 58.5 151 58.5C182.346 58.5 207.5 82.8155 207.5 112.5Z" fill="#BEBEBE" stroke="black" stroke-width="7"/>
<path d="M181.5 112C181.5 128.147 167.769 141.5 150.5 141.5C133.231 141.5 119.5 128.147 119.5 112C119.5 95.8526 133.231 82.5 150.5 82.5C167.769 82.5 181.5 95.8526 181.5 112Z" fill="#E4E4E4" stroke="black" stroke-width="7"/>
<path d="M134 110C135.48 102.835 137.433 99.5493 146 97" stroke="#333333" stroke-width="5" stroke-linecap="round"/>
</svg>
