<svg width="108" height="106" viewBox="0 0 108 106" fill="none" xmlns="http://www.w3.org/2000/svg">
<path fill-rule="evenodd" clip-rule="evenodd" d="M53.854 5C26.839 5 5 27 5 54.217C5 75.973 18.993 94.389 38.405 100.907C40.832 101.397 41.721 99.848 41.721 98.545C41.721 97.404 41.641 93.493 41.641 89.418C28.051 92.352 25.221 83.551 25.221 83.551C23.037 77.847 19.801 76.381 19.801 76.381C15.353 73.366 20.125 73.366 20.125 73.366C25.059 73.692 27.648 78.418 27.648 78.418C32.015 85.914 39.052 83.796 41.883 82.492C42.287 79.314 43.582 77.114 44.957 75.892C34.118 74.751 22.714 70.514 22.714 51.609C22.714 46.231 24.654 41.831 27.728 38.409C27.243 37.187 25.544 32.134 28.214 25.371C28.214 25.371 32.339 24.067 41.64 30.423C45.6221 29.3457 49.7288 28.7976 53.854 28.793C57.979 28.793 62.184 29.364 66.067 30.423C75.369 24.067 79.494 25.371 79.494 25.371C82.164 32.134 80.464 37.187 79.979 38.409C83.134 41.831 84.994 46.231 84.994 51.609C84.994 70.514 73.59 74.669 62.67 75.892C64.45 77.44 65.986 80.373 65.986 85.018C65.986 91.618 65.906 96.915 65.906 98.544C65.906 99.848 66.796 101.397 69.222 100.908C88.634 94.388 102.627 75.973 102.627 54.217C102.707 27 80.788 5 53.854 5Z" fill="white"/>
</svg>
