<svg width="98" height="76" viewBox="0 0 98 76" fill="none" xmlns="http://www.w3.org/2000/svg">
<path d="M11 71H25V37L5 22V65C5 68.32 7.69 71 11 71Z" fill="#4285F4"/>
<path d="M73 71H87C90.32 71 93 68.31 93 65V22L73 37" fill="#34A853"/>
<path d="M73 11.0001V37.0001L93 22.0001V14.0001C93 6.58005 84.53 2.35005 78.6 6.80005" fill="#FBBC04"/>
<path d="M25 37V11L49 29L73 11V37L49 55" fill="#EA4335"/>
<path d="M5 14.0001V22.0001L25 37.0001V11.0001L19.4 6.80005C13.46 2.35005 5 6.58005 5 14.0001Z" fill="#C5221F"/>
</svg>
