<svg width="289" height="377" viewBox="0 0 289 377" fill="none" xmlns="http://www.w3.org/2000/svg">
<path d="M129.576 104.935C127.419 111.435 127.131 114.759 128.601 119.978C133.541 124.893 136.342 126.629 141.372 127.537C146.327 126.28 149 124.354 153.585 119.106C154.687 113.796 154.168 110.501 151.563 104.167C164.757 108.498 169.632 113.209 175.282 124.352C173.684 130.856 171.833 133.766 166.224 137.176L172.964 143.945L206.193 121.271C212.31 105.739 214.678 97.0969 215.325 81.9286C216.333 58.6331 216.064 45.6083 214.748 22.4125C212.802 13.6923 211.549 8.83898 206.984 0.670159C219.383 5.50329 218.904 10.9955 225.399 26.5433C230.617 86.1599 229.473 85.9373 224.497 129.638C217.57 133.756 212.327 137.211 207.658 140.289C201.682 144.229 196.645 147.549 190.216 150.847C213.796 148.086 226.678 147.696 249.18 148.788C257.308 110.585 258.163 89.8935 257.358 53.4443C259.783 55.2623 261.093 56.437 263.081 59.7484C263.348 62.0728 263.611 64.3507 263.868 66.5847C269.046 111.485 272.181 138.673 266.938 170.181L266.571 170.101C244.543 165.319 232.081 162.613 207.711 164.745C244.707 179.192 257.516 188.859 288.407 211.957C283.629 266.02 282.386 304.236 237.195 364.337L218.934 371.479C254.648 312.639 267.868 279.217 268.613 218.152C242.722 194.25 227.327 181.828 193.356 174.799C194.525 175.796 195.662 176.829 196.767 177.896C213.526 188.447 223.735 196.23 238.369 211.703C238.698 222.367 239.206 232.46 239.684 241.959C241.48 277.637 242.852 304.917 232.731 322.468L214.01 345.135L221.825 325.35C226.279 284.474 224.439 259.971 220.003 215.847C219.17 215.015 218.355 214.199 217.556 213.398C217.437 213.28 217.319 213.162 217.202 213.044C218.493 218.125 219.265 223.421 219.456 228.874C220.892 269.994 188.721 304.493 147.601 305.929C106.481 307.365 71.9824 275.194 70.5465 234.074C70.356 228.621 70.7565 223.285 71.6905 218.127C71.5818 218.252 71.4729 218.378 71.3637 218.504C70.6218 219.358 69.8657 220.229 69.0934 221.117C67.7458 265.443 67.6197 290.015 74.9136 330.48L84.0897 349.672L63.8331 328.366C52.5126 311.564 51.9791 284.255 51.2813 248.538C51.0955 239.029 50.8981 228.925 50.4825 218.265C64.0007 201.81 73.6414 193.333 89.6215 181.641C90.6498 180.498 91.7131 179.387 92.8098 178.31C59.4133 187.692 44.9228 201.158 20.7625 226.807C25.765 287.672 41.2839 320.089 81.0163 376.295L62.3007 370.445C13.0277 313.642 9.12055 275.606 0.58275 222.008C29.7877 196.812 41.8924 186.274 77.7904 169.282C53.3307 168.855 41.0879 172.423 19.4476 178.731L19.0873 178.836C11.659 147.77 12.8898 120.43 14.9225 75.2783C15.0237 73.0317 15.1268 70.741 15.2309 68.4035C16.9831 64.9615 18.2085 63.6983 20.5007 61.7155C22.2404 98.1321 24.5365 118.714 35.3092 156.256C57.6799 153.598 70.5582 153.088 94.2732 154.197C87.6302 151.356 82.3738 148.395 76.137 144.882C71.2647 142.137 65.7941 139.056 58.5966 135.431C50.5824 92.1843 49.4585 92.486 50.5052 32.6507C55.8996 16.6877 55.0392 11.2423 67.0699 5.55608C63.0868 14.0234 62.1749 18.9523 60.8419 27.787C61.1476 51.018 61.787 64.03 64.4176 87.1984C66.1215 102.285 69.087 110.741 76.2722 125.808L111.002 146.109L117.254 138.886C111.42 135.876 109.371 133.102 107.323 126.725C112.182 115.215 116.716 110.176 129.576 104.935Z" fill="black"/>
</svg>
