<svg width="484" height="511" viewBox="0 0 484 511" fill="none" xmlns="http://www.w3.org/2000/svg">
<path d="M106.861 447.492L106.739 447.582L106.638 447.695L87.6243 468.827L101.397 424.811L101.691 423.871L100.946 423.228L86.626 410.865L131.039 381.825L117.345 410.044L116.907 410.947L117.574 411.696L132.543 428.514L106.861 447.492Z" fill="white" stroke="black" stroke-width="3"/>
<path d="M36.3234 355.397L36.1776 355.355L36.0264 355.343L7.69313 353.044L51.0408 337.296L51.9663 336.959L52.0258 335.976L53.1689 317.093L103.196 334.788L72.4546 341.017L71.4712 341.216L71.28 342.201L66.9892 364.303L36.3234 355.397Z" fill="white" stroke="black" stroke-width="3"/>
<path d="M207.985 474.813L207.927 474.953L207.899 475.103L202.552 503.022L191.58 458.226L191.345 457.269L190.375 457.104L171.725 453.927L194.722 406.105L197.593 437.34L197.685 438.339L198.644 438.635L220.152 445.289L207.985 474.813Z" fill="white" stroke="black" stroke-width="3"/>
<path d="M367.512 86.5496L367.648 86.4828L367.769 86.3901L390.268 69.017L368.814 109.843L368.356 110.715L368.973 111.482L380.84 126.216L331.934 146.806L350.473 121.506L351.066 120.696L350.545 119.839L338.84 100.607L367.512 86.5496Z" fill="white" stroke="black" stroke-width="3"/>
<path d="M420.363 189.816L420.498 189.883L420.645 189.923L448.105 197.272L402.633 204.98L401.663 205.144L401.428 206.1L396.911 224.472L350.876 198.08L382.236 197.473L383.239 197.453L383.604 196.519L391.795 175.547L420.363 189.816Z" fill="white" stroke="black" stroke-width="3"/>
<path d="M272.939 41.5106L273.022 41.3829L273.076 41.2414L283.35 14.7366L286.099 60.7745L286.158 61.7575L287.083 62.0945L304.859 68.5693L273.646 111.483L276.432 80.2411L276.521 79.2417L275.631 78.7778L255.668 68.3691L272.939 41.5106Z" fill="white" stroke="black" stroke-width="3"/>
</svg>
