<svg width="340" height="172" viewBox="0 0 340 172" fill="none" xmlns="http://www.w3.org/2000/svg">
<path d="M249.082 47.0982L249.21 47.0171L249.32 46.9119L261.085 35.6038L250.829 61.5982L250.468 62.5142L251.165 63.2101L259.477 71.5115L231.212 87.1937L240.599 70.9626L241.101 70.094L240.49 69.2981L231.825 58.0112L249.082 47.0982Z" fill="white" stroke="black" stroke-width="3"/>
<path d="M301.608 120.199L301.759 120.216L301.91 120.202L318.163 118.731L293.908 132.609L293.053 133.098L293.162 134.077L294.461 145.753L262.596 140.324L280.069 133.523L281.004 133.159L281.025 132.156L281.317 117.929L301.608 120.199Z" fill="white" stroke="black" stroke-width="3"/>
<path d="M168.97 28.4405L169.052 28.3128L169.107 28.1713L175.005 12.9556L176.67 40.8504L176.729 41.8334L177.654 42.1704L188.692 46.1911L169.679 72.3323L171.344 53.6562L171.433 52.6568L170.544 52.1929L157.926 45.6142L168.97 28.4405Z" fill="white" stroke="black" stroke-width="3"/>
<path d="M89.5406 49.2108L89.4123 49.1297L89.3028 49.0245L77.5372 37.7164L87.7932 63.7108L88.1547 64.6268L87.4579 65.3227L79.1455 73.6241L107.411 89.3063L98.0236 73.0752L97.5213 72.2066L98.1323 71.4107L106.798 60.1238L89.5406 49.2108Z" fill="white" stroke="black" stroke-width="3"/>
<path d="M37.0143 122.312L36.8635 122.329L36.7123 122.315L20.4599 120.844L44.7146 134.722L45.5693 135.211L45.4604 136.19L44.1617 147.865L76.027 142.437L58.5535 135.636L57.6185 135.272L57.5979 134.269L57.306 120.042L37.0143 122.312Z" fill="white" stroke="black" stroke-width="3"/>
</svg>
