<svg width="505" height="358" viewBox="0 0 505 358" fill="none" xmlns="http://www.w3.org/2000/svg">
<path d="M361 24.6665L343.039 79.7491L384.5 74.0889L366.5 124.563L422.5 174.908L343.039 174.908L379.5 218.151L295 211.841L281.5 251.8L234 232.347L174.5 305.429L179.5 244.965L97.5 295.965L133.118 218.151L53.5 186.079L126.5 160.842L71.5 118.78L152 135.079L133.118 48.4253L224.482 96.5353L247.134 30.4496L289.586 79.7491L361 24.6665Z" fill="white" stroke="black" stroke-width="5" stroke-linejoin="round"/>
<path d="M0 125.844L85 158.213L0 141.388V125.844Z" fill="black"/>
<path d="M18 122.195L84.8785 151.248L28.9196 111.718L18 122.195Z" fill="black"/>
<path d="M504.861 216.02L417.402 191.965L503.509 200.541L504.861 216.02Z" fill="black"/>
<path d="M487.254 221.386L418.128 198.889L477.292 232.869L487.254 221.386Z" fill="black"/>
<path d="M101.182 357.87L157.306 283.347L93.4111 344.648L101.182 357.87Z" fill="black"/>
<path d="M118.318 351.024L160.685 289.34L132.845 353.9L118.318 351.024Z" fill="black"/>
<path d="M444.518 6.5144L369.385 59.3807L448.064 21.6044L444.518 6.5144Z" fill="black"/>
<path d="M426.21 7.51223L367.913 52.5878L413.219 0.0959473L426.21 7.51223Z" fill="black"/>
<path d="M156.341 215.747C155.371 214.828 153.619 212.581 150.343 209.094C149.315 208.042 147.789 205.953 146.805 204.881C146.084 204.056 145.106 202.875 144.593 201.684C144.346 201.111 144.205 200.541 144.251 200.041C144.343 199.041 144.383 197.8 145.266 197.061C146.544 196.027 147.07 197.371 147.729 198.173C148.287 198.863 151.61 202.7 152.876 204.063C153.817 205.155 154.551 206.134 155.554 207.25C155.974 207.741 156.457 208.255 156.945 208.66C157.389 209.086 157.752 209.444 158.148 210C158.174 206.906 157.471 203.575 156.781 200.397C156.572 199.062 155.967 197.172 155.671 195.879C155.479 195.067 155.629 192.871 156.133 192.1C156.496 191.608 156.71 191.134 157.249 190.931C158.831 190.603 161.607 195.231 163.577 196.896C165.567 198.605 170.757 203.624 172.713 205.137C172.064 201.567 170.636 192.791 169.905 189.155C169.601 187.6 169.079 182.748 172.027 182.195C173.416 181.905 173.057 184.467 173.19 185.625C173.372 187.504 173.588 190.43 173.919 192.291C174.66 196.56 175.906 201.757 176.399 206.782C176.532 207.94 176.784 209.255 176.91 211.001C177.04 212.639 175.703 214.869 174.741 214.212C173.755 213.619 171.098 210.846 170.209 209.994C169.283 209.054 168.155 207.891 167.204 207.016C165.239 205.242 163.184 203.139 161.032 201.295C160.941 202.295 161.015 203.8 161.256 205.332C161.753 208.549 161.776 209.813 162.313 212.638C162.547 213.908 162.872 215.028 162.827 216.378C162.822 218.187 162.942 219.192 161.864 220.449C160.564 221.918 157.455 216.758 156.341 215.747ZM177.251 184.808C176.819 183.685 178.317 182.919 178.959 182.347C181.291 180.122 183.024 179.296 185.689 177.602C187.174 176.683 188.639 175.72 190.243 174.956C191.413 174.399 192.924 173.786 194.279 173.778C194.999 173.754 195.468 174.115 195.696 174.644C196.076 175.526 195.857 176.958 195.291 177.706C194.633 178.604 193.102 179.173 192.081 179.712C190.578 180.587 189.069 181.571 187.604 182.534C186.25 183.392 185.077 184.428 183.785 185.309C183.13 185.727 181.602 186.667 181.627 187.452C181.63 187.823 181.736 188.675 181.844 189.049C181.991 189.51 182.379 190.654 182.588 191.138C182.891 191.844 182.908 192.367 183.588 192.734C184.571 192.107 185.703 191.461 186.741 190.596C188.815 188.864 190.595 187.539 192.783 186.072C193.853 185.403 194.879 184.755 196.063 184.351C196.992 183.961 198.008 183.531 199.021 183.58C200.078 183.608 200.966 183.61 200.845 184.783C200.753 185.783 200.247 186.184 199.494 186.861C196.816 189.252 194.023 191.378 191.101 193.566C189.915 194.45 188.696 195.136 187.745 195.961C187.215 196.426 186.665 196.847 186.153 197.357C185.227 198.116 186.544 200.57 186.916 201.19C187.187 201.699 187.268 201.766 187.769 201.475C188.574 201.038 189.34 200.514 190.25 200.081C192.981 198.781 195.594 196.846 198.11 195.17C200.342 193.682 200.063 193.762 202.471 192.562C203.338 192.15 204.186 191.693 205.153 191.392C205.518 191.271 205.933 191.02 206.277 191.335C206.497 191.602 206.532 192.169 206.535 192.54C206.516 193.346 206.365 193.843 206.116 194.599C205.794 195.549 204.781 196.35 204.028 197.027C201.783 199.212 201.585 199.359 198.901 201.009C198.072 201.51 197.344 202.122 196.515 202.623C195.797 203.018 195.042 203.325 194.28 203.74C192.999 204.403 191.84 205.592 190.578 206.3C189.73 206.756 188.939 207.345 187.97 207.276C186.981 207.163 186.138 206.661 185.653 205.776C184.405 203.607 183.25 201.289 182.158 198.993C180.68 195.925 180.088 192.488 178.759 189.402C178.132 187.947 177.934 186.395 177.251 184.808ZM204.725 178.898C204.327 177.973 204.061 177.355 203.7 176.518C203.188 175.327 202.965 174.69 202.585 173.808C202.287 172.994 201.945 172.2 201.579 171.471C201.061 170.39 201.375 168.328 202.892 168.456C203.968 168.528 204.556 169.045 204.849 169.968C205.326 171.44 205.847 172.892 206.368 174.345C207.046 176.04 207.637 177.778 208.272 179.494C208.925 181.255 210.056 182.789 210.709 184.549C211.141 185.672 211.634 186.818 212.282 187.838C212.749 188.678 213.136 188.972 214.146 188.65C215.027 188.391 215.948 187.74 216.733 187.259C217.779 186.655 218.748 185.875 219.775 185.227C221.933 183.933 223.743 182.435 226.102 181.364C226.752 181.055 227.648 180.469 228.464 180.665C229.217 180.837 229.304 181.646 229.426 182.172C229.505 182.719 229.592 183.528 229.335 184.022C229.127 184.387 228.745 184.834 228.374 185.064C227.762 185.462 227.274 185.906 226.7 186.392C225.798 187.087 224.522 187.641 223.62 188.336C222.299 189.391 221.494 189.827 220.11 190.858C219.078 191.615 218.076 192.198 217.145 193.067C216.522 193.682 215.582 194.289 214.715 194.701C214.065 195.011 213.507 195.17 213.171 195.118C212.331 194.986 211.42 193.72 211.03 193.056C210.331 191.795 210.252 191.248 209.886 190.52C208.687 188.221 208.183 187.293 207.209 185.153C206.621 183.786 206.033 182.42 205.531 181.012C205.27 180.286 205.029 179.604 204.725 178.898ZM245.767 152.398C246.767 153.144 247.64 154.322 247.893 155.636C248.088 156.818 248.289 157.891 247.731 158.901C247.174 159.91 246.611 161.028 245.57 159.824C244.911 159.022 244.816 157.951 243.854 157.294C243.036 156.727 242.139 156.463 241.188 156.438C240.448 156.418 239.828 156.554 239.221 156.843C237.921 157.462 236.93 158.678 236.126 159.964C234.469 162.665 233.405 165.775 232.789 168.831C232.335 171.172 232.095 173.889 233.477 175.887C234.779 177.818 237.637 177.785 239.715 177.274C240.85 176.999 241.947 176.636 242.987 176.141C244.244 175.542 245.424 174.768 246.467 173.793C248.571 171.888 250.535 169.413 252.257 167.106C252.779 166.379 253.594 164.875 254.512 164.703C255.368 164.508 256.209 166.339 256.253 167.169C256.43 169.156 255.051 170.928 254.02 172.535C252.398 174.954 250.595 177.194 248.284 178.984C246.987 179.974 245.871 181.142 244.341 181.712C243.114 182.137 241.844 182.582 240.559 182.875C238.208 183.357 235.894 183.077 233.762 182.127C232.209 181.432 231.399 180.277 230.81 178.91C230.544 178.293 230.303 177.611 230.105 176.909C229.665 175.524 229.708 173.804 229.61 172.363C229.503 170.661 229.565 168.984 229.732 167.311C230.097 163.791 231.108 160.44 232.681 157.301C233.832 155 235.218 152.64 237.382 151.238C239.112 150.042 241.467 149.93 243.312 150.699C244.39 151.141 244.83 151.676 245.767 152.398ZM281.37 147.666C282.449 149.808 283.03 152.613 282.159 154.834C281.068 157.638 279.596 160.889 277.649 163.038C276.398 164.377 274.865 165.426 273.432 166.586C272.178 167.555 271.298 168.664 269.911 169.325C267.441 170.501 265.369 170.903 262.778 170.224C260.332 169.636 259.386 168.652 258.323 166.183C257.013 163.141 256.359 159.681 257.005 156.451C257.418 154.501 257.25 152.775 258.062 150.901C258.825 149.156 259.455 147.103 260.281 145.382C261.296 143.252 262.097 141.595 263.744 139.961C264.589 139.134 265.799 138.186 267.099 137.567C268.486 136.907 269.982 136.62 271.185 137.109C273.298 138.015 275.919 139.371 277.534 140.939C279.25 142.619 280.316 145.459 281.37 147.666ZM279.37 152.603C279.416 151.253 279.036 149.521 278.39 148.022C278.049 147.229 277.62 146.476 277.181 145.942C276.26 144.893 274.553 144.324 273.447 143.576C272.073 142.689 271.174 142.905 269.827 143.174C269.25 143.29 268.326 143.57 267.749 143.685C267.172 143.801 266.753 144.16 266.252 144.452C265.138 145.141 264.432 146.168 263.538 147.125C260.887 149.822 259.602 154.843 259.894 158.794C259.984 159.973 260.198 161.199 260.692 162.346C261.052 163.183 261.524 163.915 262.194 164.499C262.963 165.195 264.374 164.47 265.436 164.39C266.008 164.383 267.154 163.891 267.712 163.731C268.4 163.51 269.188 163.4 269.863 163.026C271.082 162.34 272.503 161.397 273.527 160.378C274.44 159.466 275.485 158.862 276.298 157.837C277.578 156.324 279.244 154.735 279.37 152.603ZM288.904 133.879C290.129 135.633 291.558 137.131 292.913 138.823C294.111 140.272 297.905 143.99 299.312 145.074C298.88 143.101 298.529 139.496 298.45 138.1C298.404 136.9 298.311 135.35 298.039 133.142C297.778 130.717 297.362 128.417 297.364 125.389C297.388 124.474 298.56 122.588 299.213 121.799C299.86 121.119 300.958 122.456 301.527 122.928C302.622 123.895 302.89 124.882 303.411 125.485C304.213 126.378 304.677 127.697 305.349 128.652C307.328 131.429 308.546 133.771 310.462 136.524C311.687 138.278 311.706 138.322 313.612 141.293C314.398 142.513 314.648 144.306 314.459 145.565C314.251 146.78 313.775 147.856 312.905 147.899C312.545 147.911 311.859 146.803 311.534 146.533C311.228 146.307 310.794 145.663 310.517 145.264C310.051 144.423 309.436 143.6 308.839 142.822C307.666 141.309 306.616 139.843 305.486 138.309C304.418 136.799 302.799 134.01 301.276 132.292C301.173 137.388 301.775 140.607 302.229 143.844C302.558 146.184 302.986 146.937 302.838 149.504C302.795 150.374 302.355 153.718 301.518 153.958C300.614 154.282 299.044 152.214 298.413 151.717C296.681 150.364 295.415 149.001 293.843 147.412C292.997 146.539 292.133 145.623 291.33 144.73C290.666 144.037 289.157 142.471 288.281 141.772C287.956 141.502 288.355 142.428 288.537 143.457C288.673 144.136 289.177 145.915 289.183 146.656C289.287 148.837 289.694 150.025 289.884 152.165C290.004 154.021 290.413 153.879 290.639 155.737C290.734 156.808 290.764 157.484 290.862 158.075C291.017 158.798 290.746 159.14 290.421 159.719C289.801 160.705 288.666 160.98 288.392 160.101C288.072 158.872 287.836 158.081 287.602 156.811C287.075 153.768 286.582 152.622 286.199 149.67C285.843 147.024 285.365 144.702 284.835 142.138C284.339 139.771 284.083 138.087 283.814 136.249C283.521 134.476 283.898 130.259 285.692 129.937C285.692 129.937 285.982 129.639 288.904 133.879ZM310.356 121.434C309.925 120.311 311.423 119.545 312.064 118.974C314.396 116.748 316.13 115.923 318.795 114.229C320.279 113.31 321.744 112.346 323.348 111.583C324.518 111.026 326.029 110.412 327.384 110.405C328.105 110.381 328.573 110.742 328.801 111.271C329.181 112.153 328.962 113.585 328.396 114.332C327.738 115.23 326.208 115.799 325.187 116.339C323.683 117.214 322.175 118.198 320.709 119.161C319.355 120.018 318.183 121.055 316.891 121.935C316.235 122.354 314.708 123.294 314.732 124.079C314.735 124.449 314.841 125.302 314.95 125.675C315.096 126.137 315.484 127.28 315.693 127.765C315.997 128.47 316.013 128.994 316.693 129.361C317.677 128.733 318.809 128.088 319.846 127.222C321.92 125.491 323.7 124.165 325.888 122.698C326.958 122.03 327.985 121.382 329.168 120.977C330.097 120.588 331.113 120.158 332.127 120.206C333.183 120.235 334.072 120.236 333.95 121.41C333.859 122.41 333.352 122.81 332.599 123.488C329.921 125.878 327.129 128.005 324.206 130.193C323.02 131.076 321.801 131.763 320.851 132.587C320.32 133.053 319.77 133.474 319.258 133.983C318.332 134.743 319.65 137.197 320.021 137.817C320.292 138.325 320.374 138.393 320.875 138.101C321.679 137.665 322.446 137.141 323.356 136.707C326.086 135.407 328.7 133.472 331.216 131.796C333.447 130.309 333.168 130.388 335.576 129.189C336.443 128.776 337.291 128.319 338.258 128.018C338.624 127.897 339.038 127.647 339.382 127.961C339.602 128.228 339.637 128.796 339.64 129.166C339.622 129.972 339.47 130.469 339.221 131.225C338.899 132.176 337.886 132.977 337.133 133.654C334.888 135.838 334.691 135.986 332.007 137.635C331.178 138.136 330.449 138.749 329.62 139.25C328.903 139.644 328.147 139.951 327.386 140.367C326.105 141.03 324.946 142.219 323.683 142.926C322.836 143.383 322.045 143.972 321.075 143.903C320.086 143.789 319.243 143.287 318.758 142.403C317.511 140.234 316.356 137.915 315.263 135.62C313.785 132.552 313.193 129.115 311.864 126.029C311.238 124.574 311.039 123.021 310.356 121.434ZM340.05 103.578C340.655 106.318 341.409 109.04 342.231 111.677C342.581 112.732 342.739 113.826 343.045 114.901C343.338 115.824 343.756 116.794 344.092 117.697C344.524 118.82 345.823 122.079 345.409 123.179C345.214 123.697 344.881 124.865 344.282 124.566C343.41 124.237 342.832 122.653 342.298 121.898C341.87 121.146 341.663 120.181 341.408 119.347C341.14 118.359 340.673 117.518 340.38 116.595C340.017 115.387 339.716 114.203 339.284 113.08C338.674 111.298 338.02 109.538 337.602 107.718C337.168 106.225 336.138 104.803 337.411 103.028C337.866 102.386 338.345 101.68 339.179 101.92C339.889 102.114 339.89 102.963 340.05 103.578ZM348.022 127.673C348.694 127.778 349.093 128.703 349.061 129.356C349.063 129.727 348.898 130.071 348.858 130.462C348.728 131.374 348.497 135.203 346.781 134.373C346.532 134.279 345.885 134.109 345.684 133.886C345.364 133.507 345.364 132.657 345.217 132.195C345.044 131.428 344.764 129.808 345.262 129.146C345.76 128.484 347.226 127.521 348.022 127.673Z" fill="black"/>
</svg>
