<svg width="390" height="844" viewBox="0 0 390 844" fill="none" xmlns="http://www.w3.org/2000/svg">
<g clip-path="url(#clip0_128_2458)">
<rect width="390" height="844" fill="#2C2C2E"/>
<path d="M0 0H390V172C390 177.523 385.523 182 380 182H10C4.47715 182 0 177.523 0 172V0Z" fill="#B8F14A"/>
<circle cx="33.5" cy="64.5" r="17.5" fill="white"/>
<path d="M38.1687 66.2121L37.6614 65.3242C37.3384 64.759 37.1769 64.4764 37.1769 64.1666C37.1769 63.8568 37.3384 63.5741 37.6614 63.0089L38.1687 62.1211C39.6134 59.5929 40.3357 58.3288 39.7724 57.7019C39.2091 57.075 37.8753 57.6586 35.2076 58.8257L35.2076 58.8257L27.886 62.0289C25.7913 62.9453 24.7439 63.4036 24.7439 64.1666C24.7439 64.9296 25.7913 65.3878 27.886 66.3043L35.2076 69.5075C37.8753 70.6746 39.2091 71.2582 39.7724 70.6313C40.3357 70.0044 39.6134 68.7403 38.1687 66.2121Z" stroke="black" stroke-width="2.33333"/>
<path d="M33.5 82.125C31.1855 82.125 28.8936 81.6691 26.7552 80.7834C24.6168 79.8976 22.6739 78.5994 21.0372 76.9628C19.4006 75.3261 18.1024 73.3832 17.2166 71.2448C16.3309 69.1064 15.875 66.8145 15.875 64.5C15.875 62.1854 16.3309 59.8936 17.2166 57.7552C18.1024 55.6168 19.4006 53.6739 21.0372 52.0372C22.6739 50.4006 24.6168 49.1024 26.7552 48.2166C28.8936 47.3309 31.1855 46.875 33.5 46.875C35.8146 46.875 38.1064 47.3309 40.2448 48.2166C42.3832 49.1024 44.3261 50.4006 45.9628 52.0372C47.5994 53.6739 48.8976 55.6168 49.7834 57.7552C50.6691 59.8936 51.125 62.1855 51.125 64.5C51.125 66.8146 50.6691 69.1064 49.7834 71.2448C48.8976 73.3832 47.5994 75.3261 45.9628 76.9628C44.3261 78.5994 42.3832 79.8976 40.2448 80.7834C38.1064 81.6691 35.8145 82.125 33.5 82.125L33.5 82.125Z" stroke="black" stroke-width="3.08333" stroke-linecap="round"/>
<circle cx="31.5" cy="139.5" r="18.5" fill="white"/>
<ellipse cx="32.0938" cy="139.594" rx="19.0938" ry="18.5944" stroke="#33363F" stroke-width="3.91667"/>
<path d="M32.1041 147.234C31.012 147.234 29.9654 147.091 28.9643 146.805C27.9632 146.506 27.1571 146.122 26.5461 145.654L27.6187 143.275C28.2037 143.691 28.8928 144.036 29.6859 144.309C30.492 144.569 31.3046 144.699 32.1236 144.699C32.7477 144.699 33.2483 144.64 33.6253 144.523C34.0153 144.393 34.3014 144.218 34.4834 143.997C34.6654 143.776 34.7564 143.522 34.7564 143.236C34.7564 142.872 34.6134 142.586 34.3274 142.378C34.0413 142.157 33.6643 141.981 33.1963 141.851C32.7282 141.708 32.2082 141.578 31.6361 141.461C31.077 141.331 30.5115 141.175 29.9394 140.993C29.3804 140.811 28.8668 140.577 28.3988 140.291C27.9307 140.005 27.5472 139.628 27.2481 139.16C26.9621 138.692 26.8191 138.094 26.8191 137.366C26.8191 136.586 27.0271 135.877 27.4432 135.24C27.8722 134.59 28.5093 134.077 29.3544 133.7C30.2124 133.31 31.2851 133.115 32.5722 133.115C33.4303 133.115 34.2754 133.219 35.1075 133.427C35.9395 133.622 36.6741 133.921 37.3112 134.324L36.3361 136.722C35.699 136.358 35.062 136.092 34.4249 135.923C33.7878 135.741 33.1638 135.65 32.5527 135.65C31.9416 135.65 31.4411 135.721 31.051 135.864C30.661 136.007 30.3815 136.196 30.2124 136.43C30.0434 136.651 29.9589 136.911 29.9589 137.21C29.9589 137.561 30.1019 137.847 30.388 138.068C30.674 138.276 31.051 138.445 31.5191 138.575C31.9871 138.705 32.5007 138.835 33.0597 138.965C33.6318 139.095 34.1974 139.245 34.7564 139.414C35.3285 139.583 35.8485 139.81 36.3166 140.096C36.7846 140.382 37.1617 140.759 37.4477 141.227C37.7467 141.695 37.8963 142.287 37.8963 143.002C37.8963 143.769 37.6817 144.471 37.2527 145.108C36.8236 145.745 36.1801 146.259 35.322 146.649C34.4769 147.039 33.4043 147.234 32.1041 147.234Z" fill="black"/>
<circle cx="85.6875" cy="139.5" r="18.5" fill="black"/>
<ellipse cx="86.2812" cy="139.594" rx="19.0938" ry="18.5944" stroke="#33363F" stroke-width="3.91667"/>
<path d="M78.6187 147V133.349H81.2319L87.0436 142.983H85.6589L91.373 133.349H93.9668L94.0058 147H91.0415L91.022 137.893H91.568L87.0046 145.557H85.5809L80.9199 137.893H81.583V147H78.6187Z" fill="#B8F14A"/>
<circle cx="139.875" cy="139.5" r="18.5" fill="white"/>
<ellipse cx="140.469" cy="139.594" rx="19.0938" ry="18.5944" stroke="#33363F" stroke-width="3.91667"/>
<path d="M138.446 147V135.923H134.078V133.349H145.974V135.923H141.606V147H138.446Z" fill="black"/>
<circle cx="194.062" cy="139.5" r="18.5" fill="white"/>
<ellipse cx="194.656" cy="139.594" rx="19.0938" ry="18.5944" stroke="#33363F" stroke-width="3.91667"/>
<path d="M188.458 147L183.992 133.349H187.268L191.149 145.44H189.511L193.567 133.349H196.492L200.393 145.44H198.813L202.792 133.349H205.814L201.348 147H197.955L194.503 136.391H195.4L191.851 147H188.458Z" fill="black"/>
<circle cx="248.25" cy="139.5" r="18.5" fill="white"/>
<ellipse cx="248.844" cy="139.594" rx="19.0938" ry="18.5944" stroke="#33363F" stroke-width="3.91667"/>
<path d="M246.446 147V135.923H242.078V133.349H253.974V135.923H249.606V147H246.446Z" fill="black"/>
<circle cx="302.438" cy="139.5" r="18.5" fill="black"/>
<ellipse cx="303.031" cy="139.594" rx="19.0938" ry="18.5944" stroke="#33363F" stroke-width="3.91667"/>
<path d="M301.544 139.492H308.097V142.027H301.544V139.492ZM301.778 147H298.619V133.349H308.935V135.884H301.778V147Z" fill="#B8F14A"/>
<circle cx="356.625" cy="139.5" r="18.5" fill="white"/>
<ellipse cx="357.219" cy="139.594" rx="19.0938" ry="18.5944" stroke="#33363F" stroke-width="3.91667"/>
<path d="M357.104 147.234C356.012 147.234 354.965 147.091 353.964 146.805C352.963 146.506 352.157 146.122 351.546 145.654L352.619 143.275C353.204 143.691 353.893 144.036 354.686 144.309C355.492 144.569 356.305 144.699 357.124 144.699C357.748 144.699 358.248 144.64 358.625 144.523C359.015 144.393 359.301 144.218 359.483 143.997C359.665 143.776 359.756 143.522 359.756 143.236C359.756 142.872 359.613 142.586 359.327 142.378C359.041 142.157 358.664 141.981 358.196 141.851C357.728 141.708 357.208 141.578 356.636 141.461C356.077 141.331 355.511 141.175 354.939 140.993C354.38 140.811 353.867 140.577 353.399 140.291C352.931 140.005 352.547 139.628 352.248 139.16C351.962 138.692 351.819 138.094 351.819 137.366C351.819 136.586 352.027 135.877 352.443 135.24C352.872 134.59 353.509 134.077 354.354 133.7C355.212 133.31 356.285 133.115 357.572 133.115C358.43 133.115 359.275 133.219 360.107 133.427C360.94 133.622 361.674 133.921 362.311 134.324L361.336 136.722C360.699 136.358 360.062 136.092 359.425 135.923C358.788 135.741 358.164 135.65 357.553 135.65C356.942 135.65 356.441 135.721 356.051 135.864C355.661 136.007 355.381 136.196 355.212 136.43C355.043 136.651 354.959 136.911 354.959 137.21C354.959 137.561 355.102 137.847 355.388 138.068C355.674 138.276 356.051 138.445 356.519 138.575C356.987 138.705 357.501 138.835 358.06 138.965C358.632 139.095 359.197 139.245 359.756 139.414C360.328 139.583 360.849 139.81 361.317 140.096C361.785 140.382 362.162 140.759 362.448 141.227C362.747 141.695 362.896 142.287 362.896 143.002C362.896 143.769 362.682 144.471 362.253 145.108C361.824 145.745 361.18 146.259 360.322 146.649C359.477 147.039 358.404 147.234 357.104 147.234Z" fill="black"/>
<path d="M144.848 76C144.271 76 143.774 75.7912 143.356 75.3736C142.959 74.9561 142.76 74.459 142.76 73.8823V57.8057C142.76 56.8115 143.088 56.0758 143.744 55.5986C144.4 55.1014 145.404 54.8529 146.757 54.8529V72.5401H154.81C155.744 72.5401 156.45 72.8384 156.927 73.4349C157.405 74.0116 157.643 74.8666 157.643 76H144.848ZM165.399 76.2684C164.166 76.2684 163.042 76.0298 162.028 75.5526C161.014 75.0555 160.209 74.3894 159.612 73.5542C159.016 72.6992 158.718 71.7447 158.718 70.6909V66.7239C158.718 65.6104 159.026 64.6062 159.642 63.7114C160.259 62.8166 161.074 62.1107 162.088 61.5937C163.122 61.0767 164.235 60.8182 165.429 60.8182C166.602 60.8182 167.675 61.0668 168.65 61.5639C169.644 62.0411 170.429 62.7172 171.006 63.5921C171.583 64.4471 171.871 65.4314 171.871 66.5449V68.2152C171.871 68.6527 171.702 69.0206 171.364 69.3188C171.046 69.6171 170.638 69.7662 170.141 69.7662H162.327V70.4224C162.327 71.2774 162.585 71.9734 163.102 72.5103C163.619 73.0472 164.395 73.3156 165.429 73.3156C166.423 73.3156 167.158 73.0969 167.636 72.6594C168.133 72.222 168.381 71.6552 168.381 70.9593C168.739 70.9195 168.988 70.8996 169.127 70.8996C169.863 70.8996 170.439 71.0687 170.857 71.4067C171.275 71.7248 171.483 72.1822 171.483 72.7787C171.483 73.3554 171.215 73.9121 170.678 74.449C170.141 74.9859 169.405 75.4234 168.471 75.7614C167.536 76.0994 166.512 76.2684 165.399 76.2684ZM168.501 67.1117V66.5449C168.501 65.7098 168.212 65.0337 167.636 64.5167C167.059 63.9997 166.313 63.7412 165.399 63.7412C164.484 63.7412 163.738 63.9997 163.162 64.5167C162.605 65.0138 162.327 65.6899 162.327 66.5449V67.1117H168.501ZM180.886 82.2338C179.713 82.2338 178.669 82.0648 177.754 81.7267C176.84 81.4086 176.124 80.9711 175.607 80.4143C175.09 79.8576 174.831 79.2412 174.831 78.5651C174.831 77.889 175.06 77.4118 175.517 77.1334C175.995 76.855 176.661 76.7158 177.516 76.7158C177.595 77.5311 177.913 78.1575 178.47 78.5949C179.027 79.0523 179.832 79.2809 180.886 79.2809C182.059 79.2809 182.885 78.9926 183.362 78.416C183.859 77.8393 184.107 77.0439 184.107 76.0298V75.0157C184.406 74.797 184.624 74.5882 184.764 74.3894L184.644 74.2402C184.127 74.7572 183.431 75.1748 182.556 75.4929C181.701 75.8111 180.896 75.9702 180.141 75.9702C179.027 75.9702 178.033 75.7514 177.158 75.314C176.283 74.8566 175.587 74.2203 175.07 73.4051C174.573 72.5898 174.324 71.6652 174.324 70.6312V66.187C174.324 65.1928 174.583 64.2881 175.1 63.4728C175.637 62.6377 176.333 61.9914 177.188 61.5341C178.063 61.0568 178.997 60.8182 179.991 60.8182C181.085 60.8182 182.01 61.037 182.765 61.4744C183.541 61.9119 184.247 62.5382 184.883 63.3535L185.002 63.2342C184.903 63.0552 184.714 62.7967 184.436 62.4587C184.436 61.365 185.579 60.8182 187.866 60.8182V75.4929C187.866 76.8053 187.567 77.9686 186.971 78.9827C186.374 79.9968 185.539 80.7922 184.465 81.3688C183.412 81.9454 182.218 82.2338 180.886 82.2338ZM181.095 72.7787C181.97 72.7787 182.706 72.56 183.302 72.1225C183.899 71.6652 184.197 71.1283 184.197 70.5119V66.2765C184.197 65.6402 183.899 65.1033 183.302 64.6659C182.725 64.2284 181.99 64.0097 181.095 64.0097C180.121 64.0097 179.365 64.2185 178.828 64.636C178.311 65.0536 178.053 65.6501 178.053 66.4256V70.3628C178.053 71.1184 178.311 71.7149 178.828 72.1524C179.345 72.5699 180.101 72.7787 181.095 72.7787ZM200.945 76C200.389 76 199.911 75.831 199.514 75.4929C199.136 75.135 198.947 74.6976 198.947 74.1806V56.9408C198.947 56.4238 199.136 55.9962 199.514 55.6582C199.891 55.3003 200.369 55.1213 200.945 55.1213H207.567C209.337 55.1213 210.897 55.4594 212.25 56.1354C213.622 56.8115 214.676 57.766 215.411 58.9988C216.167 60.2118 216.545 61.6037 216.545 63.1745V67.8871C216.545 69.458 216.167 70.8599 215.411 72.0927C214.656 73.3255 213.592 74.2899 212.22 74.9859C210.868 75.662 209.317 76 207.567 76H200.945ZM207.269 72.5699C208.999 72.5699 210.311 72.1822 211.206 71.4067C212.1 70.6113 212.548 69.4481 212.548 67.917V63.1149C212.548 61.6235 212.1 60.4901 211.206 59.7146C210.311 58.9391 208.999 58.5514 207.269 58.5514H202.944V72.5699H207.269ZM224.317 76.2684C223.302 76.2684 222.368 76.0696 221.513 75.6719C220.678 75.2742 220.002 74.7075 219.485 73.9718C218.988 73.2162 218.739 72.3214 218.739 71.2874C218.739 70.2534 219.007 69.3586 219.544 68.603C220.081 67.8275 220.807 67.2409 221.722 66.8432C222.656 66.4256 223.68 66.2169 224.794 66.2169C225.709 66.2169 226.524 66.366 227.24 66.6643C227.975 66.9426 228.651 67.3702 229.268 67.9468L229.417 67.7977C229.238 67.6187 228.93 67.3503 228.492 66.9923V66.3958C228.492 65.5806 228.204 64.9343 227.627 64.4571C227.051 63.9799 226.245 63.7412 225.211 63.7412C223.362 63.7412 222 64.4173 221.125 65.7695C220.688 65.6303 220.32 65.4115 220.022 65.1133C219.723 64.7951 219.574 64.4571 219.574 64.0992C219.574 63.5026 219.843 62.9558 220.379 62.4587C220.916 61.9616 221.642 61.5639 222.557 61.2656C223.472 60.9674 224.466 60.8182 225.539 60.8182C227.647 60.8182 229.278 61.3153 230.431 62.3096C231.584 63.2839 232.161 64.6162 232.161 66.3063V73.763C232.161 74.6379 231.883 75.2742 231.326 75.6719C230.769 76.0696 229.894 76.2684 228.701 76.2684V75.0455C229.039 74.7075 229.268 74.459 229.387 74.2999L229.268 74.1507C228.612 74.8467 227.906 75.3736 227.15 75.7316C226.414 76.0895 225.47 76.2684 224.317 76.2684ZM225.271 73.5542C226.305 73.5542 227.11 73.3554 227.687 72.9577C228.264 72.56 228.552 71.9933 228.552 71.2576C228.552 70.5417 228.254 69.975 227.657 69.5574C227.081 69.1399 226.295 68.9311 225.301 68.9311C224.386 68.9311 223.66 69.1399 223.124 69.5574C222.607 69.9551 222.348 70.5218 222.348 71.2576C222.348 72.0132 222.607 72.5898 223.124 72.9875C223.641 73.3653 224.356 73.5542 225.271 73.5542ZM235.937 82.2338C235.161 82.2338 234.545 81.9653 234.087 81.4285C233.65 80.8916 233.431 80.1161 233.431 79.102C234.028 79.2014 234.525 79.2511 234.923 79.2511C235.678 79.2511 236.275 79.0523 236.712 78.6546C237.169 78.2569 237.667 77.4615 238.203 76.2684L238.681 75.1649L232.924 61.1165C233.063 61.037 233.302 60.9674 233.64 60.9077C233.998 60.8481 234.286 60.8182 234.505 60.8182C235.082 60.8182 235.609 60.9475 236.086 61.206C236.563 61.4446 236.891 61.7826 237.07 62.2201L240.262 70.6014L239.754 72.0032L240.023 72.0927L243.871 62.2201C244.05 61.7627 244.368 61.4148 244.825 61.1761C245.302 60.9375 245.829 60.8182 246.406 60.8182C246.625 60.8182 246.903 60.8481 247.241 60.9077C247.599 60.9674 247.857 61.037 248.016 61.1165L241.335 77.3422C240.639 79.0125 239.874 80.2453 239.039 81.0407C238.223 81.8361 237.189 82.2338 235.937 82.2338Z" fill="black"/>
<rect x="14" y="327" width="362.192" height="94.5851" rx="24.223" fill="black"/>
<path d="M71.76 403.162C70.752 403.162 69.876 403.018 69.132 402.73C68.4 402.442 67.842 402.058 67.458 401.578C67.074 401.098 66.882 400.582 66.882 400.03C66.882 399.574 67.002 399.226 67.242 398.986C67.482 398.734 67.848 398.608 68.34 398.608C68.34 399.628 68.646 400.408 69.258 400.948C69.87 401.476 70.728 401.74 71.832 401.74C72.888 401.74 73.698 401.566 74.262 401.218C74.826 400.858 75.108 400.33 75.108 399.634C75.108 399.214 75 398.872 74.784 398.608C74.58 398.332 74.226 398.098 73.722 397.906C73.23 397.702 72.516 397.498 71.58 397.294C70.476 397.054 69.6 396.778 68.952 396.466C68.304 396.142 67.83 395.752 67.53 395.296C67.23 394.84 67.08 394.276 67.08 393.604C67.08 392.932 67.266 392.344 67.638 391.84C68.022 391.324 68.562 390.928 69.258 390.652C69.954 390.376 70.764 390.238 71.688 390.238C72.564 390.238 73.344 390.364 74.028 390.616C74.724 390.856 75.264 391.204 75.648 391.66C76.044 392.104 76.242 392.608 76.242 393.172C76.242 393.52 76.128 393.796 75.9 394C75.684 394.192 75.342 394.288 74.874 394.288C74.742 393.376 74.418 392.71 73.902 392.29C73.398 391.87 72.66 391.66 71.688 391.66C70.752 391.66 70.032 391.828 69.528 392.164C69.024 392.488 68.772 392.95 68.772 393.55C68.772 393.97 68.862 394.318 69.042 394.594C69.234 394.858 69.552 395.086 69.996 395.278C70.452 395.47 71.088 395.656 71.904 395.836C73.128 396.1 74.088 396.394 74.784 396.718C75.492 397.042 76.002 397.438 76.314 397.906C76.626 398.374 76.782 398.95 76.782 399.634C76.782 400.726 76.326 401.59 75.414 402.226C74.502 402.85 73.284 403.162 71.76 403.162ZM82.462 403.162C81.73 403.162 81.076 403.024 80.5 402.748C79.924 402.46 79.474 402.07 79.15 401.578C78.826 401.074 78.664 400.51 78.664 399.886V397.222C78.664 396.586 78.832 396.01 79.168 395.494C79.516 394.978 79.978 394.576 80.554 394.288C81.142 393.988 81.778 393.838 82.462 393.838C83.146 393.838 83.77 393.982 84.334 394.27C84.91 394.558 85.36 394.954 85.684 395.458C86.02 395.962 86.188 396.532 86.188 397.168V398.32C86.188 398.512 86.116 398.674 85.972 398.806C85.828 398.938 85.654 399.004 85.45 399.004H80.194V399.814C80.194 400.426 80.386 400.918 80.77 401.29C81.166 401.662 81.73 401.848 82.462 401.848C83.194 401.848 83.752 401.686 84.136 401.362C84.52 401.038 84.712 400.6 84.712 400.048C85.072 400.024 85.372 400.096 85.612 400.264C85.864 400.42 85.99 400.654 85.99 400.966C85.99 401.35 85.822 401.71 85.486 402.046C85.162 402.382 84.73 402.652 84.19 402.856C83.65 403.06 83.074 403.162 82.462 403.162ZM84.73 397.78V397.168C84.73 396.568 84.52 396.082 84.1 395.71C83.692 395.326 83.146 395.134 82.462 395.134C81.778 395.134 81.226 395.326 80.806 395.71C80.398 396.082 80.194 396.568 80.194 397.168V397.78H84.73ZM91.3908 403.162C90.5388 403.162 89.9028 402.922 89.4828 402.442C89.0628 401.95 88.8528 401.308 88.8528 400.516V395.26H87.1788C87.1788 394.852 87.2688 394.54 87.4488 394.324C87.6288 394.108 87.8748 394 88.1868 394H88.8708V392.29C88.8708 391.894 88.9968 391.606 89.2488 391.426C89.5128 391.234 89.9028 391.138 90.4188 391.138V394H92.8128C92.8128 394.84 92.4348 395.26 91.6788 395.26H90.4368V400.462C90.4368 400.942 90.5208 401.284 90.6888 401.488C90.8688 401.68 91.1868 401.776 91.6428 401.776C92.0628 401.776 92.4588 401.668 92.8308 401.452C92.9868 401.608 93.0648 401.818 93.0648 402.082C93.0648 402.37 92.9148 402.622 92.6148 402.838C92.3148 403.054 91.9068 403.162 91.3908 403.162ZM98.2211 403.162C97.6091 403.162 97.0331 403.072 96.4931 402.892C95.9531 402.7 95.5151 402.43 95.1791 402.082C94.8551 401.734 94.6931 401.326 94.6931 400.858C94.6931 400.282 95.0411 399.97 95.7371 399.922C95.8571 400.594 96.1391 401.092 96.5831 401.416C97.0391 401.728 97.6151 401.884 98.3111 401.884C99.0071 401.884 99.5471 401.782 99.9311 401.578C100.315 401.374 100.507 401.062 100.507 400.642C100.507 400.342 100.429 400.102 100.273 399.922C100.117 399.73 99.8651 399.568 99.5171 399.436C99.1811 399.292 98.6951 399.154 98.0591 399.022C97.2671 398.842 96.6371 398.65 96.1691 398.446C95.7011 398.242 95.3411 397.972 95.0891 397.636C94.8491 397.3 94.7291 396.856 94.7291 396.304C94.7291 395.836 94.8731 395.416 95.1611 395.044C95.4491 394.66 95.8451 394.366 96.3491 394.162C96.8651 393.946 97.4471 393.838 98.0951 393.838C98.6951 393.838 99.2591 393.922 99.7871 394.09C100.327 394.258 100.759 394.498 101.083 394.81C101.419 395.122 101.587 395.482 101.587 395.89C101.587 396.166 101.479 396.388 101.263 396.556C101.047 396.712 100.747 396.802 100.363 396.826C100.327 396.298 100.111 395.884 99.7151 395.584C99.3311 395.272 98.7911 395.116 98.0951 395.116C97.5191 395.116 97.0631 395.224 96.7271 395.44C96.3911 395.656 96.2231 395.944 96.2231 396.304C96.2231 396.688 96.3791 396.976 96.6911 397.168C97.0151 397.348 97.5611 397.522 98.3291 397.69C99.5891 397.942 100.513 398.29 101.101 398.734C101.701 399.166 102.001 399.784 102.001 400.588C102.001 401.404 101.671 402.04 101.011 402.496C100.351 402.94 99.4211 403.162 98.2211 403.162ZM104.897 396.61C104.537 396.61 104.231 396.49 103.979 396.25C103.739 396.01 103.619 395.704 103.619 395.332C103.619 394.984 103.739 394.684 103.979 394.432C104.231 394.18 104.537 394.054 104.897 394.054C105.257 394.054 105.563 394.18 105.815 394.432C106.079 394.684 106.211 394.984 106.211 395.332C106.211 395.692 106.079 395.998 105.815 396.25C105.563 396.49 105.257 396.61 104.897 396.61ZM104.897 403.162C104.537 403.162 104.231 403.042 103.979 402.802C103.739 402.562 103.619 402.256 103.619 401.884C103.619 401.524 103.739 401.224 103.979 400.984C104.231 400.732 104.537 400.606 104.897 400.606C105.257 400.606 105.563 400.732 105.815 400.984C106.079 401.224 106.211 401.524 106.211 401.884C106.211 402.244 106.079 402.55 105.815 402.802C105.563 403.042 105.257 403.162 104.897 403.162ZM114.638 391.876H113.576C113.168 391.876 112.85 391.744 112.622 391.48C112.406 391.216 112.298 390.856 112.298 390.4H115.538C115.766 390.4 115.952 390.478 116.096 390.634C116.252 390.778 116.33 390.952 116.33 391.156V401.758C116.33 402.214 116.186 402.562 115.898 402.802C115.61 403.042 115.19 403.162 114.638 403.162V391.876ZM142.055 391.192C142.055 390.964 142.133 390.778 142.289 390.634C142.457 390.478 142.667 390.4 142.919 390.4H147.887C149.051 390.4 149.975 390.742 150.659 391.426C151.355 392.098 151.703 392.998 151.703 394.126C151.703 395.542 151.085 396.544 149.849 397.132V397.186C150.389 397.414 150.803 397.762 151.091 398.23C151.379 398.686 151.523 399.244 151.523 399.904V401.758C151.523 402.214 151.379 402.562 151.091 402.802C150.803 403.042 150.383 403.162 149.831 403.162V400.012C149.831 399.304 149.669 398.77 149.345 398.41C149.033 398.038 148.565 397.852 147.941 397.852H143.729V401.758C143.729 402.214 143.585 402.562 143.297 402.802C143.021 403.042 142.607 403.162 142.055 403.162V391.192ZM147.833 396.394C148.493 396.394 149.015 396.19 149.399 395.782C149.795 395.374 149.993 394.816 149.993 394.108C149.993 393.388 149.807 392.836 149.435 392.452C149.063 392.068 148.529 391.876 147.833 391.876H143.729V396.394H147.833ZM157.204 403.162C156.472 403.162 155.818 403.024 155.242 402.748C154.666 402.46 154.216 402.07 153.892 401.578C153.568 401.074 153.406 400.51 153.406 399.886V397.222C153.406 396.586 153.574 396.01 153.91 395.494C154.258 394.978 154.72 394.576 155.296 394.288C155.884 393.988 156.52 393.838 157.204 393.838C157.888 393.838 158.512 393.982 159.076 394.27C159.652 394.558 160.102 394.954 160.426 395.458C160.762 395.962 160.93 396.532 160.93 397.168V398.32C160.93 398.512 160.858 398.674 160.714 398.806C160.57 398.938 160.396 399.004 160.192 399.004H154.936V399.814C154.936 400.426 155.128 400.918 155.512 401.29C155.908 401.662 156.472 401.848 157.204 401.848C157.936 401.848 158.494 401.686 158.878 401.362C159.262 401.038 159.454 400.6 159.454 400.048C159.814 400.024 160.114 400.096 160.354 400.264C160.606 400.42 160.732 400.654 160.732 400.966C160.732 401.35 160.564 401.71 160.228 402.046C159.904 402.382 159.472 402.652 158.932 402.856C158.392 403.06 157.816 403.162 157.204 403.162ZM159.472 397.78V397.168C159.472 396.568 159.262 396.082 158.842 395.71C158.434 395.326 157.888 395.134 157.204 395.134C156.52 395.134 155.968 395.326 155.548 395.71C155.14 396.082 154.936 396.568 154.936 397.168V397.78H159.472ZM163.008 395.116C163.008 394.72 163.128 394.408 163.368 394.18C163.62 393.952 163.998 393.838 164.502 393.838V394.846L164.142 395.314L164.196 395.386C164.568 394.906 164.994 394.528 165.474 394.252C165.954 393.976 166.524 393.838 167.184 393.838C168.216 393.838 169.05 394.126 169.686 394.702C170.322 395.266 170.64 396.022 170.64 396.97V400.048C170.64 400.996 170.31 401.752 169.65 402.316C168.99 402.88 168.132 403.162 167.076 403.162C166.512 403.162 165.99 403.048 165.51 402.82C165.042 402.58 164.628 402.268 164.268 401.884L164.214 401.974C164.298 402.094 164.424 402.226 164.592 402.37V405.538C164.592 406.354 164.064 406.762 163.008 406.762V395.116ZM166.842 401.776C167.55 401.776 168.102 401.62 168.498 401.308C168.894 400.984 169.092 400.54 169.092 399.976V397.042C169.092 396.454 168.894 396.004 168.498 395.692C168.102 395.38 167.544 395.224 166.824 395.224C166.188 395.224 165.654 395.392 165.222 395.728C164.79 396.052 164.574 396.46 164.574 396.952V400.066C164.574 400.546 164.778 400.954 165.186 401.29C165.594 401.614 166.146 401.776 166.842 401.776ZM175.776 403.162C175.164 403.162 174.588 403.072 174.048 402.892C173.508 402.7 173.07 402.43 172.734 402.082C172.41 401.734 172.248 401.326 172.248 400.858C172.248 400.282 172.596 399.97 173.292 399.922C173.412 400.594 173.694 401.092 174.138 401.416C174.594 401.728 175.17 401.884 175.866 401.884C176.562 401.884 177.102 401.782 177.486 401.578C177.87 401.374 178.062 401.062 178.062 400.642C178.062 400.342 177.984 400.102 177.828 399.922C177.672 399.73 177.42 399.568 177.072 399.436C176.736 399.292 176.25 399.154 175.614 399.022C174.822 398.842 174.192 398.65 173.724 398.446C173.256 398.242 172.896 397.972 172.644 397.636C172.404 397.3 172.284 396.856 172.284 396.304C172.284 395.836 172.428 395.416 172.716 395.044C173.004 394.66 173.4 394.366 173.904 394.162C174.42 393.946 175.002 393.838 175.65 393.838C176.25 393.838 176.814 393.922 177.342 394.09C177.882 394.258 178.314 394.498 178.638 394.81C178.974 395.122 179.142 395.482 179.142 395.89C179.142 396.166 179.034 396.388 178.818 396.556C178.602 396.712 178.302 396.802 177.918 396.826C177.882 396.298 177.666 395.884 177.27 395.584C176.886 395.272 176.346 395.116 175.65 395.116C175.074 395.116 174.618 395.224 174.282 395.44C173.946 395.656 173.778 395.944 173.778 396.304C173.778 396.688 173.934 396.976 174.246 397.168C174.57 397.348 175.116 397.522 175.884 397.69C177.144 397.942 178.068 398.29 178.656 398.734C179.256 399.166 179.556 399.784 179.556 400.588C179.556 401.404 179.226 402.04 178.566 402.496C177.906 402.94 176.976 403.162 175.776 403.162ZM182.451 396.61C182.091 396.61 181.785 396.49 181.533 396.25C181.293 396.01 181.173 395.704 181.173 395.332C181.173 394.984 181.293 394.684 181.533 394.432C181.785 394.18 182.091 394.054 182.451 394.054C182.811 394.054 183.117 394.18 183.369 394.432C183.633 394.684 183.765 394.984 183.765 395.332C183.765 395.692 183.633 395.998 183.369 396.25C183.117 396.49 182.811 396.61 182.451 396.61ZM182.451 403.162C182.091 403.162 181.785 403.042 181.533 402.802C181.293 402.562 181.173 402.256 181.173 401.884C181.173 401.524 181.293 401.224 181.533 400.984C181.785 400.732 182.091 400.606 182.451 400.606C182.811 400.606 183.117 400.732 183.369 400.984C183.633 401.224 183.765 401.524 183.765 401.884C183.765 402.244 183.633 402.55 183.369 402.802C183.117 403.042 182.811 403.162 182.451 403.162ZM192.193 391.876H191.131C190.723 391.876 190.405 391.744 190.177 391.48C189.961 391.216 189.853 390.856 189.853 390.4H193.093C193.321 390.4 193.507 390.478 193.651 390.634C193.807 390.778 193.885 390.952 193.885 391.156V401.758C193.885 402.214 193.741 402.562 193.453 402.802C193.165 403.042 192.745 403.162 192.193 403.162V391.876ZM200.618 403.162C199.73 403.162 198.932 403.018 198.224 402.73C197.516 402.442 196.958 402.04 196.55 401.524C196.154 401.008 195.956 400.432 195.956 399.796C195.956 399.328 196.082 398.992 196.334 398.788C196.598 398.584 197.006 398.5 197.558 398.536C197.534 398.848 197.522 399.052 197.522 399.148C197.522 399.94 197.792 400.558 198.332 401.002C198.872 401.446 199.634 401.668 200.618 401.668C201.602 401.668 202.364 401.392 202.904 400.84C203.456 400.288 203.732 399.514 203.732 398.518C203.732 397.51 203.462 396.748 202.922 396.232C202.394 395.704 201.62 395.44 200.6 395.44C200.06 395.44 199.556 395.524 199.088 395.692C198.632 395.86 198.236 396.106 197.9 396.43C197.708 396.622 197.486 396.718 197.234 396.718C196.982 396.718 196.766 396.628 196.586 396.448C196.406 396.268 196.34 396.046 196.388 395.782L197.126 391.012C197.15 390.82 197.24 390.67 197.396 390.562C197.552 390.454 197.75 390.4 197.99 390.4H204.794C204.794 391.384 204.362 391.876 203.498 391.876H198.476L198.08 394.54C197.828 394.72 197.612 394.9 197.432 395.08L197.486 395.17C197.954 394.798 198.488 394.51 199.088 394.306C199.7 394.09 200.3 393.982 200.888 393.982C202.304 393.982 203.408 394.384 204.2 395.188C204.992 395.98 205.388 397.09 205.388 398.518C205.388 399.454 205.19 400.276 204.794 400.984C204.41 401.68 203.858 402.22 203.138 402.604C202.418 402.976 201.578 403.162 200.618 403.162ZM234.806 403.162C234.374 403.162 234.02 403.06 233.744 402.856C233.468 402.64 233.282 402.34 233.186 401.956L230.216 390.4C230.396 390.292 230.624 390.238 230.9 390.238C231.248 390.238 231.542 390.328 231.782 390.508C232.022 390.676 232.178 390.91 232.25 391.21L234.212 399.742L233.924 400.804L234.032 400.84L236.93 390.796C236.978 390.616 237.068 390.478 237.2 390.382C237.344 390.286 237.512 390.238 237.704 390.238C237.884 390.238 238.046 390.286 238.19 390.382C238.334 390.478 238.43 390.616 238.478 390.796L240.98 399.814L240.728 400.912L240.836 400.948L243.158 391.21C243.23 390.91 243.38 390.676 243.608 390.508C243.848 390.328 244.136 390.238 244.472 390.238C244.748 390.238 244.988 390.292 245.192 390.4L242.222 401.956C242.126 402.34 241.934 402.64 241.646 402.856C241.37 403.06 241.016 403.162 240.584 403.162L237.506 392.272L237.398 392.308L237.632 393.154L234.806 403.162ZM249.7 403.162C248.968 403.162 248.314 403.024 247.738 402.748C247.162 402.46 246.712 402.07 246.388 401.578C246.064 401.074 245.902 400.51 245.902 399.886V397.222C245.902 396.586 246.07 396.01 246.406 395.494C246.754 394.978 247.216 394.576 247.792 394.288C248.38 393.988 249.016 393.838 249.7 393.838C250.384 393.838 251.008 393.982 251.572 394.27C252.148 394.558 252.598 394.954 252.922 395.458C253.258 395.962 253.426 396.532 253.426 397.168V398.32C253.426 398.512 253.354 398.674 253.21 398.806C253.066 398.938 252.892 399.004 252.688 399.004H247.432V399.814C247.432 400.426 247.624 400.918 248.008 401.29C248.404 401.662 248.968 401.848 249.7 401.848C250.432 401.848 250.99 401.686 251.374 401.362C251.758 401.038 251.95 400.6 251.95 400.048C252.31 400.024 252.61 400.096 252.85 400.264C253.102 400.42 253.228 400.654 253.228 400.966C253.228 401.35 253.06 401.71 252.724 402.046C252.4 402.382 251.968 402.652 251.428 402.856C250.888 403.06 250.312 403.162 249.7 403.162ZM251.968 397.78V397.168C251.968 396.568 251.758 396.082 251.338 395.71C250.93 395.326 250.384 395.134 249.7 395.134C249.016 395.134 248.464 395.326 248.044 395.71C247.636 396.082 247.432 396.568 247.432 397.168V397.78H251.968ZM256.692 392.488C256.356 392.488 256.074 392.38 255.846 392.164C255.618 391.948 255.504 391.678 255.504 391.354C255.504 391.03 255.618 390.766 255.846 390.562C256.074 390.346 256.356 390.238 256.692 390.238C257.016 390.238 257.292 390.346 257.52 390.562C257.748 390.766 257.862 391.03 257.862 391.354C257.862 391.678 257.748 391.948 257.52 392.164C257.292 392.38 257.016 392.488 256.692 392.488ZM255.9 394.99C255.9 394.594 256.026 394.306 256.278 394.126C256.542 393.934 256.938 393.838 257.466 393.838V402.01C257.466 402.406 257.334 402.7 257.07 402.892C256.818 403.072 256.428 403.162 255.9 403.162V394.99ZM263.973 406.762C263.349 406.762 262.767 406.66 262.227 406.456C261.687 406.252 261.261 405.976 260.949 405.628C260.637 405.292 260.481 404.926 260.481 404.53C260.481 404.218 260.583 403.99 260.787 403.846C261.003 403.702 261.291 403.63 261.651 403.63C261.675 404.194 261.891 404.638 262.299 404.962C262.719 405.298 263.277 405.466 263.973 405.466C265.509 405.466 266.277 404.722 266.277 403.234V402.19C266.445 402.046 266.571 401.914 266.655 401.794L266.601 401.704C266.253 402.076 265.815 402.382 265.287 402.622C264.771 402.862 264.249 402.982 263.721 402.982C262.689 402.982 261.843 402.7 261.183 402.136C260.535 401.56 260.211 400.804 260.211 399.868V396.97C260.211 396.358 260.361 395.818 260.661 395.35C260.973 394.87 261.393 394.498 261.921 394.234C262.461 393.97 263.055 393.838 263.703 393.838C264.879 393.838 265.863 394.354 266.655 395.386L266.727 395.314L266.367 394.864C266.367 394.528 266.481 394.276 266.709 394.108C266.949 393.928 267.333 393.838 267.861 393.838V403.072C267.861 403.792 267.693 404.428 267.357 404.98C267.033 405.544 266.577 405.982 265.989 406.294C265.401 406.606 264.729 406.762 263.973 406.762ZM264.009 401.614C264.645 401.614 265.185 401.446 265.629 401.11C266.073 400.762 266.295 400.354 266.295 399.886V396.952C266.295 396.46 266.073 396.046 265.629 395.71C265.197 395.374 264.669 395.206 264.045 395.206C263.325 395.206 262.767 395.368 262.371 395.692C261.975 396.004 261.777 396.454 261.777 397.042V399.796C261.777 400.36 261.969 400.804 262.353 401.128C262.749 401.452 263.301 401.614 264.009 401.614ZM270.375 391.57C270.375 391.138 270.507 390.808 270.771 390.58C271.035 390.352 271.425 390.238 271.941 390.238V394.972C271.773 395.164 271.641 395.332 271.545 395.476L271.617 395.548C271.989 395.044 272.457 394.636 273.021 394.324C273.585 394 274.197 393.838 274.857 393.838C275.829 393.838 276.597 394.126 277.161 394.702C277.725 395.278 278.007 396.022 278.007 396.934V402.01C278.007 402.406 277.875 402.7 277.611 402.892C277.359 403.072 276.969 403.162 276.441 403.162V397.096C276.441 396.52 276.279 396.064 275.955 395.728C275.631 395.392 275.139 395.224 274.479 395.224C274.035 395.224 273.615 395.32 273.219 395.512C272.835 395.692 272.523 395.944 272.283 396.268C272.055 396.58 271.941 396.922 271.941 397.294V402.01C271.941 402.406 271.809 402.7 271.545 402.892C271.293 403.072 270.903 403.162 270.375 403.162V391.57ZM283.924 403.162C283.072 403.162 282.436 402.922 282.016 402.442C281.596 401.95 281.386 401.308 281.386 400.516V395.26H279.712C279.712 394.852 279.802 394.54 279.982 394.324C280.162 394.108 280.408 394 280.72 394H281.404V392.29C281.404 391.894 281.53 391.606 281.782 391.426C282.046 391.234 282.436 391.138 282.952 391.138V394H285.346C285.346 394.84 284.968 395.26 284.212 395.26H282.97V400.462C282.97 400.942 283.054 401.284 283.222 401.488C283.402 401.68 283.72 401.776 284.176 401.776C284.596 401.776 284.992 401.668 285.364 401.452C285.52 401.608 285.598 401.818 285.598 402.082C285.598 402.37 285.448 402.622 285.148 402.838C284.848 403.054 284.44 403.162 283.924 403.162ZM288.324 396.61C287.964 396.61 287.658 396.49 287.406 396.25C287.166 396.01 287.046 395.704 287.046 395.332C287.046 394.984 287.166 394.684 287.406 394.432C287.658 394.18 287.964 394.054 288.324 394.054C288.684 394.054 288.99 394.18 289.242 394.432C289.506 394.684 289.638 394.984 289.638 395.332C289.638 395.692 289.506 395.998 289.242 396.25C288.99 396.49 288.684 396.61 288.324 396.61ZM288.324 403.162C287.964 403.162 287.658 403.042 287.406 402.802C287.166 402.562 287.046 402.256 287.046 401.884C287.046 401.524 287.166 401.224 287.406 400.984C287.658 400.732 287.964 400.606 288.324 400.606C288.684 400.606 288.99 400.732 289.242 400.984C289.506 401.224 289.638 401.524 289.638 401.884C289.638 402.244 289.506 402.55 289.242 402.802C288.99 403.042 288.684 403.162 288.324 403.162ZM298.066 391.876H297.004C296.596 391.876 296.278 391.744 296.05 391.48C295.834 391.216 295.726 390.856 295.726 390.4H298.966C299.194 390.4 299.38 390.478 299.524 390.634C299.68 390.778 299.758 390.952 299.758 391.156V401.758C299.758 402.214 299.614 402.562 299.326 402.802C299.038 403.042 298.618 403.162 298.066 403.162V391.876ZM306.582 403.162C305.67 403.162 304.854 403.018 304.134 402.73C303.414 402.442 302.85 402.046 302.442 401.542C302.034 401.026 301.83 400.444 301.83 399.796C301.83 399.34 301.962 399.01 302.226 398.806C302.502 398.59 302.922 398.488 303.486 398.5C303.462 398.836 303.45 399.058 303.45 399.166C303.45 399.97 303.72 400.588 304.26 401.02C304.8 401.44 305.574 401.65 306.582 401.65C308.67 401.65 309.714 400.936 309.714 399.508C309.714 398.8 309.468 398.26 308.976 397.888C308.484 397.504 307.77 397.312 306.834 397.312H306.204C305.988 397.312 305.808 397.246 305.664 397.114C305.532 396.97 305.466 396.79 305.466 396.574C305.466 396.346 305.532 396.166 305.664 396.034C305.808 395.902 305.988 395.836 306.204 395.836H306.852C307.62 395.836 308.226 395.65 308.67 395.278C309.126 394.894 309.354 394.384 309.354 393.748C309.354 393.088 309.126 392.59 308.67 392.254C308.226 391.918 307.566 391.75 306.69 391.75C305.754 391.75 305.034 391.918 304.53 392.254C304.038 392.578 303.792 393.052 303.792 393.676C303.792 393.928 303.816 394.144 303.864 394.324C303.36 394.348 302.952 394.252 302.64 394.036C302.328 393.82 302.172 393.52 302.172 393.136C302.172 392.584 302.364 392.092 302.748 391.66C303.144 391.216 303.684 390.868 304.368 390.616C305.052 390.364 305.826 390.238 306.69 390.238C307.566 390.238 308.334 390.382 308.994 390.67C309.666 390.958 310.182 391.366 310.542 391.894C310.902 392.422 311.082 393.04 311.082 393.748C311.082 394.984 310.428 395.92 309.12 396.556C309.924 396.88 310.506 397.276 310.866 397.744C311.238 398.212 311.424 398.8 311.424 399.508C311.424 400.636 310.992 401.53 310.128 402.19C309.264 402.838 308.082 403.162 306.582 403.162ZM318.138 403.162C317.262 403.162 316.452 402.994 315.708 402.658C314.976 402.31 314.394 401.848 313.962 401.272C313.53 400.684 313.314 400.036 313.314 399.328V394.072C313.314 393.364 313.524 392.722 313.944 392.146C314.376 391.558 314.958 391.096 315.69 390.76C316.434 390.412 317.25 390.238 318.138 390.238C319.026 390.238 319.836 390.412 320.568 390.76C321.312 391.096 321.894 391.558 322.314 392.146C322.746 392.722 322.962 393.364 322.962 394.072V399.328C322.962 400.036 322.746 400.684 322.314 401.272C321.882 401.848 321.294 402.31 320.55 402.658C319.818 402.994 319.014 403.162 318.138 403.162ZM318.138 401.65C319.062 401.65 319.812 401.434 320.388 401.002C320.976 400.558 321.27 399.988 321.27 399.292V394.108C321.27 393.412 320.976 392.848 320.388 392.416C319.812 391.972 319.062 391.75 318.138 391.75C317.214 391.75 316.458 391.972 315.87 392.416C315.294 392.848 315.006 393.412 315.006 394.108V399.292C315.006 399.988 315.294 400.558 315.87 401.002C316.458 401.434 317.214 401.65 318.138 401.65Z" fill="white"/>
<path d="M137.68 368.216C136.336 368.216 135.168 368.024 134.176 367.64C133.2 367.256 132.456 366.744 131.944 366.104C131.432 365.464 131.176 364.776 131.176 364.04C131.176 363.432 131.336 362.968 131.656 362.648C131.976 362.312 132.464 362.144 133.12 362.144C133.12 363.504 133.528 364.544 134.344 365.264C135.16 365.968 136.304 366.32 137.776 366.32C139.184 366.32 140.264 366.088 141.016 365.624C141.768 365.144 142.144 364.44 142.144 363.512C142.144 362.952 142 362.496 141.712 362.144C141.44 361.776 140.968 361.464 140.296 361.208C139.64 360.936 138.688 360.664 137.44 360.392C135.968 360.072 134.8 359.704 133.936 359.288C133.072 358.856 132.44 358.336 132.04 357.728C131.64 357.12 131.44 356.368 131.44 355.472C131.44 354.576 131.688 353.792 132.184 353.12C132.696 352.432 133.416 351.904 134.344 351.536C135.272 351.168 136.352 350.984 137.584 350.984C138.752 350.984 139.792 351.152 140.704 351.488C141.632 351.808 142.352 352.272 142.864 352.88C143.392 353.472 143.656 354.144 143.656 354.896C143.656 355.36 143.504 355.728 143.2 356C142.912 356.256 142.456 356.384 141.832 356.384C141.656 355.168 141.224 354.28 140.536 353.72C139.864 353.16 138.88 352.88 137.584 352.88C136.336 352.88 135.376 353.104 134.704 353.552C134.032 353.984 133.696 354.6 133.696 355.4C133.696 355.96 133.816 356.424 134.056 356.792C134.312 357.144 134.736 357.448 135.328 357.704C135.936 357.96 136.784 358.208 137.872 358.448C139.504 358.8 140.784 359.192 141.712 359.624C142.656 360.056 143.336 360.584 143.752 361.208C144.168 361.832 144.376 362.6 144.376 363.512C144.376 364.968 143.768 366.12 142.552 366.968C141.336 367.8 139.712 368.216 137.68 368.216ZM157.085 371.384C157.085 372.472 156.381 373.016 154.973 373.016V367.16C155.197 366.968 155.365 366.792 155.477 366.632L155.405 366.512C154.941 367.008 154.357 367.416 153.653 367.736C152.965 368.056 152.269 368.216 151.565 368.216C150.157 368.216 149.021 367.84 148.157 367.088C147.309 366.336 146.885 365.328 146.885 364.064V359.96C146.885 359.128 147.085 358.4 147.485 357.776C147.901 357.136 148.461 356.648 149.165 356.312C149.885 355.96 150.677 355.784 151.541 355.784C153.109 355.784 154.421 356.472 155.477 357.848L155.573 357.752L155.093 357.152C155.093 356.704 155.245 356.368 155.549 356.144C155.869 355.904 156.381 355.784 157.085 355.784V371.384ZM151.997 357.632C151.037 357.632 150.293 357.84 149.765 358.256C149.237 358.672 148.973 359.272 148.973 360.056V363.968C148.973 364.72 149.237 365.312 149.765 365.744C150.293 366.16 151.021 366.368 151.949 366.368C152.797 366.368 153.517 366.144 154.109 365.696C154.701 365.248 154.997 364.712 154.997 364.088V359.936C154.997 359.296 154.709 358.752 154.133 358.304C153.557 357.856 152.845 357.632 151.997 357.632ZM170.374 366.44C170.374 367.624 169.702 368.216 168.358 368.216V366.68C168.502 366.536 168.67 366.32 168.862 366.032L168.766 365.936C168.286 366.624 167.678 367.176 166.942 367.592C166.222 368.008 165.43 368.216 164.566 368.216C163.702 368.216 162.934 368.032 162.262 367.664C161.606 367.296 161.094 366.784 160.726 366.128C160.374 365.472 160.198 364.736 160.198 363.92V357.32C160.198 356.792 160.374 356.408 160.726 356.168C161.078 355.912 161.606 355.784 162.31 355.784V363.824C162.31 364.592 162.534 365.208 162.982 365.672C163.446 366.136 164.126 366.368 165.022 366.368C165.614 366.368 166.158 366.248 166.654 366.008C167.15 365.752 167.542 365.416 167.83 365C168.134 364.568 168.286 364.104 168.286 363.608V357.32C168.286 356.792 168.454 356.408 168.79 356.168C169.142 355.912 169.67 355.784 170.374 355.784V366.44ZM177.711 368.216C176.335 368.216 175.223 367.848 174.375 367.112C173.543 366.376 173.127 365.408 173.127 364.208C173.127 362.992 173.567 362.016 174.447 361.28C175.327 360.528 176.487 360.152 177.927 360.152C179.463 360.152 180.727 360.696 181.719 361.784L181.815 361.688C181.639 361.496 181.439 361.296 181.215 361.088V360.08C181.215 359.264 180.959 358.632 180.447 358.184C179.935 357.736 179.207 357.512 178.263 357.512C176.583 357.512 175.383 358.176 174.663 359.504C174.407 359.376 174.191 359.208 174.015 359C173.855 358.776 173.775 358.552 173.775 358.328C173.775 357.896 173.991 357.488 174.423 357.104C174.855 356.704 175.423 356.384 176.127 356.144C176.847 355.904 177.599 355.784 178.383 355.784C179.903 355.784 181.095 356.16 181.959 356.912C182.839 357.664 183.279 358.704 183.279 360.032V366.608C183.279 367.168 183.119 367.576 182.799 367.832C182.479 368.088 181.975 368.216 181.287 368.216V367.088C181.623 366.736 181.807 366.528 181.839 366.464L181.743 366.368C180.703 367.6 179.359 368.216 177.711 368.216ZM178.071 366.56C179.063 366.56 179.839 366.352 180.399 365.936C180.975 365.52 181.263 364.944 181.263 364.208C181.263 363.472 180.983 362.888 180.423 362.456C179.863 362.024 179.095 361.808 178.119 361.808C177.207 361.808 176.487 362.024 175.959 362.456C175.447 362.872 175.191 363.456 175.191 364.208C175.191 364.96 175.439 365.544 175.935 365.96C176.447 366.36 177.159 366.56 178.071 366.56ZM190.222 368.216C189.086 368.216 188.238 367.896 187.678 367.256C187.118 366.6 186.838 365.744 186.838 364.688V357.68H184.606C184.606 357.136 184.726 356.72 184.966 356.432C185.206 356.144 185.534 356 185.95 356H186.862V353.72C186.862 353.192 187.03 352.808 187.366 352.568C187.718 352.312 188.238 352.184 188.926 352.184V356H192.118C192.118 357.12 191.614 357.68 190.606 357.68H188.95V364.616C188.95 365.256 189.062 365.712 189.286 365.984C189.526 366.24 189.95 366.368 190.558 366.368C191.118 366.368 191.646 366.224 192.142 365.936C192.35 366.144 192.454 366.424 192.454 366.776C192.454 367.16 192.254 367.496 191.854 367.784C191.454 368.072 190.91 368.216 190.222 368.216ZM201.172 352.256C201.172 351.952 201.276 351.704 201.484 351.512C201.708 351.304 201.988 351.2 202.324 351.2H209.332C210.388 351.2 211.324 351.424 212.14 351.872C212.956 352.304 213.588 352.92 214.036 353.72C214.484 354.504 214.708 355.408 214.708 356.432C214.708 357.488 214.484 358.416 214.036 359.216C213.604 360.016 212.98 360.632 212.164 361.064C211.348 361.496 210.404 361.712 209.332 361.712H203.428V366.344C203.428 366.952 203.236 367.416 202.852 367.736C202.468 368.056 201.908 368.216 201.172 368.216V352.256ZM209.332 359.72C210.292 359.72 211.052 359.432 211.612 358.856C212.172 358.264 212.452 357.456 212.452 356.432C212.452 355.44 212.164 354.656 211.588 354.08C211.028 353.488 210.276 353.192 209.332 353.192H203.428V359.72H209.332ZM221.826 357.632C220.93 357.632 220.186 357.904 219.594 358.448C219.002 358.976 218.706 359.624 218.706 360.392V366.68C218.706 367.208 218.53 367.6 218.178 367.856C217.842 368.096 217.322 368.216 216.618 368.216V357.56C216.618 356.376 217.29 355.784 218.634 355.784V357.248C218.378 357.52 218.202 357.76 218.105 357.968L218.202 358.064C219.226 356.544 220.506 355.784 222.042 355.784C222.618 355.784 223.058 355.928 223.362 356.216C223.666 356.488 223.818 356.824 223.818 357.224C223.818 357.512 223.746 357.768 223.602 357.992C223.154 357.752 222.562 357.632 221.826 357.632ZM230.09 368.216C229.114 368.216 228.242 368.032 227.474 367.664C226.706 367.28 226.106 366.76 225.674 366.104C225.242 365.432 225.026 364.68 225.026 363.848V360.296C225.026 359.448 225.25 358.68 225.698 357.992C226.162 357.304 226.778 356.768 227.546 356.384C228.33 355.984 229.178 355.784 230.09 355.784C231.002 355.784 231.834 355.976 232.586 356.36C233.354 356.744 233.954 357.272 234.386 357.944C234.834 358.616 235.058 359.376 235.058 360.224V361.76C235.058 362.016 234.962 362.232 234.77 362.408C234.578 362.584 234.346 362.672 234.074 362.672H227.066V363.752C227.066 364.568 227.322 365.224 227.834 365.72C228.362 366.216 229.114 366.464 230.09 366.464C231.066 366.464 231.81 366.248 232.322 365.816C232.834 365.384 233.09 364.8 233.09 364.064C233.57 364.032 233.97 364.128 234.29 364.352C234.626 364.56 234.794 364.872 234.794 365.288C234.794 365.8 234.57 366.28 234.122 366.728C233.69 367.176 233.114 367.536 232.394 367.808C231.674 368.08 230.906 368.216 230.09 368.216ZM233.114 361.04V360.224C233.114 359.424 232.834 358.776 232.274 358.28C231.73 357.768 231.002 357.512 230.09 357.512C229.178 357.512 228.442 357.768 227.882 358.28C227.338 358.776 227.066 359.424 227.066 360.224V361.04H233.114ZM242.172 368.216C241.356 368.216 240.588 368.096 239.868 367.856C239.148 367.6 238.564 367.24 238.116 366.776C237.684 366.312 237.468 365.768 237.468 365.144C237.468 364.376 237.932 363.96 238.86 363.896C239.02 364.792 239.396 365.456 239.988 365.888C240.596 366.304 241.364 366.512 242.292 366.512C243.22 366.512 243.94 366.376 244.452 366.104C244.964 365.832 245.22 365.416 245.22 364.856C245.22 364.456 245.116 364.136 244.908 363.896C244.7 363.64 244.364 363.424 243.9 363.248C243.452 363.056 242.804 362.872 241.956 362.696C240.9 362.456 240.06 362.2 239.436 361.928C238.812 361.656 238.332 361.296 237.996 360.848C237.676 360.4 237.516 359.808 237.516 359.072C237.516 358.448 237.708 357.888 238.092 357.392C238.476 356.88 239.004 356.488 239.676 356.216C240.364 355.928 241.14 355.784 242.004 355.784C242.804 355.784 243.556 355.896 244.26 356.12C244.98 356.344 245.556 356.664 245.988 357.08C246.436 357.496 246.66 357.976 246.66 358.52C246.66 358.888 246.516 359.184 246.228 359.408C245.94 359.616 245.54 359.736 245.028 359.768C244.98 359.064 244.692 358.512 244.164 358.112C243.652 357.696 242.932 357.488 242.004 357.488C241.236 357.488 240.628 357.632 240.18 357.92C239.732 358.208 239.508 358.592 239.508 359.072C239.508 359.584 239.716 359.968 240.132 360.224C240.564 360.464 241.292 360.696 242.316 360.92C243.996 361.256 245.228 361.72 246.012 362.312C246.812 362.888 247.212 363.712 247.212 364.784C247.212 365.872 246.772 366.72 245.892 367.328C245.012 367.92 243.772 368.216 242.172 368.216ZM254.313 368.216C253.497 368.216 252.729 368.096 252.009 367.856C251.289 367.6 250.705 367.24 250.257 366.776C249.825 366.312 249.609 365.768 249.609 365.144C249.609 364.376 250.073 363.96 251.001 363.896C251.161 364.792 251.537 365.456 252.129 365.888C252.737 366.304 253.505 366.512 254.433 366.512C255.361 366.512 256.081 366.376 256.593 366.104C257.105 365.832 257.361 365.416 257.361 364.856C257.361 364.456 257.257 364.136 257.049 363.896C256.841 363.64 256.505 363.424 256.041 363.248C255.593 363.056 254.945 362.872 254.097 362.696C253.041 362.456 252.201 362.2 251.577 361.928C250.953 361.656 250.473 361.296 250.137 360.848C249.817 360.4 249.657 359.808 249.657 359.072C249.657 358.448 249.849 357.888 250.233 357.392C250.617 356.88 251.145 356.488 251.817 356.216C252.505 355.928 253.281 355.784 254.145 355.784C254.945 355.784 255.697 355.896 256.401 356.12C257.121 356.344 257.697 356.664 258.129 357.08C258.577 357.496 258.801 357.976 258.801 358.52C258.801 358.888 258.657 359.184 258.369 359.408C258.081 359.616 257.681 359.736 257.169 359.768C257.121 359.064 256.833 358.512 256.305 358.112C255.793 357.696 255.073 357.488 254.145 357.488C253.377 357.488 252.769 357.632 252.321 357.92C251.873 358.208 251.649 358.592 251.649 359.072C251.649 359.584 251.857 359.968 252.273 360.224C252.705 360.464 253.433 360.696 254.457 360.92C256.137 361.256 257.369 361.72 258.153 362.312C258.953 362.888 259.353 363.712 259.353 364.784C259.353 365.872 258.913 366.72 258.033 367.328C257.153 367.92 255.913 368.216 254.313 368.216Z" fill="white"/>
<path fill-rule="evenodd" clip-rule="evenodd" d="M355 358C355 364.627 349.627 370 343 370C336.373 370 331 364.627 331 358C331 351.373 336.373 346 343 346C349.627 346 355 351.373 355 358ZM344.333 366C344.333 366.736 343.736 367.333 343 367.333C342.264 367.333 341.667 366.736 341.667 366C341.667 365.264 342.264 364.667 343 364.667C343.736 364.667 344.333 365.264 344.333 366ZM343 348.422C339.919 348.422 337.422 350.919 337.422 354H340.578C340.578 352.662 341.663 351.578 343 351.578H343.126C344.394 351.578 345.422 352.606 345.422 353.874V354.558C345.422 355.138 345.051 355.653 344.501 355.836C342.662 356.449 341.422 358.17 341.422 360.108V363.333H344.578V360.108C344.578 359.528 344.949 359.014 345.499 358.83C347.338 358.218 348.578 356.497 348.578 354.558V353.874C348.578 350.863 346.137 348.422 343.126 348.422H343Z" fill="white"/>
<rect x="14" y="212" width="362.192" height="94.5851" rx="24.223" fill="black"/>
<path d="M66.76 288.162C65.752 288.162 64.876 288.018 64.132 287.73C63.4 287.442 62.842 287.058 62.458 286.578C62.074 286.098 61.882 285.582 61.882 285.03C61.882 284.574 62.002 284.226 62.242 283.986C62.482 283.734 62.848 283.608 63.34 283.608C63.34 284.628 63.646 285.408 64.258 285.948C64.87 286.476 65.728 286.74 66.832 286.74C67.888 286.74 68.698 286.566 69.262 286.218C69.826 285.858 70.108 285.33 70.108 284.634C70.108 284.214 70 283.872 69.784 283.608C69.58 283.332 69.226 283.098 68.722 282.906C68.23 282.702 67.516 282.498 66.58 282.294C65.476 282.054 64.6 281.778 63.952 281.466C63.304 281.142 62.83 280.752 62.53 280.296C62.23 279.84 62.08 279.276 62.08 278.604C62.08 277.932 62.266 277.344 62.638 276.84C63.022 276.324 63.562 275.928 64.258 275.652C64.954 275.376 65.764 275.238 66.688 275.238C67.564 275.238 68.344 275.364 69.028 275.616C69.724 275.856 70.264 276.204 70.648 276.66C71.044 277.104 71.242 277.608 71.242 278.172C71.242 278.52 71.128 278.796 70.9 279C70.684 279.192 70.342 279.288 69.874 279.288C69.742 278.376 69.418 277.71 68.902 277.29C68.398 276.87 67.66 276.66 66.688 276.66C65.752 276.66 65.032 276.828 64.528 277.164C64.024 277.488 63.772 277.95 63.772 278.55C63.772 278.97 63.862 279.318 64.042 279.594C64.234 279.858 64.552 280.086 64.996 280.278C65.452 280.47 66.088 280.656 66.904 280.836C68.128 281.1 69.088 281.394 69.784 281.718C70.492 282.042 71.002 282.438 71.314 282.906C71.626 283.374 71.782 283.95 71.782 284.634C71.782 285.726 71.326 286.59 70.414 287.226C69.502 287.85 68.284 288.162 66.76 288.162ZM77.462 288.162C76.73 288.162 76.076 288.024 75.5 287.748C74.924 287.46 74.474 287.07 74.15 286.578C73.826 286.074 73.664 285.51 73.664 284.886V282.222C73.664 281.586 73.832 281.01 74.168 280.494C74.516 279.978 74.978 279.576 75.554 279.288C76.142 278.988 76.778 278.838 77.462 278.838C78.146 278.838 78.77 278.982 79.334 279.27C79.91 279.558 80.36 279.954 80.684 280.458C81.02 280.962 81.188 281.532 81.188 282.168V283.32C81.188 283.512 81.116 283.674 80.972 283.806C80.828 283.938 80.654 284.004 80.45 284.004H75.194V284.814C75.194 285.426 75.386 285.918 75.77 286.29C76.166 286.662 76.73 286.848 77.462 286.848C78.194 286.848 78.752 286.686 79.136 286.362C79.52 286.038 79.712 285.6 79.712 285.048C80.072 285.024 80.372 285.096 80.612 285.264C80.864 285.42 80.99 285.654 80.99 285.966C80.99 286.35 80.822 286.71 80.486 287.046C80.162 287.382 79.73 287.652 79.19 287.856C78.65 288.06 78.074 288.162 77.462 288.162ZM79.73 282.78V282.168C79.73 281.568 79.52 281.082 79.1 280.71C78.692 280.326 78.146 280.134 77.462 280.134C76.778 280.134 76.226 280.326 75.806 280.71C75.398 281.082 75.194 281.568 75.194 282.168V282.78H79.73ZM86.3908 288.162C85.5388 288.162 84.9028 287.922 84.4828 287.442C84.0628 286.95 83.8528 286.308 83.8528 285.516V280.26H82.1788C82.1788 279.852 82.2688 279.54 82.4488 279.324C82.6288 279.108 82.8748 279 83.1868 279H83.8708V277.29C83.8708 276.894 83.9968 276.606 84.2488 276.426C84.5128 276.234 84.9028 276.138 85.4188 276.138V279H87.8128C87.8128 279.84 87.4348 280.26 86.6788 280.26H85.4368V285.462C85.4368 285.942 85.5208 286.284 85.6888 286.488C85.8688 286.68 86.1868 286.776 86.6428 286.776C87.0628 286.776 87.4588 286.668 87.8308 286.452C87.9868 286.608 88.0648 286.818 88.0648 287.082C88.0648 287.37 87.9148 287.622 87.6148 287.838C87.3148 288.054 86.9068 288.162 86.3908 288.162ZM93.2211 288.162C92.6091 288.162 92.0331 288.072 91.4931 287.892C90.9531 287.7 90.5151 287.43 90.1791 287.082C89.8551 286.734 89.6931 286.326 89.6931 285.858C89.6931 285.282 90.0411 284.97 90.7371 284.922C90.8571 285.594 91.1391 286.092 91.5831 286.416C92.0391 286.728 92.6151 286.884 93.3111 286.884C94.0071 286.884 94.5471 286.782 94.9311 286.578C95.3151 286.374 95.5071 286.062 95.5071 285.642C95.5071 285.342 95.4291 285.102 95.2731 284.922C95.1171 284.73 94.8651 284.568 94.5171 284.436C94.1811 284.292 93.6951 284.154 93.0591 284.022C92.2671 283.842 91.6371 283.65 91.1691 283.446C90.7011 283.242 90.3411 282.972 90.0891 282.636C89.8491 282.3 89.7291 281.856 89.7291 281.304C89.7291 280.836 89.8731 280.416 90.1611 280.044C90.4491 279.66 90.8451 279.366 91.3491 279.162C91.8651 278.946 92.4471 278.838 93.0951 278.838C93.6951 278.838 94.2591 278.922 94.7871 279.09C95.3271 279.258 95.7591 279.498 96.0831 279.81C96.4191 280.122 96.5871 280.482 96.5871 280.89C96.5871 281.166 96.4791 281.388 96.2631 281.556C96.0471 281.712 95.7471 281.802 95.3631 281.826C95.3271 281.298 95.1111 280.884 94.7151 280.584C94.3311 280.272 93.7911 280.116 93.0951 280.116C92.5191 280.116 92.0631 280.224 91.7271 280.44C91.3911 280.656 91.2231 280.944 91.2231 281.304C91.2231 281.688 91.3791 281.976 91.6911 282.168C92.0151 282.348 92.5611 282.522 93.3291 282.69C94.5891 282.942 95.5131 283.29 96.1011 283.734C96.7011 284.166 97.0011 284.784 97.0011 285.588C97.0011 286.404 96.6711 287.04 96.0111 287.496C95.3511 287.94 94.4211 288.162 93.2211 288.162ZM99.8966 281.61C99.5366 281.61 99.2306 281.49 98.9786 281.25C98.7386 281.01 98.6186 280.704 98.6186 280.332C98.6186 279.984 98.7386 279.684 98.9786 279.432C99.2306 279.18 99.5366 279.054 99.8966 279.054C100.257 279.054 100.563 279.18 100.815 279.432C101.079 279.684 101.211 279.984 101.211 280.332C101.211 280.692 101.079 280.998 100.815 281.25C100.563 281.49 100.257 281.61 99.8966 281.61ZM99.8966 288.162C99.5366 288.162 99.2306 288.042 98.9786 287.802C98.7386 287.562 98.6186 287.256 98.6186 286.884C98.6186 286.524 98.7386 286.224 98.9786 285.984C99.2306 285.732 99.5366 285.606 99.8966 285.606C100.257 285.606 100.563 285.732 100.815 285.984C101.079 286.224 101.211 286.524 101.211 286.884C101.211 287.244 101.079 287.55 100.815 287.802C100.563 288.042 100.257 288.162 99.8966 288.162ZM108.252 288C108.012 288 107.82 287.934 107.676 287.802C107.544 287.67 107.478 287.49 107.478 287.262C107.478 286.338 107.832 285.474 108.54 284.67C109.248 283.866 110.358 283.068 111.87 282.276C112.734 281.82 113.388 281.43 113.832 281.106C114.288 280.77 114.6 280.44 114.768 280.116C114.948 279.78 115.038 279.384 115.038 278.928C115.038 278.22 114.804 277.68 114.336 277.308C113.88 276.936 113.208 276.75 112.32 276.75C111.36 276.75 110.61 276.978 110.07 277.434C109.542 277.89 109.278 278.526 109.278 279.342C109.278 279.558 109.296 279.786 109.332 280.026L109.116 280.044C108.684 280.044 108.318 279.918 108.018 279.666C107.718 279.414 107.568 279.102 107.568 278.73C107.568 278.082 107.778 277.494 108.198 276.966C108.618 276.426 109.188 276.006 109.908 275.706C110.64 275.394 111.444 275.238 112.32 275.238C113.22 275.238 114.006 275.388 114.678 275.688C115.35 275.988 115.866 276.42 116.226 276.984C116.586 277.536 116.766 278.184 116.766 278.928C116.766 279.78 116.454 280.548 115.83 281.232C115.218 281.916 114.18 282.642 112.716 283.41C110.592 284.538 109.47 285.576 109.35 286.524H115.524C115.98 286.524 116.328 286.65 116.568 286.902C116.808 287.154 116.928 287.52 116.928 288H108.252ZM142.205 276.192C142.205 275.964 142.283 275.778 142.439 275.634C142.607 275.478 142.817 275.4 143.069 275.4H148.037C149.201 275.4 150.125 275.742 150.809 276.426C151.505 277.098 151.853 277.998 151.853 279.126C151.853 280.542 151.235 281.544 149.999 282.132V282.186C150.539 282.414 150.953 282.762 151.241 283.23C151.529 283.686 151.673 284.244 151.673 284.904V286.758C151.673 287.214 151.529 287.562 151.241 287.802C150.953 288.042 150.533 288.162 149.981 288.162V285.012C149.981 284.304 149.819 283.77 149.495 283.41C149.183 283.038 148.715 282.852 148.091 282.852H143.879V286.758C143.879 287.214 143.735 287.562 143.447 287.802C143.171 288.042 142.757 288.162 142.205 288.162V276.192ZM147.983 281.394C148.643 281.394 149.165 281.19 149.549 280.782C149.945 280.374 150.143 279.816 150.143 279.108C150.143 278.388 149.957 277.836 149.585 277.452C149.213 277.068 148.679 276.876 147.983 276.876H143.879V281.394H147.983ZM157.355 288.162C156.623 288.162 155.969 288.024 155.393 287.748C154.817 287.46 154.367 287.07 154.043 286.578C153.719 286.074 153.557 285.51 153.557 284.886V282.222C153.557 281.586 153.725 281.01 154.061 280.494C154.409 279.978 154.871 279.576 155.447 279.288C156.035 278.988 156.671 278.838 157.355 278.838C158.039 278.838 158.663 278.982 159.227 279.27C159.803 279.558 160.253 279.954 160.577 280.458C160.913 280.962 161.081 281.532 161.081 282.168V283.32C161.081 283.512 161.009 283.674 160.865 283.806C160.721 283.938 160.547 284.004 160.343 284.004H155.087V284.814C155.087 285.426 155.279 285.918 155.663 286.29C156.059 286.662 156.623 286.848 157.355 286.848C158.087 286.848 158.645 286.686 159.029 286.362C159.413 286.038 159.605 285.6 159.605 285.048C159.965 285.024 160.265 285.096 160.505 285.264C160.757 285.42 160.883 285.654 160.883 285.966C160.883 286.35 160.715 286.71 160.379 287.046C160.055 287.382 159.623 287.652 159.083 287.856C158.543 288.06 157.967 288.162 157.355 288.162ZM159.623 282.78V282.168C159.623 281.568 159.413 281.082 158.993 280.71C158.585 280.326 158.039 280.134 157.355 280.134C156.671 280.134 156.119 280.326 155.699 280.71C155.291 281.082 155.087 281.568 155.087 282.168V282.78H159.623ZM163.158 280.116C163.158 279.72 163.278 279.408 163.518 279.18C163.77 278.952 164.148 278.838 164.652 278.838V279.846L164.292 280.314L164.346 280.386C164.718 279.906 165.144 279.528 165.624 279.252C166.104 278.976 166.674 278.838 167.334 278.838C168.366 278.838 169.2 279.126 169.836 279.702C170.472 280.266 170.79 281.022 170.79 281.97V285.048C170.79 285.996 170.46 286.752 169.8 287.316C169.14 287.88 168.282 288.162 167.226 288.162C166.662 288.162 166.14 288.048 165.66 287.82C165.192 287.58 164.778 287.268 164.418 286.884L164.364 286.974C164.448 287.094 164.574 287.226 164.742 287.37V290.538C164.742 291.354 164.214 291.762 163.158 291.762V280.116ZM166.992 286.776C167.7 286.776 168.252 286.62 168.648 286.308C169.044 285.984 169.242 285.54 169.242 284.976V282.042C169.242 281.454 169.044 281.004 168.648 280.692C168.252 280.38 167.694 280.224 166.974 280.224C166.338 280.224 165.804 280.392 165.372 280.728C164.94 281.052 164.724 281.46 164.724 281.952V285.066C164.724 285.546 164.928 285.954 165.336 286.29C165.744 286.614 166.296 286.776 166.992 286.776ZM175.926 288.162C175.314 288.162 174.738 288.072 174.198 287.892C173.658 287.7 173.22 287.43 172.884 287.082C172.56 286.734 172.398 286.326 172.398 285.858C172.398 285.282 172.746 284.97 173.442 284.922C173.562 285.594 173.844 286.092 174.288 286.416C174.744 286.728 175.32 286.884 176.016 286.884C176.712 286.884 177.252 286.782 177.636 286.578C178.02 286.374 178.212 286.062 178.212 285.642C178.212 285.342 178.134 285.102 177.978 284.922C177.822 284.73 177.57 284.568 177.222 284.436C176.886 284.292 176.4 284.154 175.764 284.022C174.972 283.842 174.342 283.65 173.874 283.446C173.406 283.242 173.046 282.972 172.794 282.636C172.554 282.3 172.434 281.856 172.434 281.304C172.434 280.836 172.578 280.416 172.866 280.044C173.154 279.66 173.55 279.366 174.054 279.162C174.57 278.946 175.152 278.838 175.8 278.838C176.4 278.838 176.964 278.922 177.492 279.09C178.032 279.258 178.464 279.498 178.788 279.81C179.124 280.122 179.292 280.482 179.292 280.89C179.292 281.166 179.184 281.388 178.968 281.556C178.752 281.712 178.452 281.802 178.068 281.826C178.032 281.298 177.816 280.884 177.42 280.584C177.036 280.272 176.496 280.116 175.8 280.116C175.224 280.116 174.768 280.224 174.432 280.44C174.096 280.656 173.928 280.944 173.928 281.304C173.928 281.688 174.084 281.976 174.396 282.168C174.72 282.348 175.266 282.522 176.034 282.69C177.294 282.942 178.218 283.29 178.806 283.734C179.406 284.166 179.706 284.784 179.706 285.588C179.706 286.404 179.376 287.04 178.716 287.496C178.056 287.94 177.126 288.162 175.926 288.162ZM182.602 281.61C182.242 281.61 181.936 281.49 181.684 281.25C181.444 281.01 181.324 280.704 181.324 280.332C181.324 279.984 181.444 279.684 181.684 279.432C181.936 279.18 182.242 279.054 182.602 279.054C182.962 279.054 183.268 279.18 183.52 279.432C183.784 279.684 183.916 279.984 183.916 280.332C183.916 280.692 183.784 280.998 183.52 281.25C183.268 281.49 182.962 281.61 182.602 281.61ZM182.602 288.162C182.242 288.162 181.936 288.042 181.684 287.802C181.444 287.562 181.324 287.256 181.324 286.884C181.324 286.524 181.444 286.224 181.684 285.984C181.936 285.732 182.242 285.606 182.602 285.606C182.962 285.606 183.268 285.732 183.52 285.984C183.784 286.224 183.916 286.524 183.916 286.884C183.916 287.244 183.784 287.55 183.52 287.802C183.268 288.042 182.962 288.162 182.602 288.162ZM192.343 276.876H191.281C190.873 276.876 190.555 276.744 190.327 276.48C190.111 276.216 190.003 275.856 190.003 275.4H193.243C193.471 275.4 193.657 275.478 193.801 275.634C193.957 275.778 194.035 275.952 194.035 276.156V286.758C194.035 287.214 193.891 287.562 193.603 287.802C193.315 288.042 192.895 288.162 192.343 288.162V276.876ZM203.415 276.876H197.205C196.797 276.876 196.479 276.75 196.251 276.498C196.035 276.246 195.927 275.88 195.927 275.4H204.675C204.927 275.4 205.125 275.466 205.269 275.598C205.413 275.73 205.485 275.904 205.485 276.12C205.485 276.264 205.455 276.396 205.395 276.516L199.833 287.514C199.617 287.946 199.287 288.162 198.843 288.162C198.471 288.162 198.141 288.06 197.853 287.856L203.415 276.876ZM234.711 288.162C234.279 288.162 233.925 288.06 233.649 287.856C233.373 287.64 233.187 287.34 233.091 286.956L230.121 275.4C230.301 275.292 230.529 275.238 230.805 275.238C231.153 275.238 231.447 275.328 231.687 275.508C231.927 275.676 232.083 275.91 232.155 276.21L234.117 284.742L233.829 285.804L233.937 285.84L236.835 275.796C236.883 275.616 236.973 275.478 237.105 275.382C237.249 275.286 237.417 275.238 237.609 275.238C237.789 275.238 237.951 275.286 238.095 275.382C238.239 275.478 238.335 275.616 238.383 275.796L240.885 284.814L240.633 285.912L240.741 285.948L243.063 276.21C243.135 275.91 243.285 275.676 243.513 275.508C243.753 275.328 244.041 275.238 244.377 275.238C244.653 275.238 244.893 275.292 245.097 275.4L242.127 286.956C242.031 287.34 241.839 287.64 241.551 287.856C241.275 288.06 240.921 288.162 240.489 288.162L237.411 277.272L237.303 277.308L237.537 278.154L234.711 288.162ZM249.605 288.162C248.873 288.162 248.219 288.024 247.643 287.748C247.067 287.46 246.617 287.07 246.293 286.578C245.969 286.074 245.807 285.51 245.807 284.886V282.222C245.807 281.586 245.975 281.01 246.311 280.494C246.659 279.978 247.121 279.576 247.697 279.288C248.285 278.988 248.921 278.838 249.605 278.838C250.289 278.838 250.913 278.982 251.477 279.27C252.053 279.558 252.503 279.954 252.827 280.458C253.163 280.962 253.331 281.532 253.331 282.168V283.32C253.331 283.512 253.259 283.674 253.115 283.806C252.971 283.938 252.797 284.004 252.593 284.004H247.337V284.814C247.337 285.426 247.529 285.918 247.913 286.29C248.309 286.662 248.873 286.848 249.605 286.848C250.337 286.848 250.895 286.686 251.279 286.362C251.663 286.038 251.855 285.6 251.855 285.048C252.215 285.024 252.515 285.096 252.755 285.264C253.007 285.42 253.133 285.654 253.133 285.966C253.133 286.35 252.965 286.71 252.629 287.046C252.305 287.382 251.873 287.652 251.333 287.856C250.793 288.06 250.217 288.162 249.605 288.162ZM251.873 282.78V282.168C251.873 281.568 251.663 281.082 251.243 280.71C250.835 280.326 250.289 280.134 249.605 280.134C248.921 280.134 248.369 280.326 247.949 280.71C247.541 281.082 247.337 281.568 247.337 282.168V282.78H251.873ZM256.596 277.488C256.26 277.488 255.978 277.38 255.75 277.164C255.522 276.948 255.408 276.678 255.408 276.354C255.408 276.03 255.522 275.766 255.75 275.562C255.978 275.346 256.26 275.238 256.596 275.238C256.92 275.238 257.196 275.346 257.424 275.562C257.652 275.766 257.766 276.03 257.766 276.354C257.766 276.678 257.652 276.948 257.424 277.164C257.196 277.38 256.92 277.488 256.596 277.488ZM255.804 279.99C255.804 279.594 255.93 279.306 256.182 279.126C256.446 278.934 256.842 278.838 257.37 278.838V287.01C257.37 287.406 257.238 287.7 256.974 287.892C256.722 288.072 256.332 288.162 255.804 288.162V279.99ZM263.877 291.762C263.253 291.762 262.671 291.66 262.131 291.456C261.591 291.252 261.165 290.976 260.853 290.628C260.541 290.292 260.385 289.926 260.385 289.53C260.385 289.218 260.487 288.99 260.691 288.846C260.907 288.702 261.195 288.63 261.555 288.63C261.579 289.194 261.795 289.638 262.203 289.962C262.623 290.298 263.181 290.466 263.877 290.466C265.413 290.466 266.181 289.722 266.181 288.234V287.19C266.349 287.046 266.475 286.914 266.559 286.794L266.505 286.704C266.157 287.076 265.719 287.382 265.191 287.622C264.675 287.862 264.153 287.982 263.625 287.982C262.593 287.982 261.747 287.7 261.087 287.136C260.439 286.56 260.115 285.804 260.115 284.868V281.97C260.115 281.358 260.265 280.818 260.565 280.35C260.877 279.87 261.297 279.498 261.825 279.234C262.365 278.97 262.959 278.838 263.607 278.838C264.783 278.838 265.767 279.354 266.559 280.386L266.631 280.314L266.271 279.864C266.271 279.528 266.385 279.276 266.613 279.108C266.853 278.928 267.237 278.838 267.765 278.838V288.072C267.765 288.792 267.597 289.428 267.261 289.98C266.937 290.544 266.481 290.982 265.893 291.294C265.305 291.606 264.633 291.762 263.877 291.762ZM263.913 286.614C264.549 286.614 265.089 286.446 265.533 286.11C265.977 285.762 266.199 285.354 266.199 284.886V281.952C266.199 281.46 265.977 281.046 265.533 280.71C265.101 280.374 264.573 280.206 263.949 280.206C263.229 280.206 262.671 280.368 262.275 280.692C261.879 281.004 261.681 281.454 261.681 282.042V284.796C261.681 285.36 261.873 285.804 262.257 286.128C262.653 286.452 263.205 286.614 263.913 286.614ZM270.28 276.57C270.28 276.138 270.412 275.808 270.676 275.58C270.94 275.352 271.33 275.238 271.846 275.238V279.972C271.678 280.164 271.546 280.332 271.45 280.476L271.522 280.548C271.894 280.044 272.362 279.636 272.926 279.324C273.49 279 274.102 278.838 274.762 278.838C275.734 278.838 276.502 279.126 277.066 279.702C277.63 280.278 277.912 281.022 277.912 281.934V287.01C277.912 287.406 277.78 287.7 277.516 287.892C277.264 288.072 276.874 288.162 276.346 288.162V282.096C276.346 281.52 276.184 281.064 275.86 280.728C275.536 280.392 275.044 280.224 274.384 280.224C273.94 280.224 273.52 280.32 273.124 280.512C272.74 280.692 272.428 280.944 272.188 281.268C271.96 281.58 271.846 281.922 271.846 282.294V287.01C271.846 287.406 271.714 287.7 271.45 287.892C271.198 288.072 270.808 288.162 270.28 288.162V276.57ZM283.828 288.162C282.976 288.162 282.34 287.922 281.92 287.442C281.5 286.95 281.29 286.308 281.29 285.516V280.26H279.616C279.616 279.852 279.706 279.54 279.886 279.324C280.066 279.108 280.312 279 280.624 279H281.308V277.29C281.308 276.894 281.434 276.606 281.686 276.426C281.95 276.234 282.34 276.138 282.856 276.138V279H285.25C285.25 279.84 284.872 280.26 284.116 280.26H282.874V285.462C282.874 285.942 282.958 286.284 283.126 286.488C283.306 286.68 283.624 286.776 284.08 286.776C284.5 286.776 284.896 286.668 285.268 286.452C285.424 286.608 285.502 286.818 285.502 287.082C285.502 287.37 285.352 287.622 285.052 287.838C284.752 288.054 284.344 288.162 283.828 288.162ZM288.229 281.61C287.869 281.61 287.563 281.49 287.311 281.25C287.071 281.01 286.951 280.704 286.951 280.332C286.951 279.984 287.071 279.684 287.311 279.432C287.563 279.18 287.869 279.054 288.229 279.054C288.589 279.054 288.895 279.18 289.147 279.432C289.411 279.684 289.543 279.984 289.543 280.332C289.543 280.692 289.411 280.998 289.147 281.25C288.895 281.49 288.589 281.61 288.229 281.61ZM288.229 288.162C287.869 288.162 287.563 288.042 287.311 287.802C287.071 287.562 286.951 287.256 286.951 286.884C286.951 286.524 287.071 286.224 287.311 285.984C287.563 285.732 287.869 285.606 288.229 285.606C288.589 285.606 288.895 285.732 289.147 285.984C289.411 286.224 289.543 286.524 289.543 286.884C289.543 287.244 289.411 287.55 289.147 287.802C288.895 288.042 288.589 288.162 288.229 288.162ZM296.584 288C296.344 288 296.152 287.934 296.008 287.802C295.876 287.67 295.81 287.49 295.81 287.262C295.81 286.338 296.164 285.474 296.872 284.67C297.58 283.866 298.69 283.068 300.202 282.276C301.066 281.82 301.72 281.43 302.164 281.106C302.62 280.77 302.932 280.44 303.1 280.116C303.28 279.78 303.37 279.384 303.37 278.928C303.37 278.22 303.136 277.68 302.668 277.308C302.212 276.936 301.54 276.75 300.652 276.75C299.692 276.75 298.942 276.978 298.402 277.434C297.874 277.89 297.61 278.526 297.61 279.342C297.61 279.558 297.628 279.786 297.664 280.026L297.448 280.044C297.016 280.044 296.65 279.918 296.35 279.666C296.05 279.414 295.9 279.102 295.9 278.73C295.9 278.082 296.11 277.494 296.53 276.966C296.95 276.426 297.52 276.006 298.24 275.706C298.972 275.394 299.776 275.238 300.652 275.238C301.552 275.238 302.338 275.388 303.01 275.688C303.682 275.988 304.198 276.42 304.558 276.984C304.918 277.536 305.098 278.184 305.098 278.928C305.098 279.78 304.786 280.548 304.162 281.232C303.55 281.916 302.512 282.642 301.048 283.41C298.924 284.538 297.802 285.576 297.682 286.524H303.856C304.312 286.524 304.66 286.65 304.9 286.902C305.14 287.154 305.26 287.52 305.26 288H296.584ZM307.658 288C307.418 288 307.226 287.934 307.082 287.802C306.95 287.67 306.884 287.49 306.884 287.262C306.884 286.338 307.238 285.474 307.946 284.67C308.654 283.866 309.764 283.068 311.276 282.276C312.14 281.82 312.794 281.43 313.238 281.106C313.694 280.77 314.006 280.44 314.174 280.116C314.354 279.78 314.444 279.384 314.444 278.928C314.444 278.22 314.21 277.68 313.742 277.308C313.286 276.936 312.614 276.75 311.726 276.75C310.766 276.75 310.016 276.978 309.476 277.434C308.948 277.89 308.684 278.526 308.684 279.342C308.684 279.558 308.702 279.786 308.738 280.026L308.522 280.044C308.09 280.044 307.724 279.918 307.424 279.666C307.124 279.414 306.974 279.102 306.974 278.73C306.974 278.082 307.184 277.494 307.604 276.966C308.024 276.426 308.594 276.006 309.314 275.706C310.046 275.394 310.85 275.238 311.726 275.238C312.626 275.238 313.412 275.388 314.084 275.688C314.756 275.988 315.272 276.42 315.632 276.984C315.992 277.536 316.172 278.184 316.172 278.928C316.172 279.78 315.86 280.548 315.236 281.232C314.624 281.916 313.586 282.642 312.122 283.41C309.998 284.538 308.876 285.576 308.756 286.524H314.93C315.386 286.524 315.734 286.65 315.974 286.902C316.214 287.154 316.334 287.52 316.334 288H307.658ZM322.62 288.162C321.732 288.162 320.934 288.018 320.226 287.73C319.518 287.442 318.96 287.04 318.552 286.524C318.156 286.008 317.958 285.432 317.958 284.796C317.958 284.328 318.084 283.992 318.336 283.788C318.6 283.584 319.008 283.5 319.56 283.536C319.536 283.848 319.524 284.052 319.524 284.148C319.524 284.94 319.794 285.558 320.334 286.002C320.874 286.446 321.636 286.668 322.62 286.668C323.604 286.668 324.366 286.392 324.906 285.84C325.458 285.288 325.734 284.514 325.734 283.518C325.734 282.51 325.464 281.748 324.924 281.232C324.396 280.704 323.622 280.44 322.602 280.44C322.062 280.44 321.558 280.524 321.09 280.692C320.634 280.86 320.238 281.106 319.902 281.43C319.71 281.622 319.488 281.718 319.236 281.718C318.984 281.718 318.768 281.628 318.588 281.448C318.408 281.268 318.342 281.046 318.39 280.782L319.128 276.012C319.152 275.82 319.242 275.67 319.398 275.562C319.554 275.454 319.752 275.4 319.992 275.4H326.796C326.796 276.384 326.364 276.876 325.5 276.876H320.478L320.082 279.54C319.83 279.72 319.614 279.9 319.434 280.08L319.488 280.17C319.956 279.798 320.49 279.51 321.09 279.306C321.702 279.09 322.302 278.982 322.89 278.982C324.306 278.982 325.41 279.384 326.202 280.188C326.994 280.98 327.39 282.09 327.39 283.518C327.39 284.454 327.192 285.276 326.796 285.984C326.412 286.68 325.86 287.22 325.14 287.604C324.42 287.976 323.58 288.162 322.62 288.162Z" fill="white"/>
<path d="M144.856 253C144.536 253 144.256 252.888 144.016 252.664C143.792 252.424 143.68 252.144 143.68 251.824V237.856C143.68 236.608 144.432 235.984 145.936 235.984V251.008H153.304C153.864 251.008 154.296 251.184 154.6 251.536C154.904 251.872 155.056 252.36 155.056 253H144.856ZM161.324 253.216C160.348 253.216 159.476 253.032 158.708 252.664C157.94 252.28 157.34 251.76 156.908 251.104C156.476 250.432 156.26 249.68 156.26 248.848V245.296C156.26 244.448 156.484 243.68 156.932 242.992C157.396 242.304 158.012 241.768 158.78 241.384C159.564 240.984 160.412 240.784 161.324 240.784C162.236 240.784 163.068 240.976 163.82 241.36C164.588 241.744 165.188 242.272 165.62 242.944C166.068 243.616 166.292 244.376 166.292 245.224V246.76C166.292 247.016 166.196 247.232 166.004 247.408C165.812 247.584 165.58 247.672 165.308 247.672H158.3V248.752C158.3 249.568 158.556 250.224 159.068 250.72C159.596 251.216 160.348 251.464 161.324 251.464C162.3 251.464 163.044 251.248 163.556 250.816C164.068 250.384 164.324 249.8 164.324 249.064C164.804 249.032 165.204 249.128 165.524 249.352C165.86 249.56 166.028 249.872 166.028 250.288C166.028 250.8 165.804 251.28 165.356 251.728C164.924 252.176 164.348 252.536 163.628 252.808C162.908 253.08 162.14 253.216 161.324 253.216ZM164.348 246.04V245.224C164.348 244.424 164.068 243.776 163.508 243.28C162.964 242.768 162.236 242.512 161.324 242.512C160.412 242.512 159.676 242.768 159.116 243.28C158.572 243.776 158.3 244.424 158.3 245.224V246.04H164.348ZM173.839 258.016C173.007 258.016 172.231 257.88 171.511 257.608C170.791 257.336 170.223 256.968 169.807 256.504C169.391 256.056 169.183 255.568 169.183 255.04C169.183 254.624 169.319 254.32 169.591 254.128C169.879 253.936 170.263 253.84 170.743 253.84C170.775 254.592 171.063 255.184 171.607 255.616C172.167 256.064 172.911 256.288 173.839 256.288C175.887 256.288 176.911 255.296 176.911 253.312V251.92C177.135 251.728 177.303 251.552 177.415 251.392L177.343 251.272C176.879 251.768 176.295 252.176 175.591 252.496C174.903 252.816 174.207 252.976 173.503 252.976C172.127 252.976 170.999 252.6 170.119 251.848C169.255 251.08 168.823 250.072 168.823 248.824V244.96C168.823 244.144 169.023 243.424 169.423 242.8C169.839 242.16 170.399 241.664 171.103 241.312C171.823 240.96 172.615 240.784 173.479 240.784C175.047 240.784 176.359 241.472 177.415 242.848L177.511 242.752L177.031 242.152C177.031 241.704 177.183 241.368 177.487 241.144C177.807 240.904 178.319 240.784 179.023 240.784V253.096C179.023 254.056 178.799 254.904 178.351 255.64C177.919 256.392 177.311 256.976 176.527 257.392C175.743 257.808 174.847 258.016 173.839 258.016ZM173.887 251.152C174.735 251.152 175.455 250.928 176.047 250.48C176.639 250.016 176.935 249.472 176.935 248.848V244.936C176.935 244.28 176.639 243.728 176.047 243.28C175.471 242.832 174.767 242.608 173.935 242.608C172.975 242.608 172.231 242.824 171.703 243.256C171.175 243.672 170.911 244.272 170.911 245.056V248.728C170.911 249.48 171.167 250.072 171.679 250.504C172.207 250.936 172.943 251.152 173.887 251.152ZM188.563 237.256C188.563 236.952 188.667 236.704 188.875 236.512C189.099 236.304 189.379 236.2 189.715 236.2H196.723C197.779 236.2 198.715 236.424 199.531 236.872C200.347 237.304 200.979 237.92 201.427 238.72C201.875 239.504 202.099 240.408 202.099 241.432C202.099 242.488 201.875 243.416 201.427 244.216C200.995 245.016 200.371 245.632 199.555 246.064C198.739 246.496 197.795 246.712 196.723 246.712H190.819V251.344C190.819 251.952 190.627 252.416 190.243 252.736C189.859 253.056 189.299 253.216 188.563 253.216V237.256ZM196.723 244.72C197.683 244.72 198.443 244.432 199.003 243.856C199.563 243.264 199.843 242.456 199.843 241.432C199.843 240.44 199.555 239.656 198.979 239.08C198.419 238.488 197.667 238.192 196.723 238.192H190.819V244.72H196.723ZM209.216 242.632C208.32 242.632 207.576 242.904 206.984 243.448C206.392 243.976 206.096 244.624 206.096 245.392V251.68C206.096 252.208 205.92 252.6 205.568 252.856C205.232 253.096 204.712 253.216 204.008 253.216V242.56C204.008 241.376 204.68 240.784 206.024 240.784V242.248C205.768 242.52 205.592 242.76 205.496 242.968L205.592 243.064C206.616 241.544 207.896 240.784 209.432 240.784C210.008 240.784 210.448 240.928 210.752 241.216C211.056 241.488 211.208 241.824 211.208 242.224C211.208 242.512 211.136 242.768 210.992 242.992C210.544 242.752 209.952 242.632 209.216 242.632ZM217.481 253.216C216.505 253.216 215.633 253.032 214.865 252.664C214.097 252.28 213.497 251.76 213.065 251.104C212.633 250.432 212.417 249.68 212.417 248.848V245.296C212.417 244.448 212.641 243.68 213.089 242.992C213.553 242.304 214.169 241.768 214.937 241.384C215.721 240.984 216.569 240.784 217.481 240.784C218.393 240.784 219.225 240.976 219.977 241.36C220.745 241.744 221.345 242.272 221.777 242.944C222.225 243.616 222.449 244.376 222.449 245.224V246.76C222.449 247.016 222.353 247.232 222.161 247.408C221.969 247.584 221.737 247.672 221.465 247.672H214.457V248.752C214.457 249.568 214.713 250.224 215.225 250.72C215.753 251.216 216.505 251.464 217.481 251.464C218.457 251.464 219.201 251.248 219.713 250.816C220.225 250.384 220.481 249.8 220.481 249.064C220.961 249.032 221.361 249.128 221.681 249.352C222.017 249.56 222.185 249.872 222.185 250.288C222.185 250.8 221.961 251.28 221.513 251.728C221.081 252.176 220.505 252.536 219.785 252.808C219.065 253.08 218.297 253.216 217.481 253.216ZM220.505 246.04V245.224C220.505 244.424 220.225 243.776 219.665 243.28C219.121 242.768 218.393 242.512 217.481 242.512C216.569 242.512 215.833 242.768 215.273 243.28C214.729 243.776 214.457 244.424 214.457 245.224V246.04H220.505ZM229.563 253.216C228.747 253.216 227.979 253.096 227.259 252.856C226.539 252.6 225.955 252.24 225.507 251.776C225.075 251.312 224.859 250.768 224.859 250.144C224.859 249.376 225.323 248.96 226.251 248.896C226.411 249.792 226.787 250.456 227.379 250.888C227.987 251.304 228.755 251.512 229.683 251.512C230.611 251.512 231.331 251.376 231.843 251.104C232.355 250.832 232.611 250.416 232.611 249.856C232.611 249.456 232.507 249.136 232.299 248.896C232.091 248.64 231.755 248.424 231.291 248.248C230.843 248.056 230.195 247.872 229.347 247.696C228.291 247.456 227.451 247.2 226.827 246.928C226.203 246.656 225.723 246.296 225.387 245.848C225.067 245.4 224.907 244.808 224.907 244.072C224.907 243.448 225.099 242.888 225.483 242.392C225.867 241.88 226.395 241.488 227.067 241.216C227.755 240.928 228.531 240.784 229.395 240.784C230.195 240.784 230.947 240.896 231.651 241.12C232.371 241.344 232.947 241.664 233.379 242.08C233.827 242.496 234.051 242.976 234.051 243.52C234.051 243.888 233.907 244.184 233.619 244.408C233.331 244.616 232.931 244.736 232.419 244.768C232.371 244.064 232.083 243.512 231.555 243.112C231.043 242.696 230.323 242.488 229.395 242.488C228.627 242.488 228.019 242.632 227.571 242.92C227.123 243.208 226.899 243.592 226.899 244.072C226.899 244.584 227.107 244.968 227.523 245.224C227.955 245.464 228.683 245.696 229.707 245.92C231.387 246.256 232.619 246.72 233.403 247.312C234.203 247.888 234.603 248.712 234.603 249.784C234.603 250.872 234.163 251.72 233.283 252.328C232.403 252.92 231.163 253.216 229.563 253.216ZM241.704 253.216C240.888 253.216 240.12 253.096 239.4 252.856C238.68 252.6 238.096 252.24 237.648 251.776C237.216 251.312 237 250.768 237 250.144C237 249.376 237.464 248.96 238.392 248.896C238.552 249.792 238.928 250.456 239.52 250.888C240.128 251.304 240.896 251.512 241.824 251.512C242.752 251.512 243.472 251.376 243.984 251.104C244.496 250.832 244.752 250.416 244.752 249.856C244.752 249.456 244.648 249.136 244.44 248.896C244.232 248.64 243.896 248.424 243.432 248.248C242.984 248.056 242.336 247.872 241.488 247.696C240.432 247.456 239.592 247.2 238.968 246.928C238.344 246.656 237.864 246.296 237.528 245.848C237.208 245.4 237.048 244.808 237.048 244.072C237.048 243.448 237.24 242.888 237.624 242.392C238.008 241.88 238.536 241.488 239.208 241.216C239.896 240.928 240.672 240.784 241.536 240.784C242.336 240.784 243.088 240.896 243.792 241.12C244.512 241.344 245.088 241.664 245.52 242.08C245.968 242.496 246.192 242.976 246.192 243.52C246.192 243.888 246.048 244.184 245.76 244.408C245.472 244.616 245.072 244.736 244.56 244.768C244.512 244.064 244.224 243.512 243.696 243.112C243.184 242.696 242.464 242.488 241.536 242.488C240.768 242.488 240.16 242.632 239.712 242.92C239.264 243.208 239.04 243.592 239.04 244.072C239.04 244.584 239.248 244.968 239.664 245.224C240.096 245.464 240.824 245.696 241.848 245.92C243.528 246.256 244.76 246.72 245.544 247.312C246.344 247.888 246.744 248.712 246.744 249.784C246.744 250.872 246.304 251.72 245.424 252.328C244.544 252.92 243.304 253.216 241.704 253.216Z" fill="white"/>
<path fill-rule="evenodd" clip-rule="evenodd" d="M355 243C355 249.627 349.627 255 343 255C336.373 255 331 249.627 331 243C331 236.373 336.373 231 343 231C349.627 231 355 236.373 355 243ZM344.333 251C344.333 251.736 343.736 252.333 343 252.333C342.264 252.333 341.667 251.736 341.667 251C341.667 250.264 342.264 249.667 343 249.667C343.736 249.667 344.333 250.264 344.333 251ZM343 233.422C339.919 233.422 337.422 235.919 337.422 239H340.578C340.578 237.662 341.663 236.578 343 236.578H343.126C344.394 236.578 345.422 237.606 345.422 238.874V239.559C345.422 240.138 345.051 240.653 344.501 240.836C342.662 241.449 341.422 243.17 341.422 245.108V248.333H344.578V245.108C344.578 244.529 344.949 244.014 345.499 243.831C347.338 243.218 348.578 241.497 348.578 239.559V238.874C348.578 235.863 346.137 233.422 343.126 233.422H343Z" fill="white"/>
<rect x="306" y="664" width="74" height="74" rx="37" fill="#B8F14A"/>
<rect x="306" y="664" width="74" height="74" rx="37" stroke="black" stroke-width="12"/>
<circle cx="343" cy="701" r="32.25" stroke="#33363F" stroke-width="3.91667"/>
<path d="M343 711.75L343 690.25" stroke="#33363F" stroke-width="3.91667" stroke-linecap="square"/>
<path d="M353.75 701L332.25 701" stroke="#33363F" stroke-width="3.91667" stroke-linecap="square"/>
<circle cx="354.5" cy="64.5" r="18.5" fill="white"/>
<ellipse cx="355.094" cy="64.5944" rx="19.0938" ry="18.5944" stroke="#33363F" stroke-width="3.91667"/>
<path d="M346.97 66.0532C346.955 66.0684 346.939 66.084 346.923 66.1C346.736 66.2855 346.5 66.5203 346.332 66.8169C346.164 67.1134 346.084 67.4368 346.021 67.6923C346.016 67.7155 346.01 67.7381 346.005 67.7601L345.191 71.0156C345.187 71.0293 345.184 71.0436 345.18 71.0583C345.135 71.238 345.072 71.4869 345.051 71.7072C345.026 71.9607 345.018 72.5151 345.47 72.9674C345.922 73.4197 346.477 73.4115 346.73 73.3867C346.951 73.3652 347.2 73.3026 347.379 73.2574C347.394 73.2537 347.408 73.2502 347.422 73.2467L350.677 72.4329C350.699 72.4274 350.722 72.4218 350.745 72.416C351.001 72.353 351.324 72.2732 351.621 72.1053C351.917 71.9374 352.152 71.7011 352.338 71.5145C352.354 71.4975 352.371 71.481 352.387 71.465L361.211 62.641C361.227 62.6252 361.242 62.6095 361.258 62.5938C361.626 62.2261 361.983 61.8687 362.239 61.5343C362.526 61.1572 362.797 60.6691 362.797 60.0391C362.797 59.409 362.526 58.9209 362.239 58.5439C361.983 58.2094 361.626 57.852 361.258 57.4843C361.242 57.4686 361.227 57.4529 361.211 57.4371L361 57.2267L360.147 58.0798L361 57.2267C360.985 57.2109 360.969 57.1952 360.953 57.1795C360.585 56.8116 360.228 56.4541 359.894 56.1989C359.517 55.9113 359.028 55.6409 358.398 55.6409C357.768 55.6409 357.28 55.9113 356.903 56.1989C356.569 56.4541 356.211 56.8116 355.844 57.1795C355.828 57.1952 355.812 57.2109 355.797 57.2267L346.973 66.0507C346.972 66.0515 346.971 66.0524 346.97 66.0532Z" stroke="#33363F" stroke-width="2.45312"/>
<path d="M355.332 58.1992L359.012 55.7461L362.691 59.4258L360.238 63.1055L355.332 58.1992Z" fill="#33363F"/>
<rect y="752" width="390" height="92" fill="black"/>
<path d="M58.1348 809.773V806.716C58.1348 805.935 58.7722 805.302 59.5584 805.302H62.4326C62.8102 805.302 63.1723 805.451 63.4393 805.716C63.7063 805.981 63.8563 806.341 63.8563 806.716V809.773C63.8539 810.098 63.9821 810.41 64.2124 810.64C64.4427 810.87 64.756 811 65.0829 811H67.0438C67.9596 811.002 68.8388 810.643 69.4872 810.001C70.1356 809.359 70.5 808.487 70.5 807.578V798.867C70.5 798.132 70.1721 797.436 69.6046 796.965L62.934 791.676C61.7737 790.749 60.1111 790.779 58.9854 791.747L52.467 796.965C51.8727 797.422 51.5176 798.121 51.5 798.867V807.569C51.5 809.464 53.0474 811 54.9562 811H56.8723C57.5512 811 58.103 810.456 58.1079 809.782L58.1348 809.773Z" fill="white"/>
<path fill-rule="evenodd" clip-rule="evenodd" d="M160.519 792C160.565 792 160.611 792 160.657 792C160.703 792 160.749 792 160.795 792C161.419 791.999 161.958 791.999 162.432 792.12C163.706 792.446 164.701 793.395 165.042 794.61C165.17 795.063 165.169 795.577 165.168 796.173C165.168 796.216 165.168 796.26 165.168 796.304V796.713C167.467 796.911 169.269 798.755 169.269 801C169.269 803.245 167.467 805.089 165.168 805.287V805.696C165.168 805.74 165.168 805.783 165.168 805.827C165.169 806.423 165.17 806.937 165.042 807.39C164.701 808.605 163.706 809.554 162.432 809.88C161.958 810.001 161.419 810.001 160.795 810C160.749 810 160.703 810 160.657 810C160.611 810 160.565 810 160.519 810C159.895 810.001 159.356 810.001 158.882 809.88C157.608 809.554 156.613 808.605 156.272 807.39C156.145 806.937 156.145 806.423 156.146 805.827C156.146 805.783 156.146 805.74 156.146 805.696V802.174H147.123V805.696C147.123 805.74 147.124 805.783 147.124 805.827C147.124 806.423 147.125 806.937 146.998 807.39C146.656 808.605 145.662 809.554 144.388 809.88C143.913 810.001 143.375 810.001 142.75 810C142.704 810 142.659 810 142.612 810C142.566 810 142.52 810 142.475 810C141.85 810.001 141.311 810.001 140.837 809.88C139.563 809.554 138.568 808.605 138.227 807.39C138.1 806.937 138.1 806.423 138.101 805.827C138.101 805.783 138.101 805.74 138.101 805.696V805.287C135.802 805.089 134 803.245 134 801C134 798.755 135.802 796.911 138.101 796.713V796.304C138.101 796.26 138.101 796.216 138.101 796.173C138.1 795.577 138.1 795.063 138.227 794.61C138.568 793.395 139.563 792.446 140.837 792.12C141.311 791.999 141.85 791.999 142.475 792C142.52 792 142.566 792 142.612 792C142.659 792 142.704 792 142.75 792C143.375 791.999 143.913 791.999 144.388 792.12C145.662 792.446 146.656 793.395 146.998 794.61C147.125 795.063 147.124 795.577 147.124 796.173C147.124 796.216 147.123 796.26 147.123 796.304V799.826H156.146V796.304C156.146 796.26 156.146 796.216 156.146 796.173C156.145 795.577 156.145 795.063 156.272 794.61C156.613 793.395 157.608 792.446 158.882 792.12C159.356 791.999 159.895 791.999 160.519 792ZM138.101 799.083C137.165 799.264 136.461 800.053 136.461 801C136.461 801.947 137.165 802.736 138.101 802.917V799.083ZM165.168 802.917C166.104 802.736 166.809 801.947 166.809 801C166.809 800.053 166.104 799.264 165.168 799.083V802.917ZM160.657 794.348C159.815 794.348 159.635 794.358 159.518 794.388C159.094 794.497 158.762 794.813 158.649 795.218C158.617 795.33 158.607 795.501 158.607 796.304V805.696C158.607 806.499 158.617 806.67 158.649 806.782C158.762 807.187 159.094 807.503 159.518 807.612C159.635 807.642 159.815 807.652 160.657 807.652C161.499 807.652 161.679 807.642 161.796 807.612C162.22 807.503 162.552 807.187 162.666 806.782C162.697 806.67 162.708 806.499 162.708 805.696V796.304C162.708 795.501 162.697 795.33 162.666 795.218C162.552 794.813 162.22 794.497 161.796 794.388C161.679 794.358 161.499 794.348 160.657 794.348ZM142.612 794.348C141.77 794.348 141.591 794.358 141.474 794.388C141.049 794.497 140.717 794.813 140.604 795.218C140.572 795.33 140.562 795.501 140.562 796.304V805.696C140.562 806.499 140.572 806.67 140.604 806.782C140.717 807.187 141.049 807.503 141.474 807.612C141.591 807.642 141.77 807.652 142.612 807.652C143.454 807.652 143.634 807.642 143.751 807.612C144.175 807.503 144.507 807.187 144.621 806.782C144.652 806.67 144.663 806.499 144.663 805.696V796.304C144.663 795.501 144.652 795.33 144.621 795.218C144.507 794.813 144.175 794.497 143.751 794.388C143.634 794.358 143.454 794.348 142.612 794.348Z" fill="#B8F14A"/>
<path d="M248.269 789H233.269C232.474 789 231.711 789.316 231.148 789.879C230.585 790.441 230.269 791.204 230.269 792V810C230.269 810.796 230.585 811.559 231.148 812.121C231.711 812.684 232.474 813 233.269 813H250.269V791C250.269 790.47 250.059 789.961 249.684 789.586C249.308 789.211 248.8 789 248.269 789V789ZM248.269 807H236.269V791H248.269V807ZM233.269 791H234.269V807H233.286C232.939 807.003 232.595 807.066 232.269 807.187V792C232.269 791.735 232.375 791.48 232.562 791.293C232.75 791.105 233.004 791 233.269 791ZM233.269 811C233.005 811 232.752 810.896 232.565 810.71C232.378 810.524 232.271 810.272 232.269 810.008H232.284C232.283 809.876 232.308 809.745 232.358 809.623C232.408 809.501 232.481 809.389 232.574 809.296C232.667 809.202 232.778 809.128 232.9 809.077C233.022 809.026 233.152 809 233.284 809H248.269V811H233.269Z" fill="white"/>
<ellipse cx="326.477" cy="798.477" rx="6.47727" ry="6.47727" fill="#D9D9D9"/>
<ellipse cx="326.269" cy="801" rx="15" ry="15" stroke="#2C2C2E" stroke-width="0.681818"/>
<ellipse cx="325.886" cy="810.773" rx="9.88636" ry="4.77273" fill="#D9D9D9"/>
</g>
<defs>
<clipPath id="clip0_128_2458">
<rect width="390" height="844" fill="white"/>
</clipPath>
</defs>
</svg>
