<svg width="390" height="844" viewBox="0 0 390 844" fill="none" xmlns="http://www.w3.org/2000/svg">
<g clip-path="url(#clip0_128_2755)">
<rect width="390" height="844" fill="#2C2C2E"/>
<path d="M0 0H390V172C390 177.523 385.523 182 380 182H10C4.47715 182 0 177.523 0 172V0Z" fill="#B8F14A"/>
<circle cx="36.5" cy="61.5" r="17.5" fill="white"/>
<path d="M41.1687 63.2121L40.6614 62.3242C40.3384 61.759 40.1769 61.4764 40.1769 61.1666C40.1769 60.8568 40.3384 60.5741 40.6614 60.0089L41.1687 59.1211C42.6134 56.5929 43.3357 55.3288 42.7724 54.7019C42.2091 54.075 40.8753 54.6586 38.2076 55.8257L38.2076 55.8257L30.886 59.0289C28.7913 59.9453 27.7439 60.4036 27.7439 61.1666C27.7439 61.9296 28.7913 62.3878 30.886 63.3043L38.2076 66.5075C40.8753 67.6746 42.2091 68.2582 42.7724 67.6313C43.3357 67.0044 42.6134 65.7403 41.1687 63.2121Z" stroke="black" stroke-width="2.33333"/>
<path d="M36.5 79.125C34.1855 79.125 31.8936 78.6691 29.7552 77.7834C27.6168 76.8976 25.6739 75.5994 24.0372 73.9628C22.4006 72.3261 21.1024 70.3832 20.2166 68.2448C19.3309 66.1064 18.875 63.8145 18.875 61.5C18.875 59.1854 19.3309 56.8936 20.2166 54.7552C21.1024 52.6168 22.4006 50.6739 24.0372 49.0372C25.6739 47.4006 27.6168 46.1024 29.7552 45.2166C31.8936 44.3309 34.1855 43.875 36.5 43.875C38.8146 43.875 41.1064 44.3309 43.2448 45.2166C45.3832 46.1024 47.3261 47.4006 48.9628 49.0372C50.5994 50.6739 51.8976 52.6168 52.7834 54.7552C53.6691 56.8936 54.125 59.1855 54.125 61.5C54.125 63.8146 53.6691 66.1064 52.7834 68.2448C51.8976 70.3832 50.5994 72.3261 48.9628 73.9628C47.3261 75.5994 45.3832 76.8976 43.2448 77.7834C41.1064 78.6691 38.8145 79.125 36.5 79.125L36.5 79.125Z" stroke="black" stroke-width="3.08333" stroke-linecap="round"/>
<path d="M261.97 64.0532C261.955 64.0684 261.939 64.084 261.923 64.1C261.736 64.2855 261.5 64.5203 261.332 64.8169C261.164 65.1134 261.084 65.4368 261.021 65.6923C261.016 65.7155 261.01 65.7381 261.005 65.7601L260.191 69.0156C260.187 69.0293 260.184 69.0436 260.18 69.0583C260.135 69.238 260.072 69.4869 260.051 69.7072C260.026 69.9607 260.018 70.5151 260.47 70.9674C260.922 71.4197 261.477 71.4115 261.73 71.3867C261.951 71.3652 262.2 71.3026 262.379 71.2574C262.394 71.2537 262.408 71.2502 262.422 71.2467L265.677 70.4329C265.699 70.4274 265.722 70.4218 265.745 70.416C266.001 70.353 266.324 70.2732 266.621 70.1053C266.917 69.9374 267.152 69.7011 267.338 69.5145C267.354 69.4975 267.371 69.481 267.387 69.465L276.211 60.641C276.227 60.6252 276.242 60.6095 276.258 60.5938C276.626 60.2261 276.983 59.8687 277.239 59.5343C277.526 59.1572 277.797 58.6691 277.797 58.0391C277.797 57.409 277.526 56.9209 277.239 56.5439C276.983 56.2094 276.626 55.852 276.258 55.4843C276.242 55.4686 276.227 55.4529 276.211 55.4371L276 55.2267L275.147 56.0798L276 55.2267C275.985 55.2109 275.969 55.1952 275.953 55.1795C275.585 54.8116 275.228 54.4541 274.894 54.1989C274.517 53.9113 274.028 53.6409 273.398 53.6409C272.768 53.6409 272.28 53.9113 271.903 54.1989C271.569 54.4541 271.211 54.8116 270.844 55.1795C270.828 55.1952 270.812 55.2109 270.797 55.2267L261.973 64.0507C261.972 64.0515 261.971 64.0524 261.97 64.0532Z" stroke="#33363F" stroke-width="2.45312"/>
<path d="M270.332 56.1992L274.012 53.7461L277.691 57.4258L275.238 61.1055L270.332 56.1992Z" fill="#33363F"/>
<circle cx="31.5" cy="139.5" r="18.5" fill="white"/>
<ellipse cx="32.0938" cy="139.594" rx="19.0938" ry="18.5944" stroke="#33363F" stroke-width="3.91667"/>
<path d="M32.1041 147.234C31.012 147.234 29.9654 147.091 28.9643 146.805C27.9632 146.506 27.1571 146.122 26.5461 145.654L27.6187 143.275C28.2037 143.691 28.8928 144.036 29.6859 144.309C30.492 144.569 31.3046 144.699 32.1236 144.699C32.7477 144.699 33.2483 144.64 33.6253 144.523C34.0153 144.393 34.3014 144.218 34.4834 143.997C34.6654 143.776 34.7564 143.522 34.7564 143.236C34.7564 142.872 34.6134 142.586 34.3274 142.378C34.0413 142.157 33.6643 141.981 33.1963 141.851C32.7282 141.708 32.2082 141.578 31.6361 141.461C31.077 141.331 30.5115 141.175 29.9394 140.993C29.3804 140.811 28.8668 140.577 28.3988 140.291C27.9307 140.005 27.5472 139.628 27.2481 139.16C26.9621 138.692 26.8191 138.094 26.8191 137.366C26.8191 136.586 27.0271 135.877 27.4432 135.24C27.8722 134.59 28.5093 134.077 29.3544 133.7C30.2124 133.31 31.2851 133.115 32.5722 133.115C33.4303 133.115 34.2754 133.219 35.1075 133.427C35.9395 133.622 36.6741 133.921 37.3112 134.324L36.3361 136.722C35.699 136.358 35.062 136.092 34.4249 135.923C33.7878 135.741 33.1638 135.65 32.5527 135.65C31.9416 135.65 31.4411 135.721 31.051 135.864C30.661 136.007 30.3815 136.196 30.2124 136.43C30.0434 136.651 29.9589 136.911 29.9589 137.21C29.9589 137.561 30.1019 137.847 30.388 138.068C30.674 138.276 31.051 138.445 31.5191 138.575C31.9871 138.705 32.5007 138.835 33.0597 138.965C33.6318 139.095 34.1974 139.245 34.7564 139.414C35.3285 139.583 35.8485 139.81 36.3166 140.096C36.7846 140.382 37.1617 140.759 37.4477 141.227C37.7467 141.695 37.8963 142.287 37.8963 143.002C37.8963 143.769 37.6817 144.471 37.2527 145.108C36.8236 145.745 36.1801 146.259 35.322 146.649C34.4769 147.039 33.4043 147.234 32.1041 147.234Z" fill="black"/>
<circle cx="85.6875" cy="139.5" r="18.5" fill="white"/>
<ellipse cx="86.2812" cy="139.594" rx="19.0938" ry="18.5944" stroke="#33363F" stroke-width="3.91667"/>
<path d="M78.6187 147V133.349H81.2319L87.0436 142.983H85.6589L91.373 133.349H93.9668L94.0058 147H91.0415L91.022 137.893H91.568L87.0046 145.557H85.5809L80.9199 137.893H81.583V147H78.6187Z" fill="black"/>
<circle cx="139.875" cy="139.5" r="18.5" fill="white"/>
<ellipse cx="140.469" cy="139.594" rx="19.0938" ry="18.5944" stroke="#33363F" stroke-width="3.91667"/>
<path d="M138.446 147V135.923H134.078V133.349H145.974V135.923H141.606V147H138.446Z" fill="black"/>
<circle cx="194.062" cy="139.5" r="18.5" fill="white"/>
<ellipse cx="194.656" cy="139.594" rx="19.0938" ry="18.5944" stroke="#33363F" stroke-width="3.91667"/>
<path d="M188.458 147L183.992 133.349H187.268L191.149 145.44H189.511L193.567 133.349H196.492L200.393 145.44H198.813L202.792 133.349H205.814L201.348 147H197.955L194.503 136.391H195.4L191.851 147H188.458Z" fill="black"/>
<circle cx="248.25" cy="139.5" r="18.5" fill="white"/>
<ellipse cx="248.844" cy="139.594" rx="19.0938" ry="18.5944" stroke="#33363F" stroke-width="3.91667"/>
<path d="M246.446 147V135.923H242.078V133.349H253.974V135.923H249.606V147H246.446Z" fill="black"/>
<circle cx="302.438" cy="139.5" r="18.5" fill="white"/>
<ellipse cx="303.031" cy="139.594" rx="19.0938" ry="18.5944" stroke="#33363F" stroke-width="3.91667"/>
<path d="M301.544 139.492H308.097V142.027H301.544V139.492ZM301.778 147H298.619V133.349H308.935V135.884H301.778V147Z" fill="black"/>
<circle cx="356.625" cy="139.5" r="18.5" fill="white"/>
<ellipse cx="357.219" cy="139.594" rx="19.0938" ry="18.5944" stroke="#33363F" stroke-width="3.91667"/>
<path d="M357.104 147.234C356.012 147.234 354.965 147.091 353.964 146.805C352.963 146.506 352.157 146.122 351.546 145.654L352.619 143.275C353.204 143.691 353.893 144.036 354.686 144.309C355.492 144.569 356.305 144.699 357.124 144.699C357.748 144.699 358.248 144.64 358.625 144.523C359.015 144.393 359.301 144.218 359.483 143.997C359.665 143.776 359.756 143.522 359.756 143.236C359.756 142.872 359.613 142.586 359.327 142.378C359.041 142.157 358.664 141.981 358.196 141.851C357.728 141.708 357.208 141.578 356.636 141.461C356.077 141.331 355.511 141.175 354.939 140.993C354.38 140.811 353.867 140.577 353.399 140.291C352.931 140.005 352.547 139.628 352.248 139.16C351.962 138.692 351.819 138.094 351.819 137.366C351.819 136.586 352.027 135.877 352.443 135.24C352.872 134.59 353.509 134.077 354.354 133.7C355.212 133.31 356.285 133.115 357.572 133.115C358.43 133.115 359.275 133.219 360.107 133.427C360.94 133.622 361.674 133.921 362.311 134.324L361.336 136.722C360.699 136.358 360.062 136.092 359.425 135.923C358.788 135.741 358.164 135.65 357.553 135.65C356.942 135.65 356.441 135.721 356.051 135.864C355.661 136.007 355.381 136.196 355.212 136.43C355.043 136.651 354.959 136.911 354.959 137.21C354.959 137.561 355.102 137.847 355.388 138.068C355.674 138.276 356.051 138.445 356.519 138.575C356.987 138.705 357.501 138.835 358.06 138.965C358.632 139.095 359.197 139.245 359.756 139.414C360.328 139.583 360.849 139.81 361.317 140.096C361.785 140.382 362.162 140.759 362.448 141.227C362.747 141.695 362.896 142.287 362.896 143.002C362.896 143.769 362.682 144.471 362.253 145.108C361.824 145.745 361.18 146.259 360.322 146.649C359.477 147.039 358.404 147.234 357.104 147.234Z" fill="black"/>
<path d="M142.848 73C142.271 73 141.774 72.7912 141.356 72.3736C140.959 71.9561 140.76 71.459 140.76 70.8823V54.8057C140.76 53.8115 141.088 53.0758 141.744 52.5986C142.4 52.1014 143.404 51.8529 144.757 51.8529V69.5401H152.81C153.744 69.5401 154.45 69.8384 154.927 70.4349C155.405 71.0116 155.643 71.8666 155.643 73H142.848ZM163.399 73.2684C162.166 73.2684 161.042 73.0298 160.028 72.5526C159.014 72.0555 158.209 71.3894 157.612 70.5542C157.016 69.6992 156.718 68.7447 156.718 67.6909V63.7239C156.718 62.6104 157.026 61.6062 157.642 60.7114C158.259 59.8166 159.074 59.1107 160.088 58.5937C161.122 58.0767 162.235 57.8182 163.429 57.8182C164.602 57.8182 165.675 58.0668 166.65 58.5639C167.644 59.0411 168.429 59.7172 169.006 60.5921C169.583 61.4471 169.871 62.4314 169.871 63.5449V65.2152C169.871 65.6527 169.702 66.0206 169.364 66.3188C169.046 66.6171 168.638 66.7662 168.141 66.7662H160.327V67.4224C160.327 68.2774 160.585 68.9734 161.102 69.5103C161.619 70.0472 162.395 70.3156 163.429 70.3156C164.423 70.3156 165.158 70.0969 165.636 69.6594C166.133 69.222 166.381 68.6552 166.381 67.9593C166.739 67.9195 166.988 67.8996 167.127 67.8996C167.863 67.8996 168.439 68.0687 168.857 68.4067C169.275 68.7248 169.483 69.1822 169.483 69.7787C169.483 70.3554 169.215 70.9121 168.678 71.449C168.141 71.9859 167.405 72.4234 166.471 72.7614C165.536 73.0994 164.512 73.2684 163.399 73.2684ZM166.501 64.1117V63.5449C166.501 62.7098 166.212 62.0337 165.636 61.5167C165.059 60.9997 164.313 60.7412 163.399 60.7412C162.484 60.7412 161.738 60.9997 161.162 61.5167C160.605 62.0138 160.327 62.6899 160.327 63.5449V64.1117H166.501ZM178.886 79.2338C177.713 79.2338 176.669 79.0648 175.754 78.7267C174.84 78.4086 174.124 77.9711 173.607 77.4143C173.09 76.8576 172.831 76.2412 172.831 75.5651C172.831 74.889 173.06 74.4118 173.517 74.1334C173.995 73.855 174.661 73.7158 175.516 73.7158C175.595 74.5311 175.913 75.1575 176.47 75.5949C177.027 76.0523 177.832 76.2809 178.886 76.2809C180.059 76.2809 180.885 75.9926 181.362 75.416C181.859 74.8393 182.107 74.0439 182.107 73.0298V72.0157C182.406 71.797 182.624 71.5882 182.764 71.3894L182.644 71.2402C182.127 71.7572 181.431 72.1748 180.556 72.4929C179.701 72.8111 178.896 72.9702 178.141 72.9702C177.027 72.9702 176.033 72.7514 175.158 72.314C174.283 71.8566 173.587 71.2203 173.07 70.4051C172.573 69.5898 172.324 68.6652 172.324 67.6312V63.187C172.324 62.1928 172.583 61.2881 173.1 60.4728C173.637 59.6377 174.333 58.9914 175.188 58.5341C176.063 58.0568 176.997 57.8182 177.991 57.8182C179.085 57.8182 180.01 58.037 180.765 58.4744C181.541 58.9119 182.247 59.5382 182.883 60.3535L183.002 60.2342C182.903 60.0552 182.714 59.7967 182.436 59.4587C182.436 58.365 183.579 57.8182 185.866 57.8182V72.4929C185.866 73.8053 185.567 74.9686 184.971 75.9827C184.374 76.9968 183.539 77.7922 182.465 78.3688C181.412 78.9454 180.218 79.2338 178.886 79.2338ZM179.095 69.7787C179.97 69.7787 180.706 69.56 181.302 69.1225C181.899 68.6652 182.197 68.1283 182.197 67.5119V63.2765C182.197 62.6402 181.899 62.1033 181.302 61.6659C180.725 61.2284 179.99 61.0097 179.095 61.0097C178.121 61.0097 177.365 61.2185 176.828 61.636C176.311 62.0536 176.053 62.6501 176.053 63.4256V67.3628C176.053 68.1184 176.311 68.7149 176.828 69.1524C177.345 69.5699 178.101 69.7787 179.095 69.7787ZM198.945 73C198.389 73 197.911 72.831 197.514 72.4929C197.136 72.135 196.947 71.6976 196.947 71.1806V53.9408C196.947 53.4238 197.136 52.9962 197.514 52.6582C197.891 52.3003 198.369 52.1213 198.945 52.1213H205.567C207.337 52.1213 208.897 52.4594 210.25 53.1354C211.622 53.8115 212.676 54.766 213.411 55.9988C214.167 57.2118 214.545 58.6037 214.545 60.1745V64.8871C214.545 66.458 214.167 67.8599 213.411 69.0927C212.656 70.3255 211.592 71.2899 210.22 71.9859C208.868 72.662 207.317 73 205.567 73H198.945ZM205.269 69.5699C206.999 69.5699 208.311 69.1822 209.206 68.4067C210.1 67.6113 210.548 66.4481 210.548 64.917V60.1149C210.548 58.6235 210.1 57.4901 209.206 56.7146C208.311 55.9391 206.999 55.5514 205.269 55.5514H200.944V69.5699H205.269ZM222.317 73.2684C221.302 73.2684 220.368 73.0696 219.513 72.6719C218.678 72.2742 218.002 71.7075 217.485 70.9718C216.988 70.2162 216.739 69.3214 216.739 68.2874C216.739 67.2534 217.007 66.3586 217.544 65.603C218.081 64.8275 218.807 64.2409 219.722 63.8432C220.656 63.4256 221.68 63.2169 222.794 63.2169C223.709 63.2169 224.524 63.366 225.24 63.6643C225.975 63.9426 226.651 64.3702 227.268 64.9468L227.417 64.7977C227.238 64.6187 226.93 64.3503 226.492 63.9923V63.3958C226.492 62.5806 226.204 61.9343 225.627 61.4571C225.051 60.9799 224.245 60.7412 223.211 60.7412C221.362 60.7412 220 61.4173 219.125 62.7695C218.688 62.6303 218.32 62.4115 218.022 62.1133C217.723 61.7951 217.574 61.4571 217.574 61.0992C217.574 60.5026 217.843 59.9558 218.379 59.4587C218.916 58.9616 219.642 58.5639 220.557 58.2656C221.472 57.9674 222.466 57.8182 223.539 57.8182C225.647 57.8182 227.278 58.3153 228.431 59.3096C229.584 60.2839 230.161 61.6162 230.161 63.3063V70.763C230.161 71.6379 229.883 72.2742 229.326 72.6719C228.769 73.0696 227.894 73.2684 226.701 73.2684V72.0455C227.039 71.7075 227.268 71.459 227.387 71.2999L227.268 71.1507C226.612 71.8467 225.906 72.3736 225.15 72.7316C224.414 73.0895 223.47 73.2684 222.317 73.2684ZM223.271 70.5542C224.305 70.5542 225.11 70.3554 225.687 69.9577C226.264 69.56 226.552 68.9933 226.552 68.2576C226.552 67.5417 226.254 66.975 225.657 66.5574C225.081 66.1399 224.295 65.9311 223.301 65.9311C222.386 65.9311 221.66 66.1399 221.124 66.5574C220.607 66.9551 220.348 67.5218 220.348 68.2576C220.348 69.0132 220.607 69.5898 221.124 69.9875C221.641 70.3653 222.356 70.5542 223.271 70.5542ZM233.937 79.2338C233.161 79.2338 232.545 78.9653 232.087 78.4285C231.65 77.8916 231.431 77.1161 231.431 76.102C232.028 76.2014 232.525 76.2511 232.923 76.2511C233.678 76.2511 234.275 76.0523 234.712 75.6546C235.169 75.2569 235.667 74.4615 236.203 73.2684L236.681 72.1649L230.924 58.1165C231.063 58.037 231.302 57.9674 231.64 57.9077C231.998 57.8481 232.286 57.8182 232.505 57.8182C233.082 57.8182 233.609 57.9475 234.086 58.206C234.563 58.4446 234.891 58.7826 235.07 59.2201L238.262 67.6014L237.754 69.0032L238.023 69.0927L241.871 59.2201C242.05 58.7627 242.368 58.4148 242.825 58.1761C243.302 57.9375 243.829 57.8182 244.406 57.8182C244.625 57.8182 244.903 57.8481 245.241 57.9077C245.599 57.9674 245.857 58.037 246.016 58.1165L239.335 74.3422C238.639 76.0125 237.874 77.2453 237.039 78.0407C236.223 78.8361 235.189 79.2338 233.937 79.2338Z" fill="black"/>
<rect x="15" y="211" width="362" height="316" rx="24.223" fill="black"/>
<path fill-rule="evenodd" clip-rule="evenodd" d="M71.5 261.125C77.9203 261.125 83.125 255.92 83.125 249.5C83.125 243.08 77.9203 237.875 71.5 237.875C65.0797 237.875 59.875 243.08 59.875 249.5C59.875 255.92 65.0797 261.125 71.5 261.125ZM65.0417 250.792H77.9583V248.208H65.0417V250.792Z" fill="#FF4E4E"/>
<rect x="161" y="298" width="71.3462" height="42.1795" rx="6.28205" fill="#434B53"/>
<path d="M184.595 290.129C183.791 290.129 183.092 290.014 182.498 289.785C181.915 289.555 181.469 289.249 181.163 288.866C180.857 288.483 180.704 288.071 180.704 287.631C180.704 287.267 180.799 286.989 180.991 286.798C181.182 286.597 181.474 286.496 181.867 286.496C181.867 287.31 182.111 287.932 182.599 288.363C183.087 288.784 183.772 288.995 184.652 288.995C185.495 288.995 186.141 288.856 186.591 288.578C187.041 288.291 187.266 287.87 187.266 287.315C187.266 286.98 187.179 286.707 187.007 286.496C186.844 286.276 186.562 286.09 186.16 285.936C185.768 285.774 185.198 285.611 184.451 285.448C183.571 285.257 182.872 285.037 182.355 284.788C181.838 284.529 181.46 284.218 181.221 283.854C180.981 283.491 180.862 283.041 180.862 282.505C180.862 281.969 181.01 281.499 181.307 281.097C181.613 280.686 182.044 280.37 182.599 280.15C183.154 279.93 183.8 279.819 184.537 279.819C185.236 279.819 185.858 279.92 186.404 280.121C186.959 280.312 187.39 280.59 187.696 280.954C188.012 281.308 188.17 281.71 188.17 282.16C188.17 282.438 188.079 282.658 187.897 282.821C187.725 282.974 187.452 283.05 187.079 283.05C186.974 282.323 186.715 281.791 186.304 281.456C185.902 281.121 185.313 280.954 184.537 280.954C183.791 280.954 183.216 281.088 182.814 281.356C182.412 281.614 182.211 281.983 182.211 282.462C182.211 282.797 182.283 283.074 182.427 283.294C182.58 283.505 182.834 283.687 183.188 283.84C183.551 283.993 184.059 284.142 184.71 284.285C185.686 284.496 186.452 284.73 187.007 284.989C187.572 285.247 187.979 285.563 188.228 285.936C188.477 286.31 188.601 286.769 188.601 287.315C188.601 288.186 188.237 288.875 187.51 289.383C186.782 289.88 185.811 290.129 184.595 290.129ZM193.132 290.129C192.548 290.129 192.026 290.019 191.567 289.799C191.107 289.569 190.748 289.258 190.49 288.866C190.232 288.464 190.102 288.014 190.102 287.516V285.391C190.102 284.883 190.236 284.424 190.504 284.012C190.782 283.601 191.151 283.28 191.61 283.05C192.079 282.811 192.586 282.691 193.132 282.691C193.678 282.691 194.175 282.806 194.625 283.036C195.085 283.266 195.444 283.582 195.702 283.984C195.97 284.386 196.104 284.84 196.104 285.348V286.267C196.104 286.42 196.047 286.549 195.932 286.654C195.817 286.76 195.678 286.812 195.516 286.812H191.323V287.458C191.323 287.947 191.476 288.339 191.782 288.636C192.098 288.933 192.548 289.081 193.132 289.081C193.716 289.081 194.161 288.952 194.467 288.693C194.774 288.435 194.927 288.085 194.927 287.645C195.214 287.626 195.453 287.683 195.645 287.817C195.846 287.942 195.946 288.129 195.946 288.377C195.946 288.684 195.812 288.971 195.544 289.239C195.286 289.507 194.941 289.722 194.511 289.885C194.08 290.048 193.62 290.129 193.132 290.129ZM194.941 285.836V285.348C194.941 284.869 194.774 284.481 194.439 284.185C194.113 283.878 193.678 283.725 193.132 283.725C192.586 283.725 192.146 283.878 191.811 284.185C191.486 284.481 191.323 284.869 191.323 285.348V285.836H194.941ZM200.255 290.129C199.575 290.129 199.068 289.938 198.733 289.555C198.398 289.162 198.23 288.65 198.23 288.018V283.826H196.895C196.895 283.5 196.967 283.251 197.11 283.079C197.254 282.907 197.45 282.821 197.699 282.821H198.245V281.456C198.245 281.141 198.345 280.911 198.546 280.767C198.757 280.614 199.068 280.537 199.479 280.537V282.821H201.389C201.389 283.491 201.088 283.826 200.485 283.826H199.494V287.975C199.494 288.358 199.561 288.631 199.695 288.794C199.838 288.947 200.092 289.024 200.456 289.024C200.791 289.024 201.107 288.937 201.404 288.765C201.528 288.89 201.59 289.057 201.59 289.268C201.59 289.497 201.471 289.698 201.231 289.871C200.992 290.043 200.666 290.129 200.255 290.129ZM205.703 290.129C205.215 290.129 204.756 290.057 204.325 289.914C203.894 289.761 203.545 289.545 203.277 289.268C203.018 288.99 202.889 288.665 202.889 288.291C202.889 287.832 203.167 287.583 203.722 287.545C203.818 288.081 204.043 288.478 204.397 288.736C204.761 288.985 205.22 289.11 205.775 289.11C206.33 289.11 206.761 289.028 207.068 288.866C207.374 288.703 207.527 288.454 207.527 288.119C207.527 287.88 207.465 287.688 207.34 287.545C207.216 287.391 207.015 287.262 206.737 287.157C206.469 287.042 206.082 286.932 205.574 286.827C204.942 286.683 204.44 286.53 204.067 286.367C203.693 286.204 203.406 285.989 203.205 285.721C203.014 285.453 202.918 285.099 202.918 284.658C202.918 284.285 203.033 283.95 203.262 283.653C203.492 283.347 203.808 283.112 204.21 282.95C204.622 282.777 205.086 282.691 205.603 282.691C206.082 282.691 206.531 282.758 206.953 282.892C207.383 283.026 207.728 283.218 207.987 283.467C208.255 283.716 208.389 284.003 208.389 284.328C208.389 284.548 208.302 284.725 208.13 284.859C207.958 284.984 207.719 285.056 207.412 285.075C207.383 284.654 207.211 284.323 206.895 284.084C206.589 283.835 206.158 283.711 205.603 283.711C205.143 283.711 204.78 283.797 204.512 283.969C204.244 284.142 204.11 284.371 204.11 284.658C204.11 284.965 204.234 285.195 204.483 285.348C204.741 285.491 205.177 285.63 205.79 285.764C206.795 285.965 207.532 286.243 208.001 286.597C208.48 286.942 208.719 287.435 208.719 288.076C208.719 288.727 208.456 289.234 207.929 289.598C207.403 289.952 206.661 290.129 205.703 290.129Z" fill="white"/>
<path d="M192.674 325.064C192.421 325.064 192.218 324.994 192.065 324.855C191.926 324.715 191.856 324.525 191.856 324.284C191.856 323.307 192.23 322.394 192.979 321.544C193.727 320.695 194.9 319.851 196.498 319.014C197.412 318.532 198.103 318.12 198.572 317.777C199.054 317.422 199.384 317.073 199.562 316.731C199.752 316.376 199.847 315.957 199.847 315.475C199.847 314.727 199.6 314.156 199.105 313.763C198.623 313.37 197.913 313.173 196.974 313.173C195.959 313.173 195.167 313.414 194.596 313.896C194.038 314.378 193.759 315.05 193.759 315.913C193.759 316.141 193.778 316.382 193.816 316.636L193.587 316.655C193.131 316.655 192.744 316.522 192.427 316.255C192.11 315.989 191.951 315.659 191.951 315.266C191.951 314.581 192.173 313.959 192.617 313.401C193.061 312.831 193.664 312.387 194.425 312.07C195.198 311.74 196.048 311.575 196.974 311.575C197.925 311.575 198.756 311.733 199.466 312.051C200.177 312.368 200.722 312.824 201.103 313.42C201.483 314.004 201.673 314.689 201.673 315.475C201.673 316.376 201.344 317.187 200.684 317.91C200.037 318.633 198.94 319.401 197.393 320.213C195.148 321.405 193.962 322.502 193.835 323.504H200.361C200.843 323.504 201.21 323.637 201.464 323.904C201.718 324.17 201.845 324.557 201.845 325.064H192.674Z" fill="white"/>
<rect x="161" y="376" width="71.3462" height="42.1795" rx="6.28205" fill="#434B53"/>
<path d="M181.005 359.581C181.005 359.399 181.067 359.25 181.192 359.135C181.326 359.011 181.493 358.949 181.694 358.949H185.657C186.586 358.949 187.323 359.222 187.869 359.767C188.424 360.303 188.702 361.021 188.702 361.921C188.702 363.051 188.209 363.85 187.223 364.319V364.362C187.653 364.544 187.984 364.822 188.213 365.195C188.443 365.559 188.558 366.004 188.558 366.53V368.009C188.558 368.373 188.443 368.651 188.213 368.842C187.984 369.034 187.649 369.129 187.208 369.129V366.616C187.208 366.052 187.079 365.626 186.821 365.338C186.572 365.042 186.198 364.893 185.701 364.893H182.341V368.009C182.341 368.373 182.226 368.651 181.996 368.842C181.776 369.034 181.445 369.129 181.005 369.129V359.581ZM185.614 363.73C186.141 363.73 186.557 363.568 186.864 363.242C187.179 362.917 187.337 362.471 187.337 361.907C187.337 361.332 187.189 360.892 186.892 360.586C186.596 360.279 186.17 360.126 185.614 360.126H182.341V363.73H185.614ZM193.09 369.129C192.506 369.129 191.984 369.019 191.525 368.799C191.065 368.569 190.706 368.258 190.448 367.866C190.189 367.464 190.06 367.014 190.06 366.516V364.391C190.06 363.883 190.194 363.424 190.462 363.012C190.74 362.601 191.108 362.28 191.568 362.05C192.037 361.811 192.544 361.691 193.09 361.691C193.636 361.691 194.133 361.806 194.583 362.036C195.043 362.266 195.402 362.582 195.66 362.984C195.928 363.386 196.062 363.84 196.062 364.348V365.267C196.062 365.42 196.005 365.549 195.89 365.654C195.775 365.76 195.636 365.812 195.474 365.812H191.281V366.458C191.281 366.947 191.434 367.339 191.74 367.636C192.056 367.933 192.506 368.081 193.09 368.081C193.674 368.081 194.119 367.952 194.425 367.693C194.732 367.435 194.885 367.085 194.885 366.645C195.172 366.626 195.411 366.683 195.603 366.817C195.804 366.942 195.904 367.129 195.904 367.377C195.904 367.684 195.77 367.971 195.502 368.239C195.244 368.507 194.899 368.722 194.468 368.885C194.038 369.048 193.578 369.129 193.09 369.129ZM194.899 364.836V364.348C194.899 363.869 194.732 363.481 194.397 363.185C194.071 362.878 193.636 362.725 193.09 362.725C192.544 362.725 192.104 362.878 191.769 363.185C191.444 363.481 191.281 363.869 191.281 364.348V364.836H194.899ZM197.72 362.711C197.72 362.395 197.816 362.146 198.007 361.964C198.208 361.782 198.51 361.691 198.912 361.691V362.495L198.624 362.869L198.668 362.926C198.964 362.543 199.304 362.242 199.687 362.022C200.07 361.801 200.525 361.691 201.051 361.691C201.874 361.691 202.54 361.921 203.047 362.381C203.554 362.83 203.808 363.434 203.808 364.19V366.645C203.808 367.401 203.545 368.004 203.018 368.454C202.492 368.904 201.807 369.129 200.965 369.129C200.515 369.129 200.099 369.038 199.716 368.856C199.342 368.665 199.012 368.416 198.725 368.11L198.682 368.182C198.749 368.277 198.849 368.383 198.983 368.497V371.025C198.983 371.676 198.562 372.001 197.72 372.001V362.711ZM200.778 368.024C201.343 368.024 201.783 367.899 202.099 367.65C202.415 367.392 202.573 367.038 202.573 366.588V364.247C202.573 363.778 202.415 363.419 202.099 363.17C201.783 362.921 201.338 362.797 200.764 362.797C200.257 362.797 199.831 362.931 199.486 363.199C199.141 363.457 198.969 363.783 198.969 364.175V366.659C198.969 367.042 199.132 367.368 199.457 367.636C199.783 367.894 200.223 368.024 200.778 368.024ZM207.905 369.129C207.417 369.129 206.957 369.057 206.527 368.914C206.096 368.761 205.746 368.545 205.478 368.268C205.22 367.99 205.091 367.665 205.091 367.291C205.091 366.832 205.368 366.583 205.923 366.545C206.019 367.081 206.244 367.478 206.598 367.736C206.962 367.985 207.422 368.11 207.977 368.11C208.532 368.11 208.963 368.028 209.269 367.866C209.575 367.703 209.729 367.454 209.729 367.119C209.729 366.88 209.666 366.688 209.542 366.545C209.417 366.391 209.216 366.262 208.939 366.157C208.671 366.042 208.283 365.932 207.776 365.827C207.144 365.683 206.641 365.53 206.268 365.367C205.895 365.204 205.608 364.989 205.407 364.721C205.215 364.453 205.119 364.099 205.119 363.658C205.119 363.285 205.234 362.95 205.464 362.653C205.694 362.347 206.01 362.112 206.412 361.95C206.823 361.777 207.288 361.691 207.804 361.691C208.283 361.691 208.733 361.758 209.154 361.892C209.585 362.026 209.93 362.218 210.188 362.467C210.456 362.716 210.59 363.003 210.59 363.328C210.59 363.548 210.504 363.725 210.332 363.859C210.159 363.984 209.92 364.056 209.614 364.075C209.585 363.654 209.413 363.323 209.097 363.084C208.79 362.835 208.36 362.711 207.804 362.711C207.345 362.711 206.981 362.797 206.713 362.969C206.445 363.142 206.311 363.371 206.311 363.658C206.311 363.965 206.436 364.195 206.684 364.348C206.943 364.491 207.378 364.63 207.991 364.764C208.996 364.965 209.733 365.243 210.202 365.597C210.681 365.942 210.92 366.435 210.92 367.076C210.92 367.727 210.657 368.234 210.131 368.598C209.604 368.952 208.862 369.129 207.905 369.129Z" fill="white"/>
<path d="M199.581 391.832H193.017C192.585 391.832 192.249 391.699 192.008 391.432C191.78 391.166 191.666 390.779 191.666 390.272H200.912C201.179 390.272 201.388 390.342 201.54 390.481C201.692 390.621 201.769 390.804 201.769 391.033C201.769 391.185 201.737 391.325 201.673 391.451L195.794 403.076C195.566 403.533 195.217 403.761 194.748 403.761C194.355 403.761 194.006 403.653 193.702 403.438L199.581 391.832Z" fill="white"/>
<rect x="161" y="450" width="71.3462" height="42.1795" rx="6.28205" fill="#434B53"/>
<path d="M174.308 444.129C173.963 444.129 173.681 444.048 173.461 443.885C173.24 443.713 173.092 443.474 173.015 443.167L170.646 433.949C170.79 433.863 170.972 433.819 171.192 433.819C171.469 433.819 171.704 433.891 171.895 434.035C172.087 434.169 172.211 434.356 172.269 434.595L173.834 441.401L173.604 442.248L173.69 442.277L176.002 434.265C176.04 434.121 176.112 434.011 176.217 433.934C176.332 433.858 176.466 433.819 176.619 433.819C176.763 433.819 176.892 433.858 177.007 433.934C177.122 434.011 177.199 434.121 177.237 434.265L179.233 441.458L179.032 442.334L179.118 442.363L180.97 434.595C181.028 434.356 181.147 434.169 181.329 434.035C181.521 433.891 181.75 433.819 182.018 433.819C182.239 433.819 182.43 433.863 182.593 433.949L180.224 443.167C180.147 443.474 179.994 443.713 179.764 443.885C179.544 444.048 179.262 444.129 178.917 444.129L176.462 435.442L176.375 435.471L176.562 436.146L174.308 444.129ZM186.189 444.129C185.605 444.129 185.083 444.019 184.624 443.799C184.164 443.569 183.805 443.258 183.547 442.866C183.288 442.464 183.159 442.014 183.159 441.516V439.391C183.159 438.883 183.293 438.424 183.561 438.012C183.839 437.601 184.207 437.28 184.667 437.05C185.136 436.811 185.643 436.691 186.189 436.691C186.735 436.691 187.232 436.806 187.682 437.036C188.142 437.266 188.501 437.582 188.759 437.984C189.027 438.386 189.161 438.84 189.161 439.348V440.267C189.161 440.42 189.104 440.549 188.989 440.654C188.874 440.76 188.735 440.812 188.573 440.812H184.38V441.458C184.38 441.947 184.533 442.339 184.839 442.636C185.155 442.933 185.605 443.081 186.189 443.081C186.773 443.081 187.218 442.952 187.524 442.693C187.831 442.435 187.984 442.085 187.984 441.645C188.271 441.626 188.51 441.683 188.702 441.817C188.903 441.942 189.003 442.129 189.003 442.377C189.003 442.684 188.869 442.971 188.601 443.239C188.343 443.507 187.998 443.722 187.567 443.885C187.137 444.048 186.677 444.129 186.189 444.129ZM187.998 439.836V439.348C187.998 438.869 187.831 438.481 187.496 438.185C187.17 437.878 186.735 437.725 186.189 437.725C185.643 437.725 185.203 437.878 184.868 438.185C184.542 438.481 184.38 438.869 184.38 439.348V439.836H187.998ZM191.767 435.614C191.498 435.614 191.274 435.528 191.092 435.356C190.91 435.184 190.819 434.968 190.819 434.71C190.819 434.451 190.91 434.241 191.092 434.078C191.274 433.906 191.498 433.819 191.767 433.819C192.025 433.819 192.245 433.906 192.427 434.078C192.609 434.241 192.7 434.451 192.7 434.71C192.7 434.968 192.609 435.184 192.427 435.356C192.245 435.528 192.025 435.614 191.767 435.614ZM191.135 437.61C191.135 437.294 191.235 437.065 191.436 436.921C191.647 436.768 191.963 436.691 192.384 436.691V443.21C192.384 443.526 192.279 443.761 192.068 443.914C191.867 444.057 191.556 444.129 191.135 444.129V437.61ZM197.575 447.001C197.077 447.001 196.612 446.92 196.182 446.757C195.751 446.594 195.411 446.374 195.162 446.096C194.913 445.828 194.789 445.536 194.789 445.221C194.789 444.972 194.87 444.79 195.033 444.675C195.205 444.56 195.435 444.503 195.722 444.503C195.741 444.952 195.914 445.307 196.239 445.565C196.574 445.833 197.019 445.967 197.575 445.967C198.8 445.967 199.412 445.374 199.412 444.187V443.354C199.546 443.239 199.647 443.134 199.714 443.038L199.671 442.966C199.393 443.263 199.044 443.507 198.623 443.698C198.211 443.89 197.795 443.986 197.373 443.986C196.55 443.986 195.875 443.761 195.349 443.311C194.832 442.851 194.573 442.248 194.573 441.502V439.19C194.573 438.702 194.693 438.271 194.932 437.897C195.181 437.515 195.516 437.218 195.938 437.007C196.368 436.797 196.842 436.691 197.359 436.691C198.297 436.691 199.082 437.103 199.714 437.926L199.771 437.869L199.484 437.51C199.484 437.242 199.575 437.041 199.757 436.907C199.949 436.763 200.255 436.691 200.676 436.691V444.057C200.676 444.632 200.542 445.139 200.274 445.579C200.016 446.029 199.652 446.379 199.183 446.628C198.714 446.877 198.178 447.001 197.575 447.001ZM197.603 442.894C198.111 442.894 198.541 442.76 198.896 442.492C199.25 442.215 199.427 441.889 199.427 441.516V439.175C199.427 438.783 199.25 438.453 198.896 438.185C198.551 437.917 198.13 437.783 197.632 437.783C197.058 437.783 196.612 437.912 196.297 438.17C195.981 438.419 195.823 438.778 195.823 439.247V441.444C195.823 441.894 195.976 442.248 196.282 442.507C196.598 442.765 197.038 442.894 197.603 442.894ZM202.682 434.882C202.682 434.537 202.787 434.274 202.998 434.092C203.208 433.91 203.519 433.819 203.931 433.819V437.596C203.797 437.749 203.692 437.883 203.615 437.998L203.673 438.055C203.969 437.653 204.343 437.328 204.793 437.079C205.242 436.821 205.731 436.691 206.257 436.691C207.033 436.691 207.645 436.921 208.095 437.381C208.545 437.84 208.77 438.434 208.77 439.161V443.21C208.77 443.526 208.665 443.761 208.454 443.914C208.253 444.057 207.942 444.129 207.521 444.129V439.29C207.521 438.831 207.392 438.467 207.133 438.199C206.875 437.931 206.482 437.797 205.956 437.797C205.601 437.797 205.266 437.874 204.951 438.027C204.644 438.17 204.395 438.371 204.204 438.63C204.022 438.879 203.931 439.151 203.931 439.448V443.21C203.931 443.526 203.826 443.761 203.615 443.914C203.414 444.057 203.103 444.129 202.682 444.129V434.882ZM213.49 444.129C212.81 444.129 212.303 443.938 211.968 443.555C211.633 443.162 211.465 442.65 211.465 442.018V437.826H210.13C210.13 437.5 210.202 437.251 210.345 437.079C210.489 436.907 210.685 436.821 210.934 436.821H211.48V435.456C211.48 435.141 211.58 434.911 211.781 434.767C211.992 434.614 212.303 434.537 212.715 434.537V436.821H214.624C214.624 437.491 214.323 437.826 213.72 437.826H212.729V441.975C212.729 442.358 212.796 442.631 212.93 442.794C213.074 442.947 213.327 443.024 213.691 443.024C214.026 443.024 214.342 442.937 214.639 442.765C214.763 442.89 214.825 443.057 214.825 443.268C214.825 443.497 214.706 443.698 214.466 443.871C214.227 444.043 213.902 444.129 213.49 444.129Z" fill="white"/>
<path d="M292.125 317.458C292.125 309.759 292.125 305.909 294.517 303.517C296.909 301.125 300.759 301.125 308.458 301.125H312.542C320.241 301.125 324.091 301.125 326.483 303.517C328.875 305.909 328.875 309.759 328.875 317.458V321.542C328.875 329.241 328.875 333.091 326.483 335.483C324.091 337.875 320.241 337.875 312.542 337.875H308.458C300.759 337.875 296.909 337.875 294.517 335.483C292.125 333.091 292.125 329.241 292.125 321.542V317.458Z" stroke="#B8F14A" stroke-width="4.08332"/>
<path d="M310.5 311.333L310.5 327.667" stroke="#B8F14A" stroke-width="4.08332" stroke-linecap="square" stroke-linejoin="round"/>
<path d="M318.667 319.5L302.333 319.5" stroke="#B8F14A" stroke-width="4.08332" stroke-linecap="square" stroke-linejoin="round"/>
<path d="M292.125 387.458C292.125 379.759 292.125 375.909 294.517 373.517C296.909 371.125 300.759 371.125 308.458 371.125H312.542C320.241 371.125 324.091 371.125 326.483 373.517C328.875 375.909 328.875 379.759 328.875 387.458V391.542C328.875 399.241 328.875 403.091 326.483 405.483C324.091 407.875 320.241 407.875 312.542 407.875H308.458C300.759 407.875 296.909 407.875 294.517 405.483C292.125 403.091 292.125 399.241 292.125 391.541V387.458Z" stroke="#B8F14A" stroke-width="4.08332"/>
<path d="M310.5 381.333L310.5 397.666" stroke="#B8F14A" stroke-width="4.08332" stroke-linecap="square" stroke-linejoin="round"/>
<path d="M318.667 389.5L302.333 389.5" stroke="#B8F14A" stroke-width="4.08332" stroke-linecap="square" stroke-linejoin="round"/>
<path d="M292.125 457.458C292.125 449.758 292.125 445.909 294.517 443.517C296.909 441.125 300.759 441.125 308.458 441.125H312.542C320.241 441.125 324.091 441.125 326.483 443.517C328.875 445.909 328.875 449.758 328.875 457.458V461.541C328.875 469.241 328.875 473.091 326.483 475.483C324.091 477.875 320.241 477.875 312.542 477.875H308.458C300.759 477.875 296.909 477.875 294.517 475.483C292.125 473.091 292.125 469.241 292.125 461.541V457.458Z" stroke="#B8F14A" stroke-width="4.08332"/>
<path d="M310.5 451.333L310.5 467.666" stroke="#B8F14A" stroke-width="4.08332" stroke-linecap="square" stroke-linejoin="round"/>
<path d="M318.667 459.5L302.333 459.5" stroke="#B8F14A" stroke-width="4.08332" stroke-linecap="square" stroke-linejoin="round"/>
<circle cx="82.4999" cy="322.5" r="18.3749" stroke="#B8F14A" stroke-width="4.08331"/>
<path d="M73.6382 321.979H92.0131" stroke="#B8F14A" stroke-width="4.08331"/>
<circle cx="82.4999" cy="392.5" r="18.3749" stroke="#B8F14A" stroke-width="4.08331"/>
<path d="M73.6382 391.978H92.0131" stroke="#B8F14A" stroke-width="4.08331"/>
<circle cx="82.4999" cy="462.499" r="18.3749" stroke="#B8F14A" stroke-width="4.08331"/>
<path d="M73.6382 461.978H92.0131" stroke="#B8F14A" stroke-width="4.08331"/>
<path d="M180.674 478.974C180.421 478.974 180.218 478.904 180.065 478.765C179.926 478.625 179.856 478.435 179.856 478.194C179.856 477.217 180.23 476.304 180.979 475.454C181.727 474.605 182.9 473.761 184.498 472.924C185.412 472.442 186.103 472.03 186.572 471.687C187.054 471.332 187.384 470.983 187.562 470.641C187.752 470.286 187.847 469.867 187.847 469.385C187.847 468.637 187.6 468.066 187.105 467.673C186.623 467.28 185.913 467.083 184.974 467.083C183.959 467.083 183.167 467.324 182.596 467.806C182.038 468.288 181.759 468.96 181.759 469.823C181.759 470.051 181.778 470.292 181.816 470.546L181.587 470.565C181.131 470.565 180.744 470.432 180.427 470.165C180.11 469.899 179.951 469.569 179.951 469.176C179.951 468.491 180.173 467.87 180.617 467.311C181.061 466.741 181.664 466.297 182.425 465.98C183.198 465.65 184.048 465.485 184.974 465.485C185.925 465.485 186.756 465.644 187.466 465.961C188.177 466.278 188.722 466.734 189.103 467.33C189.483 467.914 189.673 468.599 189.673 469.385C189.673 470.286 189.344 471.098 188.684 471.821C188.037 472.544 186.94 473.311 185.393 474.123C183.148 475.315 181.962 476.412 181.835 477.414H188.361C188.843 477.414 189.21 477.547 189.464 477.814C189.718 478.08 189.845 478.467 189.845 478.974H180.674ZM192.379 478.974C192.126 478.974 191.923 478.904 191.771 478.765C191.631 478.625 191.561 478.435 191.561 478.194C191.561 477.217 191.936 476.304 192.684 475.454C193.432 474.605 194.605 473.761 196.204 472.924C197.117 472.442 197.808 472.03 198.277 471.687C198.759 471.332 199.089 470.983 199.267 470.641C199.457 470.286 199.552 469.867 199.552 469.385C199.552 468.637 199.305 468.066 198.81 467.673C198.328 467.28 197.618 467.083 196.679 467.083C195.665 467.083 194.872 467.324 194.301 467.806C193.743 468.288 193.464 468.96 193.464 469.823C193.464 470.051 193.483 470.292 193.521 470.546L193.293 470.565C192.836 470.565 192.449 470.432 192.132 470.165C191.815 469.899 191.657 469.569 191.657 469.176C191.657 468.491 191.878 467.87 192.322 467.311C192.766 466.741 193.369 466.297 194.13 465.98C194.904 465.65 195.753 465.485 196.679 465.485C197.631 465.485 198.461 465.644 199.172 465.961C199.882 466.278 200.427 466.734 200.808 467.33C201.188 467.914 201.379 468.599 201.379 469.385C201.379 470.286 201.049 471.098 200.389 471.821C199.742 472.544 198.645 473.311 197.098 474.123C194.853 475.315 193.667 476.412 193.54 477.414H200.066C200.548 477.414 200.916 477.547 201.169 477.814C201.423 478.08 201.55 478.467 201.55 478.974H192.379ZM208.194 479.145C207.256 479.145 206.412 478.993 205.664 478.689C204.915 478.384 204.326 477.959 203.894 477.414C203.476 476.869 203.267 476.26 203.267 475.588C203.267 475.093 203.4 474.738 203.666 474.522C203.945 474.307 204.376 474.218 204.96 474.256C204.935 474.586 204.922 474.801 204.922 474.903C204.922 475.74 205.207 476.393 205.778 476.862C206.349 477.332 207.154 477.566 208.194 477.566C209.234 477.566 210.04 477.275 210.611 476.691C211.194 476.108 211.486 475.29 211.486 474.237C211.486 473.171 211.2 472.366 210.63 471.821C210.071 471.262 209.253 470.983 208.175 470.983C207.604 470.983 207.072 471.072 206.577 471.25C206.095 471.427 205.677 471.687 205.321 472.03C205.118 472.233 204.884 472.334 204.617 472.334C204.351 472.334 204.123 472.239 203.933 472.049C203.742 471.859 203.672 471.624 203.723 471.345L204.503 466.303C204.529 466.1 204.624 465.942 204.789 465.827C204.954 465.713 205.163 465.656 205.417 465.656H212.608C212.608 466.696 212.152 467.216 211.238 467.216H205.93L205.512 470.032C205.245 470.222 205.017 470.413 204.827 470.603L204.884 470.698C205.378 470.305 205.943 470 206.577 469.785C207.224 469.556 207.858 469.442 208.48 469.442C209.976 469.442 211.143 469.867 211.98 470.717C212.817 471.554 213.236 472.727 213.236 474.237C213.236 475.226 213.027 476.095 212.608 476.843C212.202 477.579 211.619 478.15 210.858 478.556C210.097 478.949 209.209 479.145 208.194 479.145Z" fill="white"/>
<path d="M145.856 259C145.536 259 145.256 258.888 145.016 258.664C144.792 258.424 144.68 258.144 144.68 257.824V243.856C144.68 242.608 145.432 241.984 146.936 241.984V257.008H154.304C154.864 257.008 155.296 257.184 155.6 257.536C155.904 257.872 156.056 258.36 156.056 259H145.856ZM162.324 259.216C161.348 259.216 160.476 259.032 159.708 258.664C158.94 258.28 158.34 257.76 157.908 257.104C157.476 256.432 157.26 255.68 157.26 254.848V251.296C157.26 250.448 157.484 249.68 157.932 248.992C158.396 248.304 159.012 247.768 159.78 247.384C160.564 246.984 161.412 246.784 162.324 246.784C163.236 246.784 164.068 246.976 164.82 247.36C165.588 247.744 166.188 248.272 166.62 248.944C167.068 249.616 167.292 250.376 167.292 251.224V252.76C167.292 253.016 167.196 253.232 167.004 253.408C166.812 253.584 166.58 253.672 166.308 253.672H159.3V254.752C159.3 255.568 159.556 256.224 160.068 256.72C160.596 257.216 161.348 257.464 162.324 257.464C163.3 257.464 164.044 257.248 164.556 256.816C165.068 256.384 165.324 255.8 165.324 255.064C165.804 255.032 166.204 255.128 166.524 255.352C166.86 255.56 167.028 255.872 167.028 256.288C167.028 256.8 166.804 257.28 166.356 257.728C165.924 258.176 165.348 258.536 164.628 258.808C163.908 259.08 163.14 259.216 162.324 259.216ZM165.348 252.04V251.224C165.348 250.424 165.068 249.776 164.508 249.28C163.964 248.768 163.236 248.512 162.324 248.512C161.412 248.512 160.676 248.768 160.116 249.28C159.572 249.776 159.3 250.424 159.3 251.224V252.04H165.348ZM174.839 264.016C174.007 264.016 173.231 263.88 172.511 263.608C171.791 263.336 171.223 262.968 170.807 262.504C170.391 262.056 170.183 261.568 170.183 261.04C170.183 260.624 170.319 260.32 170.591 260.128C170.879 259.936 171.263 259.84 171.743 259.84C171.775 260.592 172.063 261.184 172.607 261.616C173.167 262.064 173.911 262.288 174.839 262.288C176.887 262.288 177.911 261.296 177.911 259.312V257.92C178.135 257.728 178.303 257.552 178.415 257.392L178.343 257.272C177.879 257.768 177.295 258.176 176.591 258.496C175.903 258.816 175.207 258.976 174.503 258.976C173.127 258.976 171.999 258.6 171.119 257.848C170.255 257.08 169.823 256.072 169.823 254.824V250.96C169.823 250.144 170.023 249.424 170.423 248.8C170.839 248.16 171.399 247.664 172.103 247.312C172.823 246.96 173.615 246.784 174.479 246.784C176.047 246.784 177.359 247.472 178.415 248.848L178.511 248.752L178.031 248.152C178.031 247.704 178.183 247.368 178.487 247.144C178.807 246.904 179.319 246.784 180.023 246.784V259.096C180.023 260.056 179.799 260.904 179.351 261.64C178.919 262.392 178.311 262.976 177.527 263.392C176.743 263.808 175.847 264.016 174.839 264.016ZM174.887 257.152C175.735 257.152 176.455 256.928 177.047 256.48C177.639 256.016 177.935 255.472 177.935 254.848V250.936C177.935 250.28 177.639 249.728 177.047 249.28C176.471 248.832 175.767 248.608 174.935 248.608C173.975 248.608 173.231 248.824 172.703 249.256C172.175 249.672 171.911 250.272 171.911 251.056V254.728C171.911 255.48 172.167 256.072 172.679 256.504C173.207 256.936 173.943 257.152 174.887 257.152ZM189.563 243.256C189.563 242.952 189.667 242.704 189.875 242.512C190.099 242.304 190.379 242.2 190.715 242.2H197.723C198.779 242.2 199.715 242.424 200.531 242.872C201.347 243.304 201.979 243.92 202.427 244.72C202.875 245.504 203.099 246.408 203.099 247.432C203.099 248.488 202.875 249.416 202.427 250.216C201.995 251.016 201.371 251.632 200.555 252.064C199.739 252.496 198.795 252.712 197.723 252.712H191.819V257.344C191.819 257.952 191.627 258.416 191.243 258.736C190.859 259.056 190.299 259.216 189.563 259.216V243.256ZM197.723 250.72C198.683 250.72 199.443 250.432 200.003 249.856C200.563 249.264 200.843 248.456 200.843 247.432C200.843 246.44 200.555 245.656 199.979 245.08C199.419 244.488 198.667 244.192 197.723 244.192H191.819V250.72H197.723ZM210.216 248.632C209.32 248.632 208.576 248.904 207.984 249.448C207.392 249.976 207.096 250.624 207.096 251.392V257.68C207.096 258.208 206.92 258.6 206.568 258.856C206.232 259.096 205.712 259.216 205.008 259.216V248.56C205.008 247.376 205.68 246.784 207.024 246.784V248.248C206.768 248.52 206.592 248.76 206.496 248.968L206.592 249.064C207.616 247.544 208.896 246.784 210.432 246.784C211.008 246.784 211.448 246.928 211.752 247.216C212.056 247.488 212.208 247.824 212.208 248.224C212.208 248.512 212.136 248.768 211.992 248.992C211.544 248.752 210.952 248.632 210.216 248.632ZM218.481 259.216C217.505 259.216 216.633 259.032 215.865 258.664C215.097 258.28 214.497 257.76 214.065 257.104C213.633 256.432 213.417 255.68 213.417 254.848V251.296C213.417 250.448 213.641 249.68 214.089 248.992C214.553 248.304 215.169 247.768 215.937 247.384C216.721 246.984 217.569 246.784 218.481 246.784C219.393 246.784 220.225 246.976 220.977 247.36C221.745 247.744 222.345 248.272 222.777 248.944C223.225 249.616 223.449 250.376 223.449 251.224V252.76C223.449 253.016 223.353 253.232 223.161 253.408C222.969 253.584 222.737 253.672 222.465 253.672H215.457V254.752C215.457 255.568 215.713 256.224 216.225 256.72C216.753 257.216 217.505 257.464 218.481 257.464C219.457 257.464 220.201 257.248 220.713 256.816C221.225 256.384 221.481 255.8 221.481 255.064C221.961 255.032 222.361 255.128 222.681 255.352C223.017 255.56 223.185 255.872 223.185 256.288C223.185 256.8 222.961 257.28 222.513 257.728C222.081 258.176 221.505 258.536 220.785 258.808C220.065 259.08 219.297 259.216 218.481 259.216ZM221.505 252.04V251.224C221.505 250.424 221.225 249.776 220.665 249.28C220.121 248.768 219.393 248.512 218.481 248.512C217.569 248.512 216.833 248.768 216.273 249.28C215.729 249.776 215.457 250.424 215.457 251.224V252.04H221.505ZM230.563 259.216C229.747 259.216 228.979 259.096 228.259 258.856C227.539 258.6 226.955 258.24 226.507 257.776C226.075 257.312 225.859 256.768 225.859 256.144C225.859 255.376 226.323 254.96 227.251 254.896C227.411 255.792 227.787 256.456 228.379 256.888C228.987 257.304 229.755 257.512 230.683 257.512C231.611 257.512 232.331 257.376 232.843 257.104C233.355 256.832 233.611 256.416 233.611 255.856C233.611 255.456 233.507 255.136 233.299 254.896C233.091 254.64 232.755 254.424 232.291 254.248C231.843 254.056 231.195 253.872 230.347 253.696C229.291 253.456 228.451 253.2 227.827 252.928C227.203 252.656 226.723 252.296 226.387 251.848C226.067 251.4 225.907 250.808 225.907 250.072C225.907 249.448 226.099 248.888 226.483 248.392C226.867 247.88 227.395 247.488 228.067 247.216C228.755 246.928 229.531 246.784 230.395 246.784C231.195 246.784 231.947 246.896 232.651 247.12C233.371 247.344 233.947 247.664 234.379 248.08C234.827 248.496 235.051 248.976 235.051 249.52C235.051 249.888 234.907 250.184 234.619 250.408C234.331 250.616 233.931 250.736 233.419 250.768C233.371 250.064 233.083 249.512 232.555 249.112C232.043 248.696 231.323 248.488 230.395 248.488C229.627 248.488 229.019 248.632 228.571 248.92C228.123 249.208 227.899 249.592 227.899 250.072C227.899 250.584 228.107 250.968 228.523 251.224C228.955 251.464 229.683 251.696 230.707 251.92C232.387 252.256 233.619 252.72 234.403 253.312C235.203 253.888 235.603 254.712 235.603 255.784C235.603 256.872 235.163 257.72 234.283 258.328C233.403 258.92 232.163 259.216 230.563 259.216ZM242.704 259.216C241.888 259.216 241.12 259.096 240.4 258.856C239.68 258.6 239.096 258.24 238.648 257.776C238.216 257.312 238 256.768 238 256.144C238 255.376 238.464 254.96 239.392 254.896C239.552 255.792 239.928 256.456 240.52 256.888C241.128 257.304 241.896 257.512 242.824 257.512C243.752 257.512 244.472 257.376 244.984 257.104C245.496 256.832 245.752 256.416 245.752 255.856C245.752 255.456 245.648 255.136 245.44 254.896C245.232 254.64 244.896 254.424 244.432 254.248C243.984 254.056 243.336 253.872 242.488 253.696C241.432 253.456 240.592 253.2 239.968 252.928C239.344 252.656 238.864 252.296 238.528 251.848C238.208 251.4 238.048 250.808 238.048 250.072C238.048 249.448 238.24 248.888 238.624 248.392C239.008 247.88 239.536 247.488 240.208 247.216C240.896 246.928 241.672 246.784 242.536 246.784C243.336 246.784 244.088 246.896 244.792 247.12C245.512 247.344 246.088 247.664 246.52 248.08C246.968 248.496 247.192 248.976 247.192 249.52C247.192 249.888 247.048 250.184 246.76 250.408C246.472 250.616 246.072 250.736 245.56 250.768C245.512 250.064 245.224 249.512 244.696 249.112C244.184 248.696 243.464 248.488 242.536 248.488C241.768 248.488 241.16 248.632 240.712 248.92C240.264 249.208 240.04 249.592 240.04 250.072C240.04 250.584 240.248 250.968 240.664 251.224C241.096 251.464 241.824 251.696 242.848 251.92C244.528 252.256 245.76 252.72 246.544 253.312C247.344 253.888 247.744 254.712 247.744 255.784C247.744 256.872 247.304 257.72 246.424 258.328C245.544 258.92 244.304 259.216 242.704 259.216Z" fill="white"/>
<rect x="15" y="550" width="362.192" height="94.5851" rx="24.223" fill="black"/>
<path fill-rule="evenodd" clip-rule="evenodd" d="M71.5 612.125C77.9203 612.125 83.125 606.92 83.125 600.5C83.125 594.08 77.9203 588.875 71.5 588.875C65.0797 588.875 59.875 594.08 59.875 600.5C59.875 606.92 65.0797 612.125 71.5 612.125ZM65.0417 601.792H77.9583V599.208H65.0417V601.792Z" fill="#FF4E4E"/>
<rect x="13" y="550" width="362.192" height="94.5851" rx="24.223" fill="black"/>
<path fill-rule="evenodd" clip-rule="evenodd" d="M66.5 592.125C72.9203 592.125 78.125 586.92 78.125 580.5C78.125 574.08 72.9203 568.875 66.5 568.875C60.0797 568.875 54.875 574.08 54.875 580.5C54.875 586.92 60.0797 592.125 66.5 592.125ZM60.0417 581.792H72.9583V579.208H60.0417V581.792Z" fill="#FF4E4E"/>
<path d="M69.76 626.162C68.752 626.162 67.876 626.018 67.132 625.73C66.4 625.442 65.842 625.058 65.458 624.578C65.074 624.098 64.882 623.582 64.882 623.03C64.882 622.574 65.002 622.226 65.242 621.986C65.482 621.734 65.848 621.608 66.34 621.608C66.34 622.628 66.646 623.408 67.258 623.948C67.87 624.476 68.728 624.74 69.832 624.74C70.888 624.74 71.698 624.566 72.262 624.218C72.826 623.858 73.108 623.33 73.108 622.634C73.108 622.214 73 621.872 72.784 621.608C72.58 621.332 72.226 621.098 71.722 620.906C71.23 620.702 70.516 620.498 69.58 620.294C68.476 620.054 67.6 619.778 66.952 619.466C66.304 619.142 65.83 618.752 65.53 618.296C65.23 617.84 65.08 617.276 65.08 616.604C65.08 615.932 65.266 615.344 65.638 614.84C66.022 614.324 66.562 613.928 67.258 613.652C67.954 613.376 68.764 613.238 69.688 613.238C70.564 613.238 71.344 613.364 72.028 613.616C72.724 613.856 73.264 614.204 73.648 614.66C74.044 615.104 74.242 615.608 74.242 616.172C74.242 616.52 74.128 616.796 73.9 617C73.684 617.192 73.342 617.288 72.874 617.288C72.742 616.376 72.418 615.71 71.902 615.29C71.398 614.87 70.66 614.66 69.688 614.66C68.752 614.66 68.032 614.828 67.528 615.164C67.024 615.488 66.772 615.95 66.772 616.55C66.772 616.97 66.862 617.318 67.042 617.594C67.234 617.858 67.552 618.086 67.996 618.278C68.452 618.47 69.088 618.656 69.904 618.836C71.128 619.1 72.088 619.394 72.784 619.718C73.492 620.042 74.002 620.438 74.314 620.906C74.626 621.374 74.782 621.95 74.782 622.634C74.782 623.726 74.326 624.59 73.414 625.226C72.502 625.85 71.284 626.162 69.76 626.162ZM80.462 626.162C79.73 626.162 79.076 626.024 78.5 625.748C77.924 625.46 77.474 625.07 77.15 624.578C76.826 624.074 76.664 623.51 76.664 622.886V620.222C76.664 619.586 76.832 619.01 77.168 618.494C77.516 617.978 77.978 617.576 78.554 617.288C79.142 616.988 79.778 616.838 80.462 616.838C81.146 616.838 81.77 616.982 82.334 617.27C82.91 617.558 83.36 617.954 83.684 618.458C84.02 618.962 84.188 619.532 84.188 620.168V621.32C84.188 621.512 84.116 621.674 83.972 621.806C83.828 621.938 83.654 622.004 83.45 622.004H78.194V622.814C78.194 623.426 78.386 623.918 78.77 624.29C79.166 624.662 79.73 624.848 80.462 624.848C81.194 624.848 81.752 624.686 82.136 624.362C82.52 624.038 82.712 623.6 82.712 623.048C83.072 623.024 83.372 623.096 83.612 623.264C83.864 623.42 83.99 623.654 83.99 623.966C83.99 624.35 83.822 624.71 83.486 625.046C83.162 625.382 82.73 625.652 82.19 625.856C81.65 626.06 81.074 626.162 80.462 626.162ZM82.73 620.78V620.168C82.73 619.568 82.52 619.082 82.1 618.71C81.692 618.326 81.146 618.134 80.462 618.134C79.778 618.134 79.226 618.326 78.806 618.71C78.398 619.082 78.194 619.568 78.194 620.168V620.78H82.73ZM89.3908 626.162C88.5388 626.162 87.9028 625.922 87.4828 625.442C87.0628 624.95 86.8528 624.308 86.8528 623.516V618.26H85.1788C85.1788 617.852 85.2688 617.54 85.4488 617.324C85.6288 617.108 85.8748 617 86.1868 617H86.8708V615.29C86.8708 614.894 86.9968 614.606 87.2488 614.426C87.5128 614.234 87.9028 614.138 88.4188 614.138V617H90.8128C90.8128 617.84 90.4348 618.26 89.6788 618.26H88.4368V623.462C88.4368 623.942 88.5208 624.284 88.6888 624.488C88.8688 624.68 89.1868 624.776 89.6428 624.776C90.0628 624.776 90.4588 624.668 90.8308 624.452C90.9868 624.608 91.0648 624.818 91.0648 625.082C91.0648 625.37 90.9148 625.622 90.6148 625.838C90.3148 626.054 89.9068 626.162 89.3908 626.162ZM96.2211 626.162C95.6091 626.162 95.0331 626.072 94.4931 625.892C93.9531 625.7 93.5151 625.43 93.1791 625.082C92.8551 624.734 92.6931 624.326 92.6931 623.858C92.6931 623.282 93.0411 622.97 93.7371 622.922C93.8571 623.594 94.1391 624.092 94.5831 624.416C95.0391 624.728 95.6151 624.884 96.3111 624.884C97.0071 624.884 97.5471 624.782 97.9311 624.578C98.3151 624.374 98.5071 624.062 98.5071 623.642C98.5071 623.342 98.4291 623.102 98.2731 622.922C98.1171 622.73 97.8651 622.568 97.5171 622.436C97.1811 622.292 96.6951 622.154 96.0591 622.022C95.2671 621.842 94.6371 621.65 94.1691 621.446C93.7011 621.242 93.3411 620.972 93.0891 620.636C92.8491 620.3 92.7291 619.856 92.7291 619.304C92.7291 618.836 92.8731 618.416 93.1611 618.044C93.4491 617.66 93.8451 617.366 94.3491 617.162C94.8651 616.946 95.4471 616.838 96.0951 616.838C96.6951 616.838 97.2591 616.922 97.7871 617.09C98.3271 617.258 98.7591 617.498 99.0831 617.81C99.4191 618.122 99.5871 618.482 99.5871 618.89C99.5871 619.166 99.4791 619.388 99.2631 619.556C99.0471 619.712 98.7471 619.802 98.3631 619.826C98.3271 619.298 98.1111 618.884 97.7151 618.584C97.3311 618.272 96.7911 618.116 96.0951 618.116C95.5191 618.116 95.0631 618.224 94.7271 618.44C94.3911 618.656 94.2231 618.944 94.2231 619.304C94.2231 619.688 94.3791 619.976 94.6911 620.168C95.0151 620.348 95.5611 620.522 96.3291 620.69C97.5891 620.942 98.5131 621.29 99.1011 621.734C99.7011 622.166 100.001 622.784 100.001 623.588C100.001 624.404 99.6711 625.04 99.0111 625.496C98.3511 625.94 97.4211 626.162 96.2211 626.162ZM102.897 619.61C102.537 619.61 102.231 619.49 101.979 619.25C101.739 619.01 101.619 618.704 101.619 618.332C101.619 617.984 101.739 617.684 101.979 617.432C102.231 617.18 102.537 617.054 102.897 617.054C103.257 617.054 103.563 617.18 103.815 617.432C104.079 617.684 104.211 617.984 104.211 618.332C104.211 618.692 104.079 618.998 103.815 619.25C103.563 619.49 103.257 619.61 102.897 619.61ZM102.897 626.162C102.537 626.162 102.231 626.042 101.979 625.802C101.739 625.562 101.619 625.256 101.619 624.884C101.619 624.524 101.739 624.224 101.979 623.984C102.231 623.732 102.537 623.606 102.897 623.606C103.257 623.606 103.563 623.732 103.815 623.984C104.079 624.224 104.211 624.524 104.211 624.884C104.211 625.244 104.079 625.55 103.815 625.802C103.563 626.042 103.257 626.162 102.897 626.162ZM112.638 614.876H111.576C111.168 614.876 110.85 614.744 110.622 614.48C110.406 614.216 110.298 613.856 110.298 613.4H113.538C113.766 613.4 113.952 613.478 114.096 613.634C114.252 613.778 114.33 613.952 114.33 614.156V624.758C114.33 625.214 114.186 625.562 113.898 625.802C113.61 626.042 113.19 626.162 112.638 626.162V614.876ZM140.055 614.192C140.055 613.964 140.133 613.778 140.289 613.634C140.457 613.478 140.667 613.4 140.919 613.4H145.887C147.051 613.4 147.975 613.742 148.659 614.426C149.355 615.098 149.703 615.998 149.703 617.126C149.703 618.542 149.085 619.544 147.849 620.132V620.186C148.389 620.414 148.803 620.762 149.091 621.23C149.379 621.686 149.523 622.244 149.523 622.904V624.758C149.523 625.214 149.379 625.562 149.091 625.802C148.803 626.042 148.383 626.162 147.831 626.162V623.012C147.831 622.304 147.669 621.77 147.345 621.41C147.033 621.038 146.565 620.852 145.941 620.852H141.729V624.758C141.729 625.214 141.585 625.562 141.297 625.802C141.021 626.042 140.607 626.162 140.055 626.162V614.192ZM145.833 619.394C146.493 619.394 147.015 619.19 147.399 618.782C147.795 618.374 147.993 617.816 147.993 617.108C147.993 616.388 147.807 615.836 147.435 615.452C147.063 615.068 146.529 614.876 145.833 614.876H141.729V619.394H145.833ZM155.204 626.162C154.472 626.162 153.818 626.024 153.242 625.748C152.666 625.46 152.216 625.07 151.892 624.578C151.568 624.074 151.406 623.51 151.406 622.886V620.222C151.406 619.586 151.574 619.01 151.91 618.494C152.258 617.978 152.72 617.576 153.296 617.288C153.884 616.988 154.52 616.838 155.204 616.838C155.888 616.838 156.512 616.982 157.076 617.27C157.652 617.558 158.102 617.954 158.426 618.458C158.762 618.962 158.93 619.532 158.93 620.168V621.32C158.93 621.512 158.858 621.674 158.714 621.806C158.57 621.938 158.396 622.004 158.192 622.004H152.936V622.814C152.936 623.426 153.128 623.918 153.512 624.29C153.908 624.662 154.472 624.848 155.204 624.848C155.936 624.848 156.494 624.686 156.878 624.362C157.262 624.038 157.454 623.6 157.454 623.048C157.814 623.024 158.114 623.096 158.354 623.264C158.606 623.42 158.732 623.654 158.732 623.966C158.732 624.35 158.564 624.71 158.228 625.046C157.904 625.382 157.472 625.652 156.932 625.856C156.392 626.06 155.816 626.162 155.204 626.162ZM157.472 620.78V620.168C157.472 619.568 157.262 619.082 156.842 618.71C156.434 618.326 155.888 618.134 155.204 618.134C154.52 618.134 153.968 618.326 153.548 618.71C153.14 619.082 152.936 619.568 152.936 620.168V620.78H157.472ZM161.008 618.116C161.008 617.72 161.128 617.408 161.368 617.18C161.62 616.952 161.998 616.838 162.502 616.838V617.846L162.142 618.314L162.196 618.386C162.568 617.906 162.994 617.528 163.474 617.252C163.954 616.976 164.524 616.838 165.184 616.838C166.216 616.838 167.05 617.126 167.686 617.702C168.322 618.266 168.64 619.022 168.64 619.97V623.048C168.64 623.996 168.31 624.752 167.65 625.316C166.99 625.88 166.132 626.162 165.076 626.162C164.512 626.162 163.99 626.048 163.51 625.82C163.042 625.58 162.628 625.268 162.268 624.884L162.214 624.974C162.298 625.094 162.424 625.226 162.592 625.37V628.538C162.592 629.354 162.064 629.762 161.008 629.762V618.116ZM164.842 624.776C165.55 624.776 166.102 624.62 166.498 624.308C166.894 623.984 167.092 623.54 167.092 622.976V620.042C167.092 619.454 166.894 619.004 166.498 618.692C166.102 618.38 165.544 618.224 164.824 618.224C164.188 618.224 163.654 618.392 163.222 618.728C162.79 619.052 162.574 619.46 162.574 619.952V623.066C162.574 623.546 162.778 623.954 163.186 624.29C163.594 624.614 164.146 624.776 164.842 624.776ZM173.776 626.162C173.164 626.162 172.588 626.072 172.048 625.892C171.508 625.7 171.07 625.43 170.734 625.082C170.41 624.734 170.248 624.326 170.248 623.858C170.248 623.282 170.596 622.97 171.292 622.922C171.412 623.594 171.694 624.092 172.138 624.416C172.594 624.728 173.17 624.884 173.866 624.884C174.562 624.884 175.102 624.782 175.486 624.578C175.87 624.374 176.062 624.062 176.062 623.642C176.062 623.342 175.984 623.102 175.828 622.922C175.672 622.73 175.42 622.568 175.072 622.436C174.736 622.292 174.25 622.154 173.614 622.022C172.822 621.842 172.192 621.65 171.724 621.446C171.256 621.242 170.896 620.972 170.644 620.636C170.404 620.3 170.284 619.856 170.284 619.304C170.284 618.836 170.428 618.416 170.716 618.044C171.004 617.66 171.4 617.366 171.904 617.162C172.42 616.946 173.002 616.838 173.65 616.838C174.25 616.838 174.814 616.922 175.342 617.09C175.882 617.258 176.314 617.498 176.638 617.81C176.974 618.122 177.142 618.482 177.142 618.89C177.142 619.166 177.034 619.388 176.818 619.556C176.602 619.712 176.302 619.802 175.918 619.826C175.882 619.298 175.666 618.884 175.27 618.584C174.886 618.272 174.346 618.116 173.65 618.116C173.074 618.116 172.618 618.224 172.282 618.44C171.946 618.656 171.778 618.944 171.778 619.304C171.778 619.688 171.934 619.976 172.246 620.168C172.57 620.348 173.116 620.522 173.884 620.69C175.144 620.942 176.068 621.29 176.656 621.734C177.256 622.166 177.556 622.784 177.556 623.588C177.556 624.404 177.226 625.04 176.566 625.496C175.906 625.94 174.976 626.162 173.776 626.162ZM180.451 619.61C180.091 619.61 179.785 619.49 179.533 619.25C179.293 619.01 179.173 618.704 179.173 618.332C179.173 617.984 179.293 617.684 179.533 617.432C179.785 617.18 180.091 617.054 180.451 617.054C180.811 617.054 181.117 617.18 181.369 617.432C181.633 617.684 181.765 617.984 181.765 618.332C181.765 618.692 181.633 618.998 181.369 619.25C181.117 619.49 180.811 619.61 180.451 619.61ZM180.451 626.162C180.091 626.162 179.785 626.042 179.533 625.802C179.293 625.562 179.173 625.256 179.173 624.884C179.173 624.524 179.293 624.224 179.533 623.984C179.785 623.732 180.091 623.606 180.451 623.606C180.811 623.606 181.117 623.732 181.369 623.984C181.633 624.224 181.765 624.524 181.765 624.884C181.765 625.244 181.633 625.55 181.369 625.802C181.117 626.042 180.811 626.162 180.451 626.162ZM190.193 614.876H189.131C188.723 614.876 188.405 614.744 188.177 614.48C187.961 614.216 187.853 613.856 187.853 613.4H191.093C191.321 613.4 191.507 613.478 191.651 613.634C191.807 613.778 191.885 613.952 191.885 614.156V624.758C191.885 625.214 191.741 625.562 191.453 625.802C191.165 626.042 190.745 626.162 190.193 626.162V614.876ZM198.618 626.162C197.73 626.162 196.932 626.018 196.224 625.73C195.516 625.442 194.958 625.04 194.55 624.524C194.154 624.008 193.956 623.432 193.956 622.796C193.956 622.328 194.082 621.992 194.334 621.788C194.598 621.584 195.006 621.5 195.558 621.536C195.534 621.848 195.522 622.052 195.522 622.148C195.522 622.94 195.792 623.558 196.332 624.002C196.872 624.446 197.634 624.668 198.618 624.668C199.602 624.668 200.364 624.392 200.904 623.84C201.456 623.288 201.732 622.514 201.732 621.518C201.732 620.51 201.462 619.748 200.922 619.232C200.394 618.704 199.62 618.44 198.6 618.44C198.06 618.44 197.556 618.524 197.088 618.692C196.632 618.86 196.236 619.106 195.9 619.43C195.708 619.622 195.486 619.718 195.234 619.718C194.982 619.718 194.766 619.628 194.586 619.448C194.406 619.268 194.34 619.046 194.388 618.782L195.126 614.012C195.15 613.82 195.24 613.67 195.396 613.562C195.552 613.454 195.75 613.4 195.99 613.4H202.794C202.794 614.384 202.362 614.876 201.498 614.876H196.476L196.08 617.54C195.828 617.72 195.612 617.9 195.432 618.08L195.486 618.17C195.954 617.798 196.488 617.51 197.088 617.306C197.7 617.09 198.3 616.982 198.888 616.982C200.304 616.982 201.408 617.384 202.2 618.188C202.992 618.98 203.388 620.09 203.388 621.518C203.388 622.454 203.19 623.276 202.794 623.984C202.41 624.68 201.858 625.22 201.138 625.604C200.418 625.976 199.578 626.162 198.618 626.162ZM232.806 626.162C232.374 626.162 232.02 626.06 231.744 625.856C231.468 625.64 231.282 625.34 231.186 624.956L228.216 613.4C228.396 613.292 228.624 613.238 228.9 613.238C229.248 613.238 229.542 613.328 229.782 613.508C230.022 613.676 230.178 613.91 230.25 614.21L232.212 622.742L231.924 623.804L232.032 623.84L234.93 613.796C234.978 613.616 235.068 613.478 235.2 613.382C235.344 613.286 235.512 613.238 235.704 613.238C235.884 613.238 236.046 613.286 236.19 613.382C236.334 613.478 236.43 613.616 236.478 613.796L238.98 622.814L238.728 623.912L238.836 623.948L241.158 614.21C241.23 613.91 241.38 613.676 241.608 613.508C241.848 613.328 242.136 613.238 242.472 613.238C242.748 613.238 242.988 613.292 243.192 613.4L240.222 624.956C240.126 625.34 239.934 625.64 239.646 625.856C239.37 626.06 239.016 626.162 238.584 626.162L235.506 615.272L235.398 615.308L235.632 616.154L232.806 626.162ZM247.7 626.162C246.968 626.162 246.314 626.024 245.738 625.748C245.162 625.46 244.712 625.07 244.388 624.578C244.064 624.074 243.902 623.51 243.902 622.886V620.222C243.902 619.586 244.07 619.01 244.406 618.494C244.754 617.978 245.216 617.576 245.792 617.288C246.38 616.988 247.016 616.838 247.7 616.838C248.384 616.838 249.008 616.982 249.572 617.27C250.148 617.558 250.598 617.954 250.922 618.458C251.258 618.962 251.426 619.532 251.426 620.168V621.32C251.426 621.512 251.354 621.674 251.21 621.806C251.066 621.938 250.892 622.004 250.688 622.004H245.432V622.814C245.432 623.426 245.624 623.918 246.008 624.29C246.404 624.662 246.968 624.848 247.7 624.848C248.432 624.848 248.99 624.686 249.374 624.362C249.758 624.038 249.95 623.6 249.95 623.048C250.31 623.024 250.61 623.096 250.85 623.264C251.102 623.42 251.228 623.654 251.228 623.966C251.228 624.35 251.06 624.71 250.724 625.046C250.4 625.382 249.968 625.652 249.428 625.856C248.888 626.06 248.312 626.162 247.7 626.162ZM249.968 620.78V620.168C249.968 619.568 249.758 619.082 249.338 618.71C248.93 618.326 248.384 618.134 247.7 618.134C247.016 618.134 246.464 618.326 246.044 618.71C245.636 619.082 245.432 619.568 245.432 620.168V620.78H249.968ZM254.692 615.488C254.356 615.488 254.074 615.38 253.846 615.164C253.618 614.948 253.504 614.678 253.504 614.354C253.504 614.03 253.618 613.766 253.846 613.562C254.074 613.346 254.356 613.238 254.692 613.238C255.016 613.238 255.292 613.346 255.52 613.562C255.748 613.766 255.862 614.03 255.862 614.354C255.862 614.678 255.748 614.948 255.52 615.164C255.292 615.38 255.016 615.488 254.692 615.488ZM253.9 617.99C253.9 617.594 254.026 617.306 254.278 617.126C254.542 616.934 254.938 616.838 255.466 616.838V625.01C255.466 625.406 255.334 625.7 255.07 625.892C254.818 626.072 254.428 626.162 253.9 626.162V617.99ZM261.973 629.762C261.349 629.762 260.767 629.66 260.227 629.456C259.687 629.252 259.261 628.976 258.949 628.628C258.637 628.292 258.481 627.926 258.481 627.53C258.481 627.218 258.583 626.99 258.787 626.846C259.003 626.702 259.291 626.63 259.651 626.63C259.675 627.194 259.891 627.638 260.299 627.962C260.719 628.298 261.277 628.466 261.973 628.466C263.509 628.466 264.277 627.722 264.277 626.234V625.19C264.445 625.046 264.571 624.914 264.655 624.794L264.601 624.704C264.253 625.076 263.815 625.382 263.287 625.622C262.771 625.862 262.249 625.982 261.721 625.982C260.689 625.982 259.843 625.7 259.183 625.136C258.535 624.56 258.211 623.804 258.211 622.868V619.97C258.211 619.358 258.361 618.818 258.661 618.35C258.973 617.87 259.393 617.498 259.921 617.234C260.461 616.97 261.055 616.838 261.703 616.838C262.879 616.838 263.863 617.354 264.655 618.386L264.727 618.314L264.367 617.864C264.367 617.528 264.481 617.276 264.709 617.108C264.949 616.928 265.333 616.838 265.861 616.838V626.072C265.861 626.792 265.693 627.428 265.357 627.98C265.033 628.544 264.577 628.982 263.989 629.294C263.401 629.606 262.729 629.762 261.973 629.762ZM262.009 624.614C262.645 624.614 263.185 624.446 263.629 624.11C264.073 623.762 264.295 623.354 264.295 622.886V619.952C264.295 619.46 264.073 619.046 263.629 618.71C263.197 618.374 262.669 618.206 262.045 618.206C261.325 618.206 260.767 618.368 260.371 618.692C259.975 619.004 259.777 619.454 259.777 620.042V622.796C259.777 623.36 259.969 623.804 260.353 624.128C260.749 624.452 261.301 624.614 262.009 624.614ZM268.375 614.57C268.375 614.138 268.507 613.808 268.771 613.58C269.035 613.352 269.425 613.238 269.941 613.238V617.972C269.773 618.164 269.641 618.332 269.545 618.476L269.617 618.548C269.989 618.044 270.457 617.636 271.021 617.324C271.585 617 272.197 616.838 272.857 616.838C273.829 616.838 274.597 617.126 275.161 617.702C275.725 618.278 276.007 619.022 276.007 619.934V625.01C276.007 625.406 275.875 625.7 275.611 625.892C275.359 626.072 274.969 626.162 274.441 626.162V620.096C274.441 619.52 274.279 619.064 273.955 618.728C273.631 618.392 273.139 618.224 272.479 618.224C272.035 618.224 271.615 618.32 271.219 618.512C270.835 618.692 270.523 618.944 270.283 619.268C270.055 619.58 269.941 619.922 269.941 620.294V625.01C269.941 625.406 269.809 625.7 269.545 625.892C269.293 626.072 268.903 626.162 268.375 626.162V614.57ZM281.924 626.162C281.072 626.162 280.436 625.922 280.016 625.442C279.596 624.95 279.386 624.308 279.386 623.516V618.26H277.712C277.712 617.852 277.802 617.54 277.982 617.324C278.162 617.108 278.408 617 278.72 617H279.404V615.29C279.404 614.894 279.53 614.606 279.782 614.426C280.046 614.234 280.436 614.138 280.952 614.138V617H283.346C283.346 617.84 282.968 618.26 282.212 618.26H280.97V623.462C280.97 623.942 281.054 624.284 281.222 624.488C281.402 624.68 281.72 624.776 282.176 624.776C282.596 624.776 282.992 624.668 283.364 624.452C283.52 624.608 283.598 624.818 283.598 625.082C283.598 625.37 283.448 625.622 283.148 625.838C282.848 626.054 282.44 626.162 281.924 626.162ZM286.324 619.61C285.964 619.61 285.658 619.49 285.406 619.25C285.166 619.01 285.046 618.704 285.046 618.332C285.046 617.984 285.166 617.684 285.406 617.432C285.658 617.18 285.964 617.054 286.324 617.054C286.684 617.054 286.99 617.18 287.242 617.432C287.506 617.684 287.638 617.984 287.638 618.332C287.638 618.692 287.506 618.998 287.242 619.25C286.99 619.49 286.684 619.61 286.324 619.61ZM286.324 626.162C285.964 626.162 285.658 626.042 285.406 625.802C285.166 625.562 285.046 625.256 285.046 624.884C285.046 624.524 285.166 624.224 285.406 623.984C285.658 623.732 285.964 623.606 286.324 623.606C286.684 623.606 286.99 623.732 287.242 623.984C287.506 624.224 287.638 624.524 287.638 624.884C287.638 625.244 287.506 625.55 287.242 625.802C286.99 626.042 286.684 626.162 286.324 626.162ZM296.066 614.876H295.004C294.596 614.876 294.278 614.744 294.05 614.48C293.834 614.216 293.726 613.856 293.726 613.4H296.966C297.194 613.4 297.38 613.478 297.524 613.634C297.68 613.778 297.758 613.952 297.758 614.156V624.758C297.758 625.214 297.614 625.562 297.326 625.802C297.038 626.042 296.618 626.162 296.066 626.162V614.876ZM304.582 626.162C303.67 626.162 302.854 626.018 302.134 625.73C301.414 625.442 300.85 625.046 300.442 624.542C300.034 624.026 299.83 623.444 299.83 622.796C299.83 622.34 299.962 622.01 300.226 621.806C300.502 621.59 300.922 621.488 301.486 621.5C301.462 621.836 301.45 622.058 301.45 622.166C301.45 622.97 301.72 623.588 302.26 624.02C302.8 624.44 303.574 624.65 304.582 624.65C306.67 624.65 307.714 623.936 307.714 622.508C307.714 621.8 307.468 621.26 306.976 620.888C306.484 620.504 305.77 620.312 304.834 620.312H304.204C303.988 620.312 303.808 620.246 303.664 620.114C303.532 619.97 303.466 619.79 303.466 619.574C303.466 619.346 303.532 619.166 303.664 619.034C303.808 618.902 303.988 618.836 304.204 618.836H304.852C305.62 618.836 306.226 618.65 306.67 618.278C307.126 617.894 307.354 617.384 307.354 616.748C307.354 616.088 307.126 615.59 306.67 615.254C306.226 614.918 305.566 614.75 304.69 614.75C303.754 614.75 303.034 614.918 302.53 615.254C302.038 615.578 301.792 616.052 301.792 616.676C301.792 616.928 301.816 617.144 301.864 617.324C301.36 617.348 300.952 617.252 300.64 617.036C300.328 616.82 300.172 616.52 300.172 616.136C300.172 615.584 300.364 615.092 300.748 614.66C301.144 614.216 301.684 613.868 302.368 613.616C303.052 613.364 303.826 613.238 304.69 613.238C305.566 613.238 306.334 613.382 306.994 613.67C307.666 613.958 308.182 614.366 308.542 614.894C308.902 615.422 309.082 616.04 309.082 616.748C309.082 617.984 308.428 618.92 307.12 619.556C307.924 619.88 308.506 620.276 308.866 620.744C309.238 621.212 309.424 621.8 309.424 622.508C309.424 623.636 308.992 624.53 308.128 625.19C307.264 625.838 306.082 626.162 304.582 626.162ZM316.138 626.162C315.262 626.162 314.452 625.994 313.708 625.658C312.976 625.31 312.394 624.848 311.962 624.272C311.53 623.684 311.314 623.036 311.314 622.328V617.072C311.314 616.364 311.524 615.722 311.944 615.146C312.376 614.558 312.958 614.096 313.69 613.76C314.434 613.412 315.25 613.238 316.138 613.238C317.026 613.238 317.836 613.412 318.568 613.76C319.312 614.096 319.894 614.558 320.314 615.146C320.746 615.722 320.962 616.364 320.962 617.072V622.328C320.962 623.036 320.746 623.684 320.314 624.272C319.882 624.848 319.294 625.31 318.55 625.658C317.818 625.994 317.014 626.162 316.138 626.162ZM316.138 624.65C317.062 624.65 317.812 624.434 318.388 624.002C318.976 623.558 319.27 622.988 319.27 622.292V617.108C319.27 616.412 318.976 615.848 318.388 615.416C317.812 614.972 317.062 614.75 316.138 614.75C315.214 614.75 314.458 614.972 313.87 615.416C313.294 615.848 313.006 616.412 313.006 617.108V622.292C313.006 622.988 313.294 623.558 313.87 624.002C314.458 624.434 315.214 624.65 316.138 624.65Z" fill="white"/>
<path d="M135.68 590.216C134.336 590.216 133.168 590.024 132.176 589.64C131.2 589.256 130.456 588.744 129.944 588.104C129.432 587.464 129.176 586.776 129.176 586.04C129.176 585.432 129.336 584.968 129.656 584.648C129.976 584.312 130.464 584.144 131.12 584.144C131.12 585.504 131.528 586.544 132.344 587.264C133.16 587.968 134.304 588.32 135.776 588.32C137.184 588.32 138.264 588.088 139.016 587.624C139.768 587.144 140.144 586.44 140.144 585.512C140.144 584.952 140 584.496 139.712 584.144C139.44 583.776 138.968 583.464 138.296 583.208C137.64 582.936 136.688 582.664 135.44 582.392C133.968 582.072 132.8 581.704 131.936 581.288C131.072 580.856 130.44 580.336 130.04 579.728C129.64 579.12 129.44 578.368 129.44 577.472C129.44 576.576 129.688 575.792 130.184 575.12C130.696 574.432 131.416 573.904 132.344 573.536C133.272 573.168 134.352 572.984 135.584 572.984C136.752 572.984 137.792 573.152 138.704 573.488C139.632 573.808 140.352 574.272 140.864 574.88C141.392 575.472 141.656 576.144 141.656 576.896C141.656 577.36 141.504 577.728 141.2 578C140.912 578.256 140.456 578.384 139.832 578.384C139.656 577.168 139.224 576.28 138.536 575.72C137.864 575.16 136.88 574.88 135.584 574.88C134.336 574.88 133.376 575.104 132.704 575.552C132.032 575.984 131.696 576.6 131.696 577.4C131.696 577.96 131.816 578.424 132.056 578.792C132.312 579.144 132.736 579.448 133.328 579.704C133.936 579.96 134.784 580.208 135.872 580.448C137.504 580.8 138.784 581.192 139.712 581.624C140.656 582.056 141.336 582.584 141.752 583.208C142.168 583.832 142.376 584.6 142.376 585.512C142.376 586.968 141.768 588.12 140.552 588.968C139.336 589.8 137.712 590.216 135.68 590.216ZM155.085 593.384C155.085 594.472 154.381 595.016 152.973 595.016V589.16C153.197 588.968 153.365 588.792 153.477 588.632L153.405 588.512C152.941 589.008 152.357 589.416 151.653 589.736C150.965 590.056 150.269 590.216 149.565 590.216C148.157 590.216 147.021 589.84 146.157 589.088C145.309 588.336 144.885 587.328 144.885 586.064V581.96C144.885 581.128 145.085 580.4 145.485 579.776C145.901 579.136 146.461 578.648 147.165 578.312C147.885 577.96 148.677 577.784 149.541 577.784C151.109 577.784 152.421 578.472 153.477 579.848L153.573 579.752L153.093 579.152C153.093 578.704 153.245 578.368 153.549 578.144C153.869 577.904 154.381 577.784 155.085 577.784V593.384ZM149.997 579.632C149.037 579.632 148.293 579.84 147.765 580.256C147.237 580.672 146.973 581.272 146.973 582.056V585.968C146.973 586.72 147.237 587.312 147.765 587.744C148.293 588.16 149.021 588.368 149.949 588.368C150.797 588.368 151.517 588.144 152.109 587.696C152.701 587.248 152.997 586.712 152.997 586.088V581.936C152.997 581.296 152.709 580.752 152.133 580.304C151.557 579.856 150.845 579.632 149.997 579.632ZM168.374 588.44C168.374 589.624 167.702 590.216 166.358 590.216V588.68C166.502 588.536 166.67 588.32 166.862 588.032L166.766 587.936C166.286 588.624 165.678 589.176 164.942 589.592C164.222 590.008 163.43 590.216 162.566 590.216C161.702 590.216 160.934 590.032 160.262 589.664C159.606 589.296 159.094 588.784 158.726 588.128C158.374 587.472 158.198 586.736 158.198 585.92V579.32C158.198 578.792 158.374 578.408 158.726 578.168C159.078 577.912 159.606 577.784 160.31 577.784V585.824C160.31 586.592 160.534 587.208 160.982 587.672C161.446 588.136 162.126 588.368 163.022 588.368C163.614 588.368 164.158 588.248 164.654 588.008C165.15 587.752 165.542 587.416 165.83 587C166.134 586.568 166.286 586.104 166.286 585.608V579.32C166.286 578.792 166.454 578.408 166.79 578.168C167.142 577.912 167.67 577.784 168.374 577.784V588.44ZM175.711 590.216C174.335 590.216 173.223 589.848 172.375 589.112C171.543 588.376 171.127 587.408 171.127 586.208C171.127 584.992 171.567 584.016 172.447 583.28C173.327 582.528 174.487 582.152 175.927 582.152C177.463 582.152 178.727 582.696 179.719 583.784L179.815 583.688C179.639 583.496 179.439 583.296 179.215 583.088V582.08C179.215 581.264 178.959 580.632 178.447 580.184C177.935 579.736 177.207 579.512 176.263 579.512C174.583 579.512 173.383 580.176 172.663 581.504C172.407 581.376 172.191 581.208 172.015 581C171.855 580.776 171.775 580.552 171.775 580.328C171.775 579.896 171.991 579.488 172.423 579.104C172.855 578.704 173.423 578.384 174.127 578.144C174.847 577.904 175.599 577.784 176.383 577.784C177.903 577.784 179.095 578.16 179.959 578.912C180.839 579.664 181.279 580.704 181.279 582.032V588.608C181.279 589.168 181.119 589.576 180.799 589.832C180.479 590.088 179.975 590.216 179.287 590.216V589.088C179.623 588.736 179.807 588.528 179.839 588.464L179.743 588.368C178.703 589.6 177.359 590.216 175.711 590.216ZM176.071 588.56C177.063 588.56 177.839 588.352 178.399 587.936C178.975 587.52 179.263 586.944 179.263 586.208C179.263 585.472 178.983 584.888 178.423 584.456C177.863 584.024 177.095 583.808 176.119 583.808C175.207 583.808 174.487 584.024 173.959 584.456C173.447 584.872 173.191 585.456 173.191 586.208C173.191 586.96 173.439 587.544 173.935 587.96C174.447 588.36 175.159 588.56 176.071 588.56ZM188.222 590.216C187.086 590.216 186.238 589.896 185.678 589.256C185.118 588.6 184.838 587.744 184.838 586.688V579.68H182.606C182.606 579.136 182.726 578.72 182.966 578.432C183.206 578.144 183.534 578 183.95 578H184.862V575.72C184.862 575.192 185.03 574.808 185.366 574.568C185.718 574.312 186.238 574.184 186.926 574.184V578H190.118C190.118 579.12 189.614 579.68 188.606 579.68H186.95V586.616C186.95 587.256 187.062 587.712 187.286 587.984C187.526 588.24 187.95 588.368 188.558 588.368C189.118 588.368 189.646 588.224 190.142 587.936C190.35 588.144 190.454 588.424 190.454 588.776C190.454 589.16 190.254 589.496 189.854 589.784C189.454 590.072 188.91 590.216 188.222 590.216ZM199.172 574.256C199.172 573.952 199.276 573.704 199.484 573.512C199.708 573.304 199.988 573.2 200.324 573.2H207.332C208.388 573.2 209.324 573.424 210.14 573.872C210.956 574.304 211.588 574.92 212.036 575.72C212.484 576.504 212.708 577.408 212.708 578.432C212.708 579.488 212.484 580.416 212.036 581.216C211.604 582.016 210.98 582.632 210.164 583.064C209.348 583.496 208.404 583.712 207.332 583.712H201.428V588.344C201.428 588.952 201.236 589.416 200.852 589.736C200.468 590.056 199.908 590.216 199.172 590.216V574.256ZM207.332 581.72C208.292 581.72 209.052 581.432 209.612 580.856C210.172 580.264 210.452 579.456 210.452 578.432C210.452 577.44 210.164 576.656 209.588 576.08C209.028 575.488 208.276 575.192 207.332 575.192H201.428V581.72H207.332ZM219.826 579.632C218.93 579.632 218.186 579.904 217.594 580.448C217.002 580.976 216.706 581.624 216.706 582.392V588.68C216.706 589.208 216.53 589.6 216.178 589.856C215.842 590.096 215.322 590.216 214.618 590.216V579.56C214.618 578.376 215.29 577.784 216.634 577.784V579.248C216.378 579.52 216.202 579.76 216.105 579.968L216.202 580.064C217.226 578.544 218.506 577.784 220.042 577.784C220.618 577.784 221.058 577.928 221.362 578.216C221.666 578.488 221.818 578.824 221.818 579.224C221.818 579.512 221.746 579.768 221.602 579.992C221.154 579.752 220.562 579.632 219.826 579.632ZM228.09 590.216C227.114 590.216 226.242 590.032 225.474 589.664C224.706 589.28 224.106 588.76 223.674 588.104C223.242 587.432 223.026 586.68 223.026 585.848V582.296C223.026 581.448 223.25 580.68 223.698 579.992C224.162 579.304 224.778 578.768 225.546 578.384C226.33 577.984 227.178 577.784 228.09 577.784C229.002 577.784 229.834 577.976 230.586 578.36C231.354 578.744 231.954 579.272 232.386 579.944C232.834 580.616 233.058 581.376 233.058 582.224V583.76C233.058 584.016 232.962 584.232 232.77 584.408C232.578 584.584 232.346 584.672 232.074 584.672H225.066V585.752C225.066 586.568 225.322 587.224 225.834 587.72C226.362 588.216 227.114 588.464 228.09 588.464C229.066 588.464 229.81 588.248 230.322 587.816C230.834 587.384 231.09 586.8 231.09 586.064C231.57 586.032 231.97 586.128 232.29 586.352C232.626 586.56 232.794 586.872 232.794 587.288C232.794 587.8 232.57 588.28 232.122 588.728C231.69 589.176 231.114 589.536 230.394 589.808C229.674 590.08 228.906 590.216 228.09 590.216ZM231.114 583.04V582.224C231.114 581.424 230.834 580.776 230.274 580.28C229.73 579.768 229.002 579.512 228.09 579.512C227.178 579.512 226.442 579.768 225.882 580.28C225.338 580.776 225.066 581.424 225.066 582.224V583.04H231.114ZM240.172 590.216C239.356 590.216 238.588 590.096 237.868 589.856C237.148 589.6 236.564 589.24 236.116 588.776C235.684 588.312 235.468 587.768 235.468 587.144C235.468 586.376 235.932 585.96 236.86 585.896C237.02 586.792 237.396 587.456 237.988 587.888C238.596 588.304 239.364 588.512 240.292 588.512C241.22 588.512 241.94 588.376 242.452 588.104C242.964 587.832 243.22 587.416 243.22 586.856C243.22 586.456 243.116 586.136 242.908 585.896C242.7 585.64 242.364 585.424 241.9 585.248C241.452 585.056 240.804 584.872 239.956 584.696C238.9 584.456 238.06 584.2 237.436 583.928C236.812 583.656 236.332 583.296 235.996 582.848C235.676 582.4 235.516 581.808 235.516 581.072C235.516 580.448 235.708 579.888 236.092 579.392C236.476 578.88 237.004 578.488 237.676 578.216C238.364 577.928 239.14 577.784 240.004 577.784C240.804 577.784 241.556 577.896 242.26 578.12C242.98 578.344 243.556 578.664 243.988 579.08C244.436 579.496 244.66 579.976 244.66 580.52C244.66 580.888 244.516 581.184 244.228 581.408C243.94 581.616 243.54 581.736 243.028 581.768C242.98 581.064 242.692 580.512 242.164 580.112C241.652 579.696 240.932 579.488 240.004 579.488C239.236 579.488 238.628 579.632 238.18 579.92C237.732 580.208 237.508 580.592 237.508 581.072C237.508 581.584 237.716 581.968 238.132 582.224C238.564 582.464 239.292 582.696 240.316 582.92C241.996 583.256 243.228 583.72 244.012 584.312C244.812 584.888 245.212 585.712 245.212 586.784C245.212 587.872 244.772 588.72 243.892 589.328C243.012 589.92 241.772 590.216 240.172 590.216ZM252.313 590.216C251.497 590.216 250.729 590.096 250.009 589.856C249.289 589.6 248.705 589.24 248.257 588.776C247.825 588.312 247.609 587.768 247.609 587.144C247.609 586.376 248.073 585.96 249.001 585.896C249.161 586.792 249.537 587.456 250.129 587.888C250.737 588.304 251.505 588.512 252.433 588.512C253.361 588.512 254.081 588.376 254.593 588.104C255.105 587.832 255.361 587.416 255.361 586.856C255.361 586.456 255.257 586.136 255.049 585.896C254.841 585.64 254.505 585.424 254.041 585.248C253.593 585.056 252.945 584.872 252.097 584.696C251.041 584.456 250.201 584.2 249.577 583.928C248.953 583.656 248.473 583.296 248.137 582.848C247.817 582.4 247.657 581.808 247.657 581.072C247.657 580.448 247.849 579.888 248.233 579.392C248.617 578.88 249.145 578.488 249.817 578.216C250.505 577.928 251.281 577.784 252.145 577.784C252.945 577.784 253.697 577.896 254.401 578.12C255.121 578.344 255.697 578.664 256.129 579.08C256.577 579.496 256.801 579.976 256.801 580.52C256.801 580.888 256.657 581.184 256.369 581.408C256.081 581.616 255.681 581.736 255.169 581.768C255.121 581.064 254.833 580.512 254.305 580.112C253.793 579.696 253.073 579.488 252.145 579.488C251.377 579.488 250.769 579.632 250.321 579.92C249.873 580.208 249.649 580.592 249.649 581.072C249.649 581.584 249.857 581.968 250.273 582.224C250.705 582.464 251.433 582.696 252.457 582.92C254.137 583.256 255.369 583.72 256.153 584.312C256.953 584.888 257.353 585.712 257.353 586.784C257.353 587.872 256.913 588.72 256.033 589.328C255.153 589.92 253.913 590.216 252.313 590.216Z" fill="white"/>
<circle cx="350.5" cy="61.5" r="18.5" fill="#FF4E4E"/>
<path d="M350.5 79.125C348.185 79.125 345.894 78.6691 343.755 77.7834C341.617 76.8976 339.674 75.5994 338.037 73.9628C336.401 72.3261 335.102 70.3832 334.217 68.2448C333.331 66.1064 332.875 63.8145 332.875 61.5C332.875 59.1854 333.331 56.8936 334.217 54.7552C335.102 52.6168 336.401 50.6739 338.037 49.0372C339.674 47.4006 341.617 46.1024 343.755 45.2166C345.894 44.3309 348.185 43.875 350.5 43.875C352.815 43.875 355.106 44.3309 357.245 45.2166C359.383 46.1024 361.326 47.4006 362.963 49.0372C364.599 50.6739 365.898 52.6168 366.783 54.7552C367.669 56.8936 368.125 59.1855 368.125 61.5C368.125 63.8146 367.669 66.1064 366.783 68.2448C365.898 70.3832 364.599 72.3261 362.963 73.9628C361.326 75.5994 359.383 76.8976 357.245 77.7834C355.106 78.6691 352.815 79.125 350.5 79.125L350.5 79.125Z" stroke="black" stroke-width="3.08333" stroke-linecap="round"/>
<path d="M344.625 55.625L356.375 67.375" stroke="black" stroke-width="3.08333" stroke-linecap="round"/>
<path d="M356.375 55.625L344.625 67.375" stroke="black" stroke-width="3.08333" stroke-linecap="round"/>
<rect y="752" width="390" height="92" fill="black"/>
<path d="M58.1348 809.773V806.716C58.1348 805.935 58.7722 805.302 59.5584 805.302H62.4326C62.8102 805.302 63.1723 805.451 63.4393 805.716C63.7063 805.981 63.8563 806.341 63.8563 806.716V809.773C63.8539 810.098 63.9821 810.41 64.2124 810.64C64.4427 810.87 64.756 811 65.0829 811H67.0438C67.9596 811.002 68.8388 810.643 69.4872 810.001C70.1356 809.359 70.5 808.487 70.5 807.578V798.867C70.5 798.132 70.1721 797.436 69.6046 796.965L62.934 791.676C61.7737 790.749 60.1111 790.779 58.9854 791.747L52.467 796.965C51.8727 797.422 51.5176 798.121 51.5 798.867V807.569C51.5 809.464 53.0474 811 54.9562 811H56.8723C57.5512 811 58.103 810.456 58.1079 809.782L58.1348 809.773Z" fill="white"/>
<path fill-rule="evenodd" clip-rule="evenodd" d="M160.519 792C160.565 792 160.611 792 160.657 792C160.703 792 160.749 792 160.795 792C161.419 791.999 161.958 791.999 162.432 792.12C163.706 792.446 164.701 793.395 165.042 794.61C165.17 795.063 165.169 795.577 165.168 796.173C165.168 796.216 165.168 796.26 165.168 796.304V796.713C167.467 796.911 169.269 798.755 169.269 801C169.269 803.245 167.467 805.089 165.168 805.287V805.696C165.168 805.74 165.168 805.783 165.168 805.827C165.169 806.423 165.17 806.937 165.042 807.39C164.701 808.605 163.706 809.554 162.432 809.88C161.958 810.001 161.419 810.001 160.795 810C160.749 810 160.703 810 160.657 810C160.611 810 160.565 810 160.519 810C159.895 810.001 159.356 810.001 158.882 809.88C157.608 809.554 156.613 808.605 156.272 807.39C156.145 806.937 156.145 806.423 156.146 805.827C156.146 805.783 156.146 805.74 156.146 805.696V802.174H147.123V805.696C147.123 805.74 147.124 805.783 147.124 805.827C147.124 806.423 147.125 806.937 146.998 807.39C146.656 808.605 145.662 809.554 144.388 809.88C143.913 810.001 143.375 810.001 142.75 810C142.704 810 142.659 810 142.612 810C142.566 810 142.52 810 142.475 810C141.85 810.001 141.311 810.001 140.837 809.88C139.563 809.554 138.568 808.605 138.227 807.39C138.1 806.937 138.1 806.423 138.101 805.827C138.101 805.783 138.101 805.74 138.101 805.696V805.287C135.802 805.089 134 803.245 134 801C134 798.755 135.802 796.911 138.101 796.713V796.304C138.101 796.26 138.101 796.216 138.101 796.173C138.1 795.577 138.1 795.063 138.227 794.61C138.568 793.395 139.563 792.446 140.837 792.12C141.311 791.999 141.85 791.999 142.475 792C142.52 792 142.566 792 142.612 792C142.659 792 142.704 792 142.75 792C143.375 791.999 143.913 791.999 144.388 792.12C145.662 792.446 146.656 793.395 146.998 794.61C147.125 795.063 147.124 795.577 147.124 796.173C147.124 796.216 147.123 796.26 147.123 796.304V799.826H156.146V796.304C156.146 796.26 156.146 796.216 156.146 796.173C156.145 795.577 156.145 795.063 156.272 794.61C156.613 793.395 157.608 792.446 158.882 792.12C159.356 791.999 159.895 791.999 160.519 792ZM138.101 799.083C137.165 799.264 136.461 800.053 136.461 801C136.461 801.947 137.165 802.736 138.101 802.917V799.083ZM165.168 802.917C166.104 802.736 166.809 801.947 166.809 801C166.809 800.053 166.104 799.264 165.168 799.083V802.917ZM160.657 794.348C159.815 794.348 159.635 794.358 159.518 794.388C159.094 794.497 158.762 794.813 158.649 795.218C158.617 795.33 158.607 795.501 158.607 796.304V805.696C158.607 806.499 158.617 806.67 158.649 806.782C158.762 807.187 159.094 807.503 159.518 807.612C159.635 807.642 159.815 807.652 160.657 807.652C161.499 807.652 161.679 807.642 161.796 807.612C162.22 807.503 162.552 807.187 162.666 806.782C162.697 806.67 162.708 806.499 162.708 805.696V796.304C162.708 795.501 162.697 795.33 162.666 795.218C162.552 794.813 162.22 794.497 161.796 794.388C161.679 794.358 161.499 794.348 160.657 794.348ZM142.612 794.348C141.77 794.348 141.591 794.358 141.474 794.388C141.049 794.497 140.717 794.813 140.604 795.218C140.572 795.33 140.562 795.501 140.562 796.304V805.696C140.562 806.499 140.572 806.67 140.604 806.782C140.717 807.187 141.049 807.503 141.474 807.612C141.591 807.642 141.77 807.652 142.612 807.652C143.454 807.652 143.634 807.642 143.751 807.612C144.175 807.503 144.507 807.187 144.621 806.782C144.652 806.67 144.663 806.499 144.663 805.696V796.304C144.663 795.501 144.652 795.33 144.621 795.218C144.507 794.813 144.175 794.497 143.751 794.388C143.634 794.358 143.454 794.348 142.612 794.348Z" fill="#B8F14A"/>
<path d="M248.269 789H233.269C232.474 789 231.711 789.316 231.148 789.879C230.585 790.441 230.269 791.204 230.269 792V810C230.269 810.796 230.585 811.559 231.148 812.121C231.711 812.684 232.474 813 233.269 813H250.269V791C250.269 790.47 250.059 789.961 249.684 789.586C249.308 789.211 248.8 789 248.269 789V789ZM248.269 807H236.269V791H248.269V807ZM233.269 791H234.269V807H233.286C232.939 807.003 232.595 807.066 232.269 807.187V792C232.269 791.735 232.375 791.48 232.562 791.293C232.75 791.105 233.004 791 233.269 791ZM233.269 811C233.005 811 232.752 810.896 232.565 810.71C232.378 810.524 232.271 810.272 232.269 810.008H232.284C232.283 809.876 232.308 809.745 232.358 809.623C232.408 809.501 232.481 809.389 232.574 809.296C232.667 809.202 232.778 809.128 232.9 809.077C233.022 809.026 233.152 809 233.284 809H248.269V811H233.269Z" fill="white"/>
<ellipse cx="326.477" cy="798.477" rx="6.47727" ry="6.47727" fill="#D9D9D9"/>
<ellipse cx="326.269" cy="801" rx="15" ry="15" stroke="#2C2C2E" stroke-width="0.681818"/>
<ellipse cx="325.886" cy="810.773" rx="9.88636" ry="4.77273" fill="#D9D9D9"/>
<rect x="308" y="664" width="74" height="74" rx="37" fill="#FF4E4E"/>
<rect x="308" y="664" width="74" height="74" rx="37" stroke="black" stroke-width="12"/>
<circle cx="345" cy="701" r="32.25" stroke="#33363F" stroke-width="3.91667"/>
<g clip-path="url(#clip1_128_2755)">
<path d="M361.5 686.333H355.817C355.391 684.264 354.265 682.405 352.629 681.069C350.992 679.733 348.946 679.003 346.833 679H343.167C341.054 679.003 339.007 679.733 337.371 681.069C335.735 682.405 334.609 684.264 334.183 686.333H328.5C328.014 686.333 327.547 686.526 327.203 686.87C326.86 687.214 326.667 687.68 326.667 688.167C326.667 688.653 326.86 689.119 327.203 689.463C327.547 689.807 328.014 690 328.5 690H330.333V713.833C330.336 716.264 331.303 718.593 333.021 720.312C334.74 722.03 337.07 722.997 339.5 723H350.5C352.93 722.997 355.26 722.03 356.978 720.312C358.697 718.593 359.664 716.264 359.667 713.833V690H361.5C361.986 690 362.452 689.807 362.796 689.463C363.14 689.119 363.333 688.653 363.333 688.167C363.333 687.68 363.14 687.214 362.796 686.87C362.452 686.526 361.986 686.333 361.5 686.333V686.333ZM343.167 682.667H346.833C347.97 682.668 349.079 683.021 350.008 683.678C350.936 684.334 351.639 685.262 352.02 686.333H337.98C338.361 685.262 339.063 684.334 339.992 683.678C340.92 683.021 342.029 682.668 343.167 682.667V682.667ZM356 713.833C356 715.292 355.42 716.691 354.389 717.722C353.357 718.754 351.959 719.333 350.5 719.333H339.5C338.041 719.333 336.642 718.754 335.611 717.722C334.579 716.691 334 715.292 334 713.833V690H356V713.833Z" fill="black"/>
<path d="M341.333 711.999C341.82 711.999 342.286 711.806 342.63 711.462C342.974 711.118 343.167 710.652 343.167 710.166V699.166C343.167 698.679 342.974 698.213 342.63 697.869C342.286 697.525 341.82 697.332 341.333 697.332C340.847 697.332 340.381 697.525 340.037 697.869C339.693 698.213 339.5 698.679 339.5 699.166V710.166C339.5 710.652 339.693 711.118 340.037 711.462C340.381 711.806 340.847 711.999 341.333 711.999Z" fill="black"/>
<path d="M348.666 711.999C349.153 711.999 349.619 711.806 349.963 711.462C350.307 711.118 350.5 710.652 350.5 710.166V699.166C350.5 698.679 350.307 698.213 349.963 697.869C349.619 697.525 349.153 697.332 348.666 697.332C348.18 697.332 347.714 697.525 347.37 697.869C347.026 698.213 346.833 698.679 346.833 699.166V710.166C346.833 710.652 347.026 711.118 347.37 711.462C347.714 711.806 348.18 711.999 348.666 711.999Z" fill="black"/>
</g>
</g>
<defs>
<clipPath id="clip0_128_2755">
<rect width="390" height="844" fill="white"/>
</clipPath>
<clipPath id="clip1_128_2755">
<rect width="44" height="44" fill="white" transform="translate(323 679)"/>
</clipPath>
</defs>
</svg>
