<svg width="390" height="844" viewBox="0 0 390 844" fill="none" xmlns="http://www.w3.org/2000/svg">
<g clip-path="url(#clip0_126_1804)">
<rect width="390" height="844" fill="#1F1F1F"/>
<path d="M0 0H390V126C390 131.523 385.523 136 380 136H10C4.47715 136 0 131.523 0 126V0Z" fill="#B8F14A"/>
<circle cx="36.5" cy="44.5" r="17.5" fill="white"/>
<path d="M41.1687 46.2121L40.6614 45.3242C40.3384 44.759 40.1769 44.4764 40.1769 44.1666C40.1769 43.8568 40.3384 43.5741 40.6614 43.0089L41.1687 42.1211C42.6134 39.5929 43.3357 38.3288 42.7724 37.7019C42.2091 37.075 40.8753 37.6586 38.2076 38.8257L38.2076 38.8257L30.886 42.0289C28.7913 42.9453 27.7439 43.4036 27.7439 44.1666C27.7439 44.9296 28.7913 45.3878 30.886 46.3043L38.2076 49.5075C40.8753 50.6746 42.2091 51.2582 42.7724 50.6313C43.3357 50.0044 42.6134 48.7403 41.1687 46.2121Z" stroke="black" stroke-width="2.33333"/>
<path d="M36.5 62.125C34.1855 62.125 31.8936 61.6691 29.7552 60.7834C27.6168 59.8976 25.6739 58.5994 24.0372 56.9628C22.4006 55.3261 21.1024 53.3832 20.2166 51.2448C19.3309 49.1064 18.875 46.8145 18.875 44.5C18.875 42.1854 19.3309 39.8936 20.2166 37.7552C21.1024 35.6168 22.4006 33.6739 24.0372 32.0372C25.6739 30.4006 27.6168 29.1024 29.7552 28.2166C31.8936 27.3309 34.1855 26.875 36.5 26.875C38.8146 26.875 41.1064 27.3309 43.2448 28.2166C45.3832 29.1024 47.3261 30.4006 48.9628 32.0372C50.5994 33.6739 51.8976 35.6168 52.7834 37.7552C53.6691 39.8936 54.125 42.1855 54.125 44.5C54.125 46.8146 53.6691 49.1064 52.7834 51.2448C51.8976 53.3832 50.5994 55.3261 48.9628 56.9628C47.3261 58.5994 45.3832 59.8976 43.2448 60.7834C41.1064 61.6691 38.8145 62.125 36.5 62.125L36.5 62.125Z" stroke="black" stroke-width="3.08333" stroke-linecap="round"/>
<path d="M85.992 85C85.321 85 84.744 84.7853 84.2609 84.3559C83.7778 83.8996 83.5363 83.3628 83.5363 82.7455V59.0335C83.5363 58.4163 83.7644 57.8929 84.2206 57.4635C84.7037 57.0341 85.2942 56.8194 85.992 56.8194H96.9019C99.4248 56.8194 101.424 57.5306 102.9 58.953C104.403 60.3755 105.155 62.281 105.155 64.6697C105.155 65.8506 104.833 66.9778 104.189 68.0514C103.571 69.0981 102.739 69.9032 101.693 70.4668V70.5876C103.142 71.0439 104.269 71.8356 105.074 72.9628C105.906 74.0632 106.322 75.3381 106.322 76.7874C106.322 78.3977 105.96 79.8335 105.235 81.095C104.511 82.3295 103.504 83.2957 102.216 83.9935C100.928 84.6645 99.4516 85 97.7876 85H85.992ZM96.8214 68.8565C97.7876 68.8565 98.6062 68.4674 99.2772 67.689C99.975 66.9107 100.324 65.9579 100.324 64.8307C100.324 63.623 100.015 62.6702 99.3979 61.9724C98.7806 61.2746 97.9218 60.9257 96.8214 60.9257H88.2867V68.8565H96.8214ZM97.6266 80.8534C98.8343 80.8534 99.7737 80.5045 100.445 79.8067C101.142 79.0821 101.491 78.1025 101.491 76.8679C101.491 75.6065 101.156 74.6403 100.485 73.9693C99.8139 73.2715 98.8612 72.9226 97.6266 72.9226H88.2867V80.8534H97.6266ZM119.001 85.3623C117.364 85.3623 115.861 85.0403 114.493 84.3961C113.151 83.752 112.09 82.8663 111.312 81.7391C110.534 80.585 110.145 79.2968 110.145 77.8743V72.3187C110.145 70.8426 110.547 69.5141 111.352 68.3332C112.158 67.1523 113.245 66.2263 114.613 65.5554C115.982 64.8575 117.458 64.5086 119.042 64.5086C120.625 64.5086 122.061 64.8307 123.349 65.4748C124.664 66.119 125.698 67.0315 126.449 68.2124C127.227 69.3665 127.617 70.6681 127.617 72.1174V74.4926C127.617 75.0294 127.415 75.4857 127.013 75.8614C126.61 76.2372 126.1 76.425 125.483 76.425H114.533V77.5925C114.533 78.8271 114.909 79.8201 115.66 80.5716C116.438 81.3231 117.566 81.6988 119.042 81.6988C120.491 81.6988 121.578 81.3902 122.303 80.7729C123.027 80.1288 123.39 79.2834 123.39 78.2366C123.551 78.2098 123.792 78.1964 124.114 78.1964C125.027 78.1964 125.751 78.4111 126.288 78.8405C126.852 79.2431 127.134 79.8201 127.134 80.5716C127.134 81.3768 126.771 82.1551 126.047 82.9066C125.322 83.6312 124.329 84.2217 123.067 84.6779C121.833 85.1342 120.478 85.3623 119.001 85.3623ZM123.47 73.0836V72.1174C123.47 70.9097 123.054 69.9435 122.222 69.2188C121.417 68.4674 120.343 68.0916 119.001 68.0916C117.659 68.0916 116.573 68.4674 115.741 69.2188C114.935 69.9435 114.533 70.9097 114.533 72.1174V73.0836H123.47ZM131.775 68.0916C131.775 65.703 133.211 64.5086 136.083 64.5086V66.9644C135.761 67.3133 135.452 67.7293 135.157 68.2124L135.398 68.3734C136.177 67.1925 137.197 66.2532 138.458 65.5554C139.746 64.8575 141.155 64.5086 142.685 64.5086C144.081 64.5086 145.302 64.8173 146.349 65.4346C147.395 66.025 148.2 66.857 148.764 67.9306C149.355 69.0041 149.65 70.1985 149.65 71.5135V82.4637C149.65 83.4836 149.274 84.2217 148.523 84.6779C147.771 85.1342 146.644 85.3623 145.141 85.3623V72.1174C145.141 71.017 144.805 70.1314 144.134 69.4604C143.49 68.7626 142.537 68.4137 141.276 68.4137C139.88 68.4137 138.7 68.8565 137.733 69.7422C136.767 70.601 136.284 71.6612 136.284 72.9226V82.4637C136.284 83.4836 135.908 84.2217 135.157 84.6779C134.432 85.1342 133.305 85.3623 131.775 85.3623V68.0916ZM162.835 85.3623C161.118 85.3623 159.588 85.0537 158.246 84.4364C156.931 83.8191 155.897 82.9603 155.146 81.8599C154.421 80.7326 154.059 79.4712 154.059 78.0756V72.1174C154.059 70.6413 154.421 69.3262 155.146 68.1721C155.897 67.0181 156.931 66.119 158.246 65.4748C159.561 64.8307 161.064 64.5086 162.755 64.5086C164.338 64.5086 165.747 64.7368 166.982 65.193C168.216 65.6493 169.169 66.2934 169.84 67.1254C170.538 67.9306 170.887 68.8565 170.887 69.9032C170.887 70.7352 170.538 71.3928 169.84 71.8759C169.169 72.3321 168.283 72.52 167.183 72.4395C167.183 71.2586 166.78 70.2924 165.975 69.5409C165.17 68.7894 164.137 68.4137 162.875 68.4137C161.614 68.4137 160.581 68.776 159.776 69.5006C158.97 70.2253 158.568 71.1646 158.568 72.3187V77.7938C158.568 78.8674 158.97 79.7396 159.776 80.4106C160.608 81.0815 161.668 81.417 162.956 81.417C164.217 81.417 165.251 81.0547 166.056 80.3301C166.861 79.5786 167.264 78.6258 167.264 77.4717L167.827 77.4315C168.767 77.4315 169.531 77.673 170.122 78.1561C170.712 78.6124 171.008 79.2163 171.008 79.9677C171.008 81.0145 170.659 81.9538 169.961 82.7858C169.29 83.591 168.324 84.2217 167.062 84.6779C165.828 85.1342 164.419 85.3623 162.835 85.3623ZM175.139 60.04C175.139 58.8859 175.515 58.0003 176.266 57.383C177.045 56.7657 178.172 56.457 179.648 56.457V66.9644C179.245 67.4206 178.923 67.8366 178.682 68.2124L178.923 68.3734C179.782 67.1657 180.802 66.2263 181.983 65.5554C183.191 64.8575 184.546 64.5086 186.049 64.5086C187.445 64.5086 188.666 64.8173 189.712 65.4346C190.759 66.025 191.564 66.857 192.128 67.9306C192.718 69.0041 193.014 70.1985 193.014 71.5135V82.4637C193.014 83.4836 192.638 84.2217 191.886 84.6779C191.135 85.1342 190.008 85.3623 188.505 85.3623V72.1174C188.505 71.017 188.169 70.1314 187.498 69.4604C186.854 68.7626 185.901 68.4137 184.64 68.4137C183.244 68.4137 182.063 68.8565 181.097 69.7422C180.131 70.601 179.648 71.6612 179.648 72.9226V82.4637C179.648 83.4836 179.272 84.2217 178.521 84.6779C177.769 85.1342 176.642 85.3623 175.139 85.3623V60.04ZM208.045 59.0335C208.045 58.4163 208.273 57.8929 208.73 57.4635C209.213 57.0341 209.803 56.8194 210.501 56.8194H221.854C223.733 56.8194 225.397 57.2085 226.846 57.9868C228.295 58.7383 229.422 59.7985 230.228 61.1672C231.033 62.536 231.435 64.1195 231.435 65.9177C231.435 67.7695 231.046 69.3933 230.268 70.7889C229.489 72.1577 228.376 73.2178 226.926 73.9693C225.477 74.7208 223.786 75.0965 221.854 75.0965H212.876V81.6586C212.876 82.8663 212.46 83.7923 211.628 84.4364C210.823 85.0537 209.629 85.3623 208.045 85.3623V59.0335ZM221.854 70.8694C223.357 70.8694 224.511 70.44 225.316 69.5812C226.148 68.6955 226.564 67.4743 226.564 65.9177C226.564 64.4147 226.148 63.2338 225.316 62.375C224.484 61.4893 223.33 61.0465 221.854 61.0465H212.876V70.8694H221.854ZM243.973 68.4137C242.416 68.4137 241.142 68.8565 240.149 69.7422C239.156 70.601 238.659 71.6612 238.659 72.9226V82.4637C238.659 83.4836 238.283 84.2217 237.532 84.6779C236.807 85.1342 235.68 85.3623 234.15 85.3623V68.0916C234.15 65.703 235.586 64.5086 238.458 64.5086V66.9241C238.082 67.3535 237.773 67.783 237.532 68.2124L237.733 68.3734C239.478 65.7969 241.611 64.5086 244.134 64.5086C245.208 64.5086 246.026 64.7905 246.59 65.3541C247.154 65.8908 247.435 66.5752 247.435 67.4072C247.435 68.0245 247.274 68.5747 246.952 69.0578C246.174 68.6284 245.181 68.4137 243.973 68.4137ZM257.9 85.3623C256.262 85.3623 254.759 85.0403 253.391 84.3961C252.049 83.752 250.989 82.8663 250.21 81.7391C249.432 80.585 249.043 79.2968 249.043 77.8743V72.3187C249.043 70.8426 249.445 69.5141 250.251 68.3332C251.056 67.1523 252.143 66.2263 253.511 65.5554C254.88 64.8575 256.356 64.5086 257.94 64.5086C259.523 64.5086 260.959 64.8307 262.247 65.4748C263.563 66.119 264.596 67.0315 265.347 68.2124C266.126 69.3665 266.515 70.6681 266.515 72.1174V74.4926C266.515 75.0294 266.314 75.4857 265.911 75.8614C265.508 76.2372 264.998 76.425 264.381 76.425H253.431V77.5925C253.431 78.8271 253.807 79.8201 254.558 80.5716C255.336 81.3231 256.464 81.6988 257.94 81.6988C259.389 81.6988 260.476 81.3902 261.201 80.7729C261.925 80.1288 262.288 79.2834 262.288 78.2366C262.449 78.2098 262.69 78.1964 263.012 78.1964C263.925 78.1964 264.65 78.4111 265.186 78.8405C265.75 79.2431 266.032 79.8201 266.032 80.5716C266.032 81.3768 265.669 82.1551 264.945 82.9066C264.22 83.6312 263.227 84.2217 261.966 84.6779C260.731 85.1342 259.376 85.3623 257.9 85.3623ZM262.368 73.0836V72.1174C262.368 70.9097 261.952 69.9435 261.12 69.2188C260.315 68.4674 259.242 68.0916 257.9 68.0916C256.558 68.0916 255.471 68.4674 254.639 69.2188C253.834 69.9435 253.431 70.9097 253.431 72.1174V73.0836H262.368ZM278.564 85.3623C276.122 85.3623 274.109 84.8926 272.525 83.9533C270.969 83.0139 270.19 81.7659 270.19 80.2093C270.19 78.76 271.21 77.9951 273.25 77.9146C273.491 79.2028 274.082 80.1825 275.021 80.8534C275.961 81.4975 277.101 81.8196 278.443 81.8196C279.892 81.8196 281.02 81.6317 281.825 81.256C282.63 80.8534 283.033 80.263 283.033 79.4846C283.033 78.7332 282.684 78.1427 281.986 77.7133C281.315 77.257 280.013 76.8008 278.081 76.3445C276.175 75.9151 274.672 75.4588 273.572 74.9757C272.472 74.4926 271.64 73.8754 271.076 73.1239C270.539 72.3724 270.271 71.3794 270.271 70.1448C270.271 68.4808 270.982 67.1254 272.404 66.0787C273.854 65.032 275.786 64.5086 278.202 64.5086C280.537 64.5086 282.496 64.9381 284.079 65.7969C285.663 66.6557 286.455 67.7964 286.455 69.2188C286.455 69.9166 286.186 70.44 285.649 70.7889C285.139 71.1378 284.348 71.3257 283.274 71.3525C282.845 69.0712 281.221 67.9306 278.403 67.9306C277.303 67.9306 276.377 68.1319 275.625 68.5345C274.9 68.937 274.538 69.4604 274.538 70.1045C274.538 70.7755 274.86 71.2988 275.504 71.6746C276.175 72.0235 277.289 72.359 278.846 72.681C281.798 73.2983 283.945 74.1303 285.287 75.177C286.629 76.2237 287.3 77.6596 287.3 79.4846C287.3 81.2828 286.522 82.7187 284.965 83.7923C283.408 84.839 281.275 85.3623 278.564 85.3623ZM299.165 85.3623C296.722 85.3623 294.71 84.8926 293.126 83.9533C291.569 83.0139 290.791 81.7659 290.791 80.2093C290.791 78.76 291.811 77.9951 293.851 77.9146C294.092 79.2028 294.683 80.1825 295.622 80.8534C296.561 81.4975 297.702 81.8196 299.044 81.8196C300.493 81.8196 301.62 81.6317 302.426 81.256C303.231 80.8534 303.633 80.263 303.633 79.4846C303.633 78.7332 303.284 78.1427 302.587 77.7133C301.916 77.257 300.614 76.8008 298.682 76.3445C296.776 75.9151 295.273 75.4588 294.173 74.9757C293.072 74.4926 292.24 73.8754 291.677 73.1239C291.14 72.3724 290.872 71.3794 290.872 70.1448C290.872 68.4808 291.583 67.1254 293.005 66.0787C294.455 65.032 296.387 64.5086 298.802 64.5086C301.137 64.5086 303.097 64.9381 304.68 65.7969C306.264 66.6557 307.055 67.7964 307.055 69.2188C307.055 69.9166 306.787 70.44 306.25 70.7889C305.74 71.1378 304.948 71.3257 303.875 71.3525C303.446 69.0712 301.822 67.9306 299.004 67.9306C297.903 67.9306 296.977 68.1319 296.226 68.5345C295.501 68.937 295.139 69.4604 295.139 70.1045C295.139 70.7755 295.461 71.2988 296.105 71.6746C296.776 72.0235 297.89 72.359 299.447 72.681C302.399 73.2983 304.546 74.1303 305.888 75.177C307.23 76.2237 307.901 77.6596 307.901 79.4846C307.901 81.2828 307.122 82.7187 305.566 83.7923C304.009 84.839 301.875 85.3623 299.165 85.3623Z" fill="black"/>
<rect x="116" y="207" width="159" height="94" rx="14" fill="#434B53"/>
<path d="M172.24 186.288C170.448 186.288 168.891 186.032 167.568 185.52C166.267 185.008 165.275 184.325 164.592 183.472C163.909 182.619 163.568 181.701 163.568 180.72C163.568 179.909 163.781 179.291 164.208 178.864C164.635 178.416 165.285 178.192 166.16 178.192C166.16 180.005 166.704 181.392 167.792 182.352C168.88 183.291 170.405 183.76 172.368 183.76C174.245 183.76 175.685 183.451 176.688 182.832C177.691 182.192 178.192 181.253 178.192 180.016C178.192 179.269 178 178.661 177.616 178.192C177.253 177.701 176.624 177.285 175.728 176.944C174.853 176.581 173.584 176.219 171.92 175.856C169.957 175.429 168.4 174.939 167.248 174.384C166.096 173.808 165.253 173.115 164.72 172.304C164.187 171.493 163.92 170.491 163.92 169.296C163.92 168.101 164.251 167.056 164.912 166.16C165.595 165.243 166.555 164.539 167.792 164.048C169.029 163.557 170.469 163.312 172.112 163.312C173.669 163.312 175.056 163.536 176.272 163.984C177.509 164.411 178.469 165.029 179.152 165.84C179.856 166.629 180.208 167.525 180.208 168.528C180.208 169.147 180.005 169.637 179.6 170C179.216 170.341 178.608 170.512 177.776 170.512C177.541 168.891 176.965 167.707 176.048 166.96C175.152 166.213 173.84 165.84 172.112 165.84C170.448 165.84 169.168 166.139 168.272 166.736C167.376 167.312 166.928 168.133 166.928 169.2C166.928 169.947 167.088 170.565 167.408 171.056C167.749 171.525 168.315 171.931 169.104 172.272C169.915 172.613 171.045 172.944 172.496 173.264C174.672 173.733 176.379 174.256 177.616 174.832C178.875 175.408 179.781 176.112 180.336 176.944C180.891 177.776 181.168 178.8 181.168 180.016C181.168 181.957 180.357 183.493 178.736 184.624C177.115 185.733 174.949 186.288 172.24 186.288ZM191.266 186.288C189.964 186.288 188.802 186.043 187.778 185.552C186.754 185.04 185.954 184.347 185.378 183.472C184.802 182.576 184.514 181.573 184.514 180.464V175.728C184.514 174.597 184.812 173.573 185.41 172.656C186.028 171.739 186.85 171.024 187.874 170.512C188.919 169.979 190.05 169.712 191.266 169.712C192.482 169.712 193.591 169.968 194.594 170.48C195.618 170.992 196.418 171.696 196.994 172.592C197.591 173.488 197.89 174.501 197.89 175.632V177.68C197.89 178.021 197.762 178.309 197.506 178.544C197.25 178.779 196.94 178.896 196.578 178.896H187.234V180.336C187.234 181.424 187.575 182.299 188.258 182.96C188.962 183.621 189.964 183.952 191.266 183.952C192.567 183.952 193.559 183.664 194.242 183.088C194.924 182.512 195.266 181.733 195.266 180.752C195.906 180.709 196.439 180.837 196.866 181.136C197.314 181.413 197.538 181.829 197.538 182.384C197.538 183.067 197.239 183.707 196.642 184.304C196.066 184.901 195.298 185.381 194.338 185.744C193.378 186.107 192.354 186.288 191.266 186.288ZM195.298 176.72V175.632C195.298 174.565 194.924 173.701 194.178 173.04C193.452 172.357 192.482 172.016 191.266 172.016C190.05 172.016 189.068 172.357 188.322 173.04C187.596 173.701 187.234 174.565 187.234 175.632V176.72H195.298ZM207.139 186.288C205.625 186.288 204.494 185.861 203.747 185.008C203.001 184.133 202.627 182.992 202.627 181.584V172.24H199.651C199.651 171.515 199.811 170.96 200.131 170.576C200.451 170.192 200.889 170 201.443 170H202.659V166.96C202.659 166.256 202.883 165.744 203.331 165.424C203.801 165.083 204.494 164.912 205.411 164.912V170H209.667C209.667 171.493 208.995 172.24 207.651 172.24H205.443V181.488C205.443 182.341 205.593 182.949 205.891 183.312C206.211 183.653 206.777 183.824 207.587 183.824C208.334 183.824 209.038 183.632 209.699 183.248C209.977 183.525 210.115 183.899 210.115 184.368C210.115 184.88 209.849 185.328 209.315 185.712C208.782 186.096 208.057 186.288 207.139 186.288ZM219.282 186.288C218.194 186.288 217.17 186.128 216.21 185.808C215.25 185.467 214.471 184.987 213.874 184.368C213.298 183.749 213.01 183.024 213.01 182.192C213.01 181.168 213.629 180.613 214.866 180.528C215.079 181.723 215.581 182.608 216.37 183.184C217.181 183.739 218.205 184.016 219.442 184.016C220.679 184.016 221.639 183.835 222.322 183.472C223.005 183.109 223.346 182.555 223.346 181.808C223.346 181.275 223.207 180.848 222.93 180.528C222.653 180.187 222.205 179.899 221.586 179.664C220.989 179.408 220.125 179.163 218.994 178.928C217.586 178.608 216.466 178.267 215.634 177.904C214.802 177.541 214.162 177.061 213.714 176.464C213.287 175.867 213.074 175.077 213.074 174.096C213.074 173.264 213.33 172.517 213.842 171.856C214.354 171.173 215.058 170.651 215.954 170.288C216.871 169.904 217.906 169.712 219.058 169.712C220.125 169.712 221.127 169.861 222.066 170.16C223.026 170.459 223.794 170.885 224.37 171.44C224.967 171.995 225.266 172.635 225.266 173.36C225.266 173.851 225.074 174.245 224.69 174.544C224.306 174.821 223.773 174.981 223.09 175.024C223.026 174.085 222.642 173.349 221.938 172.816C221.255 172.261 220.295 171.984 219.058 171.984C218.034 171.984 217.223 172.176 216.626 172.56C216.029 172.944 215.73 173.456 215.73 174.096C215.73 174.779 216.007 175.291 216.562 175.632C217.138 175.952 218.109 176.261 219.474 176.56C221.714 177.008 223.357 177.627 224.402 178.416C225.469 179.184 226.002 180.283 226.002 181.712C226.002 183.163 225.415 184.293 224.242 185.104C223.069 185.893 221.415 186.288 219.282 186.288Z" fill="white"/>
<path d="M306.875 252.542C306.875 245.156 306.875 241.464 309.169 239.169C311.464 236.875 315.156 236.875 322.542 236.875H326.458C333.844 236.875 337.536 236.875 339.831 239.169C342.125 241.464 342.125 245.156 342.125 252.542V256.458C342.125 263.844 342.125 267.536 339.831 269.831C337.536 272.125 333.844 272.125 326.458 272.125H322.542C315.156 272.125 311.464 272.125 309.169 269.831C306.875 267.536 306.875 263.844 306.875 256.458V252.542Z" stroke="#B8F14A" stroke-width="3.91667"/>
<path d="M324.5 246.667L324.5 262.333" stroke="#B8F14A" stroke-width="3.91667" stroke-linecap="square" stroke-linejoin="round"/>
<path d="M332.333 254.5L316.667 254.5" stroke="#B8F14A" stroke-width="3.91667" stroke-linecap="square" stroke-linejoin="round"/>
<circle cx="65.5" cy="254.5" r="17.625" stroke="#B8F14A" stroke-width="3.91667"/>
<path d="M57 254H74.625" stroke="#B8F14A" stroke-width="3.91667"/>
<path d="M185.731 267C185.166 267 184.714 266.845 184.374 266.534C184.063 266.223 183.908 265.799 183.908 265.262C183.908 263.085 184.742 261.05 186.41 259.156C188.077 257.262 190.692 255.382 194.254 253.517C196.289 252.443 197.829 251.524 198.875 250.761C199.949 249.969 200.684 249.192 201.08 248.429C201.504 247.637 201.716 246.705 201.716 245.63C201.716 243.963 201.165 242.691 200.062 241.814C198.988 240.938 197.405 240.5 195.314 240.5C193.052 240.5 191.286 241.037 190.014 242.111C188.77 243.185 188.148 244.683 188.148 246.606C188.148 247.114 188.19 247.651 188.275 248.217L187.766 248.259C186.749 248.259 185.887 247.962 185.18 247.369C184.473 246.775 184.12 246.04 184.12 245.164C184.12 243.638 184.615 242.253 185.604 241.009C186.593 239.737 187.936 238.747 189.632 238.041C191.356 237.306 193.25 236.938 195.314 236.938C197.434 236.938 199.285 237.292 200.868 237.998C202.451 238.705 203.666 239.723 204.514 241.051C205.362 242.351 205.786 243.878 205.786 245.63C205.786 247.637 205.051 249.446 203.582 251.058C202.14 252.669 199.695 254.379 196.246 256.188C191.243 258.845 188.6 261.29 188.318 263.523H202.861C203.935 263.523 204.755 263.82 205.32 264.414C205.885 265.007 206.168 265.869 206.168 267H185.731Z" fill="white"/>
<rect x="116" y="369" width="159" height="94" rx="14" fill="#434B53"/>
<path d="M161.24 331.008C161.24 330.603 161.379 330.272 161.656 330.016C161.955 329.739 162.328 329.6 162.776 329.6H171.608C173.677 329.6 175.32 330.208 176.536 331.424C177.773 332.619 178.392 334.219 178.392 336.224C178.392 338.741 177.293 340.523 175.096 341.568V341.664C176.056 342.069 176.792 342.688 177.304 343.52C177.816 344.331 178.072 345.323 178.072 346.496V349.792C178.072 350.603 177.816 351.221 177.304 351.648C176.792 352.075 176.045 352.288 175.064 352.288V346.688C175.064 345.429 174.776 344.48 174.2 343.84C173.645 343.179 172.813 342.848 171.704 342.848H164.216V349.792C164.216 350.603 163.96 351.221 163.448 351.648C162.957 352.075 162.221 352.288 161.24 352.288V331.008ZM171.512 340.256C172.685 340.256 173.613 339.893 174.296 339.168C175 338.443 175.352 337.451 175.352 336.192C175.352 334.912 175.021 333.931 174.36 333.248C173.699 332.565 172.749 332.224 171.512 332.224H164.216V340.256H171.512ZM188.172 352.288C186.871 352.288 185.708 352.043 184.684 351.552C183.66 351.04 182.86 350.347 182.284 349.472C181.708 348.576 181.42 347.573 181.42 346.464V341.728C181.42 340.597 181.719 339.573 182.316 338.656C182.935 337.739 183.756 337.024 184.78 336.512C185.825 335.979 186.956 335.712 188.172 335.712C189.388 335.712 190.497 335.968 191.5 336.48C192.524 336.992 193.324 337.696 193.9 338.592C194.497 339.488 194.796 340.501 194.796 341.632V343.68C194.796 344.021 194.668 344.309 194.412 344.544C194.156 344.779 193.847 344.896 193.484 344.896H184.14V346.336C184.14 347.424 184.481 348.299 185.164 348.96C185.868 349.621 186.871 349.952 188.172 349.952C189.473 349.952 190.465 349.664 191.148 349.088C191.831 348.512 192.172 347.733 192.172 346.752C192.812 346.709 193.345 346.837 193.772 347.136C194.22 347.413 194.444 347.829 194.444 348.384C194.444 349.067 194.145 349.707 193.548 350.304C192.972 350.901 192.204 351.381 191.244 351.744C190.284 352.107 189.26 352.288 188.172 352.288ZM192.204 342.72V341.632C192.204 340.565 191.831 339.701 191.084 339.04C190.359 338.357 189.388 338.016 188.172 338.016C186.956 338.016 185.975 338.357 185.228 339.04C184.503 339.701 184.14 340.565 184.14 341.632V342.72H192.204ZM198.49 337.984C198.49 337.28 198.703 336.725 199.13 336.32C199.578 335.915 200.25 335.712 201.146 335.712V337.504L200.506 338.336L200.602 338.464C201.263 337.611 202.021 336.939 202.874 336.448C203.727 335.957 204.741 335.712 205.914 335.712C207.749 335.712 209.231 336.224 210.362 337.248C211.493 338.251 212.058 339.595 212.058 341.28V346.752C212.058 348.437 211.471 349.781 210.298 350.784C209.125 351.787 207.599 352.288 205.722 352.288C204.719 352.288 203.791 352.085 202.938 351.68C202.106 351.253 201.37 350.699 200.73 350.016L200.634 350.176C200.783 350.389 201.007 350.624 201.306 350.88V356.512C201.306 357.963 200.367 358.688 198.49 358.688V337.984ZM205.306 349.824C206.565 349.824 207.546 349.547 208.25 348.992C208.954 348.416 209.306 347.627 209.306 346.624V341.408C209.306 340.363 208.954 339.563 208.25 339.008C207.546 338.453 206.554 338.176 205.274 338.176C204.143 338.176 203.194 338.475 202.426 339.072C201.658 339.648 201.274 340.373 201.274 341.248V346.784C201.274 347.637 201.637 348.363 202.362 348.96C203.087 349.536 204.069 349.824 205.306 349.824ZM221.188 352.288C220.1 352.288 219.076 352.128 218.116 351.808C217.156 351.467 216.378 350.987 215.78 350.368C215.204 349.749 214.916 349.024 214.916 348.192C214.916 347.168 215.535 346.613 216.772 346.528C216.986 347.723 217.487 348.608 218.276 349.184C219.087 349.739 220.111 350.016 221.348 350.016C222.586 350.016 223.546 349.835 224.228 349.472C224.911 349.109 225.252 348.555 225.252 347.808C225.252 347.275 225.114 346.848 224.836 346.528C224.559 346.187 224.111 345.899 223.492 345.664C222.895 345.408 222.031 345.163 220.9 344.928C219.492 344.608 218.372 344.267 217.54 343.904C216.708 343.541 216.068 343.061 215.62 342.464C215.194 341.867 214.98 341.077 214.98 340.096C214.98 339.264 215.236 338.517 215.748 337.856C216.26 337.173 216.964 336.651 217.86 336.288C218.778 335.904 219.812 335.712 220.964 335.712C222.031 335.712 223.034 335.861 223.972 336.16C224.932 336.459 225.7 336.885 226.276 337.44C226.874 337.995 227.172 338.635 227.172 339.36C227.172 339.851 226.98 340.245 226.596 340.544C226.212 340.821 225.679 340.981 224.996 341.024C224.932 340.085 224.548 339.349 223.844 338.816C223.162 338.261 222.202 337.984 220.964 337.984C219.94 337.984 219.13 338.176 218.532 338.56C217.935 338.944 217.636 339.456 217.636 340.096C217.636 340.779 217.914 341.291 218.468 341.632C219.044 341.952 220.015 342.261 221.38 342.56C223.62 343.008 225.263 343.627 226.308 344.416C227.375 345.184 227.908 346.283 227.908 347.712C227.908 349.163 227.322 350.293 226.148 351.104C224.975 351.893 223.322 352.288 221.188 352.288Z" fill="white"/>
<path d="M306.875 414.542C306.875 407.156 306.875 403.464 309.169 401.169C311.464 398.875 315.156 398.875 322.542 398.875H326.458C333.844 398.875 337.536 398.875 339.831 401.169C342.125 403.464 342.125 407.156 342.125 414.542V418.458C342.125 425.844 342.125 429.536 339.831 431.831C337.536 434.125 333.844 434.125 326.458 434.125H322.542C315.156 434.125 311.464 434.125 309.169 431.831C306.875 429.536 306.875 425.844 306.875 418.458V414.542Z" stroke="#B8F14A" stroke-width="3.91667"/>
<path d="M324.5 408.667L324.5 424.333" stroke="#B8F14A" stroke-width="3.91667" stroke-linecap="square" stroke-linejoin="round"/>
<path d="M332.333 416.5L316.667 416.5" stroke="#B8F14A" stroke-width="3.91667" stroke-linecap="square" stroke-linejoin="round"/>
<circle cx="65.5" cy="416.5" r="17.625" stroke="#B8F14A" stroke-width="3.91667"/>
<path d="M57 416H74.625" stroke="#B8F14A" stroke-width="3.91667"/>
<path d="M201.122 405.797H186.494C185.533 405.797 184.784 405.5 184.247 404.906C183.738 404.313 183.484 403.451 183.484 402.32H204.09C204.684 402.32 205.15 402.475 205.49 402.786C205.829 403.097 205.998 403.507 205.998 404.016C205.998 404.355 205.928 404.666 205.786 404.949L192.685 430.855C192.176 431.873 191.399 432.382 190.353 432.382C189.477 432.382 188.699 432.141 188.021 431.661L201.122 405.797Z" fill="white"/>
<rect x="117" y="533" width="159" height="94" rx="14" fill="#434B53"/>
<path d="M153.6 519.288C152.832 519.288 152.203 519.107 151.712 518.744C151.221 518.36 150.891 517.827 150.72 517.144L145.44 496.6C145.76 496.408 146.165 496.312 146.656 496.312C147.275 496.312 147.797 496.472 148.224 496.792C148.651 497.091 148.928 497.507 149.056 498.04L152.544 513.208L152.032 515.096L152.224 515.16L157.376 497.304C157.461 496.984 157.621 496.739 157.856 496.568C158.112 496.397 158.411 496.312 158.752 496.312C159.072 496.312 159.36 496.397 159.616 496.568C159.872 496.739 160.043 496.984 160.128 497.304L164.576 513.336L164.128 515.288L164.32 515.352L168.448 498.04C168.576 497.507 168.843 497.091 169.248 496.792C169.675 496.472 170.187 496.312 170.784 496.312C171.275 496.312 171.701 496.408 172.064 496.6L166.784 517.144C166.613 517.827 166.272 518.36 165.76 518.744C165.269 519.107 164.64 519.288 163.872 519.288L158.4 499.928L158.208 499.992L158.624 501.496L153.6 519.288ZM180.078 519.288C178.777 519.288 177.614 519.043 176.59 518.552C175.566 518.04 174.766 517.347 174.19 516.472C173.614 515.576 173.326 514.573 173.326 513.464V508.728C173.326 507.597 173.625 506.573 174.222 505.656C174.841 504.739 175.662 504.024 176.686 503.512C177.732 502.979 178.862 502.712 180.078 502.712C181.294 502.712 182.404 502.968 183.406 503.48C184.43 503.992 185.23 504.696 185.806 505.592C186.404 506.488 186.702 507.501 186.702 508.632V510.68C186.702 511.021 186.574 511.309 186.318 511.544C186.062 511.779 185.753 511.896 185.39 511.896H176.046V513.336C176.046 514.424 176.388 515.299 177.07 515.96C177.774 516.621 178.777 516.952 180.078 516.952C181.38 516.952 182.372 516.664 183.054 516.088C183.737 515.512 184.078 514.733 184.078 513.752C184.718 513.709 185.252 513.837 185.678 514.136C186.126 514.413 186.35 514.829 186.35 515.384C186.35 516.067 186.052 516.707 185.454 517.304C184.878 517.901 184.11 518.381 183.15 518.744C182.19 519.107 181.166 519.288 180.078 519.288ZM184.11 509.72V508.632C184.11 507.565 183.737 506.701 182.99 506.04C182.265 505.357 181.294 505.016 180.078 505.016C178.862 505.016 177.881 505.357 177.134 506.04C176.409 506.701 176.046 507.565 176.046 508.632V509.72H184.11ZM192.508 500.312C191.911 500.312 191.41 500.12 191.004 499.736C190.599 499.352 190.396 498.872 190.396 498.296C190.396 497.72 190.599 497.251 191.004 496.888C191.41 496.504 191.911 496.312 192.508 496.312C193.084 496.312 193.575 496.504 193.98 496.888C194.386 497.251 194.588 497.72 194.588 498.296C194.588 498.872 194.386 499.352 193.98 499.736C193.575 500.12 193.084 500.312 192.508 500.312ZM191.1 504.76C191.1 504.056 191.324 503.544 191.772 503.224C192.242 502.883 192.946 502.712 193.884 502.712V517.24C193.884 517.944 193.65 518.467 193.18 518.808C192.732 519.128 192.039 519.288 191.1 519.288V504.76ZM205.452 525.688C204.342 525.688 203.308 525.507 202.348 525.144C201.388 524.781 200.63 524.291 200.076 523.672C199.521 523.075 199.244 522.424 199.244 521.72C199.244 521.165 199.425 520.76 199.788 520.504C200.172 520.248 200.684 520.12 201.324 520.12C201.366 521.123 201.75 521.912 202.476 522.488C203.222 523.085 204.214 523.384 205.452 523.384C208.182 523.384 209.548 522.061 209.548 519.416V517.56C209.846 517.304 210.07 517.069 210.22 516.856L210.124 516.696C209.505 517.357 208.726 517.901 207.788 518.328C206.87 518.755 205.942 518.968 205.004 518.968C203.169 518.968 201.665 518.467 200.492 517.464C199.34 516.44 198.764 515.096 198.764 513.432V508.28C198.764 507.192 199.03 506.232 199.564 505.4C200.118 504.547 200.865 503.885 201.804 503.416C202.764 502.947 203.82 502.712 204.972 502.712C207.062 502.712 208.812 503.629 210.22 505.464L210.348 505.336L209.708 504.536C209.708 503.939 209.91 503.491 210.316 503.192C210.742 502.872 211.425 502.712 212.364 502.712V519.128C212.364 520.408 212.065 521.539 211.468 522.52C210.892 523.523 210.081 524.301 209.036 524.856C207.99 525.411 206.796 525.688 205.452 525.688ZM205.516 516.536C206.646 516.536 207.606 516.237 208.396 515.64C209.185 515.021 209.58 514.296 209.58 513.464V508.248C209.58 507.373 209.185 506.637 208.396 506.04C207.628 505.443 206.689 505.144 205.58 505.144C204.3 505.144 203.308 505.432 202.604 506.008C201.9 506.563 201.548 507.363 201.548 508.408V513.304C201.548 514.307 201.889 515.096 202.572 515.672C203.276 516.248 204.257 516.536 205.516 516.536ZM216.834 498.68C216.834 497.912 217.068 497.325 217.538 496.92C218.007 496.515 218.7 496.312 219.618 496.312V504.728C219.319 505.069 219.084 505.368 218.914 505.624L219.042 505.752C219.703 504.856 220.535 504.131 221.538 503.576C222.54 503 223.628 502.712 224.802 502.712C226.53 502.712 227.895 503.224 228.898 504.248C229.9 505.272 230.402 506.595 230.402 508.216V517.24C230.402 517.944 230.167 518.467 229.698 518.808C229.25 519.128 228.556 519.288 227.618 519.288V508.504C227.618 507.48 227.33 506.669 226.754 506.072C226.178 505.475 225.303 505.176 224.13 505.176C223.34 505.176 222.594 505.347 221.89 505.688C221.207 506.008 220.652 506.456 220.226 507.032C219.82 507.587 219.618 508.195 219.618 508.856V517.24C219.618 517.944 219.383 518.467 218.914 518.808C218.466 519.128 217.772 519.288 216.834 519.288V498.68ZM240.921 519.288C239.406 519.288 238.275 518.861 237.529 518.008C236.782 517.133 236.409 515.992 236.409 514.584V505.24H233.433C233.433 504.515 233.593 503.96 233.913 503.576C234.233 503.192 234.67 503 235.225 503H236.441V499.96C236.441 499.256 236.665 498.744 237.113 498.424C237.582 498.083 238.275 497.912 239.193 497.912V503H243.449C243.449 504.493 242.777 505.24 241.433 505.24H239.225V514.488C239.225 515.341 239.374 515.949 239.673 516.312C239.993 516.653 240.558 516.824 241.369 516.824C242.115 516.824 242.819 516.632 243.481 516.248C243.758 516.525 243.897 516.899 243.897 517.368C243.897 517.88 243.63 518.328 243.097 518.712C242.563 519.096 241.838 519.288 240.921 519.288Z" fill="white"/>
<path d="M306.875 578.542C306.875 571.156 306.875 567.464 309.169 565.169C311.464 562.875 315.156 562.875 322.542 562.875H326.458C333.844 562.875 337.536 562.875 339.831 565.169C342.125 567.464 342.125 571.156 342.125 578.542V582.458C342.125 589.844 342.125 593.536 339.831 595.831C337.536 598.125 333.844 598.125 326.458 598.125H322.542C315.156 598.125 311.464 598.125 309.169 595.831C306.875 593.536 306.875 589.844 306.875 582.458V578.542Z" stroke="#B8F14A" stroke-width="3.91667"/>
<path d="M324.5 572.667L324.5 588.333" stroke="#B8F14A" stroke-width="3.91667" stroke-linecap="square" stroke-linejoin="round"/>
<path d="M332.333 580.5L316.667 580.5" stroke="#B8F14A" stroke-width="3.91667" stroke-linecap="square" stroke-linejoin="round"/>
<circle cx="65.5" cy="580.5" r="17.625" stroke="#B8F14A" stroke-width="3.91667"/>
<path d="M57 580H74.625" stroke="#B8F14A" stroke-width="3.91667"/>
<path d="M159.731 597C159.166 597 158.714 596.845 158.374 596.534C158.063 596.223 157.908 595.799 157.908 595.262C157.908 593.085 158.742 591.05 160.41 589.156C162.077 587.262 164.692 585.382 168.254 583.517C170.289 582.443 171.829 581.524 172.875 580.761C173.949 579.969 174.684 579.192 175.08 578.429C175.504 577.637 175.716 576.705 175.716 575.63C175.716 573.963 175.165 572.691 174.062 571.814C172.988 570.938 171.405 570.5 169.314 570.5C167.052 570.5 165.286 571.037 164.014 572.111C162.77 573.185 162.148 574.683 162.148 576.606C162.148 577.114 162.19 577.651 162.275 578.217L161.766 578.259C160.749 578.259 159.887 577.962 159.18 577.369C158.473 576.775 158.12 576.04 158.12 575.164C158.12 573.638 158.615 572.253 159.604 571.009C160.593 569.737 161.936 568.747 163.632 568.041C165.356 567.306 167.25 566.938 169.314 566.938C171.434 566.938 173.285 567.292 174.868 567.998C176.451 568.705 177.666 569.723 178.514 571.051C179.362 572.351 179.786 573.878 179.786 575.63C179.786 577.637 179.051 579.446 177.582 581.058C176.14 582.669 173.695 584.379 170.246 586.188C165.243 588.845 162.6 591.29 162.318 593.523H176.861C177.935 593.523 178.755 593.82 179.32 594.414C179.885 595.007 180.168 595.869 180.168 597H159.731ZM185.817 597C185.252 597 184.8 596.845 184.46 596.534C184.149 596.223 183.994 595.799 183.994 595.262C183.994 593.085 184.828 591.05 186.496 589.156C188.163 587.262 190.778 585.382 194.34 583.517C196.375 582.443 197.915 581.524 198.961 580.761C200.035 579.969 200.77 579.192 201.166 578.429C201.59 577.637 201.802 576.705 201.802 575.63C201.802 573.963 201.251 572.691 200.148 571.814C199.074 570.938 197.491 570.5 195.4 570.5C193.138 570.5 191.372 571.037 190.1 572.111C188.856 573.185 188.234 574.683 188.234 576.606C188.234 577.114 188.276 577.651 188.361 578.217L187.852 578.259C186.835 578.259 185.973 577.962 185.266 577.369C184.559 576.775 184.206 576.04 184.206 575.164C184.206 573.638 184.701 572.253 185.69 571.009C186.679 569.737 188.022 568.747 189.718 568.041C191.442 567.306 193.336 566.938 195.4 566.938C197.52 566.938 199.371 567.292 200.954 567.998C202.537 568.705 203.752 569.723 204.6 571.051C205.448 572.351 205.872 573.878 205.872 575.63C205.872 577.637 205.137 579.446 203.668 581.058C202.226 582.669 199.781 584.379 196.332 586.188C191.329 588.845 188.686 591.29 188.404 593.523H202.947C204.021 593.523 204.841 593.82 205.406 594.414C205.971 595.007 206.254 595.869 206.254 597H185.817ZM221.061 597.382C218.97 597.382 217.09 597.042 215.422 596.364C213.755 595.686 212.44 594.739 211.479 593.523C210.546 592.308 210.08 590.951 210.08 589.453C210.08 588.35 210.377 587.559 210.97 587.078C211.592 586.598 212.553 586.4 213.853 586.485C213.797 587.22 213.769 587.7 213.769 587.926C213.769 589.792 214.405 591.248 215.677 592.294C216.949 593.339 218.744 593.862 221.061 593.862C223.379 593.862 225.174 593.212 226.446 591.912C227.747 590.612 228.397 588.789 228.397 586.442C228.397 584.068 227.761 582.273 226.489 581.058C225.245 579.814 223.422 579.192 221.019 579.192C219.747 579.192 218.56 579.39 217.457 579.786C216.383 580.181 215.451 580.761 214.659 581.524C214.207 581.976 213.684 582.202 213.09 582.202C212.497 582.202 211.988 581.99 211.564 581.566C211.14 581.142 210.984 580.619 211.097 579.998L212.836 568.762C212.892 568.309 213.104 567.956 213.472 567.702C213.839 567.447 214.306 567.32 214.871 567.32H230.898C230.898 569.638 229.881 570.797 227.845 570.797H216.016L215.083 577.072C214.489 577.496 213.981 577.92 213.557 578.344L213.684 578.556C214.786 577.68 216.044 577.001 217.457 576.521C218.899 576.012 220.312 575.758 221.697 575.758C225.033 575.758 227.633 576.705 229.499 578.598C231.365 580.464 232.297 583.079 232.297 586.442C232.297 588.647 231.831 590.583 230.898 592.251C229.994 593.891 228.693 595.163 226.997 596.067C225.301 596.943 223.323 597.382 221.061 597.382Z" fill="white"/>
<rect x="95" y="663" width="201" height="61" rx="23" fill="#B8F14A"/>
<path d="M170.488 706.288C169.848 706.16 169.347 705.893 168.984 705.488C168.621 705.061 168.44 704.549 168.44 703.952C168.44 703.547 168.536 703.12 168.728 702.672L176.376 684.272C176.632 683.632 177.123 683.312 177.848 683.312C178.531 683.312 179.011 683.632 179.288 684.272L186.936 702.672C187.128 703.12 187.224 703.547 187.224 703.952C187.224 704.528 187.043 705.029 186.68 705.456C186.317 705.883 185.816 706.16 185.176 706.288L182.424 699.6H173.24L170.488 706.288ZM181.496 697.008L177.368 686.544L177.112 686.64L177.688 688.112L174.168 697.008H181.496ZM195.627 706.288C193.793 706.288 192.299 705.787 191.147 704.784C190.017 703.76 189.451 702.405 189.451 700.72V695.248C189.451 694.16 189.718 693.2 190.251 692.368C190.785 691.515 191.521 690.864 192.459 690.416C193.419 689.947 194.518 689.712 195.755 689.712C196.758 689.712 197.686 689.925 198.539 690.352C199.393 690.757 200.139 691.301 200.779 691.984L200.875 691.824C200.726 691.611 200.502 691.376 200.203 691.12V685.488C200.203 684.784 200.438 684.251 200.907 683.888C201.377 683.504 202.081 683.312 203.019 683.312V704.016C203.019 704.72 202.806 705.275 202.379 705.68C201.974 706.085 201.313 706.288 200.395 706.288V704.496C200.694 704.112 200.897 703.835 201.003 703.664L200.907 703.536C200.225 704.389 199.467 705.061 198.635 705.552C197.803 706.043 196.801 706.288 195.627 706.288ZM196.235 703.824C197.366 703.824 198.315 703.536 199.083 702.96C199.851 702.363 200.235 701.627 200.235 700.752V695.216C200.235 694.363 199.873 693.648 199.147 693.072C198.422 692.475 197.441 692.176 196.203 692.176C194.945 692.176 193.963 692.464 193.259 693.04C192.577 693.595 192.235 694.373 192.235 695.376V700.592C192.235 701.637 192.577 702.437 193.259 702.992C193.963 703.547 194.955 703.824 196.235 703.824ZM213.346 706.288C211.511 706.288 210.018 705.787 208.866 704.784C207.735 703.76 207.17 702.405 207.17 700.72V695.248C207.17 694.16 207.437 693.2 207.97 692.368C208.503 691.515 209.239 690.864 210.178 690.416C211.138 689.947 212.237 689.712 213.474 689.712C214.477 689.712 215.405 689.925 216.258 690.352C217.111 690.757 217.858 691.301 218.498 691.984L218.594 691.824C218.445 691.611 218.221 691.376 217.922 691.12V685.488C217.922 684.784 218.157 684.251 218.626 683.888C219.095 683.504 219.799 683.312 220.738 683.312V704.016C220.738 704.72 220.525 705.275 220.098 705.68C219.693 706.085 219.031 706.288 218.114 706.288V704.496C218.413 704.112 218.615 703.835 218.722 703.664L218.626 703.536C217.943 704.389 217.186 705.061 216.354 705.552C215.522 706.043 214.519 706.288 213.346 706.288ZM213.954 703.824C215.085 703.824 216.034 703.536 216.802 702.96C217.57 702.363 217.954 701.627 217.954 700.752V695.216C217.954 694.363 217.591 693.648 216.866 693.072C216.141 692.475 215.159 692.176 213.922 692.176C212.663 692.176 211.682 692.464 210.978 693.04C210.295 693.595 209.954 694.373 209.954 695.376V700.592C209.954 701.637 210.295 702.437 210.978 702.992C211.682 703.547 212.674 703.824 213.954 703.824Z" fill="black"/>
<rect y="752" width="390" height="92" fill="black"/>
<path d="M58.1348 809.773V806.716C58.1348 805.935 58.7722 805.302 59.5584 805.302H62.4326C62.8102 805.302 63.1723 805.451 63.4393 805.716C63.7063 805.981 63.8563 806.341 63.8563 806.716V809.773C63.8539 810.098 63.9821 810.41 64.2124 810.64C64.4427 810.87 64.756 811 65.0829 811H67.0438C67.9596 811.002 68.8388 810.643 69.4872 810.001C70.1356 809.359 70.5 808.487 70.5 807.578V798.867C70.5 798.132 70.1721 797.436 69.6046 796.965L62.934 791.676C61.7737 790.749 60.1111 790.779 58.9854 791.747L52.467 796.965C51.8727 797.422 51.5176 798.121 51.5 798.867V807.569C51.5 809.464 53.0474 811 54.9562 811H56.8723C57.5512 811 58.103 810.456 58.1079 809.782L58.1348 809.773Z" fill="white"/>
<path fill-rule="evenodd" clip-rule="evenodd" d="M160.519 792C160.565 792 160.611 792 160.657 792C160.703 792 160.749 792 160.795 792C161.419 791.999 161.958 791.999 162.432 792.12C163.706 792.446 164.701 793.395 165.042 794.61C165.17 795.063 165.169 795.577 165.168 796.173C165.168 796.216 165.168 796.26 165.168 796.304V796.713C167.467 796.911 169.269 798.755 169.269 801C169.269 803.245 167.467 805.089 165.168 805.287V805.696C165.168 805.74 165.168 805.783 165.168 805.827C165.169 806.423 165.17 806.937 165.042 807.39C164.701 808.605 163.706 809.554 162.432 809.88C161.958 810.001 161.419 810.001 160.795 810C160.749 810 160.703 810 160.657 810C160.611 810 160.565 810 160.519 810C159.895 810.001 159.356 810.001 158.882 809.88C157.608 809.554 156.613 808.605 156.272 807.39C156.145 806.937 156.145 806.423 156.146 805.827C156.146 805.783 156.146 805.74 156.146 805.696V802.174H147.123V805.696C147.123 805.74 147.124 805.783 147.124 805.827C147.124 806.423 147.125 806.937 146.998 807.39C146.656 808.605 145.662 809.554 144.388 809.88C143.913 810.001 143.375 810.001 142.75 810C142.704 810 142.659 810 142.612 810C142.566 810 142.52 810 142.475 810C141.85 810.001 141.311 810.001 140.837 809.88C139.563 809.554 138.568 808.605 138.227 807.39C138.1 806.937 138.1 806.423 138.101 805.827C138.101 805.783 138.101 805.74 138.101 805.696V805.287C135.802 805.089 134 803.245 134 801C134 798.755 135.802 796.911 138.101 796.713V796.304C138.101 796.26 138.101 796.216 138.101 796.173C138.1 795.577 138.1 795.063 138.227 794.61C138.568 793.395 139.563 792.446 140.837 792.12C141.311 791.999 141.85 791.999 142.475 792C142.52 792 142.566 792 142.612 792C142.659 792 142.704 792 142.75 792C143.375 791.999 143.913 791.999 144.388 792.12C145.662 792.446 146.656 793.395 146.998 794.61C147.125 795.063 147.124 795.577 147.124 796.173C147.124 796.216 147.123 796.26 147.123 796.304V799.826H156.146V796.304C156.146 796.26 156.146 796.216 156.146 796.173C156.145 795.577 156.145 795.063 156.272 794.61C156.613 793.395 157.608 792.446 158.882 792.12C159.356 791.999 159.895 791.999 160.519 792ZM138.101 799.083C137.165 799.264 136.461 800.053 136.461 801C136.461 801.947 137.165 802.736 138.101 802.917V799.083ZM165.168 802.917C166.104 802.736 166.809 801.947 166.809 801C166.809 800.053 166.104 799.264 165.168 799.083V802.917ZM160.657 794.348C159.815 794.348 159.635 794.358 159.518 794.388C159.094 794.497 158.762 794.813 158.649 795.218C158.617 795.33 158.607 795.501 158.607 796.304V805.696C158.607 806.499 158.617 806.67 158.649 806.782C158.762 807.187 159.094 807.503 159.518 807.612C159.635 807.642 159.815 807.652 160.657 807.652C161.499 807.652 161.679 807.642 161.796 807.612C162.22 807.503 162.552 807.187 162.666 806.782C162.697 806.67 162.708 806.499 162.708 805.696V796.304C162.708 795.501 162.697 795.33 162.666 795.218C162.552 794.813 162.22 794.497 161.796 794.388C161.679 794.358 161.499 794.348 160.657 794.348ZM142.612 794.348C141.77 794.348 141.591 794.358 141.474 794.388C141.049 794.497 140.717 794.813 140.604 795.218C140.572 795.33 140.562 795.501 140.562 796.304V805.696C140.562 806.499 140.572 806.67 140.604 806.782C140.717 807.187 141.049 807.503 141.474 807.612C141.591 807.642 141.77 807.652 142.612 807.652C143.454 807.652 143.634 807.642 143.751 807.612C144.175 807.503 144.507 807.187 144.621 806.782C144.652 806.67 144.663 806.499 144.663 805.696V796.304C144.663 795.501 144.652 795.33 144.621 795.218C144.507 794.813 144.175 794.497 143.751 794.388C143.634 794.358 143.454 794.348 142.612 794.348Z" fill="#B8F14A"/>
<path d="M248.269 789H233.269C232.474 789 231.711 789.316 231.148 789.879C230.585 790.441 230.269 791.204 230.269 792V810C230.269 810.796 230.585 811.559 231.148 812.121C231.711 812.684 232.474 813 233.269 813H250.269V791C250.269 790.47 250.059 789.961 249.684 789.586C249.308 789.211 248.8 789 248.269 789V789ZM248.269 807H236.269V791H248.269V807ZM233.269 791H234.269V807H233.286C232.939 807.003 232.595 807.066 232.269 807.187V792C232.269 791.735 232.375 791.48 232.562 791.293C232.75 791.105 233.004 791 233.269 791ZM233.269 811C233.005 811 232.752 810.896 232.565 810.71C232.378 810.524 232.271 810.272 232.269 810.008H232.284C232.283 809.876 232.308 809.745 232.358 809.623C232.408 809.501 232.481 809.389 232.574 809.296C232.667 809.202 232.778 809.128 232.9 809.077C233.022 809.026 233.152 809 233.284 809H248.269V811H233.269Z" fill="white"/>
<ellipse cx="326.477" cy="798.477" rx="6.47727" ry="6.47727" fill="#D9D9D9"/>
<ellipse cx="326.269" cy="801" rx="15" ry="15" stroke="#2C2C2E" stroke-width="0.681818"/>
<ellipse cx="325.886" cy="810.773" rx="9.88636" ry="4.77273" fill="#D9D9D9"/>
</g>
<defs>
<clipPath id="clip0_126_1804">
<rect width="390" height="844" fill="white"/>
</clipPath>
</defs>
</svg>
