<svg width="75" height="100" viewBox="0 0 75 100" fill="none" xmlns="http://www.w3.org/2000/svg">
<path d="M29.5 38.4544C32.7216 45.6994 32.6092 54.0688 29.1912 61.2256M8.14815 32.3617C12.6222 31.6651 18.1319 30.6883 22.3656 29.5543L22.6542 29.8179C25.1653 32.1106 27.1296 34.7599 28.5499 37.6107C22.8972 38.6288 17.2059 39.4509 11.4864 40.0744L7.8436 40.4714C6.24174 38.277 4.39662 36.3427 2.93829 34.9454C2.25242 34.2882 1.65015 33.748 1.1961 33.3533C1.53059 33.3101 1.93182 33.2574 2.3901 33.1959C3.83985 33.0013 5.86122 32.7177 8.14815 32.3617ZM29.5726 37.4242C28.1094 34.4081 26.065 31.6039 23.4385 29.1804C34.0863 25.1108 46.8731 18.0345 57.0694 11.929C62.294 8.80043 66.8458 5.92232 70.0916 3.82628C71.6788 2.80125 72.9539 1.96312 73.8429 1.37404C70.7749 8.87262 70.934 17.329 74.3204 24.7282C59.8236 30.3595 44.8409 34.6079 29.5726 37.4242ZM11.5947 41.0685C17.4273 40.4327 23.2304 39.5912 28.9936 38.5467C32.2233 45.7209 32.1114 54.0356 28.6866 61.1212C23.1425 59.9787 17.5654 58.9867 11.9614 58.1468L8.47851 57.6248C10.1733 55.1129 11.5 52.2706 11.5 49.5C11.5 46.7406 10.1841 43.9103 8.49918 41.4059L11.5947 41.0685ZM29.6948 61.3307C33.1074 54.1025 33.2203 45.6771 30.0055 38.3611C45.0534 35.5694 59.8238 31.392 74.1263 25.8756C74.1143 25.9075 74.1021 25.9399 74.0896 25.9731C73.8117 26.7124 73.4228 27.7746 72.9783 29.0682C72.0897 31.6542 70.9767 35.1702 70.0829 38.883C69.1836 42.6188 68.5 46.5787 68.5 50C68.5 53.4213 69.1836 57.3812 70.0829 61.117C70.9767 64.8298 72.0897 68.3458 72.9783 70.9318C73.4228 72.2254 73.8117 73.2876 74.0896 74.0269C74.1046 74.0668 74.1193 74.1056 74.1336 74.1436C59.6508 68.7764 44.7967 64.4948 29.6948 61.3307ZM11.8132 59.1358C17.3091 59.9595 22.779 60.93 28.2172 62.0456C26.7751 64.7526 24.8336 67.2595 22.3934 69.428C17.404 67.611 11.863 66.6321 7.55396 66.1059C5.35616 65.8374 3.47294 65.6861 2.13839 65.6018C1.82967 65.5823 1.55025 65.5664 1.30302 65.5535C1.74291 65.1686 2.30496 64.6614 2.93829 64.0546C4.39418 62.6597 6.23556 60.7295 7.83555 58.5396L11.8132 59.1358ZM23.4468 69.8232C25.8712 67.5869 27.8019 65.0196 29.2362 62.2565C44.5617 65.4541 59.632 69.806 74.3173 75.2787C70.9434 82.6556 70.7767 91.0826 73.8174 98.5633C72.9299 97.9482 71.6671 97.0803 70.1 96.023C66.854 93.833 62.3019 90.8295 57.0768 87.5756C46.8832 81.2274 34.0974 73.9064 23.4468 69.8232Z" fill="white" stroke="black"/>
</svg>
