<svg width="1700" height="2268" viewBox="0 0 1700 2268" fill="none" xmlns="http://www.w3.org/2000/svg">
<path d="M1587.5 995C1541.5 1552 1264.21 2207 849.999 2207C435.786 2207 146 1535.5 118 995C88.5005 339 435.786 59 849.999 59C1264.21 59 1601 312 1587.5 995Z" fill="#FF2C2C"/>
<path d="M212 923L495.5 1225L754 1453.5L621.5 1529.5H456L341.5 1466.5L239 1365.5L179 1113L212 923Z" fill="#D9D9D9"/>
<path d="M1488 923L1204.5 1225L946 1453.5L1078.5 1529.5H1244L1358.5 1466.5L1461 1365.5L1521 1113L1488 923Z" fill="#D9D9D9"/>
<path d="M796 51.333C707.734 57.5997 620.534 74.7996 552.667 99.5996C401.6 154.533 286 259.6 205.867 414.666C151.334 520.266 118.934 636.666 106.8 770.666C101.6 828.533 100.667 850.533 100.667 926C100.667 1001.33 101.334 1015.6 106.8 1071.33C116.8 1173.33 147.6 1320.93 185.467 1447.87C243.734 1643.07 336.667 1839.47 430.267 1964.8C478.8 2030 539.2 2091.6 592.667 2130.67C652.267 2174.13 720.934 2203.07 788.934 2213.33C836.8 2220.53 889.6 2219.07 936.134 2209.2C1070 2180.93 1192 2084.67 1300.93 1921.33C1409.6 1758.27 1490 1564.67 1550 1321.33C1578.4 1206 1593.2 1114.53 1598.67 1019.33C1600.67 987.466 1599.6 818.4 1597.47 794.666C1590.93 723.466 1582.4 670.266 1568.53 614.666C1521.33 424.933 1433.33 279.733 1309.07 186.4C1267.73 155.333 1217.07 126.8 1168.8 107.333C1102.27 80.533 1020.93 61.5997 937.334 53.1997C911.734 50.6664 822.534 49.4663 796 51.333ZM930 69.8665C971.467 73.1998 1004.4 77.9997 1029.33 84.1331C1044.93 87.9997 1061.33 93.733 1061.33 95.333C1061.33 96.933 1034.27 108.4 1017.33 114C913.334 148.266 759.867 145.066 662.667 106.666C654.267 103.333 645.334 99.4664 642.8 98.1331L638.267 95.7332L649.067 91.4663C675.867 81.1996 720.534 73.4664 772.667 69.9998C785.2 69.1998 798.667 68.3997 802.667 68.1331C816.934 67.1997 912.934 68.5331 930 69.8665ZM1092 111.733C1092 118.666 1079.33 204.533 1071.33 252C1066.67 279.866 1061.2 314.266 1059.33 328.533C1054.13 366.533 1049.2 378.666 1033.07 393.333C1021.73 403.466 1000 413.6 964.667 425.2C907.867 443.733 849.067 448.266 790.667 438.533C742.267 430.533 682.8 407.866 663.867 390.266C651.6 378.933 648.934 372.133 643.467 338C621.6 202.533 610.534 127.466 611.067 120.266C611.467 116 612.134 112.133 612.4 111.733C612.8 111.333 619.6 113.2 627.6 115.866C677.334 132.4 734 144.266 792 150.266C817.6 152.933 888.667 152.533 916 149.6C969.867 143.733 1028.67 130.533 1075.47 114C1083.47 111.2 1090.4 108.8 1091.07 108.8C1091.6 108.666 1092 110 1092 111.733ZM559.467 123.866C553.467 139.6 546.534 151.466 530.8 172.666C518 189.866 483.067 225.733 462 243.2C404.8 290.533 337.467 327.066 293.067 334.8C286.534 335.866 279.467 336.666 277.2 336.4L273.2 336L287.734 316.666C342.267 244.266 403.867 191.466 482.667 149.6C503.6 138.533 556.134 115.6 560.934 115.333C562.134 115.333 561.6 117.866 559.467 123.866ZM1148.93 121.333C1240.27 145.733 1367.6 241.466 1416 322C1419.6 328.133 1422.67 333.6 1422.67 334.266C1422.67 337.333 1396.67 333.6 1379.33 327.866C1334.4 313.333 1284.93 283.066 1237.33 241.2C1218 224.266 1189.6 194.933 1174.8 176.666C1158.27 156.533 1132.67 118 1135.6 118C1136.13 118 1142.27 119.466 1148.93 121.333ZM593.334 127.6C593.334 129.066 615.6 267.066 625.467 327.333C634.134 379.733 630.267 416.666 611.867 456.533C599.467 483.2 572.934 514.8 549.334 530.933C520.534 550.533 488.267 561.333 448 564.8C423.6 566.8 378.534 564.266 363.334 560C351.334 556.533 348.667 552.8 327.467 511.733C307.334 472.666 257.334 373.066 257.334 372.133C257.334 370.8 284.267 358.8 298.667 353.733C349.2 336 397.334 311.866 436 284.933C482.4 252.533 525.2 209.733 559.6 161.333C573.334 141.866 583.6 129.6 587.734 127.733C592.4 125.6 593.334 125.6 593.334 127.6ZM1123.6 148C1199.2 249.733 1300.13 321.733 1422.53 361.466C1432.4 364.666 1440.53 367.466 1440.8 367.733C1441.07 368 1440.13 372.666 1438.8 378.133C1436.93 385.2 1425.07 410.533 1397.2 466.533C1355.07 551.2 1353.6 553.6 1340.27 559.733C1334.27 562.533 1332 562.666 1290.27 563.066C1256.8 563.333 1243.07 562.933 1230.8 561.466C1191.87 556.4 1161.6 541.6 1132.13 513.333C1113.07 494.933 1099.33 476.266 1088 453.333C1074.13 425.2 1067.6 403.2 1067.6 385.333C1067.6 368 1103.47 146.666 1108.8 131.466C1109.6 129.066 1109.33 128.8 1123.6 148ZM689.334 424.266C722.534 438.8 760.934 450 795.334 455.333C830.534 460.933 879.2 460.266 915.067 453.866C953.6 447.066 998.4 432.266 1032 415.333C1038 412.266 1043.33 410.133 1043.73 410.533C1044.13 410.933 1040.67 435.733 1036.13 465.6C1028 518.133 1023.73 544.4 1009.47 628.666C1005.87 650.266 1002 673.866 1000.8 681.066C996.8 705.6 988.8 716 965.867 726C940.134 737.2 912.134 745.466 886.534 749.2C868 752 833.334 752 814.934 749.2C777.867 743.733 732 727.2 716.8 713.866C707.2 705.466 704.267 699.2 700.667 679.6C694.8 648.133 656 413.466 656 409.733C656 409.2 660 410.666 665.067 413.2C670 415.6 680.934 420.666 689.334 424.266ZM259.6 418.266C269.6 434.133 287.067 465.466 298.667 488C348.4 585.733 369.067 676.8 361.2 765.066C357.6 806.133 344.934 842.933 323.2 875.6C314 889.466 300.8 904.666 298 904.666C295.867 904.666 282.934 888 271.734 870.666C266.934 863.333 254.267 841.333 243.6 821.866C224.534 786.933 217.067 774.133 208.534 761.466L204.267 755.066L202.134 758.133C196.934 766.266 188.934 786 182.667 806.666C175.467 830.4 166.534 854.666 163.6 858.266C162.267 860.133 159.334 857.866 140.934 840.133L120 820L132.134 798.666C199.2 681.333 239.334 552.8 248.8 424.933C249.6 413.2 249.867 412.666 252.8 412.666C255.067 412.666 256.934 414.266 259.6 418.266ZM1453.33 462.666C1464.8 543.866 1486.53 621.733 1519.73 699.333C1530.93 725.733 1557.6 778.533 1571.73 802.533C1577.73 812.666 1582.67 821.466 1582.67 822C1582.67 823.466 1542.8 854.666 1540.93 854.666C1537.6 854.666 1528 831.866 1521.33 808.4C1517.6 795.333 1513.07 781.2 1511.2 777.066C1507.47 768.533 1500.27 756.666 1498.8 756.666C1497.33 756.666 1480.4 785.2 1461.73 819.333C1452.27 836.533 1440.13 857.733 1434.8 866.266C1422.53 885.866 1403.87 910.666 1401.33 910.666C1398.27 910.666 1374.27 873.866 1364.8 854.666C1349.73 824.4 1344.4 805.2 1340.53 767.333C1337.47 737.333 1338.53 685.6 1342.67 658.666C1346.8 631.466 1351.33 612 1359.33 588C1368.4 560.533 1377.07 540.533 1392.53 511.333C1399.33 498.533 1409.07 480.133 1414 470.666C1424 451.466 1438.53 425.6 1443.87 417.333L1447.2 412L1448.93 427.333C1449.87 435.733 1451.87 451.6 1453.33 462.666ZM226.134 446C229.2 492.4 209.2 582 177.734 662C164.934 694.4 132.134 759.866 129.734 757.6C128.8 756.533 131.734 724.533 135.467 697.2C147.734 605.466 172.934 520.933 212.4 438.8L222 418.933L223.6 426.133C224.534 430.133 225.6 439.066 226.134 446ZM1496 461.333C1535.87 542.133 1560.4 632.8 1569.33 733.333C1572 762.533 1572 762.533 1555.07 729.333C1534.93 689.6 1520.93 657.733 1511.07 629.333C1488.13 563.333 1477.73 510.133 1476.53 452.666L1475.87 424L1480.67 432C1483.33 436.4 1490.13 449.6 1496 461.333ZM643.867 450.933C646.267 455.866 649.6 473.333 658.134 524C678.134 643.6 685.334 694.4 685.334 714.666C685.334 789.2 625.067 862.133 552 875.866C537.467 878.666 522.4 878.666 516.534 875.866C514 874.666 509.734 871.2 507.2 868.133C500.534 860.4 371.867 603.066 368.667 590.933C367.334 586 366.534 581.733 366.8 581.466C367.067 581.2 388.934 580.666 415.334 580.266C469.2 579.6 481.334 578.133 507.334 569.466C558.4 552.4 595.867 519.2 624.8 465.6C632.267 451.733 637.2 444.666 639.734 444.666C640.267 444.666 642.134 447.466 643.867 450.933ZM1067.33 455.6C1102.27 515.866 1142.53 552.8 1190.67 568.4C1216.8 576.933 1235.73 579.2 1292.93 580.533C1315.87 581.066 1334.93 581.733 1335.2 582.133C1335.47 582.4 1333.47 588.666 1330.67 596C1324.13 613.6 1201.73 858.133 1195.33 866.4C1188.53 875.2 1181.87 878.4 1170 878.133C1158.53 878 1136.4 873.066 1121.87 867.466C1078 850.533 1039.2 808.666 1023.47 761.466C1014.8 735.333 1014.13 712.533 1020.67 664.666C1024.13 639.066 1047.87 493.733 1050.67 481.066C1052.4 473.333 1060.27 444.666 1060.8 444.666C1060.93 444.666 1063.87 449.6 1067.33 455.6ZM1327.2 792C1334.13 828.533 1346.67 859.733 1367.47 892.133C1390.27 927.733 1391.33 933.866 1377.6 953.733C1366 970.8 1260.93 1102 1258.93 1102C1258.4 1102 1251.87 1098.93 1244.4 1095.2C1217.07 1081.73 1201.47 1059.87 1192.67 1022.67C1184.4 988.533 1185.33 956.933 1195.33 919.333C1202.27 893.866 1220.93 852.8 1263.73 768.666C1279.6 737.466 1297.73 702 1304 689.733C1313.2 671.6 1316 667.2 1319.33 665.6L1323.33 663.733L1324.13 721.866C1324.67 768.933 1325.33 782.266 1327.2 792ZM414.934 722.666C447.6 786.266 474.8 842.133 489.2 874.933C506.4 914.4 513.334 943.6 513.334 977.333C513.334 1014.53 504 1048.53 487.2 1072.13C469.2 1097.6 451.467 1100.4 429.467 1081.07C421.2 1073.87 397.467 1045.73 374.534 1016C316.267 940.266 315.6 939.466 315.734 926.666C315.734 918.4 318.8 911.866 328.667 898.666C354.667 863.866 371.067 822 375.867 777.733C376.667 770.533 377.334 742.666 377.334 715.6C377.334 688.533 377.734 666 378.267 665.466C378.8 664.933 380.667 664.666 382.4 664.933C385.2 665.333 389.6 673.2 414.934 722.666ZM986.8 766.8C984.667 784.4 977.067 833.2 970 875.333C953.6 973.866 952.267 977.6 928.667 1001.33C908.667 1021.47 887.467 1030.27 859.334 1030.4C842 1030.4 830.4 1028.13 805.334 1019.73C781.2 1011.73 770.934 1006.13 762 996.266C752.267 985.466 747.6 974.133 744 951.333C742.4 941.466 734.534 893.466 726.4 844.666C712.534 760.933 711.867 755.466 713.2 746.933C713.867 741.866 714.667 737.466 715.067 737.2C715.334 736.933 721.2 739.066 728.134 741.866C758.8 754.4 791.467 762.933 821.067 766.133C839.734 768.133 878.134 767.066 896 764C923.067 759.466 955.734 749.333 979.334 738.133C985.2 735.333 990.134 733.6 990.4 734.133C990.667 734.533 988.934 749.333 986.8 766.8ZM709.867 840.666C733.467 978.8 732.534 972.4 732.4 996C732.4 1020.4 730.267 1030.8 722 1047.6C710.8 1070.8 694.134 1086.8 668.8 1099.33C643.467 1111.73 636.134 1112.67 626.267 1104.53C621.2 1100.27 622.4 1102.93 552.534 960.533C529.467 913.6 528 910.133 528.8 905.066C529.6 899.733 529.867 899.6 535.6 898.666C553.467 896 581.067 886.8 600 877.333C638 858.266 671.6 823.733 692.267 782.8C695.334 776.8 698 772.533 698.134 773.333C698.4 774 703.734 804.4 709.867 840.666ZM1017.6 791.066C1040.8 823.333 1050 834.666 1061.33 846.133C1080.67 865.6 1096.27 874.4 1144.4 892.666L1173.6 903.733L1172.8 909.866C1172.27 914.266 1159.2 941.733 1127.47 1005.33C1102.93 1054.4 1081.07 1097.2 1078.8 1100.27C1070.53 1111.73 1061.33 1112.67 1040.53 1104C1010.4 1091.6 991.867 1074.8 980 1049.33C972 1032.4 970 1021.2 970.134 994.666C970.4 969.2 972.934 949.466 986.667 868C1000.27 788.133 1003.07 772.8 1004.13 773.466C1004.8 773.866 1010.8 781.733 1017.6 791.066ZM132.667 919.066C145.067 956.133 146.934 975.066 142.8 1023.33C140.667 1049.2 141.467 1093.47 144.667 1123.2C148.667 1160.27 156 1199.2 168.134 1247.87C176 1279.07 178.4 1294 179.334 1316.67L180.134 1333.33L176.8 1327.33C157.867 1292.27 132.134 1165.73 122 1058C116.134 994.266 115.6 926 120.8 893.466L121.6 888.133L124.134 894.8C125.6 898.4 129.334 909.333 132.667 919.066ZM1582.13 959.333C1582.67 991.866 1582.53 1016.4 1581.47 1032.67C1576.4 1111.47 1563.73 1189.87 1538.53 1299.33C1528.8 1341.73 1530 1338.4 1524.93 1337.33C1522.53 1336.8 1520.53 1336.13 1520.27 1336C1520 1335.87 1520.53 1326.67 1521.33 1315.6C1522.93 1294.8 1524.4 1287.2 1532.4 1260C1556.93 1176 1565.87 1082 1558.53 982.933C1556.27 952.666 1558.53 940.133 1571.6 911.6C1574.13 906 1576.93 899.866 1577.73 898C1579.07 894.933 1579.2 895.333 1580.27 902.666C1580.8 907.066 1581.73 932.533 1582.13 959.333ZM235.467 960.933C242.8 966.933 248.134 973.066 255.6 983.866C321.734 1079.87 408.934 1179.2 520 1285.33C565.467 1328.8 574.267 1336.67 619.334 1374.8C637.734 1390.4 660.4 1410.4 669.867 1419.47L686.934 1436L675.2 1443.73C658.4 1454.67 628.667 1468.93 610 1475.2C578.267 1485.6 547.334 1490.53 513.334 1490.53C459.467 1490.27 412.134 1474.67 371.6 1443.73C358.667 1433.87 335.334 1410.67 323.734 1396.13C276.267 1336.93 242.8 1260.67 228.667 1179.33C222 1140.4 221.067 1127.73 220.4 1061.33C219.734 1007.33 220 995.466 222.134 975.6C223.334 963.066 224.667 952.666 224.934 952.666C225.2 952.666 229.867 956.4 235.467 960.933ZM1476.4 958.8L1481.07 961.066L1482.53 974.533C1487.47 1018.93 1487.87 1093.87 1483.47 1131.33C1472.4 1224 1444.53 1301.6 1396 1374C1377.47 1401.87 1352.53 1428.8 1329.6 1445.73C1265.33 1493.47 1181.73 1503.87 1095.33 1475.2C1076 1468.8 1042 1453.2 1029.07 1444.8C1023.87 1441.47 1017.33 1433.2 1018.93 1432.13C1019.2 1431.87 1035.87 1417.47 1056 1400C1185.47 1287.6 1263.6 1210.93 1344 1117.33C1373.73 1082.67 1396.27 1054.27 1436 1001.47C1454.53 976.8 1470.27 956.666 1470.8 956.666C1471.47 956.666 1474 957.6 1476.4 958.8ZM566 1027.33C597.2 1083.07 613.334 1122.8 617.334 1153.2C620.134 1174 614.934 1192.27 602 1207.07C590.267 1220.27 579.6 1223.87 568.534 1218.27C565.467 1216.8 555.067 1208.4 545.2 1199.87C525.467 1182.4 456 1119.2 456 1118.53C456 1118.27 460.667 1114.93 466.267 1111.07C492.667 1093.33 510.4 1068.27 521.734 1033.33C525.467 1021.6 535.867 977.733 536 973.066C536 972.533 539.6 978.8 544 986.933C548.267 995.2 558.267 1013.33 566 1027.33ZM1165.2 988.266C1178.93 1051.33 1198.93 1088 1232.4 1111.87L1241.47 1118.27L1235.07 1125.2C1208 1154.53 1198.53 1164.13 1183.07 1178.27C1161.33 1198 1141.07 1214.4 1133.87 1218C1126.27 1221.73 1119.33 1221.47 1111.33 1216.8C1097.73 1208.93 1086.67 1192.67 1084.13 1176.4C1082.13 1164.13 1085.33 1136.53 1090.53 1121.73C1095.07 1108.67 1159.6 974 1161.33 974C1161.73 974 1163.47 980.4 1165.2 988.266ZM939.6 1046.67C939.2 1057.2 936.4 1078 931.6 1107.33C927.467 1131.87 922.667 1162.27 920.8 1174.8C917.067 1200.13 914.134 1209.73 907.467 1217.47C897.467 1229.2 881.867 1234 853.334 1234C814.934 1234 797.867 1228 788.934 1211.6C784.8 1204.13 783.734 1198 770 1108C765.2 1076.4 760.8 1047.6 760.267 1044C758.934 1036 760.8 1028.67 764 1028.67C765.2 1028.67 775.2 1030.53 786.134 1032.67C850.4 1045.73 866.8 1045.6 922.667 1031.07C936.534 1027.47 939.467 1026.93 939.867 1028.67C940.134 1029.73 940 1037.73 939.6 1046.67ZM753.867 1112C764.4 1176.53 769.334 1209.73 769.334 1217.07C769.334 1233.87 745.067 1256.4 724.534 1258.8C714.4 1260 705.6 1256.67 698.134 1248.67C693.467 1243.6 686.4 1230.67 664.934 1187.73L637.6 1133.2L666.534 1119.07C685.334 1109.87 698.134 1102.67 703.334 1098.4C707.734 1094.8 718.534 1083.33 727.334 1072.93C740 1058 743.6 1054.53 744.267 1056.4C744.8 1057.6 749.2 1082.67 753.867 1112ZM978.534 1078C999.334 1101.6 1010.13 1109.2 1044.67 1124C1052.8 1127.47 1059.73 1130.67 1060.4 1131.2C1061.73 1132.53 1041.87 1176.93 1023.47 1213.6C1003.33 1253.73 998.667 1258.67 980.534 1258.53C972.534 1258.53 969.734 1257.87 962.134 1254.13C951.467 1248.93 939.067 1237.2 934.934 1228.53C933.2 1224.93 932 1219.87 932 1216.27C932 1208.8 937.334 1172.27 948.134 1105.47C952.4 1078.53 956 1055.73 956 1054.8C956 1053.2 961.067 1058.4 978.534 1078ZM657.067 1208.27C665.867 1225.73 676.134 1247.47 680 1256.4C685.867 1270.53 686.8 1273.73 686.134 1278.27C685.2 1283.73 677.6 1304.67 676.534 1304.67C674.267 1304.67 652 1292.27 642 1285.47C628.934 1276.67 595.467 1244.53 596.267 1241.6C596.667 1240 640.267 1176.8 640.934 1176.67C641.2 1176.67 648.4 1190.93 657.067 1208.27ZM1106.8 1242.8C1107.6 1243.87 1100.13 1251.2 1083.73 1265.6C1036.8 1306.53 1035.6 1307.33 1027.07 1302.8C1020.53 1299.47 1014.67 1287.6 1014.4 1277.33C1014.27 1270.8 1016.8 1264.93 1042.27 1212.8L1060 1176.27L1082.8 1208.8C1095.33 1226.67 1106.13 1242 1106.8 1242.8ZM907.467 1252.27C907.067 1254.4 904.534 1269.73 902 1286.67C895.2 1330.27 891.467 1347.73 888 1352.53C881.067 1362.4 865.2 1366.8 842 1365.33C817.467 1363.6 810.4 1357.6 806.8 1334.67C806 1329.47 802.667 1308.4 799.334 1287.73C796 1267.07 793.334 1249.73 793.334 1249.33C793.334 1248.93 819.2 1248.67 850.8 1248.67H908.267L907.467 1252.27ZM782.4 1287.6C789.067 1324.53 793.334 1352.67 793.334 1360C793.334 1365.2 791.734 1368.4 781.334 1385.73C778.267 1390.8 777.467 1391.33 772.534 1391.33H766.934L740.134 1338.27L713.467 1285.07L743.734 1270.93C760.4 1263.07 774.667 1256.8 775.467 1256.67C776.267 1256.67 779.2 1270 782.4 1287.6ZM968 1275.33C977.2 1279.2 985.2 1282.8 985.734 1283.33C987.334 1284.67 975.2 1310.67 952.267 1354.93L932.8 1392.53L927.467 1389.6C915.334 1383.07 906.667 1370.93 906.667 1360.67C906.667 1358.93 910.534 1335.2 915.334 1307.73C920.134 1280.27 924 1257.6 924 1257.33C924 1256.8 933.6 1260.67 968 1275.33ZM210.134 1360C217.734 1375.73 224 1389.2 224 1389.87C224 1390.53 219.867 1391.47 214.934 1392C202.8 1393.2 196.8 1390.8 193.734 1383.73C192 1379.6 191.867 1375.6 192.534 1361.33C193.467 1342.93 194.667 1331.33 195.6 1331.33C196 1331.33 202.4 1344.27 210.134 1360ZM1507.33 1356C1510.27 1375.87 1509.47 1383.2 1503.87 1387.87C1499.6 1391.47 1492 1393.07 1482.53 1392.4L1476.4 1392L1489.73 1364.27C1497.87 1347.6 1503.47 1337.2 1504.13 1338.27C1504.67 1339.2 1506.13 1347.2 1507.33 1356ZM890 1387.73C898.4 1391.73 906.4 1398.53 910.8 1405.6C913.2 1409.47 913.334 1410.27 911.467 1413.6C910.4 1415.73 906.667 1420.13 903.067 1423.47C891.2 1434.53 874.267 1438.67 843.467 1437.73C825.734 1437.33 824.134 1437.07 816 1433.2C810 1430.4 804.534 1426.27 798.4 1419.87C793.334 1414.93 789.334 1410 789.334 1409.2C789.334 1405.6 798.4 1394.53 804.134 1390.93C815.067 1384.27 820.534 1383.47 852.667 1383.73C881.734 1384 882.134 1384 890 1387.73ZM242 1420.53C249.467 1424 253.867 1428.4 268.4 1446.67C290.667 1474.8 318.267 1499.33 349.067 1518.4C372.8 1533.2 406.8 1548.8 421.6 1551.87C444.934 1556.67 458.134 1568.27 466 1590.93C467.734 1596 471.067 1610.53 473.334 1623.33C477.2 1645.2 479.334 1654.93 484.534 1674.67C490.8 1698.13 483.6 1720.67 462.4 1744.27C400.267 1813.6 387.2 1827.33 384 1827.33C382.134 1827.33 380.134 1826.8 379.334 1826.27C378.534 1825.73 378 1812.8 377.867 1792.67C377.734 1757.73 376.267 1739.07 371.334 1709.2C363.334 1661.6 348.534 1616.93 326 1572.93C300.934 1523.6 270.934 1482.4 229.734 1440.53L210.534 1420.93L215.6 1419.6C224.134 1417.33 236.134 1417.73 242 1420.53ZM1485.47 1419.33L1490.27 1420.67L1474 1437.2C1387.6 1524.53 1339.6 1623.2 1326 1741.33C1324.8 1751.6 1323.47 1776.27 1323.07 1796.27L1322.27 1832.53L1310.93 1822.93C1301.6 1815.07 1255.07 1764.67 1231.47 1736.8C1213.73 1715.73 1211.07 1701.2 1219.2 1667.07C1221.73 1656.67 1226.53 1634.53 1230 1618C1233.47 1601.47 1237.6 1584.93 1239.2 1581.33C1245.2 1568.13 1255.07 1560.4 1271.6 1556.13C1328.27 1541.47 1383.73 1504.8 1434 1448.53C1442.8 1438.8 1451.87 1428.93 1454 1426.8C1462.13 1418.93 1473.87 1416.13 1485.47 1419.33ZM1492 1453.07C1481.33 1527.07 1396.4 1733.33 1346.13 1807.33L1336.67 1821.33L1336.27 1811.33C1335.73 1799.2 1338 1764.4 1340.8 1743.33C1352.53 1652.8 1385.33 1571.87 1439.2 1500.67C1458.53 1474.93 1492.13 1437.6 1493.07 1440.67C1493.33 1441.47 1492.93 1447.07 1492 1453.07ZM217.6 1452.27C240.4 1470.8 268.534 1506.13 291.334 1545.07C301.334 1562.27 320.667 1602.4 328.667 1622.67C355.867 1691.6 368.667 1761.07 362.534 1807.47C361.734 1813.6 360.667 1819.07 360.134 1819.6C357.734 1822.27 310.534 1730.4 287.734 1678.67C257.467 1610 228.4 1530.93 205.334 1454.67C203.867 1449.47 202.267 1444.13 201.734 1442.67C200.934 1440.13 201.067 1440.13 204.8 1442.53C206.934 1444 212.667 1448.27 217.6 1452.27ZM879.067 1457.47C886 1459.87 893.467 1467.2 896.667 1474.93C898.934 1480.4 903.334 1497.07 904.667 1505.6L905.6 1511.33H852.667H799.734L800.267 1496.27C800.667 1483.6 801.334 1480.13 804.267 1473.87C808.134 1465.47 814 1460.4 822 1458.13C829.734 1456 833.2 1455.73 854.134 1455.47C868.134 1455.33 874.4 1455.87 879.067 1457.47ZM750.667 1506.67C752.934 1508.8 755.734 1513.6 757.2 1517.2C760.667 1526.53 763.067 1543.33 761.867 1550.93C760.667 1559.47 740.667 1626.13 708.4 1728.67C677.867 1826 677.867 1826 674.134 1822C673.2 1820.93 663.334 1809.2 652.4 1796C630.667 1769.87 613.2 1752.27 600.667 1743.73C590.267 1736.67 571.467 1727.33 543.334 1715.33C530.934 1710 520.4 1705.47 520.134 1705.2C517.067 1702.53 605.2 1599.87 646.267 1558.27C664.667 1539.73 673.867 1533.33 707.734 1515.2C731.6 1502.4 732.934 1501.87 739.734 1502.4C745.2 1502.8 747.6 1503.73 750.667 1506.67ZM980.4 1507.47C990.8 1510.93 1011.07 1521.6 1023.73 1530.4C1038.27 1540.4 1051.07 1552.8 1065.07 1570.67C1080.13 1589.73 1087.07 1597.6 1121.47 1635.33C1153.07 1670 1152 1668.8 1170.27 1692.13L1185.07 1710.93L1174.13 1713.2C1112 1726.4 1064.4 1763.6 1030.27 1825.87L1025.6 1834.27L1019.6 1815.87C1008.4 1781.6 941.467 1562.8 939.2 1553.33C934.534 1533.33 939.867 1514.13 951.867 1507.73C959.334 1503.87 969.2 1503.73 980.4 1507.47ZM872.267 1525.33C877.6 1526.4 887.467 1530 894.267 1533.33C907.467 1539.87 915.067 1546.93 920.667 1558C924.134 1564.93 943.2 1625.2 978.534 1740.67C982.134 1752.8 989.734 1777.33 995.2 1795.33C1004.8 1826.93 1006.27 1835.33 1002.13 1835.33C1000.27 1835.33 973.2 1830.27 945.334 1824.8C897.867 1815.47 864.4 1811.87 839.334 1813.33C813.067 1814.8 795.334 1817.47 733.334 1829.07C719.734 1831.6 706.4 1834.13 703.467 1834.67L698.267 1835.47L698.934 1824.4C699.467 1817.07 701.067 1808.8 703.867 1800C706.267 1792.67 714.4 1767.47 722 1744C746.667 1667.87 754.934 1640.27 766.534 1595.6C770.267 1581.33 774.934 1566.67 776.934 1562.93C779.067 1559.07 784.667 1552 789.467 1547.2C808.934 1527.6 841.334 1519.07 872.267 1525.33ZM1148 1562.13C1187.2 1567.33 1219.87 1572.13 1220.4 1572.67C1221.07 1573.2 1218.8 1585.07 1215.47 1598.8C1212.13 1612.67 1206.67 1637.47 1203.33 1653.87C1200 1670.27 1197.2 1683.87 1197.07 1684C1196.8 1684.13 1194.13 1683.73 1191.07 1683.07C1185.87 1682 1183.47 1679.6 1161.73 1654.93C1083.47 1566.4 1070.27 1550.93 1073.47 1551.73C1075.2 1552.13 1108.8 1556.8 1148 1562.13ZM622.4 1559.6C571.067 1620.8 547.467 1647.6 523.467 1672.27C514 1682.13 506.134 1689.87 505.867 1689.6C504.8 1688.67 480 1575.87 480.267 1574.13C480.534 1572.53 496 1570 550 1562.53C588.134 1557.2 621.334 1552.93 623.867 1552.8L628.267 1552.67L622.4 1559.6ZM1198.27 1728.13C1200.27 1728.53 1203.6 1730 1205.6 1731.6C1209.2 1734.13 1312 1851.6 1312 1853.2C1312 1853.6 1306.67 1856.67 1300.13 1860C1211.07 1904.67 1147.33 1973.6 1111.33 2064.27L1104.93 2080.67L1100.4 2073.2C1097.2 2067.87 1091.73 2052.13 1081.87 2019.47C1074.13 1994.13 1061.47 1953.2 1053.87 1928.53C1046.13 1903.87 1039.33 1880 1038.53 1875.47C1035.6 1856.53 1044.93 1828.13 1063.6 1800.13C1086.13 1766.27 1121.07 1742.4 1164.53 1731.2C1182.67 1726.53 1188.13 1726 1198.27 1728.13ZM534.934 1730.53C579.067 1741.73 616.267 1767.87 639.334 1804C652 1823.73 664 1853.87 664 1865.87C664 1872.93 654.267 1906.27 619.867 2017.6L602 2075.2L591.2 2052.93C567.334 2004.27 542.667 1969.87 506.534 1934.53C476 1904.8 446.667 1883.73 407.734 1863.33L390.8 1854.53L398.934 1842C408.267 1827.33 410.4 1824.67 446.667 1784C461.734 1767.07 476.534 1750.27 479.734 1746.53C495.067 1728.27 509.467 1724.13 534.934 1730.53ZM894.4 1830.67C936.934 1836.67 991.067 1854.53 1007.33 1867.87C1010.4 1870.4 1015.07 1875.6 1017.6 1879.6C1024 1888.93 1032.53 1914.27 1064.8 2020C1081.87 2075.87 1083.07 2080.67 1082.93 2089.87C1082.8 2095.33 1082.4 2100 1082 2100.4C1081.73 2100.8 1061.47 2097.33 1037.07 2092.8C948.134 2076.4 913.734 2072.67 850.667 2072.67C786.667 2072.67 753.6 2076.27 661.6 2093.47C640 2097.47 621.867 2100.67 621.334 2100.67C620.667 2100.67 619.2 2098.93 618 2096.8C616.134 2093.07 616.534 2091.47 624.8 2063.73C663.734 1933.47 678.934 1885.47 684 1877.47C690.134 1867.33 705.6 1858.67 735.867 1848.13C765.2 1838 794.134 1831.47 822.934 1828.67C839.067 1827.2 876.934 1828.13 894.4 1830.67ZM1299.33 1885.47C1300.27 1890.93 1297.73 1895.87 1277.6 1926.27C1248.4 1970.27 1209.87 2017.2 1170 2057.47C1155.6 2072 1135.73 2087.33 1131.2 2087.33C1130.4 2087.33 1128.67 2086.13 1127.33 2084.67C1125.07 2082.13 1124.93 2081.2 1126.53 2075.6C1128.93 2066.13 1139.6 2040.27 1146.93 2025.47C1170.93 1977.47 1207.2 1937.07 1254.67 1905.33C1269.2 1895.6 1295.07 1880.8 1297.47 1880.67C1298 1880.67 1298.8 1882.8 1299.33 1885.47ZM410.267 1887.33C488 1920.53 558.667 2004.13 571.334 2077.87C572.534 2084.67 573.2 2090.53 572.934 2090.8C571.467 2092.4 539.867 2064.8 518.534 2043.47C492.267 2017.07 480.8 2003.73 455.334 1969.87C439.467 1948.53 396 1884.93 396 1882.8C396 1881.47 397.2 1881.87 410.267 1887.33ZM909.334 2090.13C947.2 2093.2 988.667 2099.6 1026.67 2108C1056.67 2114.67 1084.67 2122.4 1084.53 2124C1084.4 2124.67 1077.73 2129.87 1069.6 2135.33C1016.27 2171.47 954.534 2193.07 886.267 2199.47C864.134 2201.47 812.4 2200.4 793.334 2197.33C737.467 2188.67 692.134 2172.8 651.867 2147.87C638.134 2139.33 618.667 2125.2 618.667 2123.6C618.667 2122.27 658.4 2111.47 683.067 2106C721.734 2097.47 769.467 2090.93 810.267 2088.67C833.067 2087.33 885.067 2088.13 909.334 2090.13Z" fill="black"/>
</svg>
