<?xml version="1.0" standalone="no"?>
<!DOCTYPE svg PUBLIC "-//W3C//DTD SVG 20010904//EN"
 "http://www.w3.org/TR/2001/REC-SVG-20010904/DTD/svg10.dtd">
<svg version="1.0" xmlns="http://www.w3.org/2000/svg"
 width="785.000000pt" height="1017.000000pt" viewBox="0 0 785.000000 1017.000000"
 preserveAspectRatio="xMidYMid meet">
<metadata>
Created by potrace 1.16, written by Peter Selinger 2001-2019
</metadata>
<g transform="translate(0.000000,1017.000000) scale(0.100000,-0.100000)"
fill="#000000" stroke="none">
<path d="M2680 7780 c-96 -9 -178 -26 -258 -52 -35 -11 -66 -18 -69 -14 -9 8
-171 -80 -231 -126 -81 -63 -140 -134 -188 -228 -24 -47 -50 -96 -58 -110 -21
-38 -76 -277 -78 -345 -2 -33 -2 -93 0 -133 l2 -73 55 -59 56 -58 2 -125 c2
-110 5 -129 23 -149 11 -13 40 -52 64 -88 100 -148 205 -264 310 -341 l65 -48
0 -123 c0 -108 4 -137 32 -236 18 -65 45 -135 64 -165 58 -93 127 -181 169
-215 31 -26 40 -40 40 -65 0 -18 7 -61 14 -97 8 -36 13 -66 12 -67 -1 -2 -20
4 -42 12 -21 7 -107 30 -190 49 -193 46 -377 60 -649 51 -223 -8 -332 -23
-432 -61 -38 -14 -93 -34 -123 -44 -31 -10 -75 -30 -99 -43 -70 -40 -230 -177
-276 -236 -23 -31 -78 -89 -122 -129 -91 -84 -103 -109 -103 -221 0 -146 56
-301 173 -483 67 -102 85 -119 167 -157 61 -28 74 -30 235 -37 121 -5 189 -12
235 -26 36 -10 98 -28 137 -39 40 -11 106 -34 146 -53 174 -79 359 -116 555
-110 136 4 212 22 338 79 42 19 82 31 91 28 10 -4 14 -2 10 5 -8 11 68 50 162
83 30 11 64 25 75 33 50 32 133 46 275 46 126 0 142 -2 148 -17 4 -10 11 -22
16 -28 4 -5 32 -47 61 -93 32 -50 101 -132 172 -205 l119 -122 -18 -50 c-10
-27 -36 -68 -57 -91 -22 -24 -46 -58 -53 -77 -8 -19 -27 -46 -42 -60 l-28 -25
29 -46 c16 -25 32 -46 36 -46 4 0 32 -25 62 -55 52 -53 55 -54 87 -44 114 37
198 77 321 154 l77 48 33 -26 c18 -15 42 -34 53 -44 11 -10 36 -30 57 -45 34
-25 37 -31 31 -60 -8 -43 -20 -67 -50 -99 -13 -15 -41 -58 -61 -95 -33 -63
-36 -78 -42 -179 -6 -104 -8 -114 -43 -171 -20 -34 -49 -75 -66 -93 -48 -51
-97 -133 -109 -181 -6 -25 -16 -108 -22 -185 -13 -167 -4 -248 37 -331 23 -48
36 -63 73 -81 56 -28 121 -38 196 -28 54 6 61 11 117 68 53 56 121 147 170
231 11 17 27 40 36 51 68 78 83 125 111 350 11 88 25 173 30 189 6 16 10 55
10 87 0 33 4 59 10 59 5 0 12 11 16 25 3 14 10 25 15 25 29 0 139 -101 223
-203 39 -48 62 -58 152 -73 37 -5 44 -3 71 26 25 26 40 33 91 39 67 8 92 23
92 56 0 31 31 55 70 55 25 0 41 9 66 36 30 32 34 42 34 92 0 55 2 58 40 85 22
15 47 43 56 62 15 31 14 38 -2 92 -10 32 -18 87 -18 122 l-1 65 -55 43 c-30
23 -67 52 -83 64 -15 11 -42 43 -59 69 -32 50 -79 79 -128 81 -71 3 -243 -18
-272 -33 -14 -7 -18 -4 -18 12 0 21 -14 27 -25 10 -3 -5 -11 -10 -17 -10 -12
0 -5 51 17 120 55 174 49 163 96 180 82 29 134 63 204 134 107 109 204 262
285 450 72 170 123 356 135 491 3 33 10 121 16 195 15 168 7 439 -14 495 -8
22 -18 72 -21 110 -7 70 -7 70 11 43 24 -38 105 -74 184 -81 36 -3 83 -14 103
-23 32 -16 36 -22 36 -55 0 -30 -7 -43 -37 -70 -60 -51 -73 -77 -73 -142 0
-38 -8 -78 -25 -119 -34 -84 -33 -102 9 -122 45 -21 58 -20 116 9 60 30 82 68
101 172 7 40 19 75 26 77 7 3 13 1 13 -4 0 -6 9 -10 20 -10 12 0 38 -9 60 -20
44 -23 95 -25 171 -9 45 10 54 9 78 -8 42 -31 86 -45 127 -41 38 3 38 3 46
-42 4 -25 3 -60 -2 -80 -13 -45 -13 -112 0 -144 14 -38 60 -36 94 5 14 17 26
37 26 45 0 8 13 20 29 25 27 10 30 16 35 67 4 31 13 78 21 103 8 26 15 60 15
77 0 17 5 53 12 81 9 42 9 57 -6 95 -10 26 -24 46 -32 46 -12 0 -12 -4 -4 -21
11 -20 11 -20 -17 -2 -36 23 -43 32 -43 63 l0 25 20 -25 c28 -36 24 -7 -5 36
-14 20 -25 48 -25 61 0 13 -5 45 -12 70 -9 36 -20 52 -55 76 -25 18 -48 44
-55 63 -12 35 -49 59 -85 55 -13 -1 -31 8 -44 23 -13 14 -27 26 -33 26 -6 0
-31 32 -56 71 -69 109 -127 162 -234 214 -50 25 -97 45 -103 45 -5 0 -27 11
-47 25 -34 23 -109 49 -78 27 8 -5 12 -13 10 -18 -1 -5 10 -10 26 -12 28 -4
28 -4 7 -18 -19 -14 -26 -13 -74 8 -28 14 -73 30 -99 37 -44 12 -77 35 -66 46
2 2 40 -5 83 -15 91 -22 103 -24 90 -11 -12 10 -138 51 -158 51 -12 0 -44 22
-72 50 -15 14 -24 23 -94 87 -70 65 -106 119 -126 190 -7 27 -18 62 -25 78 -7
17 -12 35 -12 41 5 28 -53 195 -85 249 -20 33 -63 83 -95 110 -32 28 -60 59
-62 70 -29 161 -35 173 -151 314 -119 145 -184 203 -279 251 l-89 45 -136 0
-136 0 -90 -46 c-49 -25 -110 -57 -135 -71 -25 -15 -76 -38 -114 -52 -68 -26
-71 -26 -200 -16 -72 6 -160 8 -196 5 -90 -9 -311 -63 -332 -81 -15 -14 -17
-13 -24 8 -8 27 -34 49 -50 43 -11 -3 -29 35 -54 120 -21 68 -78 177 -130 247
-40 54 -65 76 -132 115 -124 72 -166 80 -338 63z m211 -41 c64 -20 79 -31 79
-58 l0 -26 -188 1 c-162 0 -192 3 -224 19 -61 30 -51 40 61 60 86 16 229 18
272 4z m-381 -42 c0 -7 19 -23 42 -34 l41 -21 -44 -12 c-88 -22 -116 -33 -253
-97 -116 -55 -144 -64 -165 -57 -42 15 -35 36 26 82 123 91 353 182 353 139z
m522 -30 c45 -30 135 -117 122 -117 -6 0 -23 14 -40 31 -30 32 -98 72 -106 63
-9 -8 -30 25 -23 36 8 14 9 13 47 -13z m-47 -42 c78 -21 87 -29 69 -63 -17
-32 -18 -86 -3 -114 10 -19 9 -20 -7 -13 -83 34 -149 48 -259 52 -66 3 -128
10 -138 15 -45 23 -40 109 7 128 37 15 267 11 331 -5z m-375 -14 c-15 -28 -12
-78 5 -105 15 -23 15 -23 -45 -35 -69 -14 -179 -53 -228 -82 -41 -24 -64 -24
-90 -1 -38 32 -37 60 2 96 39 37 174 98 281 126 88 24 88 24 75 1z m536 -98
c51 -46 69 -71 89 -121 14 -34 25 -72 25 -84 0 -20 -3 -19 -37 13 -21 20 -62
53 -91 73 -29 21 -57 48 -64 59 -17 32 -11 117 8 117 3 0 34 -26 70 -57z
m-1042 -38 c11 -8 31 -15 45 -15 25 -1 25 -2 -12 -32 -37 -30 -136 -147 -170
-200 -18 -28 -57 -45 -76 -33 -26 16 153 297 188 295 3 0 15 -7 25 -15z m831
-22 c97 -22 271 -113 216 -113 -22 0 -55 -76 -55 -130 l-1 -56 -70 27 c-39 15
-118 34 -177 42 -151 21 -188 51 -188 151 0 49 27 92 63 99 34 7 134 -2 212
-20z m-276 -18 c-17 -29 -20 -44 -14 -82 10 -65 22 -87 61 -108 l35 -19 -88
-19 c-146 -31 -140 -31 -147 -10 -11 32 -105 123 -127 123 -5 0 -9 -10 -9 -22
0 -13 -5 -30 -10 -38 -9 -13 -13 -12 -30 9 -57 67 17 126 225 181 39 11 82 19
97 19 l27 1 -20 -35z m-424 -55 c10 -11 24 -20 32 -20 7 0 -22 -35 -65 -77
-43 -43 -91 -95 -108 -117 -27 -35 -32 -38 -62 -31 -20 4 -37 16 -46 33 -12
24 -11 30 11 67 48 77 106 146 157 186 l51 41 6 -32 c4 -17 15 -40 24 -50z
m2510 36 c37 -11 40 -14 40 -51 1 -22 5 -48 9 -57 7 -16 3 -16 -39 3 -57 25
-184 28 -257 5 -27 -8 -48 -11 -48 -7 0 4 20 22 45 41 25 18 43 36 40 39 -3 2
-19 -5 -35 -17 -17 -12 -43 -32 -59 -44 -17 -11 -49 -24 -73 -28 -24 -4 -58
-11 -75 -15 -20 -5 -33 -4 -33 2 0 12 158 110 208 128 46 17 222 18 277 1z
m229 -135 c26 -25 65 -69 86 -96 30 -40 36 -57 32 -83 l-4 -32 -72 64 c-39 35
-93 80 -121 101 -85 64 -112 104 -93 138 9 16 14 15 66 -14 31 -18 79 -53 106
-78z m-2678 43 c-7 -18 7 -49 36 -81 18 -20 19 -24 5 -43 -36 -51 -171 -181
-186 -178 -9 2 -25 20 -35 39 -31 58 -12 103 85 200 75 75 108 97 95 63z m941
-36 c72 -76 86 -125 57 -207 -23 -66 -23 -66 -68 -24 -22 22 -58 52 -78 67
-35 25 -38 31 -38 78 0 62 33 128 65 128 11 0 39 -19 62 -42z m1549 -8 c63
-31 81 -50 46 -50 -34 0 -62 -29 -62 -65 l0 -33 -72 25 c-59 21 -93 26 -178
27 -58 0 -117 -3 -132 -7 -25 -6 -28 -5 -28 15 1 72 140 131 289 123 57 -3 88
-11 137 -35z m-530 -1 c11 -18 -8 -27 -71 -34 -66 -8 -66 1 -2 26 52 21 64 22
73 8z m52 -57 c-6 -6 -8 -25 -5 -41 6 -29 5 -30 -41 -37 -26 -4 -94 -2 -152 4
-58 7 -132 12 -164 12 -97 0 -161 28 -140 61 4 7 74 8 187 4 100 -3 202 -2
227 3 66 12 101 10 88 -6z m-518 -17 c0 -13 7 -28 15 -33 25 -13 -230 -55
-255 -42 -23 12 -26 33 -7 48 13 11 184 50 225 51 17 1 22 -5 22 -24z m544 0
c-4 -8 -10 -15 -15 -15 -4 0 -6 7 -3 15 4 8 10 15 15 15 4 0 6 -7 3 -15z m609
-28 c23 -19 67 -58 97 -87 l55 -52 -33 -14 c-18 -8 -38 -25 -44 -39 l-11 -25
-36 33 c-20 18 -68 56 -108 85 -75 56 -87 73 -77 104 15 48 96 46 157 -5z
m-2167 2 c-22 -26 -26 -40 -26 -95 0 -41 6 -73 15 -88 l15 -22 -77 -12 c-83
-13 -87 -12 -99 38 -4 14 -22 55 -40 92 l-34 68 57 16 c59 17 135 31 186 33
l29 1 -26 -31z m199 4 c58 -18 116 -46 162 -76 l31 -21 -36 -32 c-34 -30 -36
-34 -36 -97 -1 -37 -3 -66 -6 -64 -102 51 -186 77 -249 77 -17 0 -37 11 -54
28 -23 24 -27 37 -27 84 0 51 4 60 35 93 33 36 37 37 82 31 27 -4 71 -14 98
-23z m557 -60 c7 -9 6 -14 -3 -17 -8 -2 -36 -11 -64 -19 -27 -9 -50 -15 -52
-14 -1 1 -3 15 -5 32 -3 27 2 32 52 57 l55 29 3 -28 c2 -15 8 -34 14 -40z
m-1591 40 c-17 -34 -43 -119 -62 -207 -10 -49 -24 -95 -30 -102 -22 -27 -31
-2 -24 65 6 61 42 237 52 254 2 4 20 7 39 7 30 0 33 -2 25 -17z m1419 7 c0 -5
-4 -10 -10 -10 -5 0 -10 5 -10 10 0 6 5 10 10 10 6 0 10 -4 10 -10z m-1325
-50 c14 0 25 -2 25 -4 0 -2 -15 -36 -34 -77 -19 -41 -44 -107 -56 -146 -19
-64 -25 -73 -46 -73 -17 0 -25 7 -30 26 -14 54 16 207 56 295 l12 26 24 -23
c12 -13 35 -24 49 -24z m2611 35 c80 -19 187 -68 159 -73 -30 -6 -63 -40 -76
-80 -13 -41 -5 -114 16 -145 37 -53 7 -46 -125 29 -54 30 -122 59 -157 68 -85
19 -88 22 -58 58 19 23 23 34 15 42 -8 8 -15 6 -26 -8 -8 -11 -14 -15 -14 -10
0 6 5 15 11 21 11 11 5 33 -10 33 -4 0 -14 -11 -21 -25 -7 -14 -15 -23 -18
-21 -2 3 3 15 12 28 20 28 20 35 2 35 -8 0 -12 -6 -10 -12 3 -6 -2 -12 -11
-12 -8 0 -15 4 -15 8 0 14 35 49 65 64 39 19 179 20 261 0z m-1286 -32 c0 -21
-3 -24 -9 -14 -5 8 -7 20 -4 28 8 21 13 15 13 -14z m481 1 c-29 -37 -26 -70 8
-104 l28 -29 -36 -5 c-20 -3 -86 -11 -146 -17 -98 -11 -114 -10 -143 5 -25 13
-32 23 -32 45 0 15 8 35 18 44 29 26 104 54 182 67 41 6 82 13 90 15 49 9 53
6 31 -21z m249 10 c97 -12 142 -13 177 -6 26 6 49 9 51 8 1 -2 -2 -15 -8 -30
-5 -14 -8 -39 -6 -55 2 -19 -4 -39 -18 -56 l-21 -26 -130 10 c-239 21 -280 32
-297 81 -9 27 11 60 44 75 42 18 53 18 208 -1z m1066 -89 c46 -81 76 -146 72
-150 -8 -9 -119 156 -125 186 -10 49 14 33 53 -36z m-3057 20 c7 -20 23 -42
36 -51 l23 -15 -48 -72 c-27 -40 -52 -84 -55 -100 -10 -37 -21 -42 -50 -23
-31 20 -32 52 -6 128 24 71 70 168 80 168 4 0 13 -16 20 -35z m1248 -41 c-7
-65 -17 -86 -36 -74 -14 8 -14 8 16 123 2 9 9 14 15 11 6 -4 8 -28 5 -60z m43
56 c0 -5 -4 -10 -10 -10 -5 0 -10 5 -10 10 0 6 5 10 10 10 6 0 10 -4 10 -10z
m138 -1 c-27 -15 -34 -76 -13 -99 10 -11 25 -20 33 -20 31 0 1 -13 -58 -25
-52 -11 -121 -8 -135 7 -2 1 2 27 9 56 12 57 26 60 26 5 0 -48 18 -41 22 9 3
40 5 42 53 59 57 21 91 25 63 8z m1380 -54 c85 -64 125 -112 117 -139 -4 -11
-8 -34 -9 -50 -1 -21 -13 -39 -47 -67 -41 -34 -50 -38 -70 -29 -23 10 -23 10
-1 6 12 -2 22 -1 22 3 0 17 -26 31 -57 31 -37 0 -41 6 -15 27 16 14 16 14 -3
8 -50 -18 -51 -17 -83 46 -37 72 -39 96 -12 149 38 74 75 77 158 15z m-1675 7
c37 -33 41 -52 18 -83 -21 -29 -29 -89 -11 -89 5 0 19 18 30 40 26 50 50 45
50 -11 0 -21 5 -39 10 -39 6 0 10 13 10 29 0 36 11 44 50 36 24 -5 30 -12 31
-33 l2 -27 4 26 c4 24 11 28 66 38 34 7 76 14 92 17 27 6 26 3 -17 -26 -56
-37 -98 -84 -98 -110 0 -10 -7 -20 -15 -24 -8 -3 -15 -10 -15 -16 0 -6 5 -8
10 -5 6 3 10 -1 10 -9 0 -8 -5 -18 -11 -22 -8 -4 -8 -9 0 -17 6 -6 11 -15 11
-19 0 -11 -137 40 -197 74 -29 17 -53 25 -53 19 0 -9 114 -68 195 -101 26 -10
27 -13 12 -21 -24 -14 -22 -85 4 -128 11 -18 19 -35 17 -36 -2 -2 -25 -1 -51
2 -93 11 -277 176 -277 249 0 29 41 58 70 49 20 -6 29 9 11 19 -5 3 -8 14 -6
24 1 9 0 11 -2 5 -9 -27 -37 -4 -68 55 -20 41 -13 99 17 138 17 21 26 25 51
20 17 -4 39 -14 50 -24z m1097 -41 c-11 -21 -30 -37 -30 -25 0 8 30 44 37 44
2 0 -1 -9 -7 -19z m813 -14 c30 -36 87 -125 87 -135 0 -5 -9 -17 -20 -27 -11
-10 -20 -24 -20 -31 0 -25 -28 -2 -92 74 -79 94 -84 106 -57 133 26 26 75 19
102 -14z m-2703 -43 c54 -124 66 -309 29 -409 -28 -74 -64 -99 -133 -90 -64 8
-93 24 -144 79 -23 25 -51 50 -63 57 -20 10 -20 12 -6 21 10 5 17 15 17 22 0
7 14 40 31 74 23 47 48 76 109 127 49 41 90 85 107 116 16 27 29 49 31 49 1 0
12 -21 22 -46z m1490 39 c0 -5 -16 -18 -35 -30 -46 -31 -65 -61 -72 -121 -5
-45 -3 -53 21 -77 14 -14 26 -28 26 -30 0 -3 -33 -5 -72 -5 -40 0 -113 -7
-163 -15 -121 -20 -119 -20 -138 20 -29 61 -23 90 30 141 75 73 169 106 338
117 28 2 53 4 58 5 4 1 7 -1 7 -5z m208 -9 c69 -4 105 -11 109 -19 2 -7 -24
-49 -59 -94 -35 -45 -72 -94 -83 -111 -35 -51 -138 -52 -222 -3 -42 25 -43 26
-43 80 0 51 3 58 37 91 45 42 110 74 138 68 11 -3 66 -8 123 -12z m-1348 -46
c-28 -45 -27 -124 1 -154 l20 -22 -48 -6 c-26 -4 -64 -9 -84 -12 l-36 -5 -7
102 c-3 57 -3 106 1 110 11 10 49 16 115 18 l58 1 -20 -32z m222 -6 c64 -29
161 -102 137 -102 -43 0 -63 -69 -34 -123 15 -30 12 -29 -40 8 -44 31 -94 45
-161 45 -69 0 -120 25 -130 65 -9 36 3 89 28 120 20 26 25 27 80 22 34 -3 84
-17 120 -35z m1249 -5 l-34 -32 28 38 c15 21 30 35 33 32 3 -3 -9 -20 -27 -38z
m79 6 c-38 -35 -42 -43 -47 -98 -4 -48 -1 -70 14 -102 19 -39 19 -41 1 -52
-15 -9 -25 -6 -58 15 -22 15 -60 29 -84 31 l-44 5 67 67 c37 36 88 90 115 119
26 28 54 52 63 52 9 0 -1 -15 -27 -37z m264 -38 c55 -30 103 -55 108 -55 17 0
7 -37 -15 -58 -15 -14 -42 -24 -81 -28 -66 -8 -71 6 -10 26 47 16 37 23 -15
11 -36 -8 -40 -7 -30 6 11 12 8 12 -17 2 -39 -17 -56 -33 -24 -24 14 4 22 4
18 0 -4 -4 -26 -9 -50 -11 -25 -2 -63 -16 -92 -35 -47 -29 -51 -30 -63 -13
-38 52 -38 142 0 190 55 70 129 67 271 -11z m506 -57 c0 -5 -9 -4 -21 3 -12 6
-30 9 -40 6 -27 -7 -34 11 -13 34 17 19 18 19 46 -8 15 -15 28 -31 28 -35z
m-3245 -58 c0 -44 -3 -80 -6 -80 -15 0 -27 29 -33 82 -6 48 -5 58 11 67 10 6
20 11 23 11 3 0 5 -36 5 -80z m81 20 c-3 -8 -8 -35 -11 -59 -5 -32 -10 -40
-17 -30 -7 10 -8 4 -5 -18 4 -35 -2 -40 -21 -21 -7 7 -12 42 -12 89 l0 76 35
-11 c23 -7 33 -16 31 -26z m90 -59 c-5 -57 -18 -72 -65 -77 -23 -3 -23 -2 -19
70 6 93 9 98 53 77 36 -16 36 -16 31 -70z m3192 27 l-3 -23 -13 23 c-10 18
-10 26 0 45 l13 22 3 -22 c2 -13 2 -33 0 -45z m-92 33 c23 -10 45 -24 48 -30
9 -14 -12 -53 -25 -45 -5 3 -19 -6 -30 -20 -11 -14 -28 -25 -37 -24 -9 1 -34
-2 -55 -6 -41 -9 -61 -1 -37 15 13 9 13 10 0 8 -32 -3 -40 2 -40 24 0 27 6 35
48 70 39 32 71 34 128 8z m-382 -23 l-5 -23 12 23 c13 23 34 28 58 13 11 -7
12 -17 3 -52 -11 -44 -8 -64 9 -54 5 4 9 2 9 -4 0 -5 3 -18 7 -28 6 -17 6 -17
-14 0 -11 9 -25 17 -31 17 -7 0 -12 4 -12 10 0 16 -44 22 -74 10 -16 -6 -31
-8 -34 -5 -9 9 7 18 45 25 l38 7 -33 8 c-44 10 -48 20 -18 50 31 31 45 32 40
3z m570 -20 c23 -21 24 -25 11 -41 -13 -18 -15 -16 -35 22 -23 46 -14 52 24
19z m-463 -20 c-9 -25 -34 -38 -26 -14 3 9 7 23 10 32 3 8 9 13 14 9 6 -3 7
-15 2 -27z m-191 2 c0 -5 -7 -10 -15 -10 -24 0 -88 -35 -110 -61 -16 -18 -10
-16 25 9 25 17 59 34 75 37 28 5 27 4 -10 -16 -22 -12 -53 -32 -70 -45 -21
-15 -38 -21 -57 -17 -15 3 -26 9 -23 13 2 4 -7 5 -20 2 -35 -6 -31 9 10 37 39
26 56 21 36 -11 -10 -17 -7 -16 23 7 19 14 56 35 83 45 58 23 53 22 53 10z
m629 -59 c-15 -5 -18 1 -24 40 l-6 34 20 -35 c10 -19 15 -37 10 -39z m-2469
53 c0 -3 -12 -21 -27 -41 -35 -46 -45 -148 -18 -189 9 -14 14 -28 12 -31 -3
-2 -41 6 -84 19 l-78 24 4 99 c2 55 5 102 7 104 12 13 184 27 184 15z m163
-42 c28 -77 33 -175 12 -222 -10 -22 -19 -40 -21 -40 -14 0 -114 23 -135 31
-31 12 -69 76 -69 117 0 40 26 101 58 135 22 23 34 27 82 27 l56 0 17 -48z
m1533 39 c-4 -5 -3 -11 1 -14 5 -2 2 -2 -5 0 -18 4 -51 -13 -84 -45 -17 -16
-33 -22 -44 -18 -23 9 -9 23 59 58 54 27 82 35 73 19z m374 -11 c0 -5 -9 -14
-20 -20 -18 -10 -19 -9 -8 14 10 23 28 27 28 6z m-1803 -40 c29 -23 53 -44 53
-49 0 -4 -9 -16 -20 -26 -14 -13 -20 -31 -20 -61 0 -29 -8 -55 -27 -83 -36
-56 -43 -43 -9 19 15 27 22 50 16 50 -6 0 -8 5 -5 10 3 6 4 10 1 10 -3 0 -14
-17 -25 -37 -26 -50 -26 -27 0 39 11 29 16 54 11 56 -6 2 -8 13 -5 25 4 18 3
19 -6 7 -9 -12 -11 -10 -11 10 0 20 -2 22 -10 10 -7 -11 -10 -5 -10 23 0 20 3
37 7 37 3 0 30 -18 60 -40z m743 27 c0 -8 -9 -22 -21 -33 -44 -40 -65 -124
-38 -151 8 -8 8 -13 0 -17 -6 -4 -11 -4 -11 1 0 4 -66 9 -147 11 -81 2 -155 8
-166 14 -22 11 -47 66 -47 103 0 30 50 61 58 36 3 -8 28 -41 57 -75 57 -68 85
-75 118 -30 10 13 24 24 32 24 7 0 25 19 40 43 19 28 22 37 10 27 -17 -14 -18
-13 -12 3 11 30 -8 18 -27 -17 -10 -19 -32 -47 -49 -63 l-31 -28 28 38 c15 21
25 41 21 45 -4 4 -12 0 -18 -9 -15 -20 -63 -38 -52 -18 6 9 3 11 -9 6 -18 -7
-55 26 -56 49 0 13 84 32 190 43 117 13 130 12 130 -2z m1290 -32 c-19 -19
-40 -35 -48 -35 -8 0 5 18 29 39 53 47 66 44 19 -4z m261 13 c17 -23 23 -46
24 -85 0 -29 0 -53 -2 -53 -1 0 -15 20 -32 43 -33 48 -46 89 -37 112 8 23 22
18 47 -17z m-1341 18 c0 -7 -151 -130 -195 -159 -39 -27 -40 -27 -59 -7 -17
17 -18 24 -8 58 22 73 89 111 200 112 34 0 62 -2 62 -4z m187 -21 c23 -14 43
-27 43 -29 0 -12 -141 -111 -210 -147 -83 -44 -86 -45 -120 -31 -19 8 -54 17
-78 21 l-44 6 59 41 c32 23 91 69 131 103 69 57 77 61 125 61 36 0 63 -7 94
-25z m416 -12 c-7 -2 -29 -16 -49 -29 -20 -14 -39 -23 -42 -19 -7 7 -4 9 48
39 24 14 47 22 50 19 3 -3 0 -8 -7 -10z m505 -5 c-8 -12 -21 -24 -29 -26 -8
-3 -3 7 10 22 30 32 39 34 19 4z m-382 5 c-7 -7 -76 -33 -88 -33 -17 0 -6 21
15 30 26 10 83 13 73 3z m309 -2 c-6 -5 -21 -12 -35 -15 l-25 -7 25 15 c28 17
50 21 35 7z m265 -57 c50 -75 52 -80 30 -99 -18 -16 -20 -15 -41 26 -12 24
-25 55 -29 69 -4 14 -11 33 -15 43 -14 33 24 7 55 -39z m-680 32 c0 -19 -45
-47 -64 -40 -25 10 -19 21 22 37 20 9 38 16 40 16 1 1 2 -5 2 -13z m-2660 -55
c-1 -32 -70 -34 -70 -2 0 9 -3 26 -6 39 -6 22 -6 22 35 -5 22 -14 41 -29 41
-32z m2775 45 c-23 -7 -50 -18 -60 -25 -20 -12 -20 -12 0 -6 41 13 106 22 110
15 7 -12 -7 -20 -34 -20 -14 0 -33 -5 -41 -11 -11 -7 -4 -8 25 -3 36 7 39 6
26 -9 -7 -10 -22 -17 -33 -17 -11 0 -16 -5 -13 -11 4 -6 13 -8 21 -5 18 7 18
-5 0 -29 -13 -18 -14 -18 -39 1 -23 17 -66 99 -56 108 11 8 78 24 104 24 28 1
27 0 -10 -12z m-396 -29 c-10 -21 -10 -21 10 1 10 12 27 22 36 22 14 0 13 -4
-6 -21 l-24 -21 31 20 c29 20 31 20 95 3 67 -18 143 -53 154 -71 4 -6 -9 -10
-33 -10 -75 0 -129 -85 -134 -208 -1 -40 -3 -72 -4 -72 -1 0 -32 21 -70 46
-38 25 -103 64 -145 85 -42 21 -79 45 -83 54 -14 37 -5 83 24 123 32 44 57 62
105 72 44 10 57 3 44 -23z m-1133 -43 c61 -42 94 -58 127 -61 45 -5 46 -6 31
-28 -9 -13 -16 -40 -17 -59 -2 -28 -6 -35 -17 -30 -8 3 -51 17 -95 31 -120 39
-123 40 -139 66 -28 41 -30 80 -6 110 12 15 24 27 28 27 4 0 43 -25 88 -56z
m1597 21 c-9 -19 -18 -33 -21 -31 -4 5 26 66 33 66 3 0 -3 -16 -12 -35z m-173
16 c0 -5 3 -17 7 -27 6 -16 4 -16 -25 1 -17 10 -29 22 -26 27 7 11 44 10 44
-1z m796 -139 c-11 -10 -35 49 -40 98 l-6 55 25 -74 c13 -41 23 -77 21 -79z
m-3436 105 c0 -7 22 -39 49 -72 l49 -59 -21 -27 c-12 -14 -26 -24 -30 -22 -13
8 -77 145 -77 164 0 8 3 19 7 22 11 11 23 8 23 -6z m-18 -94 l37 -69 -54 0
-54 0 -3 71 c-2 38 -2 73 0 78 8 17 40 -17 74 -80z m2177 66 c-6 -12 -9 -41
-7 -66 3 -43 2 -44 -22 -39 -14 4 -51 11 -82 18 l-58 11 73 40 c39 21 76 43
82 48 17 17 26 9 14 -12z m512 -30 c57 -19 63 -30 42 -75 -10 -21 -21 -40 -25
-42 -5 -2 -8 -10 -8 -17 0 -7 -19 -65 -41 -129 l-42 -117 -34 33 c-60 57 -75
98 -67 181 8 83 21 114 64 151 35 29 59 32 111 15z m119 -11 c-11 -23 -11 -23
9 1 l21 23 -4 -53 c-16 -197 -60 -366 -143 -538 -53 -110 -186 -311 -191 -288
-2 10 1 23 6 30 10 13 39 63 79 135 13 24 30 50 37 58 44 43 128 346 146 522
8 79 15 109 28 118 23 18 24 17 12 -8z m639 -63 c33 -54 33 -56 15 -70 -10 -8
-21 -15 -24 -15 -8 0 -80 124 -80 136 0 6 5 15 12 22 16 16 33 -1 77 -73z
m-2714 29 l67 -17 -37 -18 c-54 -26 -70 -44 -83 -88 -16 -53 -15 -87 4 -117
16 -23 16 -24 -2 -18 -67 21 -200 83 -221 102 l-25 23 52 46 c28 25 64 65 81
89 l29 43 34 -14 c18 -8 64 -22 101 -31z m2500 -61 c-4 -60 -11 -126 -16 -148
-9 -41 -6 18 8 183 9 113 16 85 8 -35z m-1562 90 c2 -5 -1 -21 -8 -37 -7 -17
-14 -24 -17 -16 -2 7 -10 -6 -16 -29 -7 -22 -17 -41 -22 -41 -6 0 -10 -7 -10
-15 0 -8 -4 -15 -10 -15 -5 0 -10 10 -10 23 0 12 -5 29 -10 37 -8 12 -10 8
-11 -15 -1 -29 -1 -30 -9 -5 -7 23 -8 23 -9 3 -1 -19 -5 -21 -30 -13 -15 4
-39 6 -52 3 -38 -7 -65 32 -60 85 2 26 64 41 168 42 56 0 104 -3 106 -7z
m-552 -25 c24 -29 23 -33 -1 -35 -11 -1 -20 3 -20 10 0 8 -3 8 -12 -1 -23 -23
-29 -12 -11 18 9 17 19 30 21 30 2 0 12 -10 23 -22z m589 2 c-9 -17 -30 -28
-30 -16 0 16 15 36 26 36 12 0 12 -4 4 -20z m208 -1 c17 -6 32 -13 32 -15 0
-7 -50 -49 -128 -107 -62 -47 -65 -47 -100 -35 -21 7 -40 15 -44 18 -14 10 12
76 40 103 54 52 113 62 200 36z m1358 -114 c-4 -69 -4 -74 5 -37 12 48 31 48
23 -1 -5 -30 -5 -31 10 -13 15 18 16 18 16 2 0 -9 5 -14 10 -11 6 4 10 -7 10
-24 0 -33 16 -42 23 -13 3 9 5 1 6 -19 0 -19 -6 -59 -15 -88 -8 -29 -13 -58
-11 -64 5 -16 26 55 34 115 3 26 10 45 14 42 15 -9 10 -46 -23 -158 l-31 -109
-24 29 c-13 16 -39 62 -59 103 -39 81 -38 60 -12 281 9 76 13 89 20 70 5 -14
7 -61 4 -105z m-1181 75 c16 -6 13 -9 -20 -20 -87 -28 -139 -117 -105 -181 6
-10 8 -19 5 -19 -10 0 -179 72 -189 81 -4 4 11 20 35 35 24 15 70 49 103 76
57 47 60 49 105 42 25 -4 55 -10 66 -14z m-1140 -22 c2 -2 -11 -35 -30 -73
-18 -38 -32 -72 -29 -74 7 -8 53 41 85 91 18 27 34 46 37 44 2 -3 -2 -16 -10
-28 -9 -14 -13 -39 -10 -64 l4 -41 -66 -37 c-57 -31 -76 -36 -130 -36 -61 0
-65 2 -96 36 -26 30 -30 41 -25 68 15 70 37 100 93 122 49 19 59 20 113 9 33
-7 62 -15 64 -17z m-784 -14 c35 -38 116 -74 169 -74 l45 -1 -52 -25 c-37 -18
-60 -38 -80 -69 -15 -24 -31 -44 -34 -45 -4 0 -34 36 -68 81 -64 85 -75 121
-43 145 25 19 36 17 63 -12z m1129 -5 l80 -30 -30 -26 c-21 -17 -30 -34 -30
-54 0 -16 -2 -29 -4 -29 -2 0 -33 7 -68 16 -46 12 -86 15 -146 11 -69 -5 -84
-4 -89 9 -12 31 53 94 123 119 56 20 76 19 164 -16z m-239 4 c-10 -20 -66 -74
-60 -58 14 32 46 75 57 75 9 0 10 -5 3 -17z m1182 -14 c40 -17 110 -56 157
-87 l85 -55 -42 -14 c-75 -25 -122 -100 -117 -185 2 -41 -6 -47 -27 -22 -21
26 -98 76 -199 129 -113 60 -137 91 -121 153 13 46 43 77 96 96 60 22 90 19
168 -15z m-2181 -36 c45 -49 128 -156 128 -165 0 -3 -18 0 -40 6 -31 8 -46 7
-60 -2 -11 -7 -22 -12 -24 -12 -2 0 -32 34 -65 77 -88 109 -91 142 -15 143 24
0 41 -10 76 -47z m1462 6 c28 -13 39 -48 38 -118 0 -49 -7 -59 -42 -63 -20 -3
-24 1 -26 29 -1 17 -11 47 -23 66 -11 19 -21 42 -21 51 0 9 -7 19 -15 22 -8 4
-12 10 -9 15 7 13 68 11 98 -2z m1453 -11 c-3 -8 -6 -5 -6 6 -1 11 2 17 5 13
3 -3 4 -12 1 -19z m523 -12 c0 -28 25 -91 51 -128 20 -27 25 -58 11 -58 -15 0
-50 55 -76 121 -29 74 -31 85 -13 92 18 7 27 -2 27 -27z m-1844 -3 c-10 -10
-19 5 -10 18 6 11 8 11 12 0 2 -7 1 -15 -2 -18z m-247 -29 c7 -26 11 -48 9
-49 -17 -14 -48 -23 -52 -16 -4 5 0 12 6 15 7 2 2 4 -12 3 -33 -3 -38 30 -10
66 31 39 46 34 59 -19z m1608 29 c-3 -10 -12 -40 -21 -67 -8 -27 -11 -45 -7
-40 5 5 15 27 22 49 8 25 14 33 17 23 2 -9 -8 -49 -23 -89 -14 -39 -24 -74
-22 -76 3 -2 14 23 27 57 12 33 24 60 26 60 8 0 -10 -56 -38 -118 -31 -70 -32
-76 -18 -67 5 3 -4 -24 -20 -59 -33 -71 -35 -80 -20 -71 12 8 13 -5 0 -25 -6
-9 -5 -17 1 -21 6 -3 2 -20 -11 -42 -23 -38 -18 -51 6 -19 9 11 8 1 -4 -32
-10 -28 -37 -70 -65 -100 l-49 -51 16 38 c20 50 8 46 -29 -8 -16 -25 -33 -45
-37 -45 -5 0 -8 -8 -8 -19 0 -10 -7 -24 -15 -31 -25 -20 -19 23 6 46 29 26
109 140 109 155 0 7 -6 4 -15 -7 -21 -28 -18 -4 5 34 27 43 25 66 -1 25 -12
-18 -23 -33 -25 -33 -5 0 8 33 23 55 7 11 13 26 13 35 -1 9 -6 5 -15 -10 -12
-23 -14 -17 -17 70 -2 66 1 102 11 120 7 14 35 69 62 123 27 53 51 97 53 97 3
0 -1 -21 -9 -46 -8 -26 -10 -43 -6 -38 5 5 16 34 26 64 9 30 24 61 33 68 21
16 25 15 19 -5z m-1436 -30 c-12 -20 -14 -14 -5 12 4 9 9 14 11 11 3 -2 0 -13
-6 -23z m-1052 -41 c58 -27 120 -52 136 -57 l30 -8 -45 -12 c-102 -27 -160
-80 -160 -146 0 -21 -2 -39 -5 -39 -28 0 -245 152 -245 171 0 51 99 138 159
139 13 0 72 -22 130 -48z m1123 26 c-25 -27 -42 -70 -42 -104 0 -22 -2 -23
-21 -14 -17 9 -19 17 -13 43 3 18 10 34 15 37 4 3 12 18 18 33 8 20 17 27 37
27 l27 0 -21 -22z m80 16 c4 -3 -5 -22 -18 -41 -35 -52 -30 -64 6 -15 17 23
33 42 36 42 3 0 50 -19 106 -42 l100 -41 -65 -16 c-75 -19 -97 -38 -112 -96
l-11 -44 -42 32 c-29 22 -41 38 -38 51 4 15 0 17 -24 12 -24 -4 -30 -1 -36 17
-17 49 7 106 55 132 30 16 35 17 43 9z m-497 -43 c9 -15 -32 -23 -56 -10 -45
24 -243 -40 -324 -105 -59 -48 -76 -53 -29 -9 107 99 185 132 316 133 48 0 89
-4 93 -9z m93 -32 c2 -5 8 -7 12 -4 5 3 11 1 14 -4 11 -17 -33 -23 -72 -10
-51 16 -56 20 -41 30 16 10 82 0 87 -12z m92 1 c0 -5 -5 -10 -11 -10 -5 0 -7
5 -4 10 3 6 8 10 11 10 2 0 4 -4 4 -10z m1139 -56 l50 -46 -20 -51 c-12 -29
-34 -97 -51 -152 -17 -55 -33 -108 -37 -118 -5 -14 -16 -4 -56 49 -95 125
-105 144 -105 203 0 93 55 159 137 160 25 1 44 -10 82 -45z m-1169 26 c0 -5
-10 -10 -22 -10 -19 0 -20 2 -8 10 19 13 30 13 30 0z m-1179 -41 c9 -5 56 -38
103 -74 48 -36 92 -65 99 -66 7 0 -8 -6 -32 -14 -23 -7 -50 -23 -58 -34 -8
-12 -19 -21 -25 -21 -15 0 -208 199 -208 215 0 7 8 15 18 17 18 4 76 -9 103
-23z m889 22 c0 -6 -26 -24 -57 -41 -60 -31 -153 -100 -136 -100 5 0 25 12 44
26 37 28 109 67 109 60 0 -3 -54 -43 -120 -90 -73 -52 -126 -83 -135 -80 -8 4
-15 9 -15 13 0 10 37 43 73 65 16 10 46 33 66 52 38 34 148 104 163 104 4 0 8
-4 8 -9z m994 -40 c89 -46 197 -118 211 -141 4 -6 -16 -10 -57 -10 -70 0 -122
-24 -137 -63 -11 -28 -15 -17 -31 86 -7 42 -17 77 -22 77 -9 0 -5 -51 12 -185
7 -56 -2 -105 -20 -105 -22 0 -41 47 -58 140 -10 61 -23 105 -31 108 -9 3 -11
-5 -7 -29 3 -19 8 -58 11 -88 l6 -53 -80 72 c-44 40 -82 79 -85 87 -13 34 -5
74 22 103 25 28 74 43 154 49 10 0 60 -21 112 -48z m1332 22 c-17 -71 -58
-195 -62 -190 -3 3 6 45 21 94 14 48 28 96 31 106 9 28 17 19 10 -10z m-2697
-103 c-62 -66 -116 -120 -120 -120 -3 0 -23 7 -42 15 -73 30 -87 93 -34 151
44 48 119 72 225 73 l83 1 -112 -120z m866 90 c37 -17 38 -19 13 -19 -14 -1
-41 -13 -59 -28 l-32 -28 6 27 c6 22 4 26 -8 22 -20 -8 -19 5 2 28 20 22 27
22 78 -2z m-440 1 c-32 -28 -127 -101 -132 -101 -14 0 64 73 97 90 39 21 49
24 35 11z m2494 -52 c65 -60 76 -77 32 -55 -43 23 -101 75 -101 92 0 22 8 17
69 -37z m-2284 21 c-3 -5 -10 -10 -16 -10 -5 0 -9 5 -9 10 0 6 7 10 16 10 8 0
12 -4 9 -10z m-105 -11 c-13 -6 -32 -17 -42 -26 -9 -8 -22 -13 -29 -11 -16 5
50 46 76 47 17 0 16 -2 -5 -10z m230 1 c0 -5 -9 -10 -21 -10 -11 0 -17 5 -14
10 3 6 13 10 21 10 8 0 14 -4 14 -10z m1938 -38 c-6 -24 -13 -41 -15 -38 -2 2
1 23 7 46 6 23 13 40 15 38 2 -2 -1 -23 -7 -46z m-2258 30 c0 -4 -15 -14 -34
-20 -19 -7 -40 -20 -48 -29 -11 -14 -9 -14 20 1 45 23 51 14 10 -13 -24 -16
-27 -21 -10 -16 34 10 28 -16 -18 -71 -22 -27 -52 -75 -67 -107 l-27 -58 -24
31 c-19 25 -31 30 -64 30 -48 0 -48 1 17 93 29 41 61 75 83 86 21 11 64 33 96
50 65 34 66 35 66 23z m568 -41 l33 -28 -58 -12 c-33 -6 -69 -18 -82 -27 -39
-28 -36 -5 4 36 39 40 40 56 1 23 -11 -10 -7 -1 9 19 32 40 35 40 93 -11z
m1872 14 c8 -9 49 -34 92 -56 101 -51 102 -69 1 -22 -65 30 -143 90 -143 109
0 8 36 -14 50 -31z m-2320 15 c0 -5 -4 -10 -10 -10 -5 0 -10 5 -10 10 0 6 5
10 10 10 6 0 10 -4 10 -10z m54 4 c19 -7 21 -34 3 -34 -14 0 -37 20 -37 32 0
10 13 10 34 2z m102 -9 c4 -9 11 -15 18 -14 33 4 39 -1 25 -18 -7 -10 -9 -15
-5 -11 5 4 15 3 23 -3 11 -10 10 -14 -7 -26 -19 -13 -25 -12 -65 12 -49 28
-53 36 -29 59 20 20 33 20 40 1z m130 -13 c-8 -9 -19 -13 -22 -9 -10 9 16 38
28 31 6 -4 4 -13 -6 -22z m-316 9 c0 -12 -20 -25 -27 -18 -7 7 6 27 18 27 5 0
9 -4 9 -9z m2267 -53 c-2 -13 -4 -3 -4 22 0 25 2 35 4 23 2 -13 2 -33 0 -45z
m-519 -18 c-17 -39 -33 -69 -35 -67 -4 5 54 137 61 137 3 0 -9 -32 -26 -70z
m-2054 -3 c-16 -18 -44 -56 -63 -86 l-35 -54 -13 38 c-7 21 -11 40 -8 43 13
13 131 91 139 91 4 1 -5 -14 -20 -32z m221 23 c3 -5 4 -10 1 -10 -2 0 -12 -3
-20 -6 -12 -5 -15 -2 -10 10 7 18 20 21 29 6z m65 -11 c0 -5 -16 -17 -36 -25
-50 -21 -37 -28 16 -9 24 8 45 13 48 11 7 -8 -9 -27 -32 -36 l-21 -9 23 0 c12
-1 22 -3 22 -6 0 -2 -18 -39 -39 -82 -22 -43 -50 -109 -63 -148 -22 -69 -22
-69 -29 -35 -10 48 -54 83 -96 76 l-32 -5 18 50 c24 61 71 136 108 171 48 44
113 72 113 47z m95 -14 c-21 -8 -41 -12 -44 -10 -6 6 40 24 64 24 11 0 2 -6
-20 -14z m480 -14 c17 -10 60 -47 98 -82 55 -53 67 -70 67 -96 0 -41 -19 -83
-37 -83 -8 0 -28 -13 -44 -29 l-29 -30 -16 24 c-19 30 -88 75 -114 75 -19 0
-34 19 -85 107 -18 32 -18 33 1 54 17 20 17 22 1 16 -15 -6 -16 -4 -7 13 27
51 109 66 165 31z m-1282 -37 c31 -15 57 -32 57 -36 0 -12 -71 -56 -103 -63
-31 -8 -75 10 -126 53 -40 34 -37 56 10 76 39 16 86 8 162 -30z m2858 9 c-12
-20 -14 -14 -5 12 4 9 9 14 11 11 3 -2 0 -13 -6 -23z m-2035 10 c-3 -4 -22
-12 -41 -19 -28 -9 -35 -9 -35 1 0 14 19 22 59 24 13 0 21 -2 17 -6z m234 3
c0 -2 3 -11 6 -20 5 -12 -1 -16 -24 -16 -22 0 -37 -9 -55 -31 l-25 -32 -7 33
c-5 23 -3 35 6 41 19 12 32 11 24 -1 -11 -18 15 -10 32 10 15 17 43 28 43 16z
m43 -11 c-3 -9 -8 -14 -10 -11 -3 3 -2 9 2 15 9 16 15 13 8 -4z m689 2 c30
-14 84 -76 139 -160 37 -58 38 -58 24 -104 -7 -25 -11 -51 -8 -59 4 -10 -4
-14 -28 -14 -19 0 -49 -9 -67 -20 l-33 -20 -74 56 c-72 54 -76 56 -105 44 -27
-11 -32 -11 -45 6 -24 32 -24 178 1 225 26 51 130 76 196 46z m1423 -29 c33
-16 64 -33 69 -38 15 -15 -35 -29 -63 -18 -18 6 -29 4 -42 -8 -11 -10 -19 -12
-19 -7 0 6 7 16 16 24 26 22 -10 34 -41 13 -14 -9 -25 -12 -25 -6 0 6 9 16 21
22 11 7 18 14 15 17 -3 3 -17 -2 -31 -11 -14 -9 -25 -12 -25 -7 0 6 12 17 28
25 25 14 25 15 5 16 -12 0 -25 -4 -28 -10 -3 -5 -12 -10 -18 -10 -7 1 -1 10
12 21 27 22 38 20 126 -23z m-2355 3 c0 -24 -30 -32 -61 -15 -18 10 -20 14 -9
18 14 5 46 12 63 15 4 0 7 -7 7 -18z m45 9 c-3 -5 -10 -10 -16 -10 -5 0 -9 5
-9 10 0 6 7 10 16 10 8 0 12 -4 9 -10z m-698 -17 c-3 -5 -22 -37 -44 -73 -79
-130 -79 -142 -1 -30 48 68 94 117 103 108 3 -3 -5 -18 -17 -34 l-22 -29 32
29 c27 25 32 27 38 13 10 -26 -1 -86 -26 -147 -25 -63 -67 -207 -75 -263 l-6
-38 -20 26 c-25 31 -69 55 -104 55 -21 0 -25 5 -25 30 0 58 23 137 61 205 39
73 95 155 105 155 3 0 3 -3 1 -7z m730 -19 c2 -7 -6 -10 -21 -7 -14 3 -23 10
-20 15 8 12 36 6 41 -8z m161 -15 c9 -17 32 -56 50 -86 20 -35 32 -69 32 -92
0 -20 7 -48 14 -63 14 -27 14 -28 -7 -28 -13 0 -32 -7 -44 -15 -20 -14 -24
-12 -62 28 -40 41 -101 171 -101 214 1 24 30 60 55 66 39 9 46 7 63 -24z
m-313 11 c3 -5 15 -10 25 -10 13 0 17 -5 14 -15 -4 -9 0 -15 7 -15 12 0 12 -2
1 -9 -10 -6 -4 -13 24 -27 38 -19 64 -54 30 -41 -45 19 -48 17 -13 -7 20 -15
37 -33 37 -41 0 -18 -5 -18 -32 -4 -15 8 -19 8 -14 0 4 -6 20 -18 37 -26 31
-17 40 -38 12 -29 -16 5 -16 4 1 -10 12 -10 17 -22 13 -37 -3 -12 -2 -30 4
-40 5 -10 5 -20 0 -23 -5 -3 -12 6 -16 22 -31 124 -167 162 -267 74 -10 -8
-18 -10 -18 -5 0 18 30 96 67 176 30 63 40 77 59 77 13 0 26 -4 29 -10z m2385
-4 c0 -2 -8 -10 -17 -17 -16 -13 -17 -12 -4 4 13 16 21 21 21 13z m-560 -98
c0 -3 -26 -8 -58 -10 l-57 -3 20 53 20 52 37 -42 c21 -24 38 -46 38 -50z m779
78 l24 -13 -31 -11 c-21 -7 -33 -20 -42 -47 -6 -19 -9 -42 -6 -50 3 -8 3 -15
1 -15 -15 0 -115 56 -112 63 4 14 110 85 127 86 8 0 26 -6 39 -13z m-2418 -80
c41 -89 45 -101 29 -91 -16 10 -60 83 -60 99 0 9 -9 20 -20 26 -24 13 -27 50
-4 50 9 0 30 -31 55 -84z m2543 19 c23 -13 57 -38 76 -54 l35 -30 -38 -1 c-48
0 -89 -36 -80 -71 6 -23 6 -23 -18 -8 -13 9 -45 28 -72 43 -26 16 -52 36 -57
46 -15 29 -12 65 8 82 37 33 81 31 146 -7z m119 10 c35 -18 49 -35 28 -35 -5
0 -16 -7 -25 -15 -13 -13 -21 -11 -70 22 -30 21 -55 42 -56 46 0 14 83 1 123
-18z m-3206 -21 c28 -29 28 -47 -1 -179 -9 -38 -16 -97 -17 -130 0 -33 -4 -68
-8 -78 -6 -16 -10 -13 -31 20 -23 34 -30 38 -72 41 -26 2 -57 -2 -69 -9 -22
-11 -22 -10 -16 42 13 110 84 285 125 309 29 17 62 11 89 -16z m1072 -45 c-13
-26 -20 -21 -12 9 3 12 9 19 14 16 5 -3 4 -14 -2 -25z m1794 -44 c-49 -21 -73
-51 -73 -90 0 -19 -3 -35 -6 -35 -11 0 -94 63 -94 72 0 10 46 86 67 110 14 16
19 15 76 -14 l61 -30 -31 -13z m-1730 39 c4 -23 3 -24 -10 -11 -9 8 -12 20 -9
26 10 16 13 14 19 -15z m2209 -18 c58 -47 97 -96 77 -96 -20 0 -49 -32 -49
-53 0 -14 -18 0 -67 53 -92 99 -98 107 -83 125 23 28 65 17 122 -29z m-1022
19 c52 -10 146 -43 198 -70 71 -36 117 -84 135 -141 22 -69 31 -134 19 -134
-6 0 -13 6 -15 13 -3 6 -6 2 -6 -10 -1 -12 3 -24 8 -27 5 -3 11 -43 14 -88 4
-46 11 -105 16 -133 21 -105 7 -447 -20 -495 -5 -9 -9 49 -9 135 0 83 -8 209
-16 280 -9 72 -16 190 -15 263 0 109 -2 132 -14 132 -9 0 -12 6 -9 15 4 10 0
15 -12 15 -16 0 -17 2 -4 10 13 9 13 12 -2 24 -10 7 -18 18 -18 25 0 15 -28
13 -65 -4 l-30 -15 45 6 c33 4 41 2 30 -5 -8 -6 -23 -11 -32 -11 -9 0 -20 -5
-23 -10 -4 -7 3 -9 22 -4 27 6 28 6 8 -11 -11 -9 -14 -14 -7 -10 6 3 12 2 12
-4 0 -5 -6 -12 -12 -14 -7 -3 -4 -6 7 -6 18 -1 18 -3 -5 -21 -14 -11 -33 -20
-42 -20 -28 0 -47 -11 -42 -25 3 -7 -2 -15 -11 -19 -10 -4 -14 -2 -9 5 4 7 3
10 -2 7 -78 -38 -90 -40 -164 -34 -93 9 -147 22 -182 47 -26 19 -29 19 -53 3
-30 -20 -32 -28 -5 -19 25 8 27 -12 3 -32 -16 -13 -16 -13 7 -7 22 6 23 5 11
-10 -12 -14 -11 -16 3 -16 22 0 20 -8 -6 -31 -13 -10 -18 -18 -11 -19 6 0 15
5 18 10 3 6 12 10 18 10 7 0 0 -12 -15 -25 -35 -30 -36 -43 -3 -21 41 27 42
18 2 -15 -43 -35 -43 -53 -1 -20 40 31 41 18 2 -18 -18 -17 -28 -31 -22 -31 6
0 19 9 29 20 10 11 23 20 29 20 5 0 -5 -16 -24 -35 -40 -41 -29 -47 14 -7 30
27 21 9 -18 -35 -11 -13 -14 -23 -8 -23 6 0 21 14 34 30 12 17 25 30 29 30 10
0 5 -57 -5 -67 -5 -5 -6 0 -3 10 4 11 3 16 -4 12 -5 -4 -7 -15 -4 -25 3 -10 1
-21 -5 -25 -5 -3 -10 -12 -10 -18 0 -7 11 2 24 18 31 38 45 26 17 -13 -29 -41
-26 -54 4 -17 13 16 27 26 31 22 4 -4 -2 -17 -14 -30 -33 -35 -27 -45 7 -13
l29 28 7 -22 c5 -15 0 -31 -14 -51 -12 -16 -18 -29 -14 -29 5 0 14 9 21 21 7
12 16 19 18 16 3 -3 -11 -30 -31 -61 -36 -57 -39 -74 -4 -33 25 30 24 10 -2
-28 -11 -16 -27 -43 -35 -60 -15 -30 -15 -30 16 5 25 28 29 30 19 10 -6 -14
-21 -38 -33 -55 -15 -22 -16 -27 -3 -16 9 7 26 29 38 48 12 19 23 32 26 29 3
-2 -13 -31 -35 -63 -43 -65 -65 -103 -58 -103 3 0 24 27 47 60 23 33 43 60 45
60 13 0 -1 -35 -29 -76 -19 -27 -42 -65 -51 -84 l-17 -35 20 25 c35 43 22 9
-28 -75 -54 -90 -58 -91 -151 -55 -43 17 -45 19 -48 63 -2 25 5 85 14 134 10
48 17 111 17 138 -2 139 -10 285 -15 291 -4 3 -13 -7 -22 -23 -8 -16 -22 -36
-31 -43 -12 -10 -11 -3 6 25 50 89 60 113 40 101 -5 -3 -12 6 -16 21 -6 24 -8
26 -16 10 -6 -9 -7 -21 -4 -27 3 -5 -5 -31 -19 -58 -14 -27 -23 -52 -19 -55 3
-3 -16 -32 -41 -65 -52 -66 -60 -87 -18 -51 15 13 2 -2 -29 -33 -71 -71 -110
-147 -111 -218 l-1 -53 -34 37 c-30 33 -33 40 -27 78 7 43 29 117 79 258 14
41 45 104 69 140 68 103 96 155 96 181 1 21 3 20 16 -10 19 -46 30 -31 26 38
-4 68 20 167 56 235 15 27 53 71 84 97 61 50 78 55 223 62 62 3 67 3 125 -8z
m-528 -47 c-9 -9 -12 -4 -11 23 0 32 1 33 11 11 8 -17 8 -26 0 -34z m-1662 2
l25 -19 -3 -177 c-1 -98 -4 -180 -7 -182 -2 -3 -16 3 -29 12 -32 20 -59 20
-98 0 l-31 -16 6 128 c6 125 27 234 49 261 15 19 59 16 88 -7z m1007 -16 c25
-25 25 -27 8 -37 -19 -10 -136 -57 -143 -57 -5 0 22 43 55 88 29 39 46 40 80
6z m2141 -49 c65 -71 73 -85 45 -81 -28 5 -62 -15 -70 -40 -8 -23 -11 -22 -85
44 -61 52 -78 73 -78 94 0 38 35 61 85 54 34 -4 50 -15 103 -71z m-332 49 c22
-9 61 -30 87 -46 l49 -31 -31 -13 c-54 -23 -61 -63 -24 -152 7 -17 -54 13
-147 73 -93 59 -103 94 -46 151 38 38 56 41 112 18z m-2531 -18 c31 -20 56
-79 62 -145 5 -55 4 -58 -38 -108 l-43 -51 -52 5 c-65 7 -116 -10 -149 -49
-14 -17 -29 -28 -32 -24 -3 3 -1 69 6 147 10 127 14 144 38 175 52 69 146 91
208 50z m547 -32 c-19 -37 -20 -37 -31 -16 -10 19 -8 26 15 49 34 34 42 18 16
-33z m834 5 l-16 -23 0 25 c0 30 10 43 23 30 6 -6 3 -18 -7 -32z m-1162 -44
c20 -30 16 -31 -34 -5 -31 16 -40 26 -40 46 l0 25 29 -20 c15 -11 36 -32 45
-46z m671 4 c57 -36 63 -42 50 -56 -8 -8 -18 -26 -21 -39 l-7 -25 -29 28 c-35
33 -88 107 -88 122 0 21 31 11 95 -30z m1495 -60 c0 -4 -7 -12 -16 -17 -8 -5
-18 -27 -21 -50 -4 -32 0 -50 20 -87 14 -25 20 -42 14 -38 -42 24 -77 58 -77
74 0 10 -4 28 -9 41 -24 59 -40 126 -34 146 5 21 7 20 64 -20 33 -22 59 -45
59 -49z m-1602 68 c30 -36 20 -41 -96 -52 -63 -6 -116 -7 -118 -3 -4 7 159 66
187 67 9 1 21 -5 27 -12z m650 -7 c-7 -10 -14 -17 -17 -15 -4 4 18 35 25 35 2
0 -1 -9 -8 -20z m1624 -7 c14 -16 28 -37 32 -48 5 -18 1 -20 -60 -22 l-66 -1
6 36 c5 35 27 62 51 62 6 0 23 -12 37 -27z m-2864 -23 c43 -23 72 -44 72 -54
0 -3 -18 -6 -39 -6 -33 0 -44 6 -65 32 -13 18 -22 36 -20 40 7 11 10 10 52
-12z m212 5 c11 -13 5 -15 -49 -15 -56 0 -71 6 -54 23 13 13 90 7 103 -8z
m690 5 c0 -5 -4 -10 -9 -10 -12 0 -20 -49 -9 -56 16 -10 -3 -186 -24 -222
l-20 -33 -30 48 c-17 26 -39 58 -50 69 l-19 22 33 22 c59 41 88 73 88 97 0 14
-4 21 -10 18 -12 -7 -50 12 -50 26 0 5 10 14 23 19 30 12 77 12 77 0z m1679
-62 c72 -65 78 -76 53 -94 -11 -8 -18 -21 -16 -31 2 -10 0 -24 -5 -32 -7 -11
-23 -7 -85 24 -82 40 -116 79 -116 131 0 37 9 51 40 62 35 13 64 0 129 -60z
m-1805 -3 c-35 -27 -41 -16 -11 23 7 9 13 10 21 2 7 -7 4 -14 -10 -25z m390 0
c-14 -19 -29 -35 -31 -35 -5 0 7 18 36 53 26 31 23 18 -5 -18z m-1245 16 c16
-11 8 -67 -14 -97 -13 -18 -14 -16 -15 24 0 23 5 42 10 42 7 0 7 6 0 20 -11
21 -4 25 19 11z m715 -20 l28 -29 -54 -20 c-73 -27 -98 -34 -98 -28 0 2 23 12
51 21 28 9 48 19 45 22 -2 3 -28 -3 -56 -12 -38 -13 -55 -14 -63 -6 -8 8 -4
11 15 11 15 0 30 5 34 12 5 8 -3 9 -29 5 -27 -4 -42 -1 -59 13 l-23 18 25 6
c14 3 52 7 85 9 33 2 63 4 66 5 3 1 18 -11 33 -27z m2114 16 c9 -10 5 -22 -15
-50 -14 -20 -31 -37 -38 -37 -19 0 -35 23 -35 50 0 14 5 31 12 38 16 16 63 15
76 -1z m-2611 -3 c-3 -3 -12 -4 -19 -1 -8 3 -5 6 6 6 11 1 17 -2 13 -5z m678
-4 c3 -5 -9 -19 -27 -30 -48 -29 -57 -24 -18 10 41 34 37 33 45 20z m-586 -40
c-18 -22 -38 -40 -45 -40 -7 0 -22 12 -34 27 l-22 28 59 11 c32 6 62 12 66 13
4 0 -7 -17 -24 -39z m2104 -21 c50 -29 94 -54 96 -56 3 -2 -3 -11 -12 -20 -15
-15 -19 -14 -52 11 -19 15 -40 24 -45 21 -6 -4 -19 -1 -28 6 -9 7 -4 -1 12
-19 30 -33 49 -36 26 -5 -7 10 4 1 23 -20 23 -25 37 -34 40 -25 3 7 6 -1 6
-18 1 -17 10 -43 21 -57 l21 -26 -72 20 c-124 34 -199 104 -199 186 0 78 28
78 163 2z m-3230 18 c28 -26 36 -43 41 -82 4 -28 13 -95 21 -149 8 -55 13
-102 10 -104 -3 -3 -14 3 -25 13 -13 11 -30 16 -50 13 -20 -3 -35 1 -45 12
-31 34 -58 133 -63 233 l-5 97 41 0 c32 0 48 -7 75 -33z m3819 6 c25 -22 23
-28 -12 -31 -61 -5 -130 -70 -130 -124 -1 -23 -1 -23 -25 5 -29 32 -31 63 -10
113 18 44 64 66 120 59 22 -3 47 -13 57 -22z m-2944 -14 c2 -23 2 -23 -13 -5
-18 24 -20 39 -2 34 6 -3 13 -15 15 -29z m159 -11 c18 -18 33 -36 33 -41 0 -4
-19 -31 -42 -59 l-43 -50 -47 53 c-67 74 -63 103 13 118 24 5 46 9 49 10 2 1
19 -13 37 -31z m653 2 c-24 -19 -40 -25 -40 -15 0 5 51 34 60 34 3 0 -6 -8
-20 -19z m-547 -25 c-16 -32 -33 -46 -33 -26 0 9 39 61 46 61 2 0 -4 -16 -13
-35z m432 25 c-3 -5 -13 -10 -21 -10 -8 0 -12 5 -9 10 3 6 13 10 21 10 8 0 12
-4 9 -10z m-1384 -10 c26 -14 58 -81 64 -132 2 -24 7 -97 10 -163 l5 -121 -41
4 c-22 3 -46 -1 -52 -7 -6 -6 -14 -11 -18 -11 -14 0 -60 123 -74 196 -22 112
-20 199 5 224 22 22 70 26 101 10z m1049 -127 c0 -31 -8 -29 -54 14 l-39 36
22 45 23 46 24 -60 c13 -32 24 -69 24 -81z m2740 108 c0 -4 -20 -11 -45 -17
-36 -8 -45 -8 -50 4 -7 18 -6 19 25 30 24 9 70 -3 70 -17z m-3125 10 c3 -5 1
-12 -5 -16 -5 -3 -10 1 -10 9 0 18 6 21 15 7z m1189 -26 c-14 -19 -31 -35 -37
-35 -6 0 4 16 23 35 19 19 36 35 37 35 2 0 -8 -16 -23 -35z m1802 17 c10 -7
34 -65 34 -83 0 -5 -8 -9 -17 -9 -34 0 -91 -20 -128 -45 -20 -14 -35 -20 -32
-13 2 7 0 23 -4 36 -12 31 3 56 53 92 40 29 72 37 94 22z m-2296 -6 c0 -6 -44
-33 -67 -40 -41 -13 -24 9 20 26 51 20 47 19 47 14z m2031 -40 c-25 -40 -27
-90 -5 -148 19 -50 83 -114 123 -123 21 -4 33 -17 46 -46 10 -21 16 -41 13
-44 -6 -6 -105 -9 -133 -4 -55 11 -125 96 -125 153 0 16 -4 25 -10 21 -13 -8
-13 5 0 25 8 12 10 12 10 1 0 -11 3 -11 15 -1 12 10 14 24 9 61 -8 59 8 104
45 124 14 8 27 14 29 15 2 0 -6 -15 -17 -34z m-2657 -34 c25 -29 46 -57 46
-62 0 -5 -13 -7 -29 -4 -16 3 -39 0 -52 -6 -20 -11 -25 -10 -46 16 -13 16 -23
33 -23 37 0 8 53 78 56 74 1 -1 22 -26 48 -55z m666 54 c0 -2 -17 -15 -39 -29
-23 -16 -40 -36 -43 -52 -6 -30 5 -41 22 -20 7 8 18 15 24 15 6 -1 0 -10 -13
-20 -13 -11 -19 -20 -15 -20 5 0 29 20 54 45 25 24 50 44 57 45 13 0 68 -81
91 -133 14 -33 15 -40 3 -32 -5 3 -12 1 -16 -5 -9 -15 -38 -13 -29 3 4 6 -3 3
-16 -8 l-23 -20 6 30 5 30 -19 -24 c-15 -18 -19 -20 -19 -7 0 10 -4 14 -10 11
-5 -3 -10 -1 -10 5 0 7 7 10 15 6 8 -3 15 -1 15 4 0 6 -9 10 -20 10 -26 0 -25
18 3 49 22 25 22 25 -15 -2 -20 -15 -39 -23 -43 -17 -3 5 -12 7 -19 4 -20 -8
-58 36 -46 51 6 7 8 19 4 28 -4 11 7 21 38 35 44 21 58 25 58 18z m2408 -15
c3 -8 1 -11 -4 -9 -13 8 -54 -9 -54 -22 0 -8 6 -7 20 0 25 13 57 5 88 -24 49
-44 46 -51 -21 -52 -34 -1 -71 -3 -81 -5 -16 -3 -22 5 -33 41 -7 24 -11 52 -8
62 9 27 84 35 93 9z m-2905 -55 c-16 -32 -29 -45 -50 -49 -15 -3 -29 -4 -31
-3 -1 2 17 28 40 59 50 65 74 61 41 -7z m1697 49 c0 -7 -63 -45 -75 -45 -14 0
48 49 63 50 6 0 12 -2 12 -5z m638 -21 c53 -23 62 -31 62 -53 0 -68 -29 -97
-62 -62 -10 11 -18 25 -18 31 0 5 -7 10 -15 10 -8 0 -15 6 -15 13 0 6 -13 18
-30 25 -32 14 -38 30 -18 50 17 17 25 16 96 -14z m195 -34 c22 2 54 -39 61
-78 l6 -43 -25 17 c-14 9 -25 26 -25 38 -1 18 -2 19 -10 4 -16 -26 5 -66 43
-82 34 -14 58 -56 33 -56 -25 0 -81 46 -103 85 -33 59 -39 116 -16 151 l18 28
5 -32 c3 -18 9 -32 13 -32z m-520 -9 c33 -20 37 -27 37 -62 l0 -40 -41 33
c-35 28 -79 92 -79 114 0 3 10 0 23 -8 12 -8 39 -24 60 -37z m-2449 26 c17
-13 14 -20 -43 -118 -38 -66 -65 -125 -72 -160 -10 -49 -14 -56 -44 -65 l-32
-10 -6 130 -6 130 35 43 c46 56 127 80 168 50z m1370 -36 c-14 -23 -28 -41
-30 -41 -7 0 10 35 29 63 30 44 32 24 1 -22z m776 44 c0 -2 -10 -9 -22 -15
-22 -11 -22 -10 -4 4 21 17 26 19 26 11z m-1606 -46 c25 -22 46 -44 46 -49 0
-6 -107 24 -128 36 -5 3 21 54 28 54 4 0 28 -18 54 -41z m1453 35 c-3 -3 -12
-4 -19 -1 -8 3 -5 6 6 6 11 1 17 -2 13 -5z m38 -4 c-3 -5 -12 -10 -18 -10 -7
0 -6 4 3 10 19 12 23 12 15 0z m-2289 -21 c19 -11 36 -30 39 -42 7 -33 12
-367 6 -367 -3 0 -15 17 -26 38 -16 30 -27 38 -53 40 -18 2 -40 -2 -48 -9 -8
-6 -17 -9 -20 -6 -3 3 -8 74 -11 159 l-6 154 32 27 c39 32 44 33 87 6z m2635
-164 c31 -155 33 -185 32 -340 -1 -151 -10 -270 -29 -415 -12 -92 -94 -394
-128 -468 -19 -42 -41 -93 -50 -112 -60 -135 -255 -388 -328 -426 -44 -23 -43
-12 1 22 65 49 188 202 245 303 68 121 150 325 177 437 11 47 27 134 35 193 8
58 19 135 24 171 14 95 10 518 -5 630 -8 52 -17 118 -21 145 -4 34 -3 47 4 40
5 -5 25 -86 43 -180z m-2208 139 c17 -21 17 -21 -9 -16 -19 3 -22 7 -12 13 10
7 10 9 0 9 -7 0 -10 5 -7 11 4 6 8 9 9 7 0 -2 9 -13 19 -24z m452 -13 c-10
-16 -25 -3 -25 22 0 20 1 20 16 5 9 -9 13 -21 9 -27z m2619 6 c31 -76 32 -75
-22 -69 -56 5 -107 -16 -117 -48 -10 -30 -20 -24 -35 20 -10 31 -11 46 -2 65
14 30 83 64 129 65 28 0 35 -5 47 -33z m-3147 1 c-3 -8 -6 -5 -6 6 -1 11 2 17
5 13 3 -3 4 -12 1 -19z m703 -19 c-12 -16 -20 -33 -17 -35 3 -3 13 6 22 20 10
14 21 26 26 26 4 0 -5 -20 -21 -44 -40 -59 -38 -70 4 -21 19 22 37 37 40 34 3
-3 -3 -15 -14 -27 -11 -12 -20 -25 -20 -29 0 -9 -52 -86 -62 -93 -4 -3 -23 22
-43 54 -19 32 -34 59 -33 60 2 1 14 10 27 21 14 11 21 14 16 6 -15 -26 39 0
63 30 31 38 39 37 12 -2z m1833 -17 c48 -13 87 -27 87 -31 0 -3 -8 -16 -18
-29 -18 -23 -18 -23 -91 -8 -80 17 -111 37 -111 71 0 28 10 37 29 29 9 -4 55
-18 104 -32z m-2317 7 c9 -16 12 -99 3 -93 -5 3 -6 10 -3 16 5 8 1 9 -10 5
-14 -6 -17 -3 -12 9 4 10 1 14 -6 12 -13 -5 -58 30 -58 44 0 23 72 28 86 7z
m119 -10 c4 -17 5 -32 3 -35 -9 -8 -50 45 -43 55 12 21 33 11 40 -20z m144
-15 c2 -2 -4 -4 -14 -4 -10 0 -27 -8 -38 -17 -11 -10 -17 -12 -13 -6 5 9 0 12
-16 10 -19 -2 -24 3 -26 31 l-3 32 53 -21 c29 -11 55 -23 57 -25z m551 6 c0
-22 -4 -40 -10 -40 -5 0 -10 18 -10 40 0 22 5 40 10 40 6 0 10 -18 10 -40z
m2308 16 c7 -7 15 -36 19 -65 l6 -53 -33 17 c-24 12 -46 16 -76 11 l-43 -6
-11 41 c-13 46 -4 65 33 72 32 6 90 -3 105 -17z m-3351 -8 c-3 -8 -6 -5 -6 6
-1 11 2 17 5 13 3 -3 4 -12 1 -19z m113 2 c13 -9 13 -11 0 -20 -19 -13 -33
-13 -25 0 3 6 -3 10 -15 10 -12 0 -18 5 -15 10 8 13 36 13 55 0z m490 -10 c0
-5 -5 -10 -11 -10 -5 0 -7 5 -4 10 3 6 8 10 11 10 2 0 4 -4 4 -10z m-286 -18
c15 -18 15 -19 -8 -30 -22 -10 -25 -8 -35 19 -9 25 -8 29 8 29 10 0 25 -8 35
-18z m-250 -54 c79 -78 166 -219 195 -316 11 -40 30 -103 41 -142 12 -38 25
-95 30 -127 11 -66 15 -322 5 -331 -4 -4 -13 2 -21 12 -10 14 -14 48 -14 110
0 50 -7 122 -15 160 -8 38 -12 73 -9 77 3 5 1 9 -5 9 -6 0 -15 18 -21 40 -6
22 -14 40 -17 40 -4 0 -19 -15 -35 -32 l-29 -33 25 40 c25 41 41 85 32 85 -3
0 -14 -17 -25 -39 -23 -45 -69 -101 -82 -101 -15 0 -10 22 9 37 16 14 16 14
-3 8 -11 -4 -24 -7 -28 -8 -17 -4 -79 127 -104 216 -14 51 -26 122 -27 159 0
40 -5 67 -11 65 -5 -2 -25 -23 -42 -46 -44 -57 -42 -44 6 37 21 37 45 84 52
105 7 20 17 37 21 37 4 0 36 -28 72 -62z m76 48 c0 -11 -19 -15 -25 -6 -3 5 1
10 9 10 9 0 16 -2 16 -4z m3018 -17 c24 -8 34 -20 42 -47 14 -51 13 -53 -14
-42 -13 5 -34 6 -47 3 -33 -9 -79 -44 -79 -60 0 -22 -16 -15 -28 12 -14 29
-16 84 -4 102 10 16 63 43 83 43 9 0 30 -5 47 -11z m-2541 -64 c32 -49 47
-103 21 -77 -17 17 -74 15 -92 -4 -9 -8 -16 -24 -16 -35 0 -10 -4 -19 -10 -19
-5 0 -7 7 -4 15 4 10 2 13 -8 10 -9 -4 -20 5 -29 22 -8 15 -20 33 -28 39 -8 6
-11 16 -7 22 3 5 3 12 -1 15 -5 2 -3 2 4 1 7 -2 15 1 18 6 4 6 11 10 17 10 7
0 6 -6 -2 -17 -7 -10 5 0 26 23 50 54 70 52 111 -11z m2134 18 c19 -94 131
-179 222 -167 31 4 49 0 70 -14 l29 -19 -32 -23 c-17 -12 -33 -20 -36 -18 -2
3 7 11 21 18 14 7 25 17 25 22 0 5 -19 -2 -42 -16 -24 -13 -54 -27 -68 -30
-14 -3 -19 -3 -12 0 24 11 12 23 -14 14 -21 -9 -29 -7 -40 7 -7 10 -14 22 -14
27 0 4 -15 -3 -34 -17 l-34 -26 -26 39 c-20 31 -37 43 -71 52 l-45 12 7 41 c9
64 53 138 78 131 5 -1 12 -16 16 -33z m-1540 -6 c-10 -9 -11 -8 -5 6 3 10 9
15 12 12 3 -3 0 -11 -7 -18z m-1907 -7 c32 -19 83 -96 72 -107 -6 -7 -65 35
-113 80 -24 22 -29 33 -20 39 18 12 26 10 61 -12z m4026 4 c41 -27 50 -45 50
-95 l0 -47 -29 11 c-22 8 -39 8 -67 -1 -21 -6 -39 -10 -40 -9 -1 1 -4 33 -5
72 -2 66 -1 70 22 76 37 11 43 10 69 -7z m-1917 -9 c-3 -9 -8 -14 -10 -11 -3
3 -2 9 2 15 9 16 15 13 8 -4z m-383 -5 c0 -5 -2 -10 -4 -10 -3 0 -8 5 -11 10
-3 6 -1 10 4 10 6 0 11 -4 11 -10z m-678 -25 c-17 -14 -34 -25 -38 -25 -11 0
48 49 59 50 5 0 -5 -11 -21 -25z m43 -21 c-34 -28 -65 -47 -65 -39 0 6 81 65
89 65 3 -1 -7 -12 -24 -26z m2805 -2 c21 -17 22 -22 12 -52 -21 -58 -58 -73
-112 -45 -45 23 -41 63 10 98 32 22 62 22 90 -1z m-2160 -14 c0 -17 -19 -36
-71 -71 -79 -54 -104 -58 -35 -6 25 19 46 38 46 42 0 5 -19 -5 -42 -22 -23
-17 -44 -29 -46 -26 -3 3 -3 6 -1 8 2 2 21 15 41 30 21 15 43 24 52 21 10 -4
16 -1 16 8 0 15 19 38 32 38 4 0 8 -10 8 -22z m-645 -28 c-21 -22 -44 -40 -49
-40 -6 0 8 18 29 40 21 22 44 40 49 40 6 0 -8 -18 -29 -40z m352 34 c-3 -3
-12 -4 -19 -1 -8 3 -5 6 6 6 11 1 17 -2 13 -5z m183 -9 c0 -2 -10 -9 -22 -15
-22 -11 -22 -10 -4 4 21 17 26 19 26 11z m-485 -15 c-3 -5 -11 -10 -16 -10 -6
0 -7 5 -4 10 3 6 11 10 16 10 6 0 7 -4 4 -10z m178 -2 c15 -12 15 -15 -3 -36
-22 -27 -50 -20 -43 11 4 22 4 22 -11 3 -12 -15 -16 -16 -16 -5 0 35 42 50 73
27z m1513 -34 c-10 -14 -20 -23 -23 -21 -2 3 3 17 13 31 9 15 19 24 22 22 2
-3 -3 -17 -12 -32z m-1416 16 c-8 -5 -19 -10 -25 -10 -5 0 -3 5 5 10 8 5 20
10 25 10 6 0 3 -5 -5 -10z m2739 -16 c16 -21 20 -37 16 -76 -4 -58 -13 -72
-36 -55 -22 17 -36 157 -15 157 8 0 24 -12 35 -26z m-3941 4 c5 -7 13 -23 17
-36 6 -22 5 -23 -32 -17 -79 14 -87 20 -57 49 19 19 58 21 72 4z m747 2 c-3
-5 -10 -10 -16 -10 -5 0 -9 5 -9 10 0 6 7 10 16 10 8 0 12 -4 9 -10z m574 -12
c-26 -18 -102 -48 -107 -43 -7 7 -4 9 53 38 46 23 85 27 54 5z m-419 9 c0 -2
-10 -12 -22 -23 l-23 -19 19 23 c18 21 26 27 26 19z m40 -5 c0 -4 -16 -23 -35
-42 -41 -40 -48 -20 -8 22 27 28 43 35 43 20z m300 -2 c-8 -5 -19 -10 -25 -10
-5 0 -3 5 5 10 8 5 20 10 25 10 6 0 3 -5 -5 -10z m273 -24 c-24 -31 -64 -61
-57 -42 3 8 -1 16 -12 18 -13 2 -8 9 22 29 47 31 72 28 47 -5z m-1239 -63 c4
-43 9 -94 11 -114 4 -31 1 -39 -20 -53 -13 -9 -34 -33 -44 -54 l-20 -37 -2 50
c-1 28 -1 53 -1 56 1 4 3 50 6 104 4 78 9 100 23 111 34 26 41 17 47 -63z
m687 60 c-5 -10 -23 -35 -40 -57 -25 -32 -32 -35 -37 -21 -5 11 5 29 32 56 40
41 61 51 45 22z m374 7 c-3 -5 -12 -10 -18 -10 -7 0 -6 4 3 10 19 12 23 12 15
0z m1871 -16 c20 -14 49 -63 41 -70 -2 -2 -24 -8 -49 -12 -37 -7 -50 -6 -69 9
-13 10 -39 19 -58 19 l-34 0 44 40 c37 34 49 39 74 34 16 -4 39 -13 51 -20z
m647 14 c9 -8 19 -35 23 -68 7 -54 7 -55 -13 -37 -21 19 -83 23 -113 7 -27
-15 -47 21 -41 76 3 29 112 46 144 22z m-2713 -13 c-46 -18 -59 -18 -36 0 11
8 31 15 45 14 24 0 23 -2 -9 -14z m1469 -37 c-7 -13 -14 -38 -14 -56 -1 -19
-11 -42 -23 -55 -28 -28 -28 -9 0 40 20 34 20 36 3 23 -17 -14 -18 -13 -12 3
4 10 7 24 7 31 0 8 10 26 22 42 18 22 24 25 26 12 2 -9 -2 -27 -9 -40z m-2749
22 l40 -20 0 -84 c0 -47 3 -91 6 -100 8 -21 -5 -20 -34 2 -13 10 -28 39 -36
70 -18 66 -30 152 -22 152 4 0 25 -9 46 -20z m255 14 c20 -8 48 -61 36 -69 -5
-3 -16 2 -24 10 -9 8 -22 15 -30 15 -34 0 -47 11 -36 31 10 20 26 23 54 13z
m680 -4 c-3 -5 -15 -10 -26 -10 -10 0 -19 5 -19 10 0 6 12 10 26 10 14 0 23
-4 19 -10z m9 -25 c-21 -16 -34 -19 -34 -7 0 8 42 30 49 25 3 -2 -4 -10 -15
-18z m154 -27 c-20 -29 -48 -48 -48 -32 0 3 15 23 32 45 38 47 51 36 16 -13z
m382 41 c-26 -17 -70 -40 -70 -35 0 7 64 46 75 46 6 0 3 -5 -5 -11z m-2125
-15 c147 -10 409 -76 521 -131 47 -23 54 -31 95 -115 44 -89 77 -129 207 -243
23 -21 41 -39 40 -41 -2 -1 -36 1 -76 6 -50 7 -83 17 -105 33 -49 36 -131 81
-122 67 4 -6 31 -27 61 -46 30 -19 54 -36 54 -39 0 -11 -67 18 -89 38 -52 48
-123 96 -135 91 -6 -2 -23 7 -36 21 -13 14 -28 25 -34 25 -6 0 25 -37 69 -82
l80 -82 -76 70 c-66 60 -159 125 -159 111 0 -3 33 -30 73 -60 69 -52 123 -103
87 -82 -8 5 -49 34 -90 64 -140 103 -175 126 -141 88 33 -37 22 -34 -50 13
-57 37 -79 47 -79 36 0 -2 20 -16 45 -30 25 -15 45 -29 45 -32 0 -3 -19 6 -42
19 -48 28 -117 52 -124 44 -3 -3 12 -11 33 -17 21 -7 64 -28 96 -47 33 -18 64
-32 70 -31 17 3 58 -22 52 -31 -2 -5 53 -51 123 -104 114 -85 185 -147 170
-147 -3 0 -25 7 -49 16 -103 38 -358 48 -434 18 -21 -8 -104 -67 -176 -126
-54 -43 -207 -122 -271 -139 -39 -11 -62 -10 -140 4 -106 19 -130 15 -36 -5
l63 -15 -41 -6 c-32 -5 -61 0 -130 23 -48 17 -84 26 -78 20 5 -5 34 -19 64
-29 39 -14 48 -20 30 -20 -27 -1 -108 27 -172 60 -22 11 -42 18 -46 15 -3 -3
28 -21 69 -41 41 -19 65 -34 54 -34 -30 -1 -101 34 -171 85 -35 25 -64 43 -64
41 0 -3 -22 17 -50 44 -30 29 -50 57 -50 70 0 35 -10 16 -16 -32 -4 -24 -10
-47 -15 -50 -17 -10 -41 -112 -35 -144 4 -18 16 -44 27 -59 11 -14 28 -49 38
-79 26 -75 38 -91 103 -142 66 -52 121 -78 238 -110 62 -17 76 -24 52 -24 -39
-1 -184 34 -221 54 -42 22 -109 84 -141 130 -17 24 -54 69 -84 100 -29 31 -59
74 -66 95 -7 22 -16 38 -19 36 -3 -2 -7 24 -9 57 -4 104 -5 117 -8 117 -1 0
-17 -25 -35 -56 -18 -31 -45 -72 -62 -90 -16 -19 -24 -34 -19 -34 6 0 25 19
43 43 62 80 59 68 -9 -35 -28 -43 -40 -41 -92 18 -56 64 -72 117 -68 213 4 79
6 85 34 105 59 43 120 101 154 145 113 147 264 266 383 301 34 10 91 29 127
43 149 57 428 75 765 51z m805 0 c0 -2 -11 -4 -25 -4 -14 0 -25 4 -25 9 0 4
11 6 25 3 14 -2 25 -6 25 -8z m1160 9 c0 -5 -29 -20 -65 -34 -47 -19 -65 -23
-65 -14 0 7 26 22 58 33 66 23 72 25 72 15z m228 -39 c-21 -22 -26 -23 -31
-10 -4 11 3 20 21 30 37 19 41 11 10 -20z m2167 16 c-9 -15 -116 -63 -123 -56
-3 3 10 12 29 20 19 9 47 24 64 35 30 21 42 21 30 1z m-2731 -5 c4 -11 -2 -15
-26 -15 -26 0 -29 2 -18 15 7 8 18 15 25 15 7 0 15 -7 19 -15z m506 8 c0 -5
-28 -25 -61 -46 -45 -28 -60 -33 -57 -20 2 9 26 29 53 44 53 30 65 34 65 22z
m-1383 -27 c12 -13 28 -28 36 -32 8 -6 17 -33 21 -71 l7 -63 -27 0 c-15 0 -36
-7 -46 -17 -10 -9 -21 -14 -24 -11 -11 11 -25 144 -19 181 8 43 23 47 52 13z
m1007 -6 c-10 -16 -20 -27 -22 -25 -5 5 26 55 34 55 3 0 -3 -13 -12 -30z
m2366 20 c0 -5 -7 -10 -16 -10 -8 0 -12 5 -9 10 3 6 10 10 16 10 5 0 9 -4 9
-10z m-1860 -25 c-13 -14 -26 -23 -28 -20 -4 4 38 44 47 45 3 0 -6 -11 -19
-25z m-285 6 c-10 -17 -115 -73 -128 -68 -6 2 20 20 58 40 79 41 78 40 70 28z
m165 -10 c0 -20 -103 -105 -114 -94 -17 17 0 42 52 75 31 20 58 37 60 37 1 1
2 -7 2 -18z m1750 4 c62 -32 82 -92 56 -165 l-13 -35 -7 32 c-11 46 -49 83
-86 83 -32 0 -32 0 -25 43 4 23 9 45 12 50 7 11 31 8 63 -8z m-2020 -10 c-14
-8 -29 -14 -35 -14 -5 0 1 6 15 14 14 8 30 14 35 14 6 0 -1 -6 -15 -14z m2268
8 c-10 -2 -26 -2 -35 0 -10 3 -2 5 17 5 19 0 27 -2 18 -5z m483 -13 c10 -6 19
-18 19 -27 0 -13 -9 -15 -51 -11 -61 6 -83 23 -48 37 32 13 56 13 80 1z
m-2968 -7 c-7 -2 -19 -2 -25 0 -7 3 -2 5 12 5 14 0 19 -2 13 -5z m3056 -52
c-1 -14 -4 -37 -8 -49 l-6 -24 -19 21 c-11 12 -26 21 -33 21 -17 0 -16 1 16
54 23 36 25 37 38 20 7 -10 13 -29 12 -43z m-2889 45 c0 -2 -7 -7 -16 -10 -8
-3 -12 -2 -9 4 6 10 25 14 25 6z m180 -16 c0 -14 -130 -71 -142 -64 -11 7 122
83 135 76 4 -2 7 -7 7 -12z m-1070 0 c-20 -13 -33 -13 -25 0 3 6 14 10 23 10
15 0 15 -2 2 -10z m-88 -12 c-20 -20 -13 -32 8 -13 11 10 22 16 25 13 3 -3 -4
-13 -15 -23 -38 -34 -20 -34 41 0 33 19 59 29 57 22 -2 -6 -19 -20 -37 -29
-34 -17 -70 -58 -52 -58 5 0 12 4 15 9 3 5 22 18 41 30 33 19 35 19 35 2 0
-10 -12 -24 -27 -31 -16 -8 -42 -27 -59 -43 l-31 -28 -12 45 c-18 74 -14 116
13 116 6 0 5 -5 -2 -12z m828 -18 c0 -13 -28 -25 -38 -16 -3 4 0 11 8 16 20
13 30 12 30 0z m160 3 c0 -10 -61 -45 -67 -39 -8 7 36 46 52 46 8 0 15 -3 15
-7z m180 -28 c0 -20 -11 -30 -60 -55 -69 -35 -80 -37 -80 -12 0 12 22 31 63
54 76 44 77 44 77 13z m231 7 c-5 -9 -19 -26 -30 -36 -29 -26 -28 0 1 31 25
27 43 30 29 5z m-136 -2 c-9 -15 -65 -52 -65 -43 0 4 15 18 33 30 37 25 40 27
32 13z m176 -17 c-12 -20 -14 -14 -5 12 4 9 9 14 11 11 3 -2 0 -13 -6 -23z
m1079 13 c0 -8 -12 -28 -26 -43 l-25 -28 7 25 c6 22 31 60 41 60 1 0 3 -6 3
-14z m-1685 -25 c-3 -6 -11 -8 -17 -5 -6 4 -5 9 3 15 16 10 23 4 14 -10z m163
2 c-4 -20 -78 -49 -78 -30 0 7 15 19 33 28 43 22 49 22 45 2z m2057 -13 c21
-41 19 -87 -4 -99 -16 -9 -21 -6 -31 20 -7 16 -21 34 -31 40 -12 6 -19 21 -19
39 0 28 3 30 35 30 28 0 37 -5 50 -30z m763 3 c22 -20 40 -69 34 -96 -3 -16
-6 -15 -27 7 -15 17 -35 26 -53 26 -30 0 -42 14 -42 50 0 32 56 40 88 13z
m-2523 -23 c-16 -16 -34 -30 -39 -30 -10 1 53 60 63 60 3 0 -8 -13 -24 -30z
m-1435 -56 c0 -7 3 -14 8 -16 10 -5 94 -129 90 -133 -2 -3 -29 15 -59 39 -53
42 -70 70 -94 156 l-7 25 31 -29 c17 -17 31 -35 31 -42z m260 39 c0 -25 -1
-26 -16 -11 -9 9 -13 21 -10 27 13 20 26 11 26 -16z m129 -20 c7 -27 21 -82
31 -123 9 -41 20 -83 25 -92 5 -13 0 -21 -18 -29 -14 -6 -29 -21 -35 -33 -8
-19 -11 -17 -34 29 -14 28 -36 78 -48 112 -22 60 -22 64 -5 105 18 47 42 78
59 78 7 0 18 -21 25 -47z m931 38 c0 -5 -7 -12 -16 -15 -14 -5 -15 -4 -4 9 14
17 20 19 20 6z m47 -18 c-15 -16 -17 -16 -17 -1 0 9 6 18 13 21 20 7 22 -2 4
-20z m78 -9 c-52 -42 -72 -48 -25 -6 25 22 47 38 50 36 2 -3 -9 -16 -25 -30z
m-1337 4 c5 -7 15 -33 22 -58 7 -25 27 -78 45 -117 33 -71 31 -90 -7 -60 -22
17 -125 162 -133 188 -13 39 47 78 73 47z m2521 -19 c-16 -31 -59 -76 -59 -63
0 14 61 96 67 90 3 -2 -1 -15 -8 -27z m-1479 -8 c0 -4 -16 -15 -35 -24 -19 -9
-35 -15 -35 -13 0 3 -3 11 -6 19 -8 21 46 50 64 35 6 -6 12 -14 12 -17z m446
-8 c-11 -11 -17 4 -9 23 7 18 8 18 11 1 2 -10 1 -21 -2 -24z m1544 6 c19 -35
12 -49 -24 -49 -44 0 -50 11 -29 48 18 32 37 32 53 1z m-2920 16 c0 -3 -7 -18
-16 -33 -16 -26 -16 -26 9 2 l26 30 10 -25 c32 -77 83 -207 88 -223 5 -14 3
-17 -7 -11 -7 5 -32 9 -54 9 -41 1 -41 1 -78 76 -42 85 -50 152 -20 169 18 11
42 14 42 6z m1050 0 c0 -2 -10 -9 -22 -15 -22 -11 -22 -10 -4 4 21 17 26 19
26 11z m179 -21 c-22 -24 -79 -60 -79 -51 0 6 92 77 98 77 3 0 -5 -12 -19 -26z
m-136 9 c7 -6 -79 -73 -95 -73 -20 0 -5 21 35 49 45 33 50 34 60 24z m2637
-23 c24 -24 26 -40 5 -40 -17 0 -55 35 -55 50 0 17 29 11 50 -10z m-2890 -16
c0 -14 -4 -23 -10 -19 -5 3 -10 15 -10 26 0 10 5 19 10 19 6 0 10 -12 10 -26z
m-279 -2 c-11 -21 -51 -58 -51 -48 0 7 52 66 58 66 1 0 -2 -8 -7 -18z m559 13
c0 -11 -111 -86 -122 -83 -7 3 15 23 47 46 57 39 75 48 75 37z m125 -4 c-3 -5
-24 -24 -48 -41 l-42 -32 45 41 c45 41 56 49 45 32z m188 -94 c-4 -57 -10 -86
-17 -84 -7 3 -10 33 -9 83 3 88 9 112 23 98 5 -5 7 -47 3 -97z m-513 57 c-24
-14 -46 -21 -49 -18 -3 4 -1 8 4 10 6 2 24 12 40 23 17 10 34 16 38 13 5 -2
-10 -15 -33 -28z m331 -8 c-7 -8 -29 -24 -49 -36 l-37 -21 43 42 c24 22 46 38
49 35 3 -3 0 -12 -6 -20z m285 -23 c41 -25 74 -47 74 -47 0 -1 -6 -24 -14 -53
-8 -28 -12 -54 -9 -57 3 -2 1 -11 -3 -18 -5 -7 -7 -25 -5 -40 4 -40 -16 -43
-29 -4 -14 43 -37 63 -75 68 -25 2 -30 7 -29 31 3 132 5 167 10 167 4 0 40
-21 80 -47z m854 32 c0 -8 -16 -32 -35 -53 -45 -48 -49 -18 -4 33 35 39 39 41
39 20z m1260 -32 c0 -14 -6 -23 -15 -23 -15 0 -22 50 -8 63 9 10 23 -14 23
-40z m-2680 18 c0 -4 -18 -20 -39 -34 -32 -21 -40 -23 -45 -11 -4 9 6 22 27
34 34 21 57 26 57 11z m160 4 c0 -7 -104 -75 -115 -75 -5 0 15 18 45 40 52 37
70 46 70 35z m-1765 -30 l30 -25 -37 21 c-21 11 -38 23 -38 25 0 10 17 2 45
-21z m1477 -1 c-13 -9 -26 -13 -30 -9 -8 8 17 25 38 25 9 0 6 -6 -8 -16z m121
-35 c-11 -12 -29 -19 -39 -17 -16 3 -13 8 16 26 40 25 53 20 23 -9z m167 11
c-8 -4 -33 -22 -54 -39 -22 -17 -42 -29 -45 -25 -3 3 1 9 9 14 8 5 33 22 55
38 22 16 42 27 45 25 3 -3 -2 -8 -10 -13z m100 -10 c-31 -26 -60 -38 -60 -25
0 7 73 54 85 54 6 0 -6 -13 -25 -29z m-360 5 c0 -9 -6 -12 -15 -9 -8 4 -12 10
-9 15 8 14 24 10 24 -6z m-1440 -37 c27 -18 47 -34 45 -36 -5 -5 -125 67 -125
75 0 9 28 -5 80 -39z m195 -32 c22 -19 37 -38 33 -41 -3 -4 -32 17 -65 46 -99
90 -72 85 32 -5z m2418 57 c-9 -25 -63 -99 -63 -87 0 12 57 104 64 104 3 0 3
-8 -1 -17z m292 -31 c-43 -41 -43 -40 0 12 16 19 31 33 34 30 3 -2 -13 -21
-34 -42z m1345 35 c0 -14 -19 -37 -31 -37 -10 0 -20 30 -13 41 8 14 44 11 44
-4z m-2565 -33 c-46 -40 -82 -63 -70 -44 7 12 97 80 105 79 3 0 -13 -16 -35
-35z m-815 -5 c0 -11 -4 -17 -10 -14 -5 3 -10 15 -10 26 0 11 5 17 10 14 6 -3
10 -15 10 -26z m950 8 c0 -15 -11 -29 -30 -40 -27 -16 -30 -16 -30 -2 0 12 45
63 58 65 1 0 2 -10 2 -23z m-255 3 c-3 -5 -10 -10 -16 -10 -5 0 -9 5 -9 10 0
6 7 10 16 10 8 0 12 -4 9 -10z m663 -12 c18 -14 21 -19 8 -14 -10 3 -25 1 -32
-5 -11 -9 -14 -6 -14 15 0 32 4 32 38 4z m301 -18 c-13 -22 -26 -40 -31 -40
-5 0 4 18 18 40 15 22 29 40 31 40 2 0 -6 -18 -18 -40z m550 -17 c-10 -84 -71
-275 -83 -263 -13 13 -52 13 -77 0 -10 -6 -19 -9 -19 -6 0 2 23 63 51 135 42
108 57 136 87 161 20 16 39 30 42 30 4 0 3 -26 -1 -57z m-1352 22 c-4 -8 -16
-15 -28 -15 -21 0 -21 0 2 19 26 21 35 20 26 -4z m-788 -1 c69 -24 175 -90
203 -126 14 -18 33 -50 42 -70 23 -47 60 -85 109 -108 21 -10 62 -38 90 -62
64 -52 187 -183 187 -197 0 -6 -14 -9 -33 -7 -18 3 -40 0 -48 -5 -11 -7 -9 -9
7 -9 14 0 46 -27 90 -77 63 -70 66 -76 40 -69 -44 11 -86 -11 -106 -56 l-17
-38 -79 87 -78 86 23 16 c14 9 41 23 62 31 l39 16 -34 47 c-78 110 -237 255
-273 249 -16 -2 -23 -10 -23 -25 0 -12 -4 -28 -8 -35 -5 -7 -8 22 -7 68 0 44
-2 80 -6 80 -4 0 -12 -17 -18 -37 l-11 -38 5 35 c2 19 7 46 10 60 5 19 4 22
-4 10 -9 -12 -11 -11 -11 7 0 23 -37 55 -102 88 -21 11 -38 23 -38 28 0 4 -5
5 -11 2 -6 -4 -17 1 -25 11 -15 18 -15 18 -10 0 6 -16 4 -17 -9 -6 -15 13 -21
60 -7 60 4 0 27 -7 51 -16z m1326 -14 c-10 -16 -85 -52 -85 -41 0 6 19 19 43
30 52 24 50 23 42 11z m641 -16 c-11 -7 -22 -12 -25 -9 -2 3 4 12 15 19 10 8
21 12 24 9 3 -2 -4 -11 -14 -19z m-1161 -4 c3 -5 1 -10 -4 -10 -6 0 -11 5 -11
10 0 6 2 10 4 10 3 0 8 -4 11 -10z m242 -7 c4 -9 6 -30 6 -45 -1 -15 -2 -88
-3 -160 -2 -169 -15 -132 -24 70 -4 104 -3 152 4 152 6 0 14 -8 17 -17z m318
9 c-26 -23 -145 -100 -144 -94 2 27 22 47 69 71 54 28 94 39 75 23z m-625 -7
c0 -2 -10 -10 -22 -16 -21 -11 -22 -11 -9 4 13 16 31 23 31 12z m660 -12 c0
-44 -24 -183 -32 -183 -9 0 -11 13 -9 45 2 16 0 17 -8 5 -5 -8 -14 -11 -18 -6
-4 4 0 13 10 20 28 21 19 30 -10 11 l-28 -18 28 30 c15 16 27 34 27 41 0 15
-88 -41 -117 -75 l-23 -26 0 26 c0 22 14 36 74 77 41 27 77 54 81 60 10 16 25
12 25 -7z m-1768 -5 c24 -20 163 -267 189 -336 21 -56 -11 -5 -60 96 -28 56
-76 136 -106 177 -51 70 -60 92 -23 63z m273 -83 c17 -50 39 -104 48 -122 21
-39 21 -53 2 -53 -7 0 -18 -8 -23 -17 -8 -14 -16 -4 -41 50 -17 36 -31 70 -31
74 0 5 -11 25 -25 45 -14 20 -25 46 -25 57 0 24 36 64 52 59 6 -2 25 -44 43
-93z m866 62 c-11 -12 -24 -18 -27 -14 -10 10 27 48 38 41 6 -4 1 -16 -11 -27z
m79 18 c-7 -9 -15 -13 -17 -11 -7 7 7 26 19 26 6 0 6 -6 -2 -15z m680 -15 c47
-13 86 -24 86 -24 1 -1 -10 -47 -25 -103 l-26 -101 -28 24 c-35 30 -78 31
-124 3 l-34 -21 5 23 c3 13 10 60 16 104 15 108 21 127 34 122 6 -2 49 -14 96
-27z m447 -125 c-29 -76 -57 -140 -62 -142 -6 -2 -16 6 -23 18 -11 17 -11 23
0 37 11 14 10 14 -12 -1 -35 -24 -50 -20 -20 6 14 12 36 35 50 51 24 29 24 29
-20 -5 -48 -37 -120 -73 -120 -60 0 5 6 11 13 14 18 7 174 125 182 137 11 18
-10 10 -71 -26 -83 -50 -94 -56 -94 -47 0 5 25 23 56 42 30 18 53 35 50 38 -3
3 -24 -6 -47 -21 -22 -15 -43 -25 -45 -23 -9 9 70 51 96 52 14 0 24 6 23 13
-2 7 0 11 5 11 19 -3 32 2 32 14 0 14 54 50 58 38 1 -4 -21 -70 -51 -146z
m-2214 100 c21 -25 54 -80 73 -122 20 -43 40 -86 45 -95 12 -23 11 -28 -3 -28
-6 0 -19 -7 -29 -16 -17 -15 -19 -14 -36 22 -9 22 -43 84 -75 140 -56 97 -66
123 -51 137 16 17 41 4 76 -38z m1376 16 c44 -44 60 -171 42 -335 l-6 -60 -28
42 c-22 34 -33 42 -57 42 l-29 0 5 153 c3 83 7 158 10 165 5 18 42 14 63 -7z
m781 -12 c-35 -23 -90 -49 -90 -41 0 4 19 18 43 29 44 23 73 30 47 12z m-1120
-9 c0 -5 -5 -10 -11 -10 -5 0 -7 5 -4 10 3 6 8 10 11 10 2 0 4 -4 4 -10z m955
-2 l40 2 -35 -21 c-31 -18 -32 -19 -8 -15 14 3 33 9 41 12 12 4 14 0 10 -15
-3 -12 -8 -21 -12 -21 -3 -1 -19 -12 -36 -26 -20 -17 -23 -22 -8 -15 58 29 42
-3 -23 -47 -10 -7 -5 -6 12 2 30 15 31 14 27 -8 -6 -28 -51 -56 -92 -56 -18 0
-48 -7 -67 -15 -26 -11 -34 -11 -31 -2 3 6 18 63 33 125 l28 113 41 -7 c22 -4
58 -7 80 -6z m-875 -7 c0 -12 -20 -25 -27 -18 -7 7 6 27 18 27 5 0 9 -4 9 -9z
m0 -41 c0 -5 -5 -10 -11 -10 -5 0 -7 5 -4 10 3 6 8 10 11 10 2 0 4 -4 4 -10z
m415 -10 c-3 -5 -11 -10 -16 -10 -6 0 -7 5 -4 10 3 6 11 10 16 10 6 0 7 -4 4
-10z m-1619 -15 c11 -27 -2 -37 -14 -11 -7 16 -8 26 -1 26 5 0 12 -7 15 -15z
m1648 -24 c3 -5 -12 -25 -34 -44 -51 -44 -51 -53 1 -27 27 14 39 26 35 36 -3
8 1 14 9 14 16 0 21 -35 17 -115 -3 -71 -24 -225 -31 -225 -4 0 -17 7 -29 16
-15 10 -37 15 -63 12 l-40 -4 6 91 c12 194 12 192 58 225 44 30 62 36 71 21z
m506 -25 c0 -2 -12 -11 -27 -20 l-28 -17 24 20 c23 21 31 25 31 17z m-297 -68
c24 -28 22 -51 -20 -209 l-37 -140 -22 28 c-19 24 -29 28 -68 26 -55 -2 -53
-10 -26 146 20 117 37 151 85 172 28 12 67 2 88 -23z m515 -15 c2 -11 -27 -84
-63 -161 l-67 -140 -40 -6 c-23 -4 -42 -5 -44 -3 -2 2 21 66 51 143 40 101 63
147 86 167 36 33 72 33 77 0z m-4318 -28 c24 -29 24 -29 2 -10 -13 11 -28 29
-34 40 -11 21 -8 18 32 -30z m4012 23 c-7 -7 -12 -21 -12 -32 -1 -21 -1 -21
-15 -2 -13 17 -12 21 3 32 21 17 40 18 24 2z m-2000 -32 c9 -18 19 -55 23 -82
3 -27 8 -65 11 -84 l4 -35 -16 29 c-9 16 -18 48 -20 71 -2 23 -10 63 -18 89
-16 54 -7 61 16 12z m2048 29 c0 -2 -10 -10 -22 -16 -21 -11 -22 -11 -9 4 13
16 31 23 31 12z m-4079 -38 c12 -22 12 -22 -10 -3 -11 11 -21 23 -21 28 0 14
19 -1 31 -25z m2309 -29 c19 -35 44 -80 57 -100 29 -47 29 -48 -4 -48 -16 0
-39 -11 -55 -27 -27 -26 -34 -23 -29 15 1 8 -5 19 -15 26 -10 8 -18 29 -19 56
-1 25 -8 46 -14 48 -26 9 -2 92 27 92 13 0 30 -20 52 -62z m1810 58 c0 -2 -17
-14 -37 -25 l-38 -21 30 25 c28 23 45 31 45 21z m60 -17 c7 -11 8 -28 5 -37
-4 -9 -9 -28 -11 -42 -4 -36 -86 -240 -96 -240 -4 0 -8 5 -8 10 0 6 -7 10 -15
10 -12 0 -13 5 -7 18 5 9 8 22 5 28 -2 5 8 21 22 34 14 13 25 29 25 37 0 7
-17 -6 -37 -29 -21 -24 -47 -50 -58 -58 -11 -8 -32 -28 -47 -44 -32 -34 -34
-30 -14 19 8 19 32 45 54 60 35 23 86 77 132 140 20 28 13 22 -86 -75 -71 -70
-86 -80 -80 -58 14 61 25 75 86 107 34 18 59 35 57 38 -3 2 -16 -1 -29 -7 -14
-8 -4 8 27 40 28 29 44 50 38 46 -8 -4 -13 -1 -13 8 0 23 37 20 50 -5z m-216
2 c30 -12 36 -40 19 -106 -10 -40 -23 -60 -65 -98 -29 -27 -43 -43 -31 -38 12
6 25 16 28 21 3 5 15 14 25 20 18 10 18 8 4 -34 -19 -55 -46 -80 -91 -83 -19
-1 -44 -10 -54 -19 -11 -10 -21 -15 -24 -13 -2 3 8 52 24 110 64 236 87 269
165 240z m-3825 -63 c16 -12 19 -18 9 -18 -9 0 -35 18 -59 41 -41 37 -41 39
-9 18 19 -13 46 -31 59 -41z m3933 -3 c-32 -29 -59 -50 -60 -44 -5 13 16 37
62 71 61 44 60 33 -2 -27z m-1876 18 c4 -16 9 -32 13 -38 3 -5 17 -45 31 -87
l26 -78 -27 0 c-22 0 -30 8 -47 48 -51 118 -60 148 -51 165 16 27 48 21 55
-10z m-2454 -69 c-16 -31 -31 -53 -34 -48 -6 10 52 118 59 110 2 -2 -9 -30
-25 -62z m2734 21 c-13 -31 -18 -35 -31 -25 -15 13 -11 35 6 25 5 -4 14 5 21
19 18 40 21 23 4 -19z m-2381 25 c3 -5 2 -10 -4 -10 -5 0 -13 5 -16 10 -3 6
-2 10 4 10 5 0 13 -4 16 -10z m3336 -33 c23 -31 24 -37 22 -196 -1 -90 -5
-166 -8 -170 -4 -3 -14 5 -24 17 -9 13 -26 24 -36 26 -24 3 -32 64 -34 243 -1
99 1 112 17 115 26 6 37 0 63 -35z m-3716 4 c-14 -29 -35 -49 -35 -36 0 9 40
65 46 65 2 0 -2 -13 -11 -29z m2781 -27 c-5 -23 -11 -33 -17 -27 -6 6 -5 21 2
42 15 41 23 33 15 -15z m-83 16 c-3 -11 -9 -23 -14 -26 -10 -6 -12 29 -2 39
13 13 21 7 16 -13z m-2646 -17 c-24 -57 -35 -74 -40 -66 -5 7 40 93 49 93 2 0
-2 -12 -9 -27z m3205 -77 c7 -13 7 -21 -2 -26 -9 -6 -7 -10 8 -14 11 -4 26
-20 33 -37 7 -17 22 -46 35 -64 74 -109 20 -98 -79 15 -77 90 -77 90 -47 90
l30 0 -30 57 c-17 31 -36 63 -42 72 -7 9 10 -4 36 -29 26 -25 52 -53 58 -64z
m-817 53 c10 -30 0 -33 -15 -4 -7 14 -17 25 -22 25 -4 0 -8 5 -8 10 0 18 38
-8 45 -31z m-2380 -38 c-9 -28 -21 -51 -27 -51 -11 0 -10 2 18 67 25 56 30 47
9 -16z m2750 8 c-10 -31 -27 -7 -19 26 6 23 8 25 16 11 5 -9 6 -26 3 -37z
m-141 -28 c29 -12 154 -193 136 -199 -19 -7 -60 -56 -66 -79 -4 -13 -10 -23
-14 -23 -10 0 -77 105 -114 177 -33 66 -33 86 0 112 31 24 26 23 58 12z m166
-11 c0 -11 -4 -20 -10 -20 -5 0 -10 9 -10 20 0 11 5 20 10 20 6 0 10 -9 10
-20z m1042 -13 c13 -20 9 -72 -14 -199 -16 -85 -24 -114 -30 -99 -5 15 -16 21
-37 21 -16 0 -33 -4 -36 -10 -12 -20 -24 -9 -19 18 2 15 9 72 14 127 9 89 13
129 18 159 3 13 94 -2 104 -17z m-1493 -32 c0 -5 -6 -1 -14 9 -8 11 -15 24
-15 30 0 5 7 1 15 -10 8 -10 14 -23 14 -29z m468 -7 c-3 -7 -5 -2 -5 12 0 14
2 19 5 13 2 -7 2 -19 0 -25z m-242 -89 c23 -41 49 -86 59 -101 18 -27 18 -28
0 -28 -10 0 -28 -10 -41 -22 l-23 -21 -14 34 c-8 19 -20 63 -27 99 -7 36 -21
77 -32 92 -10 16 -15 33 -12 39 13 20 48 -16 90 -92z m1396 91 c27 -15 26
-114 -2 -226 -20 -78 -23 -84 -39 -69 -21 19 -43 19 -80 0 -37 -19 -36 -26 -4
144 17 90 31 140 42 149 19 15 56 16 83 2z m304 -20 c-3 -5 -12 -10 -18 -10
-7 0 -6 4 3 10 19 12 23 12 15 0z m101 -147 c-61 -124 -109 -193 -135 -193 -9
0 94 267 120 308 14 22 72 44 78 29 2 -5 -26 -70 -63 -144z m-1539 125 c-3 -8
-6 -5 -6 6 -1 11 2 17 5 13 3 -3 4 -12 1 -19z m-1252 -23 c-28 -22 -55 -32
-55 -20 0 7 63 45 75 45 6 0 -3 -11 -20 -25z m59 -10 c-22 -19 -50 -34 -64
-34 l-25 0 30 25 c61 52 117 61 59 9z m63 10 c-34 -30 -29 -31 23 -5 46 23 54
13 11 -13 -30 -18 -133 -35 -118 -20 16 15 92 62 102 62 6 0 -3 -11 -18 -24z
m2456 10 c-3 -9 -8 -14 -10 -11 -3 3 -2 9 2 15 9 16 15 13 8 -4z m145 3 c19
-19 15 -35 -44 -184 l-56 -142 -26 13 c-17 10 -31 11 -43 4 -26 -13 -28 -12
-26 16 1 14 22 48 46 76 40 47 51 78 16 49 -9 -7 -17 -11 -20 -8 -2 2 23 34
55 70 57 63 78 96 45 68 -26 -22 -30 -1 -5 25 26 28 40 31 58 13z m-1412 -20
c8 12 21 22 28 22 8 0 44 -34 81 -75 60 -68 64 -75 42 -75 -35 0 -59 -32 -61
-81 l-1 -41 -50 54 c-27 29 -65 72 -83 95 l-33 42 21 21 c11 11 20 30 21 43 0
22 0 22 10 -2 l10 -25 15 22z m-1451 -24 c-26 -19 -50 -32 -53 -29 -11 10 56
65 79 65 16 0 10 -8 -26 -36z m1055 -15 c0 -21 25 -91 47 -132 20 -39 10 -45
-15 -9 -24 33 -56 111 -67 162 l-7 35 21 -19 c11 -11 21 -27 21 -37z m1620 43
c0 -4 -6 -14 -12 -22 -7 -8 -3 -6 9 4 21 17 23 18 29 2 4 -10 -1 -28 -13 -44
-11 -15 -23 -34 -28 -42 -8 -13 -7 -13 8 -1 23 18 21 3 -4 -34 -11 -16 -27
-43 -35 -60 l-16 -30 27 30 26 30 -21 -43 c-19 -39 -24 -43 -49 -37 -19 4 -35
0 -53 -15 -14 -11 -28 -20 -31 -20 -3 0 8 51 24 113 25 98 32 116 63 145 33
29 76 43 76 24z m-2710 -6 c0 -2 -8 -10 -17 -17 -16 -13 -17 -12 -4 4 13 16
21 21 21 13z m440 -6 c0 -5 -9 -10 -21 -10 -11 0 -17 5 -14 10 3 6 13 10 21
10 8 0 14 -4 14 -10z m2358 -10 c-7 -10 -14 -17 -17 -15 -4 4 18 35 25 35 2 0
-1 -9 -8 -20z m-2731 -10 c-14 -11 -29 -20 -34 -20 -10 1 39 39 51 40 5 0 -3
-9 -17 -20z m48 -11 c-4 -5 -16 -9 -28 -9 -21 1 -21 1 -3 15 20 15 41 11 31
-6z m342 -21 c-79 -43 -66 -46 18 -3 38 19 71 32 74 29 6 -6 -1 -11 -82 -57
-38 -21 -52 -25 -63 -16 -8 6 -11 15 -8 20 6 11 95 58 109 58 6 0 -16 -14 -48
-31z m-86 -5 c-10 -34 -4 -53 15 -53 9 0 12 -4 9 -10 -3 -5 -15 -10 -26 -10
-12 0 -17 4 -13 11 3 6 -4 4 -17 -5 -14 -8 -60 -18 -106 -22 -90 -7 -102 -1
-89 50 7 29 50 46 141 56 101 12 95 13 86 -17z m43 13 c-10 -8 -21 -12 -24
-10 -5 6 21 24 34 24 6 0 1 -6 -10 -14z m186 6 c0 -13 -122 -82 -144 -82 -25
0 -20 5 56 50 63 38 88 47 88 32z m24 -23 c-19 -22 -83 -54 -91 -46 -3 4 95
66 106 67 2 0 -4 -10 -15 -21z m2146 -29 c-43 -52 -50 -57 -50 -40 0 11 76 90
86 90 3 0 -13 -22 -36 -50z m-2634 24 c-3 -9 -6 -33 -6 -54 l0 -38 -64 -4
c-64 -3 -65 -3 -70 26 -8 36 25 76 62 76 l25 0 -24 -27 -24 -28 25 21 c49 42
87 56 76 28z m1715 -7 c30 -20 159 -198 159 -219 0 -4 -14 -8 -30 -8 -18 0
-37 -8 -47 -20 -10 -11 -22 -20 -28 -20 -5 0 -49 43 -97 94 -96 103 -106 130
-66 173 27 29 66 29 109 0z m-1027 -25 c-11 -10 -33 -27 -49 -37 -21 -12 -16
-5 15 22 25 23 47 39 49 37 3 -2 -4 -12 -15 -22z m647 -54 c52 -57 70 -83 60
-86 -30 -10 -61 -51 -61 -82 0 -16 -3 -30 -8 -30 -17 0 -151 147 -158 173 -5
21 0 37 20 67 40 61 60 55 147 -42z m-681 68 c0 -10 -87 -74 -110 -81 -22 -6
-23 -5 -10 8 34 35 120 86 120 73z m115 -16 c-10 -11 -21 -17 -24 -14 -3 3 3
12 13 20 28 20 32 17 11 -6z m55 10 c0 -5 -10 -15 -22 -21 -23 -12 -23 -12 -4
10 21 23 26 26 26 11z m1012 -71 c21 -41 38 -78 38 -83 0 -5 -24 26 -53 70
-30 43 -52 83 -50 87 11 19 30 -4 65 -74z m-2402 61 c-8 -5 -19 -10 -25 -10
-5 0 -3 5 5 10 8 5 20 10 25 10 6 0 3 -5 -5 -10z m1140 3 c0 -5 -13 -17 -28
-27 l-27 -19 24 26 c26 28 31 32 31 20z m1526 -1 c38 -25 43 -97 18 -255 -21
-137 -20 -134 -46 -102 -20 26 -20 31 -9 120 6 52 11 128 11 169 0 74 3 83 26
68z m-2756 -32 c-60 -20 -150 -26 -150 -10 0 6 26 10 58 11 31 0 66 4 77 9 11
5 31 8 45 8 16 0 6 -6 -30 -18z m1135 -10 c-30 -31 -25 -42 7 -13 10 9 18 12
18 7 0 -5 -14 -18 -31 -28 -19 -11 -29 -14 -24 -6 6 10 3 12 -11 6 -10 -3 -1
9 21 28 49 43 58 46 20 6z m225 20 c0 -5 -5 -10 -11 -10 -5 0 -7 5 -4 10 3 6
8 10 11 10 2 0 4 -4 4 -10z m-300 -9 c0 -12 -102 -81 -111 -75 -13 8 3 44 24
56 20 10 63 25 80 27 4 1 7 -3 7 -8z m20 -22 c-53 -45 -110 -83 -116 -77 -3 3
12 16 33 29 21 12 54 35 73 51 46 37 54 35 10 -3z m1131 -5 c37 -25 189 -186
189 -199 0 -4 -6 -5 -13 -2 -24 9 -74 -23 -83 -53 l-9 -28 -87 82 c-79 74 -87
85 -93 129 -6 36 -3 53 9 72 21 32 41 32 87 -1z m-2393 9 c-16 -2 -40 -2 -55
0 -16 2 -3 4 27 4 30 0 43 -2 28 -4z m1118 -9 c-3 -9 -6 -26 -6 -40 0 -34 -60
-70 -143 -83 -87 -15 -109 -5 -105 47 3 31 9 40 38 54 19 9 71 19 114 23 44 3
82 8 85 10 11 11 23 4 17 -11z m861 -36 c15 -18 61 -66 103 -105 l75 -73 -24
-16 c-19 -14 -22 -23 -17 -52 l5 -35 -32 29 c-36 32 -48 45 -125 127 -33 35
-52 63 -48 72 3 8 0 14 -5 12 -12 -2 -22 50 -13 65 12 19 55 7 81 -24z m-1122
5 c-16 -38 -17 -64 -2 -87 16 -23 16 -23 -30 -30 -25 -3 -66 -6 -90 -6 -37 0
-44 3 -39 16 3 9 6 38 6 64 l0 49 43 4 c106 9 120 8 112 -10z m2213 5 c17 -17
15 -82 -8 -205 -29 -148 -28 -145 -50 -133 -11 6 -31 8 -46 4 -22 -6 -25 -4
-21 12 3 11 15 80 27 154 18 118 24 138 46 158 29 25 35 27 52 10z m346 -23
c-15 -22 -31 -36 -21 -17 2 4 7 15 10 25 4 9 11 17 17 17 6 0 3 -11 -6 -25z
m-2104 0 c0 -2 -10 -9 -22 -15 -22 -11 -22 -10 -4 4 21 17 26 19 26 11z m570
-30 c14 -19 14 -19 -2 -6 -10 7 -18 18 -18 24 0 6 1 8 3 6 1 -2 9 -13 17 -24z
m940 5 c0 -4 15 -26 33 -48 l34 -40 -16 -66 -16 -67 -25 30 c-20 23 -66 117
-96 196 -3 6 13 9 41 7 25 -2 45 -8 45 -12z m396 -16 c6 -22 -59 -328 -72
-343 -2 -2 -10 2 -18 8 -9 8 -28 10 -50 5 -23 -4 -36 -2 -36 4 0 6 14 78 30
159 34 162 51 193 110 193 24 0 31 -5 36 -26z m-2016 -5 c-43 -34 -67 -42 -30
-9 19 16 39 30 45 30 5 0 -1 -9 -15 -21z m2137 -16 c-2 -10 -8 -27 -12 -38
l-8 -20 17 20 c16 19 16 19 5 -7 -7 -15 -15 -26 -18 -24 -3 2 -7 -7 -7 -20 -1
-13 -12 -42 -23 -65 -12 -22 -20 -48 -17 -57 3 -10 -5 -37 -18 -61 -17 -32
-32 -47 -59 -56 -20 -7 -37 -9 -37 -4 0 9 26 111 57 224 19 69 64 125 101 125
18 0 23 -4 19 -17z m-978 -82 l94 -88 -31 -19 c-33 -19 -48 -46 -37 -64 14
-22 -10 -7 -100 66 -77 62 -96 82 -101 110 -8 46 16 84 54 84 20 -1 51 -24
121 -89z m-1269 74 c0 -2 -15 -12 -32 -21 -18 -9 -49 -29 -68 -44 -30 -23
-120 -66 -120 -57 0 4 107 74 160 106 33 20 60 27 60 16z m-154 -60 c-39 -24
-72 -43 -74 -40 -11 10 47 64 78 73 66 19 65 12 -4 -33z m1194 -190 c0 -15
-148 135 -186 190 -25 35 -3 16 75 -65 61 -63 111 -119 111 -125z m1344 219
c7 -17 -17 -93 -65 -204 -23 -54 -34 -69 -68 -87 l-41 -21 15 28 c21 40 19 75
-1 37 -30 -55 -25 -18 5 42 29 57 43 106 21 71 -7 -10 -10 -11 -10 -2 0 7 9
20 20 29 11 10 20 23 20 31 0 16 29 63 49 80 21 17 48 15 55 -4z m74 8 c-9
-23 -92 -161 -95 -159 -6 6 48 131 64 150 16 17 37 24 31 9z m-2677 -36 c-12
-13 -24 -32 -25 -42 -4 -23 -57 -42 -123 -43 -57 -1 -60 3 -44 59 6 23 14 26
96 36 50 6 96 12 104 13 10 1 7 -7 -8 -23z m204 16 c-13 -11 -65 -33 -65 -27
0 2 12 11 28 19 30 17 52 21 37 8z m1705 -79 c44 -65 50 -77 36 -85 -9 -5 -16
-16 -16 -23 0 -8 -6 -15 -14 -15 -15 0 -156 144 -156 159 0 31 14 41 56 41 43
0 44 -1 94 -77z m-177 15 c12 -6 58 -46 102 -90 70 -69 76 -78 54 -78 -27 0
-55 -24 -60 -52 -3 -13 -26 1 -101 63 -79 64 -98 85 -98 106 0 53 52 79 103
51z m-400 -30 c18 -12 63 -47 100 -77 l68 -54 -28 -18 c-15 -10 -30 -28 -33
-39 -5 -20 -9 -18 -63 24 -95 74 -141 142 -117 171 17 21 37 19 73 -7z m710
-78 c6 -24 3 -25 -17 -4 -21 20 -22 52 -2 35 8 -6 16 -21 19 -31z m380 25 c-3
-9 -8 -14 -10 -11 -3 3 -2 9 2 15 9 16 15 13 8 -4z m-805 -12 c63 -39 203
-158 190 -162 -26 -7 -48 -34 -48 -58 0 -12 -3 -23 -7 -23 -5 0 -51 34 -103
75 -119 95 -139 127 -103 167 20 23 35 23 71 1z m460 -105 c90 -82 100 -94 87
-108 -9 -10 -12 -25 -8 -40 5 -20 -7 -13 -66 39 -51 46 -68 67 -59 73 9 5 7 8
-7 8 -35 0 -96 84 -80 110 13 21 34 8 133 -82z m333 36 c-12 -26 -24 -45 -27
-42 -3 3 5 26 17 52 29 59 37 52 10 -10z m-263 -18 l4 -29 -33 19 c-46 27 -50
46 -8 42 29 -3 34 -7 37 -32z m-715 -100 c-14 -7 -26 1 -65 44 -26 30 -48 58
-48 62 0 5 29 -15 65 -44 56 -44 63 -53 48 -62z m144 57 c26 -20 76 -59 110
-86 60 -48 61 -49 42 -68 -10 -10 -19 -26 -19 -34 0 -8 -3 -15 -6 -15 -10 0
-217 151 -231 168 -7 9 -13 26 -13 38 0 46 55 44 117 -3z m400 -2 c73 -61 170
-154 153 -148 -23 7 -60 -10 -60 -28 0 -8 -2 -15 -5 -15 -10 0 -210 161 -218
176 -4 7 -3 23 3 34 18 34 70 26 127 -19z m281 -24 l3 -37 30 30 c37 36 63 40
55 8 l-6 -23 11 23 c7 12 16 22 21 22 4 0 -3 -22 -18 -49 -24 -48 -26 -49 -52
-38 -15 7 -50 28 -79 47 -41 27 -50 37 -41 48 6 7 25 12 42 10 28 -3 31 -7 34
-41z m227 -4 c-21 -51 -25 -52 -25 -10 0 31 9 44 33 46 4 1 0 -16 -8 -36z
m-108 -38 c-6 -19 -14 -35 -19 -35 -11 0 -10 7 7 40 21 40 26 38 12 -5z m56
20 c-3 -9 -8 -14 -10 -11 -3 3 -2 9 2 15 9 16 15 13 8 -4z m-478 -82 c63 -49
110 -90 103 -92 -27 -8 -48 -35 -48 -63 0 -15 -2 -28 -6 -28 -8 0 -144 109
-191 154 -24 22 -43 49 -43 60 0 25 28 56 51 56 10 0 70 -39 134 -87z m-595
42 c18 -22 7 -76 -31 -142 -30 -53 -33 -55 -41 -33 -5 13 -15 28 -24 34 -13
10 -13 15 1 46 9 19 23 46 30 60 8 14 15 35 15 48 0 19 3 21 18 13 10 -5 24
-17 32 -26z m243 -65 c88 -63 127 -97 127 -110 0 -11 -3 -20 -6 -20 -16 0
-144 103 -144 116 0 7 -6 11 -12 9 -15 -5 -120 65 -126 83 -10 31 46 4 161
-78z m634 60 c21 -11 52 -20 69 -20 40 0 140 -73 106 -78 -20 -3 -66 -48 -74
-73 -5 -14 -76 31 -133 85 -35 34 -42 61 -22 94 10 16 10 16 54 -8z m176 0
c-5 -19 -23 -29 -23 -12 0 7 20 32 26 32 1 0 0 -9 -3 -20z m47 -4 c0 -3 -4 -8
-10 -11 -5 -3 -10 -1 -10 4 0 6 5 11 10 11 6 0 10 -2 10 -4z m-21 -52 c47 -40
37 -49 -14 -13 -25 18 -45 34 -45 36 0 12 33 -1 59 -23z m-1016 -44 c3 -19 1
-51 -5 -71 -10 -35 -11 -35 -59 -35 -27 1 -48 3 -46 6 1 3 20 39 41 82 42 82
58 86 69 18z m26 33 c0 -10 -4 -27 -9 -38 -7 -16 -9 -12 -8 18 1 20 6 37 10
37 4 0 8 -8 7 -17z m446 -89 c61 -47 110 -89 109 -93 -4 -21 -17 -51 -24 -51
-14 0 -174 113 -217 154 -42 39 -45 76 -5 76 19 0 60 -26 137 -86z m259 76
c14 -5 60 -35 101 -66 68 -51 74 -59 61 -73 -8 -9 -16 -29 -18 -44 -3 -27 -5
-26 -105 58 -79 66 -103 92 -103 110 0 28 20 32 64 15z m-674 -37 c-11 -17
-11 -17 -6 0 3 10 6 24 7 30 0 9 2 9 5 0 3 -7 0 -20 -6 -30z m1432 26 c13 -5
41 -37 62 -70 31 -49 36 -62 26 -74 -17 -20 -25 -19 -38 8 -8 17 -11 18 -11 5
-1 -24 -1 -24 -86 17 -85 41 -100 56 -91 89 5 19 14 26 39 29 61 7 76 7 99 -4z
m-1411 -46 c-11 -21 -20 -35 -21 -32 0 14 31 81 36 76 3 -3 -4 -22 -15 -44z
m1258 23 c-9 -19 -8 -29 4 -47 15 -21 15 -23 -1 -35 -9 -8 -27 -14 -39 -14
-12 0 -38 -16 -59 -35 -34 -32 -36 -38 -30 -75 3 -22 3 -40 -2 -40 -4 0 -32
16 -62 36 -30 20 -77 48 -105 61 -111 56 -131 91 -78 133 36 28 78 20 116 -21
26 -28 29 -29 41 -14 10 14 17 15 34 6 25 -14 52 -14 52 -1 0 5 -16 12 -35 16
-44 8 -56 24 -18 25 15 0 55 6 88 14 33 7 70 14 82 14 20 1 21 -1 12 -23z
m-1493 -51 c14 -22 15 -30 3 -58 -15 -37 -67 -107 -79 -107 -11 0 -60 70 -60
85 0 16 90 105 106 105 7 0 21 -11 30 -25z m941 -71 c64 -52 91 -80 81 -83 -8
-4 -26 -16 -41 -27 -22 -18 -25 -26 -19 -45 9 -22 9 -22 19 8 6 17 25 39 42
49 27 16 31 23 26 46 -7 32 9 68 31 68 9 0 28 -9 44 -20 15 -11 40 -24 56 -30
16 -6 58 -30 93 -53 l64 -41 -33 -11 c-36 -12 -60 -39 -60 -68 0 -17 -4 -16
-34 9 -60 50 -126 97 -131 92 -3 -2 23 -25 58 -50 34 -25 70 -55 80 -66 17
-19 17 -19 -21 -26 -47 -7 -69 -30 -74 -74 l-3 -32 -71 72 c-146 150 -200 204
-241 241 -48 42 -60 74 -43 107 21 39 70 21 177 -66z m-348 -4 c116 -80 163
-122 153 -137 -11 -18 -271 165 -272 191 0 25 13 18 119 -54z m-466 -1 c4 -13
0 -19 -11 -19 -23 0 -122 -47 -122 -58 0 -5 -11 -14 -25 -20 -14 -6 -25 -9
-25 -6 0 2 18 28 41 57 56 71 129 95 142 46z m1526 -26 c24 -23 42 -44 40 -46
-2 -2 -16 -11 -31 -20 -42 -26 -61 -71 -56 -133 4 -48 3 -52 -13 -43 -10 5
-23 17 -28 27 -6 9 -11 14 -11 10 0 -17 -152 95 -161 119 -33 88 16 132 146
131 69 -1 71 -2 114 -45z m189 -16 c26 -24 27 -34 5 -59 -23 -26 -33 -23 -88
27 l-50 45 23 20 c22 18 26 19 55 4 18 -9 42 -26 55 -37z m-1585 28 c-3 -9 -8
-14 -10 -11 -3 3 -2 9 2 15 9 16 15 13 8 -4z m-52 -52 c-11 -21 -20 -35 -21
-32 0 14 31 81 36 76 3 -3 -4 -22 -15 -44z m646 -30 c39 -34 66 -68 73 -89 14
-41 5 -59 -10 -23 -9 20 -9 19 -4 -11 6 -30 5 -33 -8 -22 -8 6 -23 30 -33 52
-10 22 -20 38 -22 36 -3 -2 1 -15 7 -28 7 -12 -15 6 -49 42 -38 41 -61 74 -61
88 0 34 32 21 107 -45z m-742 -1 c-9 -22 -23 -43 -31 -46 -19 -7 -18 -6 12 48
31 56 41 55 19 -2z m-50 -22 c-14 -27 -30 -50 -36 -50 -5 0 -7 6 -3 13 56 95
79 117 39 37z m1702 -9 c13 -14 26 -26 30 -26 15 -1 69 -34 82 -49 10 -12 9
-17 -8 -25 -33 -18 -63 -70 -70 -120 l-6 -48 -71 46 c-74 47 -90 71 -99 142
-5 39 8 66 43 96 33 27 68 22 99 -16z m127 12 c-13 -60 -16 -62 -49 -37 -19
14 -19 15 10 39 39 32 47 31 39 -2z m-1866 -8 c-10 -23 -28 -34 -28 -18 0 7
31 43 36 43 2 0 -2 -11 -8 -25z m-28 11 c0 -11 -19 -15 -25 -6 -3 5 1 10 9 10
9 0 16 -2 16 -4z m815 -56 c16 -16 26 -32 24 -35 -9 -8 -80 46 -74 56 10 15
20 11 50 -21z m606 -3 c31 -17 76 -49 99 -70 l44 -37 -22 -16 c-28 -19 -52
-65 -52 -99 0 -25 -3 -24 -77 34 -118 92 -131 104 -143 135 -18 48 12 79 80
85 8 0 40 -14 71 -32z m-748 -63 c-8 -25 -17 -44 -18 -42 -8 7 17 98 25 93 5
-3 2 -26 -7 -51z m287 31 c7 -9 8 -15 2 -15 -5 0 -12 7 -16 15 -3 8 -4 15 -2
15 2 0 9 -7 16 -15z m-225 -19 c15 -11 17 -19 9 -44 l-9 -31 -26 23 c-20 17
-24 27 -18 44 10 26 18 27 44 8z m315 -76 l65 -59 -33 -1 c-25 0 -35 5 -41 22
-8 21 -8 21 -15 -6 -4 -15 -4 -31 -1 -36 4 -6 4 -10 1 -10 -6 0 -66 127 -66
141 0 21 29 5 90 -51z m864 38 c17 -66 3 -106 -49 -137 -36 -21 -42 -19 -46
19 -5 52 3 84 30 111 35 35 57 37 65 7z m-1082 -54 c-4 -33 -13 -45 -19 -26
-3 6 -20 12 -39 12 -22 0 -32 4 -29 13 2 6 9 25 15 40 l10 29 33 -19 c26 -16
31 -25 29 -49z m515 -17 l83 -71 -30 -12 c-42 -18 -80 -62 -80 -93 0 -23 -9
-17 -85 59 -89 89 -111 133 -84 166 42 51 92 38 196 -49z m-383 47 c4 -10 2
-13 -6 -8 -8 5 -9 2 -4 -11 5 -15 4 -16 -8 -6 -12 10 -13 16 -3 26 15 18 14
18 21 -1z m-252 -26 c3 -44 -3 -74 -38 -193 -34 -114 -54 -160 -54 -122 0 9
-8 32 -17 52 -17 35 -17 37 22 148 35 101 55 136 78 137 4 0 8 -10 9 -22z
m-132 -81 c-16 -36 -30 -76 -30 -87 0 -24 -8 -25 -38 -2 -22 17 -23 52 -1 52
5 0 16 15 25 33 9 17 28 48 43 67 37 50 38 19 1 -63z m1015 73 c-5 9 1 7 15
-5 20 -17 23 -18 17 -2 -9 24 -2 21 34 -15 17 -18 28 -26 23 -18 -6 12 -2 11
16 -3 14 -9 36 -22 50 -28 l25 -11 -35 -16 c-39 -19 -80 -74 -80 -108 0 -13
-4 -24 -8 -24 -19 0 -142 112 -148 135 -8 31 12 81 39 100 18 13 23 13 41 -3
14 -12 17 -13 11 -2z m-729 -32 c4 -15 1 -25 -12 -35 -23 -17 -25 -13 -18 25
8 37 20 41 30 10z m32 -3 c-3 -3 -9 2 -12 12 -6 14 -5 15 5 6 7 -7 10 -15 7
-18z m-94 -7 c8 -13 2 -51 -23 -155 -18 -76 -37 -142 -41 -146 -4 -4 -13 -1
-20 8 -7 8 -26 15 -42 15 -22 0 -29 4 -25 14 3 8 20 63 38 123 44 149 79 194
113 141z m125 -42 c-3 -3 -11 5 -18 17 -13 21 -12 21 5 5 10 -10 16 -20 13
-22z m196 20 c33 -14 155 -125 155 -141 0 -4 -10 0 -22 11 -19 16 -20 16 -9 1
8 -9 11 -20 8 -24 -10 -10 -37 18 -58 60 -11 21 -23 37 -25 34 -3 -3 6 -23 20
-46 14 -22 26 -45 26 -51 0 -25 -20 -4 -64 70 -27 44 -51 80 -53 80 -2 0 -2
-3 0 -7 2 -5 23 -41 46 -81 46 -79 50 -104 9 -50 -22 28 -78 139 -78 153 0 8
8 6 45 -9z m-30 -53 c14 -31 23 -58 21 -60 -4 -4 -56 100 -56 111 0 18 13 -1
35 -51z m-220 0 c-5 -15 -7 -34 -6 -41 1 -8 -5 -24 -13 -37 -9 -13 -13 -30
-10 -38 3 -8 -3 -20 -13 -28 -16 -13 -17 -12 -4 4 8 9 11 20 8 23 -3 3 -18
-13 -33 -35 -15 -23 -29 -40 -31 -37 -6 5 36 155 52 186 13 24 42 42 54 34 2
-2 0 -16 -4 -31z m26 -6 c-10 -9 -11 -8 -5 6 3 10 9 15 12 12 3 -3 0 -11 -7
-18z m906 11 c5 -7 8 -28 7 -45 -1 -18 -2 -43 -3 -56 -2 -37 -38 -69 -74 -65
-25 2 -35 10 -48 38 -16 33 -16 37 2 72 28 54 93 86 116 56z m-312 -22 c46
-31 105 -80 105 -88 0 -5 -7 -8 -15 -8 -24 0 -83 -67 -96 -110 l-12 -39 -41
47 c-23 25 -53 60 -68 76 -39 41 -38 86 3 121 38 31 78 31 124 1z m-594 -39
c-13 -12 -20 -15 -16 -7 14 26 28 41 33 35 3 -3 -5 -16 -17 -28z m-374 -28
c21 -40 15 -87 -24 -192 -32 -89 -38 -98 -50 -81 -17 24 -17 26 9 54 19 20 22
37 26 137 5 116 13 134 39 82z m430 0 c-4 -15 -2 -19 9 -15 17 7 19 -23 2 -59
-9 -20 -18 -25 -46 -25 l-34 0 22 38 22 37 -28 -25 c-26 -24 -26 -22 6 23 35
49 56 61 47 26z m332 -51 c14 -13 19 -15 12 -5 -8 9 -11 20 -9 23 3 3 20 -19
37 -48 32 -56 42 -59 15 -5 l-17 32 21 -19 c12 -10 24 -27 27 -37 4 -11 11
-16 17 -13 10 6 28 -12 28 -28 0 -5 -14 -8 -30 -8 -20 0 -40 -9 -56 -25 -30
-30 -36 -27 -79 35 -23 33 -25 42 -15 55 12 15 11 16 -10 19 -11 1 -14 10 -7
29 3 9 8 8 22 -3 17 -14 18 -13 12 3 -9 23 2 22 32 -5z m367 -10 c16 -12 30
-23 32 -24 2 -1 -12 -24 -31 -51 l-34 -48 -66 -3 -66 -3 5 28 c10 54 71 122
110 123 12 0 34 -10 50 -22z m-1052 -24 c12 -32 5 -108 -16 -180 -13 -40 -25
-74 -28 -74 -3 0 -10 10 -15 22 -8 17 -29 35 -53 44 -3 1 65 181 74 195 9 14
31 10 38 -7z m338 -54 c-15 -147 -20 -181 -24 -185 -2 -3 -22 -6 -44 -7 -21
-2 -45 -10 -52 -18 -27 -31 0 34 29 71 36 45 38 61 4 29 -34 -32 -31 -14 5 34
17 22 30 49 30 61 0 26 19 47 40 42 9 -1 14 -12 12 -27z m-132 11 c0 -5 -12
-17 -27 -26 l-28 -18 24 27 c26 28 31 31 31 17z m-98 -26 c8 -19 8 -28 -3 -42
-12 -15 -12 -16 1 -8 8 4 -1 -9 -20 -30 -19 -21 -29 -35 -22 -31 6 4 12 3 12
-3 0 -6 7 -8 15 -5 23 9 18 -4 -6 -17 -15 -7 -19 -8 -15 0 15 23 -20 -1 -38
-27 l-19 -27 25 23 c38 34 46 9 9 -28 -16 -17 -38 -30 -48 -30 -11 0 -24 -5
-31 -12 -9 -9 -8 1 2 32 8 25 26 82 41 127 25 78 42 102 73 103 7 0 17 -11 24
-25z m739 -32 c34 -20 35 -27 9 -53 -20 -20 -61 -25 -109 -11 -34 9 -37 26 -7
56 29 29 66 32 107 8z m-746 -63 c-3 -5 -11 -10 -16 -10 -6 0 -7 5 -4 10 3 6
11 10 16 10 6 0 7 -4 4 -10z m65 -13 c0 -2 -12 -14 -27 -28 l-28 -24 24 28
c23 25 31 32 31 24z m-329 -29 c3 -38 -7 -71 -48 -150 l-45 -88 -22 33 c-21
30 -22 34 -8 62 8 17 18 32 21 35 3 3 24 31 45 63 39 56 55 69 57 45z m361
-15 c-17 -31 -112 -118 -112 -103 0 15 111 133 118 126 2 -3 -1 -13 -6 -23z
m-274 -5 c21 -21 13 -104 -23 -218 -40 -128 -54 -159 -55 -120 0 31 -43 96
-69 105 -16 5 -13 17 42 125 59 120 76 137 105 108z m158 -44 c-6 -33 -8 -35
-26 -24 -12 7 -11 12 4 29 25 27 27 26 22 -5z m104 -25 c-12 -40 -17 -46 -32
-31 -9 9 -6 18 12 37 13 14 25 25 26 25 1 0 -1 -14 -6 -31z m123 -21 c-3 -29
-11 -84 -17 -123 l-11 -69 -45 -9 c-25 -5 -52 -16 -62 -24 -15 -13 -15 -12 -7
24 5 21 11 48 13 60 2 13 8 28 13 35 6 7 14 34 17 60 9 60 38 98 76 98 l29 0
-6 -52z m-259 3 c3 -4 -3 -16 -14 -26 -11 -10 -20 -23 -20 -28 0 -6 8 -3 18 6
10 10 21 17 24 17 8 0 -3 -42 -14 -57 -5 -7 -7 -16 -4 -21 5 -8 -31 -162 -40
-171 -2 -3 -15 6 -28 19 -18 16 -33 21 -55 18 -17 -3 -31 -1 -31 3 0 15 50
168 64 194 8 14 21 32 31 38 20 15 62 20 69 8z m100 -29 c3 -5 -17 -31 -44
-57 -55 -54 -58 -54 -34 -4 29 59 63 86 78 61z m26 -33 c0 -5 -22 -34 -48 -62
-70 -76 -84 -102 -18 -34 68 70 74 52 10 -27 -26 -31 -45 -59 -42 -61 2 -3 20
15 38 40 42 56 54 50 13 -8 -22 -31 -36 -41 -53 -39 -12 1 -29 -3 -36 -9 -17
-14 -18 0 -3 56 7 26 30 59 67 98 56 56 72 67 72 46z m-462 -70 c2 -23 -6 -47
-23 -74 l-26 -40 5 55 c7 72 16 102 30 97 6 -2 12 -19 14 -38z m98 -69 c35
-53 30 -111 -21 -243 -39 -100 -46 -105 -59 -37 -4 20 -23 53 -46 79 -37 41
-39 47 -33 85 3 23 23 64 47 98 51 71 75 75 112 18z m324 -65 c-6 -15 -13 -25
-16 -22 -4 3 0 20 7 37 17 37 24 25 9 -15z m126 13 c-7 -37 -94 -169 -115
-176 -11 -4 -13 5 -8 44 15 116 43 164 98 164 30 0 31 -1 25 -32z m-299 -20
c26 -24 29 -57 12 -128 -17 -72 -17 -73 -18 -112 -1 -21 -5 -38 -11 -38 -5 0
-10 6 -10 14 0 18 -67 30 -119 21 l-39 -7 33 89 c18 48 38 100 43 114 11 27
56 69 75 69 6 0 21 -10 34 -22z m118 -8 c4 -6 1 -9 -6 -8 -7 2 -13 -1 -14 -7
-1 -14 -57 -96 -62 -91 -8 8 16 78 33 97 19 21 39 25 49 9z m45 -121 c0 -72
-30 -131 -63 -125 -24 3 -67 -12 -67 -25 0 -4 -6 -9 -13 -12 -17 -7 -13 64 5
78 29 24 112 115 105 115 -4 0 -32 -26 -62 -57 -62 -66 -76 -52 -18 17 21 24
38 50 39 58 2 8 13 25 25 38 l22 24 14 -26 c7 -15 13 -53 13 -85z m-440 -19
c21 -30 55 -139 45 -148 -15 -16 -71 72 -75 118 -3 33 -1 60 4 60 3 0 14 -13
26 -30z m238 -133 c15 -14 22 -32 22 -59 0 -35 -2 -38 -19 -28 -11 5 -36 10
-56 10 -48 0 -117 36 -113 58 2 9 19 25 38 35 42 21 95 15 128 -16z m102 -32
c-46 -47 -60 -54 -60 -31 0 21 61 76 84 76 17 0 13 -8 -24 -45z"/>
<path d="M3207 6903 c-11 -10 -8 -53 3 -53 6 0 10 14 10 30 0 31 -2 35 -13 23z"/>
<path d="M3282 6595 c0 -16 2 -22 5 -12 2 9 2 23 0 30 -3 6 -5 -1 -5 -18z"/>
<path d="M4511 6837 c-45 -22 -65 -47 -38 -47 8 0 26 9 40 20 14 11 39 23 56
26 17 4 28 10 25 15 -8 14 -36 10 -83 -14z"/>
<path d="M4793 6739 c-7 -18 -11 -34 -9 -37 7 -7 27 39 24 55 -2 9 -8 2 -15
-18z"/>
<path d="M3795 6669 c-11 -17 1 -21 15 -4 8 9 8 15 2 15 -6 0 -14 -5 -17 -11z"/>
<path d="M3642 6430 c0 -14 2 -19 5 -12 2 6 2 18 0 25 -3 6 -5 1 -5 -13z"/>
<path d="M3542 6395 c0 -16 2 -22 5 -12 2 9 2 23 0 30 -3 6 -5 -1 -5 -18z"/>
<path d="M3695 5880 c-3 -5 -2 -10 4 -10 5 0 13 5 16 10 3 6 2 10 -4 10 -5 0
-13 -4 -16 -10z"/>
<path d="M2717 5768 c-67 -85 -62 -94 8 -13 25 30 42 55 36 55 -5 0 -25 -19
-44 -42z"/>
<path d="M2717 5683 c-4 -3 -7 -11 -7 -17 0 -6 5 -5 12 2 6 6 9 14 7 17 -3 3
-9 2 -12 -2z"/>
<path d="M2730 5579 c0 -5 5 -7 10 -4 6 3 10 8 10 11 0 2 -4 4 -10 4 -5 0 -10
-5 -10 -11z"/>
<path d="M5377 5604 c-15 -8 -36 -13 -45 -10 -9 3 -24 1 -32 -4 -28 -17 54 -8
90 11 19 10 31 18 25 18 -5 0 -23 -7 -38 -15z"/>
<path d="M5410 5588 c-19 -6 -30 -12 -24 -14 5 -3 28 2 50 10 45 17 26 19 -26
4z"/>
<path d="M5460 5568 c-45 -12 -67 -32 -25 -22 17 4 48 13 70 20 30 9 34 12 15
12 -14 0 -41 -4 -60 -10z"/>
<path d="M4970 5430 c-13 -9 -13 -10 0 -10 8 0 22 5 30 10 13 9 13 10 0 10 -8
0 -22 -5 -30 -10z"/>
<path d="M5135 5009 c-4 -6 -5 -12 -2 -15 2 -3 7 2 10 11 7 17 1 20 -8 4z"/>
<path d="M5824 5433 c9 -17 21 -35 27 -38 22 -14 17 1 -12 35 l-30 35 15 -32z"/>
<path d="M3615 4822 c3 -19 0 -43 -6 -54 -6 -11 -8 -22 -5 -25 3 -4 13 11 22
32 9 22 12 40 6 44 -5 3 -12 13 -16 21 -3 8 -4 0 -1 -18z"/>
<path d="M3612 4729 c-18 -33 -28 -58 -22 -54 15 9 62 93 58 104 -1 5 -18 -17
-36 -50z"/>
<path d="M2121 4666 c2 -2 31 -13 64 -24 33 -11 69 -24 80 -28 14 -5 17 -4 10
4 -11 12 -122 52 -144 52 -8 0 -12 -2 -10 -4z"/>
<path d="M2070 4650 c0 -5 15 -10 33 -10 24 0 28 3 17 10 -20 13 -50 13 -50 0z"/>
<path d="M2344 4552 c21 -24 104 -67 113 -59 3 3 -10 13 -28 21 -19 8 -50 25
-69 37 -35 23 -35 23 -16 1z"/>
<path d="M890 4345 c-20 -24 -6 -28 15 -5 10 11 13 20 8 20 -6 0 -16 -7 -23
-15z"/>
<path d="M1102 4335 c0 -16 2 -22 5 -12 2 9 2 23 0 30 -3 6 -5 -1 -5 -18z"/>
<path d="M900 4315 c-13 -14 -19 -25 -13 -25 12 0 48 38 41 45 -2 3 -15 -6
-28 -20z"/>
<path d="M896 4269 c-15 -17 -25 -33 -22 -36 7 -8 23 5 46 37 28 39 11 39 -24
-1z"/>
<path d="M1110 4294 c0 -6 16 -28 35 -50 19 -21 34 -34 34 -29 0 6 -15 28 -34
50 -19 22 -35 35 -35 29z"/>
<path d="M892 4205 c-23 -30 -38 -55 -33 -55 10 0 42 36 65 73 31 51 10 39
-32 -18z"/>
<path d="M3097 4623 c-4 -3 -7 -11 -7 -17 0 -6 5 -5 12 2 6 6 9 14 7 17 -3 3
-9 2 -12 -2z"/>
<path d="M4638 4543 c7 -3 16 -2 19 1 4 3 -2 6 -13 5 -11 0 -14 -3 -6 -6z"/>
<path d="M5158 4363 c7 -3 16 -2 19 1 4 3 -2 6 -13 5 -11 0 -14 -3 -6 -6z"/>
<path d="M4730 4169 c-45 -38 -45 -38 -13 -30 40 11 73 30 54 31 -11 0 -11 3
-1 15 26 31 4 22 -40 -16z"/>
<path d="M4735 4110 c-10 -11 -16 -22 -13 -25 3 -3 13 4 23 15 10 11 16 22 13
25 -3 3 -13 -4 -23 -15z"/>
<path d="M4705 4010 c-10 -11 -16 -22 -13 -25 3 -3 13 4 23 15 10 11 16 22 13
25 -3 3 -13 -4 -23 -15z"/>
<path d="M5119 4063 l-24 -26 33 23 c33 25 38 30 24 30 -5 0 -19 -12 -33 -27z"/>
<path d="M4679 3853 c-13 -16 -12 -17 4 -4 16 13 21 21 13 21 -2 0 -10 -8 -17
-17z"/>
<path d="M4670 3779 c0 -5 5 -7 10 -4 6 3 10 8 10 11 0 2 -4 4 -10 4 -5 0 -10
-5 -10 -11z"/>
<path d="M4570 3136 c0 -2 9 -6 20 -9 11 -3 20 -1 20 4 0 5 -9 9 -20 9 -11 0
-20 -2 -20 -4z"/>
<path d="M4715 3030 c3 -5 11 -10 16 -10 6 0 7 5 4 10 -3 6 -11 10 -16 10 -6
0 -7 -4 -4 -10z"/>
<path d="M5540 2802 c-23 -22 -23 -24 -3 -13 12 6 25 16 28 22 13 20 0 15 -25
-9z"/>
<path d="M4740 2599 c0 -15 33 -99 37 -95 6 5 -17 76 -29 91 -4 5 -8 7 -8 4z"/>
<path d="M4589 2379 c-8 -15 -8 -19 0 -15 17 11 13 -2 -10 -37 -20 -32 -20
-32 10 3 31 34 41 57 19 44 -8 -5 -9 -2 -5 9 9 24 0 21 -14 -4z"/>
<path d="M4434 1589 c-19 -22 -19 -22 3 -10 24 12 39 31 25 31 -5 0 -17 -10
-28 -21z"/>
</g>
</svg>
