<svg width="568" height="159" viewBox="0 0 568 159" fill="none" xmlns="http://www.w3.org/2000/svg">
<g filter="url(#filter0_d_655_339)">
<path fill-rule="evenodd" clip-rule="evenodd" d="M506 8.91916L541.357 2.6106C540.667 5.00921 540.981 6.26065 541.62 8.48228C539.746 10.0411 538.866 11.1442 537.877 13.8851L538.218 15.7971L531.375 17.0181L537.457 46.7097L552.284 44.0642C550.662 46.3076 550.36 47.5784 550.578 49.8926C548.909 51.6837 548.197 52.6735 547.458 54.395L547.936 57.0718L541.122 60.655L549.358 100.221L561.904 97.9827C559.505 100.745 558.307 102.368 557.43 105.883L553.248 106.63C550.654 108.699 549.701 110.06 549.709 113.18L546.151 113.025C543.044 114.873 541.725 116.298 539.883 119.668C538.285 117.389 537.185 116.328 533.742 116.029C535.848 113.863 536.772 112.677 536.725 110.762L526.948 64.7623C525.411 62.5641 524.174 61.808 521.567 60.9875L521.304 55.1159C520.207 53.3846 519.439 52.4702 517.444 51.0697L523.907 49.9165L517.961 20.9897C516.497 18.4684 515.495 17.1349 512.619 15.2351C510.794 12.4114 509.137 11.1265 506 8.91916ZM501.277 9.81517L481.744 13.2735C485.813 17.2856 487.725 19.5948 490.167 23.8703L506.329 101.744C508.857 102.792 510.2 103.771 512.195 107.379L514.368 113.814C516.538 114.566 517.723 115.241 519.691 117.841L521.728 123.874C524.448 124.84 525.539 125.875 527.446 127.767L501.277 9.81517ZM454.981 92.5261C454.981 92.5261 458.381 96.9459 458.488 103.381C458.488 103.381 463.329 107.5 463.736 115.375L471.754 129.621L468.945 73.4214L478.633 72.3704L486.437 101.256L493.089 104.731C493.089 104.731 494.215 108.87 497.861 110.633C497.861 110.633 499.599 117.024 506.621 124.194L491.655 68.2341L493.227 55.4339L488.233 55.239L478.048 14.1135L449.273 19.0642L453.975 26.7502L454.422 61.065L450.499 60.9119C450.499 60.9119 448.905 65.1369 455.005 73.592L454.981 92.5261ZM17.4906 33.5625L22.024 17.9495L56.6256 23.2622C56.5341 28.272 59.5564 31.329 59.5564 31.329L55.6854 59.4191L42.2555 69.0696L39.6844 67.7761L27.9234 75.193L23.6738 96.1534L18.1593 100.021L14.9919 107.697C10.8276 110.063 8.95362 115.167 8.95362 115.167L1.75439 127.704L21.8631 35.1178L17.4906 33.5625ZM261.177 38.3419C263.18 41.4253 264.009 43.1764 264.573 46.3867L262.357 124.054C264.239 126.014 265.19 127.33 266.487 130.452C268.602 132.823 269.187 134.284 269.631 137.018L271.558 148.355C272.846 139.208 285.898 134.254 285.898 134.254C287.022 125.948 289.642 122.433 289.642 122.433L294.806 118.032C295.721 113.105 301.111 110.367 301.111 110.367L301.285 87.5152L291.257 78.0616C295.381 75.0935 297.913 73.7639 302.961 72.3216C301.123 61.1697 300.69 54.9261 300.65 43.8056C297.887 42.0791 296.655 40.6024 294.957 37.1656L261.177 38.3419ZM89.8565 104.644C89.8565 104.644 86.452 109.06 86.3396 115.495C86.3396 115.495 81.4947 119.609 81.0798 127.484L73.0476 141.723L75.9107 85.5256L66.2246 84.4651L58.3922 113.343L51.7364 116.812C51.7364 116.812 50.6068 120.949 46.9593 122.71C46.9593 122.71 45.215 129.099 38.1865 136.262L53.2057 80.3163L51.6468 67.5146L56.6411 67.3245L66.2246 32.5159L63.5462 25.123L90.9261 29.0159L90.4456 73.1832L95 75.0159L89.8505 85.7096L89.8565 104.644ZM306.664 120.821C307.127 114.402 304.132 109.698 304.132 109.698L305.831 90.8406C300.502 81.8789 302.463 77.8115 302.463 77.8115L306.358 78.3112L308.949 44.0914L304.945 36.0195L334.045 33.6339L340.551 75.4992L345.509 76.1352L342.811 88.7462L352.767 145.811C346.407 138.048 345.241 131.528 345.241 131.528C341.766 129.449 341.011 125.227 341.011 125.227L334.692 121.177L329.473 91.7141L319.731 91.904L317.557 148.132L310.83 133.232C311.121 125.352 306.664 120.821 306.664 120.821ZM95.97 29.4325L131.505 32.8893L134.003 38.2804L137.697 40.2331C137.697 40.2331 137.207 43.7694 138.23 46.7941L123.865 75.0795L133.84 117.808L144.944 103.104L145.688 96.7368L154.568 85.9045C154.568 85.9045 145.332 74.3138 139.899 74.5751L139.05 70.855L133.323 66.6173L132.332 62.2772L162.261 34.5739L178.984 35.6501L170.646 61.6881L166.777 51.1555L154.553 61.7726L168.886 76.4404C168.886 76.4404 168.489 82.7276 171.981 85.1924L146.056 122.419L142.228 123.292C142.228 123.292 140.448 126.67 136.434 128.922L140.383 145.84L133.74 139.154C133.74 139.154 133.003 134.82 130.574 131.799L129.101 134.768L114.294 143.691L127.102 126.731C125.924 124.186 123.653 120.666 119.615 118.82L111.213 90.9881L106.985 139.777L102.621 134.848L101.685 128.592L98.0286 123.762L98.5668 119.872L95.2152 115.444L99.1473 45.3507L97.4059 39.7038L99.1139 37.7778L98.2866 33.3386L95.97 29.4325ZM253.424 83.1891L227.39 82.4947L229.537 92.7117L229.986 99.2728L248.42 100.83L248.968 94.3536L253.424 83.1891ZM173.891 120.039C175.259 113.751 172.96 108.67 172.96 108.67L177.313 90.2434C173.307 80.6173 175.825 76.8687 175.825 76.8687L179.609 77.915L187.02 44.4069L184.2 35.8495L213.344 37.6091L213.856 79.9739L218.673 81.3055L214.217 93.4074L215.991 151.307C210.794 142.722 210.563 136.102 210.563 136.102C207.418 133.552 207.268 129.265 207.268 129.265L201.586 124.361L200.593 94.4564L190.922 93.2647L180.807 148.618L176.258 132.916C177.662 125.156 173.891 120.039 173.891 120.039ZM339 34.0549L385.742 27.9999L386.626 34.8285C385.699 36.8779 385.524 38.2855 385.741 41.192C384.445 43.2641 384.161 44.5296 384.431 46.9162C383.167 47.8711 382.688 48.8783 382.5 51.5L377.776 45.6953L369.671 41.1908L360.255 42.4105L370.605 122.304L381.216 103.919L376.882 70.4593C375.887 68.9498 374.817 68.2334 371.687 67.3134C371.94 65.6194 371.816 64.7237 371.156 63.2163L388.306 60.9947L394.498 108.794C388.995 118.518 386.292 124.184 383.223 135.25L375.153 136.296C371.43 139.374 369.882 141.493 367.852 145.92L366.967 139.092C365.799 137.881 365.021 137.322 363.543 136.411L361.641 121.73C359.596 119.422 358.347 118.559 355.978 117.603L346.734 46.245C346.223 43.7444 345.705 42.4074 343.247 40.4478C342.101 37.1324 341.136 35.7962 339 34.0549ZM409.262 25.0058L389 28.0356C390.634 29.3167 391.204 30.1272 391.941 31.6441L392.435 34.944C396.156 35.7369 398.463 41.1271 398.463 41.1271L401.276 59.9361C399.966 61.6315 398.918 62.3413 396.679 63.3225L399.376 67.3049C402.657 69.1756 403.151 72.4755 403.151 72.4755L409.319 113.723C412.196 115.249 413.8 116.377 416.571 120.061L417.755 127.98C421.921 129.629 423.33 130.771 425.397 132.91L416.071 70.5434L436.92 67.4257L443.088 108.674C447.511 112.873 449.395 115.969 451.525 122.931C454.505 125.058 456.065 126.708 458.29 132.04L458.873 127.904L442.737 19.9999L423.357 22.8981C424.838 23.9533 425.486 24.734 426.298 26.5066L426.791 29.8064C429.815 32.3271 430.838 33.6855 432.232 36.0774L435.045 54.8864L414.196 58.004L409.262 25.0058ZM466.817 27.2512L468.432 59.1107L474.909 57.9344L466.817 27.2512ZM36.2743 37.2125L32.5674 54.9266L42.303 49.7622L44.9057 38.1842L36.2743 37.2125ZM275.284 121.35L278.574 85.3892L287.078 92.3999L287.307 104.265L275.284 121.35ZM278.806 72.9407L279.489 55.5166L287.203 54.2056L286.513 69.2316L278.806 72.9407ZM78.0838 39.3574L76.4381 71.2154L69.9626 70.0328L78.0838 39.3574ZM320.486 77.604L321.696 45.7265L327.041 77.0052L320.486 77.604ZM111.918 67.66L122.829 46.1045L113.134 45.8443L111.918 67.66ZM193.695 79.2157L199.407 47.8309L200.269 79.5514L193.695 79.2157Z" fill="#09ff00"/>
<path d="M541.357 2.6106L542.798 3.02531L543.464 0.710894L541.093 1.13392L541.357 2.6106ZM506 8.91916L505.737 7.44249L502.194 8.07462L505.137 10.1458L506 8.91916ZM541.62 8.48228L542.579 9.63558L543.332 9.00915L543.062 8.06762L541.62 8.48228ZM537.877 13.8851L536.466 13.3757L536.329 13.7533L536.4 14.1486L537.877 13.8851ZM538.218 15.7971L538.481 17.2738L539.958 17.0103L539.694 15.5336L538.218 15.7971ZM531.375 17.0181L531.111 15.5414L529.596 15.8117L529.905 17.3191L531.375 17.0181ZM537.457 46.7097L535.987 47.0107L536.281 48.4432L537.72 48.1864L537.457 46.7097ZM552.284 44.0642L553.499 44.9431L555.674 41.9356L552.02 42.5875L552.284 44.0642ZM550.578 49.8926L551.675 50.9151L552.134 50.4225L552.071 49.7523L550.578 49.8926ZM547.458 54.395L546.08 53.8036L545.903 54.2163L545.982 54.6585L547.458 54.395ZM547.936 57.0718L548.634 58.3994L549.605 57.8887L549.413 56.8083L547.936 57.0718ZM541.122 60.655L540.424 59.3274L539.423 59.8537L539.653 60.9607L541.122 60.655ZM549.358 100.221L547.89 100.527L548.187 101.954L549.622 101.698L549.358 100.221ZM561.904 97.9827L563.037 98.9664L565.822 95.76L561.641 96.506L561.904 97.9827ZM557.43 105.883L557.693 107.36L558.65 107.189L558.885 106.247L557.43 105.883ZM553.248 106.63L552.984 105.153L552.61 105.22L552.312 105.457L553.248 106.63ZM549.709 113.18L549.644 114.678L551.213 114.746L551.209 113.176L549.709 113.18ZM546.151 113.025L546.216 111.527L545.769 111.507L545.384 111.736L546.151 113.025ZM539.883 119.668L538.655 120.529L540.041 122.506L541.199 120.387L539.883 119.668ZM533.742 116.029L532.666 114.983L530.462 117.249L533.612 117.523L533.742 116.029ZM536.725 110.762L538.224 110.724L538.221 110.586L538.192 110.45L536.725 110.762ZM526.948 64.7623L528.415 64.4505L528.352 64.1525L528.177 63.9029L526.948 64.7623ZM521.567 60.9875L520.069 61.0547L520.116 62.1033L521.117 62.4184L521.567 60.9875ZM521.304 55.1159L522.803 55.0487L522.785 54.65L522.571 54.3129L521.304 55.1159ZM517.444 51.0697L517.18 49.593L513.632 50.2262L516.582 52.2974L517.444 51.0697ZM523.907 49.9165L524.17 51.3932L525.686 51.1228L525.376 49.6145L523.907 49.9165ZM517.961 20.9897L519.43 20.6877L519.381 20.4481L519.258 20.2365L517.961 20.9897ZM512.619 15.2351L511.359 16.0493L511.53 16.3133L511.792 16.4866L512.619 15.2351ZM481.744 13.2735L481.483 11.7964L478.624 12.3027L480.691 14.3415L481.744 13.2735ZM501.277 9.81517L502.741 9.49027L502.43 8.08766L501.015 8.33814L501.277 9.81517ZM490.167 23.8703L491.635 23.5655L491.587 23.3328L491.469 23.1264L490.167 23.8703ZM506.329 101.744L504.86 102.049L505.021 102.826L505.754 103.13L506.329 101.744ZM512.195 107.379L513.616 106.9L513.573 106.772L513.508 106.654L512.195 107.379ZM514.368 113.814L512.946 114.294L513.182 114.991L513.876 115.232L514.368 113.814ZM519.691 117.841L521.112 117.361L521.034 117.13L520.887 116.936L519.691 117.841ZM521.728 123.874L520.306 124.353L520.539 125.043L521.225 125.287L521.728 123.874ZM527.446 127.767L526.39 128.832L530.017 132.431L528.911 127.442L527.446 127.767ZM458.488 103.381L456.988 103.406L456.999 104.084L457.516 104.523L458.488 103.381ZM454.981 92.5261L453.481 92.5241L453.481 93.0354L453.792 93.4407L454.981 92.5261ZM463.736 115.375L462.238 115.453L462.256 115.804L462.429 116.111L463.736 115.375ZM471.754 129.621L470.447 130.357L473.252 129.547L471.754 129.621ZM468.945 73.4214L468.784 71.9302L467.377 72.0828L467.447 73.4963L468.945 73.4214ZM478.633 72.3704L480.081 71.9791L479.746 70.7407L478.471 70.8791L478.633 72.3704ZM486.437 101.256L484.989 101.647L485.16 102.281L485.743 102.586L486.437 101.256ZM493.089 104.731L494.537 104.337L494.365 103.705L493.784 103.401L493.089 104.731ZM497.861 110.633L499.308 110.24L499.129 109.581L498.514 109.283L497.861 110.633ZM506.621 124.194L505.549 125.243L509.545 129.324L508.07 123.806L506.621 124.194ZM491.655 68.2341L490.167 68.0513L490.131 68.3403L490.206 68.6216L491.655 68.2341ZM493.227 55.4339L494.716 55.6167L494.914 53.9986L493.285 53.935L493.227 55.4339ZM488.233 55.239L486.777 55.5996L487.048 56.6939L488.174 56.7379L488.233 55.239ZM478.048 14.1135L479.504 13.7529L479.168 12.3987L477.793 12.6352L478.048 14.1135ZM449.273 19.0642L449.019 17.5859L446.84 17.9609L447.994 19.847L449.273 19.0642ZM453.975 26.7502L455.475 26.7307L455.47 26.3188L455.255 25.9675L453.975 26.7502ZM454.422 61.065L454.364 62.5639L455.943 62.6255L455.922 61.0455L454.422 61.065ZM450.499 60.9119L450.557 59.4131L449.477 59.3709L449.095 60.3825L450.499 60.9119ZM455.005 73.592L456.505 73.5939L456.506 73.1082L456.222 72.7143L455.005 73.592ZM22.024 17.9495L22.2516 16.4669L20.9505 16.2671L20.5835 17.5312L22.024 17.9495ZM17.4906 33.5625L16.05 33.1442L15.6558 34.502L16.9879 34.9758L17.4906 33.5625ZM56.6256 23.2622L58.1254 23.2896L58.1493 21.9786L56.8533 21.7796L56.6256 23.2622ZM59.5564 31.329L61.0423 31.5337L61.1434 30.8006L60.6231 30.2744L59.5564 31.329ZM55.6854 59.4191L56.5608 60.6373L57.0835 60.2616L57.1714 59.6239L55.6854 59.4191ZM42.2555 69.0696L41.5814 70.4096L42.393 70.8179L43.1308 70.2877L42.2555 69.0696ZM39.6844 67.7761L40.3585 66.4361L39.6013 66.0552L38.8843 66.5073L39.6844 67.7761ZM27.9234 75.193L27.1232 73.9242L26.5807 74.2664L26.4533 74.895L27.9234 75.193ZM23.6738 96.1534L24.5352 97.3814L25.025 97.0378L25.1439 96.4514L23.6738 96.1534ZM18.1593 100.021L17.298 98.793L16.9397 99.0444L16.7727 99.4489L18.1593 100.021ZM14.9919 107.697L15.7329 109.001L16.1816 108.746L16.3785 108.269L14.9919 107.697ZM8.95362 115.167L10.2544 115.914L10.3178 115.804L10.3617 115.684L8.95362 115.167ZM1.75439 127.704L0.288568 127.386L3.05518 128.451L1.75439 127.704ZM21.8631 35.1178L23.3289 35.4362L23.6089 34.1468L22.3658 33.7046L21.8631 35.1178ZM264.573 46.3867L266.072 46.4295L266.077 46.2772L266.05 46.1271L264.573 46.3867ZM261.177 38.3419L261.125 36.8428L258.475 36.9351L259.919 39.159L261.177 38.3419ZM262.357 124.054L260.857 124.011L260.839 124.639L261.275 125.093L262.357 124.054ZM266.487 130.452L265.102 131.028L265.199 131.261L265.368 131.45L266.487 130.452ZM269.631 137.018L268.151 137.259L268.153 137.27L269.631 137.018ZM271.558 148.355L270.079 148.607L273.043 148.565L271.558 148.355ZM285.898 134.254L286.43 135.656L287.265 135.339L287.385 134.455L285.898 134.254ZM289.642 122.433L288.669 121.291L288.54 121.401L288.439 121.536L289.642 122.433ZM294.806 118.032L295.779 119.174L296.184 118.829L296.281 118.306L294.806 118.032ZM301.111 110.367L301.79 111.705L302.604 111.291L302.611 110.379L301.111 110.367ZM301.285 87.5152L302.785 87.5266L302.79 86.8724L302.314 86.4237L301.285 87.5152ZM291.257 78.0616L290.381 76.8441L288.905 77.9061L290.228 79.1531L291.257 78.0616ZM302.961 72.3216L303.373 73.7639L304.658 73.3967L304.441 72.0777L302.961 72.3216ZM300.65 43.8056L302.15 43.8002L302.147 42.9723L301.445 42.5335L300.65 43.8056ZM294.957 37.1656L296.302 36.5013L295.873 35.6328L294.905 35.6665L294.957 37.1656ZM86.3396 115.495L87.3105 116.638L87.8275 116.199L87.8394 115.521L86.3396 115.495ZM89.8565 104.644L91.0445 105.559L91.3566 105.154L91.3565 104.643L89.8565 104.644ZM81.0798 127.484L82.3863 128.221L82.5592 127.915L82.5777 127.563L81.0798 127.484ZM73.0476 141.723L71.5496 141.647L74.3541 142.46L73.0476 141.723ZM75.9107 85.5256L77.4087 85.6019L77.4808 84.1885L76.0739 84.0345L75.9107 85.5256ZM66.2246 84.4651L66.3878 82.974L65.1127 82.8344L64.7769 84.0725L66.2246 84.4651ZM58.3922 113.343L59.0854 114.673L59.6679 114.37L59.8399 113.736L58.3922 113.343ZM51.7364 116.812L51.0432 115.482L50.462 115.784L50.2894 116.417L51.7364 116.812ZM46.9593 122.71L46.3074 121.359L45.6922 121.655L45.5123 122.314L46.9593 122.71ZM38.1865 136.262L36.7378 135.873L35.2569 141.389L39.2571 137.312L38.1865 136.262ZM53.2057 80.3163L54.6544 80.7052L54.7299 80.424L54.6947 80.1349L53.2057 80.3163ZM51.6468 67.5146L51.5898 66.0156L49.9607 66.0776L50.1578 67.6959L51.6468 67.5146ZM56.6411 67.3245L56.6981 68.8234L57.7957 68.7817L58.0873 67.7227L56.6411 67.3245ZM66.2246 32.5159L67.6708 32.9141L67.7975 32.4538L67.6349 32.005L66.2246 32.5159ZM63.5462 25.123L63.7573 23.6379L61.2854 23.2865L62.1359 25.6339L63.5462 25.123ZM90.9261 29.0159L92.426 29.0322L92.4403 27.7161L91.1372 27.5309L90.9261 29.0159ZM90.4456 73.1832L88.9457 73.1669L88.9345 74.192L89.8856 74.5748L90.4456 73.1832ZM95 75.0159L96.3515 75.6667L97.0469 74.2227L95.56 73.6243L95 75.0159ZM89.8505 85.7096L88.499 85.0588L88.3504 85.3675L88.3505 85.7101L89.8505 85.7096ZM304.132 109.698L302.638 109.564L302.592 110.073L302.866 110.504L304.132 109.698ZM306.664 120.821L305.168 120.713L305.119 121.389L305.595 121.873L306.664 120.821ZM305.831 90.8406L307.325 90.9752L307.368 90.4915L307.12 90.074L305.831 90.8406ZM302.463 77.8115L302.654 76.3237L301.582 76.1861L301.112 77.16L302.463 77.8115ZM306.358 78.3112L306.168 79.799L307.735 80L307.854 78.4244L306.358 78.3112ZM308.949 44.0914L310.444 44.2046L310.475 43.7939L310.292 43.4249L308.949 44.0914ZM304.945 36.0195L304.823 34.5245L302.619 34.7052L303.601 36.686L304.945 36.0195ZM334.045 33.6339L335.527 33.4035L335.313 32.0249L333.922 32.1389L334.045 33.6339ZM340.551 75.4992L339.069 75.7296L339.242 76.8436L340.361 76.987L340.551 75.4992ZM345.509 76.1352L346.975 76.4489L347.316 74.8548L345.7 74.6474L345.509 76.1352ZM342.811 88.7462L341.344 88.4324L341.283 88.7171L341.333 89.004L342.811 88.7462ZM352.767 145.811L351.606 146.761L355.226 151.179L354.244 145.553L352.767 145.811ZM345.241 131.528L346.718 131.264L346.597 130.592L346.011 130.241L345.241 131.528ZM341.011 125.227L342.487 124.963L342.372 124.318L341.82 123.964L341.011 125.227ZM334.692 121.177L333.215 121.439L333.329 122.085L333.882 122.44L334.692 121.177ZM329.473 91.7141L330.95 91.4525L330.727 90.1893L329.444 90.2144L329.473 91.7141ZM319.731 91.904L319.702 90.4043L318.287 90.4318L318.232 91.846L319.731 91.904ZM317.557 148.132L316.19 148.749L319.056 148.19L317.557 148.132ZM310.83 133.232L309.331 133.177L309.318 133.529L309.463 133.85L310.83 133.232ZM131.505 32.8893L132.866 32.2588L132.505 31.4795L131.65 31.3964L131.505 32.8893ZM95.97 29.4325L96.1152 27.9396L93.1707 27.6531L94.6798 30.1977L95.97 29.4325ZM134.003 38.2804L132.642 38.911L132.854 39.3701L133.302 39.6065L134.003 38.2804ZM137.697 40.2331L139.183 40.4387L139.327 39.398L138.398 38.907L137.697 40.2331ZM138.23 46.7941L139.568 47.4733L139.853 46.9109L139.651 46.3135L138.23 46.7941ZM123.865 75.0795L122.528 74.4003L122.28 74.8879L122.405 75.4205L123.865 75.0795ZM133.84 117.808L132.379 118.149L133.107 121.267L135.037 118.712L133.84 117.808ZM144.944 103.104L146.141 104.007L146.387 103.682L146.434 103.278L144.944 103.104ZM145.688 96.7368L144.528 95.7859L144.249 96.126L144.198 96.5627L145.688 96.7368ZM154.568 85.9045L155.728 86.8554L156.496 85.9179L155.741 84.9697L154.568 85.9045ZM139.899 74.5751L138.436 74.9088L138.716 76.1337L139.971 76.0733L139.899 74.5751ZM139.05 70.855L140.512 70.5213L140.389 69.9796L139.942 69.6492L139.05 70.855ZM133.323 66.6173L131.86 66.951L131.984 67.4927L132.43 67.8231L133.323 66.6173ZM132.332 62.2772L131.313 61.1764L130.677 61.7655L130.87 62.6109L132.332 62.2772ZM162.261 34.5739L162.358 33.077L161.715 33.0357L161.242 33.4731L162.261 34.5739ZM178.984 35.6501L180.413 36.1075L180.999 34.2766L179.081 34.1531L178.984 35.6501ZM170.646 61.6881L169.238 62.2052L170.743 66.3033L172.074 62.1456L170.646 61.6881ZM166.777 51.1555L168.185 50.6384L167.436 48.597L165.794 50.023L166.777 51.1555ZM154.553 61.7726L153.57 60.6401L152.369 61.6832L153.481 62.8209L154.553 61.7726ZM168.886 76.4404L170.383 76.5347L170.425 75.8691L169.958 75.3921L168.886 76.4404ZM171.981 85.1924L173.212 86.0496L174.064 84.8264L172.846 83.9669L171.981 85.1924ZM146.056 122.419L146.39 123.881L146.956 123.752L147.287 123.276L146.056 122.419ZM142.228 123.292L141.894 121.83L141.222 121.983L140.901 122.593L142.228 123.292ZM136.434 128.922L135.7 127.614L134.717 128.166L134.973 129.263L136.434 128.922ZM140.383 145.84L139.319 146.897L143.046 150.647L141.844 145.499L140.383 145.84ZM133.74 139.154L132.261 139.406L132.341 139.874L132.676 140.212L133.74 139.154ZM130.574 131.799L131.742 130.859L130.272 129.03L129.23 131.132L130.574 131.799ZM129.101 134.768L129.875 136.053L130.25 135.827L130.445 135.434L129.101 134.768ZM114.294 143.691L113.097 142.787L115.068 144.976L114.294 143.691ZM127.102 126.731L128.299 127.635L128.84 126.917L128.463 126.101L127.102 126.731ZM119.615 118.82L118.179 119.253L118.375 119.902L118.991 120.184L119.615 118.82ZM111.213 90.9881L112.649 90.5546L109.718 90.8586L111.213 90.9881ZM106.985 139.777L105.862 140.771L108.178 143.387L108.479 139.906L106.985 139.777ZM102.621 134.848L101.138 135.071L101.204 135.51L101.498 135.843L102.621 134.848ZM101.685 128.592L103.168 128.37L103.112 127.992L102.881 127.687L101.685 128.592ZM98.0286 123.762L96.5428 123.556L96.4576 124.172L96.8326 124.667L98.0286 123.762ZM98.5668 119.872L100.053 120.077L100.138 119.462L99.7629 118.967L98.5668 119.872ZM95.2152 115.444L93.7176 115.36L93.6867 115.91L94.0192 116.349L95.2152 115.444ZM99.1473 45.3507L100.645 45.4347L100.66 45.1659L100.581 44.9086L99.1473 45.3507ZM97.4059 39.7038L96.2836 38.7086L95.7239 39.3397L95.9725 40.1459L97.4059 39.7038ZM99.1139 37.7778L100.236 38.773L100.723 38.2242L100.589 37.503L99.1139 37.7778ZM98.2866 33.3386L99.7612 33.0638L99.7125 32.8022L99.5768 32.5734L98.2866 33.3386ZM227.39 82.4947L227.43 80.9952L225.531 80.9445L225.922 82.8032L227.39 82.4947ZM253.424 83.1891L254.817 83.7451L255.614 81.747L253.464 81.6896L253.424 83.1891ZM229.537 92.7117L231.033 92.6093L231.026 92.5053L231.005 92.4032L229.537 92.7117ZM229.986 99.2728L228.49 99.3753L228.577 100.659L229.86 100.768L229.986 99.2728ZM248.42 100.83L248.294 102.325L249.789 102.451L249.915 100.957L248.42 100.83ZM248.968 94.3536L247.575 93.7975L247.492 94.0049L247.473 94.2273L248.968 94.3536ZM172.96 108.67L171.5 108.325L171.383 108.823L171.593 109.289L172.96 108.67ZM173.891 120.039L172.426 119.72L172.282 120.383L172.684 120.929L173.891 120.039ZM177.313 90.2434L178.773 90.5883L178.884 90.1155L178.698 89.6671L177.313 90.2434ZM175.825 76.8687L176.224 75.4229L175.182 75.1349L174.579 76.0324L175.825 76.8687ZM179.609 77.915L179.21 79.3608L180.733 79.7818L181.074 78.2389L179.609 77.915ZM187.02 44.4069L188.485 44.7308L188.574 44.3287L188.445 43.9375L187.02 44.4069ZM184.2 35.8495L184.291 34.3522L182.084 34.2189L182.776 36.3189L184.2 35.8495ZM213.344 37.6091L214.844 37.591L214.827 36.1959L213.435 36.1118L213.344 37.6091ZM213.856 79.9739L212.356 79.9921L212.37 81.1193L213.456 81.4197L213.856 79.9739ZM218.673 81.3055L220.081 81.8239L220.644 80.2941L219.073 79.8598L218.673 81.3055ZM214.217 93.4074L212.809 92.889L212.709 93.1623L212.718 93.4533L214.217 93.4074ZM215.991 151.307L214.707 152.083L217.665 156.969L217.49 151.261L215.991 151.307ZM210.563 136.102L212.063 136.05L212.039 135.367L211.508 134.937L210.563 136.102ZM207.268 129.265L208.767 129.213L208.744 128.558L208.248 128.13L207.268 129.265ZM201.586 124.361L200.087 124.411L200.109 125.068L200.606 125.497L201.586 124.361ZM200.593 94.4564L202.092 94.4066L202.05 93.1246L200.777 92.9677L200.593 94.4564ZM190.922 93.2647L191.106 91.776L189.701 91.6029L189.447 92.995L190.922 93.2647ZM180.807 148.618L179.366 149.036L182.282 148.888L180.807 148.618ZM176.258 132.916L174.782 132.649L174.719 132.995L174.817 133.333L176.258 132.916ZM385.742 27.9999L387.229 27.8072L387.036 26.3197L385.549 26.5124L385.742 27.9999ZM339 34.0549L338.808 32.5673L335.351 33.0151L338.052 35.2175L339 34.0549ZM386.626 34.8285L387.993 35.4468L388.168 35.0585L388.114 34.6358L386.626 34.8285ZM385.741 41.192L387.013 41.9873L387.273 41.5705L387.237 41.0803L385.741 41.192ZM384.431 46.9162L385.335 48.1131L386.017 47.5976L385.921 46.7478L384.431 46.9162ZM382.5 51.5L381.337 52.4468L383.726 55.3828L383.996 51.6071L382.5 51.5ZM377.776 45.6953L378.94 44.7485L378.758 44.5244L378.505 44.3841L377.776 45.6953ZM369.671 41.1908L370.4 39.8796L369.968 39.6398L369.478 39.7032L369.671 41.1908ZM360.255 42.4105L360.063 40.9229L358.575 41.1156L358.768 42.6032L360.255 42.4105ZM370.605 122.304L369.117 122.497L369.687 126.895L371.904 123.054L370.605 122.304ZM381.216 103.919L382.515 104.669L382.769 104.229L382.704 103.726L381.216 103.919ZM376.882 70.4593L378.369 70.2666L378.325 69.9231L378.134 69.634L376.882 70.4593ZM371.687 67.3134L370.204 67.0922L370.011 68.3841L371.264 68.7525L371.687 67.3134ZM371.156 63.2163L370.964 61.7287L368.98 61.9857L369.782 63.8179L371.156 63.2163ZM388.306 60.9947L389.794 60.802L389.601 59.3144L388.113 59.5071L388.306 60.9947ZM394.498 108.794L395.804 109.533L396.05 109.098L395.986 108.602L394.498 108.794ZM383.223 135.25L383.416 136.738L384.403 136.61L384.669 135.651L383.223 135.25ZM375.153 136.296L374.96 134.808L374.531 134.864L374.197 135.14L375.153 136.296ZM367.852 145.92L366.364 146.113L367.036 151.298L369.215 146.546L367.852 145.92ZM366.967 139.092L368.455 138.899L368.391 138.408L368.047 138.051L366.967 139.092ZM363.543 136.411L362.055 136.604L362.147 137.313L362.756 137.688L363.543 136.411ZM361.641 121.73L363.128 121.537L363.069 121.08L362.764 120.735L361.641 121.73ZM355.978 117.603L354.49 117.796L354.603 118.666L355.417 118.994L355.978 117.603ZM346.734 46.245L348.221 46.0523L348.214 45.9983L348.203 45.945L346.734 46.245ZM343.247 40.4478L341.83 40.938L341.972 41.3493L342.312 41.6206L343.247 40.4478ZM389 28.0356L388.778 26.5521L385.334 27.0672L388.075 29.216L389 28.0356ZM409.262 25.0058L410.745 24.7839L410.523 23.3004L409.04 23.5223L409.262 25.0058ZM391.941 31.6441L393.425 31.4223L393.391 31.1948L393.29 30.988L391.941 31.6441ZM392.435 34.944L390.951 35.1658L391.105 36.1943L392.122 36.411L392.435 34.944ZM398.463 41.1271L399.947 40.9053L399.918 40.7143L399.842 40.5369L398.463 41.1271ZM401.276 59.9361L402.463 60.8534L402.854 60.3471L402.759 59.7143L401.276 59.9361ZM396.679 63.3225L396.077 61.9486L394.426 62.6718L395.437 64.1636L396.679 63.3225ZM399.376 67.3049L398.134 68.146L398.329 68.4351L398.633 68.608L399.376 67.3049ZM403.151 72.4755L404.634 72.2536L404.634 72.2536L403.151 72.4755ZM409.319 113.723L407.835 113.945L407.947 114.694L408.616 115.048L409.319 113.723ZM416.571 120.061L418.055 119.839L417.998 119.463L417.77 119.159L416.571 120.061ZM417.755 127.98L416.272 128.202L416.4 129.057L417.203 129.375L417.755 127.98ZM425.397 132.91L424.319 133.953L427.574 137.32L426.881 132.688L425.397 132.91ZM416.071 70.5434L415.849 69.0599L414.366 69.2817L414.588 70.7652L416.071 70.5434ZM436.92 67.4257L438.404 67.2039L438.182 65.7204L436.698 65.9422L436.92 67.4257ZM443.088 108.674L441.605 108.895L441.681 109.406L442.055 109.761L443.088 108.674ZM451.525 122.931L450.09 123.369L450.239 123.856L450.653 124.151L451.525 122.931ZM458.29 132.04L456.906 132.618L459.013 137.665L459.776 132.249L458.29 132.04ZM458.873 127.904L460.358 128.113L460.389 127.898L460.356 127.682L458.873 127.904ZM442.737 19.9999L444.221 19.7781L443.999 18.2946L442.515 18.5164L442.737 19.9999ZM423.357 22.8981L423.135 21.4145L419.46 21.964L422.486 24.1198L423.357 22.8981ZM426.298 26.5066L427.781 26.2847L427.75 26.0748L427.662 25.8818L426.298 26.5066ZM426.791 29.8064L425.308 30.0282L425.392 30.593L425.831 30.9586L426.791 29.8064ZM432.232 36.0774L433.716 35.8555L433.673 35.5707L433.528 35.3219L432.232 36.0774ZM435.045 54.8864L435.267 56.3699L436.75 56.148L436.528 54.6645L435.045 54.8864ZM414.196 58.004L412.713 58.2259L412.934 59.7094L414.418 59.4875L414.196 58.004ZM468.432 59.1107L466.934 59.1867L467.021 60.8917L468.7 60.5866L468.432 59.1107ZM466.817 27.2512L468.268 26.8687L465.319 27.3272L466.817 27.2512ZM474.909 57.9344L475.177 59.4102L476.773 59.1204L476.359 57.5519L474.909 57.9344ZM32.5674 54.9266L31.0992 54.6194L30.4438 57.751L33.2703 56.2517L32.5674 54.9266ZM36.2743 37.2125L36.4421 35.7219L35.0857 35.5692L34.8061 36.9053L36.2743 37.2125ZM42.303 49.7622L43.006 51.0873L43.6152 50.7641L43.7665 50.0912L42.303 49.7622ZM44.9057 38.1842L46.3692 38.5132L46.7362 36.8808L45.0735 36.6936L44.9057 38.1842ZM278.574 85.3892L279.529 84.2318L277.339 82.4267L277.081 85.2525L278.574 85.3892ZM275.284 121.35L273.79 121.213L273.279 126.806L276.511 122.213L275.284 121.35ZM287.078 92.3999L288.577 92.3709L288.564 91.6813L288.032 91.2426L287.078 92.3999ZM287.307 104.265L288.534 105.128L288.816 104.726L288.807 104.236L287.307 104.265ZM279.489 55.5166L279.237 54.0378L278.037 54.2417L277.99 55.4579L279.489 55.5166ZM278.806 72.9407L277.307 72.882L277.209 75.3737L279.456 74.2923L278.806 72.9407ZM287.203 54.2056L288.701 54.2744L288.787 52.4149L286.952 52.7268L287.203 54.2056ZM286.513 69.2316L287.163 70.5832L287.97 70.1949L288.011 69.3004L286.513 69.2316ZM76.4381 71.2154L76.1686 72.6909L77.848 72.9977L77.9361 71.2927L76.4381 71.2154ZM78.0838 39.3574L79.5818 39.4348L76.6338 38.9735L78.0838 39.3574ZM69.9626 70.0328L68.5125 69.6489L68.0974 71.2169L69.6931 71.5084L69.9626 70.0328ZM321.696 45.7265L323.175 45.4738L320.197 45.6696L321.696 45.7265ZM320.486 77.604L318.987 77.5471L318.922 79.253L320.622 79.0978L320.486 77.604ZM327.041 77.0052L327.178 78.499L328.793 78.3515L328.52 76.7526L327.041 77.0052ZM122.829 46.1045L124.167 46.7819L125.237 44.6686L122.869 44.605L122.829 46.1045ZM111.918 67.66L110.42 67.5764L113.256 68.3374L111.918 67.66ZM113.134 45.8443L113.175 44.3448L111.718 44.3057L111.637 45.7608L113.134 45.8443ZM199.407 47.8309L200.907 47.7902L197.932 47.5623L199.407 47.8309ZM193.695 79.2157L192.219 78.9471L191.913 80.6267L193.618 80.7138L193.695 79.2157ZM200.269 79.5514L200.192 81.0495L201.812 81.1322L201.768 79.5107L200.269 79.5514ZM36.2741 37.2126L36.4419 35.722L35.0855 35.5693L34.8059 36.9054L36.2741 37.2126ZM32.5672 54.9267L31.099 54.6195L30.4437 57.7511L33.2701 56.2518L32.5672 54.9267ZM42.3029 49.7623L43.0058 51.0874L43.6151 50.7642L43.7664 50.0913L42.3029 49.7623ZM44.9056 38.1843L46.3691 38.5133L46.736 36.8809L45.0734 36.6937L44.9056 38.1843ZM275.284 121.35L273.79 121.213L273.278 126.806L276.511 122.213L275.284 121.35ZM278.574 85.3893L279.529 84.2319L277.339 82.4268L277.081 85.2526L278.574 85.3893ZM287.077 92.4L288.577 92.371L288.564 91.6814L288.032 91.2427L287.077 92.4ZM287.307 104.265L288.534 105.128L288.816 104.727L288.807 104.236L287.307 104.265ZM279.488 55.5167L279.237 54.0379L278.037 54.2418L277.99 55.458L279.488 55.5167ZM278.806 72.9408L277.307 72.8821L277.209 75.3738L279.456 74.2924L278.806 72.9408ZM287.203 54.2057L288.701 54.2745L288.787 52.415L286.952 52.7269L287.203 54.2057ZM286.513 69.2317L287.163 70.5833L287.97 70.195L288.011 69.3005L286.513 69.2317ZM78.0837 39.3575L79.5817 39.4349L76.6336 38.9736L78.0837 39.3575ZM76.4379 71.2155L76.1684 72.6911L77.8478 72.9978L77.9359 71.2928L76.4379 71.2155ZM69.9624 70.0329L68.5124 69.649L68.0972 71.217L69.6929 71.5085L69.9624 70.0329ZM321.696 45.7266L323.174 45.4739L320.197 45.6697L321.696 45.7266ZM320.486 77.6041L318.987 77.5472L318.922 79.2531L320.622 79.0979L320.486 77.6041ZM327.041 77.0053L327.178 78.4991L328.793 78.3516L328.52 76.7527L327.041 77.0053ZM111.918 67.6601L110.42 67.5766L113.256 68.3375L111.918 67.6601ZM122.829 46.1046L124.167 46.7821L125.237 44.6687L122.869 44.6052L122.829 46.1046ZM113.134 45.8444L113.175 44.3449L111.718 44.3058L111.637 45.7609L113.134 45.8444ZM199.407 47.831L200.907 47.7903L197.931 47.5624L199.407 47.831ZM193.695 79.2158L192.219 78.9472L191.913 80.6268L193.618 80.7139L193.695 79.2158ZM200.269 79.5515L200.192 81.0496L201.812 81.1323L201.768 79.5108L200.269 79.5515ZM466.817 27.2513L468.267 26.8688L465.319 27.3273L466.817 27.2513ZM468.432 59.1108L466.934 59.1868L467.02 60.8918L468.7 60.5867L468.432 59.1108ZM474.909 57.9345L475.177 59.4104L476.773 59.1205L476.359 57.552L474.909 57.9345ZM541.093 1.13392L505.737 7.44249L506.264 10.3958L541.62 4.08727L541.093 1.13392ZM543.062 8.06762C542.737 6.93831 542.543 6.20986 542.485 5.49164C542.43 4.81549 542.493 4.08661 542.798 3.02531L539.915 2.19588C539.531 3.53319 539.405 4.62934 539.495 5.73397C539.581 6.79653 539.864 7.80462 540.178 8.89693L543.062 8.06762ZM539.287 14.3944C539.757 13.0945 540.169 12.2712 540.639 11.6093C541.109 10.9487 541.685 10.3792 542.579 9.63558L540.661 7.32898C539.681 8.14421 538.88 8.9057 538.194 9.87159C537.508 10.8362 536.986 11.9348 536.466 13.3757L539.287 14.3944ZM539.694 15.5336L539.353 13.6216L536.4 14.1486L536.741 16.0606L539.694 15.5336ZM531.638 18.4948L538.481 17.2738L537.954 14.3204L531.111 15.5414L531.638 18.4948ZM538.926 46.4087L532.844 16.7171L529.905 17.3191L535.987 47.0107L538.926 46.4087ZM552.02 42.5875L537.193 45.233L537.72 48.1864L552.547 45.5409L552.02 42.5875ZM552.071 49.7523C551.971 48.6824 552.005 47.9948 552.184 47.36C552.367 46.7144 552.735 46.0003 553.499 44.9431L551.068 43.1853C550.211 44.3715 549.617 45.4145 549.298 46.5437C548.975 47.6838 548.967 48.7886 549.084 50.033L552.071 49.7523ZM548.837 54.9864C549.484 53.4771 550.077 52.6308 551.675 50.9151L549.48 48.8701C547.741 50.7366 546.909 51.8698 546.08 53.8036L548.837 54.9864ZM549.413 56.8083L548.935 54.1315L545.982 54.6585L546.459 57.3353L549.413 56.8083ZM541.82 61.9827L548.634 58.3994L547.238 55.7442L540.424 59.3274L541.82 61.9827ZM550.827 99.9155L542.59 60.3493L539.653 60.9607L547.89 100.527L550.827 99.9155ZM561.641 96.506L549.095 98.7446L549.622 101.698L562.168 99.4594L561.641 96.506ZM558.885 106.247C559.295 104.603 559.765 103.46 560.385 102.418C561.02 101.353 561.84 100.344 563.037 98.9664L560.772 96.9991C559.569 98.3839 558.591 99.5676 557.808 100.883C557.01 102.222 556.442 103.649 555.974 105.52L558.885 106.247ZM553.511 108.106L557.693 107.36L557.166 104.407L552.984 105.153L553.511 108.106ZM551.209 113.176C551.205 111.776 551.417 110.939 551.807 110.251C552.221 109.523 552.917 108.813 554.183 107.802L552.312 105.457C550.985 106.516 549.908 107.521 549.198 108.77C548.466 110.06 548.205 111.464 548.209 113.184L551.209 113.176ZM546.086 114.524L549.644 114.678L549.774 111.681L546.216 111.527L546.086 114.524ZM541.199 120.387C542.094 118.75 542.813 117.678 543.635 116.803C544.452 115.934 545.43 115.199 546.918 114.315L545.384 111.736C543.765 112.699 542.53 113.6 541.45 114.748C540.376 115.89 539.514 117.215 538.567 118.948L541.199 120.387ZM533.612 117.523C535.201 117.661 536.066 117.96 536.688 118.364C537.332 118.782 537.868 119.407 538.655 120.529L541.111 118.807C540.3 117.65 539.487 116.605 538.321 115.848C537.133 115.076 535.726 114.695 533.871 114.534L533.612 117.523ZM535.225 110.799C535.255 112.017 534.801 112.787 532.666 114.983L534.817 117.074C536.894 114.938 538.289 113.338 538.224 110.724L535.225 110.799ZM525.481 65.0742L535.257 111.073L538.192 110.45L528.415 64.4505L525.481 65.0742ZM521.117 62.4184C522.371 62.8132 523.166 63.1543 523.811 63.596C524.442 64.0277 525.015 64.6147 525.719 65.6218L528.177 63.9029C527.345 62.7117 526.53 61.8215 525.506 61.1205C524.497 60.4295 523.37 59.9824 522.017 59.5567L521.117 62.4184ZM519.806 55.183L520.069 61.0547L523.066 60.9204L522.803 55.0487L519.806 55.183ZM516.582 52.2974C518.397 53.5718 519.033 54.3349 520.037 55.9188L522.571 54.3129C521.38 52.4343 520.48 51.3686 518.306 49.8421L516.582 52.2974ZM523.643 48.4399L517.18 49.593L517.707 52.5464L524.17 51.3932L523.643 48.4399ZM516.492 21.2918L522.438 50.2186L525.376 49.6145L519.43 20.6877L516.492 21.2918ZM511.792 16.4866C513.16 17.3905 514.02 18.1182 514.702 18.8798C515.39 19.6483 515.944 20.5041 516.664 21.7429L519.258 20.2365C518.514 18.954 517.835 17.8824 516.937 16.879C516.033 15.8685 514.953 14.9796 513.446 13.9836L511.792 16.4866ZM505.137 10.1458C508.236 12.327 509.697 13.4766 511.359 16.0493L513.879 14.4209C511.892 11.3461 510.037 9.92597 506.864 7.6925L505.137 10.1458ZM482.006 14.7505L501.538 11.2922L501.015 8.33814L481.483 11.7964L482.006 14.7505ZM491.469 23.1264C488.941 18.7002 486.934 16.2841 482.798 12.2054L480.691 14.3415C484.692 18.2872 486.508 20.4895 488.864 24.6142L491.469 23.1264ZM507.797 101.439L491.635 23.5655L488.698 24.1751L504.86 102.049L507.797 101.439ZM513.508 106.654C512.475 104.787 511.549 103.481 510.476 102.497C509.387 101.498 508.235 100.91 506.903 100.358L505.754 103.13C506.951 103.626 507.734 104.052 508.448 104.707C509.177 105.377 509.919 106.364 510.883 108.105L513.508 106.654ZM515.789 113.334L513.616 106.9L510.774 107.859L512.946 114.294L515.789 113.334ZM520.887 116.936C519.858 115.576 518.966 114.629 517.984 113.919C516.994 113.204 515.993 112.79 514.859 112.397L513.876 115.232C514.913 115.591 515.59 115.89 516.227 116.351C516.872 116.816 517.556 117.506 518.495 118.746L520.887 116.936ZM523.149 123.394L521.112 117.361L518.27 118.321L520.306 124.353L523.149 123.394ZM528.503 126.702C526.547 124.762 525.266 123.539 522.23 122.46L521.225 125.287C523.63 126.142 524.531 126.988 526.39 128.832L528.503 126.702ZM499.812 10.1401L525.982 128.092L528.911 127.442L502.741 9.49027L499.812 10.1401ZM459.987 103.356C459.93 99.882 458.985 96.9644 458.061 94.9223C457.599 93.899 457.138 93.0871 456.788 92.5247C456.612 92.2432 456.465 92.0233 456.357 91.8697C456.304 91.7929 456.26 91.7326 456.228 91.6893C456.213 91.6677 456.2 91.6504 456.19 91.6374C456.185 91.6309 456.181 91.6255 456.178 91.6211C456.176 91.619 456.174 91.6171 456.173 91.6155C456.173 91.6147 456.172 91.6139 456.171 91.6133C456.171 91.6129 456.171 91.6125 456.171 91.6123C456.17 91.6119 456.17 91.6114 454.981 92.5261C453.792 93.4407 453.792 93.4403 453.792 93.4399C453.792 93.4398 453.791 93.4395 453.791 93.4393C453.791 93.4389 453.791 93.4385 453.79 93.4383C453.79 93.4377 453.79 93.4375 453.79 93.4374C453.79 93.4374 453.791 93.4384 453.792 93.4405C453.795 93.4446 453.801 93.4529 453.81 93.4652C453.829 93.4899 453.858 93.5308 453.898 93.5874C453.977 93.7007 454.095 93.8763 454.241 94.1097C454.531 94.5771 454.927 95.2723 455.328 96.1583C456.131 97.935 456.939 100.445 456.988 103.406L459.987 103.356ZM465.234 115.298C465.014 111.058 463.599 107.815 462.23 105.629C461.547 104.537 460.873 103.706 460.363 103.142C460.108 102.859 459.892 102.642 459.736 102.492C459.658 102.416 459.594 102.358 459.547 102.315C459.524 102.294 459.504 102.277 459.49 102.264C459.482 102.258 459.476 102.253 459.471 102.248C459.469 102.246 459.466 102.244 459.464 102.243C459.464 102.242 459.463 102.241 459.462 102.24C459.461 102.24 459.461 102.239 459.461 102.239C459.46 102.239 459.46 102.238 458.488 103.381C457.516 104.523 457.515 104.523 457.515 104.522C457.514 104.522 457.514 104.522 457.514 104.522C457.513 104.521 457.513 104.521 457.512 104.521C457.512 104.52 457.511 104.519 457.511 104.519C457.511 104.519 457.511 104.52 457.513 104.521C457.517 104.524 457.525 104.532 457.537 104.543C457.561 104.564 457.602 104.602 457.657 104.655C457.767 104.76 457.933 104.927 458.137 105.153C458.548 105.607 459.11 106.298 459.688 107.221C460.841 109.063 462.05 111.817 462.238 115.453L465.234 115.298ZM473.061 128.886L465.043 114.64L462.429 116.111L470.447 130.357L473.061 128.886ZM467.447 73.4963L470.256 129.696L473.252 129.547L470.444 73.3466L467.447 73.4963ZM478.471 70.8791L468.784 71.9302L469.107 74.9127L478.794 73.8616L478.471 70.8791ZM487.885 100.865L480.081 71.9791L477.184 72.7616L484.989 101.647L487.885 100.865ZM493.784 103.401L487.132 99.9265L485.743 102.586L492.395 106.061L493.784 103.401ZM498.514 109.283C497.052 108.576 496.051 107.367 495.401 106.261C495.081 105.715 494.859 105.217 494.719 104.859C494.65 104.681 494.601 104.54 494.572 104.449C494.557 104.403 494.547 104.37 494.541 104.351C494.538 104.341 494.536 104.335 494.536 104.333C494.535 104.332 494.535 104.331 494.535 104.332C494.536 104.333 494.536 104.333 494.536 104.334C494.536 104.334 494.536 104.335 494.536 104.335C494.536 104.336 494.537 104.336 494.537 104.336C494.537 104.337 494.537 104.337 493.089 104.731C491.642 105.125 491.642 105.125 491.642 105.126C491.642 105.126 491.643 105.126 491.643 105.127C491.643 105.128 491.643 105.128 491.643 105.129C491.644 105.131 491.644 105.133 491.645 105.136C491.646 105.14 491.648 105.146 491.65 105.153C491.654 105.166 491.659 105.184 491.665 105.205C491.678 105.247 491.695 105.305 491.718 105.376C491.764 105.518 491.832 105.714 491.925 105.951C492.11 106.425 492.398 107.071 492.815 107.78C493.639 109.185 495.024 110.928 497.208 111.984L498.514 109.283ZM507.692 123.144C504.295 119.676 502.188 116.407 500.935 114.027C500.309 112.836 499.896 111.867 499.643 111.207C499.516 110.877 499.43 110.624 499.376 110.459C499.349 110.377 499.331 110.316 499.32 110.279C499.314 110.261 499.311 110.248 499.309 110.241C499.308 110.238 499.307 110.236 499.307 110.236C499.307 110.236 499.307 110.236 499.307 110.237C499.308 110.237 499.308 110.237 499.308 110.238C499.308 110.238 499.308 110.239 499.308 110.239C499.308 110.239 499.308 110.24 497.861 110.633C496.413 111.027 496.414 111.028 496.414 111.028C496.414 111.028 496.414 111.029 496.414 111.029C496.414 111.03 496.415 111.031 496.415 111.032C496.416 111.035 496.416 111.037 496.417 111.04C496.419 111.046 496.421 111.053 496.423 111.062C496.428 111.08 496.435 111.105 496.444 111.135C496.462 111.195 496.488 111.279 496.522 111.385C496.591 111.598 496.695 111.9 496.842 112.281C497.134 113.043 497.594 114.12 498.28 115.424C499.652 118.031 501.925 121.543 505.549 125.243L507.692 123.144ZM490.206 68.6216L505.172 124.581L508.07 123.806L493.105 67.8466L490.206 68.6216ZM491.738 55.2511L490.167 68.0513L493.144 68.4168L494.716 55.6167L491.738 55.2511ZM488.174 56.7379L493.168 56.9328L493.285 53.935L488.291 53.7402L488.174 56.7379ZM476.592 14.4741L486.777 55.5996L489.689 54.8784L479.504 13.7529L476.592 14.4741ZM449.528 20.5425L478.302 15.5918L477.793 12.6352L449.019 17.5859L449.528 20.5425ZM455.255 25.9675L450.553 18.2815L447.994 19.847L452.696 27.533L455.255 25.9675ZM455.922 61.0455L455.475 26.7307L452.475 26.7698L452.923 61.0846L455.922 61.0455ZM450.44 62.4108L454.364 62.5639L454.481 59.5662L450.557 59.4131L450.44 62.4108ZM456.222 72.7143C453.277 68.6325 452.26 65.6716 451.942 63.8266C451.783 62.9033 451.797 62.2481 451.837 61.857C451.857 61.6608 451.884 61.5285 451.901 61.4598C451.909 61.4254 451.915 61.4067 451.915 61.4037C451.916 61.4022 451.915 61.4045 451.913 61.4108C451.912 61.414 451.911 61.4181 451.909 61.4232C451.908 61.4257 451.907 61.4285 451.906 61.4316C451.905 61.4331 451.905 61.4346 451.904 61.4363C451.904 61.4371 451.903 61.4384 451.903 61.4388C451.903 61.4401 451.902 61.4414 450.499 60.9119C449.095 60.3825 449.095 60.3838 449.094 60.3851C449.094 60.3856 449.093 60.387 449.093 60.3879C449.092 60.3898 449.092 60.3918 449.091 60.3938C449.089 60.3979 449.088 60.4022 449.086 60.4068C449.083 60.4161 449.079 60.4264 449.075 60.4378C449.067 60.4606 449.059 60.4877 449.049 60.5192C449.029 60.5822 449.007 60.6625 448.983 60.7601C448.936 60.9555 448.887 61.2194 448.853 61.5513C448.784 62.2167 448.781 63.1462 448.986 64.336C449.396 66.7173 450.633 70.0964 453.789 74.4697L456.222 72.7143ZM456.481 92.528L456.505 73.5939L453.505 73.5901L453.481 92.5241L456.481 92.528ZM20.5835 17.5312L16.05 33.1442L18.9311 33.9808L23.4645 18.3678L20.5835 17.5312ZM56.8533 21.7796L22.2516 16.4669L21.7963 19.4321L56.398 24.7448L56.8533 21.7796ZM59.5564 31.329C60.6231 30.2744 60.6235 30.2748 60.6239 30.2752C60.624 30.2753 60.6244 30.2757 60.6247 30.276C60.6252 30.2765 60.6256 30.2769 60.626 30.2773C60.6268 30.2781 60.6274 30.2788 60.6278 30.2792C60.6287 30.2801 60.6289 30.2803 60.6283 30.2797C60.6273 30.2787 60.6236 30.2748 60.6173 30.2681C60.6048 30.2547 60.5822 30.2302 60.551 30.1949C60.4886 30.1242 60.392 30.0105 60.2726 29.8559C60.0333 29.5462 59.7061 29.0772 59.3792 28.4665C58.7252 27.2444 58.0854 25.4802 58.1254 23.2896L55.1259 23.2348C55.0744 26.054 55.8999 28.3232 56.7342 29.882C57.1515 30.6618 57.5741 31.2701 57.8986 31.6901C58.0611 31.9005 58.1999 32.0647 58.3024 32.1808C58.3536 32.2388 58.3959 32.2849 58.4276 32.3187C58.4435 32.3357 58.4567 32.3496 58.4671 32.3604C58.4723 32.3658 58.4768 32.3704 58.4806 32.3743C58.4825 32.3762 58.4842 32.378 58.4857 32.3795C58.4865 32.3803 58.4872 32.381 58.4878 32.3817C58.4882 32.382 58.4886 32.3825 58.4888 32.3827C58.4893 32.3831 58.4897 32.3836 59.5564 31.329ZM57.1714 59.6239L61.0423 31.5337L58.0704 31.1242L54.1995 59.2144L57.1714 59.6239ZM43.1308 70.2877L56.5608 60.6373L54.8101 58.201L41.3802 67.8515L43.1308 70.2877ZM39.0103 69.1161L41.5814 70.4096L42.9296 67.7296L40.3585 66.4361L39.0103 69.1161ZM28.7235 76.4618L40.4845 69.0449L38.8843 66.5073L27.1232 73.9242L28.7235 76.4618ZM25.1439 96.4514L29.3934 75.491L26.4533 74.895L22.2038 95.8553L25.1439 96.4514ZM19.0206 101.249L24.5352 97.3814L22.8125 94.9253L17.298 98.793L19.0206 101.249ZM16.3785 108.269L19.5459 100.593L16.7727 99.4489L13.6053 107.124L16.3785 108.269ZM8.95362 115.167C10.3617 115.684 10.3616 115.685 10.3615 115.685C10.3614 115.685 10.3613 115.685 10.3612 115.685C10.3611 115.686 10.361 115.686 10.3609 115.686C10.3608 115.687 10.3607 115.687 10.3608 115.687C10.3609 115.686 10.3615 115.685 10.3625 115.682C10.3645 115.677 10.3683 115.667 10.374 115.652C10.3852 115.623 10.4036 115.577 10.4293 115.514C10.4807 115.39 10.5609 115.202 10.6706 114.967C10.8906 114.496 11.2258 113.841 11.6807 113.118C12.6039 111.651 13.9526 110.012 15.7329 109.001L14.2509 106.393C11.8668 107.747 10.1964 109.844 9.14154 111.52C8.6074 112.369 8.2139 113.138 7.95239 113.698C7.82134 113.979 7.72261 114.209 7.65525 114.372C7.62155 114.454 7.59564 114.519 7.5774 114.566C7.56828 114.59 7.56107 114.609 7.55576 114.623C7.55311 114.63 7.55093 114.636 7.54922 114.64C7.54837 114.643 7.54763 114.645 7.54701 114.646C7.5467 114.647 7.54642 114.648 7.54617 114.648C7.54605 114.649 7.54588 114.649 7.54582 114.649C7.54566 114.65 7.54551 114.65 8.95362 115.167ZM3.05518 128.451L10.2544 115.914L7.65283 114.42L0.453605 126.957L3.05518 128.451ZM20.3972 34.7995L0.288568 127.386L3.22022 128.023L23.3289 35.4362L20.3972 34.7995ZM16.9879 34.9758L21.3604 36.5311L22.3658 33.7046L17.9932 32.1493L16.9879 34.9758ZM266.05 46.1271C265.441 42.6585 264.509 40.7179 262.435 37.5248L259.919 39.159C261.851 42.1326 262.577 43.6943 263.096 46.6462L266.05 46.1271ZM263.856 124.097L266.072 46.4295L263.074 46.3439L260.857 124.011L263.856 124.097ZM267.872 129.877C266.501 126.577 265.446 125.105 263.439 123.015L261.275 125.093C263.032 126.923 263.879 128.083 265.102 131.028L267.872 129.877ZM271.112 136.778C270.881 135.354 270.596 134.151 270.046 132.967C269.495 131.782 268.719 130.7 267.606 129.454L265.368 131.45C266.37 132.575 266.943 133.409 267.325 134.231C267.708 135.054 267.938 135.949 268.151 137.259L271.112 136.778ZM273.037 148.104L271.11 136.767L268.153 137.27L270.079 148.607L273.037 148.104ZM285.898 134.254C285.366 132.851 285.365 132.852 285.365 132.852C285.365 132.852 285.364 132.852 285.364 132.852C285.363 132.853 285.362 132.853 285.36 132.854C285.358 132.855 285.354 132.856 285.35 132.857C285.341 132.861 285.33 132.865 285.315 132.871C285.286 132.882 285.245 132.899 285.192 132.92C285.087 132.962 284.936 133.024 284.746 133.105C284.366 133.267 283.828 133.507 283.18 133.823C281.888 134.454 280.146 135.397 278.354 136.643C274.843 139.086 270.807 142.929 270.073 148.146L273.043 148.565C273.597 144.635 276.732 141.427 280.068 139.106C281.7 137.97 283.301 137.103 284.497 136.519C285.093 136.227 285.585 136.009 285.923 135.864C286.093 135.792 286.224 135.738 286.31 135.704C286.354 135.686 286.386 135.674 286.406 135.666C286.416 135.662 286.423 135.659 286.427 135.657C286.429 135.656 286.431 135.656 286.431 135.656C286.432 135.656 286.432 135.656 286.431 135.656C286.431 135.656 286.431 135.656 286.431 135.656C286.431 135.656 286.43 135.656 285.898 134.254ZM289.642 122.433C288.439 121.536 288.438 121.537 288.438 121.538C288.438 121.538 288.437 121.538 288.437 121.539C288.437 121.54 288.436 121.541 288.435 121.541C288.434 121.543 288.432 121.545 288.431 121.548C288.427 121.552 288.423 121.558 288.418 121.564C288.409 121.577 288.397 121.594 288.384 121.614C288.356 121.653 288.319 121.708 288.273 121.776C288.183 121.914 288.06 122.11 287.913 122.366C287.619 122.879 287.229 123.635 286.806 124.654C285.961 126.692 284.991 129.773 284.412 134.053L287.385 134.455C287.929 130.429 288.832 127.6 289.577 125.803C289.95 124.905 290.284 124.263 290.516 123.857C290.633 123.655 290.723 123.511 290.781 123.424C290.809 123.38 290.83 123.351 290.841 123.335C290.846 123.327 290.849 123.323 290.85 123.322C290.85 123.321 290.85 123.322 290.849 123.323C290.849 123.323 290.848 123.324 290.847 123.325C290.847 123.326 290.846 123.326 290.846 123.327C290.846 123.327 290.845 123.328 290.845 123.328C290.845 123.328 290.845 123.329 289.642 122.433ZM293.833 116.89L288.669 121.291L290.615 123.574L295.779 119.174L293.833 116.89ZM301.111 110.367C300.432 109.03 300.431 109.03 300.431 109.03C300.431 109.03 300.43 109.031 300.43 109.031C300.429 109.031 300.428 109.032 300.427 109.032C300.426 109.033 300.423 109.034 300.421 109.035C300.416 109.038 300.41 109.041 300.402 109.045C300.387 109.053 300.367 109.064 300.342 109.077C300.293 109.103 300.224 109.141 300.138 109.189C299.968 109.286 299.73 109.427 299.444 109.61C298.875 109.975 298.107 110.518 297.305 111.231C295.725 112.636 293.875 114.829 293.331 117.758L296.281 118.306C296.652 116.309 297.954 114.669 299.298 113.473C299.958 112.886 300.595 112.436 301.065 112.134C301.299 111.984 301.489 111.872 301.617 111.8C301.681 111.764 301.729 111.738 301.758 111.722C301.773 111.714 301.784 111.708 301.789 111.705C301.792 111.704 301.793 111.703 301.793 111.703C301.794 111.703 301.793 111.703 301.793 111.703C301.793 111.703 301.792 111.704 301.792 111.704C301.792 111.704 301.791 111.704 301.791 111.704C301.791 111.704 301.79 111.705 301.111 110.367ZM299.785 87.5038L299.611 110.356L302.611 110.379L302.785 87.5266L299.785 87.5038ZM290.228 79.1531L300.256 88.6066L302.314 86.4237L292.286 76.9702L290.228 79.1531ZM302.549 70.8793C297.316 72.3746 294.629 73.7869 290.381 76.8441L292.133 79.2791C296.133 76.4001 298.51 75.1533 303.373 73.7639L302.549 70.8793ZM299.15 43.811C299.191 55.0016 299.628 61.3257 301.481 72.5656L304.441 72.0777C302.617 61.0137 302.19 54.8506 302.15 43.8002L299.15 43.811ZM293.613 37.8299C294.483 39.5921 295.28 40.9479 296.263 42.1006C297.258 43.2669 298.39 44.162 299.856 45.0777L301.445 42.5335C300.148 41.7227 299.282 41.0162 298.545 40.1534C297.798 39.2769 297.13 38.1759 296.302 36.5013L293.613 37.8299ZM261.229 39.841L295.01 38.6647L294.905 35.6665L261.125 36.8428L261.229 39.841ZM87.8394 115.521C87.8911 112.56 88.7013 110.051 89.5064 108.276C89.9078 107.39 90.3042 106.695 90.5955 106.228C90.741 105.995 90.8597 105.819 90.9389 105.706C90.9785 105.649 91.0081 105.609 91.0263 105.584C91.0354 105.572 91.0415 105.563 91.0446 105.559C91.0462 105.557 91.047 105.556 91.0469 105.556C91.0469 105.556 91.0467 105.556 91.0463 105.557C91.0461 105.557 91.0459 105.558 91.0455 105.558C91.0454 105.558 91.0451 105.559 91.045 105.559C91.0448 105.559 91.0445 105.559 89.8565 104.644C88.6684 103.728 88.6681 103.728 88.6678 103.729C88.6677 103.729 88.6673 103.729 88.6671 103.73C88.6665 103.73 88.666 103.731 88.6654 103.732C88.6641 103.734 88.6627 103.735 88.661 103.738C88.6577 103.742 88.6536 103.747 88.6487 103.754C88.6389 103.767 88.626 103.784 88.6101 103.806C88.5783 103.849 88.5347 103.909 88.481 103.986C88.3736 104.139 88.2254 104.359 88.05 104.641C87.6994 105.203 87.2377 106.014 86.774 107.037C85.8487 109.078 84.9005 111.995 84.8398 115.469L87.8394 115.521ZM82.5777 127.563C82.7692 123.928 83.9807 121.175 85.1359 119.334C85.7142 118.412 86.2774 117.721 86.688 117.268C86.893 117.041 87.0592 116.875 87.1691 116.77C87.224 116.717 87.2647 116.68 87.289 116.658C87.3012 116.647 87.3092 116.64 87.3129 116.636C87.3148 116.635 87.3155 116.634 87.3151 116.634C87.3149 116.635 87.3144 116.635 87.3137 116.636C87.3133 116.636 87.3128 116.636 87.3123 116.637C87.3121 116.637 87.3116 116.637 87.3115 116.638C87.311 116.638 87.3105 116.638 86.3396 115.495C85.3687 114.352 85.3682 114.352 85.3676 114.353C85.3674 114.353 85.3669 114.353 85.3665 114.354C85.3656 114.354 85.3647 114.355 85.3638 114.356C85.3618 114.357 85.3596 114.359 85.3571 114.362C85.352 114.366 85.3458 114.371 85.3385 114.378C85.3238 114.391 85.3046 114.408 85.2812 114.429C85.2343 114.471 85.1706 114.53 85.0922 114.605C84.9354 114.755 84.7199 114.972 84.4642 115.254C83.9535 115.818 83.2794 116.648 82.5947 117.739C81.2237 119.924 79.8052 123.165 79.5819 127.406L82.5777 127.563ZM74.3541 142.46L82.3863 128.221L79.7734 126.747L71.7412 140.986L74.3541 142.46ZM74.4126 85.4492L71.5496 141.647L74.5457 141.799L77.4087 85.6019L74.4126 85.4492ZM66.0613 85.9562L75.7474 87.0166L76.0739 84.0345L66.3878 82.974L66.0613 85.9562ZM59.8399 113.736L67.6723 84.8578L64.7769 84.0725L56.9445 112.951L59.8399 113.736ZM52.4296 118.142L59.0854 114.673L57.699 112.013L51.0432 115.482L52.4296 118.142ZM47.6112 124.06C49.7954 123.006 51.1823 121.265 52.0084 119.861C52.4255 119.153 52.7138 118.507 52.8994 118.033C52.9925 117.796 53.0606 117.6 53.1068 117.458C53.13 117.387 53.1477 117.33 53.1603 117.287C53.1666 117.266 53.1717 117.249 53.1755 117.235C53.1774 117.228 53.179 117.223 53.1804 117.218C53.181 117.216 53.1816 117.213 53.1821 117.212C53.1824 117.211 53.1826 117.21 53.1828 117.209C53.1829 117.209 53.1831 117.208 53.1832 117.208C53.1833 117.207 53.1834 117.207 51.7364 116.812C50.2894 116.417 50.2895 116.416 50.2896 116.416C50.2897 116.416 50.2898 116.415 50.2899 116.415C50.29 116.414 50.2901 116.414 50.2903 116.413C50.2905 116.413 50.2907 116.412 50.2908 116.412C50.291 116.411 50.2909 116.411 50.2906 116.412C50.2899 116.414 50.2882 116.42 50.2854 116.43C50.2797 116.449 50.2695 116.482 50.2546 116.528C50.2248 116.619 50.1762 116.76 50.1064 116.938C49.9662 117.296 49.7442 117.794 49.4229 118.34C48.7723 119.445 47.7707 120.653 46.3074 121.359L47.6112 124.06ZM39.2571 137.312C42.885 133.615 45.1611 130.105 46.5354 127.499C47.2224 126.197 47.6841 125.12 47.977 124.358C48.1235 123.977 48.2278 123.675 48.297 123.462C48.3316 123.356 48.3574 123.272 48.3753 123.212C48.3843 123.182 48.3913 123.158 48.3964 123.14C48.399 123.131 48.4011 123.124 48.4027 123.118C48.4036 123.115 48.4043 123.112 48.4049 123.11C48.4052 123.109 48.4055 123.108 48.4057 123.107C48.4058 123.107 48.406 123.106 48.4061 123.106C48.4062 123.105 48.4064 123.105 46.9593 122.71C45.5123 122.314 45.5124 122.314 45.5125 122.313C45.5126 122.313 45.5127 122.313 45.5128 122.313C45.5129 122.312 45.513 122.312 45.5131 122.311C45.5133 122.311 45.5133 122.311 45.5133 122.311C45.5132 122.311 45.5127 122.313 45.5118 122.316C45.5099 122.323 45.5062 122.335 45.5007 122.354C45.4896 122.391 45.4711 122.451 45.4443 122.534C45.3906 122.699 45.3038 122.951 45.1769 123.281C44.923 123.942 44.5094 124.91 43.8818 126.1C42.6268 128.479 40.5164 131.746 37.1158 135.211L39.2571 137.312ZM51.757 79.9273L36.7378 135.873L39.6352 136.651L54.6544 80.7052L51.757 79.9273ZM50.1578 67.6959L51.7167 80.4976L54.6947 80.1349L53.1358 67.3332L50.1578 67.6959ZM56.584 65.8256L51.5898 66.0156L51.7038 69.0135L56.6981 68.8234L56.584 65.8256ZM64.7784 32.1178L55.1949 66.9264L58.0873 67.7227L67.6708 32.9141L64.7784 32.1178ZM62.1359 25.6339L64.8143 33.0269L67.6349 32.005L64.9565 24.6121L62.1359 25.6339ZM91.1372 27.5309L63.7573 23.6379L63.335 26.6081L90.7149 30.501L91.1372 27.5309ZM91.9455 73.1995L92.426 29.0322L89.4262 28.9996L88.9457 73.1669L91.9455 73.1995ZM95.56 73.6243L91.0055 71.7916L89.8856 74.5748L94.4401 76.4075L95.56 73.6243ZM91.2019 86.3604L96.3515 75.6667L93.6485 74.3651L88.499 85.0588L91.2019 86.3604ZM91.3565 104.643L91.3505 85.7091L88.3505 85.7101L88.3565 104.644L91.3565 104.643ZM304.132 109.698C302.866 110.504 302.866 110.504 302.866 110.503C302.866 110.503 302.866 110.503 302.865 110.503C302.865 110.502 302.865 110.502 302.865 110.502C302.864 110.501 302.864 110.501 302.864 110.501C302.864 110.501 302.865 110.502 302.866 110.504C302.869 110.508 302.874 110.517 302.882 110.53C302.898 110.556 302.924 110.6 302.958 110.66C303.027 110.779 303.13 110.965 303.254 111.21C303.502 111.701 303.835 112.429 304.155 113.347C304.798 115.188 305.381 117.759 305.168 120.713L308.16 120.929C308.41 117.463 307.727 114.473 306.988 112.358C306.617 111.297 306.23 110.448 305.931 109.857C305.781 109.561 305.654 109.329 305.56 109.166C305.514 109.085 305.476 109.021 305.448 108.975C305.434 108.952 305.423 108.934 305.414 108.92C305.41 108.913 305.406 108.907 305.403 108.903C305.402 108.9 305.4 108.898 305.399 108.897C305.399 108.896 305.398 108.895 305.398 108.894C305.398 108.894 305.397 108.894 305.397 108.893C305.397 108.893 305.397 108.892 304.132 109.698ZM304.337 90.706L302.638 109.564L305.625 109.833L307.325 90.9752L304.337 90.706ZM302.463 77.8115C301.112 77.16 301.112 77.1612 301.111 77.1625C301.111 77.163 301.11 77.1643 301.11 77.1652C301.109 77.1671 301.108 77.1689 301.107 77.1709C301.105 77.1748 301.103 77.179 301.101 77.1834C301.097 77.1923 301.093 77.2023 301.088 77.2133C301.078 77.2353 301.067 77.2615 301.054 77.2921C301.029 77.3531 300.999 77.4311 300.968 77.5263C300.904 77.7168 300.831 77.9752 300.767 78.3028C300.641 78.9595 300.555 79.885 300.654 81.0884C300.852 83.4966 301.785 86.9719 304.542 91.6073L307.12 90.074C304.548 85.7476 303.797 82.7083 303.644 80.8425C303.567 79.9087 303.638 79.2573 303.713 78.8713C303.75 78.6776 303.789 78.5482 303.811 78.4813C303.823 78.4477 303.83 78.4296 303.831 78.4267C303.832 78.4252 303.831 78.4275 303.828 78.4336C303.827 78.4367 303.825 78.4406 303.823 78.4455C303.822 78.448 303.82 78.4507 303.819 78.4536C303.818 78.4551 303.818 78.4566 303.817 78.4582C303.816 78.4589 303.816 78.4602 303.816 78.4606C303.815 78.4618 303.814 78.4631 302.463 77.8115ZM306.549 76.8234L302.654 76.3237L302.273 79.2993L306.168 79.799L306.549 76.8234ZM307.453 43.9781L304.863 78.198L307.854 78.4244L310.444 44.2046L307.453 43.9781ZM303.601 36.686L307.605 44.7578L310.292 43.4249L306.289 35.353L303.601 36.686ZM333.922 32.1389L304.823 34.5245L305.068 37.5145L334.167 35.1289L333.922 32.1389ZM342.034 75.2689L335.527 33.4035L332.563 33.8643L339.069 75.7296L342.034 75.2689ZM345.7 74.6474L340.742 74.0114L340.361 76.987L345.318 77.623L345.7 74.6474ZM344.278 89.0599L346.975 76.4489L344.042 75.8214L341.344 88.4324L344.278 89.0599ZM354.244 145.553L344.289 88.4884L341.333 89.004L351.289 146.068L354.244 145.553ZM345.241 131.528C343.765 131.792 343.765 131.793 343.765 131.793C343.765 131.794 343.765 131.794 343.765 131.795C343.765 131.796 343.765 131.797 343.765 131.798C343.766 131.8 343.766 131.803 343.767 131.806C343.768 131.812 343.769 131.819 343.771 131.828C343.775 131.847 343.78 131.871 343.786 131.902C343.798 131.964 343.817 132.049 343.841 132.158C343.891 132.376 343.968 132.687 344.08 133.079C344.304 133.864 344.667 134.978 345.235 136.337C346.371 139.055 348.324 142.754 351.606 146.761L353.927 144.86C350.85 141.104 349.04 137.662 348.003 135.18C347.484 133.939 347.159 132.937 346.965 132.257C346.868 131.917 346.804 131.658 346.766 131.489C346.746 131.404 346.733 131.342 346.726 131.304C346.722 131.286 346.719 131.273 346.718 131.266C346.717 131.262 346.717 131.261 346.717 131.26C346.717 131.26 346.717 131.26 346.717 131.261C346.717 131.261 346.717 131.262 346.717 131.262C346.717 131.263 346.717 131.263 346.717 131.263C346.718 131.264 346.718 131.264 345.241 131.528ZM341.011 125.227C339.534 125.491 339.534 125.491 339.534 125.492C339.534 125.492 339.534 125.493 339.534 125.493C339.535 125.494 339.535 125.495 339.535 125.496C339.535 125.498 339.536 125.5 339.536 125.502C339.537 125.507 339.538 125.513 339.539 125.52C339.542 125.534 339.545 125.551 339.55 125.573C339.559 125.616 339.571 125.675 339.588 125.748C339.621 125.893 339.672 126.095 339.743 126.339C339.886 126.828 340.115 127.497 340.467 128.24C341.164 129.712 342.39 131.57 344.471 132.815L346.011 130.241C344.617 129.407 343.727 128.115 343.178 126.956C342.907 126.383 342.73 125.867 342.623 125.498C342.569 125.315 342.533 125.17 342.512 125.077C342.501 125.03 342.494 124.996 342.49 124.976C342.488 124.967 342.487 124.96 342.486 124.958C342.486 124.957 342.486 124.957 342.486 124.957C342.486 124.958 342.486 124.958 342.487 124.959C342.487 124.96 342.487 124.96 342.487 124.961C342.487 124.961 342.487 124.962 342.487 124.962C342.487 124.962 342.487 124.963 341.011 125.227ZM333.882 122.44L340.201 126.49L341.82 123.964L335.501 119.914L333.882 122.44ZM327.996 91.9757L333.215 121.439L336.169 120.915L330.95 91.4525L327.996 91.9757ZM319.76 93.4037L329.503 93.2138L329.444 90.2144L319.702 90.4043L319.76 93.4037ZM319.056 148.19L321.23 91.9619L318.232 91.846L316.058 148.074L319.056 148.19ZM309.463 133.85L316.19 148.749L318.924 147.515L312.197 132.615L309.463 133.85ZM306.664 120.821C305.595 121.873 305.594 121.872 305.594 121.872C305.594 121.872 305.593 121.871 305.593 121.871C305.592 121.87 305.592 121.87 305.592 121.87C305.591 121.869 305.59 121.868 305.59 121.868C305.59 121.868 305.591 121.869 305.592 121.87C305.596 121.874 305.603 121.882 305.614 121.894C305.636 121.918 305.674 121.959 305.724 122.016C305.824 122.131 305.974 122.311 306.158 122.555C306.527 123.043 307.026 123.782 307.519 124.752C308.505 126.689 309.466 129.539 309.331 133.177L312.329 133.288C312.486 129.045 311.363 125.69 310.193 123.391C309.609 122.243 309.011 121.356 308.553 120.748C308.324 120.444 308.129 120.209 307.986 120.046C307.914 119.964 307.856 119.899 307.813 119.853C307.792 119.83 307.774 119.811 307.761 119.797C307.754 119.79 307.748 119.784 307.744 119.78C307.741 119.777 307.739 119.775 307.738 119.773C307.737 119.772 307.736 119.772 307.735 119.771C307.735 119.77 307.734 119.77 307.734 119.77C307.734 119.769 307.733 119.769 306.664 120.821ZM131.65 31.3964L96.1152 27.9396L95.8247 30.9255L131.36 34.3823L131.65 31.3964ZM135.364 37.6499L132.866 32.2588L130.144 33.5199L132.642 38.911L135.364 37.6499ZM138.398 38.907L134.704 36.9543L133.302 39.6065L136.996 41.5593L138.398 38.907ZM139.651 46.3135C139.213 45.016 139.085 43.556 139.08 42.3727C139.077 41.7906 139.104 41.2963 139.132 40.9509C139.145 40.7786 139.159 40.6445 139.169 40.5564C139.173 40.5123 139.177 40.4798 139.18 40.4599C139.181 40.4499 139.182 40.443 139.182 40.4395C139.183 40.4377 139.183 40.4367 139.183 40.4366C139.183 40.4365 139.183 40.4367 139.183 40.437C139.183 40.4372 139.183 40.4374 139.183 40.4377C139.183 40.4379 139.183 40.4381 139.183 40.4382C139.183 40.4384 139.183 40.4387 137.697 40.2331C136.211 40.0275 136.211 40.0279 136.211 40.0282C136.211 40.0283 136.211 40.0286 136.211 40.0289C136.211 40.0294 136.211 40.0299 136.21 40.0305C136.21 40.0317 136.21 40.0332 136.21 40.0348C136.209 40.0381 136.209 40.0423 136.208 40.0473C136.207 40.0573 136.205 40.0706 136.203 40.0873C136.199 40.1206 136.193 40.1671 136.187 40.2256C136.174 40.3427 136.157 40.5085 136.141 40.715C136.108 41.1271 136.077 41.7059 136.08 42.3859C136.086 43.727 136.225 45.5474 136.81 47.2747L139.651 46.3135ZM125.203 75.7587L139.568 47.4733L136.893 46.1148L122.528 74.4003L125.203 75.7587ZM135.3 117.467L125.326 74.7385L122.405 75.4205L132.379 118.149L135.3 117.467ZM143.747 102.2L132.643 116.904L135.037 118.712L146.141 104.007L143.747 102.2ZM144.198 96.5627L143.454 102.929L146.434 103.278L147.178 96.911L144.198 96.5627ZM153.408 84.9536L144.528 95.7859L146.848 97.6877L155.728 86.8554L153.408 84.9536ZM139.971 76.0733C140.841 76.0315 142.101 76.4854 143.67 77.4961C145.186 78.4725 146.772 79.824 148.232 81.2245C149.686 82.6184 150.98 84.0256 151.913 85.0874C152.378 85.6173 152.751 86.0586 153.007 86.3661C153.135 86.5198 153.233 86.6399 153.299 86.7207C153.332 86.7611 153.356 86.7917 153.372 86.8117C153.38 86.8217 153.386 86.829 153.39 86.8337C153.392 86.836 153.393 86.8376 153.394 86.8386C153.394 86.839 153.395 86.8393 153.395 86.8395C153.395 86.8395 153.395 86.8395 153.395 86.8395C153.395 86.8394 153.395 86.8393 154.568 85.9045C155.741 84.9697 155.741 84.9695 155.74 84.9693C155.74 84.9691 155.74 84.9688 155.74 84.9685C155.739 84.9679 155.739 84.9672 155.738 84.9663C155.736 84.9644 155.734 84.9618 155.732 84.9586C155.727 84.9521 155.719 84.9428 155.71 84.9309C155.69 84.9071 155.663 84.8726 155.626 84.8281C155.554 84.7393 155.449 84.6106 155.313 84.4479C155.043 84.1225 154.652 83.6604 154.167 83.1077C153.198 82.0044 151.843 80.5302 150.309 79.0591C148.781 77.5946 147.039 76.0974 145.295 74.974C143.604 73.8849 141.673 72.988 139.827 73.0768L139.971 76.0733ZM137.587 71.1887L138.436 74.9088L141.361 74.2414L140.512 70.5213L137.587 71.1887ZM132.43 67.8231L138.158 72.0608L139.942 69.6492L134.215 65.4115L132.43 67.8231ZM130.87 62.6109L131.86 66.951L134.785 66.2836L133.795 61.9435L130.87 62.6109ZM161.242 33.4731L131.313 61.1764L133.351 63.378L163.28 35.6747L161.242 33.4731ZM179.081 34.1531L162.358 33.077L162.165 36.0708L178.888 37.147L179.081 34.1531ZM172.074 62.1456L180.413 36.1075L177.556 35.1926L169.217 61.2306L172.074 62.1456ZM165.369 51.6726L169.238 62.2052L172.054 61.171L168.185 50.6384L165.369 51.6726ZM155.537 62.9051L167.761 52.288L165.794 50.023L153.57 60.6401L155.537 62.9051ZM169.958 75.3921L155.626 60.7243L153.481 62.8209L167.813 77.4887L169.958 75.3921ZM172.846 83.9669C171.597 83.0852 170.918 81.3984 170.6 79.6271C170.448 78.7798 170.394 77.9946 170.378 77.4197C170.37 77.1338 170.371 76.904 170.375 76.7494C170.377 76.6722 170.379 76.6141 170.381 76.5774C170.381 76.5591 170.382 76.5462 170.382 76.5389C170.383 76.5353 170.383 76.5331 170.383 76.5324C170.383 76.5321 170.383 76.5321 170.383 76.5325C170.383 76.5326 170.383 76.5329 170.383 76.5333C170.383 76.5335 170.383 76.5338 170.383 76.5339C170.383 76.5343 170.383 76.5347 168.886 76.4404C167.389 76.3461 167.389 76.3465 167.389 76.347C167.388 76.3472 167.388 76.3477 167.388 76.348C167.388 76.3488 167.388 76.3497 167.388 76.3506C167.388 76.3525 167.388 76.3548 167.388 76.3575C167.388 76.3628 167.387 76.3697 167.387 76.378C167.386 76.3948 167.385 76.4174 167.383 76.4458C167.381 76.5024 167.378 76.5818 167.376 76.6813C167.371 76.8802 167.369 77.1608 167.379 77.5029C167.398 78.1839 167.462 79.1246 167.648 80.1571C168.005 82.1457 168.874 84.8348 171.116 86.4178L172.846 83.9669ZM147.287 123.276L173.212 86.0496L170.75 84.3351L144.825 121.562L147.287 123.276ZM142.561 124.755L146.39 123.881L145.722 120.956L141.894 121.83L142.561 124.755ZM137.168 130.23C139.37 128.995 140.952 127.455 141.984 126.228C142.501 125.613 142.885 125.071 143.143 124.675C143.272 124.477 143.37 124.315 143.439 124.199C143.473 124.14 143.499 124.093 143.519 124.058C143.528 124.041 143.536 124.026 143.542 124.015C143.545 124.01 143.548 124.005 143.55 124.001C143.551 123.999 143.552 123.997 143.553 123.996C143.553 123.995 143.553 123.994 143.554 123.994C143.554 123.993 143.554 123.993 143.554 123.993C143.554 123.992 143.555 123.992 142.228 123.292C140.901 122.593 140.901 122.593 140.901 122.592C140.901 122.592 140.901 122.592 140.902 122.591C140.902 122.591 140.902 122.591 140.902 122.59C140.903 122.59 140.903 122.589 140.903 122.589C140.903 122.588 140.903 122.588 140.903 122.589C140.902 122.591 140.899 122.596 140.895 122.604C140.886 122.619 140.871 122.647 140.848 122.685C140.803 122.762 140.731 122.882 140.631 123.036C140.43 123.344 140.117 123.787 139.688 124.297C138.826 125.322 137.512 126.597 135.7 127.614L137.168 130.23ZM141.844 145.499L137.895 128.581L134.973 129.263L138.923 146.181L141.844 145.499ZM132.676 140.212L139.319 146.897L141.447 144.782L134.804 138.097L132.676 140.212ZM129.405 132.739C130.462 134.053 131.184 135.705 131.645 137.085C131.872 137.765 132.028 138.356 132.127 138.774C132.176 138.983 132.211 139.147 132.233 139.256C132.244 139.311 132.251 139.352 132.256 139.377C132.258 139.39 132.26 139.398 132.261 139.403C132.261 139.406 132.262 139.407 132.262 139.408C132.262 139.408 132.262 139.408 132.262 139.407C132.262 139.407 132.262 139.407 132.262 139.407C132.262 139.407 132.261 139.406 132.261 139.406C132.261 139.406 132.261 139.406 133.74 139.154C135.219 138.903 135.219 138.903 135.219 138.902C135.219 138.902 135.219 138.902 135.219 138.901C135.219 138.901 135.218 138.9 135.218 138.9C135.218 138.898 135.218 138.897 135.218 138.895C135.217 138.891 135.216 138.886 135.215 138.88C135.213 138.868 135.21 138.853 135.206 138.833C135.199 138.793 135.189 138.738 135.175 138.668C135.147 138.528 135.105 138.33 135.047 138.085C134.932 137.597 134.752 136.916 134.491 136.134C133.976 134.592 133.115 132.565 131.742 130.859L129.405 132.739ZM130.445 135.434L131.917 132.465L129.23 131.132L127.757 134.101L130.445 135.434ZM115.068 144.976L129.875 136.053L128.327 133.483L113.519 142.407L115.068 144.976ZM125.905 125.827L113.097 142.787L115.491 144.595L128.299 127.635L125.905 125.827ZM118.991 120.184C122.563 121.818 124.633 124.967 125.74 127.361L128.463 126.101C127.216 123.405 124.742 119.515 120.239 117.456L118.991 120.184ZM109.777 91.4216L118.179 119.253L121.051 118.386L112.649 90.5546L109.777 91.4216ZM108.479 139.906L112.707 91.1176L109.718 90.8586L105.49 139.647L108.479 139.906ZM101.498 135.843L105.862 140.771L108.108 138.783L103.744 133.854L101.498 135.843ZM100.201 128.814L101.138 135.071L104.105 134.626L103.168 128.37L100.201 128.814ZM96.8326 124.667L100.489 129.498L102.881 127.687L99.2246 122.856L96.8326 124.667ZM97.081 119.666L96.5428 123.556L99.5145 123.967L100.053 120.077L97.081 119.666ZM94.0192 116.349L97.3708 120.777L99.7629 118.967L96.4112 114.538L94.0192 116.349ZM97.6497 45.2667L93.7176 115.36L96.7128 115.528L100.645 45.4347L97.6497 45.2667ZM95.9725 40.1459L97.7139 45.7927L100.581 44.9086L98.8393 39.2618L95.9725 40.1459ZM97.9917 36.7825L96.2836 38.7086L98.5281 40.6991L100.236 38.773L97.9917 36.7825ZM96.812 33.6134L97.6393 38.0526L100.589 37.503L99.7612 33.0638L96.812 33.6134ZM94.6798 30.1977L96.9964 34.1038L99.5768 32.5734L97.2601 28.6674L94.6798 30.1977ZM227.35 83.9941L253.384 84.6886L253.464 81.6896L227.43 80.9952L227.35 83.9941ZM231.005 92.4032L228.857 82.1861L225.922 82.8032L228.069 93.0203L231.005 92.4032ZM231.483 99.1704L231.033 92.6093L228.04 92.8142L228.49 99.3753L231.483 99.1704ZM248.547 99.3358L230.112 97.7782L229.86 100.768L248.294 102.325L248.547 99.3358ZM247.473 94.2273L246.926 100.704L249.915 100.957L250.462 94.4799L247.473 94.2273ZM252.03 82.6331L247.575 93.7975L250.361 94.9096L254.817 83.7451L252.03 82.6331ZM172.96 108.67C171.593 109.289 171.593 109.288 171.593 109.288C171.593 109.288 171.593 109.288 171.593 109.287C171.592 109.287 171.592 109.286 171.592 109.286C171.592 109.285 171.592 109.285 171.592 109.285C171.592 109.285 171.592 109.286 171.593 109.289C171.595 109.293 171.599 109.303 171.605 109.317C171.617 109.345 171.637 109.392 171.662 109.456C171.714 109.584 171.789 109.782 171.877 110.043C172.053 110.564 172.279 111.332 172.467 112.286C172.843 114.199 173.055 116.827 172.426 119.72L175.357 120.358C176.096 116.963 175.842 113.906 175.411 111.707C175.194 110.605 174.931 109.71 174.719 109.082C174.613 108.768 174.519 108.52 174.45 108.346C174.415 108.259 174.386 108.19 174.365 108.141C174.355 108.116 174.346 108.096 174.34 108.082C174.336 108.074 174.334 108.068 174.331 108.063C174.33 108.06 174.329 108.058 174.329 108.056C174.328 108.055 174.328 108.055 174.327 108.054C174.327 108.053 174.327 108.053 174.327 108.053C174.327 108.052 174.326 108.052 172.96 108.67ZM175.853 89.8986L171.5 108.325L174.42 109.015L178.773 90.5883L175.853 89.8986ZM175.825 76.8687C174.579 76.0324 174.579 76.0336 174.578 76.0348C174.577 76.0352 174.577 76.0364 174.576 76.0373C174.575 76.0389 174.574 76.0407 174.573 76.0425C174.57 76.0461 174.568 76.05 174.565 76.0541C174.56 76.0623 174.554 76.0715 174.547 76.0817C174.535 76.1021 174.52 76.1265 174.503 76.1549C174.47 76.2118 174.429 76.2848 174.384 76.3745C174.294 76.554 174.185 76.7995 174.076 77.1149C173.858 77.747 173.642 78.6511 173.569 79.8563C173.424 82.2683 173.856 85.8407 175.928 90.8197L178.698 89.6671C176.764 85.02 176.451 81.9051 176.564 80.0363C176.62 79.1011 176.783 78.4664 176.911 78.0948C176.976 77.9084 177.032 77.7858 177.064 77.7227C177.08 77.6911 177.09 77.6742 177.091 77.6714C177.092 77.6701 177.091 77.6722 177.087 77.6779C177.086 77.6807 177.083 77.6844 177.08 77.6889C177.079 77.6912 177.077 77.6936 177.076 77.6963C177.075 77.6977 177.074 77.6991 177.073 77.7005C177.072 77.7013 177.072 77.7024 177.071 77.7028C177.071 77.7039 177.07 77.7051 175.825 76.8687ZM180.009 76.4692L176.224 75.4229L175.425 78.3145L179.21 79.3608L180.009 76.4692ZM185.555 44.083L178.145 77.5911L181.074 78.2389L188.485 44.7308L185.555 44.083ZM182.776 36.3189L185.595 44.8764L188.445 43.9375L185.625 35.38L182.776 36.3189ZM213.435 36.1118L184.291 34.3522L184.11 37.3467L213.254 39.1064L213.435 36.1118ZM215.356 79.9558L214.844 37.591L211.844 37.6272L212.356 79.9921L215.356 79.9558ZM219.073 79.8598L214.256 78.5282L213.456 81.4197L218.274 82.7513L219.073 79.8598ZM215.625 93.9257L220.081 81.8239L217.266 80.7872L212.809 92.889L215.625 93.9257ZM217.49 151.261L215.716 93.3615L212.718 93.4533L214.491 151.352L217.49 151.261ZM210.563 136.102C209.064 136.155 209.064 136.155 209.064 136.156C209.064 136.156 209.064 136.157 209.064 136.157C209.064 136.158 209.065 136.159 209.065 136.16C209.065 136.162 209.065 136.165 209.065 136.168C209.065 136.174 209.065 136.182 209.066 136.191C209.067 136.21 209.068 136.235 209.07 136.266C209.074 136.329 209.079 136.417 209.089 136.528C209.107 136.751 209.139 137.069 209.194 137.473C209.305 138.282 209.507 139.436 209.876 140.861C210.616 143.713 212.025 147.652 214.707 152.083L217.274 150.53C214.76 146.376 213.456 142.713 212.78 140.109C212.443 138.806 212.262 137.769 212.167 137.068C212.119 136.718 212.093 136.452 212.078 136.279C212.071 136.193 212.067 136.13 212.065 136.091C212.064 136.072 212.063 136.059 212.063 136.052C212.062 136.048 212.062 136.046 212.062 136.046C212.062 136.046 212.062 136.046 212.062 136.047C212.062 136.047 212.062 136.048 212.062 136.048C212.062 136.048 212.062 136.049 212.062 136.049C212.063 136.05 212.063 136.05 210.563 136.102ZM207.268 129.265C205.769 129.318 205.769 129.318 205.769 129.319C205.769 129.319 205.769 129.319 205.769 129.32C205.769 129.321 205.769 129.322 205.769 129.323C205.769 129.324 205.769 129.327 205.769 129.329C205.77 129.334 205.77 129.34 205.77 129.347C205.771 129.361 205.772 129.379 205.773 129.401C205.776 129.445 205.78 129.505 205.786 129.58C205.798 129.728 205.82 129.935 205.856 130.187C205.928 130.691 206.06 131.386 206.303 132.171C206.785 133.727 207.735 135.74 209.619 137.268L211.508 134.937C210.246 133.914 209.548 132.509 209.169 131.284C208.982 130.679 208.88 130.143 208.825 129.763C208.798 129.573 208.783 129.425 208.775 129.329C208.771 129.281 208.769 129.247 208.768 129.227C208.767 129.217 208.767 129.211 208.767 129.208C208.767 129.207 208.767 129.207 208.767 129.208C208.767 129.208 208.767 129.209 208.767 129.21C208.767 129.21 208.767 129.211 208.767 129.211C208.767 129.211 208.767 129.212 208.767 129.212C208.767 129.213 208.767 129.213 207.268 129.265ZM200.606 125.497L206.288 130.401L208.248 128.13L202.566 123.226L200.606 125.497ZM199.094 94.5062L200.087 124.411L203.086 124.312L202.092 94.4066L199.094 94.5062ZM190.739 94.7534L200.41 95.9452L200.777 92.9677L191.106 91.776L190.739 94.7534ZM182.282 148.888L192.398 93.5343L189.447 92.995L179.331 148.349L182.282 148.888ZM174.817 133.333L179.366 149.036L182.248 148.201L177.699 132.499L174.817 133.333ZM173.891 120.039C172.684 120.929 172.684 120.929 172.683 120.928C172.683 120.928 172.683 120.928 172.683 120.927C172.682 120.927 172.682 120.926 172.682 120.926C172.681 120.925 172.681 120.925 172.68 120.924C172.68 120.924 172.681 120.925 172.682 120.927C172.685 120.931 172.691 120.939 172.7 120.953C172.719 120.98 172.75 121.025 172.792 121.089C172.874 121.217 172.998 121.417 173.145 121.685C173.441 122.22 173.83 123.022 174.182 124.052C174.883 126.109 175.43 129.067 174.782 132.649L177.734 133.183C178.49 129.005 177.854 125.525 177.021 123.083C176.605 121.864 176.14 120.902 175.772 120.235C175.588 119.902 175.428 119.642 175.31 119.459C175.251 119.368 175.202 119.296 175.166 119.244C175.148 119.218 175.134 119.198 175.122 119.182C175.117 119.174 175.112 119.167 175.108 119.162C175.106 119.159 175.104 119.157 175.103 119.155C175.102 119.153 175.101 119.153 175.101 119.152C175.1 119.151 175.1 119.151 175.1 119.15C175.099 119.15 175.099 119.149 173.891 120.039ZM385.549 26.5124L338.808 32.5673L339.193 35.5425L385.934 29.4875L385.549 26.5124ZM388.114 34.6358L387.229 27.8072L384.254 28.1926L385.139 35.0212L388.114 34.6358ZM387.237 41.0803C387.131 39.6635 387.129 38.7077 387.241 37.8916C387.349 37.0986 387.572 36.3758 387.993 35.4468L385.259 34.2102C384.753 35.3306 384.425 36.3363 384.268 37.4861C384.114 38.6127 384.134 39.8139 384.245 41.3036L387.237 41.0803ZM385.921 46.7478C385.796 45.6383 385.815 44.9129 385.961 44.2696C386.108 43.6253 386.409 42.9528 387.013 41.9873L384.469 40.3966C383.777 41.5033 383.288 42.4996 383.036 43.6027C382.785 44.7069 382.796 45.8075 382.94 47.0845L385.921 46.7478ZM383.996 51.6071C384.087 50.3452 384.239 49.6405 384.439 49.1767C384.614 48.7724 384.856 48.4752 385.335 48.1131L383.527 45.7192C382.742 46.3121 382.112 46.996 381.684 47.9894C381.282 48.9233 381.101 50.0331 381.004 51.3929L383.996 51.6071ZM376.613 46.642L381.337 52.4468L383.664 50.5532L378.94 44.7485L376.613 46.642ZM368.942 42.5019L377.048 47.0064L378.505 44.3841L370.4 39.8796L368.942 42.5019ZM360.448 43.898L369.864 42.6783L369.478 39.7032L360.063 40.9229L360.448 43.898ZM372.093 122.112L361.743 42.2178L358.768 42.6032L369.117 122.497L372.093 122.112ZM379.917 103.169L369.306 121.554L371.904 123.054L382.515 104.669L379.917 103.169ZM375.394 70.652L379.728 104.112L382.704 103.726L378.369 70.2666L375.394 70.652ZM371.264 68.7525C372.795 69.2027 373.689 69.567 374.298 69.9421C374.856 70.2866 375.225 70.6709 375.629 71.2846L378.134 69.634C377.544 68.7383 376.88 68.0096 375.872 67.3885C374.914 66.798 373.708 66.3441 372.11 65.8743L371.264 68.7525ZM369.782 63.8179C370.083 64.5045 370.221 64.9604 370.277 65.3897C370.333 65.8211 370.319 66.3153 370.204 67.0922L373.171 67.5347C373.308 66.6175 373.358 65.8168 373.251 65C373.144 64.1812 372.89 63.4355 372.531 62.6147L369.782 63.8179ZM388.113 59.5071L370.964 61.7287L371.349 64.7039L388.499 62.4823L388.113 59.5071ZM395.986 108.602L389.794 60.802L386.819 61.1874L393.011 108.987L395.986 108.602ZM384.669 135.651C387.695 124.735 390.342 119.184 395.804 109.533L393.193 108.056C387.648 117.853 384.888 123.633 381.778 134.849L384.669 135.651ZM375.345 137.783L383.416 136.738L383.03 133.763L374.96 134.808L375.345 137.783ZM369.215 146.546C370.209 144.378 371.052 142.851 372.066 141.505C373.077 140.163 374.3 138.948 376.109 137.452L374.197 135.14C372.283 136.722 370.871 138.106 369.67 139.7C368.471 141.29 367.524 143.036 366.488 145.295L369.215 146.546ZM365.48 139.285L366.364 146.113L369.339 145.728L368.455 138.899L365.48 139.285ZM362.756 137.688C364.167 138.558 364.834 139.041 365.887 140.133L368.047 138.051C366.765 136.721 365.876 136.087 364.33 135.134L362.756 137.688ZM360.153 121.922L362.055 136.604L365.03 136.218L363.128 121.537L360.153 121.922ZM355.417 118.994C356.538 119.446 357.322 119.848 358.053 120.376C358.791 120.908 359.532 121.611 360.518 122.724L362.764 120.735C361.706 119.541 360.799 118.658 359.809 117.943C358.811 117.223 357.787 116.715 356.539 116.212L355.417 118.994ZM345.246 46.4377L354.49 117.796L357.465 117.41L348.221 46.0523L345.246 46.4377ZM342.312 41.6206C343.452 42.5295 344.039 43.2128 344.413 43.8778C344.793 44.5561 345.015 45.3234 345.264 46.5451L348.203 45.945C347.942 44.6661 347.649 43.5145 347.029 42.4093C346.401 41.2907 345.5 40.3257 344.183 39.2751L342.312 41.6206ZM338.052 35.2175C339.057 36.0366 339.712 36.6999 340.251 37.4997C340.799 38.3116 341.276 39.3366 341.83 40.938L344.665 39.9577C344.072 38.2437 343.494 36.9428 342.738 35.8224C341.975 34.6899 341.079 33.8145 339.948 32.8923L338.052 35.2175ZM389.222 29.5191L409.483 26.4893L409.04 23.5223L388.778 26.5521L389.222 29.5191ZM393.29 30.988C392.902 30.1895 392.519 29.4955 391.981 28.8183C391.444 28.1418 390.796 27.5374 389.926 26.8552L388.075 29.216C388.839 29.815 389.292 30.2563 389.632 30.6845C389.972 31.1121 390.243 31.5818 390.593 32.3002L393.29 30.988ZM393.918 34.7221L393.425 31.4223L390.458 31.866L390.951 35.1658L393.918 34.7221ZM398.463 41.1271C399.842 40.5369 399.842 40.5365 399.842 40.5361C399.842 40.5359 399.842 40.5355 399.841 40.5352C399.841 40.5345 399.841 40.5338 399.84 40.533C399.84 40.5314 399.839 40.5294 399.838 40.5272C399.836 40.5226 399.833 40.5168 399.83 40.5097C399.824 40.4955 399.816 40.4762 399.805 40.4522C399.783 40.4041 399.753 40.337 399.713 40.2533C399.634 40.086 399.519 39.8515 399.37 39.57C399.073 39.0094 398.633 38.2492 398.062 37.4563C396.97 35.9409 395.18 33.9952 392.748 33.4769L392.122 36.411C393.411 36.6857 394.635 37.8316 395.627 39.2095C396.098 39.8632 396.467 40.5001 396.719 40.975C396.844 41.2112 396.939 41.404 397 41.5346C397.031 41.5998 397.054 41.6493 397.068 41.6806C397.075 41.6962 397.08 41.7073 397.082 41.7136C397.084 41.7167 397.085 41.7186 397.085 41.7192C397.085 41.7195 397.085 41.7195 397.085 41.7192C397.085 41.7191 397.085 41.7188 397.085 41.7185C397.085 41.7184 397.084 41.7181 397.084 41.718C397.084 41.7177 397.084 41.7173 398.463 41.1271ZM402.759 59.7143L399.947 40.9053L396.98 41.3489L399.792 60.158L402.759 59.7143ZM397.281 64.6963C398.434 64.191 399.371 63.7175 400.206 63.1112C401.057 62.4937 401.746 61.7807 402.463 60.8534L400.089 59.0188C399.495 59.7869 399.005 60.2765 398.445 60.683C397.869 61.1008 397.163 61.4727 396.077 61.9486L397.281 64.6963ZM400.618 66.4638L397.921 62.4814L395.437 64.1636L398.134 68.146L400.618 66.4638ZM403.151 72.4755C404.634 72.2536 404.634 72.253 404.634 72.2523C404.634 72.252 404.634 72.2514 404.634 72.2509C404.634 72.2499 404.634 72.2489 404.634 72.2478C404.633 72.2457 404.633 72.2434 404.632 72.2408C404.632 72.2357 404.631 72.2298 404.63 72.2231C404.627 72.2096 404.625 72.1929 404.621 72.1732C404.614 72.1337 404.604 72.0819 404.591 72.0189C404.564 71.8931 404.523 71.722 404.464 71.5154C404.345 71.1034 404.149 70.5431 403.833 69.9166C403.201 68.6616 402.074 67.1165 400.118 66.0017L398.633 68.608C399.959 69.364 400.72 70.4042 401.154 71.2668C401.372 71.6991 401.505 72.0806 401.581 72.3459C401.619 72.4779 401.643 72.5792 401.656 72.6411C401.662 72.672 401.666 72.6929 401.668 72.7027C401.669 72.7076 401.669 72.7097 401.669 72.7088C401.669 72.7084 401.669 72.7072 401.669 72.7053C401.668 72.7044 401.668 72.7032 401.668 72.7019C401.668 72.7012 401.668 72.7005 401.668 72.6997C401.668 72.6994 401.668 72.6988 401.668 72.6986C401.668 72.6979 401.667 72.6973 403.151 72.4755ZM410.803 113.501L404.634 72.2536L401.667 72.6973L407.835 113.945L410.803 113.501ZM417.77 119.159C416.347 117.268 415.177 115.968 413.951 114.936C412.723 113.9 411.492 113.178 410.022 112.398L408.616 115.048C410.023 115.794 411.033 116.399 412.018 117.229C413.007 118.063 414.024 119.17 415.372 120.962L417.77 119.159ZM419.239 127.759L418.055 119.839L415.088 120.283L416.272 128.202L419.239 127.759ZM426.476 131.868C425.416 130.771 424.461 129.862 423.199 129.015C421.944 128.174 420.442 127.43 418.307 126.586L417.203 129.375C419.235 130.179 420.52 130.831 421.527 131.507C422.528 132.178 423.311 132.91 424.319 133.953L426.476 131.868ZM414.588 70.7652L423.914 133.132L426.881 132.688L417.555 70.3215L414.588 70.7652ZM436.698 65.9422L415.849 69.0599L416.293 72.0269L437.142 68.9092L436.698 65.9422ZM444.572 108.452L438.404 67.2039L435.437 67.6476L441.605 108.895L444.572 108.452ZM452.959 122.492C451.878 118.959 450.833 116.316 449.455 114C448.072 111.673 446.392 109.742 444.121 107.586L442.055 109.761C444.207 111.804 445.681 113.522 446.877 115.533C448.08 117.555 449.041 119.941 450.09 123.369L452.959 122.492ZM459.675 131.462C458.539 128.742 457.533 126.86 456.377 125.366C455.207 123.854 453.939 122.811 452.396 121.71L450.653 124.151C452.09 125.178 453.092 126.023 454.004 127.202C454.929 128.397 455.816 130.006 456.906 132.618L459.675 131.462ZM457.388 127.695L456.805 131.83L459.776 132.249L460.358 128.113L457.388 127.695ZM441.254 20.2218L457.389 128.126L460.356 127.682L444.221 19.7781L441.254 20.2218ZM423.578 24.3816L442.959 21.4834L442.515 18.5164L423.135 21.4145L423.578 24.3816ZM427.662 25.8818C427.229 24.9374 426.802 24.1713 426.239 23.4838C425.675 22.793 425.026 22.2454 424.227 21.6763L422.486 24.1198C423.169 24.6059 423.585 24.9764 423.917 25.3829C424.252 25.7926 424.555 26.3032 424.934 27.1314L427.662 25.8818ZM428.275 29.5845L427.781 26.2847L424.814 26.7284L425.308 30.0282L428.275 29.5845ZM433.528 35.3219C432.045 32.7776 430.908 31.2853 427.752 28.6542L425.831 30.9586C428.723 33.3688 429.631 34.5934 430.936 36.8328L433.528 35.3219ZM436.528 54.6645L433.716 35.8555L430.749 36.2992L433.561 55.1082L436.528 54.6645ZM414.418 59.4875L435.267 56.3699L434.823 53.4029L413.974 56.5205L414.418 59.4875ZM407.778 25.2276L412.713 58.2259L415.68 57.7822L410.745 24.7839L407.778 25.2276ZM469.93 59.0348L468.315 27.1753L465.319 27.3272L466.934 59.1867L469.93 59.0348ZM474.641 56.4585L468.164 57.6349L468.7 60.5866L475.177 59.4102L474.641 56.4585ZM465.367 27.6337L473.458 58.3169L476.359 57.5519L468.268 26.8687L465.367 27.6337ZM34.0356 55.2338L37.7425 37.5197L34.8061 36.9053L31.0992 54.6194L34.0356 55.2338ZM41.6001 48.4371L31.8645 53.6015L33.2703 56.2517L43.006 51.0873L41.6001 48.4371ZM43.4423 37.8552L40.8396 49.4332L43.7665 50.0912L46.3692 38.5132L43.4423 37.8552ZM36.1065 38.7031L44.7379 39.6748L45.0735 36.6936L36.4421 35.7219L36.1065 38.7031ZM277.081 85.2525L273.79 121.213L276.778 121.486L280.068 85.5258L277.081 85.2525ZM288.032 91.2426L279.529 84.2318L277.62 86.5465L286.123 93.5573L288.032 91.2426ZM288.807 104.236L288.577 92.3709L285.578 92.4289L285.807 104.294L288.807 104.236ZM276.511 122.213L288.534 105.128L286.08 103.401L274.057 120.486L276.511 122.213ZM277.99 55.4579L277.307 72.882L280.305 72.9994L280.987 55.5753L277.99 55.4579ZM286.952 52.7268L279.237 54.0378L279.74 56.9954L287.454 55.6844L286.952 52.7268ZM288.011 69.3004L288.701 54.2744L285.705 54.1368L285.014 69.1627L288.011 69.3004ZM279.456 74.2923L287.163 70.5832L285.862 67.88L278.155 71.5891L279.456 74.2923ZM77.9361 71.2927L79.5818 39.4348L76.5858 39.28L74.9401 71.138L77.9361 71.2927ZM69.6931 71.5084L76.1686 72.6909L76.7076 69.7398L70.2321 68.5572L69.6931 71.5084ZM76.6338 38.9735L68.5125 69.6489L71.4126 70.4167L79.5339 39.7413L76.6338 38.9735ZM320.197 45.6696L318.987 77.5471L321.985 77.6609L323.195 45.7834L320.197 45.6696ZM328.52 76.7526L323.175 45.4738L320.218 45.9792L325.563 77.2579L328.52 76.7526ZM320.622 79.0978L327.178 78.499L326.905 75.5115L320.35 76.1102L320.622 79.0978ZM121.491 45.4271L110.58 66.9825L113.256 68.3374L124.167 46.7819L121.491 45.4271ZM113.094 47.3438L122.789 47.604L122.869 44.605L113.175 44.3448L113.094 47.3438ZM113.416 67.7435L114.632 45.9278L111.637 45.7608L110.42 67.5764L113.416 67.7435ZM197.932 47.5623L192.219 78.9471L195.171 79.4843L200.883 48.0995L197.932 47.5623ZM201.768 79.5107L200.907 47.7902L197.908 47.8717L198.77 79.5921L201.768 79.5107ZM193.618 80.7138L200.192 81.0495L200.345 78.0534L193.771 77.7177L193.618 80.7138ZM34.8059 36.9054L31.099 54.6195L34.0354 55.2339L37.7423 37.5199L34.8059 36.9054ZM33.2701 56.2518L43.0058 51.0874L41.6 48.4372L31.8643 53.6016L33.2701 56.2518ZM43.7664 50.0913L46.3691 38.5133L43.4421 37.8553L40.8394 49.4334L43.7664 50.0913ZM45.0734 36.6937L36.4419 35.722L36.1063 38.7032L44.7378 39.6749L45.0734 36.6937ZM276.778 121.486L280.068 85.5259L277.081 85.2526L273.79 121.213L276.778 121.486ZM277.62 86.5466L286.123 93.5574L288.032 91.2427L279.529 84.2319L277.62 86.5466ZM285.578 92.429L285.807 104.294L288.807 104.236L288.577 92.371L285.578 92.429ZM286.08 103.402L274.057 120.486L276.511 122.213L288.534 105.128L286.08 103.402ZM277.99 55.458L277.307 72.8821L280.305 72.9995L280.987 55.5755L277.99 55.458ZM286.952 52.7269L279.237 54.0379L279.74 56.9955L287.454 55.6845L286.952 52.7269ZM279.456 74.2924L287.163 70.5833L285.862 67.8801L278.155 71.5892L279.456 74.2924ZM288.011 69.3005L288.701 54.2745L285.704 54.1369L285.014 69.1629L288.011 69.3005ZM76.5857 39.2801L74.9399 71.1381L77.9359 71.2928L79.5817 39.4349L76.5857 39.2801ZM76.7074 69.7399L70.2319 68.5573L69.6929 71.5085L76.1684 72.6911L76.7074 69.7399ZM71.4124 70.4168L79.5337 39.7414L76.6336 38.9736L68.5124 69.649L71.4124 70.4168ZM320.197 45.6697L318.987 77.5472L321.985 77.661L323.195 45.7835L320.197 45.6697ZM320.622 79.0979L327.178 78.4991L326.905 75.5116L320.349 76.1103L320.622 79.0979ZM328.52 76.7527L323.174 45.4739L320.217 45.9793L325.563 77.258L328.52 76.7527ZM113.256 68.3375L124.167 46.7821L121.491 45.4272L110.579 66.9826L113.256 68.3375ZM122.869 44.6052L113.175 44.3449L113.094 47.3439L122.789 47.6041L122.869 44.6052ZM111.637 45.7609L110.42 67.5766L113.415 67.7436L114.632 45.9279L111.637 45.7609ZM197.931 47.5624L192.219 78.9472L195.171 79.4844L200.883 48.0996L197.931 47.5624ZM193.618 80.7139L200.192 81.0496L200.345 78.0535L193.771 77.7178L193.618 80.7139ZM201.768 79.5108L200.907 47.7903L197.908 47.8718L198.769 79.5922L201.768 79.5108ZM465.319 27.3273L466.934 59.1868L469.93 59.0349L468.315 27.1754L465.319 27.3273ZM468.7 60.5867L475.177 59.4104L474.641 56.4586L468.164 57.635L468.7 60.5867ZM476.359 57.552L468.267 26.8688L465.367 27.6338L473.458 58.317L476.359 57.552Z" fill="#221E20"/>
</g>
<defs>
<filter id="filter0_d_655_339" x="0.288574" y="0.710938" width="567.533" height="158.258" filterUnits="userSpaceOnUse" color-interpolation-filters="sRGB">
<feFlood flood-opacity="0" result="BackgroundImageFix"/>
<feColorMatrix in="SourceAlpha" type="matrix" values="0 0 0 0 0 0 0 0 0 0 0 0 0 0 0 0 0 0 127 0" result="hardAlpha"/>
<feOffset dx="2" dy="2"/>
<feComposite in2="hardAlpha" operator="out"/>
<feColorMatrix type="matrix" values="0 0 0 0 1 0 0 0 0 0 0 0 0 0 0 0 0 0 1 0"/>
<feBlend mode="normal" in2="BackgroundImageFix" result="effect1_dropShadow_655_339"/>
<feBlend mode="normal" in="SourceGraphic" in2="effect1_dropShadow_655_339" result="shape"/>
</filter>
</defs>
</svg>
