<svg width="573" height="139" viewBox="0 0 573 139" fill="none" xmlns="http://www.w3.org/2000/svg">
<g filter="url(#filter0_d_846_63)">
<path fill-rule="evenodd" clip-rule="evenodd" d="M20.2383 3.51085L16.5785 19.3514L21.0307 20.6616L6.09231 114.222L12.5845 101.304C12.5845 101.304 14.1722 96.1036 18.1988 93.51L20.9353 85.6704L26.2266 81.5025L29.3061 60.3386L40.6373 52.2803L43.2763 53.4291L56.1498 43.048L58.4555 14.7863C58.4555 14.7863 55.2682 11.9018 55.0815 6.89467L20.2383 3.51085ZM34.3314 22.7255L31.6135 40.618L41.0474 34.9212L43.0035 23.2165L34.3314 22.7255Z" fill="#FAFF00"/>
<path d="M16.5785 19.3514L15.117 19.0138L14.7988 20.3913L16.1551 20.7904L16.5785 19.3514ZM20.2383 3.51085L20.3833 2.01788L19.0732 1.89064L18.7768 3.17319L20.2383 3.51085ZM21.0307 20.6616L22.5119 20.8981L22.7199 19.5952L21.4541 19.2226L21.0307 20.6616ZM6.09231 114.222L4.61107 113.985L7.43256 114.895L6.09231 114.222ZM12.5845 101.304L13.9248 101.978L13.982 101.864L14.0192 101.742L12.5845 101.304ZM18.1988 93.51L19.0111 94.771L19.4449 94.4916L19.615 94.0043L18.1988 93.51ZM20.9353 85.6704L20.0071 84.4921L19.6633 84.7629L19.5191 85.1761L20.9353 85.6704ZM26.2266 81.5025L27.1548 82.6809L27.6248 82.3106L27.711 81.7185L26.2266 81.5025ZM29.3061 60.3386L28.4368 59.1162L27.9141 59.4879L27.8217 60.1226L29.3061 60.3386ZM40.6373 52.2803L41.236 50.905L40.4588 50.5667L39.768 51.0579L40.6373 52.2803ZM43.2763 53.4291L42.6776 54.8044L43.5106 55.167L44.2179 54.5967L43.2763 53.4291ZM56.1498 43.048L57.0914 44.2157L57.5925 43.8116L57.6448 43.17L56.1498 43.048ZM58.4555 14.7863L59.9506 14.9083L60.0108 14.1707L59.4621 13.6742L58.4555 14.7863ZM55.0815 6.89467L56.5805 6.83877L56.5316 5.52844L55.2265 5.4017L55.0815 6.89467ZM31.6135 40.618L30.1305 40.3927L29.65 43.5559L32.3888 41.902L31.6135 40.618ZM34.3314 22.7255L34.4162 21.2279L33.0534 21.1507L32.8484 22.5002L34.3314 22.7255ZM41.0474 34.9212L41.8228 36.2052L42.4132 35.8487L42.5269 35.1684L41.0474 34.9212ZM43.0035 23.2165L44.4829 23.4638L44.7587 21.8135L43.0883 21.7189L43.0035 23.2165ZM18.04 19.6891L21.6998 3.84852L18.7768 3.17319L15.117 19.0138L18.04 19.6891ZM21.4541 19.2226L17.002 17.9124L16.1551 20.7904L20.6072 22.1006L21.4541 19.2226ZM7.57355 114.458L22.5119 20.8981L19.5494 20.4251L4.61107 113.985L7.57355 114.458ZM11.2443 100.631L4.75207 113.548L7.43256 114.895L13.9248 101.978L11.2443 100.631ZM17.3865 92.2489C15.0813 93.7338 13.5299 95.92 12.5697 97.6525C12.0835 98.5298 11.7333 99.3191 11.5033 99.8927C11.388 100.18 11.3022 100.415 11.244 100.582C11.2149 100.666 11.1927 100.733 11.1771 100.781C11.1693 100.805 11.1631 100.824 11.1586 100.838C11.1563 100.845 11.1545 100.851 11.153 100.856C11.1523 100.858 11.1517 100.86 11.1512 100.862C11.1509 100.863 11.1507 100.864 11.1505 100.864C11.1503 100.865 11.1502 100.865 11.1502 100.865C11.15 100.866 11.1499 100.866 12.5845 101.304C14.0192 101.742 14.019 101.743 14.0189 101.743C14.0189 101.743 14.0188 101.743 14.0187 101.744C14.0186 101.744 14.0185 101.744 14.0185 101.744C14.0183 101.745 14.0183 101.745 14.0183 101.745C14.0184 101.744 14.0189 101.743 14.0198 101.74C14.0215 101.735 14.0248 101.724 14.0296 101.71C14.0392 101.68 14.055 101.633 14.0772 101.569C14.1216 101.441 14.1913 101.25 14.2877 101.009C14.4813 100.527 14.7796 99.8539 15.1937 99.1068C16.034 97.5906 17.2897 95.8798 19.0111 94.771L17.3865 92.2489ZM19.5191 85.1761L16.7826 93.0156L19.615 94.0043L22.3515 86.1648L19.5191 85.1761ZM25.2985 80.3242L20.0071 84.4921L21.8634 86.8488L27.1548 82.6809L25.2985 80.3242ZM27.8217 60.1226L24.7423 81.2865L27.711 81.7185L30.7905 60.5546L27.8217 60.1226ZM39.768 51.0579L28.4368 59.1162L30.1754 61.561L41.5066 53.5027L39.768 51.0579ZM43.875 52.0537L41.236 50.905L40.0386 53.6557L42.6776 54.8044L43.875 52.0537ZM55.2082 41.8804L42.3347 52.2614L44.2179 54.5967L57.0914 44.2157L55.2082 41.8804ZM56.9605 14.6644L54.6548 42.9261L57.6448 43.17L59.9506 14.9083L56.9605 14.6644ZM53.5826 6.95057C53.6876 9.76829 54.6379 11.9881 55.5574 13.4983C56.0173 14.2536 56.473 14.8376 56.8204 15.239C56.9943 15.44 57.142 15.5963 57.2508 15.7064C57.3052 15.7615 57.3499 15.8052 57.3835 15.8372C57.4002 15.8533 57.4142 15.8664 57.4252 15.8766C57.4307 15.8817 57.4354 15.8861 57.4394 15.8897C57.4414 15.8916 57.4432 15.8932 57.4448 15.8947C57.4456 15.8954 57.4464 15.8961 57.4471 15.8967C57.4474 15.897 57.4479 15.8975 57.4481 15.8976C57.4486 15.8981 57.449 15.8985 58.4555 14.7863C59.4621 13.6742 59.4625 13.6746 59.4629 13.6749C59.4631 13.6751 59.4635 13.6754 59.4637 13.6757C59.4642 13.6761 59.4647 13.6766 59.4651 13.6769C59.466 13.6777 59.4666 13.6783 59.4671 13.6787C59.468 13.6795 59.4681 13.6797 59.4676 13.6792C59.4665 13.6782 59.4626 13.6745 59.456 13.6682C59.4427 13.6555 59.4188 13.6323 59.3857 13.5988C59.3194 13.5316 59.2166 13.4235 59.0889 13.2758C58.8327 12.9798 58.48 12.5297 58.1198 11.9381C57.3989 10.7542 56.6621 9.0282 56.5805 6.83877L53.5826 6.95057ZM20.0934 5.00383L54.9365 8.38765L55.2265 5.4017L20.3833 2.01788L20.0934 5.00383ZM33.0964 40.8433L35.8143 22.9507L32.8484 22.5002L30.1305 40.3927L33.0964 40.8433ZM40.2721 33.6371L30.8381 39.334L32.3888 41.902L41.8228 36.2052L40.2721 33.6371ZM41.524 22.9693L39.568 34.6739L42.5269 35.1684L44.4829 23.4638L41.524 22.9693ZM34.2465 24.2231L42.9186 24.7141L43.0883 21.7189L34.4162 21.2279L34.2465 24.2231Z" fill="#221E20"/>
</g>
<g filter="url(#filter1_d_846_63)">
<path fill-rule="evenodd" clip-rule="evenodd" d="M92.9225 84.6794C92.9225 84.6794 89.8742 89.3489 90.2658 95.7727C90.2658 95.7727 85.7576 100.253 85.9604 108.137L79.0672 122.96L77.5233 66.7114L67.7839 66.4123L62.2356 95.8148L55.8717 99.7936C55.8717 99.7936 55.0694 104.007 51.5709 106.047C51.5709 106.047 50.3319 112.553 43.8856 120.244L54.4802 63.2951L51.9242 50.6546L56.8883 50.0743L63.7182 14.6224L60.4694 7.4618L88.07 9.19995L91.0477 53.2694L95.7316 54.74L91.4347 65.8039L92.9225 84.6794ZM76.0763 20.5148L76.9289 52.4038L70.3807 51.7317L76.0763 20.5148Z" fill="#FAFF00"/>
<path d="M90.2658 95.7727L91.3232 96.8366L91.8042 96.3585L91.763 95.6815L90.2658 95.7727ZM92.9225 84.6794L94.1786 85.4994L94.4581 85.0713L94.4179 84.5616L92.9225 84.6794ZM85.9604 108.137L87.3206 108.769L87.469 108.45L87.4599 108.098L85.9604 108.137ZM79.0672 122.96L77.5678 123.002L80.4273 123.593L79.0672 122.96ZM77.5233 66.7114L79.0227 66.6702L78.9839 65.2555L77.5694 65.2121L77.5233 66.7114ZM67.7839 66.4123L67.83 64.913L66.5478 64.8736L66.3099 66.1341L67.7839 66.4123ZM62.2356 95.8148L63.0308 97.0867L63.5878 96.7384L63.7096 96.0929L62.2356 95.8148ZM55.8717 99.7936L55.0765 98.5217L54.5208 98.8691L54.3982 99.513L55.8717 99.7936ZM51.5709 106.047L50.8153 104.751L50.2251 105.095L50.0974 105.767L51.5709 106.047ZM43.8856 120.244L42.4109 119.97L41.3663 125.585L45.0352 121.208L43.8856 120.244ZM54.4802 63.2951L55.9549 63.5694L56.0082 63.2831L55.9505 62.9978L54.4802 63.2951ZM51.9242 50.6546L51.7501 49.1648L50.1309 49.3541L50.454 50.9519L51.9242 50.6546ZM56.8883 50.0743L57.0625 51.5642L58.1534 51.4366L58.3612 50.3581L56.8883 50.0743ZM63.7182 14.6224L65.1911 14.9062L65.2814 14.4374L65.0842 14.0027L63.7182 14.6224ZM60.4694 7.4618L60.5637 5.96476L58.0719 5.80784L59.1034 8.08154L60.4694 7.4618ZM88.07 9.19995L89.5666 9.09883L89.4779 7.78563L88.1643 7.70291L88.07 9.19995ZM91.0477 53.2694L89.5511 53.3705L89.6202 54.3934L90.5983 54.7005L91.0477 53.2694ZM95.7316 54.74L97.1298 55.283L97.71 53.789L96.1809 53.3089L95.7316 54.74ZM91.4347 65.8039L90.0365 65.2609L89.9125 65.5803L89.9394 65.9218L91.4347 65.8039ZM76.9289 52.4038L76.7757 53.896L78.474 54.0703L78.4283 52.3637L76.9289 52.4038ZM76.0763 20.5148L77.5757 20.4747L74.6006 20.2456L76.0763 20.5148ZM70.3807 51.7317L68.905 51.4624L68.6139 53.0582L70.2275 53.2238L70.3807 51.7317ZM91.763 95.6815C91.5828 92.7257 92.1942 90.161 92.8578 88.3276C93.1887 87.4133 93.5295 86.6896 93.7834 86.2011C93.9101 85.9572 94.0147 85.7729 94.0848 85.6539C94.1199 85.5944 94.1462 85.5513 94.1624 85.5253C94.1705 85.5123 94.176 85.5036 94.1787 85.4992C94.1801 85.497 94.1808 85.496 94.1808 85.496C94.1808 85.496 94.1806 85.4963 94.1802 85.4969C94.1801 85.4972 94.1798 85.4975 94.1796 85.4979C94.1794 85.4981 94.1792 85.4985 94.1791 85.4986C94.1788 85.499 94.1786 85.4994 92.9225 84.6794C91.6665 83.8594 91.6662 83.8599 91.6659 83.8603C91.6658 83.8605 91.6655 83.861 91.6653 83.8614C91.6648 83.8621 91.6643 83.8628 91.6637 83.8637C91.6626 83.8654 91.6613 83.8674 91.6599 83.8697C91.6569 83.8743 91.6533 83.88 91.6489 83.8868C91.6401 83.9006 91.6286 83.9188 91.6144 83.9416C91.5861 83.9872 91.5474 84.0507 91.4998 84.1314C91.4048 84.2928 91.2743 84.5235 91.1214 84.8177C90.8159 85.4055 90.4191 86.2506 90.0369 87.3066C89.2741 89.4139 88.5571 92.3959 88.7685 95.864L91.763 95.6815ZM87.4599 108.098C87.3663 104.459 88.3586 101.62 89.3661 99.6939C89.8706 98.7297 90.3779 97.9969 90.7518 97.5127C90.9385 97.2709 91.0912 97.0921 91.1924 96.9785C91.243 96.9217 91.2807 96.8813 91.3032 96.8575C91.3145 96.8456 91.322 96.8379 91.3254 96.8344C91.3271 96.8327 91.3278 96.832 91.3274 96.8323C91.3273 96.8325 91.3268 96.833 91.3261 96.8337C91.3258 96.834 91.3253 96.8345 91.3248 96.8349C91.3246 96.8352 91.3242 96.8356 91.3241 96.8357C91.3236 96.8362 91.3232 96.8366 90.2658 95.7727C89.2083 94.7088 89.2078 94.7093 89.2073 94.7098C89.2072 94.71 89.2066 94.7105 89.2062 94.7109C89.2055 94.7117 89.2047 94.7125 89.2038 94.7134C89.2019 94.7152 89.1999 94.7173 89.1975 94.7197C89.1928 94.7244 89.1871 94.7302 89.1802 94.7372C89.1666 94.7512 89.1488 94.7696 89.1271 94.7924C89.0837 94.8382 89.0247 94.9017 88.9525 94.9828C88.808 95.145 88.61 95.3778 88.3773 95.6793C87.9122 96.2816 87.3052 97.1617 86.708 98.3031C85.5122 100.589 84.3517 103.931 84.4609 108.176L87.4599 108.098ZM80.4273 123.593L87.3206 108.769L84.6003 107.505L77.7071 122.328L80.4273 123.593ZM76.0239 66.7526L77.5678 123.002L80.5666 122.919L79.0227 66.6702L76.0239 66.7526ZM67.7379 67.9116L77.4773 68.2107L77.5694 65.2121L67.83 64.913L67.7379 67.9116ZM63.7096 96.0929L69.2579 66.6904L66.3099 66.1341L60.7616 95.5366L63.7096 96.0929ZM56.6669 101.065L63.0308 97.0867L61.4404 94.5429L55.0765 98.5217L56.6669 101.065ZM52.3265 107.343C54.4215 106.121 55.6679 104.276 56.3815 102.813C56.7419 102.074 56.9788 101.407 57.1267 100.92C57.201 100.676 57.2536 100.475 57.2885 100.331C57.306 100.258 57.3192 100.199 57.3285 100.156C57.3331 100.135 57.3368 100.117 57.3395 100.103C57.3409 100.096 57.3421 100.09 57.343 100.086C57.3435 100.083 57.3439 100.081 57.3443 100.079C57.3445 100.078 57.3447 100.077 57.3448 100.076C57.3449 100.076 57.345 100.075 57.345 100.075C57.3451 100.075 57.3452 100.074 55.8717 99.7936C54.3982 99.513 54.3983 99.5125 54.3984 99.512C54.3984 99.5119 54.3985 99.5114 54.3986 99.5111C54.3987 99.5106 54.3988 99.5101 54.3988 99.5096C54.399 99.5088 54.3991 99.5081 54.3992 99.5078C54.3994 99.507 54.3993 99.5072 54.3991 99.5084C54.3986 99.5107 54.3973 99.5169 54.3953 99.5266C54.3911 99.5461 54.3836 99.58 54.3723 99.6266C54.3497 99.7202 54.3123 99.8643 54.2566 100.047C54.1449 100.415 53.9625 100.929 53.685 101.498C53.1228 102.651 52.2187 103.933 50.8153 104.751L52.3265 107.343ZM45.0352 121.208C48.3625 117.238 50.3569 113.561 51.5231 110.855C52.1061 109.503 52.4821 108.393 52.7145 107.611C52.8307 107.22 52.911 106.91 52.9633 106.693C52.9895 106.584 53.0087 106.499 53.0219 106.437C53.0285 106.407 53.0336 106.382 53.0373 106.364C53.0391 106.355 53.0406 106.347 53.0418 106.341C53.0424 106.338 53.0429 106.335 53.0433 106.333C53.0436 106.332 53.0438 106.331 53.0439 106.33C53.044 106.33 53.0441 106.329 53.0442 106.329C53.0443 106.328 53.0444 106.328 51.5709 106.047C50.0974 105.767 50.0974 105.766 50.0975 105.766C50.0976 105.765 50.0977 105.765 50.0977 105.765C50.0978 105.764 50.0979 105.764 50.0979 105.763C50.0981 105.763 50.0981 105.763 50.0981 105.763C50.098 105.763 50.0977 105.765 50.097 105.768C50.0956 105.775 50.093 105.788 50.0889 105.807C50.0808 105.845 50.067 105.906 50.0468 105.99C50.0062 106.159 49.9393 106.418 49.8387 106.757C49.6373 107.435 49.3007 108.432 48.7681 109.668C47.7032 112.138 45.8549 115.56 42.736 119.281L45.0352 121.208ZM53.0055 63.0207L42.4109 119.97L45.3603 120.519L55.9549 63.5694L53.0055 63.0207ZM50.454 50.9519L53.01 63.5923L55.9505 62.9978L53.3945 50.3573L50.454 50.9519ZM56.7141 48.5845L51.7501 49.1648L52.0984 52.1445L57.0625 51.5642L56.7141 48.5845ZM62.2453 14.3387L55.4154 49.7905L58.3612 50.3581L65.1911 14.9062L62.2453 14.3387ZM59.1034 8.08154L62.3522 15.2422L65.0842 14.0027L61.8354 6.84205L59.1034 8.08154ZM88.1643 7.70291L60.5637 5.96476L60.3752 8.95883L87.9758 10.697L88.1643 7.70291ZM92.5442 53.1682L89.5666 9.09883L86.5734 9.30106L89.5511 53.3705L92.5442 53.1682ZM96.1809 53.3089L91.497 51.8383L90.5983 54.7005L95.2822 56.1711L96.1809 53.3089ZM92.833 66.347L97.1298 55.283L94.3333 54.197L90.0365 65.2609L92.833 66.347ZM94.4179 84.5616L92.9301 65.6861L89.9394 65.9218L91.4272 84.7973L94.4179 84.5616ZM78.4283 52.3637L77.5757 20.4747L74.5768 20.5549L75.4294 52.4439L78.4283 52.3637ZM70.2275 53.2238L76.7757 53.896L77.082 50.9117L70.5338 50.2395L70.2275 53.2238ZM74.6006 20.2456L68.905 51.4624L71.8563 52.0009L77.5519 20.7841L74.6006 20.2456Z" fill="#221E20"/>
</g>
<g filter="url(#filter2_d_846_63)">
<path fill-rule="evenodd" clip-rule="evenodd" d="M95.942 10.0714L131.55 12.6699L134.177 17.9992L137.917 19.8622C137.917 19.8622 137.513 23.4092 138.609 26.4083L124.931 55.0321L135.573 96.1184L145.037 83.117L145.669 76.7383L154.357 65.7516C154.357 65.7516 144.919 54.3249 139.491 54.6816L138.577 50.977L132.777 46.8406L131.71 42.5186L161.148 14.2938L177.887 15.076L170.007 41.2565L165.955 30.7935L153.919 41.6237L168.507 56.0374C168.507 56.0374 168.221 62.3307 171.756 64.7337L146.489 102.41L142.676 103.351C142.676 103.351 141.439 105.801 138.641 107.962L143.151 125.373L136.348 118.85C136.348 118.85 135.359 113.777 132.336 110.856C132.124 110.899 131.907 110.939 131.688 110.975L129.753 115.055L115.104 124.237L128.794 105.432C127.446 103.096 125.22 100.354 121.737 98.8622L112.665 71.2413L109.616 120.118L105.135 115.296L104.048 109.064L100.276 104.323L100.72 100.422L97.2625 96.0757L99.5025 25.9082L97.6253 20.305L99.2864 18.3384L98.3522 13.9204L95.942 10.0714ZM112.807 47.9029L123.195 26.0905L113.497 26.0643L112.807 47.9029Z" fill="#FAFF00"/>
<path d="M131.55 12.6699L132.895 12.0067L132.516 11.2364L131.659 11.1739L131.55 12.6699ZM95.942 10.0714L96.0512 8.57537L93.1006 8.36005L94.6707 10.8675L95.942 10.0714ZM134.177 17.9992L132.832 18.6624L133.055 19.1162L133.508 19.3418L134.177 17.9992ZM137.917 19.8622L139.408 20.0319L139.526 18.988L138.586 18.5195L137.917 19.8622ZM138.609 26.4083L139.962 27.0551L140.234 26.486L140.018 25.8936L138.609 26.4083ZM124.931 55.0321L123.577 54.3853L123.341 54.8788L123.478 55.4082L124.931 55.0321ZM135.573 96.1184L134.121 96.4946L134.917 99.5682L136.786 97.0012L135.573 96.1184ZM145.037 83.117L146.25 83.9998L146.49 83.6704L146.53 83.265L145.037 83.117ZM145.669 76.7383L144.493 75.8079L144.22 76.1528L144.177 76.5903L145.669 76.7383ZM154.357 65.7516L155.534 66.682L156.286 65.7311L155.514 64.7964L154.357 65.7516ZM139.491 54.6816L138.035 55.041L138.336 56.2608L139.59 56.1784L139.491 54.6816ZM138.577 50.977L140.034 50.6177L139.901 50.0783L139.448 49.7557L138.577 50.977ZM132.777 46.8406L131.32 47.2L131.453 47.7394L131.906 48.0619L132.777 46.8406ZM131.71 42.5186L130.672 41.4359L130.046 42.036L130.254 42.878L131.71 42.5186ZM161.148 14.2938L161.218 12.7954L160.575 12.7654L160.11 13.2111L161.148 14.2938ZM177.887 15.076L179.324 15.5083L179.878 13.6673L177.957 13.5776L177.887 15.076ZM170.007 41.2565L168.608 41.7983L170.185 45.8693L171.444 41.6888L170.007 41.2565ZM165.955 30.7935L167.353 30.2517L166.568 28.2238L164.951 29.6785L165.955 30.7935ZM153.919 41.6237L152.916 40.5087L151.733 41.5727L152.865 42.6907L153.919 41.6237ZM168.507 56.0374L170.005 56.1054L170.035 55.4392L169.561 54.9704L168.507 56.0374ZM171.756 64.7337L173.001 65.5691L173.832 64.3312L172.599 63.4932L171.756 64.7337ZM146.489 102.41L146.848 103.866L147.411 103.727L147.734 103.245L146.489 102.41ZM142.676 103.351L142.317 101.894L141.647 102.059L141.337 102.675L142.676 103.351ZM138.641 107.962L137.724 106.775L136.941 107.38L137.189 108.338L138.641 107.962ZM143.151 125.373L142.113 126.456L145.929 130.115L144.603 124.997L143.151 125.373ZM136.348 118.85L134.876 119.137L134.967 119.604L135.31 119.933L136.348 118.85ZM132.336 110.856L133.378 109.777L132.809 109.227L132.035 109.386L132.336 110.856ZM131.688 110.975L131.447 109.494L130.67 109.62L130.332 110.332L131.688 110.975ZM129.753 115.055L130.55 116.326L130.921 116.093L131.108 115.697L129.753 115.055ZM115.104 124.237L113.892 123.354L115.901 125.508L115.104 124.237ZM128.794 105.432L130.006 106.314L130.58 105.526L130.093 104.682L128.794 105.432ZM121.737 98.8622L120.312 99.3302L120.523 99.9741L121.146 100.241L121.737 98.8622ZM112.665 71.2413L114.091 70.7733L111.168 71.1479L112.665 71.2413ZM109.616 120.118L108.517 121.139L110.895 123.698L111.113 120.211L109.616 120.118ZM105.135 115.296L103.657 115.554L103.733 115.992L104.036 116.317L105.135 115.296ZM104.048 109.064L105.525 108.807L105.46 108.43L105.221 108.131L104.048 109.064ZM100.276 104.323L98.7854 104.154L98.7151 104.771L99.102 105.257L100.276 104.323ZM100.72 100.422L102.21 100.591L102.281 99.974L101.894 99.4878L100.72 100.422ZM97.2625 96.0757L95.7633 96.0279L95.7457 96.5785L96.0887 97.0096L97.2625 96.0757ZM99.5025 25.9082L101.002 25.9561L101.01 25.687L100.925 25.4317L99.5025 25.9082ZM97.6253 20.305L96.4794 19.3372L95.935 19.9816L96.203 20.7815L97.6253 20.305ZM99.2864 18.3384L100.432 19.3063L100.906 18.7458L100.754 18.0281L99.2864 18.3384ZM98.3522 13.9204L99.8198 13.6101L99.7647 13.3498L99.6236 13.1243L98.3522 13.9204ZM123.195 26.0905L124.55 26.7355L125.568 24.5969L123.199 24.5905L123.195 26.0905ZM112.807 47.9029L111.308 47.8556L114.162 48.5479L112.807 47.9029ZM113.497 26.0643L113.501 24.5643L112.044 24.5603L111.998 26.0169L113.497 26.0643ZM131.659 11.1739L96.0512 8.57537L95.8329 11.5674L131.441 14.1659L131.659 11.1739ZM135.522 17.336L132.895 12.0067L130.205 13.3331L132.832 18.6624L135.522 17.336ZM138.586 18.5195L134.846 16.6565L133.508 19.3418L137.248 21.2048L138.586 18.5195ZM140.018 25.8936C139.548 24.6071 139.385 23.1505 139.352 21.9678C139.335 21.3859 139.35 20.8911 139.369 20.5451C139.378 20.3726 139.389 20.2382 139.396 20.1498C139.4 20.1056 139.403 20.0731 139.405 20.0531C139.406 20.0431 139.407 20.0362 139.407 20.0326C139.408 20.0308 139.408 20.0299 139.408 20.0297C139.408 20.0297 139.408 20.0298 139.408 20.0302C139.408 20.0303 139.408 20.0306 139.408 20.0309C139.408 20.031 139.408 20.0313 139.408 20.0313C139.408 20.0316 139.408 20.0319 137.917 19.8622C136.427 19.6925 136.427 19.6928 136.427 19.6931C136.427 19.6933 136.427 19.6936 136.427 19.6938C136.427 19.6943 136.427 19.6949 136.426 19.6955C136.426 19.6967 136.426 19.6981 136.426 19.6998C136.426 19.7031 136.425 19.7073 136.425 19.7123C136.424 19.7223 136.422 19.7357 136.42 19.7524C136.417 19.7859 136.413 19.8324 136.408 19.8911C136.397 20.0084 136.385 20.1746 136.373 20.3814C136.351 20.7942 136.333 21.3736 136.353 22.0534C136.391 23.3939 136.574 25.2104 137.2 26.9231L140.018 25.8936ZM126.284 55.6788L139.962 27.0551L137.256 25.7616L123.577 54.3853L126.284 55.6788ZM137.025 95.7423L126.383 54.656L123.478 55.4082L134.121 96.4946L137.025 95.7423ZM143.825 82.2343L134.36 95.2357L136.786 97.0012L146.25 83.9998L143.825 82.2343ZM144.177 76.5903L143.545 82.9691L146.53 83.265L147.162 76.8862L144.177 76.5903ZM153.181 64.8212L144.493 75.8079L146.846 77.6687L155.534 66.682L153.181 64.8212ZM139.59 56.1784C140.459 56.1213 141.727 56.553 143.314 57.5359C144.847 58.4856 146.456 59.809 147.941 61.1837C149.419 62.5518 150.737 63.936 151.688 64.9813C152.163 65.5029 152.544 65.9376 152.805 66.2406C152.935 66.392 153.036 66.5104 153.103 66.59C153.136 66.6298 153.162 66.6599 153.178 66.6796C153.186 66.6895 153.192 66.6968 153.196 66.7013C153.198 66.7036 153.199 66.7052 153.2 66.7062C153.2 66.7066 153.201 66.7069 153.201 66.707C153.201 66.7071 153.201 66.7071 153.201 66.7071C153.201 66.707 153.201 66.7069 154.357 65.7516C155.514 64.7964 155.513 64.7962 155.513 64.7959C155.513 64.7958 155.513 64.7955 155.513 64.7952C155.512 64.7946 155.512 64.7939 155.511 64.793C155.509 64.7911 155.507 64.7886 155.505 64.7854C155.499 64.779 155.492 64.7699 155.482 64.7581C155.462 64.7346 155.434 64.7006 155.397 64.6568C155.323 64.5692 155.215 64.4424 155.077 64.2821C154.801 63.9615 154.402 63.5064 153.907 62.9623C152.919 61.8762 151.539 60.426 149.979 58.9821C148.426 57.5446 146.657 56.0783 144.894 54.9857C143.184 53.9265 141.237 53.0637 139.393 53.1849L139.59 56.1784ZM137.121 51.3364L138.035 55.041L140.948 54.3223L140.034 50.6177L137.121 51.3364ZM131.906 48.0619L137.706 52.1983L139.448 49.7557L133.647 45.6193L131.906 48.0619ZM130.254 42.878L131.32 47.2L134.233 46.4813L133.166 42.1592L130.254 42.878ZM160.11 13.2111L130.672 41.4359L132.748 43.6013L162.186 15.3765L160.11 13.2111ZM177.957 13.5776L161.218 12.7954L161.078 15.7922L177.817 16.5743L177.957 13.5776ZM171.444 41.6888L179.324 15.5083L176.451 14.6436L168.571 40.8242L171.444 41.6888ZM164.556 31.3353L168.608 41.7983L171.406 40.7147L167.353 30.2517L164.556 31.3353ZM154.922 42.7387L166.958 31.9085L164.951 29.6785L152.916 40.5087L154.922 42.7387ZM169.561 54.9704L154.973 40.5567L152.865 42.6907L167.452 57.1044L169.561 54.9704ZM172.599 63.4932C171.334 62.6336 170.626 60.9589 170.277 59.1935C170.11 58.349 170.042 57.5649 170.016 56.9904C170.003 56.7047 170 56.4748 170.001 56.3202C170.002 56.243 170.003 56.1848 170.004 56.1482C170.004 56.1298 170.005 56.1169 170.005 56.1097C170.005 56.1061 170.005 56.1039 170.005 56.1031C170.005 56.1028 170.005 56.1028 170.005 56.1032C170.005 56.1034 170.005 56.1036 170.005 56.104C170.005 56.1042 170.005 56.1046 170.005 56.1047C170.005 56.105 170.005 56.1054 168.507 56.0374C167.008 55.9694 167.008 55.9699 167.008 55.9703C167.008 55.9705 167.008 55.971 167.008 55.9714C167.008 55.9722 167.008 55.973 167.008 55.974C167.008 55.9759 167.008 55.9782 167.008 55.9808C167.007 55.9862 167.007 55.9931 167.007 56.0014C167.006 56.0182 167.006 56.0409 167.005 56.0692C167.003 56.1259 167.002 56.2053 167.001 56.3048C167 56.5038 167.003 56.7844 167.019 57.1262C167.05 57.8068 167.131 58.7462 167.334 59.7753C167.726 61.7573 168.642 64.4308 170.912 65.9741L172.599 63.4932ZM147.734 103.245L173.001 65.5691L170.51 63.8982L145.243 101.574L147.734 103.245ZM143.035 104.807L146.848 103.866L146.129 100.954L142.317 101.894L143.035 104.807ZM139.558 109.149C141.087 107.968 142.188 106.709 142.91 105.743C143.271 105.259 143.54 104.845 143.722 104.545C143.813 104.395 143.882 104.273 143.931 104.185C143.955 104.141 143.974 104.105 143.988 104.078C143.995 104.065 144.001 104.054 144.005 104.045C144.008 104.041 144.01 104.037 144.011 104.034C144.012 104.033 144.013 104.031 144.013 104.03C144.014 104.029 144.014 104.029 144.014 104.028C144.014 104.028 144.015 104.027 144.015 104.027C144.015 104.027 144.015 104.027 142.676 103.351C141.337 102.675 141.337 102.674 141.337 102.674C141.337 102.674 141.337 102.673 141.338 102.673C141.338 102.673 141.338 102.672 141.338 102.672C141.338 102.671 141.339 102.671 141.339 102.671C141.339 102.67 141.339 102.67 141.339 102.67C141.339 102.671 141.337 102.674 141.335 102.679C141.329 102.689 141.319 102.708 141.304 102.736C141.274 102.79 141.225 102.876 141.156 102.99C141.019 103.217 140.803 103.55 140.506 103.948C139.909 104.748 138.993 105.795 137.724 106.775L139.558 109.149ZM144.603 124.997L140.093 107.586L137.189 108.338L141.699 125.749L144.603 124.997ZM135.31 119.933L142.113 126.456L144.189 124.291L137.386 117.767L135.31 119.933ZM131.294 111.934C132.576 113.173 133.483 114.937 134.075 116.484C134.365 117.243 134.568 117.918 134.698 118.401C134.762 118.641 134.808 118.832 134.837 118.96C134.852 119.024 134.862 119.071 134.869 119.102C134.872 119.117 134.874 119.127 134.875 119.133C134.876 119.136 134.876 119.138 134.876 119.139C134.876 119.139 134.876 119.139 134.876 119.139C134.876 119.139 134.876 119.138 134.876 119.138C134.876 119.138 134.876 119.138 134.876 119.138C134.876 119.137 134.876 119.137 136.348 118.85C137.821 118.563 137.82 118.563 137.82 118.562C137.82 118.562 137.82 118.562 137.82 118.561C137.82 118.561 137.82 118.56 137.82 118.559C137.82 118.558 137.819 118.556 137.819 118.554C137.818 118.55 137.817 118.544 137.815 118.537C137.813 118.524 137.809 118.506 137.804 118.483C137.795 118.437 137.781 118.373 137.762 118.293C137.726 118.131 137.671 117.903 137.595 117.623C137.445 117.063 137.211 116.287 136.877 115.412C136.219 113.693 135.119 111.459 133.378 109.777L131.294 111.934ZM131.928 112.455C132.169 112.416 132.405 112.373 132.638 112.325L132.035 109.386C131.842 109.426 131.646 109.462 131.447 109.494L131.928 112.455ZM131.108 115.697L133.043 111.617L130.332 110.332L128.398 114.412L131.108 115.697ZM115.901 125.508L130.55 116.326L128.956 113.784L114.308 122.966L115.901 125.508ZM127.581 104.549L113.892 123.354L116.317 125.12L130.006 106.314L127.581 104.549ZM121.146 100.241C124.224 101.56 126.239 104.006 127.494 106.181L130.093 104.682C128.653 102.187 126.215 99.1492 122.328 97.4834L121.146 100.241ZM111.24 71.7093L120.312 99.3302L123.162 98.3941L114.091 70.7733L111.24 71.7093ZM111.113 120.211L114.163 71.3347L111.168 71.1479L108.119 120.025L111.113 120.211ZM104.036 116.317L108.517 121.139L110.715 119.097L106.233 114.275L104.036 116.317ZM102.57 109.322L103.657 115.554L106.612 115.038L105.525 108.807L102.57 109.322ZM99.102 105.257L102.874 109.998L105.221 108.131L101.45 103.389L99.102 105.257ZM99.2296 100.252L98.7854 104.154L101.766 104.493L102.21 100.591L99.2296 100.252ZM96.0887 97.0096L99.5462 101.356L101.894 99.4878L98.4364 95.1419L96.0887 97.0096ZM98.0032 25.8604L95.7633 96.0279L98.7618 96.1236L101.002 25.9561L98.0032 25.8604ZM96.203 20.7815L98.0802 26.3847L100.925 25.4317L99.0476 19.8285L96.203 20.7815ZM98.1405 17.3705L96.4794 19.3372L98.7713 21.2729L100.432 19.3063L98.1405 17.3705ZM96.8847 14.2307L97.8189 18.6487L100.754 18.0281L99.8198 13.6101L96.8847 14.2307ZM94.6707 10.8675L97.0809 14.7165L99.6236 13.1243L97.2134 9.27531L94.6707 10.8675ZM121.841 25.4455L111.453 47.258L114.162 48.5479L124.55 26.7355L121.841 25.4455ZM113.493 27.5642L123.191 27.5905L123.199 24.5905L113.501 24.5643L113.493 27.5642ZM114.307 47.9503L114.997 26.1116L111.998 26.0169L111.308 47.8556L114.307 47.9503Z" fill="#221E20"/>
</g>
<g filter="url(#filter3_d_846_63)">
<path fill-rule="evenodd" clip-rule="evenodd" d="M216.465 91.8234C216.465 91.8234 213.514 96.5548 214.039 102.969C214.039 102.969 209.624 107.542 209.99 115.42L203.404 130.383L200.698 74.1775L190.955 74.0798L186.015 103.591L179.735 107.7C179.735 107.7 179.02 111.929 175.564 114.041C175.564 114.041 174.46 120.572 168.174 128.394L177.589 71.2382L174.773 58.6534L179.724 57.9705L185.819 22.3851L182.423 15.2931L210.054 16.4603L213.942 60.4588L218.655 61.8323L214.588 72.9826L216.465 91.8234ZM198.296 28.0207L199.808 59.8853L193.247 59.3486L198.296 28.0207Z" fill="#FAFF00"/>
<path d="M214.039 102.969L215.118 104.011L215.589 103.523L215.534 102.847L214.039 102.969ZM216.465 91.8234L217.738 92.6172L218.009 92.1834L217.958 91.6746L216.465 91.8234ZM209.99 115.42L211.363 116.024L211.504 115.702L211.488 115.35L209.99 115.42ZM203.404 130.383L201.906 130.455L204.777 130.987L203.404 130.383ZM200.698 74.1775L202.196 74.1054L202.128 72.6918L200.713 72.6776L200.698 74.1775ZM190.955 74.0798L190.97 72.5799L189.687 72.567L189.475 73.8322L190.955 74.0798ZM186.015 103.591L186.837 104.846L187.386 104.486L187.495 103.838L186.015 103.591ZM179.735 107.7L178.914 106.445L178.365 106.804L178.256 107.45L179.735 107.7ZM175.564 114.041L174.782 112.761L174.199 113.118L174.085 113.791L175.564 114.041ZM168.174 128.394L166.694 128.15L165.766 133.786L169.343 129.334L168.174 128.394ZM177.589 71.2382L179.069 71.482L179.117 71.1948L179.053 70.9106L177.589 71.2382ZM174.773 58.6534L174.568 57.1674L172.953 57.3901L173.309 58.981L174.773 58.6534ZM179.724 57.9705L179.928 59.4565L181.017 59.3064L181.202 58.2238L179.724 57.9705ZM185.819 22.3851L187.298 22.6383L187.378 22.1678L187.172 21.7372L185.819 22.3851ZM182.423 15.2931L182.486 13.7944L179.992 13.6891L181.07 15.941L182.423 15.2931ZM210.054 16.4603L211.548 16.3283L211.432 15.0172L210.117 14.9617L210.054 16.4603ZM213.942 60.4588L212.447 60.5908L212.538 61.612L213.522 61.8989L213.942 60.4588ZM218.655 61.8323L220.064 62.3463L220.613 60.8406L219.075 60.3922L218.655 61.8323ZM214.588 72.9826L213.179 72.4686L213.061 72.7905L213.095 73.1314L214.588 72.9826ZM199.808 59.8853L199.686 61.3803L201.387 61.5195L201.306 59.8142L199.808 59.8853ZM198.296 28.0207L199.795 27.9496L196.815 27.782L198.296 28.0207ZM193.247 59.3486L191.766 59.11L191.508 60.7114L193.125 60.8436L193.247 59.3486ZM215.534 102.847C215.292 99.8956 215.851 97.3188 216.476 95.4721C216.788 94.5512 217.114 93.8205 217.358 93.3269C217.479 93.0804 217.58 92.894 217.648 92.7735C217.681 92.7133 217.707 92.6697 217.722 92.6434C217.73 92.6302 217.736 92.6214 217.738 92.617C217.74 92.6148 217.74 92.6137 217.74 92.6137C217.74 92.6138 217.74 92.6141 217.74 92.6146C217.74 92.6149 217.739 92.6153 217.739 92.6157C217.739 92.6159 217.739 92.6163 217.739 92.6164C217.738 92.6168 217.738 92.6172 216.465 91.8234C215.193 91.0295 215.192 91.03 215.192 91.0304C215.192 91.0306 215.192 91.0311 215.192 91.0315C215.191 91.0322 215.191 91.033 215.19 91.0338C215.189 91.0356 215.188 91.0376 215.186 91.0399C215.183 91.0445 215.18 91.0503 215.176 91.0573C215.167 91.0712 215.156 91.0897 215.142 91.1127C215.115 91.1589 215.078 91.2231 215.032 91.3048C214.94 91.4682 214.814 91.7015 214.668 91.9988C214.374 92.5928 213.995 93.446 213.635 94.5097C212.916 96.6323 212.26 99.6284 212.544 103.091L215.534 102.847ZM211.488 115.35C211.319 111.714 212.253 108.854 213.22 106.908C213.705 105.934 214.197 105.191 214.56 104.699C214.742 104.453 214.891 104.271 214.99 104.156C215.039 104.098 215.076 104.057 215.098 104.032C215.109 104.02 215.117 104.012 215.12 104.009C215.122 104.007 215.122 104.006 215.122 104.007C215.122 104.007 215.121 104.007 215.121 104.008C215.12 104.008 215.12 104.009 215.119 104.009C215.119 104.01 215.119 104.01 215.119 104.01C215.118 104.011 215.118 104.011 214.039 102.969C212.959 101.927 212.959 101.928 212.958 101.928C212.958 101.929 212.958 101.929 212.957 101.93C212.957 101.93 212.956 101.931 212.955 101.932C212.953 101.934 212.951 101.936 212.949 101.938C212.944 101.943 212.939 101.949 212.932 101.956C212.919 101.971 212.901 101.989 212.88 102.013C212.837 102.059 212.78 102.124 212.709 102.207C212.568 102.372 212.375 102.609 212.149 102.915C211.696 103.527 211.107 104.419 210.534 105.573C209.386 107.882 208.294 111.248 208.491 115.489L211.488 115.35ZM204.777 130.987L211.363 116.024L208.617 114.816L202.031 129.778L204.777 130.987ZM199.2 74.2496L201.906 130.455L204.903 130.31L202.196 74.1054L199.2 74.2496ZM190.94 75.5797L200.683 75.6774L200.713 72.6776L190.97 72.5799L190.94 75.5797ZM187.495 103.838L192.434 74.3274L189.475 73.8322L184.536 103.343L187.495 103.838ZM180.556 108.955L186.837 104.846L185.194 102.336L178.914 106.445L180.556 108.955ZM176.347 115.321C178.416 114.056 179.624 112.186 180.307 110.708C180.652 109.962 180.875 109.29 181.013 108.801C181.082 108.555 181.131 108.353 181.163 108.208C181.179 108.135 181.191 108.076 181.199 108.033C181.203 108.011 181.206 107.993 181.209 107.979C181.21 107.972 181.211 107.966 181.212 107.962C181.212 107.959 181.213 107.957 181.213 107.955C181.213 107.954 181.213 107.953 181.214 107.953C181.214 107.952 181.214 107.952 181.214 107.951C181.214 107.951 181.214 107.95 179.735 107.7C178.256 107.45 178.256 107.45 178.256 107.449C178.256 107.449 178.256 107.449 178.256 107.448C178.256 107.448 178.256 107.447 178.257 107.447C178.257 107.446 178.257 107.445 178.257 107.445C178.257 107.444 178.257 107.444 178.257 107.446C178.256 107.448 178.255 107.454 178.253 107.464C178.25 107.483 178.243 107.517 178.232 107.564C178.212 107.658 178.177 107.803 178.125 107.987C178.021 108.357 177.85 108.875 177.584 109.449C177.046 110.614 176.168 111.914 174.782 112.761L176.347 115.321ZM169.343 129.334C172.588 125.296 174.506 121.578 175.616 118.85C176.171 117.485 176.524 116.368 176.74 115.581C176.848 115.188 176.922 114.877 176.97 114.658C176.994 114.549 177.011 114.463 177.023 114.401C177.029 114.371 177.034 114.346 177.037 114.328C177.039 114.318 177.04 114.311 177.041 114.305C177.042 114.302 177.042 114.299 177.042 114.297C177.043 114.296 177.043 114.295 177.043 114.294C177.043 114.293 177.043 114.293 177.043 114.293C177.043 114.292 177.043 114.291 175.564 114.041C174.085 113.791 174.085 113.791 174.085 113.79C174.086 113.79 174.086 113.79 174.086 113.789C174.086 113.789 174.086 113.788 174.086 113.788C174.086 113.788 174.086 113.787 174.086 113.787C174.086 113.788 174.086 113.79 174.085 113.793C174.084 113.8 174.081 113.813 174.078 113.832C174.07 113.87 174.058 113.932 174.039 114.016C174.002 114.186 173.941 114.446 173.847 114.787C173.66 115.469 173.344 116.473 172.837 117.719C171.823 120.211 170.046 123.67 167.005 127.455L169.343 129.334ZM176.109 70.9944L166.694 128.15L169.654 128.638L179.069 71.482L176.109 70.9944ZM173.309 58.981L176.126 71.5659L179.053 70.9106L176.236 58.3257L173.309 58.981ZM179.519 56.4846L174.568 57.1674L174.977 60.1393L179.928 59.4565L179.519 56.4846ZM184.341 22.1318L178.245 57.7173L181.202 58.2238L187.298 22.6383L184.341 22.1318ZM181.07 15.941L184.466 23.0329L187.172 21.7372L183.776 14.6453L181.07 15.941ZM210.117 14.9617L182.486 13.7944L182.36 16.7918L209.99 17.959L210.117 14.9617ZM215.436 60.3267L211.548 16.3283L208.559 16.5924L212.447 60.5908L215.436 60.3267ZM219.075 60.3922L214.361 59.0187L213.522 61.8989L218.235 63.2724L219.075 60.3922ZM215.997 73.4967L220.064 62.3463L217.246 61.3183L213.179 72.4686L215.997 73.4967ZM217.958 91.6746L216.08 72.8339L213.095 73.1314L214.973 91.9721L217.958 91.6746ZM201.306 59.8142L199.795 27.9496L196.798 28.0918L198.31 59.9564L201.306 59.8142ZM193.125 60.8436L199.686 61.3803L199.93 58.3903L193.37 57.8536L193.125 60.8436ZM196.815 27.782L191.766 59.11L194.728 59.5873L199.777 28.2594L196.815 27.782Z" fill="#221E20"/>
</g>
<g filter="url(#filter4_d_846_63)">
<path d="M254.043 63.6942L228 63.7088L230.425 73.8636L231.052 80.4101L249.522 81.4653L249.893 74.9759L254.043 63.6942Z" fill="#FAFF00"/>
<path d="M228 63.7088L227.999 62.2088L226.1 62.2099L226.541 64.0572L228 63.7088ZM254.043 63.6942L255.451 64.2121L256.194 62.193L254.042 62.1942L254.043 63.6942ZM249.893 74.9759L248.485 74.458L248.408 74.6675L248.395 74.8903L249.893 74.9759ZM249.522 81.4653L249.437 82.9628L250.934 83.0484L251.02 81.5508L249.522 81.4653ZM231.052 80.4101L229.559 80.5532L229.682 81.8342L230.967 81.9076L231.052 80.4101ZM230.425 73.8636L231.918 73.7205L231.908 73.6167L231.884 73.5153L230.425 73.8636ZM228.001 65.2088L254.044 65.1942L254.042 62.1942L227.999 62.2088L228.001 65.2088ZM252.635 63.1763L248.485 74.458L251.301 75.4937L255.451 64.2121L252.635 63.1763ZM248.395 74.8903L248.025 81.3797L251.02 81.5508L251.391 75.0614L248.395 74.8903ZM249.608 79.9677L231.138 78.9125L230.967 81.9076L249.437 82.9628L249.608 79.9677ZM232.546 80.2669L231.918 73.7205L228.932 74.0068L229.559 80.5532L232.546 80.2669ZM231.884 73.5153L229.459 63.3604L226.541 64.0572L228.966 74.212L231.884 73.5153Z" fill="#221E20"/>
</g>
<g filter="url(#filter5_d_846_63)">
<path fill-rule="evenodd" clip-rule="evenodd" d="M265.431 26.3124C264.957 23.0876 264.178 21.314 262.262 18.1759L296.062 17.9439C297.663 21.4268 298.853 22.9374 301.567 24.7404C301.296 35.8577 301.554 42.1109 303.08 53.3098C297.993 54.6105 295.425 55.8688 291.22 58.7206L300.98 68.4506L300.168 91.2889C300.168 91.2889 294.703 93.8755 293.651 98.7745L288.365 103.029C288.365 103.029 285.649 106.47 284.293 114.741C284.293 114.741 271.108 119.329 269.565 128.437L267.955 117.05C267.588 114.305 267.043 112.828 264.996 110.398C263.786 107.242 262.872 105.899 261.046 103.887L265.431 26.3124ZM280.086 35.8555L278.916 53.2537L286.724 49.7614L287.834 34.7606L280.086 35.8555ZM274.043 101.545L278.337 65.6909L286.641 72.9365L286.539 84.803L274.043 101.545Z" fill="#FAFF00"/>
<path d="M262.262 18.1759L262.251 16.6759L259.599 16.6941L260.981 18.9575L262.262 18.1759ZM265.431 26.3124L266.929 26.397L266.938 26.245L266.915 26.0942L265.431 26.3124ZM296.062 17.9439L297.425 17.3174L297.02 16.4373L296.051 16.4439L296.062 17.9439ZM301.567 24.7404L303.066 24.7769L303.087 23.9492L302.397 23.491L301.567 24.7404ZM303.08 53.3098L303.451 54.7631L304.746 54.4319L304.566 53.1074L303.08 53.3098ZM291.22 58.7206L290.378 57.4791L288.874 58.4994L290.161 59.7828L291.22 58.7206ZM300.98 68.4506L302.479 68.5039L302.502 67.8502L302.039 67.3883L300.98 68.4506ZM300.168 91.2889L300.809 92.6447L301.634 92.2543L301.667 91.3422L300.168 91.2889ZM293.651 98.7745L294.591 99.9429L295.006 99.6094L295.117 99.0893L293.651 98.7745ZM288.365 103.029L287.425 101.861L287.293 101.967L287.188 102.1L288.365 103.029ZM284.293 114.741L284.786 116.158L285.629 115.864L285.773 114.984L284.293 114.741ZM269.565 128.437L268.079 128.646L271.044 128.687L269.565 128.437ZM267.955 117.05L266.469 117.249L266.47 117.26L267.955 117.05ZM264.996 110.398L263.595 110.935L263.686 111.172L263.849 111.365L264.996 110.398ZM261.046 103.887L259.548 103.803L259.513 104.43L259.935 104.896L261.046 103.887ZM278.916 53.2537L277.42 53.1531L277.253 55.6412L279.529 54.623L278.916 53.2537ZM280.086 35.8555L279.876 34.3703L278.671 34.5406L278.589 35.7549L280.086 35.8555ZM286.724 49.7614L287.337 51.1307L288.154 50.765L288.22 49.8721L286.724 49.7614ZM287.834 34.7606L289.33 34.8712L289.467 33.0148L287.624 33.2753L287.834 34.7606ZM278.337 65.6909L279.324 64.5606L277.185 62.695L276.848 65.5125L278.337 65.6909ZM274.043 101.545L272.554 101.367L271.886 106.943L275.245 102.442L274.043 101.545ZM286.641 72.9365L288.141 72.9494L288.147 72.2597L287.627 71.8062L286.641 72.9365ZM286.539 84.803L287.741 85.7002L288.035 85.3068L288.039 84.8159L286.539 84.803ZM260.981 18.9575C262.829 21.9839 263.511 23.5653 263.947 26.5305L266.915 26.0942C266.403 22.61 265.526 20.644 263.542 17.3942L260.981 18.9575ZM296.051 16.4439L262.251 16.6759L262.272 19.6758L296.072 19.4439L296.051 16.4439ZM302.397 23.491C301.122 22.6443 300.277 21.9139 299.565 21.0308C298.842 20.1337 298.205 19.0146 297.425 17.3174L294.699 18.5704C295.52 20.3562 296.278 21.7337 297.229 22.9134C298.191 24.1072 299.297 25.0335 300.737 25.9898L302.397 23.491ZM304.566 53.1074C303.052 41.9967 302.797 35.8241 303.066 24.7769L300.067 24.7039C299.795 35.8913 300.055 42.225 301.593 53.5123L304.566 53.1074ZM292.062 59.962C296.141 57.196 298.552 56.0161 303.451 54.7631L302.708 51.8566C297.435 53.205 294.71 54.5417 290.378 57.4791L292.062 59.962ZM302.039 67.3883L292.279 57.6583L290.161 59.7828L299.921 69.5129L302.039 67.3883ZM301.667 91.3422L302.479 68.5039L299.481 68.3973L298.668 91.2356L301.667 91.3422ZM295.117 99.0893C295.544 97.1035 296.892 95.5005 298.269 94.3428C298.945 93.7746 299.594 93.3426 300.072 93.054C300.31 92.9102 300.504 92.8037 300.633 92.735C300.698 92.7007 300.746 92.6759 300.777 92.6608C300.792 92.6533 300.802 92.6482 300.808 92.6455C300.81 92.6441 300.812 92.6434 300.812 92.6433C300.812 92.6432 300.812 92.6433 300.812 92.6436C300.811 92.6437 300.811 92.6438 300.811 92.644C300.81 92.6441 300.81 92.6443 300.81 92.6444C300.81 92.6446 300.809 92.6447 300.168 91.2889C299.526 89.9331 299.525 89.9333 299.525 89.9336C299.525 89.9337 299.524 89.9339 299.524 89.9341C299.523 89.9344 299.522 89.9348 299.521 89.9353C299.519 89.9361 299.517 89.9372 299.515 89.9384C299.51 89.9408 299.503 89.9438 299.496 89.9475C299.481 89.9549 299.46 89.9649 299.435 89.9775C299.385 90.0027 299.315 90.0383 299.228 90.0843C299.055 90.1762 298.813 90.31 298.522 90.4853C297.943 90.8347 297.16 91.3556 296.338 92.0464C294.72 93.4066 292.81 95.5464 292.184 98.4596L295.117 99.0893ZM289.306 104.198L294.591 99.9429L292.71 97.606L287.425 101.861L289.306 104.198ZM285.773 114.984C286.43 110.975 287.411 108.171 288.207 106.397C288.604 105.509 288.957 104.876 289.2 104.478C289.322 104.278 289.416 104.137 289.476 104.052C289.506 104.009 289.527 103.98 289.539 103.965C289.544 103.957 289.548 103.953 289.548 103.952C289.549 103.951 289.548 103.951 289.547 103.953C289.547 103.953 289.546 103.954 289.546 103.955C289.545 103.956 289.545 103.956 289.544 103.957C289.544 103.957 289.544 103.958 289.544 103.958C289.543 103.958 289.543 103.959 288.365 103.029C287.188 102.1 287.188 102.1 287.187 102.101C287.187 102.101 287.187 102.102 287.186 102.102C287.186 102.103 287.185 102.104 287.184 102.105C287.183 102.106 287.181 102.109 287.179 102.111C287.176 102.115 287.172 102.121 287.167 102.127C287.157 102.14 287.145 102.156 287.131 102.175C287.102 102.214 287.063 102.267 287.016 102.335C286.922 102.47 286.794 102.662 286.64 102.914C286.331 103.419 285.92 104.164 285.469 105.17C284.567 107.184 283.511 110.236 282.813 114.498L285.773 114.984ZM271.044 128.687C271.706 124.774 274.93 121.655 278.329 119.428C279.993 118.339 281.618 117.516 282.829 116.966C283.433 116.691 283.931 116.487 284.273 116.352C284.445 116.284 284.577 116.234 284.664 116.202C284.708 116.186 284.741 116.174 284.761 116.166C284.771 116.163 284.779 116.16 284.783 116.159C284.785 116.158 284.786 116.158 284.787 116.157C284.787 116.157 284.787 116.157 284.787 116.157C284.787 116.157 284.787 116.157 284.787 116.157C284.786 116.158 284.786 116.158 284.293 114.741C283.8 113.324 283.8 113.324 283.799 113.325C283.799 113.325 283.798 113.325 283.798 113.325C283.797 113.325 283.796 113.326 283.794 113.326C283.792 113.327 283.788 113.328 283.784 113.33C283.775 113.333 283.764 113.337 283.749 113.342C283.72 113.353 283.678 113.368 283.625 113.388C283.518 113.427 283.366 113.485 283.174 113.56C282.789 113.712 282.244 113.936 281.588 114.234C280.279 114.829 278.511 115.723 276.686 116.919C273.107 119.263 268.966 122.991 268.086 128.186L271.044 128.687ZM266.47 117.26L268.079 128.646L271.05 128.227L269.441 116.84L266.47 117.26ZM263.849 111.365C264.82 112.517 265.369 113.367 265.728 114.199C266.088 115.033 266.293 115.933 266.469 117.249L269.442 116.851C269.251 115.421 269 114.21 268.483 113.012C267.966 111.812 267.219 110.709 266.143 109.432L263.849 111.365ZM259.935 104.896C261.641 106.774 262.454 107.958 263.595 110.935L266.396 109.862C265.118 106.525 264.104 105.024 262.156 102.879L259.935 104.896ZM263.934 26.2277L259.548 103.803L262.543 103.972L266.929 26.397L263.934 26.2277ZM280.413 53.3543L281.582 35.9561L278.589 35.7549L277.42 53.1531L280.413 53.3543ZM286.112 48.3921L278.304 51.8845L279.529 54.623L287.337 51.1307L286.112 48.3921ZM286.338 34.6499L285.228 49.6507L288.22 49.8721L289.33 34.8712L286.338 34.6499ZM280.296 37.3408L288.044 36.2458L287.624 33.2753L279.876 34.3703L280.296 37.3408ZM276.848 65.5125L272.554 101.367L275.533 101.724L279.827 65.8692L276.848 65.5125ZM287.627 71.8062L279.324 64.5606L277.351 66.8211L285.655 74.0667L287.627 71.8062ZM288.039 84.8159L288.141 72.9494L285.141 72.9236L285.039 84.7901L288.039 84.8159ZM275.245 102.442L287.741 85.7002L285.337 83.9058L272.841 100.648L275.245 102.442Z" fill="#221E20"/>
</g>
<g filter="url(#filter6_d_846_63)">
<path fill-rule="evenodd" clip-rule="evenodd" d="M304.665 91.5377C304.665 91.5377 307.354 96.4232 306.48 102.799C306.48 102.799 310.638 107.606 309.843 115.452L315.602 130.752L321.372 74.7786L331.106 75.2128L334.428 104.949L340.474 109.395C340.474 109.395 340.957 113.657 344.293 115.955C344.293 115.955 345.039 122.536 350.888 130.69L344.607 73.1049L348.106 60.6925L343.2 59.7405L339.387 17.5445L310.194 18.0622L313.672 26.3738L308.897 60.3576L305.042 59.6096C305.042 59.6096 302.824 63.543 307.568 72.8275L304.665 91.5377ZM326.289 28.8217L323.04 60.5563L329.621 60.3784L326.289 28.8217Z" fill="#FAFF00"/>
<path d="M306.48 102.799L304.994 102.596L304.902 103.268L305.346 103.781L306.48 102.799ZM304.665 91.5377L303.183 91.3077L303.104 91.8129L303.351 92.2609L304.665 91.5377ZM309.843 115.452L308.351 115.301L308.315 115.651L308.439 115.981L309.843 115.452ZM315.602 130.752L314.198 131.281L317.094 130.906L315.602 130.752ZM321.372 74.7786L321.439 73.2801L320.025 73.2171L319.88 74.6248L321.372 74.7786ZM331.106 75.2128L332.597 75.0463L332.455 73.7715L331.173 73.7143L331.106 75.2128ZM334.428 104.949L332.937 105.116L333.01 105.769L333.539 106.158L334.428 104.949ZM340.474 109.395L341.965 109.226L341.891 108.575L341.363 108.187L340.474 109.395ZM344.293 115.955L345.783 115.786L345.706 115.107L345.144 114.719L344.293 115.955ZM350.888 130.69L349.67 131.564L352.999 136.205L352.38 130.527L350.888 130.69ZM344.607 73.1049L343.163 72.6979L343.084 72.9781L343.115 73.2676L344.607 73.1049ZM348.106 60.6925L349.55 61.0995L349.992 59.5305L348.392 59.2199L348.106 60.6925ZM343.2 59.7405L341.706 59.8755L341.807 60.9983L342.914 61.213L343.2 59.7405ZM339.387 17.5445L340.88 17.4095L340.755 16.02L339.36 16.0447L339.387 17.5445ZM310.194 18.0622L310.167 16.5624L307.957 16.6016L308.81 18.6413L310.194 18.0622ZM313.672 26.3738L315.158 26.5825L315.215 26.1746L315.056 25.7947L313.672 26.3738ZM308.897 60.3576L308.611 61.8301L310.162 62.1311L310.382 60.5663L308.897 60.3576ZM305.042 59.6096L305.327 58.137L304.266 57.9311L303.735 58.8728L305.042 59.6096ZM307.568 72.8275L309.05 73.0575L309.125 72.5775L308.904 72.145L307.568 72.8275ZM323.04 60.5563L321.548 60.4035L321.374 62.1018L323.081 62.0557L323.04 60.5563ZM326.289 28.8217L327.78 28.6642L324.797 28.6689L326.289 28.8217ZM329.621 60.3784L329.661 61.8779L331.283 61.8341L331.112 60.2209L329.621 60.3784ZM307.966 103.003C308.438 99.5606 307.947 96.5332 307.345 94.3745C307.043 93.2927 306.711 92.4201 306.451 91.811C306.32 91.5061 306.208 91.2663 306.125 91.0982C306.084 91.0141 306.05 90.9479 306.025 90.9003C306.012 90.8766 306.002 90.8575 305.995 90.8431C305.991 90.836 305.988 90.83 305.985 90.8252C305.984 90.8228 305.983 90.8207 305.982 90.8189C305.981 90.818 305.981 90.8172 305.98 90.8165C305.98 90.8161 305.98 90.8156 305.98 90.8154C305.979 90.815 305.979 90.8145 304.665 91.5377C303.351 92.2609 303.351 92.2605 303.35 92.26C303.35 92.2599 303.35 92.2595 303.35 92.2593C303.35 92.2589 303.35 92.2585 303.349 92.2582C303.349 92.2576 303.349 92.2573 303.349 92.2573C303.349 92.2573 303.349 92.2584 303.351 92.2607C303.353 92.2652 303.358 92.2743 303.365 92.2879C303.379 92.315 303.402 92.36 303.433 92.4219C303.494 92.5459 303.584 92.7376 303.692 92.9903C303.909 93.4965 304.194 94.2438 304.455 95.1804C304.979 97.0585 305.396 99.6619 304.994 102.596L307.966 103.003ZM311.336 115.604C311.764 111.379 310.858 107.959 309.837 105.59C309.328 104.407 308.789 103.484 308.37 102.848C308.161 102.53 307.981 102.283 307.849 102.11C307.783 102.024 307.729 101.956 307.689 101.907C307.669 101.883 307.653 101.863 307.64 101.848C307.634 101.841 307.629 101.835 307.624 101.83C307.622 101.827 307.62 101.825 307.619 101.823C307.618 101.822 307.617 101.821 307.616 101.82C307.616 101.82 307.615 101.819 307.615 101.819C307.615 101.819 307.614 101.818 306.48 102.799C305.346 103.781 305.345 103.78 305.345 103.78C305.345 103.78 305.344 103.779 305.344 103.779C305.344 103.778 305.343 103.778 305.343 103.778C305.342 103.777 305.342 103.776 305.342 103.776C305.341 103.776 305.342 103.777 305.343 103.778C305.347 103.782 305.353 103.79 305.364 103.803C305.385 103.828 305.419 103.872 305.465 103.932C305.558 104.053 305.696 104.243 305.864 104.498C306.201 105.009 306.652 105.778 307.082 106.777C307.942 108.773 308.718 111.679 308.351 115.301L311.336 115.604ZM317.006 130.224L311.247 114.924L308.439 115.981L314.198 131.281L317.006 130.224ZM319.88 74.6248L314.11 130.598L317.094 130.906L322.864 74.9324L319.88 74.6248ZM331.173 73.7143L321.439 73.2801L321.305 76.2771L331.039 76.7113L331.173 73.7143ZM335.918 104.783L332.597 75.0463L329.615 75.3793L332.937 105.116L335.918 104.783ZM341.363 108.187L335.316 103.741L333.539 106.158L339.586 110.604L341.363 108.187ZM345.144 114.719C343.806 113.798 343 112.451 342.527 111.259C342.293 110.671 342.149 110.144 342.066 109.77C342.024 109.583 341.997 109.437 341.982 109.342C341.974 109.294 341.969 109.26 341.967 109.24C341.965 109.23 341.964 109.224 341.964 109.222C341.964 109.221 341.964 109.22 341.964 109.221C341.964 109.222 341.964 109.222 341.964 109.223C341.964 109.223 341.964 109.224 341.964 109.225C341.964 109.225 341.965 109.225 341.965 109.225C341.965 109.226 341.965 109.226 340.474 109.395C338.984 109.564 338.984 109.565 338.984 109.565C338.984 109.566 338.984 109.566 338.984 109.567C338.984 109.567 338.984 109.568 338.984 109.569C338.985 109.571 338.985 109.573 338.985 109.576C338.986 109.581 338.986 109.587 338.987 109.594C338.989 109.608 338.991 109.626 338.994 109.647C339 109.691 339.009 109.751 339.021 109.824C339.045 109.971 339.082 110.176 339.138 110.425C339.249 110.921 339.435 111.603 339.739 112.368C340.34 113.881 341.444 115.814 343.442 117.19L345.144 114.719ZM352.107 129.815C349.277 125.87 347.691 122.32 346.815 119.776C346.377 118.504 346.116 117.484 345.967 116.793C345.892 116.447 345.844 116.184 345.817 116.013C345.803 115.927 345.794 115.865 345.788 115.827C345.786 115.807 345.784 115.794 345.783 115.787C345.783 115.784 345.783 115.782 345.783 115.782C345.783 115.782 345.783 115.782 345.783 115.783C345.783 115.783 345.783 115.783 345.783 115.784C345.783 115.784 345.783 115.785 345.783 115.785C345.783 115.785 345.783 115.786 344.293 115.955C342.802 116.124 342.802 116.124 342.802 116.125C342.802 116.125 342.802 116.126 342.802 116.126C342.803 116.127 342.803 116.128 342.803 116.129C342.803 116.131 342.803 116.134 342.804 116.137C342.804 116.143 342.805 116.151 342.807 116.16C342.809 116.179 342.812 116.204 342.816 116.235C342.825 116.297 342.838 116.384 342.856 116.494C342.891 116.715 342.948 117.029 343.035 117.428C343.208 118.226 343.499 119.361 343.979 120.753C344.938 123.538 346.65 127.355 349.67 131.564L352.107 129.815ZM343.115 73.2676L349.397 130.852L352.38 130.527L346.098 72.9422L343.115 73.2676ZM346.662 60.2854L343.163 72.6979L346.05 73.5119L349.55 61.0995L346.662 60.2854ZM342.914 61.213L347.82 62.165L348.392 59.2199L343.485 58.2679L342.914 61.213ZM337.893 17.6795L341.706 59.8755L344.693 59.6055L340.88 17.4095L337.893 17.6795ZM310.221 19.562L339.413 19.0442L339.36 16.0447L310.167 16.5624L310.221 19.562ZM315.056 25.7947L311.578 17.4831L308.81 18.6413L312.289 26.9529L315.056 25.7947ZM310.382 60.5663L315.158 26.5825L312.187 26.165L307.411 60.1488L310.382 60.5663ZM304.756 61.0821L308.611 61.8301L309.182 58.885L305.327 58.137L304.756 61.0821ZM308.904 72.145C306.613 67.6628 306.059 64.5817 306.026 62.7099C306.009 61.7731 306.122 61.1276 306.221 60.7472C306.271 60.5563 306.317 60.4296 306.344 60.3643C306.358 60.3315 306.366 60.3139 306.367 60.311C306.368 60.3096 306.367 60.3119 306.364 60.3178C306.362 60.3207 306.36 60.3246 306.358 60.3293C306.356 60.3317 306.355 60.3343 306.353 60.3371C306.353 60.3385 306.352 60.34 306.351 60.3415C306.351 60.3423 306.35 60.3435 306.35 60.3439C306.349 60.3451 306.348 60.3463 305.042 59.6096C303.735 58.8728 303.734 58.8741 303.734 58.8753C303.733 58.8758 303.733 58.8771 303.732 58.8779C303.731 58.8797 303.73 58.8815 303.729 58.8834C303.727 58.8872 303.725 58.8913 303.722 58.8956C303.718 58.9042 303.713 58.9138 303.707 58.9245C303.696 58.9458 303.683 58.9713 303.669 59.0009C303.64 59.0603 303.605 59.1362 303.567 59.2291C303.491 59.4151 303.402 59.6684 303.318 59.9913C303.149 60.6385 303.004 61.5566 303.026 62.7638C303.069 65.1798 303.778 68.7077 306.232 73.51L308.904 72.145ZM306.147 91.7677L309.05 73.0575L306.086 72.5975L303.183 91.3077L306.147 91.7677ZM324.533 60.709L327.781 28.9744L324.797 28.6689L321.548 60.4035L324.533 60.709ZM329.58 58.879L323 59.0568L323.081 62.0557L329.661 61.8779L329.58 58.879ZM324.797 28.9792L328.129 60.5359L331.112 60.2209L327.78 28.6642L324.797 28.9792Z" fill="#221E20"/>
</g>
<g filter="url(#filter7_d_846_63)">
<path d="M391.775 15.4698L344.688 17.5331C346.669 19.4494 347.517 20.8628 348.377 24.2636C350.659 26.4248 351.062 27.8011 351.359 30.336L354.509 102.221C356.788 103.375 357.96 104.341 359.801 106.814L360.449 121.604C361.845 122.637 362.573 123.26 363.633 124.566L363.935 131.445C366.334 127.206 368.057 125.226 372.027 122.475L380.157 122.119C384.154 111.353 387.329 105.937 393.638 96.7161L391.528 48.5631L374.252 49.3202C374.781 50.8782 374.828 51.7811 374.433 53.4476C377.473 54.63 378.478 55.4348 379.341 57.0232L380.818 90.7302L368.684 108.148L365.157 27.6637L374.642 27.248L382.336 32.4247L386.55 38.6096C386.959 36.0133 387.522 35.0505 388.863 34.2063C388.797 31.8055 389.187 30.5687 390.654 28.6141C390.685 25.6997 390.979 24.312 392.076 22.3488L391.775 15.4698Z" fill="#FAFF00"/>
<path d="M344.688 17.5331L344.623 16.0345L341.141 16.1871L343.645 18.611L344.688 17.5331ZM391.775 15.4698L393.274 15.4041L393.208 13.9056L391.709 13.9712L391.775 15.4698ZM392.076 22.3488L393.386 23.0809L393.594 22.7089L393.575 22.2831L392.076 22.3488ZM390.654 28.6141L391.854 29.5146L392.149 29.1214L392.154 28.6299L390.654 28.6141ZM388.863 34.2063L389.662 35.4757L390.386 35.0201L390.362 34.1651L388.863 34.2063ZM386.55 38.6096L385.31 39.4542L387.441 42.5825L388.031 38.8434L386.55 38.6096ZM382.336 32.4247L383.576 31.5801L383.413 31.3414L383.173 31.1801L382.336 32.4247ZM374.642 27.248L375.48 26.0035L375.07 25.7279L374.577 25.7495L374.642 27.248ZM365.157 27.6637L365.091 26.1651L363.593 26.2308L363.659 27.7293L365.157 27.6637ZM368.684 108.148L367.185 108.213L367.379 112.644L369.915 109.005L368.684 108.148ZM380.818 90.7302L382.049 91.5877L382.339 91.1714L382.317 90.6646L380.818 90.7302ZM379.341 57.0232L380.84 56.9575L380.824 56.6116L380.659 56.3073L379.341 57.0232ZM374.433 53.4476L372.973 53.1011L372.671 54.372L373.889 54.8455L374.433 53.4476ZM374.252 49.3202L374.186 47.8216L372.188 47.9092L372.832 49.8029L374.252 49.3202ZM391.528 48.5631L393.027 48.4975L392.961 46.9989L391.462 47.0646L391.528 48.5631ZM393.638 96.7161L394.876 97.5631L395.159 97.1502L395.137 96.6504L393.638 96.7161ZM380.157 122.119L380.223 123.617L381.217 123.574L381.563 122.641L380.157 122.119ZM372.027 122.475L371.961 120.976L371.529 120.995L371.173 121.242L372.027 122.475ZM363.935 131.445L362.436 131.51L362.665 136.734L365.24 132.184L363.935 131.445ZM363.633 124.566L365.132 124.5L365.11 124.005L364.798 123.62L363.633 124.566ZM360.449 121.604L358.95 121.67L358.982 122.384L359.556 122.809L360.449 121.604ZM359.801 106.814L361.299 106.748L361.279 106.288L361.004 105.918L359.801 106.814ZM354.509 102.221L353.01 102.287L353.048 103.164L353.831 103.56L354.509 102.221ZM351.359 30.336L352.857 30.2703L352.855 30.2159L352.848 30.1618L351.359 30.336ZM348.377 24.2636L346.923 24.6316L347.03 25.0535L347.346 25.3527L348.377 24.2636ZM344.754 19.0316L391.841 16.9683L391.709 13.9712L344.623 16.0345L344.754 19.0316ZM390.276 15.5354L390.578 22.4144L393.575 22.2831L393.274 15.4041L390.276 15.5354ZM390.767 21.6166C390.167 22.6899 389.755 23.6642 389.501 24.7965C389.253 25.906 389.17 27.1045 389.154 28.5983L392.154 28.6299C392.169 27.2092 392.248 26.2567 392.429 25.453C392.604 24.672 392.888 23.9709 393.386 23.0809L390.767 21.6166ZM389.454 27.7136C388.671 28.7575 388.099 29.7086 387.755 30.7864C387.41 31.8652 387.328 32.9628 387.363 34.2475L390.362 34.1651C390.331 33.049 390.412 32.3278 390.612 31.6993C390.813 31.0698 391.17 30.4252 391.854 29.5146L389.454 27.7136ZM388.063 32.9369C387.231 33.461 386.546 34.0889 386.035 35.0424C385.554 35.9388 385.28 37.0292 385.068 38.3758L388.031 38.8434C388.228 37.5938 388.44 36.9046 388.679 36.4594C388.887 36.0714 389.153 35.7958 389.662 35.4757L388.063 32.9369ZM387.789 37.7651L383.576 31.5801L381.096 33.2692L385.31 39.4542L387.789 37.7651ZM383.173 31.1801L375.48 26.0035L373.805 28.4926L381.499 33.6692L383.173 31.1801ZM374.577 25.7495L365.091 26.1651L365.223 29.1622L374.708 28.7466L374.577 25.7495ZM363.659 27.7293L367.185 108.213L370.182 108.082L366.656 27.598L363.659 27.7293ZM369.915 109.005L382.049 91.5877L379.587 89.8728L367.453 107.29L369.915 109.005ZM382.317 90.6646L380.84 56.9575L377.842 57.0889L379.319 90.7959L382.317 90.6646ZM380.659 56.3073C380.147 55.3647 379.547 54.5822 378.596 53.8778C377.692 53.2081 376.529 52.6535 374.976 52.0496L373.889 54.8455C375.376 55.4241 376.236 55.8631 376.81 56.2885C377.338 56.6791 377.672 57.0933 378.023 57.7391L380.659 56.3073ZM375.892 53.794C376.106 52.8918 376.225 52.0983 376.188 51.2754C376.15 50.4504 375.96 49.6858 375.672 48.8374L372.832 49.8029C373.073 50.5126 373.171 50.9785 373.191 51.411C373.21 51.8456 373.155 52.3369 372.973 53.1011L375.892 53.794ZM374.317 50.8187L391.594 50.0617L391.462 47.0646L374.186 47.8216L374.317 50.8187ZM390.03 48.6288L392.14 96.7817L395.137 96.6504L393.027 48.4975L390.03 48.6288ZM392.4 95.869C386.043 105.16 382.802 110.685 378.751 121.597L381.563 122.641C385.506 112.021 388.614 106.715 394.876 97.5631L392.4 95.869ZM380.091 120.62L371.961 120.976L372.093 123.974L380.223 123.617L380.091 120.62ZM371.173 121.242C369.132 122.656 367.607 123.915 366.275 125.401C364.945 126.884 363.854 128.543 362.629 130.706L365.24 132.184C366.415 130.108 367.384 128.658 368.508 127.403C369.63 126.152 370.952 125.045 372.881 123.708L371.173 121.242ZM365.433 131.379L365.132 124.5L362.135 124.631L362.436 131.51L365.433 131.379ZM364.798 123.62C363.633 122.186 362.801 121.479 361.342 120.398L359.556 122.809C360.889 123.796 361.512 124.334 362.469 125.511L364.798 123.62ZM361.948 121.538L361.299 106.748L358.302 106.88L358.95 121.67L361.948 121.538ZM361.004 105.918C360.051 104.638 359.223 103.682 358.297 102.885C357.364 102.083 356.386 101.49 355.186 100.883L353.831 103.56C354.91 104.106 355.658 104.572 356.341 105.16C357.031 105.754 357.709 106.516 358.598 107.71L361.004 105.918ZM356.007 102.156L352.857 30.2703L349.86 30.4016L353.01 102.287L356.007 102.156ZM352.848 30.1618C352.697 28.8654 352.503 27.6931 351.978 26.5392C351.448 25.3713 350.632 24.3333 349.409 23.1745L347.346 25.3527C348.404 26.3551 348.932 27.0859 349.247 27.7801C349.569 28.4884 349.724 29.2717 349.869 30.5101L352.848 30.1618ZM349.831 23.8956C349.387 22.1375 348.921 20.7922 348.263 19.6117C347.598 18.4184 346.78 17.4701 345.732 16.4552L343.645 18.611C344.577 19.5124 345.173 20.229 345.642 21.0717C346.119 21.9272 346.507 22.989 346.923 24.6316L349.831 23.8956Z" fill="#221E20"/>
</g>
<g filter="url(#filter8_d_846_63)">
<path d="M414.179 13.8911L393.738 15.2589C395.262 16.669 395.763 17.5232 396.375 19.0952L396.598 22.4243C400.242 23.5181 402.102 29.0784 402.102 29.0784L403.372 48.0541C401.928 49.637 400.825 50.259 398.514 51.0543L400.877 55.2434C403.995 57.3755 404.218 60.7046 404.218 60.7046L407.003 102.318C409.745 104.073 411.253 105.328 413.714 109.226L414.249 117.215C418.266 119.198 419.577 120.451 421.463 122.752L417.253 59.8323L438.287 58.4249L441.071 100.038C445.137 104.585 446.762 107.824 448.317 114.936C451.114 117.299 452.534 119.071 454.318 124.566L455.235 120.492L447.951 11.6313L428.399 12.9396C429.789 14.1121 430.371 14.943 431.036 16.7759L431.259 20.105C434.067 22.8638 434.976 24.3011 436.17 26.7987L437.44 45.7744L416.407 47.1818L414.179 13.8911Z" fill="#FAFF00"/>
<path d="M414.179 13.8911L415.676 13.791L415.575 12.2943L414.079 12.3945L414.179 13.8911ZM416.407 47.1818L414.91 47.282L415.01 48.7786L416.507 48.6785L416.407 47.1818ZM437.44 45.7744L437.54 47.271L439.037 47.1709L438.937 45.6742L437.44 45.7744ZM436.17 26.7987L437.667 26.6985L437.648 26.4112L437.523 26.1514L436.17 26.7987ZM431.259 20.105L429.762 20.2051L429.8 20.7749L430.208 21.1751L431.259 20.105ZM431.036 16.7759L432.533 16.6758L432.519 16.4639L432.446 16.2644L431.036 16.7759ZM428.399 12.9396L428.299 11.443L424.591 11.691L427.432 14.0863L428.399 12.9396ZM447.951 11.6313L449.448 11.5311L449.348 10.0345L447.851 10.1346L447.951 11.6313ZM455.235 120.492L456.699 120.822L456.747 120.609L456.732 120.392L455.235 120.492ZM454.318 124.566L452.891 125.029L454.579 130.231L455.781 124.896L454.318 124.566ZM448.317 114.936L446.852 115.256L446.96 115.753L447.349 116.081L448.317 114.936ZM441.071 100.038L439.575 100.138L439.609 100.653L439.953 101.038L441.071 100.038ZM438.287 58.4249L439.783 58.3247L439.683 56.8281L438.186 56.9282L438.287 58.4249ZM417.253 59.8323L417.153 58.3357L415.656 58.4358L415.756 59.9325L417.253 59.8323ZM421.463 122.752L420.303 123.703L423.273 127.324L422.96 122.652L421.463 122.752ZM414.249 117.215L412.752 117.316L412.81 118.178L413.585 118.561L414.249 117.215ZM413.714 109.226L415.211 109.125L415.185 108.746L414.982 108.425L413.714 109.226ZM407.003 102.318L405.506 102.418L405.557 103.173L406.194 103.581L407.003 102.318ZM404.218 60.7046L405.715 60.6044L405.715 60.6044L404.218 60.7046ZM400.877 55.2434L399.571 55.9804L399.742 56.2845L400.03 56.4816L400.877 55.2434ZM398.514 51.0543L398.026 49.6359L396.322 50.2222L397.207 51.7914L398.514 51.0543ZM403.372 48.0541L404.48 49.0651L404.911 48.5924L404.868 47.9539L403.372 48.0541ZM402.102 29.0784L403.599 28.9782L403.586 28.7856L403.524 28.6025L402.102 29.0784ZM396.598 22.4243L395.101 22.5244L395.171 23.562L396.167 23.861L396.598 22.4243ZM396.375 19.0952L397.872 18.9951L397.856 18.7656L397.773 18.5513L396.375 19.0952ZM393.738 15.2589L393.638 13.7623L390.163 13.9948L392.719 16.3599L393.738 15.2589ZM412.682 13.9913L414.91 47.282L417.903 47.0817L415.676 13.791L412.682 13.9913ZM416.507 48.6785L437.54 47.271L437.34 44.2777L416.306 45.6852L416.507 48.6785ZM438.937 45.6742L437.667 26.6985L434.674 26.8988L435.943 45.8745L438.937 45.6742ZM437.523 26.1514C436.253 23.4946 435.242 21.9146 432.31 19.0349L430.208 21.1751C432.893 23.813 433.699 25.1076 434.817 27.446L437.523 26.1514ZM432.756 20.0048L432.533 16.6758L429.539 16.876L429.762 20.2051L432.756 20.0048ZM432.446 16.2644C432.092 15.2879 431.729 14.4895 431.224 13.7584C430.718 13.0238 430.116 12.4252 429.366 11.7929L427.432 14.0863C428.072 14.6265 428.457 15.0296 428.755 15.4618C429.055 15.8975 429.315 16.4311 429.626 17.2874L432.446 16.2644ZM428.499 14.4363L448.051 13.1279L447.851 10.1346L428.299 11.443L428.499 14.4363ZM446.454 11.7314L453.739 120.592L456.732 120.392L449.448 11.5311L446.454 11.7314ZM453.772 120.162L452.854 124.236L455.781 124.896L456.699 120.822L453.772 120.162ZM455.745 124.103C454.835 121.3 453.985 119.342 452.955 117.758C451.912 116.157 450.733 115.013 449.285 113.79L447.349 116.081C448.698 117.221 449.627 118.146 450.44 119.395C451.265 120.662 452.017 122.337 452.891 125.029L455.745 124.103ZM442.568 99.9381L439.783 58.3247L436.79 58.525L439.575 100.138L442.568 99.9381ZM438.186 56.9282L417.153 58.3357L417.353 61.329L438.387 59.9215L438.186 56.9282ZM415.756 59.9325L419.967 122.852L422.96 122.652L418.75 59.7322L415.756 59.9325ZM422.623 121.801C421.656 120.622 420.778 119.638 419.59 118.691C418.407 117.75 416.971 116.886 414.913 115.87L413.585 118.561C415.544 119.527 416.771 120.282 417.721 121.038C418.663 121.788 419.384 122.581 420.303 123.703L422.623 121.801ZM415.745 117.115L415.211 109.125L412.217 109.326L412.752 117.316L415.745 117.115ZM414.982 108.425C413.719 106.423 412.658 105.033 411.521 103.904C410.381 102.771 409.213 101.951 407.811 101.054L406.194 103.581C407.535 104.44 408.493 105.124 409.407 106.032C410.325 106.944 411.248 108.13 412.446 110.026L414.982 108.425ZM408.499 102.218L405.715 60.6044L402.722 60.8047L405.506 102.418L408.499 102.218ZM404.218 60.7046C405.715 60.6044 405.715 60.6037 405.715 60.6031C405.715 60.6028 405.715 60.6021 405.715 60.6016C405.715 60.6007 405.715 60.5996 405.714 60.5986C405.714 60.5964 405.714 60.594 405.714 60.5915C405.714 60.5863 405.713 60.5803 405.713 60.5736C405.711 60.56 405.71 60.5431 405.708 60.5232C405.704 60.4833 405.699 60.4308 405.69 60.3669C405.674 60.2393 405.648 60.0655 405.605 59.8547C405.52 59.4345 405.371 58.86 405.107 58.2099C404.579 56.9075 403.582 55.2757 401.724 54.0051L400.03 56.4816C401.291 57.3432 401.964 58.4419 402.327 59.3371C402.509 59.7857 402.61 60.1768 402.664 60.4474C402.691 60.5821 402.707 60.685 402.715 60.7478C402.719 60.7791 402.721 60.8002 402.722 60.8101C402.722 60.8151 402.722 60.8172 402.722 60.8163C402.722 60.8159 402.722 60.8147 402.722 60.8128C402.722 60.8118 402.722 60.8107 402.722 60.8093C402.722 60.8087 402.722 60.8079 402.722 60.8072C402.722 60.8068 402.722 60.8062 402.722 60.806C402.722 60.8054 402.722 60.8047 404.218 60.7046ZM397.207 51.7914L399.571 55.9804L402.183 54.5063L399.82 50.3173L397.207 51.7914ZM399.002 52.4727C400.192 52.0631 401.165 51.6675 402.047 51.1314C402.946 50.5853 403.69 49.9309 404.48 49.0651L402.264 47.0431C401.609 47.7602 401.081 48.2081 400.489 48.5677C399.881 48.9371 399.147 49.2502 398.026 49.6359L399.002 52.4727ZM404.868 47.9539L403.599 28.9782L400.605 29.1785L401.875 48.1542L404.868 47.9539ZM402.102 29.0784C403.524 28.6025 403.524 28.6021 403.524 28.6017C403.524 28.6016 403.524 28.6011 403.524 28.6008C403.524 28.6001 403.523 28.5994 403.523 28.5985C403.523 28.5969 403.522 28.5949 403.521 28.5925C403.52 28.5878 403.517 28.5818 403.515 28.5745C403.51 28.5598 403.503 28.5399 403.494 28.5151C403.477 28.4654 403.452 28.396 403.419 28.3093C403.354 28.1362 403.258 27.8931 403.133 27.6003C402.882 27.0174 402.506 26.2239 402.001 25.387C401.037 23.7877 399.411 21.7026 397.029 20.9876L396.167 23.861C397.429 24.2398 398.555 25.4817 399.432 26.936C399.848 27.6259 400.164 28.2908 400.376 28.7846C400.482 29.0302 400.56 29.2301 400.611 29.3653C400.636 29.4328 400.655 29.4839 400.666 29.5162C400.672 29.5324 400.676 29.5439 400.678 29.5503C400.679 29.5535 400.68 29.5555 400.68 29.5561C400.68 29.5565 400.68 29.5565 400.68 29.5561C400.68 29.556 400.68 29.5557 400.68 29.5554C400.68 29.5553 400.68 29.555 400.68 29.5549C400.68 29.5545 400.679 29.5542 402.102 29.0784ZM394.879 19.1954L395.101 22.5244L398.095 22.3242L397.872 18.9951L394.879 19.1954ZM397.773 18.5513C397.451 17.7237 397.126 17.0009 396.645 16.2821C396.165 15.564 395.568 14.9087 394.757 14.1579L392.719 16.3599C393.432 17.0192 393.848 17.496 394.152 17.9506C394.456 18.4044 394.688 18.8946 394.977 19.6392L397.773 18.5513ZM439.953 101.038C441.931 103.25 443.26 105.082 444.288 107.184C445.322 109.297 446.086 111.754 446.852 115.256L449.782 114.615C448.993 111.006 448.167 108.287 446.983 105.866C445.793 103.434 444.277 101.373 442.189 99.0384L439.953 101.038ZM393.838 16.7556L414.279 15.3878L414.079 12.3945L393.638 13.7623L393.838 16.7556Z" fill="#221E20"/>
</g>
<g filter="url(#filter9_d_846_63)">
<path fill-rule="evenodd" clip-rule="evenodd" d="M457.066 84.8279C457.066 84.8279 460.008 89.5651 459.471 95.9785C459.471 95.9785 463.876 100.56 463.495 108.437L470.051 123.413L472.868 67.213L482.611 67.1345L487.493 96.6551L493.765 100.777C493.765 100.777 494.472 105.007 497.923 107.126C497.923 107.126 499.014 113.659 505.285 121.494L495.982 64.3193L498.824 51.7399L493.874 51.0474L487.846 9.1104L458.722 11.1632L462.632 19.2803L459.651 53.4683L455.762 52.9241C455.762 52.9241 453.754 56.9688 458.98 65.9909L457.066 84.8279ZM475.36 21.0611L473.786 52.9226L480.348 52.3988L475.36 21.0611Z" fill="#FAFF00"/>
<path d="M459.471 95.9785L457.976 95.8533L457.919 96.5292L458.389 97.0181L459.471 95.9785ZM457.066 84.8279L455.573 84.6762L455.522 85.1848L455.791 85.6192L457.066 84.8279ZM463.495 108.437L461.997 108.365L461.98 108.716L462.121 109.039L463.495 108.437ZM470.051 123.413L468.677 124.014L471.549 123.488L470.051 123.413ZM472.868 67.213L472.856 65.7131L471.441 65.7245L471.37 67.138L472.868 67.213ZM482.611 67.1345L484.091 66.8898L483.882 65.6242L482.599 65.6346L482.611 67.1345ZM487.493 96.6551L486.013 96.8998L486.12 97.5479L486.669 97.9086L487.493 96.6551ZM493.765 100.777L495.244 100.53L495.136 99.8833L494.589 99.5234L493.765 100.777ZM497.923 107.126L499.403 106.879L499.29 106.205L498.708 105.848L497.923 107.126ZM505.285 121.494L504.114 122.431L507.683 126.89L506.765 121.253L505.285 121.494ZM495.982 64.3193L494.519 63.9888L494.455 64.2728L494.502 64.5602L495.982 64.3193ZM498.824 51.7399L500.287 52.0704L500.646 50.4803L499.032 50.2544L498.824 51.7399ZM493.874 51.0474L492.389 51.2608L492.55 52.3767L493.666 52.5329L493.874 51.0474ZM487.846 9.1104L489.331 8.89699L489.133 7.51602L487.741 7.61411L487.846 9.1104ZM458.722 11.1632L458.616 9.66694L456.411 9.82239L457.37 11.8143L458.722 11.1632ZM462.632 19.2803L464.127 19.4106L464.163 19.0003L463.984 18.6292L462.632 19.2803ZM459.651 53.4683L459.443 54.9538L461.008 55.1728L461.146 53.5986L459.651 53.4683ZM455.762 52.9241L455.97 51.4386L454.899 51.2888L454.419 52.2572L455.762 52.9241ZM458.98 65.9909L460.473 66.1426L460.522 65.6593L460.278 65.239L458.98 65.9909ZM473.786 52.9226L472.288 52.8486L472.203 54.5537L473.905 54.4179L473.786 52.9226ZM475.36 21.0611L476.841 20.8253L473.862 20.987L475.36 21.0611ZM480.348 52.3988L480.467 53.8941L482.084 53.765L481.829 52.1631L480.348 52.3988ZM460.965 96.1036C461.255 92.6412 460.606 89.6438 459.891 87.5197C459.533 86.4553 459.155 85.6014 458.863 85.0069C458.717 84.7093 458.592 84.4757 458.5 84.3122C458.455 84.2304 458.417 84.166 458.39 84.1199C458.377 84.0968 458.365 84.0782 458.357 84.0643C458.353 84.0573 458.349 84.0515 458.346 84.0469C458.345 84.0446 458.344 84.0426 458.343 84.0408C458.342 84.04 458.342 84.0392 458.341 84.0385C458.341 84.0381 458.341 84.0376 458.341 84.0374C458.34 84.037 458.34 84.0365 457.066 84.8279C455.791 85.6192 455.791 85.6188 455.791 85.6184C455.791 85.6183 455.791 85.6179 455.791 85.6177C455.79 85.6173 455.79 85.6169 455.79 85.6166C455.789 85.616 455.789 85.6157 455.789 85.6157C455.789 85.6157 455.79 85.6168 455.791 85.619C455.794 85.6234 455.799 85.6322 455.807 85.6454C455.823 85.6717 455.848 85.7154 455.882 85.7757C455.949 85.8963 456.049 86.0829 456.171 86.3297C456.413 86.8237 456.738 87.555 457.048 88.4766C457.67 90.3245 458.223 92.9024 457.976 95.8533L460.965 96.1036ZM464.993 108.51C465.198 104.269 464.114 100.901 462.97 98.5888C462.399 97.4341 461.812 96.5405 461.361 95.9278C461.135 95.6212 460.942 95.3839 460.802 95.2185C460.731 95.1358 460.674 95.0709 460.631 95.0242C460.61 95.0009 460.593 94.982 460.579 94.9678C460.573 94.9607 460.567 94.9547 460.562 94.9498C460.56 94.9474 460.558 94.9453 460.556 94.9435C460.556 94.9425 460.555 94.9417 460.554 94.9409C460.554 94.9405 460.553 94.94 460.553 94.9398C460.552 94.9393 460.552 94.9388 459.471 95.9785C458.389 97.0181 458.389 97.0177 458.389 97.0172C458.388 97.0171 458.388 97.0167 458.388 97.0164C458.387 97.0159 458.387 97.0155 458.387 97.0151C458.386 97.0144 458.385 97.014 458.385 97.0138C458.385 97.0134 458.386 97.0141 458.387 97.0159C458.391 97.0195 458.398 97.0273 458.409 97.0395C458.431 97.0637 458.468 97.105 458.517 97.1629C458.616 97.2788 458.764 97.4611 458.945 97.707C459.308 98.1996 459.799 98.9437 460.281 99.919C461.245 101.867 462.173 104.729 461.997 108.365L464.993 108.51ZM471.425 122.811L464.869 107.836L462.121 109.039L468.677 124.014L471.425 122.811ZM471.37 67.138L468.553 123.338L471.549 123.488L474.366 67.2881L471.37 67.138ZM482.599 65.6346L472.856 65.7131L472.88 68.713L482.624 68.6345L482.599 65.6346ZM488.973 96.4104L484.091 66.8898L481.132 67.3792L486.013 96.8998L488.973 96.4104ZM494.589 99.5234L488.316 95.4015L486.669 97.9086L492.941 102.03L494.589 99.5234ZM498.708 105.848C497.323 104.998 496.448 103.696 495.913 102.53C495.648 101.955 495.477 101.437 495.374 101.067C495.322 100.883 495.288 100.738 495.268 100.644C495.257 100.597 495.251 100.563 495.247 100.543C495.245 100.534 495.244 100.527 495.244 100.525C495.243 100.524 495.243 100.524 495.243 100.525C495.244 100.525 495.244 100.526 495.244 100.526C495.244 100.527 495.244 100.527 495.244 100.528C495.244 100.528 495.244 100.529 495.244 100.529C495.244 100.529 495.244 100.53 493.765 100.777C492.285 101.024 492.285 101.025 492.286 101.025C492.286 101.025 492.286 101.026 492.286 101.026C492.286 101.027 492.286 101.028 492.286 101.029C492.287 101.031 492.287 101.033 492.287 101.035C492.288 101.04 492.289 101.046 492.29 101.053C492.293 101.067 492.296 101.085 492.3 101.106C492.309 101.15 492.32 101.209 492.336 101.282C492.368 101.427 492.416 101.629 492.485 101.875C492.622 102.365 492.843 103.037 493.187 103.784C493.867 105.263 495.071 107.136 497.138 108.405L498.708 105.848ZM506.456 120.556C503.422 116.766 501.652 113.304 500.643 110.81C500.139 109.562 499.825 108.557 499.639 107.875C499.546 107.534 499.485 107.274 499.448 107.104C499.43 107.019 499.417 106.957 499.41 106.92C499.406 106.901 499.404 106.888 499.403 106.881C499.402 106.877 499.402 106.876 499.402 106.875C499.402 106.875 499.402 106.875 499.402 106.876C499.402 106.876 499.402 106.877 499.402 106.877C499.402 106.878 499.402 106.878 499.402 106.878C499.402 106.879 499.403 106.879 497.923 107.126C496.444 107.373 496.444 107.374 496.444 107.375C496.444 107.375 496.444 107.375 496.444 107.376C496.444 107.377 496.444 107.378 496.444 107.379C496.445 107.381 496.445 107.384 496.446 107.387C496.447 107.393 496.448 107.4 496.45 107.41C496.453 107.428 496.458 107.453 496.464 107.484C496.475 107.545 496.493 107.631 496.516 107.74C496.564 107.959 496.637 108.27 496.744 108.664C496.959 109.451 497.31 110.569 497.862 111.934C498.967 114.665 500.877 118.387 504.114 122.431L506.456 120.556ZM494.502 64.5602L503.804 121.735L506.765 121.253L497.463 64.0784L494.502 64.5602ZM497.361 51.4094L494.519 63.9888L497.445 64.6498L500.287 52.0704L497.361 51.4094ZM493.666 52.5329L498.616 53.2255L499.032 50.2544L494.082 49.5618L493.666 52.5329ZM486.362 9.3238L492.389 51.2608L495.359 50.834L489.331 8.89699L486.362 9.3238ZM458.827 12.6595L487.952 10.6067L487.741 7.61411L458.616 9.66694L458.827 12.6595ZM463.984 18.6292L460.073 10.5121L457.37 11.8143L461.281 19.9314L463.984 18.6292ZM461.146 53.5986L464.127 19.4106L461.138 19.15L458.157 53.338L461.146 53.5986ZM455.554 54.4096L459.443 54.9538L459.859 51.9827L455.97 51.4386L455.554 54.4096ZM460.278 65.239C457.755 60.8835 457.04 57.8359 456.908 55.9684C456.842 55.0338 456.921 54.3832 457 53.9981C457.039 53.8049 457.079 53.676 457.103 53.6093C457.114 53.5758 457.122 53.5578 457.123 53.5549C457.124 53.5534 457.123 53.5557 457.12 53.5618C457.118 53.5648 457.117 53.5688 457.114 53.5736C457.113 53.5761 457.112 53.5788 457.11 53.5817C457.11 53.5831 457.109 53.5846 457.108 53.5862C457.108 53.587 457.107 53.5882 457.107 53.5886C457.106 53.5898 457.106 53.5911 455.762 52.9241C454.419 52.2572 454.418 52.2584 454.417 52.2597C454.417 52.2602 454.416 52.2615 454.416 52.2624C454.415 52.2642 454.414 52.2661 454.413 52.2681C454.411 52.2719 454.409 52.2761 454.407 52.2805C454.403 52.2894 454.398 52.2993 454.393 52.3102C454.383 52.3321 454.372 52.3582 454.359 52.3886C454.333 52.4493 454.303 52.527 454.27 52.6218C454.204 52.8115 454.128 53.0691 454.061 53.396C453.926 54.0512 453.83 54.9757 453.915 56.1801C454.086 58.5904 454.979 62.0761 457.682 66.7427L460.278 65.239ZM458.558 84.9795L460.473 66.1426L457.488 65.8392L455.573 84.6762L458.558 84.9795ZM475.284 52.9966L476.858 21.1351L473.862 20.987L472.288 52.8486L475.284 52.9966ZM480.228 50.9036L473.666 51.4274L473.905 54.4179L480.467 53.8941L480.228 50.9036ZM473.879 21.2968L478.866 52.6346L481.829 52.1631L476.841 20.8253L473.879 21.2968Z" fill="#221E20"/>
</g>
<g filter="url(#filter10_d_846_63)">
<path d="M512.551 6.63948L492.798 8.44611C496.515 12.7856 498.226 15.2471 500.301 19.7125L509.869 98.6679C512.301 99.9247 513.556 101.013 515.242 104.776L516.866 111.37C518.966 112.302 520.091 113.074 521.833 115.83L523.356 122.012C525.986 123.204 526.986 124.327 528.728 126.372L512.551 6.63948Z" fill="#FAFF00"/>
<path d="M492.798 8.44611L492.661 6.95234L489.769 7.21681L491.658 9.42198L492.798 8.44611ZM512.551 6.63948L514.038 6.43864L513.845 5.01486L512.414 5.14571L512.551 6.63948ZM528.728 126.372L527.586 127.344L530.898 131.235L530.214 126.171L528.728 126.372ZM523.356 122.012L521.9 122.371L522.074 123.078L522.737 123.378L523.356 122.012ZM521.833 115.83L523.289 115.471L523.231 115.234L523.101 115.028L521.833 115.83ZM516.866 111.37L515.41 111.729L515.586 112.443L516.258 112.741L516.866 111.37ZM515.242 104.776L516.698 104.417L516.666 104.286L516.611 104.163L515.242 104.776ZM509.869 98.6679L508.38 98.8483L508.475 99.6361L509.18 100L509.869 98.6679ZM500.301 19.7125L501.79 19.532L501.761 19.2961L501.661 19.0805L500.301 19.7125ZM492.934 9.93987L512.688 8.13324L512.414 5.14571L492.661 6.95234L492.934 9.93987ZM511.065 6.84031L527.241 126.573L530.214 126.171L514.038 6.43864L511.065 6.84031ZM529.87 125.399C528.084 123.302 526.91 121.976 523.975 120.646L522.737 123.378C525.062 124.432 525.889 125.351 527.586 127.344L529.87 125.399ZM524.813 121.653L523.289 115.471L520.377 116.189L521.9 122.371L524.813 121.653ZM523.101 115.028C522.19 113.587 521.38 112.568 520.461 111.778C519.534 110.982 518.572 110.486 517.475 109.999L516.258 112.741C517.26 113.186 517.91 113.542 518.506 114.054C519.11 114.572 519.734 115.317 520.565 116.631L523.101 115.028ZM518.323 111.012L516.698 104.417L513.785 105.135L515.41 111.729L518.323 111.012ZM516.611 104.163C515.739 102.216 514.925 100.837 513.939 99.766C512.938 98.6793 511.839 97.9973 510.558 97.3353L509.18 100C510.331 100.595 511.076 101.086 511.732 101.798C512.403 102.527 513.059 103.573 513.873 105.389L516.611 104.163ZM511.358 98.4874L501.79 19.532L498.812 19.8929L508.38 98.8483L511.358 98.4874ZM501.661 19.0805C499.514 14.4578 497.716 11.8817 493.937 7.47024L491.658 9.42198C495.314 13.6896 496.939 16.0365 498.94 20.3444L501.661 19.0805Z" fill="#221E20"/>
</g>
<g filter="url(#filter11_d_846_63)">
<path d="M552.202 2.64514L516.473 6.29089C519.435 8.72669 520.992 10.132 522.601 13.0843C525.326 15.1939 526.226 16.5987 527.497 19.2225L531.262 48.513L524.731 49.1794C526.615 50.7253 527.313 51.6946 528.278 53.503L528.101 59.378C530.639 60.3911 531.816 61.2376 533.184 63.5447L539.492 110.146C539.396 112.061 538.386 113.173 536.123 115.176C539.535 115.732 540.552 116.872 541.975 119.264C544.064 116.041 545.486 114.719 548.723 113.109L552.259 113.529C552.484 110.417 553.537 109.132 556.278 107.262L560.504 106.831C561.642 103.391 562.958 101.862 565.557 99.2872L552.879 100.581L547.626 60.5093L554.689 57.4459L554.413 54.7409C555.278 53.0794 556.062 52.1457 557.86 50.4845C557.816 48.1605 558.212 46.9158 559.997 44.8L545.014 46.3289L541.17 16.2655L548.085 15.5598L547.888 13.6277C549.08 10.9685 550.04 9.93428 552.025 8.52005C551.554 6.25684 551.335 4.9854 552.202 2.64514Z" fill="#FAFF00"/>
<path d="M552.202 2.64514L516.473 6.29089C519.435 8.72669 520.992 10.132 522.601 13.0843C525.326 15.1939 526.226 16.5987 527.497 19.2225L531.262 48.513L524.731 49.1794C526.615 50.7253 527.313 51.6946 528.278 53.503L528.101 59.378C530.639 60.3911 531.816 61.2376 533.184 63.5447L539.492 110.146C539.396 112.061 538.386 113.173 536.123 115.176C539.535 115.732 540.552 116.872 541.975 119.264C544.064 116.041 545.486 114.719 548.723 113.109L552.259 113.529C552.484 110.417 553.537 109.132 556.278 107.262L560.504 106.831C561.642 103.391 562.958 101.862 565.557 99.2872L552.879 100.581L547.626 60.5093L554.689 57.4459L554.413 54.7409C555.278 53.0794 556.062 52.1457 557.86 50.4845C557.816 48.1605 558.212 46.9158 559.997 44.8L545.014 46.3289L541.17 16.2655L548.085 15.5598L547.888 13.6277C549.08 10.9685 550.04 9.93428 552.025 8.52005C551.554 6.25684 551.335 4.9854 552.202 2.64514Z" stroke="#221E20" stroke-width="3"/>
</g>
<defs>
<filter id="filter0_d_846_63" x="4.61084" y="1.89062" width="57.3999" height="115.004" filterUnits="userSpaceOnUse" color-interpolation-filters="sRGB">
<feFlood flood-opacity="0" result="BackgroundImageFix"/>
<feColorMatrix in="SourceAlpha" type="matrix" values="0 0 0 0 0 0 0 0 0 0 0 0 0 0 0 0 0 0 127 0" result="hardAlpha"/>
<feOffset dx="2" dy="2"/>
<feComposite in2="hardAlpha" operator="out"/>
<feColorMatrix type="matrix" values="0 0 0 0 1 0 0 0 0 0 0 0 0 0 0 0 0 0 1 0"/>
<feBlend mode="normal" in2="BackgroundImageFix" result="effect1_dropShadow_846_63"/>
<feBlend mode="normal" in="SourceGraphic" in2="effect1_dropShadow_846_63" result="shape"/>
</filter>
<filter id="filter1_d_846_63" x="41.3662" y="5.80786" width="58.3438" height="121.777" filterUnits="userSpaceOnUse" color-interpolation-filters="sRGB">
<feFlood flood-opacity="0" result="BackgroundImageFix"/>
<feColorMatrix in="SourceAlpha" type="matrix" values="0 0 0 0 0 0 0 0 0 0 0 0 0 0 0 0 0 0 127 0" result="hardAlpha"/>
<feOffset dx="2" dy="2"/>
<feComposite in2="hardAlpha" operator="out"/>
<feColorMatrix type="matrix" values="0 0 0 0 1 0 0 0 0 0 0 0 0 0 0 0 0 0 1 0"/>
<feBlend mode="normal" in2="BackgroundImageFix" result="effect1_dropShadow_846_63"/>
<feBlend mode="normal" in="SourceGraphic" in2="effect1_dropShadow_846_63" result="shape"/>
</filter>
<filter id="filter2_d_846_63" x="93.1006" y="8.36011" width="88.7773" height="123.755" filterUnits="userSpaceOnUse" color-interpolation-filters="sRGB">
<feFlood flood-opacity="0" result="BackgroundImageFix"/>
<feColorMatrix in="SourceAlpha" type="matrix" values="0 0 0 0 0 0 0 0 0 0 0 0 0 0 0 0 0 0 127 0" result="hardAlpha"/>
<feOffset dx="2" dy="2"/>
<feComposite in2="hardAlpha" operator="out"/>
<feColorMatrix type="matrix" values="0 0 0 0 1 0 0 0 0 0 0 0 0 0 0 0 0 0 1 0"/>
<feBlend mode="normal" in2="BackgroundImageFix" result="effect1_dropShadow_846_63"/>
<feBlend mode="normal" in="SourceGraphic" in2="effect1_dropShadow_846_63" result="shape"/>
</filter>
<filter id="filter3_d_846_63" x="165.766" y="13.689" width="56.8477" height="122.097" filterUnits="userSpaceOnUse" color-interpolation-filters="sRGB">
<feFlood flood-opacity="0" result="BackgroundImageFix"/>
<feColorMatrix in="SourceAlpha" type="matrix" values="0 0 0 0 0 0 0 0 0 0 0 0 0 0 0 0 0 0 127 0" result="hardAlpha"/>
<feOffset dx="2" dy="2"/>
<feComposite in2="hardAlpha" operator="out"/>
<feColorMatrix type="matrix" values="0 0 0 0 1 0 0 0 0 0 0 0 0 0 0 0 0 0 1 0"/>
<feBlend mode="normal" in2="BackgroundImageFix" result="effect1_dropShadow_846_63"/>
<feBlend mode="normal" in="SourceGraphic" in2="effect1_dropShadow_846_63" result="shape"/>
</filter>
<filter id="filter4_d_846_63" x="226.1" y="62.1931" width="32.0938" height="22.8552" filterUnits="userSpaceOnUse" color-interpolation-filters="sRGB">
<feFlood flood-opacity="0" result="BackgroundImageFix"/>
<feColorMatrix in="SourceAlpha" type="matrix" values="0 0 0 0 0 0 0 0 0 0 0 0 0 0 0 0 0 0 127 0" result="hardAlpha"/>
<feOffset dx="2" dy="2"/>
<feComposite in2="hardAlpha" operator="out"/>
<feColorMatrix type="matrix" values="0 0 0 0 1 0 0 0 0 0 0 0 0 0 0 0 0 0 1 0"/>
<feBlend mode="normal" in2="BackgroundImageFix" result="effect1_dropShadow_846_63"/>
<feBlend mode="normal" in="SourceGraphic" in2="effect1_dropShadow_846_63" result="shape"/>
</filter>
<filter id="filter5_d_846_63" x="259.513" y="16.4373" width="47.2334" height="114.25" filterUnits="userSpaceOnUse" color-interpolation-filters="sRGB">
<feFlood flood-opacity="0" result="BackgroundImageFix"/>
<feColorMatrix in="SourceAlpha" type="matrix" values="0 0 0 0 0 0 0 0 0 0 0 0 0 0 0 0 0 0 127 0" result="hardAlpha"/>
<feOffset dx="2" dy="2"/>
<feComposite in2="hardAlpha" operator="out"/>
<feColorMatrix type="matrix" values="0 0 0 0 1 0 0 0 0 0 0 0 0 0 0 0 0 0 1 0"/>
<feBlend mode="normal" in2="BackgroundImageFix" result="effect1_dropShadow_846_63"/>
<feBlend mode="normal" in="SourceGraphic" in2="effect1_dropShadow_846_63" result="shape"/>
</filter>
<filter id="filter6_d_846_63" x="303.024" y="16.02" width="51.9751" height="122.185" filterUnits="userSpaceOnUse" color-interpolation-filters="sRGB">
<feFlood flood-opacity="0" result="BackgroundImageFix"/>
<feColorMatrix in="SourceAlpha" type="matrix" values="0 0 0 0 0 0 0 0 0 0 0 0 0 0 0 0 0 0 127 0" result="hardAlpha"/>
<feOffset dx="2" dy="2"/>
<feComposite in2="hardAlpha" operator="out"/>
<feColorMatrix type="matrix" values="0 0 0 0 1 0 0 0 0 0 0 0 0 0 0 0 0 0 1 0"/>
<feBlend mode="normal" in2="BackgroundImageFix" result="effect1_dropShadow_846_63"/>
<feBlend mode="normal" in="SourceGraphic" in2="effect1_dropShadow_846_63" result="shape"/>
</filter>
<filter id="filter7_d_846_63" x="341.141" y="13.9055" width="56.0181" height="124.828" filterUnits="userSpaceOnUse" color-interpolation-filters="sRGB">
<feFlood flood-opacity="0" result="BackgroundImageFix"/>
<feColorMatrix in="SourceAlpha" type="matrix" values="0 0 0 0 0 0 0 0 0 0 0 0 0 0 0 0 0 0 127 0" result="hardAlpha"/>
<feOffset dx="2" dy="2"/>
<feComposite in2="hardAlpha" operator="out"/>
<feColorMatrix type="matrix" values="0 0 0 0 1 0 0 0 0 0 0 0 0 0 0 0 0 0 1 0"/>
<feBlend mode="normal" in2="BackgroundImageFix" result="effect1_dropShadow_846_63"/>
<feBlend mode="normal" in="SourceGraphic" in2="effect1_dropShadow_846_63" result="shape"/>
</filter>
<filter id="filter8_d_846_63" x="390.163" y="10.0344" width="68.5835" height="122.197" filterUnits="userSpaceOnUse" color-interpolation-filters="sRGB">
<feFlood flood-opacity="0" result="BackgroundImageFix"/>
<feColorMatrix in="SourceAlpha" type="matrix" values="0 0 0 0 0 0 0 0 0 0 0 0 0 0 0 0 0 0 127 0" result="hardAlpha"/>
<feOffset dx="2" dy="2"/>
<feComposite in2="hardAlpha" operator="out"/>
<feColorMatrix type="matrix" values="0 0 0 0 1 0 0 0 0 0 0 0 0 0 0 0 0 0 1 0"/>
<feBlend mode="normal" in2="BackgroundImageFix" result="effect1_dropShadow_846_63"/>
<feBlend mode="normal" in="SourceGraphic" in2="effect1_dropShadow_846_63" result="shape"/>
</filter>
<filter id="filter9_d_846_63" x="453.883" y="7.51611" width="55.7993" height="121.374" filterUnits="userSpaceOnUse" color-interpolation-filters="sRGB">
<feFlood flood-opacity="0" result="BackgroundImageFix"/>
<feColorMatrix in="SourceAlpha" type="matrix" values="0 0 0 0 0 0 0 0 0 0 0 0 0 0 0 0 0 0 127 0" result="hardAlpha"/>
<feOffset dx="2" dy="2"/>
<feComposite in2="hardAlpha" operator="out"/>
<feColorMatrix type="matrix" values="0 0 0 0 1 0 0 0 0 0 0 0 0 0 0 0 0 0 1 0"/>
<feBlend mode="normal" in2="BackgroundImageFix" result="effect1_dropShadow_846_63"/>
<feBlend mode="normal" in="SourceGraphic" in2="effect1_dropShadow_846_63" result="shape"/>
</filter>
<filter id="filter10_d_846_63" x="489.77" y="5.01489" width="43.1289" height="128.22" filterUnits="userSpaceOnUse" color-interpolation-filters="sRGB">
<feFlood flood-opacity="0" result="BackgroundImageFix"/>
<feColorMatrix in="SourceAlpha" type="matrix" values="0 0 0 0 0 0 0 0 0 0 0 0 0 0 0 0 0 0 127 0" result="hardAlpha"/>
<feOffset dx="2" dy="2"/>
<feComposite in2="hardAlpha" operator="out"/>
<feColorMatrix type="matrix" values="0 0 0 0 1 0 0 0 0 0 0 0 0 0 0 0 0 0 1 0"/>
<feBlend mode="normal" in2="BackgroundImageFix" result="effect1_dropShadow_846_63"/>
<feBlend mode="normal" in="SourceGraphic" in2="effect1_dropShadow_846_63" result="shape"/>
</filter>
<filter id="filter11_d_846_63" x="512.74" y="0.908447" width="58.8896" height="123.198" filterUnits="userSpaceOnUse" color-interpolation-filters="sRGB">
<feFlood flood-opacity="0" result="BackgroundImageFix"/>
<feColorMatrix in="SourceAlpha" type="matrix" values="0 0 0 0 0 0 0 0 0 0 0 0 0 0 0 0 0 0 127 0" result="hardAlpha"/>
<feOffset dx="2" dy="2"/>
<feComposite in2="hardAlpha" operator="out"/>
<feColorMatrix type="matrix" values="0 0 0 0 1 0 0 0 0 0 0 0 0 0 0 0 0 0 1 0"/>
<feBlend mode="normal" in2="BackgroundImageFix" result="effect1_dropShadow_846_63"/>
<feBlend mode="normal" in="SourceGraphic" in2="effect1_dropShadow_846_63" result="shape"/>
</filter>
</defs>
</svg>
