<svg width="390" height="844" viewBox="0 0 390 844" fill="none" xmlns="http://www.w3.org/2000/svg">
<g clip-path="url(#clip0_128_2288)">
<rect width="390" height="844" fill="#2C2C2E"/>
<path d="M0 0H390V105C390 110.523 385.523 115 380 115H10C4.47715 115 0 110.523 0 105V0Z" fill="#B8F14A"/>
<path d="M136.76 52.9408C136.76 52.4238 136.949 51.9962 137.326 51.6582C137.704 51.3003 138.182 51.1213 138.758 51.1213H146.722C148.869 51.1213 150.53 51.688 151.703 52.8215C152.896 53.9549 153.493 55.5456 153.493 57.5937C153.493 58.7669 153.254 59.7611 152.777 60.5764C152.299 61.3718 151.574 62.0081 150.599 62.4853V62.5748C152.349 63.3503 153.224 64.8217 153.224 66.9891V69.3156C153.224 70.2701 152.886 71.0058 152.21 71.5228C151.534 72.0199 150.54 72.2684 149.227 72.2684V67.1681C149.227 66.1142 149.019 65.3387 148.601 64.8416C148.183 64.3445 147.547 64.0959 146.692 64.0959H140.697V69.3156C140.697 70.2899 140.359 71.0257 139.683 71.5228C139.027 72.0199 138.052 72.2684 136.76 72.2684V52.9408ZM146.513 60.6957C147.468 60.6957 148.203 60.4273 148.72 59.8904C149.237 59.3336 149.496 58.5581 149.496 57.5639C149.496 55.5357 148.502 54.5216 146.513 54.5216H140.697V60.6957H146.513ZM162.189 72.2684C160.896 72.2684 159.723 72.0398 158.669 71.5824C157.635 71.1052 156.82 70.449 156.223 69.6139C155.627 68.7787 155.329 67.8342 155.329 66.7803V62.5748C155.329 61.501 155.617 60.5267 156.193 59.6518C156.79 58.7768 157.605 58.0908 158.639 57.5937C159.673 57.0767 160.856 56.8182 162.189 56.8182C163.521 56.8182 164.704 57.0767 165.738 57.5937C166.792 58.0908 167.607 58.7768 168.184 59.6518C168.78 60.5267 169.079 61.501 169.079 62.5748V66.7803C169.079 67.8342 168.77 68.7787 168.154 69.6139C167.557 70.449 166.732 71.1052 165.678 71.5824C164.644 72.0398 163.481 72.2684 162.189 72.2684ZM162.189 69.077C163.183 69.077 163.958 68.8483 164.515 68.391C165.092 67.9336 165.38 67.3172 165.38 66.5417V62.7537C165.38 61.9385 165.092 61.2823 164.515 60.7852C163.958 60.2682 163.183 60.0097 162.189 60.0097C161.214 60.0097 160.439 60.2682 159.862 60.7852C159.286 61.2823 158.997 61.9385 158.997 62.7537V66.5417C158.997 67.3172 159.286 67.9336 159.862 68.391C160.439 68.8483 161.214 69.077 162.189 69.077ZM184.489 69.3753C184.489 70.3098 184.191 71.0257 183.594 71.5228C183.018 72.0199 182.133 72.2684 180.94 72.2684V70.4788C181.198 70.1806 181.437 69.8525 181.656 69.4946L181.477 69.3753C180.204 71.304 178.494 72.2684 176.347 72.2684C175.332 72.2684 174.418 72.0398 173.602 71.5824C172.807 71.1052 172.171 70.449 171.694 69.6139C171.236 68.7787 171.008 67.8342 171.008 66.7803V59.0851C171.008 58.2698 171.306 57.6931 171.902 57.3551C172.519 56.9972 173.453 56.8182 174.706 56.8182V66.5119C174.706 67.2874 174.945 67.9038 175.422 68.3611C175.899 68.8185 176.585 69.0472 177.48 69.0472C178.474 69.0472 179.27 68.739 179.866 68.1225C180.482 67.4862 180.791 66.7008 180.791 65.7662V59.0851C180.791 58.2698 181.089 57.6931 181.685 57.3551C182.282 56.9972 183.217 56.8182 184.489 56.8182V69.3753ZM194.541 72.2684C192.93 72.2684 191.737 71.8012 190.961 70.8666C190.186 69.932 189.798 68.729 189.798 67.2576V59.8605H186.726C186.726 58.926 186.905 58.23 187.263 57.7727C187.621 57.3153 188.098 57.0867 188.695 57.0867H189.858V54.6111C189.858 53.7958 190.156 53.2191 190.753 52.8811C191.349 52.5232 192.254 52.3442 193.467 52.3442V57.0867H197.434C197.434 58.0809 197.245 58.7967 196.867 59.2342C196.489 59.6518 195.883 59.8605 195.048 59.8605H193.526V67.1084C193.526 67.8044 193.656 68.3015 193.914 68.5998C194.193 68.898 194.66 69.0472 195.316 69.0472C196.012 69.0472 196.708 68.8583 197.404 68.4805C197.603 68.6594 197.762 68.8881 197.881 69.1665C198 69.425 198.06 69.6934 198.06 69.9718C198.06 70.5683 197.752 71.1052 197.135 71.5824C196.519 72.0398 195.654 72.2684 194.541 72.2684ZM203.345 55.4164C202.629 55.4164 202.033 55.2076 201.556 54.79C201.098 54.3526 200.87 53.7958 200.87 53.1197C200.87 52.4635 201.098 51.9267 201.556 51.5091C202.033 51.0716 202.629 50.8529 203.345 50.8529C204.061 50.8529 204.648 51.0716 205.105 51.5091C205.582 51.9267 205.821 52.4635 205.821 53.1197C205.821 53.7958 205.582 54.3526 205.105 54.79C204.648 55.2076 204.061 55.4164 203.345 55.4164ZM201.466 59.0851C201.466 58.2698 201.774 57.6931 202.391 57.3551C203.007 56.9972 203.942 56.8182 205.194 56.8182V70.0016C205.194 70.797 204.886 71.3736 204.27 71.7316C203.653 72.0895 202.719 72.2684 201.466 72.2684V59.0851ZM209.346 59.6816C209.346 58.7669 209.634 58.061 210.211 57.5639C210.807 57.0668 211.702 56.8182 212.895 56.8182V58.6078C212.657 58.8862 212.418 59.2044 212.179 59.5623L212.358 59.6816C212.955 58.7868 213.72 58.0908 214.655 57.5937C215.589 57.0767 216.623 56.8182 217.757 56.8182C218.771 56.8182 219.666 57.0469 220.441 57.5042C221.217 57.9616 221.813 58.5879 222.231 59.3833C222.668 60.1787 222.887 61.0735 222.887 62.0677V70.0016C222.887 70.797 222.579 71.3736 221.962 71.7316C221.346 72.0895 220.411 72.2684 219.159 72.2684V62.6046C219.159 61.849 218.93 61.2326 218.473 60.7553C218.035 60.2781 217.389 60.0395 216.534 60.0395C215.52 60.0395 214.685 60.3577 214.029 60.994C213.372 61.6104 213.044 62.3859 213.044 63.3204V70.0016C213.044 70.797 212.746 71.3736 212.149 71.7316C211.553 72.0895 210.618 72.2684 209.346 72.2684V59.6816ZM232.713 72.2684C231.48 72.2684 230.357 72.0298 229.342 71.5526C228.328 71.0555 227.523 70.3894 226.926 69.5542C226.33 68.6992 226.032 67.7447 226.032 66.6909V62.7239C226.032 61.6104 226.34 60.6062 226.956 59.7114C227.573 58.8166 228.388 58.1107 229.402 57.5937C230.436 57.0767 231.55 56.8182 232.743 56.8182C233.916 56.8182 234.99 57.0668 235.964 57.5639C236.958 58.0411 237.744 58.7172 238.32 59.5921C238.897 60.4471 239.185 61.4314 239.185 62.5449V64.2152C239.185 64.6527 239.016 65.0206 238.678 65.3188C238.36 65.6171 237.952 65.7662 237.455 65.7662H229.641V66.4224C229.641 67.2774 229.899 67.9734 230.416 68.5103C230.933 69.0472 231.709 69.3156 232.743 69.3156C233.737 69.3156 234.473 69.0969 234.95 68.6594C235.447 68.222 235.696 67.6552 235.696 66.9593C236.053 66.9195 236.302 66.8996 236.441 66.8996C237.177 66.8996 237.754 67.0687 238.171 67.4067C238.589 67.7248 238.797 68.1822 238.797 68.7787C238.797 69.3554 238.529 69.9121 237.992 70.449C237.455 70.9859 236.72 71.4234 235.785 71.7614C234.85 72.0994 233.826 72.2684 232.713 72.2684ZM235.815 63.1117V62.5449C235.815 61.7098 235.527 61.0337 234.95 60.5167C234.373 59.9997 233.628 59.7412 232.713 59.7412C231.798 59.7412 231.053 59.9997 230.476 60.5167C229.919 61.0138 229.641 61.6899 229.641 62.5449V63.1117H235.815ZM248.111 72.2684C246.202 72.2684 244.661 71.9304 243.488 71.2543C242.334 70.5584 241.748 69.6338 241.728 68.4805C241.728 67.9833 241.927 67.5658 242.325 67.2277C242.742 66.8897 243.398 66.7107 244.293 66.6909C244.472 67.5658 244.89 68.2418 245.546 68.7191C246.202 69.1764 246.997 69.4051 247.932 69.4051C248.946 69.4051 249.741 69.2758 250.318 69.0173C250.895 68.7588 251.183 68.3711 251.183 67.8541C251.183 67.3769 250.944 66.9792 250.467 66.661C250.01 66.3429 249.095 66.0247 247.723 65.7066C246.232 65.3487 245.069 64.9907 244.233 64.6328C243.418 64.2749 242.812 63.8176 242.414 63.2608C242.016 62.704 241.817 61.9683 241.817 61.0536C241.817 59.781 242.354 58.757 243.428 57.9815C244.502 57.206 245.973 56.8182 247.842 56.8182C249.652 56.8182 251.153 57.1463 252.346 57.8025C253.539 58.4388 254.136 59.2938 254.136 60.3676C254.136 60.9045 253.937 61.3022 253.539 61.5607C253.142 61.8192 252.485 61.9584 251.571 61.9782C251.372 61.1829 250.994 60.5863 250.437 60.1886C249.881 59.791 249.095 59.5921 248.081 59.5921C247.325 59.5921 246.669 59.7214 246.112 59.9799C245.576 60.2384 245.307 60.5764 245.307 60.994C245.307 61.4314 245.536 61.7695 245.993 62.0081C246.451 62.2467 247.246 62.4853 248.379 62.7239C250.606 63.2011 252.217 63.8374 253.211 64.6328C254.225 65.4282 254.732 66.5119 254.732 67.8839C254.732 69.2162 254.136 70.28 252.943 71.0754C251.77 71.8708 250.159 72.2684 248.111 72.2684Z" fill="black"/>
<rect y="752" width="390" height="92" fill="black"/>
<path d="M58.1348 809.773V806.716C58.1348 805.935 58.7722 805.302 59.5584 805.302H62.4326C62.8102 805.302 63.1723 805.451 63.4393 805.716C63.7063 805.981 63.8563 806.341 63.8563 806.716V809.773C63.8539 810.098 63.9821 810.41 64.2124 810.64C64.4427 810.87 64.7561 811 65.0829 811H67.0438C67.9596 811.002 68.8388 810.643 69.4872 810.001C70.1356 809.359 70.5 808.487 70.5 807.578V798.867C70.5 798.132 70.1721 797.436 69.6046 796.965L62.934 791.676C61.7737 790.749 60.1111 790.779 58.9854 791.747L52.467 796.965C51.8727 797.422 51.5176 798.121 51.5 798.867V807.569C51.5 809.464 53.0474 811 54.9562 811H56.8723C57.5512 811 58.103 810.456 58.1079 809.782L58.1348 809.773Z" fill="white"/>
<path fill-rule="evenodd" clip-rule="evenodd" d="M160.519 792C160.565 792 160.611 792 160.657 792C160.703 792 160.749 792 160.795 792C161.419 791.999 161.958 791.999 162.432 792.12C163.706 792.446 164.701 793.395 165.042 794.61C165.17 795.063 165.169 795.577 165.168 796.173C165.168 796.216 165.168 796.26 165.168 796.304V796.713C167.467 796.911 169.269 798.755 169.269 801C169.269 803.245 167.467 805.089 165.168 805.287V805.696C165.168 805.74 165.168 805.783 165.168 805.827C165.169 806.423 165.17 806.937 165.042 807.39C164.701 808.605 163.706 809.554 162.432 809.88C161.958 810.001 161.419 810.001 160.795 810C160.749 810 160.703 810 160.657 810C160.611 810 160.565 810 160.519 810C159.895 810.001 159.356 810.001 158.882 809.88C157.608 809.554 156.613 808.605 156.272 807.39C156.145 806.937 156.145 806.423 156.146 805.827C156.146 805.783 156.146 805.74 156.146 805.696V802.174H147.123V805.696C147.123 805.74 147.124 805.783 147.124 805.827C147.124 806.423 147.125 806.937 146.998 807.39C146.656 808.605 145.662 809.554 144.388 809.88C143.913 810.001 143.375 810.001 142.75 810C142.704 810 142.659 810 142.612 810C142.566 810 142.52 810 142.475 810C141.85 810.001 141.311 810.001 140.837 809.88C139.563 809.554 138.568 808.605 138.227 807.39C138.1 806.937 138.1 806.423 138.101 805.827C138.101 805.783 138.101 805.74 138.101 805.696V805.287C135.802 805.089 134 803.245 134 801C134 798.755 135.802 796.911 138.101 796.713V796.304C138.101 796.26 138.101 796.216 138.101 796.173C138.1 795.577 138.1 795.063 138.227 794.61C138.568 793.395 139.563 792.446 140.837 792.12C141.311 791.999 141.85 791.999 142.475 792C142.52 792 142.566 792 142.612 792C142.659 792 142.704 792 142.75 792C143.375 791.999 143.913 791.999 144.388 792.12C145.662 792.446 146.656 793.395 146.998 794.61C147.125 795.063 147.124 795.577 147.124 796.173C147.124 796.216 147.123 796.26 147.123 796.304V799.826H156.146V796.304C156.146 796.26 156.146 796.216 156.146 796.173C156.145 795.577 156.145 795.063 156.272 794.61C156.613 793.395 157.608 792.446 158.882 792.12C159.356 791.999 159.895 791.999 160.519 792ZM138.101 799.083C137.165 799.264 136.461 800.053 136.461 801C136.461 801.947 137.165 802.736 138.101 802.917V799.083ZM165.168 802.917C166.104 802.736 166.809 801.947 166.809 801C166.809 800.053 166.104 799.264 165.168 799.083V802.917ZM160.657 794.348C159.815 794.348 159.635 794.358 159.518 794.388C159.094 794.497 158.762 794.813 158.649 795.218C158.617 795.33 158.607 795.501 158.607 796.304V805.696C158.607 806.499 158.617 806.67 158.649 806.782C158.762 807.187 159.094 807.503 159.518 807.612C159.635 807.642 159.815 807.652 160.657 807.652C161.499 807.652 161.679 807.642 161.796 807.612C162.22 807.503 162.552 807.187 162.666 806.782C162.697 806.67 162.708 806.499 162.708 805.696V796.304C162.708 795.501 162.697 795.33 162.666 795.218C162.552 794.813 162.22 794.497 161.796 794.388C161.679 794.358 161.499 794.348 160.657 794.348ZM142.612 794.348C141.77 794.348 141.591 794.358 141.474 794.388C141.049 794.497 140.717 794.813 140.604 795.218C140.572 795.33 140.562 795.501 140.562 796.304V805.696C140.562 806.499 140.572 806.67 140.604 806.782C140.717 807.187 141.049 807.503 141.474 807.612C141.591 807.642 141.77 807.652 142.612 807.652C143.454 807.652 143.634 807.642 143.751 807.612C144.175 807.503 144.507 807.187 144.621 806.782C144.652 806.67 144.663 806.499 144.663 805.696V796.304C144.663 795.501 144.652 795.33 144.621 795.218C144.507 794.813 144.175 794.497 143.751 794.388C143.634 794.358 143.454 794.348 142.612 794.348Z" fill="#B8F14A"/>
<path d="M248.269 789H233.269C232.474 789 231.711 789.316 231.148 789.879C230.585 790.441 230.269 791.204 230.269 792V810C230.269 810.796 230.585 811.559 231.148 812.121C231.711 812.684 232.474 813 233.269 813H250.269V791C250.269 790.47 250.059 789.961 249.684 789.586C249.308 789.211 248.8 789 248.269 789V789ZM248.269 807H236.269V791H248.269V807ZM233.269 791H234.269V807H233.286C232.939 807.003 232.595 807.066 232.269 807.187V792C232.269 791.735 232.375 791.48 232.562 791.293C232.75 791.105 233.004 791 233.269 791ZM233.269 811C233.005 811 232.752 810.896 232.565 810.71C232.378 810.524 232.271 810.272 232.269 810.008H232.284C232.283 809.876 232.308 809.745 232.358 809.623C232.408 809.501 232.481 809.389 232.574 809.296C232.667 809.202 232.778 809.128 232.9 809.077C233.022 809.026 233.152 809 233.284 809H248.269V811H233.269Z" fill="white"/>
<ellipse cx="326.477" cy="798.477" rx="6.47727" ry="6.47727" fill="#D9D9D9"/>
<ellipse cx="326.269" cy="801" rx="15" ry="15" stroke="#2C2C2E" stroke-width="0.681818"/>
<ellipse cx="325.886" cy="810.773" rx="9.88636" ry="4.77273" fill="#D9D9D9"/>
<rect x="13.9041" y="158" width="362.192" height="95.7386" rx="24.223" fill="black"/>
<circle cx="346.5" cy="206.5" r="17.5" transform="rotate(-180 346.5 206.5)" fill="white"/>
<path d="M341.831 204.788L342.339 205.676C342.662 206.241 342.823 206.524 342.823 206.833C342.823 207.143 342.662 207.426 342.339 207.991L341.831 208.879C340.387 211.407 339.664 212.671 340.228 213.298C340.791 213.925 342.125 213.341 344.792 212.174L344.792 212.174L352.114 208.971C354.209 208.055 355.256 207.596 355.256 206.833C355.256 206.07 354.209 205.612 352.114 204.696L344.792 201.493C342.125 200.325 340.791 199.742 340.228 200.369C339.664 200.996 340.387 202.26 341.831 204.788Z" fill="white" stroke="black" stroke-width="2.33333"/>
<path d="M346.5 188.875C348.815 188.875 351.106 189.331 353.245 190.217C355.383 191.102 357.326 192.401 358.963 194.037C360.599 195.674 361.898 197.617 362.783 199.755C363.669 201.894 364.125 204.185 364.125 206.5C364.125 208.815 363.669 211.106 362.783 213.245C361.898 215.383 360.599 217.326 358.963 218.963C357.326 220.599 355.383 221.898 353.245 222.783C351.106 223.669 348.815 224.125 346.5 224.125C344.185 224.125 341.894 223.669 339.755 222.783C337.617 221.898 335.674 220.599 334.037 218.963C332.401 217.326 331.102 215.383 330.217 213.245C329.331 211.106 328.875 208.815 328.875 206.5C328.875 204.185 329.331 201.894 330.217 199.755C331.102 197.617 332.401 195.674 334.037 194.037C335.674 192.401 337.617 191.102 339.755 190.217C341.894 189.331 344.185 188.875 346.5 188.875L346.5 188.875Z" stroke="black" stroke-width="3.08333" stroke-linecap="round"/>
<path d="M68.7162 232C68.4562 232 68.2481 231.928 68.0921 231.785C67.9491 231.642 67.8776 231.447 67.8776 231.2C67.8776 230.199 68.2611 229.263 69.0282 228.392C69.7953 227.521 70.9979 226.656 72.6361 225.798C73.5722 225.304 74.2808 224.882 74.7618 224.531C75.2559 224.167 75.5939 223.809 75.7759 223.458C75.9709 223.094 76.0685 222.665 76.0685 222.171C76.0685 221.404 75.8149 220.819 75.3079 220.416C74.8138 220.013 74.0857 219.811 73.1236 219.811C72.0835 219.811 71.2709 220.058 70.6859 220.552C70.1138 221.046 69.8278 221.735 69.8278 222.62C69.8278 222.854 69.8473 223.101 69.8863 223.361L69.6523 223.38C69.1842 223.38 68.7877 223.244 68.4627 222.971C68.1376 222.698 67.9751 222.359 67.9751 221.956C67.9751 221.254 68.2026 220.617 68.6577 220.045C69.1127 219.46 69.7303 219.005 70.5104 218.68C71.3035 218.342 72.1745 218.173 73.1236 218.173C74.0987 218.173 74.9503 218.336 75.6784 218.661C76.4065 218.986 76.9655 219.454 77.3556 220.065C77.7456 220.663 77.9407 221.365 77.9407 222.171C77.9407 223.094 77.6026 223.926 76.9265 224.667C76.2635 225.408 75.1389 226.195 73.5527 227.027C71.2514 228.249 70.0358 229.374 69.9058 230.401H76.595C77.0891 230.401 77.4661 230.537 77.7261 230.81C77.9862 231.083 78.1162 231.48 78.1162 232H68.7162ZM89.3113 232.176C88.5182 232.176 87.8096 232.026 87.1855 231.727C86.5615 231.415 86.0739 230.992 85.7229 230.459C85.3718 229.913 85.1963 229.302 85.1963 228.626V225.74C85.1963 225.051 85.3783 224.427 85.7424 223.868C86.1194 223.309 86.62 222.873 87.244 222.561C87.8811 222.236 88.5702 222.073 89.3113 222.073C90.0523 222.073 90.7284 222.229 91.3395 222.542C91.9635 222.854 92.4511 223.283 92.8021 223.829C93.1662 224.375 93.3482 224.992 93.3482 225.681V226.929C93.3482 227.137 93.2702 227.313 93.1142 227.456C92.9581 227.599 92.7696 227.671 92.5486 227.671H86.854V228.548C86.854 229.211 87.062 229.744 87.4781 230.147C87.9071 230.55 88.5182 230.752 89.3113 230.752C90.1043 230.752 90.7089 230.576 91.125 230.225C91.541 229.874 91.749 229.4 91.749 228.802C92.1391 228.776 92.4641 228.854 92.7241 229.036C92.9971 229.205 93.1337 229.458 93.1337 229.796C93.1337 230.212 92.9516 230.602 92.5876 230.966C92.2366 231.33 91.7685 231.623 91.1835 231.844C90.5984 232.065 89.9743 232.176 89.3113 232.176ZM91.7685 226.344V225.681C91.7685 225.031 91.541 224.505 91.0859 224.102C90.6439 223.686 90.0523 223.478 89.3113 223.478C88.5702 223.478 87.9721 223.686 87.5171 224.102C87.075 224.505 86.854 225.031 86.854 225.681V226.344H91.7685ZM95.2694 232.176C95.1004 232.176 94.9184 232.143 94.7234 232.078C94.5284 232.026 94.3658 231.935 94.2358 231.805L97.8242 226.871L94.6454 222.366C94.7494 222.275 94.8924 222.203 95.0744 222.151C95.2694 222.099 95.445 222.073 95.601 222.073C96.095 222.073 96.4591 222.249 96.6931 222.6L98.7213 225.623L98.3508 226.149L98.4483 226.227L100.925 222.6C101.042 222.431 101.198 222.301 101.393 222.21C101.601 222.119 101.822 222.073 102.056 222.073C102.212 222.073 102.381 222.099 102.563 222.151C102.745 222.203 102.888 222.275 102.992 222.366L99.7939 226.871L103.363 231.805C103.246 231.935 103.096 232.026 102.914 232.078C102.745 232.143 102.583 232.176 102.427 232.176C102.219 232.176 102.011 232.13 101.803 232.039C101.595 231.961 101.445 231.85 101.354 231.707L98.7993 227.983L96.264 231.707C96.16 231.863 96.017 231.98 95.835 232.059C95.653 232.137 95.4645 232.176 95.2694 232.176ZM108.242 232.176C107.449 232.176 106.74 232.026 106.116 231.727C105.492 231.415 105.005 230.992 104.654 230.459C104.303 229.913 104.127 229.302 104.127 228.626V225.74C104.127 225.051 104.309 224.427 104.673 223.868C105.05 223.309 105.551 222.873 106.175 222.561C106.812 222.236 107.501 222.073 108.242 222.073C108.983 222.073 109.659 222.229 110.27 222.542C110.894 222.854 111.382 223.283 111.733 223.829C112.097 224.375 112.279 224.992 112.279 225.681V226.929C112.279 227.137 112.201 227.313 112.045 227.456C111.889 227.599 111.7 227.671 111.479 227.671H105.785V228.548C105.785 229.211 105.993 229.744 106.409 230.147C106.838 230.55 107.449 230.752 108.242 230.752C109.035 230.752 109.64 230.576 110.056 230.225C110.472 229.874 110.68 229.4 110.68 228.802C111.07 228.776 111.395 228.854 111.655 229.036C111.928 229.205 112.064 229.458 112.064 229.796C112.064 230.212 111.882 230.602 111.518 230.966C111.167 231.33 110.699 231.623 110.114 231.844C109.529 232.065 108.905 232.176 108.242 232.176ZM110.699 226.344V225.681C110.699 225.031 110.472 224.505 110.017 224.102C109.575 223.686 108.983 223.478 108.242 223.478C107.501 223.478 106.903 223.686 106.448 224.102C106.006 224.505 105.785 225.031 105.785 225.681V226.344H110.699ZM118.762 223.575C118.034 223.575 117.429 223.796 116.948 224.238C116.467 224.667 116.227 225.194 116.227 225.818V230.927C116.227 231.356 116.084 231.675 115.798 231.883C115.525 232.078 115.102 232.176 114.53 232.176V223.517C114.53 222.555 115.076 222.073 116.168 222.073V223.263C115.96 223.484 115.817 223.679 115.739 223.848L115.817 223.926C116.649 222.691 117.689 222.073 118.938 222.073C119.406 222.073 119.763 222.19 120.01 222.424C120.257 222.646 120.381 222.919 120.381 223.244C120.381 223.478 120.322 223.686 120.205 223.868C119.841 223.673 119.36 223.575 118.762 223.575ZM125.458 232.176C124.665 232.176 123.956 232.033 123.332 231.746C122.708 231.46 122.221 231.057 121.87 230.537C121.532 230.017 121.363 229.426 121.363 228.763V225.603C121.363 224.914 121.532 224.303 121.87 223.77C122.221 223.237 122.702 222.821 123.313 222.522C123.924 222.223 124.626 222.073 125.419 222.073C126.16 222.073 126.817 222.184 127.389 222.405C127.974 222.613 128.429 222.912 128.754 223.302C129.079 223.692 129.242 224.134 129.242 224.628C129.242 224.953 129.112 225.22 128.852 225.428C128.604 225.623 128.279 225.707 127.876 225.681C127.876 225.057 127.649 224.55 127.194 224.16C126.752 223.77 126.173 223.575 125.458 223.575C124.743 223.575 124.165 223.77 123.722 224.16C123.28 224.537 123.059 225.031 123.059 225.642V228.685C123.059 229.27 123.287 229.751 123.742 230.128C124.197 230.492 124.782 230.674 125.497 230.674C126.212 230.674 126.791 230.479 127.233 230.089C127.688 229.699 127.915 229.198 127.915 228.587C128.331 228.561 128.663 228.646 128.91 228.841C129.17 229.023 129.3 229.283 129.3 229.621C129.3 230.115 129.138 230.557 128.813 230.947C128.487 231.337 128.032 231.642 127.447 231.863C126.862 232.072 126.199 232.176 125.458 232.176ZM132.824 220.611C132.46 220.611 132.155 220.494 131.908 220.26C131.661 220.026 131.537 219.733 131.537 219.382C131.537 219.031 131.661 218.745 131.908 218.524C132.155 218.29 132.46 218.173 132.824 218.173C133.175 218.173 133.475 218.29 133.722 218.524C133.969 218.745 134.092 219.031 134.092 219.382C134.092 219.733 133.969 220.026 133.722 220.26C133.475 220.494 133.175 220.611 132.824 220.611ZM131.966 223.322C131.966 222.893 132.103 222.581 132.376 222.385C132.662 222.177 133.091 222.073 133.663 222.073V230.927C133.663 231.356 133.52 231.675 133.234 231.883C132.961 232.078 132.538 232.176 131.966 232.176V223.322ZM140.362 232.176C139.699 232.176 139.075 232.078 138.489 231.883C137.904 231.675 137.43 231.382 137.066 231.005C136.715 230.628 136.539 230.186 136.539 229.679C136.539 229.055 136.916 228.717 137.67 228.665C137.8 229.393 138.106 229.933 138.587 230.284C139.081 230.622 139.705 230.791 140.459 230.791C141.213 230.791 141.798 230.68 142.214 230.459C142.63 230.238 142.838 229.9 142.838 229.445C142.838 229.12 142.754 228.86 142.585 228.665C142.416 228.457 142.143 228.282 141.766 228.139C141.402 227.983 140.875 227.833 140.186 227.69C139.328 227.495 138.646 227.287 138.138 227.066C137.631 226.845 137.241 226.552 136.968 226.188C136.708 225.824 136.578 225.343 136.578 224.745C136.578 224.238 136.734 223.783 137.046 223.38C137.358 222.964 137.787 222.646 138.333 222.424C138.893 222.19 139.523 222.073 140.225 222.073C140.875 222.073 141.486 222.164 142.058 222.346C142.643 222.529 143.111 222.789 143.463 223.127C143.827 223.465 144.009 223.855 144.009 224.297C144.009 224.596 143.892 224.836 143.658 225.018C143.424 225.187 143.098 225.285 142.682 225.311C142.643 224.739 142.409 224.29 141.98 223.965C141.564 223.627 140.979 223.458 140.225 223.458C139.601 223.458 139.107 223.575 138.743 223.809C138.379 224.043 138.197 224.355 138.197 224.745C138.197 225.161 138.366 225.473 138.704 225.681C139.055 225.876 139.647 226.065 140.479 226.247C141.844 226.52 142.845 226.897 143.482 227.378C144.132 227.846 144.457 228.516 144.457 229.387C144.457 230.271 144.1 230.96 143.385 231.454C142.669 231.935 141.662 232.176 140.362 232.176ZM150.617 232.176C149.824 232.176 149.115 232.026 148.491 231.727C147.867 231.415 147.38 230.992 147.029 230.459C146.678 229.913 146.502 229.302 146.502 228.626V225.74C146.502 225.051 146.684 224.427 147.048 223.868C147.425 223.309 147.926 222.873 148.55 222.561C149.187 222.236 149.876 222.073 150.617 222.073C151.358 222.073 152.034 222.229 152.645 222.542C153.269 222.854 153.757 223.283 154.108 223.829C154.472 224.375 154.654 224.992 154.654 225.681V226.929C154.654 227.137 154.576 227.313 154.42 227.456C154.264 227.599 154.075 227.671 153.854 227.671H148.16V228.548C148.16 229.211 148.368 229.744 148.784 230.147C149.213 230.55 149.824 230.752 150.617 230.752C151.41 230.752 152.015 230.576 152.431 230.225C152.847 229.874 153.055 229.4 153.055 228.802C153.445 228.776 153.77 228.854 154.03 229.036C154.303 229.205 154.439 229.458 154.439 229.796C154.439 230.212 154.257 230.602 153.893 230.966C153.542 231.33 153.074 231.623 152.489 231.844C151.904 232.065 151.28 232.176 150.617 232.176ZM153.074 226.344V225.681C153.074 225.031 152.847 224.505 152.392 224.102C151.95 223.686 151.358 223.478 150.617 223.478C149.876 223.478 149.278 223.686 148.823 224.102C148.381 224.505 148.16 225.031 148.16 225.681V226.344H153.074ZM160.435 232.176C159.772 232.176 159.148 232.078 158.563 231.883C157.978 231.675 157.503 231.382 157.139 231.005C156.788 230.628 156.613 230.186 156.613 229.679C156.613 229.055 156.99 228.717 157.744 228.665C157.874 229.393 158.179 229.933 158.66 230.284C159.154 230.622 159.779 230.791 160.533 230.791C161.287 230.791 161.872 230.68 162.288 230.459C162.704 230.238 162.912 229.9 162.912 229.445C162.912 229.12 162.827 228.86 162.658 228.665C162.489 228.457 162.216 228.282 161.839 228.139C161.475 227.983 160.949 227.833 160.26 227.69C159.401 227.495 158.719 227.287 158.212 227.066C157.705 226.845 157.315 226.552 157.042 226.188C156.782 225.824 156.652 225.343 156.652 224.745C156.652 224.238 156.808 223.783 157.12 223.38C157.432 222.964 157.861 222.646 158.407 222.424C158.966 222.19 159.596 222.073 160.299 222.073C160.949 222.073 161.56 222.164 162.132 222.346C162.717 222.529 163.185 222.789 163.536 223.127C163.9 223.465 164.082 223.855 164.082 224.297C164.082 224.596 163.965 224.836 163.731 225.018C163.497 225.187 163.172 225.285 162.756 225.311C162.717 224.739 162.483 224.29 162.054 223.965C161.638 223.627 161.053 223.458 160.299 223.458C159.675 223.458 159.18 223.575 158.816 223.809C158.452 224.043 158.27 224.355 158.27 224.745C158.27 225.161 158.439 225.473 158.777 225.681C159.128 225.876 159.72 226.065 160.552 226.247C161.917 226.52 162.918 226.897 163.555 227.378C164.205 227.846 164.531 228.516 164.531 229.387C164.531 230.271 164.173 230.96 163.458 231.454C162.743 231.935 161.735 232.176 160.435 232.176Z" fill="#B8F14A"/>
<path d="M69.4093 203V185.059H72.7412V200.181H82.122V203H69.4093ZM90.753 203.179C89.2323 203.179 87.8995 202.88 86.7547 202.282C85.6269 201.667 84.747 200.83 84.1147 199.771C83.4996 198.711 83.192 197.507 83.192 196.157C83.192 194.79 83.4911 193.585 84.0891 192.543C84.7042 191.483 85.5415 190.655 86.6009 190.057C87.6774 189.459 88.8991 189.16 90.2661 189.16C91.5988 189.16 92.7864 189.45 93.8287 190.031C94.871 190.612 95.6912 191.432 96.2892 192.492C96.8873 193.551 97.1863 194.798 97.1863 196.234C97.1863 196.37 97.1777 196.524 97.1607 196.695C97.1607 196.866 97.1521 197.028 97.135 197.182H85.7295V195.055H95.4434L94.1875 195.721C94.2046 194.935 94.0423 194.243 93.7005 193.645C93.3588 193.047 92.8889 192.577 92.2909 192.235C91.7099 191.893 91.035 191.723 90.2661 191.723C89.4801 191.723 88.788 191.893 88.19 192.235C87.609 192.577 87.1477 193.055 86.8059 193.671C86.4813 194.269 86.319 194.978 86.319 195.798V196.31C86.319 197.131 86.5069 197.857 86.8828 198.489C87.2588 199.121 87.7884 199.608 88.4719 199.95C89.1554 200.292 89.9414 200.463 90.8299 200.463C91.5988 200.463 92.2909 200.343 92.906 200.104C93.5211 199.865 94.0679 199.489 94.5463 198.976L96.2636 200.95C95.6485 201.667 94.871 202.223 93.9312 202.616C93.0085 202.991 91.9491 203.179 90.753 203.179ZM106.466 208.152C105.202 208.152 103.963 207.981 102.75 207.639C101.554 207.314 100.571 206.836 99.8024 206.204L101.238 203.795C101.836 204.29 102.588 204.683 103.493 204.974C104.416 205.281 105.347 205.435 106.287 205.435C107.791 205.435 108.893 205.085 109.593 204.384C110.294 203.701 110.644 202.667 110.644 201.283V198.848L110.9 195.747L110.798 192.645V189.313H113.848V200.924C113.848 203.402 113.216 205.221 111.951 206.383C110.687 207.562 108.858 208.152 106.466 208.152ZM106.056 202.385C104.758 202.385 103.579 202.111 102.519 201.565C101.477 201.001 100.648 200.223 100.033 199.232C99.435 198.241 99.136 197.079 99.136 195.747C99.136 194.431 99.435 193.278 100.033 192.286C100.648 191.295 101.477 190.527 102.519 189.98C103.579 189.433 104.758 189.16 106.056 189.16C107.218 189.16 108.26 189.39 109.183 189.852C110.106 190.313 110.841 191.031 111.387 192.005C111.951 192.978 112.233 194.226 112.233 195.747C112.233 197.267 111.951 198.523 111.387 199.514C110.841 200.488 110.106 201.214 109.183 201.693C108.26 202.154 107.218 202.385 106.056 202.385ZM106.543 199.668C107.346 199.668 108.064 199.506 108.696 199.181C109.328 198.839 109.815 198.378 110.157 197.797C110.516 197.199 110.695 196.515 110.695 195.747C110.695 194.978 110.516 194.303 110.157 193.722C109.815 193.124 109.328 192.671 108.696 192.363C108.064 192.039 107.346 191.876 106.543 191.876C105.74 191.876 105.014 192.039 104.365 192.363C103.732 192.671 103.237 193.124 102.878 193.722C102.536 194.303 102.365 194.978 102.365 195.747C102.365 196.515 102.536 197.199 102.878 197.797C103.237 198.378 103.732 198.839 104.365 199.181C105.014 199.506 105.74 199.668 106.543 199.668ZM125.451 203V185.059H133.294C135.242 185.059 136.95 185.435 138.42 186.186C139.889 186.938 141.034 187.981 141.854 189.313C142.675 190.646 143.085 192.218 143.085 194.029C143.085 195.823 142.675 197.395 141.854 198.745C141.034 200.078 139.889 201.12 138.42 201.872C136.95 202.624 135.242 203 133.294 203H125.451ZM128.783 200.181H133.14C134.49 200.181 135.652 199.924 136.626 199.412C137.617 198.899 138.377 198.181 138.907 197.259C139.454 196.336 139.727 195.26 139.727 194.029C139.727 192.782 139.454 191.706 138.907 190.8C138.377 189.877 137.617 189.16 136.626 188.647C135.652 188.134 134.49 187.878 133.14 187.878H128.783V200.181ZM154.751 203V200.232L154.572 199.642V194.798C154.572 193.858 154.29 193.132 153.726 192.62C153.162 192.09 152.307 191.825 151.163 191.825C150.394 191.825 149.633 191.945 148.882 192.184C148.147 192.423 147.523 192.756 147.011 193.184L145.755 190.851C146.489 190.287 147.361 189.869 148.369 189.595C149.394 189.305 150.454 189.16 151.547 189.16C153.529 189.16 155.058 189.638 156.135 190.595C157.229 191.535 157.775 192.996 157.775 194.978V203H154.751ZM150.445 203.179C149.42 203.179 148.523 203.009 147.754 202.667C146.985 202.308 146.387 201.821 145.96 201.206C145.55 200.574 145.345 199.865 145.345 199.079C145.345 198.31 145.524 197.618 145.883 197.002C146.259 196.387 146.865 195.9 147.703 195.542C148.54 195.183 149.65 195.003 151.035 195.003H155.007V197.131H151.265C150.172 197.131 149.437 197.31 149.061 197.669C148.685 198.011 148.497 198.438 148.497 198.95C148.497 199.531 148.728 199.993 149.189 200.334C149.65 200.676 150.291 200.847 151.111 200.847C151.897 200.847 152.598 200.668 153.213 200.309C153.845 199.95 154.298 199.42 154.572 198.72L155.11 200.642C154.802 201.445 154.247 202.069 153.444 202.513C152.658 202.957 151.658 203.179 150.445 203.179ZM162.764 208.152C162.098 208.152 161.432 208.041 160.765 207.819C160.099 207.596 159.544 207.289 159.099 206.896L160.381 204.538C160.705 204.828 161.073 205.059 161.483 205.23C161.893 205.401 162.312 205.486 162.739 205.486C163.32 205.486 163.79 205.341 164.148 205.05C164.507 204.76 164.841 204.273 165.148 203.59L165.943 201.795L166.199 201.411L171.376 189.313H174.452L168.044 204.102C167.617 205.127 167.139 205.939 166.609 206.537C166.096 207.135 165.515 207.554 164.866 207.793C164.234 208.032 163.533 208.152 162.764 208.152ZM165.584 203.487L159.407 189.313H162.739L167.762 201.129L165.584 203.487Z" fill="white"/>
<rect x="14" y="275" width="362.192" height="95.7386" rx="24.223" fill="black"/>
<circle cx="346.596" cy="323.5" r="17.5" transform="rotate(-180 346.596 323.5)" fill="white"/>
<path d="M341.927 321.788L342.435 322.676C342.758 323.241 342.919 323.524 342.919 323.833C342.919 324.143 342.758 324.426 342.435 324.991L341.927 325.879C340.483 328.407 339.76 329.671 340.324 330.298C340.887 330.925 342.221 330.341 344.888 329.174L344.888 329.174L352.21 325.971C354.305 325.055 355.352 324.596 355.352 323.833C355.352 323.07 354.305 322.612 352.21 321.696L344.888 318.493C342.221 317.325 340.887 316.742 340.324 317.369C339.76 317.996 340.483 319.26 341.927 321.788Z" fill="white" stroke="black" stroke-width="2.33333"/>
<path d="M346.596 305.875C348.91 305.875 351.202 306.331 353.341 307.217C355.479 308.102 357.422 309.401 359.059 311.037C360.695 312.674 361.994 314.617 362.879 316.755C363.765 318.894 364.221 321.185 364.221 323.5C364.221 325.815 363.765 328.106 362.879 330.245C361.994 332.383 360.695 334.326 359.059 335.963C357.422 337.599 355.479 338.898 353.341 339.783C351.202 340.669 348.91 341.125 346.596 341.125C344.281 341.125 341.99 340.669 339.851 339.783C337.713 338.898 335.77 337.599 334.133 335.963C332.497 334.326 331.198 332.383 330.313 330.245C329.427 328.106 328.971 325.815 328.971 323.5C328.971 321.185 329.427 318.894 330.313 316.755C331.198 314.617 332.497 312.674 334.133 311.037C335.77 309.401 337.713 308.102 339.851 307.217C341.99 306.331 344.281 305.875 346.596 305.875L346.596 305.875Z" stroke="black" stroke-width="3.08333" stroke-linecap="round"/>
<path d="M74.8773 345.607H68.5781C68.3311 345.607 68.1361 345.542 67.993 345.412C67.85 345.282 67.7785 345.106 67.7785 344.885C67.7785 344.677 67.85 344.482 67.993 344.3L75.1308 335.485C75.2088 335.394 75.3193 335.323 75.4623 335.271C75.6053 335.206 75.7614 335.173 75.9304 335.173C76.1774 335.173 76.3724 335.251 76.5154 335.407C76.6585 335.55 76.73 335.745 76.73 335.992V344.007H79.0117C79.0117 344.567 78.9012 344.976 78.6802 345.236C78.4721 345.483 78.1406 345.607 77.6856 345.607H76.73V347.791C76.73 348.714 76.1124 349.176 74.8773 349.176V345.607ZM74.9553 344.007V338.352L75.5598 337.552L75.4428 337.474L70.2553 344.007H74.9553ZM90.0166 349.176C89.2236 349.176 88.515 349.026 87.8909 348.727C87.2669 348.415 86.7793 347.992 86.4283 347.459C86.0772 346.913 85.9017 346.302 85.9017 345.626V342.74C85.9017 342.051 86.0837 341.427 86.4478 340.868C86.8248 340.309 87.3254 339.873 87.9494 339.561C88.5865 339.236 89.2756 339.073 90.0166 339.073C90.7577 339.073 91.4338 339.229 92.0449 339.542C92.6689 339.854 93.1565 340.283 93.5075 340.829C93.8716 341.375 94.0536 341.992 94.0536 342.681V343.929C94.0536 344.137 93.9756 344.313 93.8195 344.456C93.6635 344.599 93.475 344.671 93.254 344.671H87.5594V345.548C87.5594 346.211 87.7674 346.744 88.1835 347.147C88.6125 347.55 89.2236 347.752 90.0166 347.752C90.8097 347.752 91.4143 347.576 91.8303 347.225C92.2464 346.874 92.4544 346.4 92.4544 345.802C92.8444 345.776 93.1695 345.854 93.4295 346.036C93.7025 346.205 93.839 346.458 93.839 346.796C93.839 347.212 93.657 347.602 93.293 347.966C92.942 348.33 92.4739 348.623 91.8888 348.844C91.3038 349.065 90.6797 349.176 90.0166 349.176ZM92.4739 343.344V342.681C92.4739 342.031 92.2464 341.505 91.7913 341.102C91.3493 340.686 90.7577 340.478 90.0166 340.478C89.2756 340.478 88.6775 340.686 88.2225 341.102C87.7804 341.505 87.5594 342.031 87.5594 342.681V343.344H92.4739ZM95.9748 349.176C95.8058 349.176 95.6238 349.143 95.4288 349.078C95.2338 349.026 95.0712 348.935 94.9412 348.805L98.5296 343.871L95.3508 339.366C95.4548 339.275 95.5978 339.203 95.7798 339.151C95.9748 339.099 96.1503 339.073 96.3064 339.073C96.8004 339.073 97.1645 339.249 97.3985 339.6L99.4267 342.623L99.0562 343.149L99.1537 343.227L101.63 339.6C101.747 339.431 101.903 339.301 102.098 339.21C102.306 339.119 102.528 339.073 102.762 339.073C102.918 339.073 103.087 339.099 103.269 339.151C103.451 339.203 103.594 339.275 103.698 339.366L100.499 343.871L104.068 348.805C103.951 348.935 103.802 349.026 103.62 349.078C103.451 349.143 103.288 349.176 103.132 349.176C102.924 349.176 102.716 349.13 102.508 349.039C102.3 348.961 102.15 348.85 102.059 348.707L99.5047 344.983L96.9694 348.707C96.8654 348.863 96.7224 348.98 96.5404 349.059C96.3584 349.137 96.1698 349.176 95.9748 349.176ZM108.947 349.176C108.154 349.176 107.446 349.026 106.822 348.727C106.198 348.415 105.71 347.992 105.359 347.459C105.008 346.913 104.832 346.302 104.832 345.626V342.74C104.832 342.051 105.014 341.427 105.378 340.868C105.756 340.309 106.256 339.873 106.88 339.561C107.517 339.236 108.206 339.073 108.947 339.073C109.688 339.073 110.364 339.229 110.976 339.542C111.6 339.854 112.087 340.283 112.438 340.829C112.802 341.375 112.984 341.992 112.984 342.681V343.929C112.984 344.137 112.906 344.313 112.75 344.456C112.594 344.599 112.406 344.671 112.185 344.671H106.49V345.548C106.49 346.211 106.698 346.744 107.114 347.147C107.543 347.55 108.154 347.752 108.947 347.752C109.74 347.752 110.345 347.576 110.761 347.225C111.177 346.874 111.385 346.4 111.385 345.802C111.775 345.776 112.1 345.854 112.36 346.036C112.633 346.205 112.77 346.458 112.77 346.796C112.77 347.212 112.588 347.602 112.224 347.966C111.873 348.33 111.405 348.623 110.82 348.844C110.234 349.065 109.61 349.176 108.947 349.176ZM111.405 343.344V342.681C111.405 342.031 111.177 341.505 110.722 341.102C110.28 340.686 109.688 340.478 108.947 340.478C108.206 340.478 107.608 340.686 107.153 341.102C106.711 341.505 106.49 342.031 106.49 342.681V343.344H111.405ZM119.467 340.575C118.739 340.575 118.135 340.796 117.654 341.238C117.173 341.667 116.932 342.194 116.932 342.818V347.927C116.932 348.356 116.789 348.675 116.503 348.883C116.23 349.078 115.808 349.176 115.236 349.176V340.517C115.236 339.555 115.782 339.073 116.874 339.073V340.263C116.666 340.484 116.523 340.679 116.445 340.848L116.523 340.926C117.355 339.691 118.395 339.073 119.643 339.073C120.111 339.073 120.469 339.19 120.716 339.424C120.963 339.646 121.086 339.919 121.086 340.244C121.086 340.478 121.028 340.686 120.911 340.868C120.547 340.673 120.066 340.575 119.467 340.575ZM126.164 349.176C125.37 349.176 124.662 349.033 124.038 348.746C123.414 348.46 122.926 348.057 122.575 347.537C122.237 347.017 122.068 346.426 122.068 345.763V342.603C122.068 341.914 122.237 341.303 122.575 340.77C122.926 340.237 123.407 339.821 124.018 339.522C124.629 339.223 125.331 339.073 126.125 339.073C126.866 339.073 127.522 339.184 128.094 339.405C128.679 339.613 129.134 339.912 129.459 340.302C129.784 340.692 129.947 341.134 129.947 341.628C129.947 341.953 129.817 342.22 129.557 342.428C129.31 342.623 128.985 342.707 128.582 342.681C128.582 342.057 128.354 341.55 127.899 341.16C127.457 340.77 126.879 340.575 126.164 340.575C125.448 340.575 124.87 340.77 124.428 341.16C123.986 341.537 123.765 342.031 123.765 342.642V345.685C123.765 346.27 123.992 346.751 124.447 347.128C124.902 347.492 125.487 347.674 126.203 347.674C126.918 347.674 127.496 347.479 127.938 347.089C128.393 346.699 128.621 346.198 128.621 345.587C129.037 345.561 129.368 345.646 129.615 345.841C129.875 346.023 130.005 346.283 130.005 346.621C130.005 347.115 129.843 347.557 129.518 347.947C129.193 348.337 128.738 348.642 128.153 348.863C127.568 349.072 126.905 349.176 126.164 349.176ZM133.53 337.611C133.166 337.611 132.86 337.494 132.613 337.26C132.366 337.026 132.243 336.733 132.243 336.382C132.243 336.031 132.366 335.745 132.613 335.524C132.86 335.29 133.166 335.173 133.53 335.173C133.881 335.173 134.18 335.29 134.427 335.524C134.674 335.745 134.797 336.031 134.797 336.382C134.797 336.733 134.674 337.026 134.427 337.26C134.18 337.494 133.881 337.611 133.53 337.611ZM132.672 340.322C132.672 339.893 132.808 339.581 133.081 339.385C133.367 339.177 133.796 339.073 134.368 339.073V347.927C134.368 348.356 134.225 348.675 133.939 348.883C133.666 349.078 133.244 349.176 132.672 349.176V340.322ZM141.067 349.176C140.404 349.176 139.78 349.078 139.195 348.883C138.61 348.675 138.135 348.382 137.771 348.005C137.42 347.628 137.245 347.186 137.245 346.679C137.245 346.055 137.622 345.717 138.376 345.665C138.506 346.393 138.811 346.933 139.292 347.284C139.786 347.622 140.411 347.791 141.165 347.791C141.919 347.791 142.504 347.68 142.92 347.459C143.336 347.238 143.544 346.9 143.544 346.445C143.544 346.12 143.459 345.86 143.29 345.665C143.121 345.457 142.848 345.282 142.471 345.139C142.107 344.983 141.581 344.833 140.892 344.69C140.033 344.495 139.351 344.287 138.844 344.066C138.337 343.845 137.947 343.552 137.674 343.188C137.414 342.824 137.284 342.343 137.284 341.745C137.284 341.238 137.44 340.783 137.752 340.38C138.064 339.964 138.493 339.646 139.039 339.424C139.598 339.19 140.228 339.073 140.931 339.073C141.581 339.073 142.192 339.164 142.764 339.346C143.349 339.529 143.817 339.789 144.168 340.127C144.532 340.465 144.714 340.855 144.714 341.297C144.714 341.596 144.597 341.836 144.363 342.018C144.129 342.187 143.804 342.285 143.388 342.311C143.349 341.739 143.115 341.29 142.686 340.965C142.27 340.627 141.685 340.458 140.931 340.458C140.306 340.458 139.812 340.575 139.448 340.809C139.084 341.043 138.902 341.355 138.902 341.745C138.902 342.161 139.071 342.473 139.409 342.681C139.76 342.876 140.352 343.065 141.184 343.247C142.549 343.52 143.55 343.897 144.187 344.378C144.837 344.846 145.163 345.516 145.163 346.387C145.163 347.271 144.805 347.96 144.09 348.454C143.375 348.935 142.367 349.176 141.067 349.176ZM151.322 349.176C150.529 349.176 149.821 349.026 149.197 348.727C148.573 348.415 148.085 347.992 147.734 347.459C147.383 346.913 147.207 346.302 147.207 345.626V342.74C147.207 342.051 147.389 341.427 147.754 340.868C148.131 340.309 148.631 339.873 149.255 339.561C149.892 339.236 150.581 339.073 151.322 339.073C152.063 339.073 152.74 339.229 153.351 339.542C153.975 339.854 154.462 340.283 154.813 340.829C155.177 341.375 155.359 341.992 155.359 342.681V343.929C155.359 344.137 155.281 344.313 155.125 344.456C154.969 344.599 154.781 344.671 154.56 344.671H148.865V345.548C148.865 346.211 149.073 346.744 149.489 347.147C149.918 347.55 150.529 347.752 151.322 347.752C152.115 347.752 152.72 347.576 153.136 347.225C153.552 346.874 153.76 346.4 153.76 345.802C154.15 345.776 154.475 345.854 154.735 346.036C155.008 346.205 155.145 346.458 155.145 346.796C155.145 347.212 154.963 347.602 154.599 347.966C154.248 348.33 153.78 348.623 153.195 348.844C152.61 349.065 151.985 349.176 151.322 349.176ZM153.78 343.344V342.681C153.78 342.031 153.552 341.505 153.097 341.102C152.655 340.686 152.063 340.478 151.322 340.478C150.581 340.478 149.983 340.686 149.528 341.102C149.086 341.505 148.865 342.031 148.865 342.681V343.344H153.78ZM161.14 349.176C160.477 349.176 159.853 349.078 159.268 348.883C158.683 348.675 158.209 348.382 157.845 348.005C157.494 347.628 157.318 347.186 157.318 346.679C157.318 346.055 157.695 345.717 158.449 345.665C158.579 346.393 158.885 346.933 159.366 347.284C159.86 347.622 160.484 347.791 161.238 347.791C161.992 347.791 162.577 347.68 162.993 347.459C163.409 347.238 163.617 346.9 163.617 346.445C163.617 346.12 163.533 345.86 163.364 345.665C163.195 345.457 162.922 345.282 162.545 345.139C162.181 344.983 161.654 344.833 160.965 344.69C160.107 344.495 159.424 344.287 158.917 344.066C158.41 343.845 158.02 343.552 157.747 343.188C157.487 342.824 157.357 342.343 157.357 341.745C157.357 341.238 157.513 340.783 157.825 340.38C158.137 339.964 158.566 339.646 159.112 339.424C159.671 339.19 160.302 339.073 161.004 339.073C161.654 339.073 162.265 339.164 162.837 339.346C163.422 339.529 163.89 339.789 164.241 340.127C164.605 340.465 164.787 340.855 164.787 341.297C164.787 341.596 164.67 341.836 164.436 342.018C164.202 342.187 163.877 342.285 163.461 342.311C163.422 341.739 163.188 341.29 162.759 340.965C162.343 340.627 161.758 340.458 161.004 340.458C160.38 340.458 159.886 340.575 159.522 340.809C159.158 341.043 158.976 341.355 158.976 341.745C158.976 342.161 159.145 342.473 159.483 342.681C159.834 342.876 160.425 343.065 161.257 343.247C162.623 343.52 163.624 343.897 164.261 344.378C164.911 344.846 165.236 345.516 165.236 346.387C165.236 347.271 164.878 347.96 164.163 348.454C163.448 348.935 162.441 349.176 161.14 349.176Z" fill="#B8F14A"/>
<path d="M77.8095 320.256C76.4425 320.256 75.1695 320.034 73.9905 319.59C72.8286 319.129 71.812 318.488 70.9405 317.668C70.0862 316.83 69.4198 315.848 68.9413 314.72C68.4629 313.592 68.2237 312.362 68.2237 311.029C68.2237 309.697 68.4629 308.466 68.9413 307.339C69.4198 306.211 70.0947 305.237 70.9661 304.417C71.8376 303.579 72.8543 302.939 74.0162 302.494C75.1781 302.033 76.4511 301.802 77.8351 301.802C79.3046 301.802 80.6459 302.059 81.8591 302.571C83.0723 303.067 84.0975 303.81 84.9348 304.801L82.7818 306.826C82.1325 306.125 81.4063 305.604 80.6032 305.262C79.8001 304.904 78.9287 304.724 77.9889 304.724C77.0491 304.724 76.1862 304.878 75.4002 305.186C74.6313 305.493 73.9564 305.929 73.3754 306.493C72.8115 307.057 72.3673 307.723 72.0426 308.492C71.7351 309.261 71.5813 310.107 71.5813 311.029C71.5813 311.952 71.7351 312.798 72.0426 313.567C72.3673 314.336 72.8115 315.002 73.3754 315.566C73.9564 316.13 74.6313 316.566 75.4002 316.873C76.1862 317.181 77.0491 317.334 77.9889 317.334C78.9287 317.334 79.8001 317.164 80.6032 316.822C81.4063 316.463 82.1325 315.925 82.7818 315.207L84.9348 317.258C84.0975 318.231 83.0723 318.975 81.8591 319.487C80.6459 320 79.2961 320.256 77.8095 320.256ZM95.5858 306.16C96.6794 306.16 97.6533 306.373 98.5077 306.8C99.3791 307.227 100.063 307.885 100.558 308.774C101.054 309.645 101.301 310.773 101.301 312.157V320H98.0976V312.567C98.0976 311.354 97.8071 310.448 97.2262 309.85C96.6623 309.252 95.8678 308.953 94.8425 308.953C94.0907 308.953 93.4243 309.107 92.8434 309.415C92.2624 309.722 91.8096 310.184 91.4849 310.799C91.1774 311.397 91.0236 312.157 91.0236 313.08V320H87.8198V300.982H91.0236V310.004L90.3316 308.876C90.81 308.005 91.502 307.339 92.4076 306.877C93.3303 306.399 94.3897 306.16 95.5858 306.16ZM111.824 320.179C110.303 320.179 108.97 319.88 107.826 319.282C106.698 318.667 105.818 317.83 105.186 316.771C104.57 315.711 104.263 314.507 104.263 313.157C104.263 311.79 104.562 310.585 105.16 309.543C105.775 308.483 106.612 307.655 107.672 307.057C108.748 306.459 109.97 306.16 111.337 306.16C112.67 306.16 113.857 306.45 114.9 307.031C115.942 307.612 116.762 308.432 117.36 309.492C117.958 310.551 118.257 311.798 118.257 313.234C118.257 313.37 118.249 313.524 118.232 313.695C118.232 313.866 118.223 314.028 118.206 314.182H106.8V312.055H116.514L115.258 312.721C115.275 311.935 115.113 311.243 114.771 310.645C114.43 310.047 113.96 309.577 113.362 309.235C112.781 308.893 112.106 308.723 111.337 308.723C110.551 308.723 109.859 308.893 109.261 309.235C108.68 309.577 108.219 310.055 107.877 310.671C107.552 311.269 107.39 311.978 107.39 312.798V313.31C107.39 314.131 107.578 314.857 107.954 315.489C108.33 316.121 108.859 316.608 109.543 316.95C110.226 317.292 111.012 317.463 111.901 317.463C112.67 317.463 113.362 317.343 113.977 317.104C114.592 316.865 115.139 316.489 115.617 315.976L117.334 317.95C116.719 318.667 115.942 319.223 115.002 319.616C114.079 319.991 113.02 320.179 111.824 320.179ZM125.564 320.179C124.419 320.179 123.317 320.034 122.257 319.744C121.215 319.436 120.386 319.069 119.771 318.642L121.001 316.207C121.617 316.6 122.351 316.924 123.206 317.181C124.06 317.437 124.914 317.565 125.769 317.565C126.777 317.565 127.503 317.428 127.947 317.155C128.409 316.882 128.639 316.514 128.639 316.053C128.639 315.677 128.486 315.395 128.178 315.207C127.87 315.002 127.469 314.848 126.973 314.746C126.478 314.643 125.922 314.549 125.307 314.464C124.709 314.378 124.103 314.267 123.488 314.131C122.89 313.977 122.343 313.763 121.847 313.49C121.352 313.199 120.95 312.815 120.643 312.336C120.335 311.858 120.181 311.226 120.181 310.44C120.181 309.568 120.429 308.817 120.925 308.184C121.42 307.535 122.112 307.04 123.001 306.698C123.906 306.339 124.974 306.16 126.204 306.16C127.127 306.16 128.058 306.262 128.998 306.467C129.938 306.672 130.715 306.963 131.331 307.339L130.1 309.773C129.451 309.38 128.793 309.116 128.127 308.979C127.477 308.825 126.828 308.748 126.179 308.748C125.205 308.748 124.479 308.893 124 309.184C123.539 309.474 123.308 309.842 123.308 310.286C123.308 310.696 123.462 311.004 123.77 311.209C124.077 311.414 124.479 311.576 124.974 311.696C125.47 311.815 126.016 311.918 126.615 312.003C127.23 312.072 127.836 312.183 128.434 312.336C129.032 312.49 129.579 312.704 130.075 312.977C130.587 313.234 130.997 313.601 131.305 314.079C131.612 314.558 131.766 315.181 131.766 315.95C131.766 316.805 131.51 317.548 130.997 318.18C130.502 318.812 129.793 319.308 128.87 319.667C127.947 320.009 126.845 320.179 125.564 320.179ZM139.677 320.179C138.173 320.179 137.011 319.795 136.191 319.026C135.371 318.24 134.961 317.087 134.961 315.566V303.289H138.165V315.489C138.165 316.138 138.327 316.642 138.652 317.001C138.994 317.36 139.463 317.539 140.061 317.539C140.779 317.539 141.377 317.352 141.856 316.976L142.753 319.257C142.377 319.564 141.915 319.795 141.369 319.949C140.822 320.103 140.258 320.179 139.677 320.179ZM132.706 308.979V306.416H141.83V308.979H132.706ZM152.779 320V302.059H160.622C162.57 302.059 164.279 302.435 165.748 303.186C167.218 303.938 168.363 304.981 169.183 306.313C170.003 307.646 170.413 309.218 170.413 311.029C170.413 312.823 170.003 314.395 169.183 315.745C168.363 317.078 167.218 318.12 165.748 318.872C164.279 319.624 162.57 320 160.622 320H152.779ZM156.111 317.181H160.468C161.818 317.181 162.98 316.924 163.954 316.412C164.945 315.899 165.706 315.181 166.235 314.259C166.782 313.336 167.055 312.26 167.055 311.029C167.055 309.782 166.782 308.706 166.235 307.8C165.706 306.877 164.945 306.16 163.954 305.647C162.98 305.134 161.818 304.878 160.468 304.878H156.111V317.181ZM182.079 320V317.232L181.9 316.642V311.798C181.9 310.858 181.618 310.132 181.054 309.62C180.49 309.09 179.636 308.825 178.491 308.825C177.722 308.825 176.962 308.945 176.21 309.184C175.475 309.423 174.851 309.756 174.339 310.184L173.083 307.851C173.818 307.287 174.689 306.869 175.697 306.595C176.722 306.305 177.782 306.16 178.875 306.16C180.858 306.16 182.387 306.638 183.463 307.595C184.557 308.535 185.104 309.996 185.104 311.978V320H182.079ZM177.773 320.179C176.748 320.179 175.851 320.009 175.082 319.667C174.313 319.308 173.715 318.821 173.288 318.206C172.878 317.574 172.673 316.865 172.673 316.079C172.673 315.31 172.852 314.618 173.211 314.002C173.587 313.387 174.194 312.9 175.031 312.542C175.868 312.183 176.979 312.003 178.363 312.003H182.336V314.131H178.593C177.5 314.131 176.765 314.31 176.389 314.669C176.013 315.011 175.825 315.438 175.825 315.95C175.825 316.531 176.056 316.993 176.517 317.334C176.979 317.676 177.62 317.847 178.44 317.847C179.226 317.847 179.926 317.668 180.541 317.309C181.174 316.95 181.626 316.42 181.9 315.72L182.438 317.642C182.131 318.445 181.575 319.069 180.772 319.513C179.986 319.957 178.987 320.179 177.773 320.179ZM190.093 325.152C189.426 325.152 188.76 325.041 188.094 324.819C187.427 324.596 186.872 324.289 186.428 323.896L187.709 321.538C188.034 321.828 188.401 322.059 188.811 322.23C189.221 322.401 189.64 322.486 190.067 322.486C190.648 322.486 191.118 322.341 191.477 322.05C191.836 321.76 192.169 321.273 192.476 320.59L193.271 318.795L193.527 318.411L198.705 306.313H201.78L195.373 321.102C194.945 322.127 194.467 322.939 193.937 323.537C193.425 324.135 192.844 324.554 192.194 324.793C191.562 325.032 190.862 325.152 190.093 325.152ZM192.912 320.487L186.735 306.313H190.067L195.091 318.129L192.912 320.487Z" fill="white"/>
<circle cx="359.5" cy="60.5" r="18.5" fill="white"/>
<ellipse cx="360.094" cy="60.5944" rx="19.0938" ry="18.5944" stroke="#33363F" stroke-width="3.91667"/>
<path d="M360 68L360 53" stroke="#33363F" stroke-width="3.91667" stroke-linecap="square"/>
<path d="M368 61L353 61" stroke="#33363F" stroke-width="3.91667" stroke-linecap="square"/>
</g>
<defs>
<clipPath id="clip0_128_2288">
<rect width="390" height="844" fill="white"/>
</clipPath>
</defs>
</svg>
