<svg width="390" height="844" viewBox="0 0 390 844" fill="none" xmlns="http://www.w3.org/2000/svg">
<rect width="390" height="844" fill="#2C2C2E"/>
<path d="M0 0H390V348C390 397.706 349.706 438 300 438H90C40.2944 438 0 397.706 0 348V0Z" fill="#B8F14A"/>
<path d="M108.528 373.324C107.736 373.324 107.196 372.964 106.908 372.244L97.62 347.8C97.812 347.704 98.04 347.632 98.304 347.584C98.568 347.512 98.808 347.476 99.024 347.476C99.696 347.476 100.26 347.644 100.716 347.98C101.196 348.292 101.544 348.736 101.76 349.312L108.348 367.708L107.7 369.544L107.988 369.652L115.296 349.312C115.512 348.736 115.86 348.292 116.34 347.98C116.82 347.644 117.396 347.476 118.068 347.476C118.476 347.476 118.944 347.584 119.472 347.8L110.184 372.244C110.064 372.58 109.86 372.844 109.572 373.036C109.284 373.228 108.936 373.324 108.528 373.324ZM127.799 373.324C126.335 373.324 125.027 373.048 123.875 372.496C122.723 371.92 121.823 371.14 121.175 370.156C120.527 369.148 120.203 368.02 120.203 366.772V361.444C120.203 360.172 120.539 359.02 121.211 357.988C121.907 356.956 122.831 356.152 123.983 355.576C125.159 354.976 126.431 354.676 127.799 354.676C129.167 354.676 130.415 354.964 131.543 355.54C132.695 356.116 133.595 356.908 134.243 357.916C134.915 358.924 135.251 360.064 135.251 361.336V363.64C135.251 364.024 135.107 364.348 134.819 364.612C134.531 364.876 134.183 365.008 133.775 365.008H123.263V366.628C123.263 367.852 123.647 368.836 124.415 369.58C125.207 370.324 126.335 370.696 127.799 370.696C129.263 370.696 130.379 370.372 131.147 369.724C131.915 369.076 132.299 368.2 132.299 367.096C133.019 367.048 133.619 367.192 134.099 367.528C134.603 367.84 134.855 368.308 134.855 368.932C134.855 369.7 134.519 370.42 133.847 371.092C133.199 371.764 132.335 372.304 131.255 372.712C130.175 373.12 129.023 373.324 127.799 373.324ZM132.335 362.56V361.336C132.335 360.136 131.915 359.164 131.075 358.42C130.259 357.652 129.167 357.268 127.799 357.268C126.431 357.268 125.327 357.652 124.487 358.42C123.671 359.164 123.263 360.136 123.263 361.336V362.56H132.335ZM139.407 357.34C139.407 355.564 140.415 354.676 142.431 354.676V356.98C142.215 357.196 141.963 357.52 141.675 357.952L141.819 358.096C142.539 357.088 143.475 356.272 144.627 355.648C145.779 355 147.027 354.676 148.371 354.676C150.315 354.676 151.851 355.252 152.979 356.404C154.107 357.556 154.671 359.044 154.671 360.868V371.02C154.671 371.812 154.407 372.4 153.879 372.784C153.375 373.144 152.595 373.324 151.539 373.324V361.192C151.539 360.04 151.215 359.128 150.567 358.456C149.919 357.784 148.935 357.448 147.615 357.448C146.727 357.448 145.887 357.64 145.095 358.024C144.327 358.384 143.703 358.888 143.223 359.536C142.767 360.16 142.539 360.844 142.539 361.588V371.02C142.539 371.812 142.275 372.4 141.747 372.784C141.243 373.144 140.463 373.324 139.407 373.324V357.34ZM166.18 373.324C164.716 373.324 163.384 373.048 162.184 372.496C161.008 371.944 160.084 371.2 159.412 370.264C158.764 369.304 158.44 368.236 158.44 367.06V361.156C158.44 359.956 158.764 358.864 159.412 357.88C160.084 356.896 161.008 356.116 162.184 355.54C163.36 354.964 164.692 354.676 166.18 354.676C167.668 354.676 169 354.964 170.176 355.54C171.376 356.116 172.3 356.896 172.948 357.88C173.62 358.864 173.956 359.956 173.956 361.156V367.06C173.956 368.236 173.62 369.304 172.948 370.264C172.276 371.2 171.352 371.944 170.176 372.496C169 373.048 167.668 373.324 166.18 373.324ZM166.18 370.624C167.62 370.624 168.76 370.288 169.6 369.616C170.464 368.92 170.896 368.02 170.896 366.916V361.264C170.896 360.112 170.464 359.176 169.6 358.456C168.76 357.736 167.62 357.376 166.18 357.376C164.764 357.376 163.624 357.736 162.76 358.456C161.896 359.176 161.464 360.112 161.464 361.264V366.916C161.464 368.02 161.884 368.92 162.724 369.616C163.588 370.288 164.74 370.624 166.18 370.624ZM178.114 357.34C178.114 355.564 179.11 354.676 181.102 354.676V356.98C180.79 357.316 180.538 357.64 180.346 357.952L180.49 358.096C181.258 357.016 182.074 356.176 182.938 355.576C183.802 354.976 184.798 354.676 185.926 354.676C188.11 354.676 189.61 355.72 190.426 357.808C191.794 355.72 193.618 354.676 195.898 354.676C197.602 354.676 198.91 355.252 199.822 356.404C200.758 357.532 201.226 359.02 201.226 360.868V371.02C201.226 371.812 200.962 372.4 200.434 372.784C199.93 373.144 199.162 373.324 198.13 373.324V361.048C198.13 359.896 197.89 358.996 197.41 358.348C196.93 357.7 196.174 357.376 195.142 357.376C194.062 357.376 193.138 357.748 192.37 358.492C191.602 359.212 191.218 360.184 191.218 361.408V371.02C191.218 371.812 190.966 372.4 190.462 372.784C189.958 373.144 189.19 373.324 188.158 373.324V361.048C188.158 359.896 187.918 358.996 187.438 358.348C186.958 357.7 186.202 357.376 185.17 357.376C184.066 357.376 183.13 357.772 182.362 358.564C181.594 359.356 181.21 360.328 181.21 361.48V371.02C181.21 371.812 180.946 372.4 180.418 372.784C179.914 373.144 179.146 373.324 178.114 373.324V357.34ZM225.32 373.324C223.28 373.324 221.468 372.952 219.884 372.208C218.3 371.44 217.064 370.384 216.176 369.04C215.288 367.672 214.844 366.124 214.844 364.396V356.332C214.844 354.604 215.276 353.068 216.14 351.724C217.028 350.38 218.252 349.336 219.812 348.592C221.372 347.848 223.16 347.476 225.176 347.476C227.192 347.476 228.98 347.8 230.54 348.448C232.1 349.072 233.312 349.948 234.176 351.076C235.064 352.204 235.508 353.488 235.508 354.928C235.508 355.648 235.268 356.212 234.788 356.62C234.308 357.028 233.672 357.232 232.88 357.232C232.712 357.232 232.46 357.208 232.124 357.16C232.172 356.872 232.196 356.416 232.196 355.792C232.196 354.76 231.896 353.836 231.296 353.02C230.72 352.204 229.892 351.568 228.812 351.112C227.756 350.656 226.544 350.428 225.176 350.428C223.832 350.428 222.632 350.68 221.576 351.184C220.52 351.664 219.692 352.36 219.092 353.272C218.516 354.16 218.228 355.18 218.228 356.332V364.396C218.228 365.548 218.528 366.58 219.128 367.492C219.728 368.404 220.568 369.112 221.648 369.616C222.728 370.12 223.952 370.372 225.32 370.372C226.664 370.372 227.864 370.144 228.92 369.688C230 369.232 230.828 368.584 231.404 367.744C232.004 366.904 232.304 365.956 232.304 364.9V362.884H227.768C227.024 362.884 226.424 362.632 225.968 362.128C225.512 361.6 225.284 360.916 225.284 360.076H234.068C234.548 360.076 234.932 360.22 235.22 360.508C235.532 360.796 235.688 361.18 235.688 361.66V364.936C235.688 366.568 235.244 368.02 234.356 369.292C233.492 370.564 232.268 371.56 230.684 372.28C229.124 372.976 227.336 373.324 225.32 373.324ZM245.262 373.324C243.198 373.324 241.53 372.772 240.258 371.668C239.01 370.564 238.386 369.112 238.386 367.312C238.386 365.488 239.046 364.024 240.366 362.92C241.686 361.792 243.426 361.228 245.586 361.228C247.89 361.228 249.786 362.044 251.274 363.676L251.418 363.532C251.154 363.244 250.854 362.944 250.518 362.632V361.12C250.518 359.896 250.134 358.948 249.366 358.276C248.598 357.604 247.506 357.268 246.09 357.268C243.57 357.268 241.77 358.264 240.69 360.256C240.306 360.064 239.982 359.812 239.718 359.5C239.478 359.164 239.358 358.828 239.358 358.492C239.358 357.844 239.682 357.232 240.33 356.656C240.978 356.056 241.83 355.576 242.886 355.216C243.966 354.856 245.094 354.676 246.27 354.676C248.55 354.676 250.338 355.24 251.634 356.368C252.954 357.496 253.614 359.056 253.614 361.048V370.912C253.614 371.752 253.374 372.364 252.894 372.748C252.414 373.132 251.658 373.324 250.626 373.324V371.632C251.13 371.104 251.406 370.792 251.454 370.696L251.31 370.552C249.75 372.4 247.734 373.324 245.262 373.324ZM245.802 370.84C247.29 370.84 248.454 370.528 249.294 369.904C250.158 369.28 250.59 368.416 250.59 367.312C250.59 366.208 250.17 365.332 249.33 364.684C248.49 364.036 247.338 363.712 245.874 363.712C244.506 363.712 243.426 364.036 242.634 364.684C241.866 365.308 241.482 366.184 241.482 367.312C241.482 368.44 241.854 369.316 242.598 369.94C243.366 370.54 244.434 370.84 245.802 370.84ZM260.857 351.976C260.185 351.976 259.621 351.76 259.165 351.328C258.709 350.896 258.481 350.356 258.481 349.708C258.481 349.06 258.709 348.532 259.165 348.124C259.621 347.692 260.185 347.476 260.857 347.476C261.505 347.476 262.057 347.692 262.513 348.124C262.969 348.532 263.197 349.06 263.197 349.708C263.197 350.356 262.969 350.896 262.513 351.328C262.057 351.76 261.505 351.976 260.857 351.976ZM259.273 356.98C259.273 356.188 259.525 355.612 260.029 355.252C260.557 354.868 261.349 354.676 262.405 354.676V371.02C262.405 371.812 262.141 372.4 261.613 372.784C261.109 373.144 260.329 373.324 259.273 373.324V356.98ZM268.254 357.34C268.254 355.564 269.262 354.676 271.278 354.676V356.98C271.062 357.196 270.81 357.52 270.522 357.952L270.666 358.096C271.386 357.088 272.322 356.272 273.474 355.648C274.626 355 275.874 354.676 277.218 354.676C279.162 354.676 280.698 355.252 281.826 356.404C282.954 357.556 283.518 359.044 283.518 360.868V371.02C283.518 371.812 283.254 372.4 282.726 372.784C282.222 373.144 281.442 373.324 280.386 373.324V361.192C280.386 360.04 280.062 359.128 279.414 358.456C278.766 357.784 277.782 357.448 276.462 357.448C275.574 357.448 274.734 357.64 273.942 358.024C273.174 358.384 272.55 358.888 272.07 359.536C271.614 360.16 271.386 360.844 271.386 361.588V371.02C271.386 371.812 271.122 372.4 270.594 372.784C270.09 373.144 269.31 373.324 268.254 373.324V357.34ZM294.704 373.324C293.48 373.324 292.328 373.144 291.248 372.784C290.168 372.4 289.292 371.86 288.62 371.164C287.972 370.468 287.648 369.652 287.648 368.716C287.648 367.564 288.344 366.94 289.736 366.844C289.976 368.188 290.54 369.184 291.428 369.832C292.34 370.456 293.492 370.768 294.884 370.768C296.276 370.768 297.356 370.564 298.124 370.156C298.892 369.748 299.276 369.124 299.276 368.284C299.276 367.684 299.12 367.204 298.808 366.844C298.496 366.46 297.992 366.136 297.296 365.872C296.624 365.584 295.652 365.308 294.38 365.044C292.796 364.684 291.536 364.3 290.6 363.892C289.664 363.484 288.944 362.944 288.44 362.272C287.96 361.6 287.72 360.712 287.72 359.608C287.72 358.672 288.008 357.832 288.584 357.088C289.16 356.32 289.952 355.732 290.96 355.324C291.992 354.892 293.156 354.676 294.452 354.676C295.652 354.676 296.78 354.844 297.836 355.18C298.916 355.516 299.78 355.996 300.428 356.62C301.1 357.244 301.436 357.964 301.436 358.78C301.436 359.332 301.22 359.776 300.788 360.112C300.356 360.424 299.756 360.604 298.988 360.652C298.916 359.596 298.484 358.768 297.692 358.168C296.924 357.544 295.844 357.232 294.452 357.232C293.3 357.232 292.388 357.448 291.716 357.88C291.044 358.312 290.708 358.888 290.708 359.608C290.708 360.376 291.02 360.952 291.644 361.336C292.292 361.696 293.384 362.044 294.92 362.38C297.44 362.884 299.288 363.58 300.464 364.468C301.664 365.332 302.264 366.568 302.264 368.176C302.264 369.808 301.604 371.08 300.284 371.992C298.964 372.88 297.104 373.324 294.704 373.324Z" fill="black"/>
<path d="M57.4049 277.767L44.1963 241.603C43.5864 239.935 44.4451 238.098 46.1142 237.489L48.4976 236.622C50.1667 236.013 52.0043 236.871 52.6142 238.539L65.8228 274.703C66.4326 276.372 65.574 278.208 63.9049 278.818L61.5216 279.684C59.8524 280.286 58.0148 279.427 57.4049 277.767Z" fill="black" stroke="black" stroke-width="1.4039" stroke-miterlimit="10"/>
<path d="M71.4799 283.823L49.051 222.418C48.4412 220.75 49.2998 218.913 50.9689 218.304L54.4998 217.02C56.1689 216.411 58.0065 217.269 58.6164 218.937L81.0453 280.342C81.6552 282.01 80.7966 283.847 79.1274 284.456L75.5966 285.739C73.9274 286.349 72.0898 285.491 71.4799 283.823Z" fill="black" stroke="black" stroke-width="1.4039" stroke-miterlimit="10"/>
<path d="M86.1972 288.274L57.4448 209.545C56.835 207.877 57.6936 206.04 59.3627 205.431L68.0294 202.271C69.6985 201.661 71.5361 202.519 72.146 204.188L100.898 282.916C101.508 284.585 100.65 286.421 98.9805 287.031L90.3138 290.191C88.6527 290.792 86.8071 289.942 86.1972 288.274Z" fill="black" stroke="black" stroke-width="1.4039" stroke-miterlimit="10"/>
<path d="M187.892 316.818C187.66 316.806 186.905 316.785 185.927 316.769C185.909 316.622 185.903 316.481 185.913 316.355C186.086 315.874 186.575 315.243 186.806 315.066C187.151 314.839 187.483 314.774 187.491 314.773C187.582 314.752 187.654 314.741 187.685 314.737C187.753 314.728 187.805 314.725 187.82 314.724C187.841 314.723 187.86 314.722 187.873 314.721L187.892 316.818ZM181.447 314.669L236.11 120.188C243.577 120.227 252.69 120.201 256.649 120.19C257.575 120.188 258.22 120.186 258.495 120.186C265.784 120.186 273.08 120.179 280.378 120.122L225.695 314.685C220.182 314.646 214.67 314.633 209.159 314.633C202.137 314.633 195.102 314.648 188.071 314.719C187.995 314.714 187.93 314.711 187.905 314.71L187.896 314.71C187.711 314.702 187.403 314.693 187.02 314.684C186.249 314.666 185.127 314.648 183.963 314.645C183.119 314.643 182.238 314.648 181.447 314.669Z" fill="#B8F14A" stroke="black" stroke-width="4.21171"/>
<path d="M325.019 285.796L346.156 234.641C346.83 233.005 346.052 231.128 344.415 230.455L342.072 229.484C340.435 228.81 338.557 229.588 337.883 231.225L316.746 282.379C316.072 284.015 316.85 285.892 318.487 286.566L320.83 287.536C322.467 288.218 324.345 287.432 325.019 285.796Z" fill="black" stroke="black" stroke-width="1.4039" stroke-miterlimit="10"/>
<path d="M311.859 288.394L338.661 223.533C339.335 221.897 338.557 220.02 336.92 219.346L333.445 217.911C331.808 217.237 329.93 218.015 329.256 219.651L302.454 284.513C301.78 286.149 302.558 288.025 304.195 288.699L307.67 290.135C309.307 290.809 311.185 290.031 311.859 288.394Z" fill="black" stroke="black" stroke-width="1.4039" stroke-miterlimit="10"/>
<path d="M81.2383 248.854C81.2383 248.854 182.373 171.857 308.047 247.955" stroke="black" stroke-width="25.2703" stroke-miterlimit="10"/>
<path d="M298.401 288.699L329.336 213.828C330.01 212.192 329.232 210.315 327.595 209.642L321.865 207.276C320.228 206.602 318.351 207.38 317.676 209.016L286.741 283.887C286.067 285.523 286.846 287.4 288.483 288.074L294.212 290.44C295.849 291.113 297.727 290.335 298.401 288.699Z" fill="black" stroke="black" stroke-width="1.4039" stroke-miterlimit="10"/>
<path d="M163.184 314.685L108.886 120.122C116.127 120.179 123.366 120.186 130.598 120.186C130.872 120.186 131.513 120.188 132.434 120.19C136.366 120.201 145.404 120.227 152.811 120.188L207.094 314.669C206.312 314.648 205.443 314.643 204.611 314.645C203.456 314.648 202.342 314.666 201.576 314.684C201.196 314.693 200.89 314.702 200.706 314.71L200.697 314.71C200.673 314.711 200.608 314.714 200.532 314.719C193.542 314.648 186.563 314.633 179.588 314.633C174.119 314.633 168.655 314.646 163.184 314.685ZM202.699 316.392C202.706 316.507 202.7 316.635 202.683 316.769C201.702 316.784 200.943 316.806 200.711 316.818L200.731 314.721C200.744 314.722 200.763 314.723 200.785 314.724C200.8 314.725 200.853 314.728 200.921 314.738C200.953 314.742 201.026 314.752 201.118 314.774L201.12 314.774C201.147 314.78 201.475 314.849 201.813 315.077C202.046 315.258 202.532 315.904 202.699 316.392Z" fill="#B8F14A" stroke="black" stroke-width="4.21171"/>
<path d="M166.054 269.104H223.614V312.625H166.054V269.104Z" fill="#B8F14A"/>
<rect x="199.748" y="312.625" width="7.01951" height="4.21171" fill="black"/>
<path d="M70 555C70 535.67 85.67 520 105 520H285C304.33 520 320 535.67 320 555V556C320 575.33 304.33 591 285 591H105C85.67 591 70 575.33 70 556V555Z" fill="#B8F14A"/>
<path d="M166.096 565C165.632 565 165.232 564.832 164.896 564.496C164.576 564.16 164.416 563.76 164.416 563.296V550.36C164.416 549.56 164.68 548.968 165.208 548.584C165.736 548.184 166.544 547.984 167.632 547.984V562.216H174.112C174.864 562.216 175.432 562.456 175.816 562.936C176.2 563.4 176.392 564.088 176.392 565H166.096ZM182.416 565.216C181.376 565.216 180.432 565.032 179.584 564.664C178.752 564.28 178.096 563.752 177.616 563.08C177.136 562.408 176.896 561.648 176.896 560.8V557.416C176.896 556.552 177.128 555.768 177.592 555.064C178.072 554.36 178.728 553.808 179.56 553.408C180.392 552.992 181.344 552.784 182.416 552.784C183.488 552.784 184.44 552.992 185.272 553.408C186.12 553.808 186.776 554.36 187.24 555.064C187.72 555.768 187.96 556.552 187.96 557.416V560.8C187.96 561.648 187.712 562.408 187.216 563.08C186.736 563.752 186.072 564.28 185.224 564.664C184.392 565.032 183.456 565.216 182.416 565.216ZM182.416 562.648C183.216 562.648 183.84 562.464 184.288 562.096C184.752 561.728 184.984 561.232 184.984 560.608V557.56C184.984 556.904 184.752 556.376 184.288 555.976C183.84 555.56 183.216 555.352 182.416 555.352C181.632 555.352 181.008 555.56 180.544 555.976C180.08 556.376 179.848 556.904 179.848 557.56V560.608C179.848 561.232 180.08 561.728 180.544 562.096C181.008 562.464 181.632 562.648 182.416 562.648ZM194.673 570.016C193.729 570.016 192.889 569.88 192.153 569.608C191.417 569.352 190.841 569 190.425 568.552C190.009 568.104 189.801 567.608 189.801 567.064C189.801 566.52 189.985 566.136 190.353 565.912C190.737 565.688 191.273 565.576 191.961 565.576C192.025 566.232 192.281 566.736 192.729 567.088C193.177 567.456 193.825 567.64 194.673 567.64C195.617 567.64 196.281 567.408 196.665 566.944C197.065 566.48 197.265 565.84 197.265 565.024V564.208C197.505 564.032 197.681 563.864 197.793 563.704L197.697 563.584C197.281 564 196.721 564.336 196.017 564.592C195.329 564.848 194.681 564.976 194.073 564.976C193.177 564.976 192.377 564.8 191.673 564.448C190.969 564.08 190.409 563.568 189.993 562.912C189.593 562.256 189.393 561.512 189.393 560.68V557.104C189.393 556.304 189.601 555.576 190.017 554.92C190.449 554.248 191.009 553.728 191.697 553.36C192.401 552.976 193.153 552.784 193.953 552.784C194.833 552.784 195.577 552.96 196.185 553.312C196.809 553.664 197.377 554.168 197.889 554.824L197.985 554.728C197.905 554.584 197.753 554.376 197.529 554.104C197.529 553.224 198.449 552.784 200.289 552.784V564.592C200.289 565.648 200.049 566.584 199.569 567.4C199.089 568.216 198.417 568.856 197.553 569.32C196.705 569.784 195.745 570.016 194.673 570.016ZM194.841 562.408C195.545 562.408 196.137 562.232 196.617 561.88C197.097 561.512 197.337 561.08 197.337 560.584V557.176C197.337 556.664 197.097 556.232 196.617 555.88C196.153 555.528 195.561 555.352 194.841 555.352C194.057 555.352 193.449 555.52 193.017 555.856C192.601 556.192 192.393 556.672 192.393 557.296V560.464C192.393 561.072 192.601 561.552 193.017 561.904C193.433 562.24 194.041 562.408 194.841 562.408ZM205.01 551.656C204.434 551.656 203.954 551.488 203.57 551.152C203.202 550.8 203.018 550.352 203.018 549.808C203.018 549.28 203.202 548.848 203.57 548.512C203.954 548.16 204.434 547.984 205.01 547.984C205.586 547.984 206.058 548.16 206.426 548.512C206.81 548.848 207.002 549.28 207.002 549.808C207.002 550.352 206.81 550.8 206.426 551.152C206.058 551.488 205.586 551.656 205.01 551.656ZM203.498 554.608C203.498 553.952 203.746 553.488 204.242 553.216C204.738 552.928 205.49 552.784 206.498 552.784V563.392C206.498 564.032 206.25 564.496 205.754 564.784C205.258 565.072 204.506 565.216 203.498 565.216V554.608ZM209.838 555.088C209.838 554.352 210.07 553.784 210.534 553.384C211.014 552.984 211.734 552.784 212.694 552.784V554.224C212.502 554.448 212.31 554.704 212.118 554.992L212.262 555.088C212.742 554.368 213.358 553.808 214.11 553.408C214.862 552.992 215.694 552.784 216.606 552.784C217.422 552.784 218.142 552.968 218.766 553.336C219.39 553.704 219.87 554.208 220.206 554.848C220.558 555.488 220.734 556.208 220.734 557.008V563.392C220.734 564.032 220.486 564.496 219.99 564.784C219.494 565.072 218.742 565.216 217.734 565.216V557.44C217.734 556.832 217.55 556.336 217.182 555.952C216.83 555.568 216.31 555.376 215.622 555.376C214.806 555.376 214.134 555.632 213.606 556.144C213.078 556.64 212.814 557.264 212.814 558.016V563.392C212.814 564.032 212.574 564.496 212.094 564.784C211.614 565.072 210.862 565.216 209.838 565.216V555.088Z" fill="black"/>
<rect x="70" y="608" width="250" height="71" rx="35" fill="#B8F14A"/>
<path d="M159.016 653.216C157.576 653.216 156.32 653.04 155.248 652.688C154.176 652.336 153.352 651.84 152.776 651.2C152.216 650.544 151.936 649.784 151.936 648.92C151.936 647.608 152.824 646.952 154.6 646.952C154.664 648.168 155.072 649.088 155.824 649.712C156.592 650.336 157.664 650.648 159.04 650.648C160.176 650.648 161.056 650.456 161.68 650.072C162.304 649.672 162.616 649.12 162.616 648.416C162.616 647.952 162.496 647.576 162.256 647.288C162.016 646.984 161.608 646.72 161.032 646.496C160.456 646.256 159.616 646.016 158.512 645.776C156.944 645.408 155.704 645 154.792 644.552C153.896 644.104 153.248 643.568 152.848 642.944C152.448 642.304 152.248 641.512 152.248 640.568C152.248 639.656 152.512 638.856 153.04 638.168C153.584 637.48 154.344 636.944 155.32 636.56C156.312 636.176 157.448 635.984 158.728 635.984C159.96 635.984 161.056 636.152 162.016 636.488C162.992 636.808 163.752 637.264 164.296 637.856C164.856 638.448 165.136 639.128 165.136 639.896C165.136 641.08 164.28 641.696 162.568 641.744C162.472 640.64 162.12 639.832 161.512 639.32C160.904 638.808 159.976 638.552 158.728 638.552C157.656 638.552 156.832 638.728 156.256 639.08C155.68 639.432 155.392 639.928 155.392 640.568C155.392 641.016 155.504 641.392 155.728 641.696C155.952 641.984 156.328 642.24 156.856 642.464C157.384 642.672 158.136 642.888 159.112 643.112C160.76 643.48 162.064 643.896 163.024 644.36C163.984 644.808 164.68 645.36 165.112 646.016C165.544 646.656 165.76 647.448 165.76 648.392C165.76 649.368 165.48 650.224 164.92 650.96C164.376 651.68 163.592 652.24 162.568 652.64C161.56 653.024 160.376 653.216 159.016 653.216ZM170.064 639.656C169.488 639.656 169.008 639.488 168.624 639.152C168.256 638.8 168.072 638.352 168.072 637.808C168.072 637.28 168.256 636.848 168.624 636.512C169.008 636.16 169.488 635.984 170.064 635.984C170.64 635.984 171.112 636.16 171.48 636.512C171.864 636.848 172.056 637.28 172.056 637.808C172.056 638.352 171.864 638.8 171.48 639.152C171.112 639.488 170.64 639.656 170.064 639.656ZM168.552 642.608C168.552 641.952 168.8 641.488 169.296 641.216C169.792 640.928 170.544 640.784 171.552 640.784V651.392C171.552 652.032 171.304 652.496 170.808 652.784C170.312 653.072 169.56 653.216 168.552 653.216V642.608ZM179.837 658.016C178.893 658.016 178.053 657.88 177.317 657.608C176.581 657.352 176.005 657 175.589 656.552C175.173 656.104 174.965 655.608 174.965 655.064C174.965 654.52 175.149 654.136 175.517 653.912C175.901 653.688 176.437 653.576 177.125 653.576C177.189 654.232 177.445 654.736 177.893 655.088C178.341 655.456 178.989 655.64 179.837 655.64C180.781 655.64 181.445 655.408 181.829 654.944C182.229 654.48 182.429 653.84 182.429 653.024V652.208C182.669 652.032 182.845 651.864 182.957 651.704L182.861 651.584C182.445 652 181.885 652.336 181.181 652.592C180.493 652.848 179.845 652.976 179.237 652.976C178.341 652.976 177.541 652.8 176.837 652.448C176.133 652.08 175.573 651.568 175.157 650.912C174.757 650.256 174.557 649.512 174.557 648.68V645.104C174.557 644.304 174.765 643.576 175.181 642.92C175.613 642.248 176.173 641.728 176.861 641.36C177.565 640.976 178.317 640.784 179.117 640.784C179.997 640.784 180.741 640.96 181.349 641.312C181.973 641.664 182.541 642.168 183.053 642.824L183.149 642.728C183.069 642.584 182.917 642.376 182.693 642.104C182.693 641.224 183.613 640.784 185.453 640.784V652.592C185.453 653.648 185.213 654.584 184.733 655.4C184.253 656.216 183.581 656.856 182.717 657.32C181.869 657.784 180.909 658.016 179.837 658.016ZM180.005 650.408C180.709 650.408 181.301 650.232 181.781 649.88C182.261 649.512 182.501 649.08 182.501 648.584V645.176C182.501 644.664 182.261 644.232 181.781 643.88C181.317 643.528 180.725 643.352 180.005 643.352C179.221 643.352 178.613 643.52 178.181 643.856C177.765 644.192 177.557 644.672 177.557 645.296V648.464C177.557 649.072 177.765 649.552 178.181 649.904C178.597 650.24 179.205 650.408 180.005 650.408ZM188.182 643.088C188.182 642.352 188.414 641.784 188.878 641.384C189.358 640.984 190.078 640.784 191.038 640.784V642.224C190.846 642.448 190.654 642.704 190.462 642.992L190.606 643.088C191.086 642.368 191.702 641.808 192.454 641.408C193.206 640.992 194.038 640.784 194.95 640.784C195.766 640.784 196.486 640.968 197.11 641.336C197.734 641.704 198.214 642.208 198.55 642.848C198.902 643.488 199.078 644.208 199.078 645.008V651.392C199.078 652.032 198.83 652.496 198.334 652.784C197.838 653.072 197.086 653.216 196.078 653.216V645.44C196.078 644.832 195.894 644.336 195.526 643.952C195.174 643.568 194.654 643.376 193.966 643.376C193.15 643.376 192.478 643.632 191.95 644.144C191.422 644.64 191.158 645.264 191.158 646.016V651.392C191.158 652.032 190.918 652.496 190.438 652.784C189.958 653.072 189.206 653.216 188.182 653.216V643.088ZM214.899 653.216C213.555 653.216 212.339 652.944 211.251 652.4C210.179 651.856 209.339 651.104 208.731 650.144C208.123 649.184 207.819 648.096 207.819 646.88V638.36C207.819 637.592 208.091 637.008 208.635 636.608C209.179 636.192 209.979 635.984 211.035 635.984V646.88C211.035 647.952 211.387 648.808 212.091 649.448C212.795 650.088 213.731 650.408 214.899 650.408C216.067 650.408 217.003 650.088 217.707 649.448C218.411 648.808 218.763 647.952 218.763 646.88V638.36C218.763 637.576 219.035 636.984 219.579 636.584C220.123 636.184 220.923 635.984 221.979 635.984V646.88C221.979 648.096 221.675 649.184 221.067 650.144C220.459 651.104 219.611 651.856 218.523 652.4C217.451 652.944 216.243 653.216 214.899 653.216ZM224.674 642.848C224.674 642.256 224.906 641.768 225.37 641.384C225.834 640.984 226.522 640.784 227.434 640.784V642.08C227.162 642.448 227.01 642.664 226.978 642.728L227.074 642.824C227.586 642.152 228.146 641.648 228.754 641.312C229.378 640.96 230.146 640.784 231.058 640.784C231.938 640.784 232.714 640.968 233.386 641.336C234.074 641.688 234.61 642.192 234.994 642.848C235.378 643.504 235.57 644.256 235.57 645.104V648.896C235.57 649.76 235.354 650.52 234.922 651.176C234.506 651.832 233.93 652.336 233.194 652.688C232.458 653.04 231.626 653.216 230.698 653.216C230.106 653.216 229.49 653.096 228.85 652.856C228.226 652.6 227.698 652.256 227.266 651.824L227.17 651.944C227.282 652.104 227.458 652.272 227.698 652.448V656C227.698 657.344 226.69 658.016 224.674 658.016V642.848ZM230.122 650.624C230.906 650.624 231.514 650.456 231.946 650.12C232.378 649.784 232.594 649.312 232.594 648.704V645.296C232.594 644.672 232.378 644.2 231.946 643.88C231.53 643.544 230.922 643.376 230.122 643.376C229.402 643.376 228.81 643.552 228.346 643.904C227.882 644.24 227.65 644.664 227.65 645.176V648.824C227.65 649.32 227.874 649.744 228.322 650.096C228.786 650.448 229.386 650.624 230.122 650.624Z" fill="black"/>
<path d="M153.704 489.216C152.904 489.216 152.24 489.04 151.712 488.688C151.2 488.32 150.856 487.8 150.68 487.128L146.912 472.344C147.296 472.104 147.792 471.984 148.4 471.984C148.992 471.984 149.48 472.128 149.864 472.416C150.248 472.688 150.504 473.08 150.632 473.592L152.648 482.688L152.168 484.536L152.384 484.608L155.648 473.064C155.744 472.728 155.912 472.464 156.152 472.272C156.408 472.08 156.712 471.984 157.064 471.984C157.416 471.984 157.72 472.08 157.976 472.272C158.232 472.464 158.408 472.728 158.504 473.064L161.12 482.904L160.664 484.848L160.928 484.92L163.52 473.592C163.632 473.08 163.872 472.688 164.24 472.416C164.624 472.128 165.12 471.984 165.728 471.984C166.32 471.984 166.824 472.104 167.24 472.344L163.448 487.128C163.272 487.8 162.92 488.32 162.392 488.688C161.88 489.04 161.224 489.216 160.424 489.216L156.776 475.872L156.56 475.944L156.944 477.36L153.704 489.216ZM173.203 489.216C172.211 489.216 171.307 489.024 170.491 488.64C169.675 488.24 169.027 487.704 168.547 487.032C168.067 486.344 167.827 485.576 167.827 484.728V481.536C167.827 480.64 168.075 479.832 168.571 479.112C169.067 478.392 169.723 477.824 170.539 477.408C171.371 476.992 172.267 476.784 173.227 476.784C174.171 476.784 175.035 476.984 175.819 477.384C176.619 477.768 177.251 478.312 177.715 479.016C178.179 479.704 178.411 480.496 178.411 481.392V482.736C178.411 483.088 178.275 483.384 178.003 483.624C177.747 483.864 177.419 483.984 177.019 483.984H170.731V484.512C170.731 485.2 170.939 485.76 171.355 486.192C171.771 486.624 172.395 486.84 173.227 486.84C174.027 486.84 174.619 486.664 175.003 486.312C175.403 485.96 175.603 485.504 175.603 484.944C175.891 484.912 176.091 484.896 176.203 484.896C176.795 484.896 177.259 485.032 177.595 485.304C177.931 485.56 178.099 485.928 178.099 486.408C178.099 486.872 177.883 487.32 177.451 487.752C177.019 488.184 176.427 488.536 175.675 488.808C174.923 489.08 174.099 489.216 173.203 489.216ZM175.699 481.848V481.392C175.699 480.72 175.467 480.176 175.003 479.76C174.539 479.344 173.939 479.136 173.203 479.136C172.467 479.136 171.867 479.344 171.403 479.76C170.955 480.16 170.731 480.704 170.731 481.392V481.848H175.699ZM184.657 489.216C183.329 489.216 182.321 488.84 181.633 488.088C180.961 487.32 180.625 486.352 180.625 485.184V473.808C180.625 473.152 180.865 472.688 181.345 472.416C181.841 472.128 182.601 471.984 183.625 471.984V485.064C183.625 485.608 183.745 486.008 183.985 486.264C184.225 486.504 184.609 486.624 185.137 486.624C185.729 486.624 186.321 486.472 186.913 486.168C187.073 486.312 187.193 486.496 187.273 486.72C187.369 486.928 187.417 487.144 187.417 487.368C187.417 487.848 187.177 488.28 186.697 488.664C186.217 489.032 185.537 489.216 184.657 489.216ZM194.037 489.216C192.997 489.216 192.077 489.032 191.277 488.664C190.477 488.28 189.853 487.752 189.405 487.08C188.957 486.408 188.733 485.648 188.733 484.8V481.44C188.733 480.528 188.957 479.72 189.405 479.016C189.853 478.312 190.477 477.768 191.277 477.384C192.077 476.984 192.989 476.784 194.013 476.784C194.973 476.784 195.821 476.92 196.557 477.192C197.309 477.464 197.893 477.848 198.309 478.344C198.725 478.824 198.933 479.384 198.933 480.024C198.933 480.52 198.741 480.92 198.357 481.224C197.973 481.528 197.469 481.68 196.845 481.68C196.669 481.68 196.541 481.672 196.461 481.656C196.461 480.968 196.237 480.416 195.789 480C195.357 479.584 194.789 479.376 194.085 479.376C193.381 479.376 192.805 479.576 192.357 479.976C191.925 480.376 191.709 480.904 191.709 481.56V484.584C191.709 485.192 191.933 485.688 192.381 486.072C192.829 486.44 193.405 486.624 194.109 486.624C194.813 486.624 195.389 486.416 195.837 486C196.285 485.568 196.509 485.024 196.509 484.368C196.605 484.352 196.741 484.344 196.917 484.344C197.541 484.344 198.045 484.488 198.429 484.776C198.813 485.064 199.005 485.456 199.005 485.952C199.005 486.592 198.789 487.16 198.357 487.656C197.941 488.136 197.357 488.52 196.605 488.808C195.853 489.08 194.997 489.216 194.037 489.216ZM205.705 489.216C204.665 489.216 203.721 489.032 202.873 488.664C202.041 488.28 201.385 487.752 200.905 487.08C200.425 486.408 200.185 485.648 200.185 484.8V481.416C200.185 480.552 200.417 479.768 200.881 479.064C201.361 478.36 202.017 477.808 202.849 477.408C203.681 476.992 204.633 476.784 205.705 476.784C206.777 476.784 207.729 476.992 208.561 477.408C209.409 477.808 210.065 478.36 210.529 479.064C211.009 479.768 211.249 480.552 211.249 481.416V484.8C211.249 485.648 211.001 486.408 210.505 487.08C210.025 487.752 209.361 488.28 208.513 488.664C207.681 489.032 206.745 489.216 205.705 489.216ZM205.705 486.648C206.505 486.648 207.129 486.464 207.577 486.096C208.041 485.728 208.273 485.232 208.273 484.608V481.56C208.273 480.904 208.041 480.376 207.577 479.976C207.129 479.56 206.505 479.352 205.705 479.352C204.921 479.352 204.297 479.56 203.833 479.976C203.369 480.376 203.137 480.904 203.137 481.56V484.608C203.137 485.232 203.369 485.728 203.833 486.096C204.297 486.464 204.921 486.648 205.705 486.648ZM213.135 479.088C213.135 478.352 213.367 477.784 213.831 477.384C214.295 476.984 214.999 476.784 215.943 476.784V478.224C215.655 478.576 215.463 478.832 215.367 478.992L215.535 479.088C216.031 478.336 216.559 477.768 217.119 477.384C217.679 476.984 218.343 476.784 219.111 476.784C220.503 476.784 221.463 477.464 221.991 478.824C222.391 478.184 222.903 477.688 223.527 477.336C224.151 476.968 224.855 476.784 225.639 476.784C226.727 476.784 227.591 477.184 228.231 477.984C228.887 478.768 229.215 479.776 229.215 481.008V487.392C229.215 488.032 228.967 488.496 228.471 488.784C227.991 489.072 227.255 489.216 226.263 489.216V481.248C226.263 480.656 226.127 480.184 225.855 479.832C225.599 479.48 225.199 479.304 224.655 479.304C224.079 479.304 223.591 479.504 223.191 479.904C222.807 480.288 222.615 480.896 222.615 481.728V487.392C222.615 488.032 222.375 488.496 221.895 488.784C221.431 489.072 220.703 489.216 219.711 489.216V481.248C219.711 480.64 219.583 480.168 219.327 479.832C219.071 479.48 218.671 479.304 218.127 479.304C217.455 479.304 216.943 479.536 216.591 480C216.255 480.448 216.087 481.064 216.087 481.848V487.392C216.087 488.032 215.839 488.496 215.343 488.784C214.863 489.072 214.127 489.216 213.135 489.216V479.088ZM237.117 489.216C236.125 489.216 235.221 489.024 234.405 488.64C233.589 488.24 232.941 487.704 232.461 487.032C231.981 486.344 231.741 485.576 231.741 484.728V481.536C231.741 480.64 231.989 479.832 232.485 479.112C232.981 478.392 233.637 477.824 234.453 477.408C235.285 476.992 236.181 476.784 237.141 476.784C238.085 476.784 238.949 476.984 239.733 477.384C240.533 477.768 241.165 478.312 241.629 479.016C242.093 479.704 242.325 480.496 242.325 481.392V482.736C242.325 483.088 242.189 483.384 241.917 483.624C241.661 483.864 241.333 483.984 240.933 483.984H234.645V484.512C234.645 485.2 234.853 485.76 235.269 486.192C235.685 486.624 236.309 486.84 237.141 486.84C237.941 486.84 238.533 486.664 238.917 486.312C239.317 485.96 239.517 485.504 239.517 484.944C239.805 484.912 240.005 484.896 240.117 484.896C240.709 484.896 241.173 485.032 241.509 485.304C241.845 485.56 242.013 485.928 242.013 486.408C242.013 486.872 241.797 487.32 241.365 487.752C240.933 488.184 240.341 488.536 239.589 488.808C238.837 489.08 238.013 489.216 237.117 489.216ZM239.613 481.848V481.392C239.613 480.72 239.381 480.176 238.917 479.76C238.453 479.344 237.853 479.136 237.117 479.136C236.381 479.136 235.781 479.344 235.317 479.76C234.869 480.16 234.645 480.704 234.645 481.392V481.848H239.613Z" fill="white"/>
</svg>
