<svg width="1440" height="945" viewBox="0 0 1440 945" fill="none" xmlns="http://www.w3.org/2000/svg">
<g clip-path="url(#clip0_800_68)">
<path d="M757 -50L744.664 993.666C744.573 1001.33 738.332 1007.5 730.665 1007.5H725.308C717.457 1007.5 711.14 1001.04 711.311 993.196L733.689 -35.6955C733.86 -43.5448 727.543 -50 719.692 -50H367.5M-78 -50V-50C-82.2847 -50 -83.9409 -44.4237 -80.3509 -42.0848L1619.49 1065.37C1626.79 1070.13 1636.62 1067.13 1640.02 1059.1L1641.37 1055.92C1644.04 1049.62 1641.77 1042.31 1635.99 1038.64L-78 -50ZM-78 -50V106M-78 -50H328M-103 905.5V983.04C-103 993.864 -91.2424 1000.59 -81.9095 995.112L1618.11 -3.42835C1630.42 -10.6546 1625.29 -29.5 1611.02 -29.5H1601.59C1599.24 -29.5 1596.92 -28.9045 1594.85 -27.7687L-103 905.5ZM-103 905.5V605.866M-78 106H1789.5L-55 170.5L1446 -73M-78 106V293.5M1446 -73L947.343 1086.58C944.363 1093.51 936.428 1096.83 929.399 1094.09L-113.29 687.79C-122.367 684.254 -125.147 672.759 -118.69 665.466L551.604 -91.6463C555.932 -96.5343 563.063 -97.7825 568.793 -94.655L1534.79 432.557C1544.75 437.995 1544.44 452.407 1534.25 457.412L298.173 1064.59C288.87 1069.16 278 1062.39 278 1052.03V-108.014C278 -122.209 259.31 -127.392 251.999 -115.224L-158.679 568.318C-163.237 575.905 -159.699 585.766 -151.356 588.723L-103 605.866M1446 -73L1138 -52.3273M-213.5 266.5L748.432 -197.864C753.603 -200.36 759.775 -199.445 764 -195.556L1755.67 717.364C1764.29 725.299 1759.93 739.679 1748.36 741.495L-55 1024.5L1789.5 905.5L-149.796 848.025C-158.831 847.757 -165.248 839.125 -162.901 830.396L-106.463 620.5M-213.5 266.5L-174.729 306.957C-170.441 311.431 -163.721 312.554 -158.211 309.717L870.551 -220.074C877.804 -223.809 886.702 -220.576 889.866 -213.056L1391.19 978.668C1397.52 993.713 1420.1 987.601 1417.97 971.418L1279.35 -84.9166C1277.25 -100.894 1254.26 -101.262 1251.65 -85.3596L1038 1218L1075.5 -354L1103.33 -50M-213.5 266.5L-94.826 260.623M1103.33 -50L1207.07 1083.39C1207.83 1091.71 1201.18 1098.84 1192.83 1098.66L96.5856 1074.86C87.9152 1074.67 81.5 1066.73 83.143 1058.21L313.251 -134.345C314.549 -141.069 320.52 -145.868 327.366 -145.687L1641.29 -111.059C1651.34 -110.794 1657.84 -100.351 1653.65 -91.2213L1101.65 1110.78C1098.71 1117.19 1091.45 1120.41 1084.72 1118.29L-206.539 711.629C-215.915 708.676 -219.408 697.233 -213.28 689.547L550.721 -268.617C555.363 -274.438 563.748 -275.609 569.805 -271.281L1472.81 373.785C1486.11 383.288 1502.14 366.172 1491.78 353.523L1052.54 -182.839C1042.7 -194.859 1056.83 -211.575 1070.32 -203.863L1683.44 146.732C1695.58 153.677 1691.15 172.176 1677.18 172.868L-94.826 260.623M1103.33 -50L195.903 1099.32C188.654 1108.51 195.194 1122 206.891 1122H250.001C254.407 1122 258.556 1119.93 261.2 1116.4L1138 -52.3273M1103.33 -50L1138 -52.3273M328 -50L1133.83 1115.96C1136.44 1119.74 1140.74 1122 1145.34 1122H1159.15C1170.47 1122 1177.11 1109.26 1170.62 1099.98L367.5 -50M328 -50H367.5M-103 605.866L1275.08 1094.42C1282.26 1096.97 1290.16 1093.31 1292.85 1086.19L1480.97 589.679C1482.56 585.484 1482.04 580.78 1479.58 577.031L1010.87 -136.307C1007.17 -141.93 1000 -144.13 993.792 -141.546L-145.676 332.422C-155.499 336.508 -157.355 349.625 -149.051 356.276L799.018 1115.61C803.773 1119.42 810.444 1119.71 815.518 1116.34L1535.25 638.144C1541.32 634.108 1543.28 626.086 1539.75 619.705L1130.23 -120.452C1127.39 -125.587 1121.65 -128.405 1115.84 -127.51L-150.368 67.8567C-159.182 69.2167 -164.495 78.3612 -161.311 86.6917L-94.826 260.623M-103 605.866V471.559C-103 464.001 -97.0016 457.808 -89.4478 457.566L1648.95 401.934C1656.5 401.692 1662.5 395.499 1662.5 387.941V381.062C1662.5 373.114 1655.89 366.76 1647.95 367.073L-63.4494 434.427C-71.3912 434.74 -78 428.386 -78 420.438V293.5M-103 605.866L1597.37 216.422C1606.14 214.414 1614.5 221.075 1614.5 230.069V238.196C1614.5 244.792 1609.9 250.492 1603.45 251.882L-106.463 620.5M-106.463 620.5L89.0123 -106.479C92.7606 -120.419 112.598 -120.252 116.111 -106.251L383.673 960.009C387.548 975.451 410.087 973.476 411.217 957.595L483.441 -57.8865C484.668 -75.1438 459.645 -78.8464 455.822 -61.9733L215.219 999.898C212.158 1013.41 193.434 1014.74 188.488 1001.8L-94.826 260.623M-78 293.5L1560.12 701.174C1568.95 703.373 1577.5 696.691 1577.5 687.589V673.037C1577.5 666.564 1573.06 660.935 1566.77 659.424L-94.826 260.623" stroke="black" stroke-width="9" stroke-linecap="round"/>
<path d="M757 -50L744.664 993.666C744.573 1001.33 738.332 1007.5 730.665 1007.5H725.308C717.457 1007.5 711.14 1001.04 711.311 993.196L733.689 -35.6955C733.86 -43.5448 727.543 -50 719.692 -50H367.5M-78 -50V-50C-82.2847 -50 -83.9409 -44.4237 -80.3509 -42.0848L1619.49 1065.37C1626.79 1070.13 1636.62 1067.13 1640.02 1059.1L1641.37 1055.92C1644.04 1049.62 1641.77 1042.31 1635.99 1038.64L-78 -50ZM-78 -50V106M-78 -50H328M-103 905.5V983.04C-103 993.864 -91.2424 1000.59 -81.9095 995.112L1618.11 -3.42835C1630.42 -10.6546 1625.29 -29.5 1611.02 -29.5H1601.59C1599.24 -29.5 1596.92 -28.9045 1594.85 -27.7687L-103 905.5ZM-103 905.5V605.866M-78 106H1789.5L-55 170.5L1446 -73M-78 106V293.5M1446 -73L947.343 1086.58C944.363 1093.51 936.428 1096.83 929.399 1094.09L-113.29 687.79C-122.367 684.254 -125.147 672.759 -118.69 665.466L551.604 -91.6463C555.932 -96.5343 563.063 -97.7825 568.793 -94.655L1534.79 432.557C1544.75 437.995 1544.44 452.407 1534.25 457.412L298.173 1064.59C288.87 1069.16 278 1062.39 278 1052.03V-108.014C278 -122.209 259.31 -127.392 251.999 -115.224L-158.679 568.318C-163.237 575.905 -159.699 585.766 -151.356 588.723L-103 605.866M1446 -73L1138 -52.3273M-213.5 266.5L748.432 -197.864C753.603 -200.36 759.775 -199.445 764 -195.556L1755.67 717.364C1764.29 725.299 1759.93 739.679 1748.36 741.495L-55 1024.5L1789.5 905.5L-149.796 848.025C-158.831 847.757 -165.248 839.125 -162.901 830.396L-106.463 620.5M-213.5 266.5L-174.729 306.957C-170.441 311.431 -163.721 312.554 -158.211 309.717L870.551 -220.074C877.804 -223.809 886.702 -220.576 889.866 -213.056L1391.19 978.668C1397.52 993.713 1420.1 987.601 1417.97 971.418L1279.35 -84.9166C1277.25 -100.894 1254.26 -101.262 1251.65 -85.3596L1038 1218L1075.5 -354L1103.33 -50M-213.5 266.5L-94.826 260.623M1103.33 -50L1207.07 1083.39C1207.83 1091.71 1201.18 1098.84 1192.83 1098.66L96.5856 1074.86C87.9152 1074.67 81.5 1066.73 83.143 1058.21L313.251 -134.345C314.549 -141.069 320.52 -145.868 327.366 -145.687L1641.29 -111.059C1651.34 -110.794 1657.84 -100.351 1653.65 -91.2213L1101.65 1110.78C1098.71 1117.19 1091.45 1120.41 1084.72 1118.29L-206.539 711.629C-215.915 708.676 -219.408 697.233 -213.28 689.547L550.721 -268.617C555.363 -274.438 563.748 -275.609 569.805 -271.281L1472.81 373.785C1486.11 383.288 1502.14 366.172 1491.78 353.523L1052.54 -182.839C1042.7 -194.859 1056.83 -211.575 1070.32 -203.863L1683.44 146.732C1695.58 153.677 1691.15 172.176 1677.18 172.868L-94.826 260.623M1103.33 -50L195.903 1099.32C188.654 1108.51 195.194 1122 206.891 1122H250.001C254.407 1122 258.556 1119.93 261.2 1116.4L1138 -52.3273M1103.33 -50L1138 -52.3273M328 -50L1133.83 1115.96C1136.44 1119.74 1140.74 1122 1145.34 1122H1159.15C1170.47 1122 1177.11 1109.26 1170.62 1099.98L367.5 -50M328 -50H367.5M-103 605.866L1275.08 1094.42C1282.26 1096.97 1290.16 1093.31 1292.85 1086.19L1480.97 589.679C1482.56 585.484 1482.04 580.78 1479.58 577.031L1010.87 -136.307C1007.17 -141.93 1000 -144.13 993.792 -141.546L-145.676 332.422C-155.499 336.508 -157.355 349.625 -149.051 356.276L799.018 1115.61C803.773 1119.42 810.444 1119.71 815.518 1116.34L1535.25 638.144C1541.32 634.108 1543.28 626.086 1539.75 619.705L1130.23 -120.452C1127.39 -125.587 1121.65 -128.405 1115.84 -127.51L-150.368 67.8567C-159.182 69.2167 -164.495 78.3612 -161.311 86.6917L-94.826 260.623M-103 605.866V471.559C-103 464.001 -97.0016 457.808 -89.4478 457.566L1648.95 401.934C1656.5 401.692 1662.5 395.499 1662.5 387.941V381.062C1662.5 373.114 1655.89 366.76 1647.95 367.073L-63.4494 434.427C-71.3912 434.74 -78 428.386 -78 420.438V293.5M-103 605.866L1597.37 216.422C1606.14 214.414 1614.5 221.075 1614.5 230.069V238.196C1614.5 244.792 1609.9 250.492 1603.45 251.882L-106.463 620.5M-106.463 620.5L89.0123 -106.479C92.7606 -120.419 112.598 -120.252 116.111 -106.251L383.673 960.009C387.548 975.451 410.087 973.476 411.217 957.595L483.441 -57.8865C484.668 -75.1438 459.645 -78.8464 455.822 -61.9733L215.219 999.898C212.158 1013.41 193.434 1014.74 188.488 1001.8L-94.826 260.623M-78 293.5L1560.12 701.174C1568.95 703.373 1577.5 696.691 1577.5 687.589V673.037C1577.5 666.564 1573.06 660.935 1566.77 659.424L-94.826 260.623" stroke="#B4B4B4" stroke-width="3" stroke-linecap="round"/>
</g>
<defs>
<clipPath id="clip0_800_68">
<rect width="1440" height="945" fill="white"/>
</clipPath>
</defs>
</svg>
