<svg width="100" height="100" viewBox="0 0 100 100" fill="none" xmlns="http://www.w3.org/2000/svg">
<g clip-path="url(#clip0_676_382)">
<path d="M68.2962 53.1566C68.279 53.2259 68.279 53.2778 68.2618 53.2951C68.1585 53.3989 68.1585 53.5028 68.1069 53.6412C68.0897 53.6932 68.0725 53.6759 68.0897 53.6759C67.9004 53.8316 67.9004 54.0739 67.7799 54.3335C67.7627 54.3854 67.7455 54.3854 67.7455 54.3681C67.6938 54.3854 67.6422 54.4201 67.5906 54.5066C67.5733 54.5412 67.5733 54.5239 67.5906 54.5412C66.7472 54.6797 66.0587 54.1431 65.7489 53.0355C65.7661 52.8278 65.7489 52.6893 65.8005 52.4817C65.835 52.4124 65.835 52.4297 65.835 52.4297C65.9899 52.3259 65.921 52.1528 65.9726 51.9451C66.0071 51.8932 66.0071 51.9105 66.0071 51.9105C66.4718 50.751 66.248 49.5568 66.0415 48.328C65.9899 48.276 66.0071 48.276 66.0071 48.2933C65.921 48.1549 65.9554 47.9991 65.8694 47.8087C65.8177 47.7741 65.835 47.7741 65.835 47.7741C65.7833 47.6876 65.7661 47.5837 65.6801 47.4453C65.0604 46.4761 64.4408 45.5588 63.4597 44.8838C63.3909 44.78 63.3565 44.7454 63.2876 44.6761C63.2532 44.6588 63.2704 44.6588 63.2532 44.6588C63.0983 43.8973 63.2188 43.1185 63.1844 42.3397C63.1844 42.0974 63.2704 41.9589 63.6146 41.9935C65.8005 42.8935 67.1775 44.4858 68.0897 46.5972C68.1413 46.753 68.1585 46.8742 68.2102 47.0126C68.2446 47.0472 68.279 47.0991 68.2618 47.1165C68.3307 47.3068 68.3134 47.4799 68.3823 47.6876C68.4339 47.7222 68.4167 47.7395 68.4167 47.7222C68.7954 48.7952 68.6233 49.9202 68.6577 51.0971C68.6577 51.3394 68.6577 51.4952 68.6233 51.7375C68.606 51.8067 68.6405 51.8413 68.6233 51.8586C68.4167 52.2913 68.4339 52.7067 68.2962 53.1566Z" fill="#E435CA"/>
<path d="M36.7988 58.9891C32.341 57.9161 29.4667 55.1469 27.952 50.8894C27.8315 50.5432 27.7283 50.1798 27.625 49.7644C27.6594 49.6779 27.6938 49.6433 27.7799 49.5913C28.3651 49.574 28.6061 49.9894 28.9331 50.3009C29.7248 51.0625 30.4649 51.8759 31.5148 52.4297C32.3066 53.3989 33.0811 54.2989 34.131 55.0258C34.7679 56.1161 35.6801 56.895 36.5062 57.743C36.7816 58.0199 37.1259 58.2449 37.1775 58.7468C37.1086 58.9372 36.971 58.9545 36.7988 58.9891Z" fill="#2907BC"/>
<path d="M56.7637 40.2455C56.7293 40.159 56.7121 40.1244 56.6949 40.0552C55.4901 39.7783 54.268 39.9859 52.9772 39.8821C52.7362 38.9129 52.8739 37.9783 52.8223 36.9745C53.0804 36.3688 53.3903 36.7322 53.6312 36.888C54.3541 37.3726 55.077 37.8225 55.8515 38.2206C56.3851 38.4975 56.6605 38.411 56.6605 37.7533C56.6605 37.511 56.6777 37.2341 57.0219 37.0264C57.2629 37.7533 57.0736 38.4975 57.194 39.259C57.2457 39.311 57.2285 39.311 57.2285 39.311C57.3489 39.4494 57.5383 39.3802 57.7448 39.4494C58.6915 40.5398 59.9651 41.0417 61.0667 41.7686C61.2388 41.8724 61.4453 41.9243 61.583 42.1493C61.6002 42.6685 61.6002 43.1185 61.6002 43.6377C61.3421 44.2089 60.9462 44.105 60.5847 43.9147C59.3799 43.3089 58.2956 42.5301 57.1424 41.8551C56.9187 41.7167 56.8842 41.4917 56.8842 41.2494C56.9014 40.9378 56.867 40.6263 56.7637 40.2455Z" fill="#9E20C6"/>
<path d="M59.4316 32.1285C59.466 32.1977 59.5004 32.2496 59.5004 32.2842C60.2233 32.6996 60.9979 32.3708 61.824 32.5092C62.2199 33.2188 61.9789 33.963 62.0306 34.7418C61.6003 35.4341 61.1183 35.1053 60.688 34.8803C59.6381 34.3092 58.6054 33.6688 57.6244 32.9765C56.9187 32.4746 56.0237 32.3188 55.4385 31.5746C55.4385 30.0862 55.4385 30.0862 56.8154 30.0862C57.4695 30.0862 58.1235 30.1208 58.7775 30.0862C59.2767 30.0516 59.4316 30.2593 59.3972 30.7266C59.3627 31.142 59.3627 31.6092 59.4316 32.1285Z" fill="#D42ECA"/>
<path d="M42.3926 30.8823C43.89 29.8612 45.5595 29.4112 47.2979 29.1862C47.6766 29.1343 47.7454 29.2901 47.7454 29.6016C47.7454 29.6535 47.7626 29.7228 47.7454 29.7747C47.5389 30.467 48.2273 31.3842 47.3668 31.8515C46.7299 32.1977 45.9554 32.2323 45.1637 32.4054C44.9743 32.4227 44.8711 32.4746 44.6989 32.5265C44.6645 32.5784 44.6473 32.5611 44.6645 32.5611C43.2187 32.8727 42.6508 32.4573 42.3926 30.8823Z" fill="#DF37CA"/>
<path d="M57.2291 39.2244C56.7816 38.6706 57.2463 37.9091 56.9709 37.2341C56.9537 37.2514 56.9193 37.2687 56.9193 37.3033C56.7299 37.7706 57.1947 38.5494 56.6439 38.6879C56.1275 38.8264 55.5423 38.3418 55.026 38.0302C54.3547 37.6149 53.7007 37.1476 52.9778 36.6976C52.7368 36.4034 52.8745 36.0918 52.8057 35.7284C54.131 35.3476 55.4907 35.5899 56.8504 35.538C57.2291 35.5207 57.1946 35.8495 57.1946 36.1091C57.2119 37.1303 57.2119 38.1341 57.2291 39.2244Z" fill="#AE2FC7"/>
<path d="M52.2887 29.2382C52.3747 29.5152 52.3747 29.7575 52.3747 30.0863C52.3059 30.3286 52.3403 30.5017 52.3059 30.6747C52.2198 31.194 52.5985 31.9728 52.0649 32.1805C51.256 32.4747 50.3266 32.4054 49.466 32.1631C49.1906 32.0939 49.225 31.7997 49.225 31.5747C49.225 30.969 49.2422 30.3632 49.225 29.7575C49.2078 29.2902 49.3799 29.1517 49.8274 29.169C50.6192 29.2209 51.4109 29.169 52.2887 29.2382Z" fill="#C22BC8"/>
<path d="M59.5178 56.7565C59.5694 56.7392 59.6038 56.7046 59.6383 56.7046C59.9309 57.2065 60.2235 57.6911 60.6365 58.0891C60.8947 58.3487 61.1357 58.6603 60.8087 59.0929C59.7587 59.2487 58.7605 59.0064 57.7105 59.1795C56.8155 58.6603 56.282 57.8987 55.9033 56.9642C55.9205 56.8603 55.9377 56.8084 56.0066 56.7219C57.0909 56.6699 58.1236 56.6526 59.2424 56.6699C59.3629 56.7046 59.4145 56.7219 59.5178 56.7565Z" fill="#AB23C7"/>
<path d="M55.9729 56.7738C56.0417 57.5353 56.713 57.8295 57.0056 58.366C57.1089 58.5564 57.3498 58.6776 57.4015 58.9718C56.6097 59.4045 55.7663 59.1103 54.8713 59.2141C54.6476 59.2141 54.4927 59.2141 54.2689 59.1795C53.6665 58.816 53.219 58.3834 52.8059 57.9161C52.5305 57.6218 52.2896 57.293 52.565 56.7911C53.1846 56.7046 53.7698 56.6873 54.4238 56.6873C54.9574 56.7392 55.4393 56.6873 55.9729 56.7738Z" fill="#9E20C6"/>
<path d="M56.7293 40.2628C56.8154 40.2974 56.9703 40.4359 56.9531 40.5397C56.8498 41.7858 57.9169 42.0281 58.657 42.5301C59.2594 42.9454 59.9135 43.2916 60.5503 43.655C60.8257 43.8108 61.1011 43.9665 61.4798 43.8108C61.5658 43.7762 61.6002 43.7415 61.6691 43.7589C61.7207 43.88 61.7207 43.9665 61.7207 44.0877C60.602 44.3473 59.5004 44.1569 58.33 44.2781C58.2612 44.3127 58.1923 44.3473 58.1579 44.3473C58.0718 44.3646 58.0374 44.3819 57.9169 44.3992C57.2629 44.105 56.6605 43.8281 56.213 43.3262C55.9548 43.0493 55.6278 43.0146 55.2663 42.9973C54.5606 42.98 53.8378 43.032 53.0632 42.9454C52.96 42.9108 52.9255 42.8762 52.8223 42.807C53.7173 42.4089 54.7156 42.582 55.6622 42.6339C56.5572 42.6685 56.8154 42.3743 56.6949 41.5435C56.6777 41.1455 56.7121 40.7474 56.7293 40.2628Z" fill="#8B20C2"/>
<path d="M37.1082 58.9026C36.6952 57.8988 35.7829 57.3969 35.1289 56.6527C34.733 56.2027 34.2855 55.8219 34.165 55.1296C35.6108 55.9258 37.1427 56.5488 38.9155 56.6527C39.0015 56.7046 39.0015 56.7392 38.9671 56.8257C38.6917 57.0334 38.3819 56.9469 38.0721 57.1027C38.2958 57.5699 38.7089 57.8296 39.0187 58.1757C39.2425 58.4526 39.5695 58.6949 39.363 59.1795C39.1392 59.2314 38.9499 59.2487 38.7089 59.2314C38.227 59.093 37.7967 59.1103 37.2976 59.0757C37.2287 59.0584 37.2459 59.0584 37.2459 59.0584C37.2115 59.0237 37.1771 58.9891 37.1082 58.9026Z" fill="#370ABD"/>
<path d="M31.5661 52.3952C30.5506 52.5856 30.2236 51.5817 29.5351 51.1491C28.9155 50.7683 28.5713 50.0414 27.8312 49.678C27.6591 49.5395 27.7279 49.3837 27.6418 49.2107C27.5902 49.1761 27.573 49.1414 27.573 49.1241C27.5214 48.6049 27.5558 48.0857 27.4697 47.5319C27.5558 47.2203 27.7623 47.0992 27.9344 47.2203C28.7434 47.878 29.69 48.4318 30.2236 49.4703C30.6195 50.4914 30.9809 51.4606 31.5661 52.3952Z" fill="#370ABD"/>
<path d="M66.0238 56.7219C65.6968 57.2411 65.2149 57.5007 64.7329 57.8295C64.5092 57.916 64.3543 58.0199 64.1477 58.1583C64.1133 58.193 64.0789 58.2276 64.0617 58.2103C63.115 58.5045 62.4954 58.3141 61.9618 57.5007C61.6692 57.0853 61.5832 56.6526 62.1684 56.2892C62.2028 56.2373 62.22 56.2546 62.22 56.2373C62.3061 56.2026 62.4093 56.1853 62.5298 56.0988C62.5643 56.0469 62.5643 56.0642 62.547 56.0642C62.5987 56.0469 62.6503 56.0296 62.7192 55.943C62.7536 55.9257 62.7536 55.9084 62.7536 55.9084C62.8224 55.8219 62.9257 55.8219 63.0634 55.7527C63.0978 55.718 63.1322 55.6834 63.1495 55.7007C63.2527 55.7007 63.3216 55.6834 63.3904 55.5623C63.8207 55.1296 64.2338 54.7315 64.6985 54.3162C65.0255 54.4892 64.8534 54.6969 64.7501 54.8873C64.3887 55.6142 64.492 55.8911 65.1976 56.2199C65.473 56.393 65.8345 56.3757 66.0238 56.7219Z" fill="#C92DC9"/>
<path d="M54.0623 58.9892C54.2517 59.0411 54.3893 59.0411 54.5787 59.0411C54.6647 59.093 54.6647 59.145 54.6303 59.2315C53.5288 59.3007 52.4961 59.2834 51.3945 59.2488C49.8455 59.2315 48.3653 59.2488 46.8162 59.2315C46.6785 59.145 46.6097 59.1103 46.4892 59.0411C46.0761 58.5738 45.7663 58.1065 45.3532 57.7085C45.095 57.4662 44.9573 57.1546 45.1467 56.7393C45.9384 56.6874 46.6957 56.67 47.5219 56.67C47.6768 56.7393 47.7284 56.7912 47.7801 56.8777C48.6234 58.2623 49.7078 59.145 51.515 58.7815C52.3756 58.8334 53.219 58.6257 54.0623 58.9892Z" fill="#6D13C3"/>
<path d="M30.5678 43.7761C30.4645 44.4857 30.3096 45.1434 30.1203 45.853C29.7933 46.8568 29.5351 46.9087 28.7261 46.1991C28.1065 45.6453 27.5557 45.0742 27.8483 44.0704C28.0032 43.2569 28.2098 42.53 28.6573 41.8031C28.8122 41.7512 28.9327 41.8031 28.9499 41.9243C29.0876 42.8589 29.7416 43.3435 30.5678 43.7761Z" fill="#5510BE"/>
<path d="M66.0582 56.7566C65.6624 56.67 65.3181 56.5662 64.9911 56.4277C64.1822 56.0816 64.0445 55.4931 64.5952 54.8355C64.6813 54.7316 64.7157 54.5932 64.7674 54.4028C64.7502 54.3336 64.7674 54.3509 64.7674 54.3509C64.8362 54.3336 64.8878 54.2816 64.9395 54.1605C64.9567 54.1086 64.9395 54.0566 64.9567 54.0393C65.06 53.9009 65.146 53.7797 65.2837 53.624C65.3009 53.572 65.2837 53.5374 65.3009 53.5201C65.3698 53.4682 65.4042 53.4163 65.4558 53.3124C65.473 53.2605 65.473 53.2086 65.4903 53.174C65.5419 53.1048 65.5763 53.0701 65.6279 52.9836C65.6452 52.949 65.6279 52.9663 65.6279 52.949C65.6624 52.9317 65.6968 52.8971 65.7829 52.9317C66.0582 53.8143 66.6434 54.2989 67.5212 54.5412C67.4008 55.4931 66.7123 56.0816 66.0582 56.7566Z" fill="#D42ECA"/>
<path d="M42.3584 30.8304C42.7198 31.0554 42.7198 31.4708 42.8919 31.7823C43.2878 32.5265 43.7697 32.7688 44.6131 32.5785C44.2861 32.8035 43.873 33.0284 43.4083 33.2707C43.2362 33.3227 43.1329 33.34 42.9952 33.4265C42.9608 33.4784 42.9608 33.4611 42.978 33.4611C42.9264 33.4784 42.8747 33.513 42.8231 33.5996C42.8059 33.6342 42.7887 33.6169 42.8059 33.6342C42.7715 33.6688 42.7198 33.7034 42.651 33.7727C42.6165 33.8073 42.5993 33.8419 42.5649 33.8246C42.4616 33.8246 42.41 33.8592 42.3067 33.9457C42.2723 33.9976 42.2723 33.9803 42.2895 33.9803C42.2379 34.015 42.2035 34.0496 42.1346 34.1188C42.1174 34.1534 42.1174 34.1361 42.1174 34.1534C41.274 34.4476 40.7921 34.2399 40.3102 33.5477C39.811 32.7861 40.3618 32.4054 40.8437 31.9208C40.8954 31.7996 40.9298 31.765 41.0159 31.7304C41.1363 31.6439 41.2568 31.6439 41.3601 31.54C41.6183 31.142 41.9797 31.0208 42.3584 30.8304Z" fill="#D42ECA"/>
<path d="M30.6371 43.7762C29.4495 43.6204 28.8987 43.032 28.7266 41.7858C28.9159 41.0416 29.3634 40.4705 29.8281 39.8647C30.3617 40.5397 30.9813 41.0936 31.773 41.5262C31.4116 42.2877 30.9469 42.9627 30.6371 43.7762Z" fill="#6D13C3"/>
<path d="M45.0951 56.7046C45.0606 57.3796 45.5942 57.6392 45.9384 58.0373C46.1794 58.3142 46.3343 58.6257 46.5408 58.9891C45.7491 59.2314 44.9402 59.0757 44.0624 59.1276C43.1846 58.5392 42.3756 57.9507 42.3584 56.7738C43.2878 56.7046 44.1656 56.6873 45.0951 56.7046Z" fill="#6110C2"/>
<path d="M43.7519 59.0064C44.6642 59.041 45.5247 59.0583 46.4714 59.0583C46.5919 59.093 46.6435 59.1276 46.7123 59.1968C44.3199 59.2487 41.9103 59.266 39.4146 59.266C39.3629 58.4526 38.6228 58.2276 38.2614 57.7084C38.0721 57.4488 37.5901 57.293 37.745 56.9296C37.8655 56.6354 38.313 56.843 38.6056 56.7911C38.6917 56.7738 38.7777 56.7911 38.9327 56.7911C39.0703 56.7392 39.1392 56.7046 39.2769 56.6873C39.5179 56.67 39.7072 56.67 39.9654 56.7046C40.258 56.8777 40.3268 57.1373 40.4989 57.3449C41.239 58.1757 41.9103 59.1103 43.2528 58.8507C43.3733 58.7987 43.5626 58.8507 43.7519 59.0064Z" fill="#430ABD"/>
<path d="M40.809 31.8516C40.8434 31.9381 40.8606 32.0766 40.7918 32.1631C40.4992 32.5092 40.0173 32.7688 40.4131 33.34C40.7918 33.8938 41.2565 34.2399 42.031 34.1361C41.704 34.5342 41.3081 34.9322 40.8606 35.3303C40.6713 35.3649 40.6197 35.4688 40.568 35.6418C40.5336 35.7457 40.5164 35.7976 40.4303 35.8495C40.3443 35.8841 40.2754 35.9187 40.2238 36.0226C40.2066 36.0745 40.2238 36.0572 40.2238 36.0745C39.3288 36.0572 38.4854 35.0534 38.5887 34.015C38.6231 33.9457 38.6231 33.963 38.6231 33.963C38.6747 33.9284 38.7092 33.8765 38.7608 33.79C39.3632 33.0284 40.0173 32.4054 40.809 31.8516Z" fill="#C22BC8"/>
<path d="M27.7971 44.0531C27.9175 44.9185 28.3134 45.6454 29.0535 46.2165C29.5182 46.5799 29.828 46.6492 30.0174 45.9396C30.0518 46.1992 30.0346 46.5107 30.0174 46.8742C29.9141 47.1338 29.9485 47.3241 29.9829 47.5664C30.0862 48.2068 30.1895 48.7779 30.2755 49.4356C29.4322 48.7779 28.5888 48.0337 27.6766 47.2895C27.2635 46.8395 27.5733 46.3376 27.5045 45.8011C27.47 45.1608 27.6077 44.6415 27.7971 44.0531Z" fill="#430ABD"/>
<path d="M62.1341 56.2373C61.9964 56.6181 61.6866 57.0161 62.1169 57.3969C62.616 57.8469 63.0463 58.5218 63.9757 58.2103C63.3389 58.7468 62.5472 59.0238 61.5661 59.0584C61.3768 59.0064 61.2907 59.0584 61.1702 59.1103C61.0669 59.1276 60.9981 59.1276 60.8948 59.0757C60.9293 58.4872 60.4818 58.2622 60.1892 57.9334C59.8966 57.6219 59.5695 57.345 59.6728 56.7738C60.4645 56.5834 61.2907 56.5142 62.1341 56.2373Z" fill="#B343C9"/>
<path d="M38.5891 33.963C38.7096 34.9322 39.3464 35.5207 40.1726 36.0399C39.9832 36.4899 39.7251 36.9225 39.4152 37.3898C38.3825 37.6494 37.1433 36.9052 36.8679 35.9533C36.8163 35.7456 36.7991 35.5553 37.04 35.3822C37.8318 35.1745 38.1072 34.4995 38.5891 33.963Z" fill="#AE2FC7"/>
<path d="M54.1312 58.9892C53.2706 59.0411 52.41 59.0411 51.4634 59.0411C50.9471 58.6776 50.534 58.2969 50.1897 57.8469C49.966 57.5527 49.7594 57.2412 49.966 56.7912C50.8094 56.7219 51.6183 56.7046 52.4961 56.7219C52.4273 57.4661 52.978 57.8123 53.3911 58.2277C53.6321 58.4527 53.873 58.695 54.1312 58.9892Z" fill="#8B20C2"/>
<path d="M37.005 35.313C36.8673 36.2649 37.9689 37.3379 39.2942 37.4245C39.2253 37.6668 38.9844 37.7187 38.6918 37.736C38.3648 37.6148 38.1066 37.6495 37.7968 37.736C37.7624 37.7879 37.7279 37.7879 37.7107 37.7706C37.5386 37.8052 37.3665 37.8398 37.1427 37.8571C37.0911 37.8918 37.005 37.9091 36.9706 37.9091C36.7985 38.0129 36.6092 37.9437 36.4198 38.0994C36.2821 38.1514 36.1961 38.1514 36.0584 38.1167C35.6453 37.8052 35.2839 37.5283 34.9913 37.1822C34.5954 36.7149 34.5438 36.2822 35.1462 35.8495C35.1978 35.7976 35.2322 35.763 35.2494 35.7803C35.3871 35.763 35.5076 35.7284 35.6453 35.6591C35.7658 35.5726 35.8519 35.5207 35.9895 35.4861C36.0756 35.5034 36.0928 35.5207 36.1617 35.5034C36.1961 35.4688 36.1961 35.4688 36.1961 35.4688C36.3166 35.3476 36.4715 35.3995 36.6608 35.3476C36.8157 35.3303 36.8846 35.313 37.005 35.313Z" fill="#AB23C7"/>
<path d="M35.1982 38.584C34.6646 39.034 34.0966 39.4321 33.4598 39.8475C32.3066 40.1763 31.7042 39.8475 31.0674 38.5148C31.5665 37.8918 32.1517 37.4418 32.8574 37.0437C33.4942 37.7706 34.1311 38.4456 35.1982 38.584Z" fill="#8B20C2"/>
<path d="M30.9984 38.4629C31.6697 39.0859 32.0999 40.0205 33.322 39.8475C32.9089 40.4186 32.4098 40.9724 31.859 41.5609C30.964 41.284 30.1034 41.007 29.9141 39.8821C30.2411 39.3802 30.5853 38.9302 30.9984 38.4629Z" fill="#7D17C4"/>
<path d="M43.8042 58.9718C43.4599 59.041 43.1157 59.041 42.7715 59.041C41.7043 59.041 40.3102 57.9334 40.0176 56.7738C40.7749 56.7046 41.5322 56.6873 42.3584 56.6873C42.41 57.4488 43.0124 57.8295 43.3911 58.3314C43.5288 58.5218 43.8386 58.591 43.8042 58.9718Z" fill="#5510BE"/>
<path d="M49.2602 44.4685C49.2086 44.2435 49.1914 44.0185 49.2086 43.7243C50.0176 43.4473 50.8093 43.6031 51.6699 43.6031C51.8592 44.3473 51.7904 45.0569 51.7559 45.8184C51.1019 46.078 50.4478 45.9396 49.811 45.9742C49.4324 45.9915 49.3291 45.7665 49.3119 45.4377C49.2947 45.1088 49.3807 44.78 49.2602 44.4685Z" fill="#6110C2"/>
<path d="M49.9309 56.7046C49.9481 57.3622 50.344 57.743 50.7398 58.1584C50.9636 58.4007 51.2734 58.5737 51.3595 58.9891C51.1701 59.041 50.9636 59.0064 50.757 59.0583C49.1219 59.4218 48.4679 58.1237 47.6073 57.1892C47.5385 57.1199 47.5729 56.9642 47.5557 56.7911C48.3474 56.5834 49.1047 56.7046 49.9309 56.7046Z" fill="#7D17C4"/>
<path d="M35.2664 38.6359C33.9067 38.6013 33.3215 38.2206 32.9256 37.0956C32.9084 37.0264 32.9256 37.0437 32.9256 37.0437C32.9945 37.0437 33.0461 37.0091 33.0977 36.9052C33.6829 36.3514 34.4058 36.161 35.1287 35.8495C34.6124 36.5764 34.9566 37.0783 35.5762 37.511C35.7655 37.6321 35.9893 37.7187 36.0409 38.0475C36.0754 38.134 36.1098 38.1686 36.0926 38.2552C36.0409 38.3071 36.0065 38.3417 35.9893 38.3244C35.8516 38.3417 35.7311 38.3763 35.5762 38.4456C35.5418 38.4975 35.5418 38.4802 35.5418 38.4802C35.5246 38.4975 35.4902 38.5148 35.4041 38.5667C35.3697 38.584 35.3008 38.6359 35.2664 38.6359Z" fill="#9E20C6"/>
<path d="M56.3335 27.594C54.75 27.594 54.7672 27.594 54.75 26.0363C54.75 25.396 54.8705 25.1364 55.5934 25.1364C57.2801 25.171 57.5383 25.4652 57.2113 27.2132C57.108 27.8017 56.6949 27.5247 56.3335 27.594Z" fill="#B343C9"/>
<path d="M57.866 44.3993C57.9521 44.3473 57.9865 44.3473 58.0726 44.3473C58.107 45.3338 58.0726 46.303 58.107 47.2895C58.1242 47.7914 58.0209 47.9991 57.4529 47.9818C56.1104 47.9299 54.7507 47.9299 53.4082 47.9818C52.7886 47.9991 52.7197 47.7568 52.7197 47.2376C52.7541 45.8011 52.7369 44.3473 52.7542 42.8243C52.7714 42.7378 52.8402 42.7551 52.8918 42.7551C53.15 43.0147 53.15 43.3435 53.15 43.7243C53.1672 44.2608 53.1672 44.7281 53.15 45.2646C53.15 45.68 53.15 46.0261 53.15 46.3723C53.15 47.4799 53.1672 47.4972 54.3204 47.5145C54.9228 47.5145 55.5252 47.4972 56.1793 47.5318C56.3514 47.5318 56.4719 47.5318 56.5752 47.5318C57.6079 47.5318 57.6079 47.5318 57.6251 46.3723C57.6767 45.6973 57.5562 45.0569 57.866 44.3993Z" fill="#5F1E9E"/>
<path d="M59.4837 32.1284C59.1222 31.7823 59.3288 31.2804 59.3115 30.8131C59.3115 30.2939 59.1222 30.1035 58.6059 30.1208C57.9002 30.1554 57.1773 30.1727 56.4888 30.1208C55.7143 30.0516 55.3701 30.3112 55.5078 31.1073C55.525 31.2458 55.5078 31.3842 55.525 31.6092C55.8004 32.0246 55.7487 32.44 55.7315 32.838C55.7143 33.3745 55.9553 33.5822 56.4544 33.6688C56.9708 33.7553 57.5387 33.6168 58.0379 34.0322C57.3666 34.1361 56.6954 34.1014 56.0069 34.1361C55.5078 34.1534 55.284 34.0495 55.3012 33.4784C55.3356 32.5092 55.3356 31.5227 55.3012 30.5535C55.284 30.1208 55.4217 29.9304 55.8692 29.9477C56.8675 29.9823 57.8658 29.9823 58.864 29.9477C59.3804 29.9304 59.5009 30.1381 59.4837 30.6054C59.4664 31.0727 59.5009 31.5573 59.4837 32.1284Z" fill="#A635AE"/>
<path d="M52.3408 29.2208C51.6007 29.2901 50.8261 29.2727 50.0688 29.2901C49.8795 29.2901 49.5525 29.2727 49.5008 29.3593C49.1394 30.1035 49.3459 30.9169 49.3459 31.6957C49.3459 32.1803 49.8623 32.163 50.2065 32.1977C52.0826 32.4226 52.117 32.388 52.3236 30.2073C52.5129 32.388 52.5129 32.4053 50.2926 32.388C48.9156 32.388 49.1222 32.5611 49.105 31.2111C49.0878 29.0651 49.105 29.0651 51.2048 29.0651C51.5835 29.0824 51.9449 29.117 52.3408 29.2208Z" fill="#A635AE"/>
<path d="M61.7381 43.7242C61.6865 43.8108 61.6693 43.8108 61.5832 43.8108C61.5316 43.2916 61.5316 42.755 61.5316 42.1666C61.2045 41.6993 61.2906 41.232 61.2734 40.7647C61.239 39.8128 61.2045 39.7782 60.2407 39.7436C59.449 39.709 58.64 39.8994 57.8138 39.5359C57.6073 39.4667 57.4524 39.4321 57.2803 39.3455C58.5023 39.2936 59.7588 39.3282 60.998 39.2936C61.5832 39.2763 61.807 39.4321 61.7725 40.0551C61.7209 41.2493 61.7553 42.4435 61.7381 43.7242Z" fill="#A635AE"/>
<path d="M61.8416 35.0361C61.8932 34.2227 61.8932 33.4785 61.8932 32.6477C61.9104 32.5266 61.9277 32.492 61.9965 32.4401C62.3579 33.6862 62.1514 34.9669 62.0998 36.2996C61.8932 36.2303 61.8244 36.0573 61.7383 35.8323C61.6695 35.5207 61.6695 35.2957 61.8416 35.0361Z" fill="#B343C9"/>
<path d="M51.3594 59.2487C52.3404 59.2487 53.3904 59.2487 54.4919 59.2314C55.6279 59.0237 56.695 59.1622 57.7966 59.1968C55.7139 59.266 53.5625 59.266 51.3594 59.2487Z" fill="#301D9C"/>
<path d="M57.9864 59.266C56.8332 59.3698 55.7833 59.3179 54.6645 59.2487C54.5957 59.1968 54.6129 59.1622 54.6473 59.0929C55.5251 59.041 56.3857 59.041 57.3323 59.041C58.5027 59.041 59.6043 59.041 60.7747 59.041C60.9296 59.041 60.9984 59.041 61.1361 59.041C61.2566 58.9891 61.3254 58.9545 61.4459 59.0064C61.4976 59.041 61.5148 59.0583 61.532 59.0583C61.1189 59.3872 60.6198 59.1968 60.0518 59.3179C59.9485 59.3352 59.9141 59.3006 59.9141 59.3006C59.9141 59.3006 59.8625 59.3006 59.828 59.3179C59.2428 59.3006 58.6748 59.2833 57.9864 59.266Z" fill="#8B20C2"/>
<path d="M61.8247 35.8495C62.0312 35.936 62.0484 36.0745 62.0484 36.2822C62.0484 36.3341 62.0484 36.3514 62.0312 36.3514C60.8264 36.5591 59.6044 36.4033 58.3307 36.4033C57.866 35.711 58.1758 34.9841 58.0725 34.2053C58.0725 34.1188 58.0897 34.1188 58.0897 34.1188C58.4512 34.1188 58.4168 34.413 58.4856 34.7072C58.52 35.9533 58.52 35.9533 60.0691 35.9533C60.6715 35.9533 61.2223 35.9879 61.8247 35.8495Z" fill="#A635AE"/>
<path d="M49.208 44.5551C49.2769 44.3128 49.3285 44.157 49.3801 44.0012C49.4145 44.0358 49.4834 44.0531 49.4834 44.0878C49.535 45.905 49.535 45.905 51.6693 45.8877C51.0152 46.3031 50.2063 45.9915 49.3801 46.0435C49.2596 45.9569 49.2424 45.905 49.2424 45.7839C49.208 45.3685 49.208 45.005 49.208 44.5551Z" fill="#5F1E9E"/>
<path d="M27.4528 45.7838C27.7626 46.1473 27.5389 46.6492 27.6077 47.1857C27.6077 47.8087 27.6077 48.3626 27.5905 49.0029C27.2807 48.0337 27.47 46.9434 27.4528 45.7838Z" fill="#5F1E9E"/>
<path d="M65.9727 48.3972C66.4718 49.4876 66.5234 50.6645 66.0415 51.9106C66.1964 50.7856 66.2653 49.626 65.9727 48.3972Z" fill="#C92DC9"/>
<path d="M52.7711 35.7629C53.0293 35.9533 52.8916 36.2822 52.926 36.6456C52.926 37.684 52.926 38.6705 52.926 39.7263C52.9088 39.8474 52.8916 39.882 52.8227 39.8647C52.7711 38.4975 52.7539 37.1648 52.7711 35.7629Z" fill="#A635AE"/>
<path d="M52.8058 39.8994C52.7714 39.8302 52.8575 39.8302 52.8919 39.8129C54.1483 39.8475 55.3704 39.8821 56.644 39.9686C55.4048 40.0032 54.1139 39.9859 52.8058 39.8994Z" fill="#5F1E9E"/>
<path d="M58.3135 36.4034C59.4494 36.3687 60.6543 36.3687 61.9451 36.3514C60.8092 36.5591 59.5871 36.4207 58.3135 36.4034Z" fill="#B343C9"/>
<path d="M68.6401 51.3048C68.5541 50.1453 68.6918 49.0376 68.4336 47.8607C68.9844 48.8472 68.7606 49.9895 68.7606 51.1837C68.7262 51.2875 68.6918 51.3048 68.6401 51.3048Z" fill="#C92DC9"/>
<path d="M63.6492 42.0108C63.2361 42.08 63.2533 42.4089 63.2533 42.7377C63.2533 43.3434 63.2533 43.9319 63.2533 44.6242C62.8746 43.828 63.1156 42.9108 63.1156 42.0108C63.0984 41.6127 63.4254 41.907 63.6492 42.0108Z" fill="#A635AE"/>
<path d="M58.3477 44.33C59.3459 43.9493 60.4647 44.2435 61.6351 44.157C61.2048 44.5723 60.6024 44.2954 60.0344 44.3474C59.5008 44.3993 58.9673 44.3474 58.3477 44.33Z" fill="#7D17C4"/>
<path d="M61.9626 32.4053C62.0143 32.4746 61.9798 32.5092 61.911 32.5611C61.102 32.4919 60.3103 32.7169 59.5186 32.388C60.2931 32.3361 61.0848 32.3534 61.9626 32.4053Z" fill="#A635AE"/>
<path d="M51.7212 43.5685C50.9638 43.6377 50.1721 43.6377 49.3115 43.655C50.0172 43.205 50.8606 43.5165 51.7212 43.5685Z" fill="#5F1E9E"/>
<path d="M37.2803 59.1277C37.6761 59.0584 38.1236 58.9892 38.6056 59.1796C38.2097 59.1969 37.7622 59.1796 37.2803 59.1277Z" fill="#301D9C"/>
<path d="M68.3129 53.1739C68.1925 52.7932 68.3301 52.3951 68.5711 51.9797C68.6227 52.3432 68.5195 52.7412 68.3129 53.1739Z" fill="#B343C9"/>
<path d="M56.0242 56.7911C55.5422 56.8084 55.0775 56.7911 54.5439 56.7392C54.957 56.6873 55.4217 56.67 55.9553 56.6873C56.0414 56.6873 56.0414 56.7565 56.0242 56.7911Z" fill="#B343C9"/>
<path d="M67.8141 54.3681C67.7108 54.1431 67.7452 53.9008 68.055 53.7104C68.1066 53.9354 67.9862 54.1258 67.8141 54.3681Z" fill="#B343C9"/>
<path d="M59.7764 59.3007C59.8452 59.318 59.8968 59.318 59.9485 59.318C59.9141 59.1622 59.828 59.2661 59.7764 59.3007Z" fill="#301D9C"/>
<path d="M37.8311 37.7879C37.9687 37.4763 38.2613 37.5456 38.5884 37.6667C38.3818 37.7533 38.1409 37.7706 37.8311 37.7879Z" fill="#9E20C6"/>
<path d="M64.165 58.1931C64.1995 58.0027 64.3199 57.8642 64.6125 57.8469C64.5093 57.9508 64.3716 58.0719 64.165 58.1931Z" fill="#B343C9"/>
<path d="M30.0175 47.5492C29.811 47.4453 29.8282 47.2376 29.9659 46.978C30.0175 47.1165 30.0175 47.2896 30.0175 47.5492Z" fill="#5510BE"/>
<path d="M37.1602 37.9264C37.2118 37.7533 37.4011 37.7533 37.6421 37.7706C37.5732 37.9264 37.4011 37.9264 37.1602 37.9264Z" fill="#9E20C6"/>
<path d="M36.6781 35.3477C36.6437 35.5034 36.4888 35.5034 36.2822 35.5034C36.3683 35.4515 36.506 35.3996 36.6781 35.3477Z" fill="#9E20C6"/>
<path d="M27.5908 49.2452C27.7629 49.2625 27.7801 49.401 27.7801 49.626C27.7801 49.6779 27.7113 49.6952 27.6769 49.6952C27.6252 49.5741 27.608 49.4356 27.5908 49.2452Z" fill="#5F1E9E"/>
<path d="M36.4375 38.134C36.5063 37.9263 36.6613 37.9263 36.885 37.9437C36.9022 38.0648 36.7989 38.1167 36.6096 38.1167C36.5236 38.1167 36.5063 38.1513 36.4375 38.134Z" fill="#9E20C6"/>
<path d="M68.4511 47.7222C68.2445 47.6876 68.2445 47.5145 68.2617 47.2722C68.3306 47.3588 68.3994 47.4972 68.4511 47.7222Z" fill="#C92DC9"/>
<path d="M36.3512 38.0822C36.4028 38.0822 36.4889 38.0822 36.5233 38.0822C36.4373 38.1514 36.2996 38.2033 36.1102 38.2725C36.0586 38.2379 36.0586 38.2033 36.0586 38.1341C36.1447 38.0995 36.2135 38.0995 36.3512 38.0822Z" fill="#8B20C2"/>
<path d="M65.2491 53.6067C65.3008 53.7451 65.2147 53.8663 65.0254 54.0048C65.0598 53.9009 65.1287 53.7625 65.2491 53.6067Z" fill="#C92DC9"/>
<path d="M37.0392 58.868C37.1252 58.9027 37.1769 58.9546 37.2285 59.0411C37.108 59.0757 36.9875 59.0584 36.8154 59.0238C36.8326 58.9719 36.9187 58.92 37.0392 58.868Z" fill="#301D9C"/>
<path d="M65.8008 47.8607C65.9901 47.878 66.0073 48.0338 65.9901 48.2761C65.818 48.2415 65.818 48.0684 65.8008 47.8607Z" fill="#C92DC9"/>
<path d="M65.8351 52.9144C65.8006 52.9836 65.7662 52.9836 65.6802 52.9663C65.663 52.8105 65.6974 52.6548 65.7662 52.4817C65.8351 52.5855 65.8351 52.724 65.8351 52.9144Z" fill="#C92DC9"/>
<path d="M65.9378 51.9624C65.9722 52.0836 65.9378 52.2393 65.869 52.4297C65.8345 52.3085 65.869 52.1528 65.9378 51.9624Z" fill="#C92DC9"/>
<path d="M68.6055 51.3393C68.6055 51.2701 68.6743 51.2528 68.7087 51.2528C68.726 51.4259 68.7259 51.599 68.6571 51.8239C68.6055 51.7201 68.6055 51.5643 68.6055 51.3393Z" fill="#B343C9"/>
<path d="M43.0116 33.4611C42.9944 33.34 43.0977 33.2708 43.287 33.2708C43.2526 33.34 43.1665 33.3919 43.0116 33.4611Z" fill="#C22BC8"/>
<path d="M35.6113 38.4802C35.6113 38.359 35.7146 38.2898 35.9039 38.2898C35.8695 38.359 35.7662 38.4109 35.6113 38.4802Z" fill="#8B20C2"/>
<path d="M40.585 35.6592C40.585 35.5726 40.6366 35.4688 40.7399 35.3477C40.7571 35.4515 40.6882 35.538 40.585 35.6592Z" fill="#AE2FC7"/>
<path d="M39.2598 56.6527C39.2253 56.7046 39.1565 56.7392 39.036 56.7738C38.9844 56.7738 38.9844 56.7219 38.9844 56.6873C39.0704 56.6527 39.1393 56.6354 39.2598 56.6527Z" fill="#B343C9"/>
<path d="M62.4958 56.0642C62.4614 56.1161 62.3926 56.1854 62.2549 56.2373C62.2721 56.1854 62.3582 56.1334 62.4958 56.0642Z" fill="#B343C9"/>
<path d="M63.0466 55.7527C63.0122 55.8046 62.9434 55.8738 62.8057 55.9431C62.8401 55.8738 62.9089 55.8046 63.0466 55.7527Z" fill="#B343C9"/>
<path d="M35.6451 35.6592C35.6451 35.7803 35.5419 35.8323 35.3525 35.8323C35.387 35.763 35.4902 35.7111 35.6451 35.6592Z" fill="#9E20C6"/>
<path d="M44.7334 32.5785C44.7334 32.4573 44.8367 32.4054 45.0432 32.4054C44.9916 32.4573 44.8883 32.5265 44.7334 32.5785Z" fill="#D42ECA"/>
<path d="M68.141 53.6586C68.1238 53.5893 68.141 53.4855 68.2098 53.347C68.227 53.4336 68.2098 53.5374 68.141 53.6586Z" fill="#B343C9"/>
<path d="M41.3253 31.4708C41.3081 31.5227 41.222 31.6093 41.1016 31.6785C41.1188 31.6266 41.2048 31.5574 41.3253 31.4708Z" fill="#C22BC8"/>
<path d="M65.6279 47.5145C65.6796 47.5491 65.7484 47.6184 65.8173 47.7568C65.7656 47.7222 65.6968 47.6357 65.6279 47.5145Z" fill="#C92DC9"/>
<path d="M68.2447 47.0473C68.1931 47.0127 68.1415 46.9088 68.0898 46.7531C68.1415 46.805 68.1931 46.8915 68.2447 47.0473Z" fill="#C92DC9"/>
<path d="M49.2085 45.7838C49.2429 45.8184 49.2773 45.8877 49.2945 45.9915C49.174 45.9915 49.1912 45.905 49.2085 45.7838Z" fill="#6110C2"/>
<path d="M42.8227 33.5996C42.8055 33.565 42.8399 33.5131 42.9259 33.4612C42.9431 33.4958 42.9087 33.5477 42.8227 33.5996Z" fill="#C22BC8"/>
<path d="M35.4212 38.584C35.404 38.5321 35.4384 38.4975 35.5417 38.4629C35.5417 38.4975 35.4901 38.5494 35.4212 38.584Z" fill="#8B20C2"/>
<path d="M62.7025 55.9431C62.7025 55.9777 62.6681 56.0297 62.582 56.0643C62.582 56.0297 62.6165 55.995 62.7025 55.9431Z" fill="#B343C9"/>
<path d="M42.6332 33.7726C42.616 33.738 42.6676 33.6861 42.7365 33.6342C42.7537 33.6515 42.7193 33.7034 42.6332 33.7726Z" fill="#C22BC8"/>
<path d="M38.7604 33.7554C38.7776 33.79 38.7432 33.8419 38.6743 33.9111C38.6571 33.8938 38.6915 33.8419 38.7604 33.7554Z" fill="#AE2FC7"/>
<path d="M42.3232 33.963C42.3232 33.9111 42.3749 33.8592 42.4781 33.8073C42.4781 33.8419 42.4265 33.8938 42.3232 33.963Z" fill="#C22BC8"/>
<path d="M59.5184 56.7046C59.5012 56.7392 59.4324 56.7392 59.3291 56.7219C59.3635 56.6873 59.4324 56.6873 59.5184 56.7046Z" fill="#B343C9"/>
<path d="M42.1342 34.1188C42.117 34.0842 42.1514 34.0322 42.2375 33.963C42.2547 34.0149 42.2202 34.0669 42.1342 34.1188Z" fill="#C22BC8"/>
<path d="M63.3561 55.5624C63.3561 55.597 63.3217 55.6662 63.2012 55.7354C63.2012 55.6835 63.2528 55.6316 63.3561 55.5624Z" fill="#B343C9"/>
<path d="M36.1794 35.5034C36.1794 35.538 36.145 35.5553 36.0762 35.5553C36.0934 35.5207 36.1106 35.5034 36.1794 35.5034Z" fill="#9E20C6"/>
<path d="M67.6078 54.5585C67.5906 54.5239 67.625 54.4719 67.7111 54.4027C67.7283 54.4373 67.6939 54.4892 67.6078 54.5585Z" fill="#D42ECA"/>
<path d="M64.9049 54.1259C64.9221 54.1605 64.9049 54.2297 64.8188 54.3335C64.8016 54.2816 64.8361 54.2297 64.9049 54.1259Z" fill="#C92DC9"/>
<path d="M65.4217 53.295C65.4389 53.3297 65.4217 53.3989 65.3529 53.4854C65.3357 53.4508 65.3529 53.3816 65.4217 53.295Z" fill="#C92DC9"/>
<path d="M65.5942 52.9663C65.6287 53.0182 65.6114 53.0702 65.5254 53.1221C65.5254 53.1048 65.5426 53.0355 65.5942 52.9663Z" fill="#C92DC9"/>
<path d="M40.2583 36.0399C40.2411 36.0053 40.2755 35.936 40.3444 35.8668C40.3616 35.9187 40.3444 35.9707 40.2583 36.0399Z" fill="#AE2FC7"/>
<path d="M63.2529 44.7281C63.2874 44.7108 63.339 44.7454 63.4078 44.8319C63.3734 44.8319 63.3046 44.7973 63.2529 44.7281Z" fill="#A635AE"/>
<path d="M33.0812 36.8706C33.0984 36.9052 33.064 36.9571 32.9779 37.0264C32.9607 36.9918 32.9951 36.9398 33.0812 36.8706Z" fill="#8B20C2"/>
<path d="M57.7451 39.5532C58.795 39.484 59.8449 39.5013 60.8949 39.484C61.3768 39.4666 61.5661 39.6397 61.5489 40.1243C61.5145 40.7301 61.5489 41.3185 61.5489 41.9935C60.1031 41.5262 58.7434 40.8512 57.7451 39.5532Z" fill="#AB23C7"/>
<path d="M61.8934 35.7803C61.4975 36.5418 60.8434 36.0399 60.241 36.1956C59.6214 35.6764 58.8125 35.538 58.3133 34.8457C58.2445 34.6034 58.21 34.3957 58.1412 34.1534C57.4872 33.738 56.7815 33.9457 56.1274 33.8419C55.525 33.7553 55.5078 33.5476 55.5078 33.115C55.5078 32.6823 55.5078 32.2669 55.525 31.765C56.902 32.0592 57.9691 33.0111 59.1739 33.6861C60.0173 34.1534 60.723 34.8976 61.8073 34.9841C61.8761 35.2264 61.8761 35.4687 61.8934 35.7803Z" fill="#C92DC9"/>
<path d="M57.8999 44.2954C57.9171 44.9877 57.9171 45.6107 57.9171 46.3376C57.4868 46.7357 57.1598 46.4241 56.8328 46.2338C55.5591 45.4723 54.3371 44.6069 52.9773 43.8627C52.9257 43.5339 52.9257 43.2223 52.9429 42.8589C53.1495 42.7896 53.356 42.7723 53.5453 42.7723C55.9205 42.7723 55.9205 42.7723 57.8999 44.2954Z" fill="#7D17C4"/>
<path d="M61.4978 58.9891C61.4289 59.0411 61.3601 59.0411 61.2396 59.0411C61.2224 58.9545 61.2396 58.8161 61.3085 58.7814C61.4117 58.7295 61.4978 58.8161 61.4978 58.9891Z" fill="#AB23C7"/>
<path d="M55.5421 27.369C54.5266 27.1094 55.0946 26.3652 55.0258 25.8633C54.9569 25.3268 55.4733 25.4653 55.7831 25.4653C56.833 25.4307 57.2977 26.1229 56.8502 27.0921C56.592 27.646 56.0413 27.2652 55.5421 27.369Z" fill="#E435CA"/>
<path d="M52.9258 43.8973C53.8036 43.88 54.406 44.5031 55.1289 44.9011C56.0239 45.3857 56.7812 46.1299 57.8483 46.4069C57.9 47.9991 58.1065 47.7741 56.437 47.7914C55.6797 47.203 54.9051 46.8049 54.1306 46.3722C53.7175 46.1299 53.3044 45.8703 52.9602 45.4204C52.9258 44.9011 52.9258 44.4338 52.9258 43.8973Z" fill="#6D13C3"/>
<path d="M52.9258 45.455C54.0446 46.1819 55.4215 46.5799 56.3682 47.7222C55.4387 47.7914 54.5093 47.7741 53.5627 47.7914C53.0807 47.8087 52.8914 47.6357 52.9258 47.1511C52.943 46.6145 52.9258 46.078 52.9258 45.455Z" fill="#6110C2"/>
<path d="M58.2617 34.8804C58.8986 35.1919 59.6559 35.4342 60.1378 36.1265C59.914 36.1957 59.6903 36.1957 59.4665 36.1957C58.2617 36.1957 58.2617 36.1957 58.2617 34.8804Z" fill="#C22BC8"/>
<path d="M24.1996 69.5639L22.8227 71.3465H19.3459C16.9535 71.3465 15.1807 69.8235 15.1807 67.7985C15.1807 65.7563 16.9535 64.389 19.3459 64.389H24.1824L22.8055 66.189H19.3287C18.1755 66.189 17.2977 66.8813 17.2977 67.8851C17.2977 68.8716 18.1583 69.5466 19.3287 69.5466H24.1996V69.5639Z" fill="#370ABD"/>
<path d="M32.4265 69.5638L31.0496 71.3464H24.9395V64.4062H27.0737V69.5638H32.4265Z" fill="#370ABD"/>
<path d="M42.754 67.8677C42.754 70.3426 41.0673 71.4676 37.711 71.4676C34.3375 71.4676 32.668 70.36 32.668 67.8677C32.668 65.3928 34.3547 64.2852 37.711 64.2852C41.0501 64.2852 42.754 65.3928 42.754 67.8677ZM40.6198 67.8677C40.6198 66.3793 39.8452 66.0851 37.6938 66.0851C35.5423 66.0851 34.7678 66.362 34.7678 67.8677C34.7678 69.3734 35.5423 69.6504 37.6938 69.6504C39.8452 69.6504 40.6198 69.3561 40.6198 67.8677Z" fill="#370ABD"/>
<path d="M52.8059 68.3177C52.8059 70.4118 51.3773 71.4676 48.503 71.4676C45.1811 71.4676 43.7354 70.4118 43.7354 68.3177V64.4062H45.8696V68.3177C45.8696 69.3388 46.2999 69.6849 48.503 69.6849C50.1381 69.6849 50.6545 69.3042 50.6545 68.3177V64.4062H52.8059V68.3177Z" fill="#370ABD"/>
<path d="M58.6407 71.3464H54.0107V67.0196H56.1622V69.5638H58.6407C59.8283 69.5638 60.6889 68.9061 60.6889 67.9023C60.6889 66.9331 59.7939 66.2062 58.6407 66.2062H54.0107L55.3705 64.4062H58.6407C61.0503 64.4062 62.8059 65.8081 62.8059 67.8158C62.8059 69.8234 61.0331 71.3464 58.6407 71.3464Z" fill="#370ABD"/>
<path d="M68.6053 64.4062H71.1354V71.3464H69.0012V66.2062H67.3145L68.6053 64.4062Z" fill="#370ABD"/>
<path d="M81.0497 67.8677C81.0497 70.3426 79.5695 71.4676 76.6435 71.4676C73.7175 71.4676 72.2373 70.36 72.2373 67.8677C72.2373 65.3928 73.7175 64.2852 76.6435 64.2852C79.5695 64.2852 81.0497 65.3928 81.0497 67.8677ZM78.9499 67.8677C78.9499 66.3793 78.3475 66.0851 76.6435 66.0851C74.9395 66.0851 74.3371 66.362 74.3371 67.8677C74.3371 69.3734 74.9395 69.6504 76.6435 69.6504C78.3475 69.6504 78.9499 69.3561 78.9499 67.8677Z" fill="#370ABD"/>
</g>
<defs>
<clipPath id="clip0_676_382">
<rect width="100" height="100" fill="white"/>
</clipPath>
</defs>
</svg>
