<svg width="1070" height="1070" viewBox="0 0 1070 1070" fill="none" xmlns="http://www.w3.org/2000/svg">
<path d="M68.3925 736.014L23.6647 613.553C21.5995 607.903 24.5072 601.684 30.1593 599.62L38.2299 596.687C43.882 594.622 50.1048 597.529 52.17 603.178L96.8976 725.639C98.9628 731.288 96.0551 737.508 90.403 739.572L82.3326 742.505C76.6805 744.542 70.4577 741.636 68.3925 736.014Z" fill="black" stroke="black" stroke-width="4.75398" stroke-miterlimit="10"/>
<path d="M116.054 756.519L40.1042 548.587C38.039 542.938 40.9465 536.719 46.5986 534.655L58.555 530.309C64.2071 528.245 70.4299 531.151 72.4951 536.8L148.445 744.732C150.51 750.381 147.603 756.601 141.951 758.665L129.994 763.01C124.342 765.074 118.119 762.168 116.054 756.519Z" fill="black" stroke="black" stroke-width="4.75398" stroke-miterlimit="10"/>
<path d="M165.893 771.593L68.53 504.997C66.4648 499.348 69.3724 493.128 75.0245 491.064L104.372 480.363C110.024 478.299 116.247 481.205 118.312 486.854L215.675 753.45C217.74 759.099 214.833 765.319 209.18 767.383L179.833 778.084C174.208 780.121 167.958 777.242 165.893 771.593Z" fill="black" stroke="black" stroke-width="4.75398" stroke-miterlimit="10"/>
<path d="M974.603 763.2L1046.18 589.978C1048.46 584.437 1045.83 578.082 1040.28 575.801L1032.35 572.515C1026.8 570.233 1020.45 572.868 1018.16 578.408L946.587 751.63C944.305 757.171 946.94 763.526 952.484 765.807L960.419 769.094C965.962 771.402 972.321 768.741 974.603 763.2Z" fill="black" stroke="black" stroke-width="4.75398" stroke-miterlimit="10"/>
<path d="M930.039 772L1020.8 552.362C1023.08 546.822 1020.45 540.467 1014.9 538.185L1003.14 533.324C997.593 531.042 991.234 533.677 988.952 539.217L898.192 758.855C895.909 764.395 898.545 770.75 904.088 773.032L915.855 777.893C921.398 780.175 927.757 777.54 930.039 772Z" fill="black" stroke="black" stroke-width="4.75398" stroke-miterlimit="10"/>
<path d="M884.47 773.031L989.224 519.499C991.507 513.959 988.871 507.603 983.327 505.322L963.925 497.31C958.382 495.029 952.023 497.663 949.741 503.203L844.987 756.736C842.704 762.276 845.34 768.632 850.883 770.913L870.285 778.925C875.829 781.206 882.187 778.572 884.47 773.031Z" fill="black" stroke="black" stroke-width="4.75398" stroke-miterlimit="10"/>
<path d="M426.589 861.026L242.722 202.187C267.241 202.38 291.753 202.402 316.243 202.402C317.173 202.402 319.351 202.409 322.505 202.417L322.515 202.417C335.866 202.455 366.405 202.541 391.463 202.408L525.162 681.421L532.007 705.943L538.896 681.433L673.536 202.408C698.798 202.541 729.588 202.455 743.031 202.417L743.042 202.417C746.212 202.409 748.402 202.402 749.337 202.402C774.02 202.402 798.725 202.38 823.437 202.186L638.267 861.026C620.387 860.901 602.51 860.854 584.639 860.85L575.243 860.848L575.274 860.959C573.003 860.906 570.524 860.893 568.108 860.901C564.402 860.913 560.737 860.976 558.005 861.035C556.637 861.065 555.498 861.094 554.7 861.116C554.301 861.127 553.987 861.136 553.772 861.142L553.578 861.148L532.086 860.976L532.029 860.975L531.972 860.976L510.342 861.148L510.146 861.142C509.929 861.136 509.612 861.127 509.21 861.116C508.407 861.094 507.26 861.065 505.882 861.035C503.13 860.976 499.437 860.913 495.705 860.901C493.253 860.893 490.736 860.907 488.435 860.961L488.467 860.848L479.053 860.85C461.563 860.855 444.086 860.902 426.589 861.026Z" fill="#B8F14A" stroke="black" stroke-width="14.2619"/>
<path d="M494.219 566.654C612.42 555.354 758.412 574.787 917.873 671.344L955 594C771.521 482.9 608.671 467.177 471.802 482.99L494.219 566.654Z" fill="black"/>
<path d="M328.569 507.561C271.017 524.223 223.792 545.376 189.317 563.537C168.667 574.416 152.502 584.269 141.33 591.529C135.742 595.161 131.394 598.15 128.35 600.302C126.827 601.378 125.631 602.246 124.767 602.88C124.335 603.197 123.986 603.456 123.721 603.654C123.589 603.753 123.478 603.837 123.388 603.905L123.269 603.995L123.221 604.031C123.2 604.047 123.181 604.061 149.099 638.104C175.016 672.147 175 672.16 174.984 672.171L174.96 672.19L174.976 672.178C175.014 672.149 175.08 672.1 175.171 672.033C175.24 671.982 175.323 671.92 175.421 671.848C175.88 671.512 176.658 670.946 177.748 670.176C179.928 668.634 183.354 666.273 187.96 663.279C197.18 657.288 211.095 648.784 229.201 639.246C259.403 623.335 301.016 604.676 351.755 589.934L328.569 507.561Z" fill="black"/>
</svg>
